<?xml version="1.0" encoding="UTF-8" standalone="no"?>
<!-- Created with Inkscape (http://www.inkscape.org/) -->
<svg xmlns:ns0="http://www.iki.fi/pav/software/textext/" xmlns:dc="http://purl.org/dc/elements/1.1/" xmlns:cc="http://creativecommons.org/ns#" xmlns:rdf="http://www.w3.org/1999/02/22-rdf-syntax-ns#" xmlns:svg="http://www.w3.org/2000/svg" xmlns="http://www.w3.org/2000/svg" xmlns:sodipodi="http://sodipodi.sourceforge.net/DTD/sodipodi-0.dtd" xmlns:inkscape="http://www.inkscape.org/namespaces/inkscape" width="345.48141" height="151.20451" id="svg2" version="1.1" inkscape:version="0.47 r22583" sodipodi:docname="Mynd_vorpunar.svg">
  <sodipodi:namedview id="base" pagecolor="#ffffff" bordercolor="#666666" borderopacity="1.0" inkscape:pageopacity="0.0" inkscape:pageshadow="2" inkscape:zoom="2" inkscape:cx="228.65631" inkscape:cy="64.619499" inkscape:document-units="px" inkscape:current-layer="layer1" showgrid="false" inkscape:window-width="1280" inkscape:window-height="744" inkscape:window-x="-4" inkscape:window-y="-4" inkscape:window-maximized="1"/>
  <defs id="defs4">
    <marker inkscape:stockid="Arrow2Lend" orient="auto" refY="0" refX="0" id="Arrow2Lend" style="overflow:visible">
      <path id="path3738" style="font-size:12px;fill-rule:evenodd;stroke-width:0.625;stroke-linejoin:round" d="M 8.7185878,4.0337352 -2.2072895,0.01601326 8.7185884,-4.0017078 c -1.7454984,2.3720609 -1.7354408,5.6174519 -6e-7,8.035443 z" transform="matrix(-1.1,0,0,-1.1,-1.1,0)"/>
    </marker>
    <inkscape:perspective sodipodi:type="inkscape:persp3d" inkscape:vp_x="0 : 526.18109 : 1" inkscape:vp_y="0 : 1000 : 0" inkscape:vp_z="744.09448 : 526.18109 : 1" inkscape:persp3d-origin="372.04724 : 350.78739 : 1" id="perspective10"/>
    <inkscape:perspective id="perspective2828" inkscape:persp3d-origin="0.5 : 0.33333333 : 1" inkscape:vp_z="1 : 0.5 : 1" inkscape:vp_y="0 : 1000 : 0" inkscape:vp_x="0 : 0.5 : 1" sodipodi:type="inkscape:persp3d"/>
    <inkscape:perspective id="perspective3626" inkscape:persp3d-origin="0.5 : 0.33333333 : 1" inkscape:vp_z="1 : 0.5 : 1" inkscape:vp_y="0 : 1000 : 0" inkscape:vp_x="0 : 0.5 : 1" sodipodi:type="inkscape:persp3d"/>
    <inkscape:perspective id="perspective3626-4" inkscape:persp3d-origin="0.5 : 0.33333333 : 1" inkscape:vp_z="1 : 0.5 : 1" inkscape:vp_y="0 : 1000 : 0" inkscape:vp_x="0 : 0.5 : 1" sodipodi:type="inkscape:persp3d"/>
    <inkscape:perspective id="perspective3626-9" inkscape:persp3d-origin="0.5 : 0.33333333 : 1" inkscape:vp_z="1 : 0.5 : 1" inkscape:vp_y="0 : 1000 : 0" inkscape:vp_x="0 : 0.5 : 1" sodipodi:type="inkscape:persp3d"/>
    <inkscape:perspective id="perspective3626-8" inkscape:persp3d-origin="0.5 : 0.33333333 : 1" inkscape:vp_z="1 : 0.5 : 1" inkscape:vp_y="0 : 1000 : 0" inkscape:vp_x="0 : 0.5 : 1" sodipodi:type="inkscape:persp3d"/>
    <inkscape:perspective id="perspective3626-2" inkscape:persp3d-origin="0.5 : 0.33333333 : 1" inkscape:vp_z="1 : 0.5 : 1" inkscape:vp_y="0 : 1000 : 0" inkscape:vp_x="0 : 0.5 : 1" sodipodi:type="inkscape:persp3d"/>
    <inkscape:perspective id="perspective3626-5" inkscape:persp3d-origin="0.5 : 0.33333333 : 1" inkscape:vp_z="1 : 0.5 : 1" inkscape:vp_y="0 : 1000 : 0" inkscape:vp_x="0 : 0.5 : 1" sodipodi:type="inkscape:persp3d"/>
    <inkscape:perspective id="perspective3626-7" inkscape:persp3d-origin="0.5 : 0.33333333 : 1" inkscape:vp_z="1 : 0.5 : 1" inkscape:vp_y="0 : 1000 : 0" inkscape:vp_x="0 : 0.5 : 1" sodipodi:type="inkscape:persp3d"/>
    <inkscape:perspective id="perspective3626-52" inkscape:persp3d-origin="0.5 : 0.33333333 : 1" inkscape:vp_z="1 : 0.5 : 1" inkscape:vp_y="0 : 1000 : 0" inkscape:vp_x="0 : 0.5 : 1" sodipodi:type="inkscape:persp3d"/>
    <inkscape:perspective id="perspective3626-1" inkscape:persp3d-origin="0.5 : 0.33333333 : 1" inkscape:vp_z="1 : 0.5 : 1" inkscape:vp_y="0 : 1000 : 0" inkscape:vp_x="0 : 0.5 : 1" sodipodi:type="inkscape:persp3d"/>
    <inkscape:perspective id="perspective4740" inkscape:persp3d-origin="0.5 : 0.33333333 : 1" inkscape:vp_z="1 : 0.5 : 1" inkscape:vp_y="0 : 1000 : 0" inkscape:vp_x="0 : 0.5 : 1" sodipodi:type="inkscape:persp3d"/>
    <marker inkscape:stockid="Arrow2Lend" orient="auto" refY="0" refX="0" id="Arrow2Lend-3" style="overflow:visible">
      <path id="path3738-2" style="font-size:12px;fill-rule:evenodd;stroke-width:0.625;stroke-linejoin:round" d="M 8.7185878,4.0337352 -2.2072895,0.01601326 8.7185884,-4.0017078 c -1.7454984,2.3720609 -1.7354408,5.6174519 -6e-7,8.035443 z" transform="matrix(-1.1,0,0,-1.1,-1.1,0)"/>
    </marker>
    <marker inkscape:stockid="Arrow2Lend" orient="auto" refY="0" refX="0" id="marker4746" style="overflow:visible">
      <path id="path4748" style="font-size:12px;fill-rule:evenodd;stroke-width:0.625;stroke-linejoin:round" d="M 8.7185878,4.0337352 -2.2072895,0.01601326 8.7185884,-4.0017078 c -1.7454984,2.3720609 -1.7354408,5.6174519 -6e-7,8.035443 z" transform="matrix(-1.1,0,0,-1.1,-1.1,0)"/>
    </marker>
    <marker inkscape:stockid="Arrow2Lend" orient="auto" refY="0" refX="0" id="marker4750" style="overflow:visible">
      <path id="path4752" style="font-size:12px;fill-rule:evenodd;stroke-width:0.625;stroke-linejoin:round" d="M 8.7185878,4.0337352 -2.2072895,0.01601326 8.7185884,-4.0017078 c -1.7454984,2.3720609 -1.7354408,5.6174519 -6e-7,8.035443 z" transform="matrix(-1.1,0,0,-1.1,-1.1,0)"/>
    </marker>
    <marker inkscape:stockid="Arrow2Lend" orient="auto" refY="0" refX="0" id="marker4754" style="overflow:visible">
      <path id="path4756" style="font-size:12px;fill-rule:evenodd;stroke-width:0.625;stroke-linejoin:round" d="M 8.7185878,4.0337352 -2.2072895,0.01601326 8.7185884,-4.0017078 c -1.7454984,2.3720609 -1.7354408,5.6174519 -6e-7,8.035443 z" transform="matrix(-1.1,0,0,-1.1,-1.1,0)"/>
    </marker>
    <inkscape:perspective id="perspective4348" inkscape:persp3d-origin="0.5 : 0.33333333 : 1" inkscape:vp_z="1 : 0.5 : 1" inkscape:vp_y="0 : 1000 : 0" inkscape:vp_x="0 : 0.5 : 1" sodipodi:type="inkscape:persp3d"/>
    <inkscape:perspective id="perspective4370" inkscape:persp3d-origin="0.5 : 0.33333333 : 1" inkscape:vp_z="1 : 0.5 : 1" inkscape:vp_y="0 : 1000 : 0" inkscape:vp_x="0 : 0.5 : 1" sodipodi:type="inkscape:persp3d"/>
    <inkscape:perspective id="perspective4392" inkscape:persp3d-origin="0.5 : 0.33333333 : 1" inkscape:vp_z="1 : 0.5 : 1" inkscape:vp_y="0 : 1000 : 0" inkscape:vp_x="0 : 0.5 : 1" sodipodi:type="inkscape:persp3d"/>
    <inkscape:perspective id="perspective4149" inkscape:persp3d-origin="0.5 : 0.33333333 : 1" inkscape:vp_z="1 : 0.5 : 1" inkscape:vp_y="0 : 1000 : 0" inkscape:vp_x="0 : 0.5 : 1" sodipodi:type="inkscape:persp3d"/>
    <marker inkscape:stockid="Arrow2Lend" orient="auto" refY="0" refX="0" id="marker4754-1" style="overflow:visible">
      <path id="path4756-7" style="font-size:12px;fill-rule:evenodd;stroke-width:0.625;stroke-linejoin:round" d="M 8.7185878,4.0337352 -2.2072895,0.01601326 8.7185884,-4.0017078 c -1.7454984,2.3720609 -1.7354408,5.6174519 -6e-7,8.035443 z" transform="matrix(-1.1,0,0,-1.1,-1.1,0)"/>
    </marker>
    <marker inkscape:stockid="Arrow2Lend" orient="auto" refY="0" refX="0" id="marker4155" style="overflow:visible">
      <path id="path4157" style="font-size:12px;fill-rule:evenodd;stroke-width:0.625;stroke-linejoin:round" d="M 8.7185878,4.0337352 -2.2072895,0.01601326 8.7185884,-4.0017078 c -1.7454984,2.3720609 -1.7354408,5.6174519 -6e-7,8.035443 z" transform="matrix(-1.1,0,0,-1.1,-1.1,0)"/>
    </marker>
    <marker inkscape:stockid="Arrow2Lend" orient="auto" refY="0" refX="0" id="Arrow2Lend-1" style="overflow:visible">
      <path id="path3738-1" style="font-size:12px;fill-rule:evenodd;stroke-width:0.625;stroke-linejoin:round" d="M 8.7185878,4.0337352 -2.2072895,0.01601326 8.7185884,-4.0017078 c -1.7454984,2.3720609 -1.7354408,5.6174519 -6e-7,8.035443 z" transform="matrix(-1.1,0,0,-1.1,-1.1,0)"/>
    </marker>
    <marker inkscape:stockid="Arrow2Lend" orient="auto" refY="0" refX="0" id="marker4161" style="overflow:visible">
      <path id="path4163" style="font-size:12px;fill-rule:evenodd;stroke-width:0.625;stroke-linejoin:round" d="M 8.7185878,4.0337352 -2.2072895,0.01601326 8.7185884,-4.0017078 c -1.7454984,2.3720609 -1.7354408,5.6174519 -6e-7,8.035443 z" transform="matrix(-1.1,0,0,-1.1,-1.1,0)"/>
    </marker>
    <marker inkscape:stockid="Arrow2Lend" orient="auto" refY="0" refX="0" id="marker4165" style="overflow:visible">
      <path id="path4167" style="font-size:12px;fill-rule:evenodd;stroke-width:0.625;stroke-linejoin:round" d="M 8.7185878,4.0337352 -2.2072895,0.01601326 8.7185884,-4.0017078 c -1.7454984,2.3720609 -1.7354408,5.6174519 -6e-7,8.035443 z" transform="matrix(-1.1,0,0,-1.1,-1.1,0)"/>
    </marker>
    <marker inkscape:stockid="Arrow2Lend" orient="auto" refY="0" refX="0" id="marker4169" style="overflow:visible">
      <path id="path4171" style="font-size:12px;fill-rule:evenodd;stroke-width:0.625;stroke-linejoin:round" d="M 8.7185878,4.0337352 -2.2072895,0.01601326 8.7185884,-4.0017078 c -1.7454984,2.3720609 -1.7354408,5.6174519 -6e-7,8.035443 z" transform="matrix(-1.1,0,0,-1.1,-1.1,0)"/>
    </marker>
    <marker inkscape:stockid="Arrow2Lend" orient="auto" refY="0" refX="0" id="marker4173" style="overflow:visible">
      <path id="path4175" style="font-size:12px;fill-rule:evenodd;stroke-width:0.625;stroke-linejoin:round" d="M 8.7185878,4.0337352 -2.2072895,0.01601326 8.7185884,-4.0017078 c -1.7454984,2.3720609 -1.7354408,5.6174519 -6e-7,8.035443 z" transform="matrix(-1.1,0,0,-1.1,-1.1,0)"/>
    </marker>
    <marker inkscape:stockid="Arrow2Lend" orient="auto" refY="0" refX="0" id="marker4177" style="overflow:visible">
      <path id="path4179" style="font-size:12px;fill-rule:evenodd;stroke-width:0.625;stroke-linejoin:round" d="M 8.7185878,4.0337352 -2.2072895,0.01601326 8.7185884,-4.0017078 c -1.7454984,2.3720609 -1.7354408,5.6174519 -6e-7,8.035443 z" transform="matrix(-1.1,0,0,-1.1,-1.1,0)"/>
    </marker>
    <inkscape:perspective id="perspective3242" inkscape:persp3d-origin="0.5 : 0.33333333 : 1" inkscape:vp_z="1 : 0.5 : 1" inkscape:vp_y="0 : 1000 : 0" inkscape:vp_x="0 : 0.5 : 1" sodipodi:type="inkscape:persp3d"/>
    <inkscape:perspective id="perspective3242-7" inkscape:persp3d-origin="0.5 : 0.33333333 : 1" inkscape:vp_z="1 : 0.5 : 1" inkscape:vp_y="0 : 1000 : 0" inkscape:vp_x="0 : 0.5 : 1" sodipodi:type="inkscape:persp3d"/>
    <inkscape:perspective sodipodi:type="inkscape:persp3d" inkscape:vp_x="0 : 0.5 : 1" inkscape:vp_y="0 : 1000 : 0" inkscape:vp_z="1 : 0.5 : 1" inkscape:persp3d-origin="0.5 : 0.33333333 : 1" id="perspective3202"/>
    <inkscape:perspective sodipodi:type="inkscape:persp3d" inkscape:vp_x="0 : 0.5 : 1" inkscape:vp_y="0 : 1000 : 0" inkscape:vp_z="1 : 0.5 : 1" inkscape:persp3d-origin="0.5 : 0.33333333 : 1" id="perspective4074"/>
    <inkscape:perspective sodipodi:type="inkscape:persp3d" inkscape:vp_x="0 : 0.5 : 1" inkscape:vp_y="0 : 1000 : 0" inkscape:vp_z="1 : 0.5 : 1" inkscape:persp3d-origin="0.5 : 0.33333333 : 1" id="perspective4074-0"/>
    <inkscape:perspective sodipodi:type="inkscape:persp3d" inkscape:vp_x="0 : 0.5 : 1" inkscape:vp_y="0 : 1000 : 0" inkscape:vp_z="1 : 0.5 : 1" inkscape:persp3d-origin="0.5 : 0.33333333 : 1" id="perspective4074-4"/>
    <inkscape:perspective sodipodi:type="inkscape:persp3d" inkscape:vp_x="0 : 0.5 : 1" inkscape:vp_y="0 : 1000 : 0" inkscape:vp_z="1 : 0.5 : 1" inkscape:persp3d-origin="0.5 : 0.33333333 : 1" id="perspective4074-8"/>
    <inkscape:perspective sodipodi:type="inkscape:persp3d" inkscape:vp_x="0 : 0.5 : 1" inkscape:vp_y="0 : 1000 : 0" inkscape:vp_z="1 : 0.5 : 1" inkscape:persp3d-origin="0.5 : 0.33333333 : 1" id="perspective4123"/>
    <inkscape:perspective sodipodi:type="inkscape:persp3d" inkscape:vp_x="0 : 0.5 : 1" inkscape:vp_y="0 : 1000 : 0" inkscape:vp_z="1 : 0.5 : 1" inkscape:persp3d-origin="0.5 : 0.33333333 : 1" id="perspective4157"/>
    <marker inkscape:stockid="Arrow2Lend" orient="auto" refY="0" refX="0" id="Arrow2Lend-5" style="overflow:visible">
      <path id="path3738-17" style="font-size:12px;fill-rule:evenodd;stroke-width:0.625;stroke-linejoin:round" d="M 8.7185878,4.0337352 -2.2072895,0.01601326 8.7185884,-4.0017078 c -1.7454984,2.3720609 -1.7354408,5.6174519 -6e-7,8.035443 z" transform="matrix(-1.1,0,0,-1.1,-1.1,0)"/>
    </marker>
    <inkscape:perspective sodipodi:type="inkscape:persp3d" inkscape:vp_x="0 : 0.5 : 1" inkscape:vp_y="0 : 1000 : 0" inkscape:vp_z="1 : 0.5 : 1" inkscape:persp3d-origin="0.5 : 0.33333333 : 1" id="perspective4185"/>
    <marker inkscape:stockid="Arrow2Lend" orient="auto" refY="0" refX="0" id="Arrow2Lend-15" style="overflow:visible">
      <path id="path3738-27" style="font-size:12px;fill-rule:evenodd;stroke-width:0.625;stroke-linejoin:round" d="M 8.7185878,4.0337352 -2.2072895,0.01601326 8.7185884,-4.0017078 c -1.7454984,2.3720609 -1.7354408,5.6174519 -6e-7,8.035443 z" transform="matrix(-1.1,0,0,-1.1,-1.1,0)"/>
    </marker>
    <inkscape:perspective sodipodi:type="inkscape:persp3d" inkscape:vp_x="0 : 0.5 : 1" inkscape:vp_y="0 : 1000 : 0" inkscape:vp_z="1 : 0.5 : 1" inkscape:persp3d-origin="0.5 : 0.33333333 : 1" id="perspective4217"/>
    <inkscape:perspective id="perspective4506" inkscape:persp3d-origin="0.5 : 0.33333333 : 1" inkscape:vp_z="1 : 0.5 : 1" inkscape:vp_y="0 : 1000 : 0" inkscape:vp_x="0 : 0.5 : 1" sodipodi:type="inkscape:persp3d"/>
    <inkscape:perspective id="perspective6562" inkscape:persp3d-origin="0.5 : 0.33333333 : 1" inkscape:vp_z="1 : 0.5 : 1" inkscape:vp_y="0 : 1000 : 0" inkscape:vp_x="0 : 0.5 : 1" sodipodi:type="inkscape:persp3d"/>
    <inkscape:perspective id="perspective3100" inkscape:persp3d-origin="0.5 : 0.33333333 : 1" inkscape:vp_z="1 : 0.5 : 1" inkscape:vp_y="0 : 1000 : 0" inkscape:vp_x="0 : 0.5 : 1" sodipodi:type="inkscape:persp3d"/>
  </defs>
  <metadata id="metadata7">
    <rdf:RDF>
      <cc:Work rdf:about="">
        <dc:format>image/svg+xml</dc:format>
        <dc:type rdf:resource="http://purl.org/dc/dcmitype/StillImage"/>
        <dc:title/>
      </cc:Work>
    </rdf:RDF>
  </metadata>
  <g inkscape:label="Layer 1" inkscape:groupmode="layer" id="layer1" transform="translate(490.73302,-338.78053)">
    <path sodipodi:type="arc" style="fill:#000000;fill-opacity:0;stroke:#000000;stroke-width:2.0799315;stroke-miterlimit:4;stroke-opacity:1;stroke-dasharray:none" id="path2818" sodipodi:cx="149.5" sodipodi:cy="477.86218" sodipodi:rx="62.5" sodipodi:ry="62.5" d="m 212,477.86218 c 0,34.5178 -27.9822,62.5 -62.5,62.5 -34.5178,0 -62.5,-27.9822 -62.5,-62.5 0,-34.51779 27.9822,-62.5 62.5,-62.5 34.5178,0 62.5,27.98221 62.5,62.5 z" transform="matrix(0.98022805,0,0,1.0000235,-553.06119,-51.41951)"/>
    <path sodipodi:type="arc" style="fill:#000000;fill-opacity:0;stroke:#000000;stroke-width:2.07999992;stroke-miterlimit:4;stroke-opacity:1;stroke-dasharray:none" id="path2818-1" sodipodi:cx="149.5" sodipodi:cy="477.86218" sodipodi:rx="62.5" sodipodi:ry="62.5" d="m 212,477.86218 c 0,34.5178 -27.9822,62.5 -62.5,62.5 -34.5178,0 -62.5,-27.9822 -62.5,-62.5 0,-34.51779 27.9822,-62.5 62.5,-62.5 34.5178,0 62.5,27.98221 62.5,62.5 z" transform="matrix(0.98022805,0,0,1.0000235,-372.21826,-51.41951)"/>
    <path sodipodi:type="arc" style="fill:#000000;fill-opacity:1;stroke:#000000;stroke-width:2;stroke-miterlimit:4;stroke-opacity:1;stroke-dasharray:none" id="path3616-7" sodipodi:cx="80" sodipodi:cy="571.36218" sodipodi:rx="3" sodipodi:ry="3" d="m 83,571.36218 c 0,1.65686 -1.343146,3 -3,3 -1.656854,0 -3,-1.34314 -3,-3 0,-1.65685 1.343146,-3 3,-3 1.656854,0 3,1.34315 3,3 z" transform="matrix(1.0194372,0,0,1.0400245,-499.72067,-118.07732)"/>
    <path sodipodi:type="arc" style="fill:#000000;fill-opacity:1;stroke:#000000;stroke-width:2;stroke-miterlimit:4;stroke-opacity:1;stroke-dasharray:none" id="path3616-0" sodipodi:cx="80" sodipodi:cy="571.36218" sodipodi:rx="3" sodipodi:ry="3" d="m 83,571.36218 c 0,1.65686 -1.343146,3 -3,3 -1.656854,0 -3,-1.34314 -3,-3 0,-1.65685 1.343146,-3 3,-3 1.656854,0 3,1.34315 3,3 z" transform="matrix(1.0194372,0,0,1.0400245,-517.9449,-209.01051)"/>
    <path sodipodi:type="arc" style="fill:#000000;fill-opacity:1;stroke:#000000;stroke-width:2;stroke-miterlimit:4;stroke-opacity:1;stroke-dasharray:none" id="path3616-4" sodipodi:cx="80" sodipodi:cy="571.36218" sodipodi:rx="3" sodipodi:ry="3" d="m 83,571.36218 c 0,1.65686 -1.343146,3 -3,3 -1.656854,0 -3,-1.34314 -3,-3 0,-1.65685 1.343146,-3 3,-3 1.656854,0 3,1.34315 3,3 z" transform="matrix(1.0194372,0,0,1.0400245,-499.83026,-141.5698)"/>
    <path sodipodi:type="arc" style="fill:#000000;fill-opacity:1;stroke:#000000;stroke-width:2;stroke-miterlimit:4;stroke-opacity:1;stroke-dasharray:none" id="path3616-8" sodipodi:cx="80" sodipodi:cy="571.36218" sodipodi:rx="3" sodipodi:ry="3" d="m 83,571.36218 c 0,1.65686 -1.343146,3 -3,3 -1.656854,0 -3,-1.34314 -3,-3 0,-1.65685 1.343146,-3 3,-3 1.656854,0 3,1.34315 3,3 z" transform="matrix(1.0194372,0,0,1.0400245,-496.61417,-186.61477)"/>
    <path sodipodi:type="arc" style="fill:#000000;fill-opacity:1;stroke:#000000;stroke-width:2;stroke-miterlimit:4;stroke-opacity:1;stroke-dasharray:none" id="path3616-45" sodipodi:cx="80" sodipodi:cy="571.36218" sodipodi:rx="3" sodipodi:ry="3" d="m 83,571.36218 c 0,1.65686 -1.343146,3 -3,3 -1.656854,0 -3,-1.34314 -3,-3 0,-1.65685 1.343146,-3 3,-3 1.656854,0 3,1.34315 3,3 z" transform="matrix(1.0194372,0,0,1.0400245,-292.93348,-143.45037)"/>
    <path sodipodi:type="arc" style="fill:#000000;fill-opacity:1;stroke:#000000;stroke-width:2;stroke-miterlimit:4;stroke-opacity:1;stroke-dasharray:none" id="path3616-76" sodipodi:cx="80" sodipodi:cy="571.36218" sodipodi:rx="3" sodipodi:ry="3" d="m 83,571.36218 c 0,1.65686 -1.343146,3 -3,3 -1.656854,0 -3,-1.34314 -3,-3 0,-1.65685 1.343146,-3 3,-3 1.656854,0 3,1.34315 3,3 z" transform="matrix(1.0194372,0,0,1.0400245,-302.754,-196.24901)"/>
    <path sodipodi:type="arc" style="fill:#000000;fill-opacity:1;stroke:#000000;stroke-width:2;stroke-miterlimit:4;stroke-opacity:1;stroke-dasharray:none" id="path3616-42" sodipodi:cx="80" sodipodi:cy="571.36218" sodipodi:rx="3" sodipodi:ry="3" d="m 83,571.36218 c 0,1.65686 -1.343146,3 -3,3 -1.656854,0 -3,-1.34314 -3,-3 0,-1.65685 1.343146,-3 3,-3 1.656854,0 3,1.34315 3,3 z" transform="matrix(1.0194372,0,0,1.0400245,-329.22721,-178.94542)"/>
    <path style="fill:none;stroke:#000000;stroke-width:1.01386786;stroke-linecap:butt;stroke-linejoin:miter;stroke-miterlimit:4;stroke-opacity:1;stroke-dasharray:none;marker-end:url(#Arrow2Lend)" d="m -412.44447,450.30012 c 46.66799,-17.59561 134.88467,-16.21871 194.35479,-0.3949" id="path3712" sodipodi:nodetypes="cc"/>
    <path style="fill:none;stroke:#000000;stroke-width:1.09651423px;stroke-linecap:butt;stroke-linejoin:miter;stroke-opacity:1;marker-end:url(#Arrow2Lend)" d="m -431.20371,431.90351 c 43.26707,-24.25697 151.09363,-20.77394 186.87346,-1.57803" id="path4348" sodipodi:nodetypes="cc"/>
    <path style="fill:none;stroke:#000000;stroke-width:1.02967942;stroke-linecap:butt;stroke-linejoin:miter;stroke-miterlimit:4;stroke-opacity:1;stroke-dasharray:none;marker-end:url(#Arrow2Lend)" d="m -412.54776,477.89835 c 107.26968,19.21835 159.87839,0.99894 195.78879,-22.93014" id="path4534" sodipodi:nodetypes="cc"/>
    <text xml:space="preserve" style="font-size:23.84278488px;font-style:normal;font-weight:normal;fill:#000000;fill-opacity:1;stroke:none;font-family:Bitstream Vera Sans" x="146.94878" y="538.66339" id="text4720"><tspan sodipodi:role="line" id="tspan4722" x="146.94878" y="538.66339" style="font-size:18.73361588px">f</tspan></text>
    <text xml:space="preserve" style="font-size:20.4366703px;font-style:normal;font-weight:normal;fill:#000000;fill-opacity:1;stroke:none;font-family:Bitstream Vera Sans" x="7.0143542" y="601.39264" id="text4724"><tspan sodipodi:role="line" id="tspan4726" x="7.0143542" y="601.39264" style="font-size:18.73361588px">X</tspan></text>
    <path sodipodi:type="arc" style="fill:#000000;fill-opacity:0;stroke:#000000;stroke-width:2.07999992;stroke-miterlimit:4;stroke-opacity:1;stroke-dasharray:none" id="path2818-2" sodipodi:cx="149.5" sodipodi:cy="477.86218" sodipodi:rx="62.5" sodipodi:ry="62.5" d="m 212,477.86218 c 0,34.5178 -27.9822,62.5 -62.5,62.5 -34.5178,0 -62.5,-27.9822 -62.5,-62.5 0,-34.51779 27.9822,-62.5 62.5,-62.5 34.5178,0 62.5,27.98221 62.5,62.5 z" transform="matrix(0.81877692,0,0,0.81877692,-168.46322,-46.160035)"/>
    <path sodipodi:type="arc" style="fill:#000000;fill-opacity:0;stroke:#000000;stroke-width:2.07999992;stroke-miterlimit:4;stroke-opacity:1;stroke-dasharray:none" id="path2818-1-1" sodipodi:cx="149.5" sodipodi:cy="477.86218" sodipodi:rx="62.5" sodipodi:ry="62.5" d="m 212,477.86218 c 0,34.5178 -27.9822,62.5 -62.5,62.5 -34.5178,0 -62.5,-27.9822 -62.5,-62.5 0,-34.51779 27.9822,-62.5 62.5,-62.5 34.5178,0 62.5,27.98221 62.5,62.5 z" transform="matrix(0.81877692,0,0,0.81877692,-25.406521,-46.160035)"/>
    <path sodipodi:type="arc" style="fill:#000000;fill-opacity:1;stroke:#000000;stroke-width:2;stroke-miterlimit:4;stroke-opacity:1;stroke-dasharray:none" id="path3616-6" sodipodi:cx="80" sodipodi:cy="571.36218" sodipodi:rx="3" sodipodi:ry="3" d="m 83,571.36218 c 0,1.65686 -1.343146,3 -3,3 -1.656854,0 -3,-1.34314 -3,-3 0,-1.65685 1.343146,-3 3,-3 1.656854,0 3,1.34315 3,3 z" transform="matrix(0.851528,0,0,0.851528,-124.68049,-174.55612)"/>
    <path sodipodi:type="arc" style="fill:#000000;fill-opacity:1;stroke:#000000;stroke-width:2;stroke-miterlimit:4;stroke-opacity:1;stroke-dasharray:none" id="path3616-7-8" sodipodi:cx="80" sodipodi:cy="571.36218" sodipodi:rx="3" sodipodi:ry="3" d="m 83,571.36218 c 0,1.65686 -1.343146,3 -3,3 -1.656854,0 -3,-1.34314 -3,-3 0,-1.65685 1.343146,-3 3,-3 1.656854,0 3,1.34315 3,3 z" transform="matrix(0.851528,0,0,0.851528,-115.07498,-146.40329)"/>
    <path sodipodi:type="arc" style="fill:#000000;fill-opacity:1;stroke:#000000;stroke-width:2;stroke-miterlimit:4;stroke-opacity:1;stroke-dasharray:none" id="path3616-0-5" sodipodi:cx="80" sodipodi:cy="571.36218" sodipodi:rx="3" sodipodi:ry="3" d="m 83,571.36218 c 0,1.65686 -1.343146,3 -3,3 -1.656854,0 -3,-1.34314 -3,-3 0,-1.65685 1.343146,-3 3,-3 1.656854,0 3,1.34315 3,3 z" transform="matrix(0.851528,0,0,0.851528,-132.59753,-121.75556)"/>
    <path sodipodi:type="arc" style="fill:#000000;fill-opacity:1;stroke:#000000;stroke-width:2;stroke-miterlimit:4;stroke-opacity:1;stroke-dasharray:none" id="path3616-4-7" sodipodi:cx="80" sodipodi:cy="571.36218" sodipodi:rx="3" sodipodi:ry="3" d="m 83,571.36218 c 0,1.65686 -1.343146,3 -3,3 -1.656854,0 -3,-1.34314 -3,-3 0,-1.65685 1.343146,-3 3,-3 1.656854,0 3,1.34315 3,3 z" transform="matrix(0.851528,0,0,0.851528,-109.13318,-104.03795)"/>
    <path sodipodi:type="arc" style="fill:#000000;fill-opacity:1;stroke:#000000;stroke-width:2;stroke-miterlimit:4;stroke-opacity:1;stroke-dasharray:none" id="path3616-8-6" sodipodi:cx="80" sodipodi:cy="571.36218" sodipodi:rx="3" sodipodi:ry="3" d="m 83,571.36218 c 0,1.65686 -1.343146,3 -3,3 -1.656854,0 -3,-1.34314 -3,-3 0,-1.65685 1.343146,-3 3,-3 1.656854,0 3,1.34315 3,3 z" transform="matrix(0.851528,0,0,0.851528,33.419869,-181.65218)"/>
    <path sodipodi:type="arc" style="fill:#000000;fill-opacity:1;stroke:#000000;stroke-width:2;stroke-miterlimit:4;stroke-opacity:1;stroke-dasharray:none" id="path3616-11-9" sodipodi:cx="80" sodipodi:cy="571.36218" sodipodi:rx="3" sodipodi:ry="3" d="m 83,571.36218 c 0,1.65686 -1.343146,3 -3,3 -1.656854,0 -3,-1.34314 -3,-3 0,-1.65685 1.343146,-3 3,-3 1.656854,0 3,1.34315 3,3 z" transform="matrix(0.851528,0,0,0.851528,42.744459,-160.22861)"/>
    <path sodipodi:type="arc" style="fill:#000000;fill-opacity:1;stroke:#000000;stroke-width:2;stroke-miterlimit:4;stroke-opacity:1;stroke-dasharray:none" id="path3616-76-2" sodipodi:cx="80" sodipodi:cy="571.36218" sodipodi:rx="3" sodipodi:ry="3" d="m 83,571.36218 c 0,1.65686 -1.343146,3 -3,3 -1.656854,0 -3,-1.34314 -3,-3 0,-1.65685 1.343146,-3 3,-3 1.656854,0 3,1.34315 3,3 z" transform="matrix(0.851528,0,0,0.851528,38.706639,-125.02485)"/>
    <path sodipodi:type="arc" style="fill:#000000;fill-opacity:1;stroke:#000000;stroke-width:2;stroke-miterlimit:4;stroke-opacity:1;stroke-dasharray:none" id="path3616-42-7" sodipodi:cx="80" sodipodi:cy="571.36218" sodipodi:rx="3" sodipodi:ry="3" d="m 83,571.36218 c 0,1.65686 -1.343146,3 -3,3 -1.656854,0 -3,-1.34314 -3,-3 0,-1.65685 1.343146,-3 3,-3 1.656854,0 3,1.34315 3,3 z" transform="matrix(0.851528,0,0,0.851528,18.670239,-145.73954)"/>
    <path style="fill:none;stroke:#000000;stroke-width:0.838;stroke-linecap:butt;stroke-linejoin:miter;stroke-miterlimit:4;stroke-opacity:1;stroke-dasharray:none;marker-end:url(#Arrow2Lend)" d="m -52.007161,309.12675 c 45.6826799,-28.29227 95.94822,-26.15049 147.84306,-6.32332" id="path3712-9" sodipodi:nodetypes="cc"/>
    <path style="fill:none;stroke:#000000;stroke-width:0.85152805;stroke-linecap:butt;stroke-linejoin:miter;stroke-miterlimit:4;stroke-opacity:1;stroke-dasharray:none;marker-end:url(#Arrow2Lend)" d="m -36.093441,384.72302 c 68.80859,20.68705 115.01557,3.13494 138.874191,-19.44089" id="path4534-3" sodipodi:nodetypes="cc"/>
    <text xml:space="preserve" style="font-size:23.84278488px;font-style:normal;font-weight:normal;fill:#000000;fill-opacity:1;stroke:none;font-family:Bitstream Vera Sans" x="468.78619" y="534.51172" id="text4720-1"><tspan sodipodi:role="line" id="tspan4722-2" x="468.78619" y="534.51172" style="font-size:18.73361588px">g</tspan></text>
    <text xml:space="preserve" style="font-size:20.4366703px;font-style:normal;font-weight:normal;fill:#000000;fill-opacity:1;stroke:none;font-family:Bitstream Vera Sans" x="332.18509" y="601.39258" id="text4724-3"><tspan sodipodi:role="line" id="tspan4726-3" x="332.18509" y="601.39258" style="font-size:18.73361588px">Z</tspan></text>
    <text xml:space="preserve" style="font-size:23.84278488px;font-style:normal;font-weight:normal;fill:#000000;fill-opacity:1;stroke:none;font-family:Bitstream Vera Sans" x="602.68719" y="601.39258" id="text4728-4"><tspan sodipodi:role="line" id="tspan4730-1" x="602.68719" y="601.39258" style="font-size:18.73361588px">W</tspan></text>
    <path style="fill:none;stroke:#000000;stroke-width:0.9475596;stroke-linecap:butt;stroke-linejoin:miter;stroke-miterlimit:4;stroke-opacity:1;stroke-dasharray:none;marker-end:url(#marker4754)" d="M -43.016611,335.50913 C -29.670121,323.1654 15.634929,297.06787 104.91894,324.3339" id="path2954" sodipodi:nodetypes="cc"/>
    <path style="fill:none;stroke:#000000;stroke-width:0.838;stroke-linecap:butt;stroke-linejoin:miter;stroke-miterlimit:4;stroke-opacity:1;stroke-dasharray:none;marker-end:url(#marker4754)" d="m -59.154631,364.97956 c 54.4164396,8.38842 102.02593,0.4963 141.33333,-21.33334" id="path4144" sodipodi:nodetypes="cc"/>
    <path style="fill:none;stroke:#000000;stroke-width:1px;stroke-linecap:butt;stroke-linejoin:miter;stroke-opacity:1" d="m 525.66667,167.27346 0,0 z" id="path4338" transform="translate(7.0966797,524.57778)"/>
    <path sodipodi:type="arc" style="fill:#000000;fill-opacity:1;stroke:#000000;stroke-width:2;stroke-miterlimit:4;stroke-opacity:1;stroke-dasharray:none" id="path3616-11-9-1" sodipodi:cx="80" sodipodi:cy="571.36218" sodipodi:rx="3" sodipodi:ry="3" d="m 83,571.36218 c 0,1.65686 -1.343146,3 -3,3 -1.656854,0 -3,-1.34314 -3,-3 0,-1.65685 1.343146,-3 3,-3 1.656854,0 3,1.34315 3,3 z" transform="matrix(0.851528,0,0,0.851528,59.389789,-118.218)"/>
    <path sodipodi:type="arc" style="fill:#000000;fill-opacity:1;stroke:#000000;stroke-width:2;stroke-miterlimit:4;stroke-opacity:1;stroke-dasharray:none" id="path3616-11-9-1-7" sodipodi:cx="80" sodipodi:cy="571.36218" sodipodi:rx="3" sodipodi:ry="3" d="m 83,571.36218 c 0,1.65686 -1.343146,3 -3,3 -1.656854,0 -3,-1.34314 -3,-3 0,-1.65685 1.343146,-3 3,-3 1.656854,0 3,1.34315 3,3 z" transform="matrix(0.851528,0,0,0.851528,66.056449,-156.218)"/>
    <path sodipodi:type="arc" style="fill:#000000;fill-opacity:1;stroke:#000000;stroke-width:2;stroke-miterlimit:4;stroke-opacity:1;stroke-dasharray:none" id="path3616-7-4" sodipodi:cx="80" sodipodi:cy="571.36218" sodipodi:rx="3" sodipodi:ry="3" d="m 83,571.36218 c 0,1.65686 -1.343146,3 -3,3 -1.656854,0 -3,-1.34314 -3,-3 0,-1.65685 1.343146,-3 3,-3 1.656854,0 3,1.34315 3,3 z" transform="matrix(1.0194372,0,0,1.0400245,-518.83315,-161.72036)"/>
    <path style="fill:none;stroke:#000000;stroke-width:1px;stroke-linecap:butt;stroke-linejoin:miter;stroke-opacity:1" d="m 84.445765,438.25589 0,0 z" id="path4338-1"/>
    <g style="font-style:normal;font-variant:normal;font-weight:normal;font-stretch:normal;letter-spacing:normal;word-spacing:normal;text-anchor:start;fill:none;stroke:#000000;stroke-linecap:butt;stroke-linejoin:miter;stroke-miterlimit:10.43299961;stroke-opacity:1;stroke-dasharray:none;stroke-dashoffset:0" id="content" transform="matrix(1.9702315,0,0,-1.9702315,-688.39592,1617.6814)" xml:space="preserve" stroke-miterlimit="10.433" font-style="normal" font-variant="normal" font-weight="normal" font-stretch="normal" font-size-adjust="none" letter-spacing="normal" word-spacing="normal" ns0:text="$f$" ns0:preamble="">
<path style="fill:#000000;stroke:none" d="m 227.09,711.11 h 0.86 c 0.2,0 0.29,0 0.29,0.2 0,0.11 -0.09,0.11 -0.26,0.11 h -0.83 l 0.21,1.13 c 0.04,0.21 0.18,0.92 0.24,1.04 0.09,0.19 0.26,0.34 0.47,0.34 0.03,0 0.29,0 0.48,-0.18 -0.43,-0.04 -0.54,-0.39 -0.54,-0.54 0,-0.23 0.19,-0.35 0.37,-0.35 0.26,0 0.55,0.22 0.55,0.6 0,0.46 -0.46,0.69 -0.86,0.69 -0.34,0 -0.97,-0.18 -1.27,-1.17 -0.06,-0.21 -0.09,-0.31 -0.33,-1.56 h -0.69 c -0.19,0 -0.29,0 -0.29,-0.19 0,-0.12 0.08,-0.12 0.27,-0.12 h 0.66 l -0.75,-3.94 c -0.18,-0.96 -0.35,-1.87 -0.86,-1.87 -0.04,0 -0.29,0 -0.48,0.18 0.46,0.03 0.55,0.39 0.55,0.54 0,0.23 -0.18,0.34 -0.37,0.34 -0.26,0 -0.55,-0.21 -0.55,-0.59 0,-0.45 0.44,-0.69 0.85,-0.69 0.54,0 0.94,0.59 1.12,0.97 0.32,0.62 0.55,1.83 0.56,1.9 z" id="path3027"/>
</g>    <g style="font-style:normal;font-variant:normal;font-weight:normal;font-stretch:normal;letter-spacing:normal;word-spacing:normal;text-anchor:start;fill:none;stroke:#000000;stroke-linecap:butt;stroke-linejoin:miter;stroke-miterlimit:10.43299961;stroke-opacity:1;stroke-dasharray:none;stroke-dashoffset:0" ns0:preamble="" ns0:text="$X$" word-spacing="normal" letter-spacing="normal" font-size-adjust="none" font-stretch="normal" font-weight="normal" font-variant="normal" font-style="normal" stroke-miterlimit="10.433" xml:space="preserve" transform="matrix(1.9100441,0,0,-1.948617,-918.00989,1809.5642)" id="g3195">
<path id="path3197" d="m 228.26,711.22 -0.83,1.98 c -0.03,0.08 -0.05,0.12 -0.05,0.13 0,0.06 0.17,0.25 0.58,0.29 0.11,0.01 0.2,0.02 0.2,0.19 0,0.12 -0.12,0.12 -0.15,0.12 -0.4,0 -0.83,-0.03 -1.25,-0.03 -0.25,0 -0.87,0.03 -1.12,0.03 -0.06,0 -0.18,0 -0.18,-0.2 0,-0.11 0.1,-0.11 0.23,-0.11 0.6,0 0.66,-0.1 0.75,-0.32 l 1.18,-2.78 -2.11,-2.26 -0.13,-0.11 c -0.48,-0.53 -0.95,-0.69 -1.46,-0.72 -0.13,-0.01 -0.22,-0.01 -0.22,-0.2 0,-0.01 0,-0.11 0.13,-0.11 0.3,0 0.63,0.03 0.94,0.03 0.37,0 0.75,-0.03 1.11,-0.03 0.06,0 0.18,0 0.18,0.2 0,0.1 -0.1,0.11 -0.12,0.11 -0.09,0.01 -0.4,0.03 -0.4,0.31 0,0.16 0.15,0.32 0.27,0.45 l 1.02,1.07 0.9,0.98 1,-2.38 c 0.04,-0.11 0.05,-0.12 0.05,-0.14 0,-0.08 -0.19,-0.25 -0.57,-0.29 -0.11,-0.01 -0.2,-0.02 -0.2,-0.19 0,-0.12 0.11,-0.12 0.14,-0.12 0.28,0 0.98,0.03 1.26,0.03 0.25,0 0.86,-0.03 1.11,-0.03 0.07,0 0.19,0 0.19,0.19 0,0.12 -0.1,0.12 -0.18,0.12 -0.67,0.01 -0.69,0.04 -0.86,0.44 -0.39,0.93 -1.06,2.48 -1.29,3.08 0.68,0.7 1.73,1.88 2.05,2.16 0.28,0.24 0.66,0.48 1.26,0.51 0.13,0.01 0.22,0.01 0.22,0.2 0,0.01 0,0.11 -0.13,0.11 -0.3,0 -0.63,-0.03 -0.93,-0.03 -0.37,0 -0.75,0.03 -1.11,0.03 -0.06,0 -0.19,0 -0.19,-0.2 0,-0.07 0.05,-0.1 0.12,-0.11 0.09,-0.01 0.4,-0.03 0.4,-0.31 0,-0.14 -0.11,-0.27 -0.19,-0.36 z" style="fill:#000000;stroke:none"/>
</g>    <g id="g3367" transform="matrix(1.8529281,0,0,-1.8903475,-573.31505,1768.3606)" xml:space="preserve" stroke-miterlimit="10.433" font-style="normal" font-variant="normal" font-weight="normal" font-stretch="normal" font-size-adjust="none" letter-spacing="normal" word-spacing="normal" ns0:text="$Y$" ns0:preamble="" style="font-style:normal;font-variant:normal;font-weight:normal;font-stretch:normal;letter-spacing:normal;word-spacing:normal;text-anchor:start;fill:none;stroke:#000000;stroke-linecap:butt;stroke-linejoin:miter;stroke-miterlimit:10.43299961;stroke-opacity:1;stroke-dasharray:none;stroke-dashoffset:0">
<path style="fill:#000000;stroke:none" d="m 229.38,712.79 0.14,0.14 c 0.3,0.3 0.63,0.64 1.3,0.69 0.11,0.01 0.2,0.01 0.2,0.19 0,0.08 -0.05,0.12 -0.13,0.12 -0.26,0 -0.54,-0.03 -0.81,-0.03 -0.33,0 -0.68,0.03 -1,0.03 -0.06,0 -0.19,0 -0.19,-0.19 0,-0.11 0.1,-0.12 0.15,-0.12 0.07,0 0.36,-0.02 0.36,-0.23 0,-0.17 -0.23,-0.43 -0.27,-0.48 l -2.31,-2.66 -1.1,2.96 c -0.06,0.14 -0.06,0.16 -0.06,0.17 0,0.24 0.49,0.24 0.59,0.24 0.14,0 0.24,0 0.24,0.2 0,0.11 -0.12,0.11 -0.15,0.11 -0.28,0 -0.97,-0.03 -1.25,-0.03 -0.25,0 -0.87,0.03 -1.12,0.03 -0.06,0 -0.19,0 -0.19,-0.2 0,-0.11 0.1,-0.11 0.23,-0.11 0.6,0 0.64,-0.09 0.73,-0.34 l 1.22,-3.28 c 0.01,-0.03 0.04,-0.14 0.04,-0.17 0,-0.03 -0.4,-1.63 -0.45,-1.81 -0.12,-0.55 -0.14,-0.58 -0.93,-0.59 -0.19,0 -0.27,0 -0.27,-0.2 0,-0.11 0.12,-0.11 0.14,-0.11 0.28,0 0.97,0.03 1.25,0.03 0.28,0 1,-0.03 1.28,-0.03 0.07,0 0.19,0 0.19,0.2 0,0.11 -0.09,0.11 -0.28,0.11 -0.02,0 -0.21,0 -0.38,0.02 -0.21,0.02 -0.27,0.04 -0.27,0.16 0,0.07 0.09,0.42 0.14,0.63 l 0.35,1.4 c 0.05,0.19 0.06,0.22 0.14,0.31 z" id="path3369"/>
</g>    <g style="font-style:normal;font-variant:normal;font-weight:normal;font-stretch:normal;letter-spacing:normal;word-spacing:normal;text-anchor:start;fill:none;stroke:#000000;stroke-linecap:butt;stroke-linejoin:miter;stroke-miterlimit:10.43299961;stroke-opacity:1;stroke-dasharray:none;stroke-dashoffset:0" ns0:preamble="" ns0:text="$g$" word-spacing="normal" letter-spacing="normal" font-size-adjust="none" font-stretch="normal" font-weight="normal" font-variant="normal" font-style="normal" stroke-miterlimit="10.433" xml:space="preserve" transform="matrix(2.3113168,0,0,-2.3113168,-555.16315,1870.4541)" id="g3541">
<path id="path3543" d="m 228.13,710.88 0,0.01 0,0.01 0,0.01 0,0.01 0.01,0.02 0,0.01 0,0.01 0.01,0.02 0,0.01 0,0.01 0,0.01 0,0.01 0,0.01 0,0.01 0,0.01 0,0 0,0.01 c 0,0.17 -0.11,0.27 -0.28,0.27 -0.1,0 -0.37,-0.07 -0.41,-0.43 -0.18,0.37 -0.53,0.63 -0.93,0.63 l 0.01,-0.22 c 0.66,0 0.8,-0.81 0.8,-0.86 0,-0.05 -0.02,-0.11 -0.03,-0.15 l -0.48,-1.9 c -0.06,-0.26 -0.29,-0.51 -0.51,-0.7 -0.21,-0.18 -0.52,-0.36 -0.81,-0.36 -0.49,0 -0.64,0.52 -0.64,0.92 0,0.48 0.29,1.65 0.56,2.16 0.26,0.49 0.69,0.89 1.11,0.89 l -0.01,0.22 c -1.13,0 -2.37,-1.4 -2.37,-2.83 0,-0.99 0.61,-1.58 1.33,-1.58 0.58,0 1.05,0.47 1.15,0.58 l 0.01,-0.01 c -0.21,-0.89 -0.33,-1.29 -0.33,-1.31 -0.04,-0.09 -0.38,-1.08 -1.43,-1.08 -0.19,0 -0.52,0.01 -0.8,0.1 0.3,0.09 0.41,0.35 0.41,0.52 0,0.16 -0.11,0.35 -0.38,0.35 -0.22,0 -0.54,-0.18 -0.54,-0.58 0,-0.41 0.37,-0.61 1.33,-0.61 1.24,0 1.96,0.78 2.11,1.38 z" style="fill:#000000;stroke:none"/>
</g>    <g id="g3717" transform="matrix(1.951538,0,0,-1.951538,-553.40065,1727.8057)" xml:space="preserve" stroke-miterlimit="10.433" font-style="normal" font-variant="normal" font-weight="normal" font-stretch="normal" font-size-adjust="none" letter-spacing="normal" word-spacing="normal" ns0:text="$Z$" ns0:preamble="" style="font-style:normal;font-variant:normal;font-weight:normal;font-stretch:normal;letter-spacing:normal;word-spacing:normal;text-anchor:start;fill:none;stroke:#000000;stroke-linecap:butt;stroke-linejoin:miter;stroke-miterlimit:10.43299961;stroke-opacity:1;stroke-dasharray:none;stroke-dashoffset:0">
<path style="fill:#000000;stroke:none" d="m 230.61,713.69 0,0.01 0,0 0,0.01 0,0.01 0.01,0.01 0,0.01 0,0.01 0,0.01 0.01,0 0,0.01 0,0.01 0,0.01 0,0.01 0,0.02 0,0 0,0.01 0,0 0,0.01 c 0,0.09 -0.04,0.09 -0.24,0.09 h -4.21 c -0.24,0 -0.25,-0.01 -0.31,-0.2 l -0.55,-1.8 c -0.02,-0.04 -0.02,-0.11 -0.02,-0.14 0,-0.01 0,-0.11 0.11,-0.11 0.1,0 0.11,0.08 0.13,0.1 0.38,1.18 0.9,1.84 2.45,1.84 h 1.63 l -5.57,-6.23 c 0,-0.01 -0.04,-0.15 -0.04,-0.18 0,-0.09 0.07,-0.09 0.25,-0.09 h 4.33 c 0.24,0 0.25,0.01 0.31,0.2 l 0.71,2.2 c 0.01,0.04 0.04,0.11 0.04,0.15 0,0.05 -0.04,0.11 -0.13,0.11 -0.09,0 -0.1,-0.04 -0.17,-0.25 -0.44,-1.35 -0.92,-2.07 -2.61,-2.07 h -1.7 z" id="path3719"/>
</g>    <g style="font-style:normal;font-variant:normal;font-weight:normal;font-stretch:normal;letter-spacing:normal;word-spacing:normal;text-anchor:start;fill:none;stroke:#000000;stroke-linecap:butt;stroke-linejoin:miter;stroke-miterlimit:10.43299961;stroke-opacity:1;stroke-dasharray:none;stroke-dashoffset:0" ns0:preamble="" ns0:text="$W$" word-spacing="normal" letter-spacing="normal" font-size-adjust="none" font-stretch="normal" font-weight="normal" font-variant="normal" font-style="normal" stroke-miterlimit="10.433" xml:space="preserve" transform="matrix(1.951538,0,0,-1.951538,-280.64453,1727.3764)" id="g3895">
<path id="path3897" d="m 232.57,712.77 0.04,0.08 0.05,0.08 0.05,0.08 0.05,0.07 0.02,0.04 0.03,0.03 0.03,0.04 0.02,0.03 0.03,0.03 0.03,0.03 0.03,0.03 0.03,0.03 0.04,0.03 0.03,0.02 0.03,0.03 0.04,0.02 0.04,0.03 0.04,0.02 0.04,0.02 0.04,0.02 0.04,0.01 0.05,0.02 0.05,0.01 0.05,0.02 0.05,0.01 0.05,0.01 0.06,0 0.05,0.01 c 0.09,0.01 0.19,0.01 0.19,0.2 0,0.04 -0.04,0.11 -0.12,0.11 -0.24,0 -0.51,-0.03 -0.76,-0.03 -0.34,0 -0.71,0.03 -1.04,0.03 -0.06,0 -0.19,0 -0.19,-0.19 0,-0.11 0.09,-0.12 0.15,-0.12 0.24,-0.01 0.59,-0.09 0.59,-0.39 0,-0.11 -0.05,-0.19 -0.13,-0.33 l -2.69,-4.69 -0.37,4.94 c -0.01,0.2 -0.03,0.46 0.7,0.47 0.17,0 0.27,0 0.27,0.2 0,0.1 -0.11,0.11 -0.15,0.11 -0.4,0 -0.82,-0.03 -1.22,-0.03 -0.23,0 -0.81,0.03 -1.04,0.03 -0.06,0 -0.19,0 -0.19,-0.2 0,-0.11 0.1,-0.11 0.24,-0.11 0.43,0 0.5,-0.06 0.52,-0.25 l 0.06,-0.77 -2.52,-4.39 -0.38,5.05 c 0,0.12 0,0.35 0.76,0.36 0.1,0 0.21,0 0.21,0.2 0,0.11 -0.12,0.11 -0.14,0.11 -0.4,0 -0.82,-0.03 -1.22,-0.03 -0.35,0 -0.71,0.03 -1.05,0.03 -0.05,0 -0.18,0 -0.18,-0.19 0,-0.12 0.09,-0.12 0.25,-0.12 0.5,0 0.51,-0.09 0.53,-0.37 l 0.45,-6.09 c 0.01,-0.18 0.02,-0.26 0.16,-0.26 0.12,0 0.14,0.06 0.23,0.21 l 2.93,5.08 0.37,-5.03 c 0.02,-0.21 0.04,-0.26 0.16,-0.26 0.13,0 0.19,0.1 0.24,0.19 z" style="fill:#000000;stroke:none"/>
</g>    <g style="font-style:normal;font-variant:normal;font-weight:normal;font-stretch:normal;letter-spacing:normal;word-spacing:normal;text-anchor:start;fill:none;stroke:#000000;stroke-linecap:butt;stroke-linejoin:miter;stroke-miterlimit:10.43299961;stroke-opacity:1;stroke-dasharray:none;stroke-dashoffset:0" id="content-1" transform="matrix(2.0683462,0,0,-2.1101159,-781.81639,1845.7198)" xml:space="preserve" stroke-miterlimit="10.433" font-style="normal" font-variant="normal" font-weight="normal" font-stretch="normal" font-size-adjust="none" letter-spacing="normal" word-spacing="normal" ns0:text="$f$" ns0:preamble="">
<path style="fill:#000000;stroke:none" d="m 227.09,711.11 h 0.86 c 0.2,0 0.29,0 0.29,0.2 0,0.11 -0.09,0.11 -0.26,0.11 h -0.83 l 0.21,1.13 c 0.04,0.21 0.18,0.92 0.24,1.04 0.09,0.19 0.26,0.34 0.47,0.34 0.03,0 0.29,0 0.48,-0.18 -0.43,-0.04 -0.54,-0.39 -0.54,-0.54 0,-0.23 0.19,-0.35 0.37,-0.35 0.26,0 0.55,0.22 0.55,0.6 0,0.46 -0.46,0.69 -0.86,0.69 -0.34,0 -0.97,-0.18 -1.27,-1.17 -0.06,-0.21 -0.09,-0.31 -0.33,-1.56 h -0.69 c -0.19,0 -0.29,0 -0.29,-0.19 0,-0.12 0.08,-0.12 0.27,-0.12 h 0.66 l -0.75,-3.94 c -0.18,-0.96 -0.35,-1.87 -0.86,-1.87 -0.04,0 -0.29,0 -0.48,0.18 0.46,0.03 0.55,0.39 0.55,0.54 0,0.23 -0.18,0.34 -0.37,0.34 -0.26,0 -0.55,-0.21 -0.55,-0.59 0,-0.45 0.44,-0.69 0.85,-0.69 0.54,0 0.94,0.59 1.12,0.97 0.32,0.62 0.55,1.83 0.56,1.9 z" id="path5550"/>
</g>    <g id="g3377" transform="matrix(1.7276736,0,0,-1.7276736,-363.13205,1499.6077)" xml:space="preserve" stroke-miterlimit="10.433" font-style="normal" font-variant="normal" font-weight="normal" font-stretch="normal" font-size-adjust="none" letter-spacing="normal" word-spacing="normal" ns0:text="$g$" ns0:preamble="" style="font-style:normal;font-variant:normal;font-weight:normal;font-stretch:normal;letter-spacing:normal;word-spacing:normal;text-anchor:start;fill:none;stroke:#000000;stroke-linecap:butt;stroke-linejoin:miter;stroke-miterlimit:10.43299961;stroke-opacity:1;stroke-dasharray:none;stroke-dashoffset:0">
<path style="fill:#000000;stroke:none" d="m 228.13,710.88 0,0.01 0,0.01 0,0.01 0,0.01 0.01,0.02 0,0.01 0,0.01 0.01,0.02 0,0.01 0,0.01 0,0.01 0,0.01 0,0.01 0,0.01 0,0.01 0,0 0,0.01 c 0,0.17 -0.11,0.27 -0.28,0.27 -0.1,0 -0.37,-0.07 -0.41,-0.43 -0.18,0.37 -0.53,0.63 -0.93,0.63 l 0.01,-0.22 c 0.66,0 0.8,-0.81 0.8,-0.86 0,-0.05 -0.02,-0.11 -0.03,-0.15 l -0.48,-1.9 c -0.06,-0.26 -0.29,-0.51 -0.51,-0.7 -0.21,-0.18 -0.52,-0.36 -0.81,-0.36 -0.49,0 -0.64,0.52 -0.64,0.92 0,0.48 0.29,1.65 0.56,2.16 0.26,0.49 0.69,0.89 1.11,0.89 l -0.01,0.22 c -1.13,0 -2.37,-1.4 -2.37,-2.83 0,-0.99 0.61,-1.58 1.33,-1.58 0.58,0 1.05,0.47 1.15,0.58 l 0.01,-0.01 c -0.21,-0.89 -0.33,-1.29 -0.33,-1.31 -0.04,-0.09 -0.38,-1.08 -1.43,-1.08 -0.19,0 -0.52,0.01 -0.8,0.1 0.3,0.09 0.41,0.35 0.41,0.52 0,0.16 -0.11,0.35 -0.38,0.35 -0.22,0 -0.54,-0.18 -0.54,-0.58 0,-0.41 0.37,-0.61 1.33,-0.61 1.24,0 1.96,0.78 2.11,1.38 z" id="path3379"/>
</g>    <path sodipodi:type="arc" style="fill:#000000;fill-opacity:0;stroke:#000000;stroke-width:3.45070386;stroke-miterlimit:4;stroke-opacity:1;stroke-dasharray:none" id="path2818-17" sodipodi:cx="149.5" sodipodi:cy="477.86218" sodipodi:rx="62.5" sodipodi:ry="62.5" d="m 212,477.86218 c 0,34.5178 -27.9822,62.5 -62.5,62.5 -34.5178,0 -62.5,-27.9822 -62.5,-62.5 0,-34.51779 27.9822,-62.5 62.5,-62.5 34.5178,0 62.5,27.98221 62.5,62.5 z" transform="matrix(0.49352249,0,0,0.49352249,-483.02396,-17.374826)"/>
    <path sodipodi:type="arc" style="fill:#000000;fill-opacity:1;stroke:#000000;stroke-width:2;stroke-miterlimit:4;stroke-opacity:1;stroke-dasharray:none" id="path3616-76-9" sodipodi:cx="80" sodipodi:cy="571.36218" sodipodi:rx="3" sodipodi:ry="3" d="m 83,571.36218 c 0,1.65686 -1.343146,3 -3,3 -1.656854,0 -3,-1.34314 -3,-3 0,-1.65685 1.343146,-3 3,-3 1.656854,0 3,1.34315 3,3 z" transform="matrix(1.0194372,0,0,1.0400245,-318.71235,-161.01056)"/>
    <path sodipodi:type="arc" style="fill:#000000;fill-opacity:1;stroke:#000000;stroke-width:2;stroke-miterlimit:4;stroke-opacity:1;stroke-dasharray:none" id="path3616-76-8" sodipodi:cx="80" sodipodi:cy="571.36218" sodipodi:rx="3" sodipodi:ry="3" d="m 83,571.36218 c 0,1.65686 -1.343146,3 -3,3 -1.656854,0 -3,-1.34314 -3,-3 0,-1.65685 1.343146,-3 3,-3 1.656854,0 3,1.34315 3,3 z" transform="matrix(1.0194372,0,0,1.0400245,-326.4706,-194.76597)"/>
    <path sodipodi:type="arc" style="fill:#000000;fill-opacity:0;stroke:#000000;stroke-width:3.45070386;stroke-miterlimit:4;stroke-opacity:1;stroke-dasharray:none" id="path2818-17-5" sodipodi:cx="149.5" sodipodi:cy="477.86218" sodipodi:rx="62.5" sodipodi:ry="62.5" d="m 212,477.86218 c 0,34.5178 -27.9822,62.5 -62.5,62.5 -34.5178,0 -62.5,-27.9822 -62.5,-62.5 0,-34.51779 27.9822,-62.5 62.5,-62.5 34.5178,0 62.5,27.98221 62.5,62.5 z" transform="matrix(0.42086167,0,0,0.42086167,-213.49448,7.3470333)"/>
    <path sodipodi:nodetypes="cccccc" id="path4147" d="m -553.7258,282.61885 c -16.75628,14.31434 -9.89284,22.08651 6.37458,27.36403 21.06843,8.67133 25.6597,4.94962 31.71739,0.93287 6.63053,-4.74475 3.03398,-20.6776 7.92935,-30.3181 8.07445,-23.92525 -18.95232,-32.11667 -26.58664,-16.79157 -2.74142,6.8819 -5.39245,10.88709 -19.43468,18.81277 z" style="fill:none;stroke:#000000;stroke-width:1.70200002;stroke-linecap:butt;stroke-linejoin:miter;stroke-miterlimit:4;stroke-opacity:1;stroke-dasharray:none"/>
    <path style="fill:none;stroke:#000000;stroke-width:1.01386786;stroke-linecap:butt;stroke-linejoin:miter;stroke-miterlimit:4;stroke-opacity:1;stroke-dasharray:none;marker-end:url(#Arrow2Lend)" d="m -409.90419,405.99649 c 44.03404,-22.5075 96.22303,-31.46836 156.64344,5.27693" id="path3712-1" sodipodi:nodetypes="cc"/>
    <path style="fill:none;stroke:#000000;stroke-width:1.01386786;stroke-linecap:butt;stroke-linejoin:miter;stroke-miterlimit:4;stroke-opacity:1;stroke-dasharray:none;marker-end:url(#Arrow2Lend)" d="m -431.39965,381.94429 c 64.09039,-28.3551 150.36869,-20.52607 182.78435,12.20805" id="path3712-6" sodipodi:nodetypes="cc"/>
    <path sodipodi:nodetypes="ccccccc" id="path4207" d="m -555.10847,363.98568 c -8.41198,6.7402 -21.8564,12.44469 -12.68203,23.61483 13.45425,15.66846 -0.50851,18.84543 17.05515,19.67902 11.15692,0.95298 19.97516,-0.43271 28.86257,-1.74924 12.17957,-1.25819 10.16481,-11.97928 8.74623,-22.3029 -3.97575,-6.85306 -1.11753,-15.17055 -20.11633,-18.80439 -9.76276,0.55061 -14.22973,-9.34217 -21.86559,-0.43732 z" style="fill:none;stroke:#000000;stroke-width:1.70200002;stroke-linecap:butt;stroke-linejoin:miter;stroke-miterlimit:4;stroke-opacity:1;stroke-dasharray:none"/>
    <g style="font-style:normal;font-variant:normal;font-weight:normal;font-stretch:normal;letter-spacing:normal;word-spacing:normal;text-anchor:start;fill:none;stroke:#000000;stroke-linecap:butt;stroke-linejoin:miter;stroke-miterlimit:10.43299961;stroke-opacity:1;stroke-dasharray:none;stroke-dashoffset:0" ns0:preamble="C:\\Documents and Settings\\Einar\\Desktop\\preamble.tex" ns0:text="$A$" word-spacing="normal" letter-spacing="normal" font-size-adjust="none" font-stretch="normal" font-weight="normal" font-variant="normal" font-style="normal" stroke-miterlimit="10.433" xml:space="preserve" transform="matrix(1.951538,0,0,-1.951538,-963.81245,1727.7441)" id="g4364">
<path id="path4366" d="m 225.22,708.27 -0.04,-0.06 -0.04,-0.06 -0.04,-0.06 -0.03,-0.05 -0.04,-0.05 -0.04,-0.04 -0.03,-0.05 -0.04,-0.04 -0.04,-0.04 -0.04,-0.04 -0.03,-0.03 -0.04,-0.03 -0.04,-0.03 -0.04,-0.03 -0.03,-0.03 -0.04,-0.02 -0.04,-0.02 -0.04,-0.02 -0.04,-0.02 -0.03,-0.02 -0.04,-0.01 -0.04,-0.02 -0.04,-0.01 -0.04,-0.01 -0.04,-0.01 -0.04,-0.01 -0.04,-0.01 -0.04,0 -0.08,-0.01 -0.08,-0.01 c -0.12,-0.01 -0.21,-0.01 -0.21,-0.2 0,-0.06 0.05,-0.11 0.13,-0.11 0.27,0 0.58,0.03 0.86,0.03 0.33,0 0.68,-0.03 0.99,-0.03 0.06,0 0.19,0 0.19,0.19 0,0.11 -0.09,0.12 -0.16,0.12 -0.23,0.02 -0.47,0.1 -0.47,0.35 0,0.12 0.06,0.23 0.14,0.37 l 0.76,1.27 h 2.5 l -0.03,0.31 h -2.28 l 1.96,3.29 0.32,-3.29 0.03,-0.31 c 0.02,-0.2 0.16,-1.56 0.16,-1.66 0,-0.3 -0.52,-0.33 -0.72,-0.33 -0.14,0 -0.23,0 -0.23,-0.2 0,-0.11 0.11,-0.11 0.14,-0.11 0.4,0 0.83,0.03 1.24,0.03 0.25,0 0.88,-0.03 1.13,-0.03 0.06,0 0.18,0 0.18,0.2 0,0.11 -0.1,0.11 -0.23,0.11 -0.62,0 -0.62,0.07 -0.65,0.36 l -0.61,6.23 c -0.02,0.2 -0.02,0.24 -0.19,0.24 -0.16,0 -0.2,-0.07 -0.26,-0.17 z" style="fill:#000000;stroke:none"/>
</g>    <g style="font-style:normal;font-variant:normal;font-weight:normal;font-stretch:normal;letter-spacing:normal;word-spacing:normal;text-anchor:start;fill:none;stroke:#000000;stroke-linecap:butt;stroke-linejoin:miter;stroke-miterlimit:10.43299961;stroke-opacity:1;stroke-dasharray:none;stroke-dashoffset:0" ns0:preamble="C:\\Documents and Settings\\Einar\\Desktop\\preamble.tex" ns0:text="$f(X)$" word-spacing="normal" letter-spacing="normal" font-size-adjust="none" font-stretch="normal" font-weight="normal" font-variant="normal" font-style="normal" stroke-miterlimit="10.433" xml:space="preserve" transform="matrix(1.8519008,0,0,-1.8892994,-628.13583,1754.4762)" id="g3075">
<path id="path3077" d="m 227.09,711.11 h 0.86 c 0.2,0 0.29,0 0.29,0.2 0,0.11 -0.09,0.11 -0.26,0.11 h -0.83 l 0.21,1.13 c 0.04,0.21 0.18,0.92 0.24,1.04 0.09,0.19 0.26,0.34 0.47,0.34 0.03,0 0.29,0 0.48,-0.18 -0.43,-0.04 -0.54,-0.39 -0.54,-0.54 0,-0.23 0.19,-0.35 0.37,-0.35 0.26,0 0.55,0.22 0.55,0.6 0,0.46 -0.46,0.69 -0.86,0.69 -0.34,0 -0.97,-0.18 -1.27,-1.17 -0.06,-0.21 -0.09,-0.31 -0.33,-1.56 h -0.69 c -0.19,0 -0.29,0 -0.29,-0.19 0,-0.12 0.08,-0.12 0.27,-0.12 h 0.66 l -0.75,-3.94 c -0.18,-0.96 -0.35,-1.87 -0.86,-1.87 -0.04,0 -0.29,0 -0.48,0.18 0.46,0.03 0.55,0.39 0.55,0.54 0,0.23 -0.18,0.34 -0.37,0.34 -0.26,0 -0.55,-0.21 -0.55,-0.59 0,-0.45 0.44,-0.69 0.85,-0.69 0.54,0 0.94,0.59 1.12,0.97 0.32,0.62 0.55,1.83 0.56,1.9 z" style="fill:#000000;stroke:none"/>
<path id="path3079" d="m 232.68,704.73 0,0.01 0,0 0,0.01 0,0 0,0 0,0 -0.01,0.01 0,0 0,0.01 0,0 0,0 -0.01,0.01 0,0 0,0.01 -0.01,0 0,0.01 -0.01,0.01 0,0 -0.01,0.01 0,0 0,0.01 -0.01,0 0,0.01 -0.01,0 0,0 0,0.01 -0.01,0 0,0.01 -0.01,0 0,0.01 -0.01,0.01 0,0 -0.01,0.01 -0.01,0 0,0.01 -0.01,0.01 -0.01,0 0,0.01 -0.01,0.01 -0.01,0.01 0,0 -0.01,0.01 c -1.25,1.26 -1.57,3.14 -1.57,4.66 0,1.74 0.38,3.47 1.61,4.72 0.13,0.12 0.13,0.14 0.13,0.16 0,0.08 -0.04,0.1 -0.1,0.1 -0.1,0 -1,-0.67 -1.59,-1.94 -0.5,-1.09 -0.62,-2.2 -0.62,-3.04 0,-0.77 0.11,-1.98 0.65,-3.1 0.6,-1.23 1.46,-1.88 1.56,-1.88 0.06,0 0.1,0.03 0.1,0.1 z" style="fill:#000000;stroke:none"/>
<path id="path3081" d="m 238.09,711.22 -0.84,1.98 c -0.03,0.08 -0.05,0.12 -0.05,0.13 0,0.06 0.17,0.25 0.59,0.29 0.1,0.01 0.2,0.02 0.2,0.19 0,0.12 -0.12,0.12 -0.15,0.12 -0.41,0 -0.84,-0.03 -1.25,-0.03 -0.25,0 -0.87,0.03 -1.12,0.03 -0.06,0 -0.18,0 -0.18,-0.2 0,-0.11 0.1,-0.11 0.23,-0.11 0.6,0 0.66,-0.1 0.75,-0.32 l 1.17,-2.78 -2.1,-2.26 -0.13,-0.11 c -0.49,-0.53 -0.96,-0.69 -1.46,-0.72 -0.13,-0.01 -0.22,-0.01 -0.22,-0.2 0,-0.01 0,-0.11 0.13,-0.11 0.3,0 0.62,0.03 0.93,0.03 0.37,0 0.76,-0.03 1.12,-0.03 0.06,0 0.18,0 0.18,0.2 0,0.1 -0.1,0.11 -0.12,0.11 -0.09,0.01 -0.4,0.03 -0.4,0.31 0,0.16 0.15,0.32 0.27,0.45 l 1.01,1.07 0.9,0.98 1.01,-2.38 c 0.04,-0.11 0.05,-0.12 0.05,-0.14 0,-0.08 -0.19,-0.25 -0.58,-0.29 -0.11,-0.01 -0.2,-0.02 -0.2,-0.19 0,-0.12 0.11,-0.12 0.15,-0.12 0.28,0 0.98,0.03 1.26,0.03 0.24,0 0.85,-0.03 1.1,-0.03 0.07,0 0.19,0 0.19,0.19 0,0.12 -0.1,0.12 -0.18,0.12 -0.67,0.01 -0.69,0.04 -0.86,0.44 -0.38,0.93 -1.05,2.48 -1.28,3.08 0.68,0.7 1.72,1.88 2.04,2.16 0.29,0.24 0.67,0.48 1.27,0.51 0.13,0.01 0.22,0.01 0.22,0.2 0,0.01 0,0.11 -0.13,0.11 -0.3,0 -0.63,-0.03 -0.94,-0.03 -0.37,0 -0.75,0.03 -1.11,0.03 -0.06,0 -0.18,0 -0.18,-0.2 0,-0.07 0.04,-0.1 0.11,-0.11 0.09,-0.01 0.4,-0.03 0.4,-0.31 0,-0.14 -0.11,-0.27 -0.19,-0.36 z" style="fill:#000000;stroke:none"/>
<path id="path3083" d="m 245.17,709.61 0,0.08 0,0.07 0,0.08 0,0.08 -0.01,0.17 -0.01,0.18 -0.02,0.18 -0.02,0.19 -0.03,0.2 -0.03,0.2 -0.04,0.2 -0.04,0.21 -0.06,0.21 -0.06,0.21 -0.07,0.21 -0.08,0.22 -0.04,0.1 -0.05,0.11 -0.04,0.11 -0.05,0.1 c -0.6,1.23 -1.46,1.87 -1.56,1.87 -0.06,0 -0.1,-0.04 -0.1,-0.1 0,-0.02 0,-0.04 0.19,-0.22 0.98,-0.99 1.55,-2.57 1.55,-4.66 0,-1.7 -0.37,-3.45 -1.61,-4.71 -0.13,-0.12 -0.13,-0.14 -0.13,-0.17 0,-0.06 0.04,-0.1 0.1,-0.1 0.1,0 1,0.68 1.59,1.95 0.5,1.09 0.62,2.2 0.62,3.03 z" style="fill:#000000;stroke:none"/>
</g>    <path style="fill:none;stroke:#000000;stroke-width:2.05900002;stroke-linecap:butt;stroke-linejoin:miter;stroke-miterlimit:4;stroke-opacity:1;stroke-dasharray:none" d="m -259.04072,382.29274 c -4.45171,3.86763 -17.18178,11.83318 -9.53846,42.92308 5.86215,27.53248 22.29413,44.05472 47.84615,51.07692 20.57846,4.9985 22.86483,-6.35642 20.76923,-16.46154 -3.18666,-13.84459 -1.55102,-7.95694 -3.53846,-13.69231 -4.30409,-13.27992 -16.87218,-23.34041 -22.3077,-26.30769 -17.38409,-6.80065 -4.18558,-22.73996 -13.07691,-33.84615 -1.97025,-4.49313 -9.86308,-12.17426 -20.15385,-3.69231 z" id="path5952" sodipodi:nodetypes="cccccccc"/>
    <path sodipodi:type="arc" style="fill:#000000;fill-opacity:1;stroke:#000000;stroke-width:2;stroke-miterlimit:4;stroke-opacity:1;stroke-dasharray:none" id="path3616-76-24-8" sodipodi:cx="80" sodipodi:cy="571.36218" sodipodi:rx="3" sodipodi:ry="3" d="m 83,571.36218 c 0,1.65686 -1.343146,3 -3,3 -1.656854,0 -3,-1.34314 -3,-3 0,-1.65685 1.343146,-3 3,-3 1.656854,0 3,1.34315 3,3 z" transform="matrix(1.0194372,0,0,1.0400245,-269.288,-144.66871)"/>
    <path sodipodi:type="arc" style="fill:#000000;fill-opacity:1;stroke:#000000;stroke-width:2;stroke-miterlimit:4;stroke-opacity:1;stroke-dasharray:none" id="path3616-76-1" sodipodi:cx="80" sodipodi:cy="571.36218" sodipodi:rx="3" sodipodi:ry="3" d="m 83,571.36218 c 0,1.65686 -1.343146,3 -3,3 -1.656854,0 -3,-1.34314 -3,-3 0,-1.65685 1.343146,-3 3,-3 1.656854,0 3,1.34315 3,3 z" transform="matrix(1.0194372,0,0,1.0400245,-289.788,-212.74562)"/>
  </g>
</svg>
