<?xml version="1.0" encoding="UTF-8"?>
<svg xmlns="http://www.w3.org/2000/svg" xmlns:xlink="http://www.w3.org/1999/xlink" width="128.522pt" height="130.954pt" viewBox="0 0 128.522 130.954" version="1.1">
<defs>
<clipPath id="clip1">
  <path d="M 0 0 L 128.523438 0 L 128.523438 130.953125 L 0 130.953125 Z M 0 0 "/>
</clipPath>
</defs>
<g id="surface1">
<g clip-path="url(#clip1)" clip-rule="nonzero">
<path style="fill:none;stroke-width:1.19553;stroke-linecap:butt;stroke-linejoin:miter;stroke:rgb(0%,0%,0%);stroke-opacity:1;stroke-miterlimit:10;" d="M -56.693688 113.386688 C -56.693688 113.386688 -53.279625 100.085906 -51.971031 95.277313 C -50.658531 90.472625 -48.556969 83.11325 -47.244469 78.742156 C -45.935875 74.371063 -43.830406 67.714813 -42.521813 63.781219 C -41.209313 59.851531 -39.10775 53.8945 -37.79525 50.398406 C -36.486656 46.902313 -34.385094 41.6445 -33.072594 38.585906 C -31.760094 35.527313 -29.658531 30.972625 -28.349938 28.351531 C -27.037438 25.726531 -24.935875 21.874969 -23.623375 19.687469 C -22.314781 17.503875 -20.209313 14.351531 -18.900719 12.601531 C -17.588219 10.851531 -15.486656 8.402313 -14.174156 7.089813 C -12.865563 5.777313 -10.764 4.027313 -9.4515 3.152313 C -8.139 2.277313 -6.037438 1.226531 -4.728844 0.789031 C -3.416344 0.351531 -1.314781 -0.00003125 -0.00228125 -0.00003125 C 1.306312 -0.00003125 3.407875 0.347625 4.720375 0.785125 C 6.032875 1.222625 8.134437 2.273406 9.443031 3.148406 C 10.755531 4.0195 12.857094 5.773406 14.169594 7.082 C 15.478187 8.3945 17.583656 10.843719 18.89225 12.593719 C 20.20475 14.339813 22.306312 17.492156 23.618812 19.67575 C 24.927406 21.86325 27.028969 25.714813 28.341469 28.335906 C 29.653969 30.957 31.755531 35.511688 33.064125 38.570281 C 34.376625 41.628875 36.478187 46.882781 37.790687 50.378875 C 39.099281 53.874969 41.20475 59.828094 42.513344 63.761688 C 43.825844 67.695281 45.927406 74.351531 47.239906 78.718719 C 48.5485 83.089813 50.650062 90.445281 51.962562 95.253875 C 53.275062 100.058563 56.685219 113.359344 56.685219 113.359344 " transform="matrix(1,0,0,-1,64.264,120.957)"/>
</g>
<path style="fill:none;stroke-width:0.3985;stroke-linecap:butt;stroke-linejoin:miter;stroke:rgb(0%,0%,0%);stroke-opacity:1;stroke-dasharray:2.98883,2.98883;stroke-miterlimit:10;" d="M -56.693688 85.039031 C -56.693688 85.039031 -55.369469 82.3945 -54.861656 81.378875 C -54.353844 80.36325 -53.541344 78.734344 -53.033531 77.718719 C -52.525719 76.703094 -51.709313 75.074188 -51.2015 74.058563 C -50.693688 73.042938 -49.881188 71.414031 -49.373375 70.3945 C -48.865563 69.378875 -48.049156 67.749969 -47.541344 66.734344 C -47.033531 65.718719 -46.217125 64.089813 -45.709313 63.074188 C -45.2015 62.058563 -44.389 60.429656 -43.881188 59.414031 C -43.373375 58.398406 -42.556969 56.7695 -42.049156 55.753875 C -41.541344 54.73825 -40.728844 53.105438 -40.221031 52.089813 C -39.709313 51.074188 -38.896813 49.445281 -38.389 48.429656 C -37.881188 47.414031 -37.064781 45.785125 -36.556969 44.7695 C -36.049156 43.753875 -35.236656 42.124969 -34.728844 41.109344 C -34.221031 40.093719 -33.404625 38.464813 -32.896813 37.449188 C -32.389 36.429656 -31.572594 34.80075 -31.064781 33.785125 C -30.556969 32.7695 -29.744469 31.140594 -29.236656 30.124969 C -28.728844 29.109344 -27.912438 27.480438 -27.404625 26.464813 C -26.896813 25.449188 -26.084313 23.820281 -25.5765 22.804656 C -25.068688 21.789031 -24.252281 20.160125 -23.744469 19.140594 C -23.236656 18.124969 -22.42025 16.496063 -21.912438 15.480438 C -21.404625 14.464813 -20.592125 12.835906 -20.084313 11.820281 C -19.5765 10.804656 -18.760094 9.17575 -18.252281 8.160125 C -17.744469 7.1445 -16.931969 5.515594 -16.424156 4.499969 C -15.916344 3.484344 -15.099938 1.851531 -14.592125 0.835906 C -14.084313 -0.179719 -12.760094 -2.82425 -12.760094 -2.82425 " transform="matrix(1,0,0,-1,64.264,120.957)"/>
<path style="fill:none;stroke-width:0.3985;stroke-linecap:butt;stroke-linejoin:miter;stroke:rgb(0%,0%,0%);stroke-opacity:1;stroke-miterlimit:10;" d="M -42.521813 113.386688 L -42.521813 63.781219 L 0.001625 7.085906 " transform="matrix(1,0,0,-1,64.264,120.957)"/>
<path style="fill:none;stroke-width:0.3985;stroke-linecap:butt;stroke-linejoin:miter;stroke:rgb(100%,0%,0%);stroke-opacity:1;stroke-miterlimit:10;" d="M -28.346031 113.386688 L -28.346031 28.347625 L 0.001625 7.085906 " transform="matrix(1,0,0,-1,64.264,120.957)"/>
<path style="fill:none;stroke-width:0.3985;stroke-linecap:butt;stroke-linejoin:miter;stroke:rgb(0%,0%,0%);stroke-opacity:1;stroke-miterlimit:10;" d="M -14.174156 113.386688 L -14.174156 7.085906 L 0.001625 7.085906 " transform="matrix(1,0,0,-1,64.264,120.957)"/>
<path style="fill:none;stroke-width:0.3985;stroke-linecap:butt;stroke-linejoin:miter;stroke:rgb(0%,0%,0%);stroke-opacity:1;stroke-miterlimit:10;" d="M 28.345375 113.386688 L 28.345375 28.347625 L 0.001625 7.085906 " transform="matrix(1,0,0,-1,64.264,120.957)"/>
<path style="fill:none;stroke-width:0.3985;stroke-linecap:butt;stroke-linejoin:miter;stroke:rgb(0%,0%,0%);stroke-opacity:1;stroke-miterlimit:10;" d="M 14.1735 113.386688 L 14.1735 7.085906 L 0.001625 7.085906 " transform="matrix(1,0,0,-1,64.264,120.957)"/>
<path style="fill:none;stroke-width:0.3985;stroke-linecap:butt;stroke-linejoin:miter;stroke:rgb(0%,0%,0%);stroke-opacity:1;stroke-miterlimit:10;" d="M 42.521156 113.386688 L 42.521156 63.781219 L 0.001625 7.085906 " transform="matrix(1,0,0,-1,64.264,120.957)"/>
<path style="fill-rule:nonzero;fill:rgb(0%,0%,100%);fill-opacity:1;stroke-width:0.3985;stroke-linecap:butt;stroke-linejoin:miter;stroke:rgb(0%,0%,100%);stroke-opacity:1;stroke-miterlimit:10;" d="M 1.993812 7.085906 C 1.993812 8.187469 1.099281 9.078094 0.001625 9.078094 C -1.099938 9.078094 -1.994469 8.187469 -1.994469 7.085906 C -1.994469 5.984344 -1.099938 5.093719 0.001625 5.093719 C 1.099281 5.093719 1.993812 5.984344 1.993812 7.085906 Z M 1.993812 7.085906 " transform="matrix(1,0,0,-1,64.264,120.957)"/>
</g>
</svg>
