<?xml version="1.0" encoding="UTF-8" standalone="no"?>
<!-- Created with Inkscape (http://www.inkscape.org/) -->

<svg
   xmlns:dc="http://purl.org/dc/elements/1.1/"
   xmlns:cc="http://creativecommons.org/ns#"
   xmlns:rdf="http://www.w3.org/1999/02/22-rdf-syntax-ns#"
   xmlns:svg="http://www.w3.org/2000/svg"
   xmlns="http://www.w3.org/2000/svg"
   xmlns:xlink="http://www.w3.org/1999/xlink"
   xmlns:sodipodi="http://sodipodi.sourceforge.net/DTD/sodipodi-0.dtd"
   xmlns:inkscape="http://www.inkscape.org/namespaces/inkscape"
   width="744.09448819"
   height="1052.3622047"
   id="svg2"
   version="1.1"
   inkscape:version="0.48.4 r9939"
   sodipodi:docname="joinsurf.svg">
  <defs
     id="defs4">
    <marker
       inkscape:stockid="Arrow2Lend"
       orient="auto"
       refY="0.0"
       refX="0.0"
       id="Arrow2Lend"
       style="overflow:visible;">
      <path
         id="path3792"
         style="fill-rule:evenodd;stroke-width:0.62500000;stroke-linejoin:round;"
         d="M 8.7185878,4.0337352 L -2.2072895,0.016013256 L 8.7185884,-4.0017078 C 6.9730900,-1.6296469 6.9831476,1.6157441 8.7185878,4.0337352 z "
         transform="scale(1.1) rotate(180) translate(1,0)" />
    </marker>
    <marker
       inkscape:stockid="Arrow2Lstart"
       orient="auto"
       refY="0.0"
       refX="0.0"
       id="Arrow2Lstart"
       style="overflow:visible">
      <path
         id="path3789"
         style="fill-rule:evenodd;stroke-width:0.62500000;stroke-linejoin:round"
         d="M 8.7185878,4.0337352 L -2.2072895,0.016013256 L 8.7185884,-4.0017078 C 6.9730900,-1.6296469 6.9831476,1.6157441 8.7185878,4.0337352 z "
         transform="scale(1.1) translate(1,0)" />
    </marker>
    <marker
       inkscape:stockid="Arrow1Mstart"
       orient="auto"
       refY="0.0"
       refX="0.0"
       id="Arrow1Mstart"
       style="overflow:visible">
      <path
         id="path3777"
         d="M 0.0,0.0 L 5.0,-5.0 L -12.5,0.0 L 5.0,5.0 L 0.0,0.0 z "
         style="fill-rule:evenodd;stroke:#000000;stroke-width:1.0pt"
         transform="scale(0.4) translate(10,0)" />
    </marker>
    <marker
       inkscape:stockid="Arrow1Mend"
       orient="auto"
       refY="0.0"
       refX="0.0"
       id="Arrow1Mend"
       style="overflow:visible;">
      <path
         id="path3780"
         d="M 0.0,0.0 L 5.0,-5.0 L -12.5,0.0 L 5.0,5.0 L 0.0,0.0 z "
         style="fill-rule:evenodd;stroke:#000000;stroke-width:1.0pt;"
         transform="scale(0.4) rotate(180) translate(10,0)" />
    </marker>
    <linearGradient
       id="linearGradient2989">
      <stop
         style="stop-color:#00ff23;stop-opacity:1;"
         offset="0"
         id="stop2991" />
      <stop
         style="stop-color:#ffffff;stop-opacity:0;"
         offset="1"
         id="stop2993" />
    </linearGradient>
    <radialGradient
       inkscape:collect="always"
       xlink:href="#linearGradient2989"
       id="radialGradient2995"
       cx="245.06686"
       cy="293.38022"
       fx="245.06686"
       fy="293.38022"
       r="163.72498"
       gradientTransform="matrix(0.74970017,-0.03263857,0.0147517,0.33871204,-48.311238,53.695475)"
       gradientUnits="userSpaceOnUse" />
    <marker
       inkscape:stockid="Arrow1Mend"
       orient="auto"
       refY="0"
       refX="0"
       id="Arrow1Mend-1"
       style="overflow:visible">
      <path
         inkscape:connector-curvature="0"
         id="path3780-4"
         d="M 0,0 5,-5 -12.5,0 5,5 0,0 z"
         style="fill-rule:evenodd;stroke:#000000;stroke-width:1pt"
         transform="matrix(-0.4,0,0,-0.4,-4,0)" />
    </marker>
    <radialGradient
       inkscape:collect="always"
       xlink:href="#linearGradient2989-1"
       id="radialGradient2995-8"
       cx="245.06686"
       cy="293.38022"
       fx="245.06686"
       fy="293.38022"
       r="163.72498"
       gradientTransform="matrix(-0.63791431,-0.17813616,-0.08048623,0.28820641,542.86817,73.059775)"
       gradientUnits="userSpaceOnUse" />
    <linearGradient
       id="linearGradient2989-1">
      <stop
         style="stop-color:#00ffff;stop-opacity:1;"
         offset="0"
         id="stop2991-1" />
      <stop
         style="stop-color:#ffffff;stop-opacity:0;"
         offset="1"
         id="stop2993-6" />
    </linearGradient>
    <marker
       inkscape:stockid="Arrow2Lstart"
       orient="auto"
       refY="0"
       refX="0"
       id="Arrow2Lstart-7"
       style="overflow:visible">
      <path
         inkscape:connector-curvature="0"
         id="path3789-8"
         style="fill-rule:evenodd;stroke-width:0.625;stroke-linejoin:round"
         d="M 8.7185878,4.0337352 -2.2072895,0.01601326 8.7185884,-4.0017078 c -1.7454984,2.3720609 -1.7354408,5.6174519 -6e-7,8.035443 z"
         transform="matrix(1.1,0,0,1.1,1.1,0)" />
    </marker>
    <marker
       inkscape:stockid="Arrow1Mstart"
       orient="auto"
       refY="0"
       refX="0"
       id="Arrow1Mstart-7"
       style="overflow:visible">
      <path
         inkscape:connector-curvature="0"
         id="path3777-0"
         d="M 0,0 5,-5 -12.5,0 5,5 0,0 z"
         style="fill-rule:evenodd;stroke:#000000;stroke-width:1pt"
         transform="matrix(0.4,0,0,0.4,4,0)" />
    </marker>
    <marker
       inkscape:stockid="Arrow1Mend"
       orient="auto"
       refY="0"
       refX="0"
       id="Arrow1Mend-1-6"
       style="overflow:visible">
      <path
         inkscape:connector-curvature="0"
         id="path3780-4-7"
         d="M 0,0 5,-5 -12.5,0 5,5 0,0 z"
         style="fill-rule:evenodd;stroke:#000000;stroke-width:1pt"
         transform="matrix(-0.4,0,0,-0.4,-4,0)" />
    </marker>
    <marker
       inkscape:stockid="Arrow1Mstart"
       orient="auto"
       refY="0"
       refX="0"
       id="Arrow1Mstart-6"
       style="overflow:visible">
      <path
         inkscape:connector-curvature="0"
         id="path3777-1"
         d="M 0,0 5,-5 -12.5,0 5,5 0,0 z"
         style="fill-rule:evenodd;stroke:#000000;stroke-width:1pt"
         transform="matrix(0.4,0,0,0.4,4,0)" />
    </marker>
    <marker
       inkscape:stockid="Arrow1Mend"
       orient="auto"
       refY="0"
       refX="0"
       id="Arrow1Mend-1-8"
       style="overflow:visible">
      <path
         inkscape:connector-curvature="0"
         id="path3780-4-3"
         d="M 0,0 5,-5 -12.5,0 5,5 0,0 z"
         style="fill-rule:evenodd;stroke:#000000;stroke-width:1pt"
         transform="matrix(-0.4,0,0,-0.4,-4,0)" />
    </marker>
    <marker
       inkscape:stockid="Arrow1Mstart"
       orient="auto"
       refY="0"
       refX="0"
       id="Arrow1Mstart-5"
       style="overflow:visible">
      <path
         inkscape:connector-curvature="0"
         id="path3777-8"
         d="M 0,0 5,-5 -12.5,0 5,5 0,0 z"
         style="fill-rule:evenodd;stroke:#000000;stroke-width:1pt"
         transform="matrix(0.4,0,0,0.4,4,0)" />
    </marker>
    <marker
       inkscape:stockid="Arrow1Mend"
       orient="auto"
       refY="0"
       refX="0"
       id="Arrow1Mend-1-87"
       style="overflow:visible">
      <path
         inkscape:connector-curvature="0"
         id="path3780-4-0"
         d="M 0,0 5,-5 -12.5,0 5,5 0,0 z"
         style="fill-rule:evenodd;stroke:#000000;stroke-width:1pt"
         transform="matrix(-0.4,0,0,-0.4,-4,0)" />
    </marker>
    <marker
       inkscape:stockid="Arrow1Mstart"
       orient="auto"
       refY="0"
       refX="0"
       id="marker5953"
       style="overflow:visible">
      <path
         inkscape:connector-curvature="0"
         id="path5955"
         d="M 0,0 5,-5 -12.5,0 5,5 0,0 z"
         style="fill-rule:evenodd;stroke:#000000;stroke-width:1pt"
         transform="matrix(0.4,0,0,0.4,4,0)" />
    </marker>
    <marker
       inkscape:stockid="Arrow1Mend"
       orient="auto"
       refY="0"
       refX="0"
       id="marker5957"
       style="overflow:visible">
      <path
         inkscape:connector-curvature="0"
         id="path5959"
         d="M 0,0 5,-5 -12.5,0 5,5 0,0 z"
         style="fill-rule:evenodd;stroke:#000000;stroke-width:1pt"
         transform="matrix(-0.4,0,0,-0.4,-4,0)" />
    </marker>
    <marker
       inkscape:stockid="Arrow1Mstart"
       orient="auto"
       refY="0"
       refX="0"
       id="marker5961"
       style="overflow:visible">
      <path
         inkscape:connector-curvature="0"
         id="path5963"
         d="M 0,0 5,-5 -12.5,0 5,5 0,0 z"
         style="fill-rule:evenodd;stroke:#000000;stroke-width:1pt"
         transform="matrix(0.4,0,0,0.4,4,0)" />
    </marker>
    <marker
       inkscape:stockid="Arrow1Mend"
       orient="auto"
       refY="0"
       refX="0"
       id="marker5965"
       style="overflow:visible">
      <path
         inkscape:connector-curvature="0"
         id="path5967"
         d="M 0,0 5,-5 -12.5,0 5,5 0,0 z"
         style="fill-rule:evenodd;stroke:#000000;stroke-width:1pt"
         transform="matrix(-0.4,0,0,-0.4,-4,0)" />
    </marker>
    <marker
       inkscape:stockid="Arrow1Mend"
       orient="auto"
       refY="0"
       refX="0"
       id="Arrow1Mend-2"
       style="overflow:visible">
      <path
         inkscape:connector-curvature="0"
         id="path3780-8"
         d="M 0,0 5,-5 -12.5,0 5,5 0,0 z"
         style="fill-rule:evenodd;stroke:#000000;stroke-width:1pt"
         transform="matrix(-0.4,0,0,-0.4,-4,0)" />
    </marker>
    <radialGradient
       inkscape:collect="always"
       xlink:href="#linearGradient2989-1-8"
       id="radialGradient2995-8-3"
       cx="245.06686"
       cy="293.38022"
       fx="245.06686"
       fy="293.38022"
       r="163.72498"
       gradientTransform="matrix(-0.63791431,-0.17813616,-0.08048623,0.28820641,803.17232,169.78578)"
       gradientUnits="userSpaceOnUse" />
    <linearGradient
       id="linearGradient2989-1-8">
      <stop
         style="stop-color:#00ffff;stop-opacity:1;"
         offset="0"
         id="stop2991-1-9" />
      <stop
         style="stop-color:#ffffff;stop-opacity:0;"
         offset="1"
         id="stop2993-6-5" />
    </linearGradient>
    <marker
       inkscape:stockid="Arrow2Lend"
       orient="auto"
       refY="0"
       refX="0"
       id="Arrow2Lend-5"
       style="overflow:visible">
      <path
         inkscape:connector-curvature="0"
         id="path3792-9"
         style="fill-rule:evenodd;stroke-width:0.625;stroke-linejoin:round"
         d="M 8.7185878,4.0337352 -2.2072895,0.01601326 8.7185884,-4.0017078 c -1.7454984,2.3720609 -1.7354408,5.6174519 -6e-7,8.035443 z"
         transform="matrix(-1.1,0,0,-1.1,-1.1,0)" />
    </marker>
    <marker
       inkscape:stockid="Arrow1Mend"
       orient="auto"
       refY="0"
       refX="0"
       id="marker5977"
       style="overflow:visible">
      <path
         inkscape:connector-curvature="0"
         id="path5979"
         d="M 0,0 5,-5 -12.5,0 5,5 0,0 z"
         style="fill-rule:evenodd;stroke:#000000;stroke-width:1pt"
         transform="matrix(-0.4,0,0,-0.4,-4,0)" />
    </marker>
    <radialGradient
       inkscape:collect="always"
       xlink:href="#linearGradient2989-5"
       id="radialGradient2995-86"
       cx="245.06686"
       cy="293.38022"
       fx="245.06686"
       fy="293.38022"
       r="163.72498"
       gradientTransform="matrix(0.74970017,-0.03263857,0.0147517,0.33871204,293.16631,154.14465)"
       gradientUnits="userSpaceOnUse" />
    <linearGradient
       id="linearGradient2989-5">
      <stop
         style="stop-color:#00ff23;stop-opacity:1;"
         offset="0"
         id="stop2991-5" />
      <stop
         style="stop-color:#ffffff;stop-opacity:0;"
         offset="1"
         id="stop2993-4" />
    </linearGradient>
    <marker
       inkscape:stockid="Arrow2Lstart"
       orient="auto"
       refY="0"
       refX="0"
       id="Arrow2Lstart-9"
       style="overflow:visible">
      <path
         inkscape:connector-curvature="0"
         id="path3789-9"
         style="fill-rule:evenodd;stroke-width:0.625;stroke-linejoin:round"
         d="M 8.7185878,4.0337352 -2.2072895,0.01601326 8.7185884,-4.0017078 c -1.7454984,2.3720609 -1.7354408,5.6174519 -6e-7,8.035443 z"
         transform="matrix(1.1,0,0,1.1,1.1,0)" />
    </marker>
  </defs>
  <sodipodi:namedview
     id="base"
     pagecolor="#ffffff"
     bordercolor="#666666"
     borderopacity="1.0"
     inkscape:pageopacity="0.0"
     inkscape:pageshadow="2"
     inkscape:zoom="1.979899"
     inkscape:cx="521.77142"
     inkscape:cy="860.23696"
     inkscape:document-units="px"
     inkscape:current-layer="layer1"
     showgrid="false"
     inkscape:window-width="1680"
     inkscape:window-height="995"
     inkscape:window-x="-2"
     inkscape:window-y="-3"
     inkscape:window-maximized="1" />
  <metadata
     id="metadata7">
    <rdf:RDF>
      <cc:Work
         rdf:about="">
        <dc:format>image/svg+xml</dc:format>
        <dc:type
           rdf:resource="http://purl.org/dc/dcmitype/StillImage" />
        <dc:title></dc:title>
      </cc:Work>
    </rdf:RDF>
  </metadata>
  <g
     inkscape:label="Layer 1"
     inkscape:groupmode="layer"
     id="layer1">
    <path
       style="opacity:0.98999999;fill:#ffffff;fill-opacity:1;stroke:#000000;stroke-width:0.81388378;stroke-linejoin:round;stroke-miterlimit:4;stroke-opacity:1;stroke-dasharray:none;stroke-dashoffset:0"
       d="m 84.645242,119.60323 c -4.70182,0.26799 -20.39311,-0.20554 -21.5558,23.82341 -1.16269,24.02895 -4.2632,56.5843 45.344958,41.08175 49.60815,-15.50255 49.99572,10.46422 87.97696,-6.97614 37.98125,-17.44037 63.17289,-26.35434 27.51703,-53.09624 -35.65586,-26.741885 -32.55536,-24.41651 -32.55536,-24.41651 0,0 -37.20611,-1.937815 -54.64648,12.01448 -17.44037,13.95229 -47.251198,7.0554 -52.081308,7.56925 z"
       id="path2985"
       inkscape:connector-curvature="0"
       sodipodi:nodetypes="csssscsc" />
    <path
       style="opacity:0.98999999;fill:url(#radialGradient2995);fill-opacity:1;stroke:none;stroke-width:0.75761443;marker-mid:url(#Arrow2Lstart)"
       d="m 83.142762,188.37867 c -3.02221,-0.29336 -6.99606,-1.3003 -9.2374,-2.54397 -2.32856,-1.29206 -6.25606,-4.36877 -7.29663,-7.2464 -1.83183,-5.06581 -3.68753,-9.51641 -3.895,-18.54809 -0.16101,-7.00891 0.36544,-17.35908 0.99368,-21.29171 1.55249,-9.71833 4.96537,-15.94791 12.79857,-18.01436 2.90671,-0.76681 10.18939,-1.11863 17.10474,-0.45659 5.9965,0.57408 15.331318,0.67608 19.547278,0.20916 9.60141,-1.06337 16.77394,-3.7997 23.68173,-8.68711 1.88409,-1.33303 5.43197,-3.09914 7.29207,-4.0431 26.66505,-8.772775 43.46486,-11.678635 64.3624,4.99457 18.64505,14.87604 20.42293,15.48464 24.051,18.96964 3.63144,3.48825 5.8734,6.30509 7.37345,9.3886 1.59925,3.28747 2.05954,4.83431 1.14639,7.52469 -0.73684,2.17089 -1.97468,5.25316 -5.37636,8.18548 -5.54513,4.78001 -12.14176,8.44957 -30.7713,16.93962 -13.36886,6.0926 -15.09929,6.99562 -20.47387,8.38308 -5.1274,1.32364 -8.47888,1.79632 -13.91928,1.61668 -4.75178,-0.15691 -6.08285,-0.32463 -15.26647,-2.22285 -16.3292,-3.37518 -26.66044,-3.09627 -46.43357,2.73885 -10.698608,3.15719 -16.339938,4.81589 -22.677808,4.20069 z"
       id="path2987"
       inkscape:connector-curvature="0"
       sodipodi:nodetypes="cssssssssccssssssssscc" />
    <path
       style="opacity:0.98999999;fill:#ffffff;fill-opacity:1;stroke:#000000;stroke-width:1.36222005;stroke-linejoin:round;stroke-miterlimit:4;stroke-opacity:1;stroke-dasharray:none;stroke-dashoffset:0;marker-end:url(#Arrow1Mend)"
       d="M 146.5257,139.58649 121.22733,79.908285"
       id="path2997"
       inkscape:connector-curvature="0"
       sodipodi:nodetypes="cc" />
    <path
       style="opacity:0.98999999;fill:#ffffff;fill-opacity:1;stroke:#000000;stroke-width:0.71834183;stroke-linejoin:round;stroke-miterlimit:4;stroke-opacity:1;stroke-dasharray:none;stroke-dashoffset:0"
       d="m 415.38392,103.0985 c 3.98807,1.17161 17.57122,3.90574 13.7604,24.79397 -3.81081,20.88824 -7.66272,49.49374 -47.20288,26.23676 -39.54016,-23.25699 -45.07151,-1.01334 -74.22915,-23.60855 -29.15765,-22.5952 -49.02813,-35.300745 -13.0247,-51.150465 36.00341,-15.84972 32.87269,-14.47148 32.87269,-14.47148 0,0 32.37059,5.78239 44.5694,21.26722 12.19882,15.484815 39.2051,15.523925 43.25424,16.932545 z"
       id="path2985-2"
       inkscape:connector-curvature="0"
       sodipodi:nodetypes="csssscsc" />
    <path
       style="opacity:0.98999999;fill:url(#radialGradient2995-8);fill-opacity:1;stroke:none;stroke-width:0.75761443;marker-mid:url(#Arrow2Lend)"
       d="m 402.90755,162.51919 c 2.65665,0.35283 6.27417,0.28276 8.44981,-0.33762 2.2603,-0.64452 6.25232,-2.50305 7.72287,-4.76838 2.58877,-3.98789 5.07489,-7.44217 7.06125,-15.16435 1.54149,-5.99268 3.16091,-14.99516 3.40814,-18.50145 0.61094,-8.66473 -1.07572,-14.70294 -7.39553,-18.04738 -2.34512,-1.24103 -8.53494,-3.00136 -14.61196,-3.81662 -5.26956,-0.70694 -13.31426,-2.487955 -16.84486,-3.733305 -8.04058,-2.83616 -13.65837,-6.62417 -18.61796,-12.20827 -1.35272,-1.52305 -4.04896,-3.75144 -5.45895,-4.93525 -21.16529,-12.87913 -35.02482,-18.74012 -56.32626,-8.59111 -19.00541,9.05508 -20.65553,9.22233 -24.47189,11.49177 -3.81992,2.27156 -6.31101,4.24414 -8.21775,6.59445 -2.03283,2.50578 -2.73815,3.74332 -2.49178,6.23879 0.19881,2.01362 0.64583,4.910955 2.98293,8.112575 3.80974,5.21899 8.74567,9.69393 23.06017,20.72142 10.27233,7.91351 11.57904,9.03616 15.92132,11.30475 4.14258,2.16425 6.92891,3.2415 11.64148,4.17617 4.11609,0.81636 5.29385,0.93865 13.56816,1.14536 14.71237,0.36755 23.53736,2.67548 39.36637,11.6497 8.56459,4.85567 13.08187,7.41082 18.65311,8.15074 z"
       id="path2987-2"
       inkscape:connector-curvature="0"
       sodipodi:nodetypes="cssssssssccssssssssscc" />
    <path
       style="opacity:0.98999999;fill:#ffffff;fill-opacity:1;stroke:#000000;stroke-width:1.20230889;stroke-linejoin:round;stroke-miterlimit:4;stroke-opacity:1;stroke-dasharray:none;stroke-dashoffset:0;marker-end:url(#Arrow1Mend)"
       d="M 358.19062,107.88864 391.88406,61.653185"
       id="path2997-5"
       inkscape:connector-curvature="0"
       sodipodi:nodetypes="cc" />
    <path
       style="opacity:0.98999999;fill:#ffffff;fill-opacity:1;stroke:#000000;stroke-width:1.08517838;stroke-miterlimit:4;stroke-dasharray:none;marker-start:url(#Arrow1Mstart);marker-end:url(#Arrow1Mend-1)"
       d="m 231.82373,114.10073 34.53016,-12.05815"
       id="path4917"
       inkscape:connector-curvature="0"
       sodipodi:nodetypes="cc" />
    <path
       style="opacity:0.98999999;fill:#ffffff;fill-opacity:1;stroke:#000000;stroke-width:1.08517838;stroke-miterlimit:4;stroke-dasharray:none;marker-start:url(#Arrow1Mstart);marker-end:url(#Arrow1Mend-1)"
       d="M 241.96354,130.54366 276.4937,118.48552"
       id="path4917-2"
       inkscape:connector-curvature="0"
       sodipodi:nodetypes="cc" />
    <path
       style="opacity:0.98999999;fill:#ffffff;fill-opacity:1;stroke:#000000;stroke-width:1.08517838;stroke-miterlimit:4;stroke-dasharray:none;marker-start:url(#Arrow1Mstart);marker-end:url(#Arrow1Mend-1)"
       d="m 254.02169,144.79421 34.53017,-12.05815"
       id="path4917-2-4"
       inkscape:connector-curvature="0"
       sodipodi:nodetypes="cc" />
    <path
       style="opacity:0.98999999;fill:#ffffff;fill-opacity:1;stroke:#000000;stroke-width:0.81388378;stroke-linejoin:round;stroke-miterlimit:4;stroke-opacity:1;stroke-dasharray:none;stroke-dashoffset:0"
       d="m 426.12279,220.0524 c -4.70182,0.268 -20.3931,-0.20554 -21.5558,23.82341 -1.16269,24.02896 -4.2632,56.58431 45.34496,41.08176 49.60815,-15.50255 50.09261,10.85178 88.07385,-6.58858 37.98122,-17.44037 63.17292,-26.35434 27.51702,-53.09623 -35.65585,-26.7419 -16.22698,-15.64628 -26.74189,-23.15694 0,0 -43.11647,-3.58496 -60.55683,10.36733 -17.44037,13.9523 -47.2512,7.05541 -52.08131,7.56925 z"
       id="path2985-1"
       inkscape:connector-curvature="0"
       sodipodi:nodetypes="csssscsc" />
    <path
       style="opacity:0.98999999;fill:#ffffff;fill-opacity:1;stroke:#000000;stroke-width:0.71834183;stroke-linejoin:round;stroke-miterlimit:4;stroke-opacity:1;stroke-dasharray:none;stroke-dashoffset:0"
       d="m 675.68802,199.82451 c 3.9881,1.17161 17.5712,3.90574 13.7604,24.79397 -3.8108,20.88824 -7.6627,49.49374 -47.2029,26.23676 -39.5401,-23.257 -45.0715,-1.01334 -74.2291,-23.60855 -29.15769,-22.5952 -49.02816,-35.30075 -13.0247,-51.15047 36.0034,-15.84972 32.8726,-14.47148 32.8726,-14.47148 0,0 32.3706,5.78239 44.5695,21.26721 12.1988,15.48483 39.2051,15.52394 43.2542,16.93256 z"
       id="path2985-2-8"
       inkscape:connector-curvature="0"
       sodipodi:nodetypes="csssscsc" />
    <path
       style="opacity:0.98999999;fill:url(#radialGradient2995-8-3);fill-opacity:1;stroke:none;stroke-width:0.75761443;marker-mid:url(#Arrow2Lend)"
       d="m 663.21162,259.2452 c 2.6567,0.35283 6.2742,0.28276 8.4498,-0.33762 2.2604,-0.64452 6.2523,-2.50305 7.7229,-4.76838 2.5888,-3.98789 5.0749,-7.44217 7.0612,-15.16435 1.5415,-5.99268 3.161,-14.99516 3.4082,-18.50145 0.611,-8.66473 -1.0757,-14.70294 -7.3955,-18.04738 -2.3452,-1.24103 -8.535,-3.00136 -14.612,-3.81662 -5.2695,-0.70694 -13.3142,-2.48796 -16.8449,-3.73331 -8.0406,-2.83616 -13.6583,-6.62417 -18.6179,-12.20827 -1.3527,-1.52305 -4.049,-3.75144 -5.459,-4.93525 -21.1653,-12.87913 -35.0248,-18.74012 -56.3262,-8.59111 -19.00544,9.05508 -20.65555,9.22233 -24.47191,11.49177 -3.81992,2.27156 -6.31102,4.24413 -8.21776,6.59445 -2.03283,2.50578 -2.73815,3.74332 -2.49178,6.23879 0.19881,2.01362 0.64584,4.91096 2.98294,8.11258 3.80974,5.21899 4.84402,6.42548 19.15856,17.45297 10.2723,7.91351 13.41623,10.34254 17.10817,13.56305 3.13244,2.73246 9.64368,4.25165 14.35628,5.18632 4.116,0.81636 5.2938,0.93865 13.5681,1.14536 14.7124,0.36755 23.5374,2.67548 39.3664,11.6497 8.5646,4.85567 13.0819,7.41082 18.6531,8.15074 z"
       id="path2987-2-7"
       inkscape:connector-curvature="0"
       sodipodi:nodetypes="cssssssssccssssssssscc" />
    <path
       style="opacity:0.98999999;fill:url(#radialGradient2995-86);fill-opacity:1;stroke:none;stroke-width:0.75761443;marker-mid:url(#Arrow2Lstart)"
       d="m 424.62031,288.82785 c -3.02221,-0.29337 -6.99606,-1.30031 -9.2374,-2.54397 -2.32856,-1.29206 -6.25606,-4.36877 -7.29663,-7.2464 -1.83183,-5.06581 -3.68753,-9.51641 -3.895,-18.54809 -0.16101,-7.00892 0.36544,-17.35908 0.99368,-21.29172 1.55249,-9.71832 4.96537,-15.9479 12.79857,-18.01435 2.90671,-0.76681 10.18939,-1.11864 17.10473,-0.45659 5.99651,0.57407 15.33133,0.67608 19.54729,0.20915 9.60141,-1.06337 16.77394,-3.7997 23.68173,-8.6871 1.88409,-1.33304 5.43197,-3.09914 7.29207,-4.04311 26.66505,-8.77277 36.67914,-17.57149 57.57669,-0.89829 17.93078,14.51891 13.06882,10.25549 16.69692,13.74049 3.6314,3.48825 20.01316,17.42711 21.51326,20.51062 1.5992,3.28746 2.0595,4.83431 1.1464,7.52468 -0.7369,2.1709 -1.9747,5.25317 -5.3764,8.18549 -5.5451,4.78001 -12.1418,8.44956 -30.77129,16.93961 -13.36886,6.0926 -15.09929,6.99562 -20.47387,8.38308 -5.1274,1.32364 -8.47888,1.79633 -13.91928,1.61669 -4.75178,-0.15691 -6.08285,-0.32463 -15.26647,-2.22285 -16.3292,-3.37519 -26.66044,-3.09628 -46.43357,2.73884 -10.69861,3.1572 -16.33994,4.8159 -22.67781,4.20069 z"
       id="path2987-8"
       inkscape:connector-curvature="0"
       sodipodi:nodetypes="cssssssssccssssssssscc" />
    <path
       style="opacity:0.98999999;fill:#ffffff;fill-opacity:1;stroke:#000000;stroke-width:1.20230889;stroke-linejoin:round;stroke-miterlimit:4;stroke-opacity:1;stroke-dasharray:none;stroke-dashoffset:0;marker-end:url(#Arrow1Mend)"
       d="m 618.49472,204.61465 33.6934,-46.23546"
       id="path2997-5-3"
       inkscape:connector-curvature="0"
       sodipodi:nodetypes="cc" />
    <path
       style="opacity:0.98999999;fill:#ffffff;fill-opacity:1;stroke:#000000;stroke-width:1.36222005;stroke-linejoin:round;stroke-miterlimit:4;stroke-opacity:1;stroke-dasharray:none;stroke-dashoffset:0;marker-end:url(#Arrow1Mend)"
       d="M 480.4669,235.92493 455.16853,176.24672"
       id="path2997-1"
       inkscape:connector-curvature="0"
       sodipodi:nodetypes="cc" />
  </g>
</svg>
