<?xml version="1.0" encoding="UTF-8"?>
<svg xmlns="http://www.w3.org/2000/svg" xmlns:xlink="http://www.w3.org/1999/xlink" width="280.799988pt" height="128pt" viewBox="0 0 280.799988 128" version="1.1">
<defs>
<clipPath id="clip1">
  <path d="M 260 7 L 280.800781 7 L 280.800781 28 L 260 28 Z M 260 7 "/>
</clipPath>
</defs>
<g id="surface1">
<path style="fill:none;stroke-width:1.749215;stroke-linecap:butt;stroke-linejoin:miter;stroke:rgb(0%,0%,0%);stroke-opacity:1;stroke-miterlimit:4;" d="M 0.875 0.875 L 252.335938 0.875 L 252.335938 127.101562 L 0.875 127.101562 Z M 0.875 0.875 "/>
<path style="fill:none;stroke-width:1.6;stroke-linecap:butt;stroke-linejoin:miter;stroke:rgb(0%,0%,0%);stroke-opacity:1;stroke-miterlimit:4;" d="M 134.398438 126.976562 L 196 1.375 "/>
<path style=" stroke:none;fill-rule:nonzero;fill:rgb(0%,0%,0%);fill-opacity:1;" d="M 92.566406 68.4375 L 92.453125 68.414062 L 92.339844 68.414062 L 92.230469 68.390625 L 92.140625 68.390625 L 92.050781 68.371094 L 91.960938 68.347656 L 91.894531 68.324219 L 91.804688 68.324219 L 91.738281 68.300781 L 91.671875 68.257812 L 91.605469 68.234375 L 91.558594 68.214844 L 91.492188 68.167969 L 91.445312 68.125 L 91.402344 68.078125 L 91.269531 67.945312 L 91.246094 67.878906 L 91.199219 67.808594 L 91.179688 67.742188 L 91.132812 67.652344 L 91.113281 67.585938 L 91.089844 67.496094 L 91.066406 67.386719 L 91.023438 67.296875 L 91 67.183594 L 90.976562 67.050781 L 90.953125 67.003906 L 90.953125 66.9375 L 90.933594 66.871094 L 90.933594 66.804688 L 90.910156 66.738281 L 90.910156 66.667969 L 90.886719 66.582031 L 90.867188 66.511719 L 88.785156 53.898438 L 88.203125 53.898438 L 81.738281 65.035156 C 79.972656 68.011719 79.746094 68.257812 78.851562 68.4375 L 78.851562 68.792969 L 83.035156 68.792969 L 83.035156 68.4375 C 81.894531 68.324219 81.714844 68.214844 81.714844 67.652344 C 81.714844 67.230469 81.785156 67.027344 82.164062 66.265625 L 83.4375 63.761719 L 88.335938 63.761719 L 88.226562 62.957031 L 83.910156 62.957031 L 87.242188 57.164062 L 88.226562 62.957031 L 88.335938 63.761719 L 88.785156 66.667969 C 88.808594 66.871094 88.828125 67.070312 88.828125 67.25 C 88.828125 68.101562 88.515625 68.300781 87.085938 68.4375 L 87.085938 68.792969 L 92.566406 68.792969 Z M 92.566406 68.4375 "/>
<path style=" stroke:none;fill-rule:nonzero;fill:rgb(0%,0%,0%);fill-opacity:1;" d="M 215.738281 68.4375 L 215.625 68.414062 L 215.515625 68.414062 L 215.402344 68.390625 L 215.3125 68.390625 L 215.222656 68.371094 L 215.132812 68.347656 L 215.066406 68.324219 L 214.976562 68.324219 L 214.910156 68.300781 L 214.84375 68.257812 L 214.777344 68.234375 L 214.730469 68.214844 L 214.664062 68.167969 L 214.441406 67.945312 L 214.417969 67.878906 L 214.375 67.808594 L 214.351562 67.742188 L 214.308594 67.652344 L 214.285156 67.585938 L 214.261719 67.496094 L 214.238281 67.386719 L 214.195312 67.296875 L 214.171875 67.183594 L 214.148438 67.050781 L 214.128906 67.003906 L 214.128906 66.9375 L 214.105469 66.871094 L 214.105469 66.804688 L 214.082031 66.738281 L 214.082031 66.667969 L 214.0625 66.582031 L 214.039062 66.511719 L 211.957031 53.898438 L 211.375 53.898438 L 204.910156 65.035156 C 203.144531 68.011719 202.921875 68.257812 202.027344 68.4375 L 202.027344 68.792969 L 206.210938 68.792969 L 206.210938 68.4375 C 205.066406 68.324219 204.890625 68.214844 204.890625 67.652344 C 204.890625 67.230469 204.957031 67.027344 205.335938 66.265625 L 206.613281 63.761719 L 211.511719 63.761719 L 211.398438 62.957031 L 207.082031 62.957031 L 210.414062 57.164062 L 211.398438 62.957031 L 211.511719 63.761719 L 211.957031 66.667969 C 211.980469 66.871094 212.003906 67.070312 212.003906 67.25 C 212.003906 68.101562 211.691406 68.300781 210.257812 68.4375 L 210.257812 68.792969 L 215.738281 68.792969 Z M 215.738281 68.4375 "/>
<path style=" stroke:none;fill-rule:nonzero;fill:rgb(0%,0%,0%);fill-opacity:1;" d="M 222.5625 58.953125 L 222.492188 59.042969 L 222.40625 59.132812 L 222.316406 59.21875 L 222.246094 59.289062 L 222.160156 59.378906 L 222.089844 59.445312 L 222 59.511719 L 221.933594 59.578125 L 221.84375 59.644531 L 221.777344 59.691406 L 221.710938 59.757812 L 221.644531 59.800781 L 221.554688 59.847656 L 221.488281 59.890625 L 221.421875 59.9375 L 221.351562 59.980469 L 221.285156 60.027344 L 221.21875 60.070312 L 221.152344 60.09375 L 221.0625 60.117188 L 220.996094 60.160156 L 220.929688 60.183594 L 220.859375 60.203125 L 220.792969 60.226562 L 220.726562 60.226562 L 220.660156 60.25 L 220.570312 60.273438 L 220.4375 60.273438 L 220.367188 60.292969 L 220.210938 60.292969 C 219.273438 60.292969 218.714844 59.578125 218.714844 58.414062 C 218.714844 57.007812 219.296875 55.550781 220.210938 54.566406 C 220.683594 54.074219 221.351562 53.785156 222 53.785156 C 222.359375 53.785156 222.628906 53.898438 222.628906 54.097656 C 222.628906 54.1875 222.582031 54.277344 222.515625 54.410156 C 222.40625 54.636719 222.359375 54.746094 222.359375 54.902344 C 222.359375 55.285156 222.628906 55.53125 223.007812 55.53125 C 223.457031 55.53125 223.8125 55.195312 223.8125 54.769531 C 223.8125 54.007812 223.054688 53.425781 222.070312 53.425781 C 219.609375 53.425781 217.28125 55.84375 217.28125 58.414062 C 217.28125 59.980469 218.175781 60.875 219.71875 60.875 C 220.929688 60.875 221.84375 60.363281 222.828125 59.109375 Z M 222.5625 58.953125 "/>
<g clip-path="url(#clip1)" clip-rule="nonzero">
<path style=" stroke:none;fill-rule:nonzero;fill:rgb(0%,0%,0%);fill-opacity:1;" d="M 268.589844 27.070312 L 268.082031 22.675781 C 265.871094 21.457031 264.480469 18.933594 264.480469 16.269531 C 264.480469 14.792969 264.90625 13.152344 265.613281 11.816406 C 266.636719 9.976562 268.335938 8.925781 270.265625 8.925781 C 272.191406 8.925781 273.863281 9.976562 274.882812 11.816406 C 275.621094 13.152344 276.046875 14.792969 276.046875 16.269531 C 276.046875 18.933594 274.628906 21.457031 272.445312 22.675781 L 271.9375 27.070312 L 280.15625 27.070312 L 280.15625 22.730469 L 279.503906 22.730469 C 279.308594 23.980469 278.683594 24.519531 277.550781 24.519531 L 273.410156 24.519531 L 273.496094 23.441406 C 274.488281 23.074219 275.082031 22.789062 275.761719 22.363281 C 277.917969 21.003906 279.222656 18.707031 279.222656 16.269531 C 279.222656 14.398438 278.398438 12.328125 277.039062 10.742188 C 275.308594 8.757812 272.929688 7.679688 270.265625 7.679688 C 267.570312 7.679688 265.21875 8.757812 263.488281 10.742188 C 262.128906 12.328125 261.304688 14.398438 261.304688 16.269531 C 261.304688 18.707031 262.609375 21.003906 264.734375 22.363281 C 265.386719 22.789062 265.984375 23.074219 267.003906 23.441406 L 267.089844 24.519531 L 262.976562 24.519531 C 261.84375 24.519531 261.222656 23.980469 261.023438 22.730469 L 260.34375 22.730469 L 260.34375 27.070312 Z M 268.589844 27.070312 "/>
</g>
</g>
</svg>
