<?xml version="1.0" encoding="UTF-8"?>
<svg xmlns="http://www.w3.org/2000/svg" xmlns:xlink="http://www.w3.org/1999/xlink" width="292.799988pt" height="105.599998pt" viewBox="0 0 292.799988 105.599998" version="1.1">
<defs>
<clipPath id="clip1">
  <path d="M 257 12 L 292.800781 12 L 292.800781 56 L 257 56 Z M 257 12 "/>
</clipPath>
<clipPath id="clip2">
  <path d="M 215 70 L 259 70 L 259 105.601562 L 215 105.601562 Z M 215 70 "/>
</clipPath>
</defs>
<g id="surface1">
<path style="fill:none;stroke-width:1.6;stroke-linecap:butt;stroke-linejoin:miter;stroke:rgb(0%,0%,0%);stroke-opacity:1;stroke-miterlimit:4;" d="M 26.1875 34.273438 C 26.1875 41.285156 20.503906 46.96875 13.492188 46.96875 C 6.484375 46.96875 0.800781 41.285156 0.800781 34.273438 C 0.800781 27.261719 6.484375 21.582031 13.492188 21.582031 C 20.503906 21.582031 26.1875 27.261719 26.1875 34.273438 Z M 26.1875 34.273438 "/>
<path style="fill:none;stroke-width:1.6;stroke-linecap:butt;stroke-linejoin:miter;stroke:rgb(0%,0%,0%);stroke-opacity:1;stroke-miterlimit:4;" d="M 110.554688 34.273438 C 110.554688 41.285156 104.871094 46.964844 97.859375 46.964844 C 90.851562 46.964844 85.167969 41.285156 85.167969 34.273438 C 85.167969 27.261719 90.851562 21.582031 97.859375 21.582031 C 104.871094 21.582031 110.554688 27.261719 110.554688 34.273438 Z M 110.554688 34.273438 "/>
<path style="fill:none;stroke-width:1.6;stroke-linecap:butt;stroke-linejoin:miter;stroke:rgb(0%,0%,0%);stroke-opacity:1;stroke-miterlimit:4;" d="M 30.425781 33.5 L 76.816406 33.433594 "/>
<path style="fill:none;stroke-width:0.894276;stroke-linecap:butt;stroke-linejoin:miter;stroke:rgb(0%,0%,0%);stroke-opacity:1;stroke-miterlimit:4;" d="M 76.375 33.535156 L 77.804688 33.535156 "/>
<path style="fill-rule:evenodd;fill:rgb(0%,0%,0%);fill-opacity:1;stroke-width:0.894276;stroke-linecap:butt;stroke-linejoin:miter;stroke:rgb(0%,0%,0%);stroke-opacity:1;stroke-miterlimit:4;" d="M 81.933594 33.535156 L 75.746094 37.113281 L 75.746094 29.957031 Z M 81.933594 33.535156 "/>
<path style="fill:none;stroke-width:0.913553;stroke-linecap:butt;stroke-linejoin:miter;stroke:rgb(0%,0%,0%);stroke-opacity:1;stroke-miterlimit:4;" d="M 86.636719 13.984375 L 87.816406 14.851562 "/>
<path style="fill-rule:evenodd;fill:rgb(0%,0%,0%);fill-opacity:1;stroke-width:0.735702;stroke-linecap:butt;stroke-linejoin:miter;stroke:rgb(0%,0%,0%);stroke-opacity:1;stroke-miterlimit:4;" d="M 67.438008 -32.293332 L 62.346849 -29.350132 L 62.345869 -35.236129 Z M 67.438008 -32.293332 " transform="matrix(1,0.736156,-0.736156,1,0,0)"/>
<path style="fill:none;stroke-width:0.928558;stroke-linecap:butt;stroke-linejoin:miter;stroke:rgb(0%,0%,0%);stroke-opacity:1;stroke-miterlimit:4;" d="M 22.339844 16.148438 L 22.175781 14.671875 "/>
<path style="fill-rule:evenodd;fill:rgb(0%,0%,0%);fill-opacity:1;stroke-width:0.922835;stroke-linecap:butt;stroke-linejoin:miter;stroke:rgb(0%,0%,0%);stroke-opacity:1;stroke-miterlimit:4;" d="M -12.67726 20.289002 L -19.06155 23.979191 L -19.062222 16.596304 Z M -12.67726 20.289002 " transform="matrix(-0.111548,-1,1,-0.111548,0,0)"/>
<path style="fill:none;stroke-width:1.38305;stroke-linecap:butt;stroke-linejoin:miter;stroke:rgb(0%,0%,0%);stroke-opacity:1;stroke-dasharray:2.7661,2.7661;stroke-miterlimit:4;" d="M 21.511719 15.453125 C 44.894531 -5.480469 66.929688 -2.898438 88.074219 15.335938 "/>
<path style="fill:none;stroke-width:1.6;stroke-linecap:butt;stroke-linejoin:miter;stroke:rgb(0%,0%,0%);stroke-opacity:1;stroke-miterlimit:4;" d="M 207.167969 34.097656 C 207.167969 41.105469 201.488281 46.789062 194.476562 46.789062 C 187.464844 46.789062 181.785156 41.105469 181.785156 34.097656 C 181.785156 27.085938 187.464844 21.402344 194.476562 21.402344 C 201.488281 21.402344 207.167969 27.085938 207.167969 34.097656 Z M 207.167969 34.097656 "/>
<g clip-path="url(#clip1)" clip-rule="nonzero">
<path style="fill:none;stroke-width:1.6;stroke-linecap:butt;stroke-linejoin:miter;stroke:rgb(0%,0%,0%);stroke-opacity:1;stroke-miterlimit:4;" d="M 291.535156 34.097656 C 291.535156 41.105469 285.855469 46.789062 278.84375 46.789062 C 271.832031 46.789062 266.152344 41.105469 266.152344 34.097656 C 266.152344 27.085938 271.832031 21.402344 278.84375 21.402344 C 285.855469 21.402344 291.535156 27.085938 291.535156 34.097656 Z M 291.535156 34.097656 "/>
</g>
<path style="fill:none;stroke-width:1.6;stroke-linecap:butt;stroke-linejoin:miter;stroke:rgb(0%,0%,0%);stroke-opacity:1;stroke-miterlimit:4;" d="M 247.035156 80.410156 L 269.722656 51.988281 "/>
<path style="fill:none;stroke-width:0.887604;stroke-linecap:butt;stroke-linejoin:miter;stroke:rgb(0%,0%,0%);stroke-opacity:1;stroke-miterlimit:4;" d="M 268.777344 53.183594 L 269.65625 52.085938 "/>
<path style="fill-rule:evenodd;fill:rgb(0%,0%,0%);fill-opacity:1;stroke-width:0.692832;stroke-linecap:butt;stroke-linejoin:miter;stroke:rgb(0%,0%,0%);stroke-opacity:1;stroke-miterlimit:4;" d="M 103.032927 189.710085 L 98.238129 192.483348 L 98.239715 186.93911 Z M 103.032927 189.710085 " transform="matrix(0.800799,-1,1,0.800799,0,0)"/>
<g clip-path="url(#clip2)" clip-rule="nonzero">
<path style="fill:none;stroke-width:1.6;stroke-linecap:butt;stroke-linejoin:miter;stroke:rgb(0%,0%,0%);stroke-opacity:1;stroke-miterlimit:4;" d="M 249.621094 92.039062 C 249.621094 99.050781 243.9375 104.734375 236.925781 104.734375 C 229.917969 104.734375 224.234375 99.050781 224.234375 92.039062 C 224.234375 85.03125 229.917969 79.347656 236.925781 79.347656 C 243.9375 79.347656 249.621094 85.03125 249.621094 92.039062 Z M 249.621094 92.039062 "/>
</g>
<path style="fill:none;stroke-width:1.6;stroke-linecap:butt;stroke-linejoin:miter;stroke:rgb(0%,0%,0%);stroke-opacity:1;stroke-miterlimit:4;" d="M 225.875 80.410156 L 203.1875 51.988281 "/>
<path style="fill:none;stroke-width:0.887604;stroke-linecap:butt;stroke-linejoin:miter;stroke:rgb(0%,0%,0%);stroke-opacity:1;stroke-miterlimit:4;" d="M 204.128906 53.183594 L 203.253906 52.085938 "/>
<path style="fill-rule:evenodd;fill:rgb(0%,0%,0%);fill-opacity:1;stroke-width:0.692832;stroke-linecap:butt;stroke-linejoin:miter;stroke:rgb(0%,0%,0%);stroke-opacity:1;stroke-miterlimit:4;" d="M -127.7054 98.42505 L -132.500993 101.194119 L -132.500198 95.651786 Z M -127.7054 98.42505 " transform="matrix(-0.800799,-1,1,-0.800799,0,0)"/>
<path style="fill:none;stroke-width:0.913553;stroke-linecap:butt;stroke-linejoin:miter;stroke:rgb(0%,0%,0%);stroke-opacity:1;stroke-miterlimit:4;" d="M 268.867188 14.320312 L 270.046875 15.1875 "/>
<path style="fill-rule:evenodd;fill:rgb(0%,0%,0%);fill-opacity:1;stroke-width:0.735702;stroke-linecap:butt;stroke-linejoin:miter;stroke:rgb(0%,0%,0%);stroke-opacity:1;stroke-miterlimit:4;" d="M 185.782086 -119.077098 L 180.690928 -116.133898 L 180.689947 -122.019895 Z M 185.782086 -119.077098 " transform="matrix(1,0.736156,-0.736156,1,0,0)"/>
<path style="fill:none;stroke-width:0.928558;stroke-linecap:butt;stroke-linejoin:miter;stroke:rgb(0%,0%,0%);stroke-opacity:1;stroke-miterlimit:4;" d="M 204.570312 16.484375 L 204.40625 15.007812 "/>
<path style="fill-rule:evenodd;fill:rgb(0%,0%,0%);fill-opacity:1;stroke-width:0.922835;stroke-linecap:butt;stroke-linejoin:miter;stroke:rgb(0%,0%,0%);stroke-opacity:1;stroke-miterlimit:4;" d="M -33.086688 200.24284 L -39.470978 203.933029 L -39.47165 196.550141 Z M -33.086688 200.24284 " transform="matrix(-0.111548,-1,1,-0.111548,0,0)"/>
<path style="fill:none;stroke-width:1.38305;stroke-linecap:butt;stroke-linejoin:miter;stroke:rgb(0%,0%,0%);stroke-opacity:1;stroke-dasharray:2.7661,2.7661;stroke-miterlimit:4;" d="M 203.742188 15.789062 C 227.125 -5.144531 249.160156 -2.566406 270.304688 15.671875 "/>
<path style=" stroke:none;fill-rule:nonzero;fill:rgb(0%,0%,0%);fill-opacity:1;" d="M 198.449219 36.386719 L 198.402344 36.429688 L 198.378906 36.453125 L 198.359375 36.5 L 198.3125 36.519531 L 198.292969 36.566406 L 198.269531 36.585938 L 198.222656 36.632812 L 198.203125 36.65625 L 198.179688 36.699219 L 198.15625 36.746094 L 198.113281 36.765625 L 198.089844 36.8125 L 198.066406 36.832031 L 198.046875 36.855469 L 198.046875 36.878906 L 198.023438 36.902344 L 198 36.921875 L 197.976562 36.945312 L 197.976562 36.96875 L 197.957031 36.992188 C 197.441406 37.660156 197.171875 37.886719 196.925781 37.886719 C 196.589844 37.886719 196.390625 37.59375 196.234375 36.96875 C 196.1875 36.789062 196.167969 36.65625 196.144531 36.585938 C 195.585938 34.328125 195.339844 33.320312 195.339844 32.988281 C 196.324219 31.265625 197.128906 30.28125 197.53125 30.28125 C 197.664062 30.28125 197.84375 30.347656 198.066406 30.457031 C 198.335938 30.617188 198.492188 30.660156 198.671875 30.660156 C 199.140625 30.660156 199.453125 30.324219 199.453125 29.855469 C 199.453125 29.386719 199.074219 29.027344 198.539062 29.027344 C 197.554688 29.027344 196.703125 29.832031 195.160156 32.226562 L 194.914062 30.996094 C 194.601562 29.472656 194.355469 29.027344 193.773438 29.027344 C 193.28125 29.027344 192.519531 29.226562 191.15625 29.675781 L 190.910156 29.765625 L 191 30.101562 C 191.847656 29.898438 192.050781 29.855469 192.25 29.855469 C 192.8125 29.855469 192.945312 30.054688 193.257812 31.398438 L 193.882812 34.148438 L 192.074219 36.746094 C 191.625 37.414062 191.179688 37.816406 190.933594 37.816406 C 190.796875 37.816406 190.574219 37.75 190.351562 37.617188 C 190.058594 37.460938 189.8125 37.394531 189.632812 37.394531 C 189.210938 37.394531 188.875 37.730469 188.875 38.175781 C 188.875 38.757812 189.320312 39.117188 189.992188 39.117188 C 190.6875 39.117188 190.953125 38.914062 192.074219 37.550781 C 192.675781 36.832031 193.144531 36.230469 194.085938 34.933594 L 194.734375 37.617188 C 195.023438 38.757812 195.316406 39.117188 196.03125 39.117188 C 196.882812 39.117188 197.464844 38.578125 198.761719 36.566406 Z M 198.449219 36.386719 "/>
<path style=" stroke:none;fill-rule:nonzero;fill:rgb(0%,0%,0%);fill-opacity:1;" d="M 17.464844 36.402344 L 17.398438 36.46875 L 17.375 36.515625 L 17.328125 36.539062 L 17.308594 36.582031 L 17.21875 36.671875 L 17.195312 36.714844 L 17.171875 36.761719 L 17.128906 36.785156 L 17.105469 36.828125 L 17.085938 36.851562 L 17.0625 36.875 L 17.0625 36.894531 L 16.996094 36.960938 L 16.996094 36.984375 L 16.972656 37.007812 C 16.457031 37.679688 16.1875 37.902344 15.941406 37.902344 C 15.609375 37.902344 15.40625 37.613281 15.25 36.984375 C 15.203125 36.804688 15.183594 36.671875 15.160156 36.605469 C 14.601562 34.34375 14.355469 33.339844 14.355469 33.003906 C 15.339844 31.28125 16.144531 30.296875 16.546875 30.296875 C 16.679688 30.296875 16.859375 30.363281 17.085938 30.476562 C 17.351562 30.632812 17.507812 30.675781 17.6875 30.675781 C 18.15625 30.675781 18.472656 30.339844 18.472656 29.871094 C 18.472656 29.402344 18.089844 29.042969 17.554688 29.042969 C 16.570312 29.042969 15.71875 29.847656 14.175781 32.242188 L 13.929688 31.011719 C 13.617188 29.492188 13.371094 29.042969 12.789062 29.042969 C 12.296875 29.042969 11.535156 29.246094 10.171875 29.691406 L 9.925781 29.78125 L 10.015625 30.117188 C 10.867188 29.917969 11.066406 29.871094 11.269531 29.871094 C 11.828125 29.871094 11.960938 30.074219 12.273438 31.414062 L 12.902344 34.167969 L 11.089844 36.761719 C 10.640625 37.433594 10.195312 37.835938 9.949219 37.835938 C 9.8125 37.835938 9.589844 37.769531 9.367188 37.632812 C 9.074219 37.476562 8.828125 37.410156 8.652344 37.410156 C 8.226562 37.410156 7.890625 37.746094 7.890625 38.191406 C 7.890625 38.773438 8.335938 39.132812 9.007812 39.132812 C 9.703125 39.132812 9.96875 38.929688 11.089844 37.566406 C 11.691406 36.851562 12.164062 36.246094 13.101562 34.949219 L 13.75 37.632812 C 14.042969 38.773438 14.332031 39.132812 15.046875 39.132812 C 15.898438 39.132812 16.480469 38.597656 17.777344 36.582031 Z M 17.464844 36.402344 "/>
<path style=" stroke:none;fill-rule:nonzero;fill:rgb(0%,0%,0%);fill-opacity:1;" d="M 93.917969 27.882812 L 93.984375 27.882812 L 94.007812 27.859375 L 94.097656 27.859375 L 94.117188 27.835938 L 94.207031 27.835938 L 94.253906 27.8125 L 94.429688 27.8125 L 94.476562 27.792969 L 94.609375 27.792969 C 95.886719 27.792969 96.222656 28.351562 97.25 32.199219 C 97.628906 33.628906 98.167969 36.246094 98.167969 36.628906 C 98.167969 36.984375 98.011719 37.34375 97.699219 37.746094 C 97.003906 38.640625 96.554688 39.222656 96.308594 39.492188 C 95.839844 39.984375 95.570312 40.160156 95.28125 40.160156 C 95.148438 40.160156 94.992188 40.09375 94.746094 39.914062 C 94.410156 39.648438 94.164062 39.535156 93.917969 39.535156 C 93.425781 39.535156 93.042969 39.914062 93.042969 40.40625 C 93.042969 40.96875 93.535156 41.390625 94.183594 41.390625 C 95.617188 41.390625 98.523438 38.035156 100.941406 33.628906 C 102.460938 30.902344 103.089844 29.289062 103.089844 28.195312 C 103.089844 27.523438 102.527344 26.964844 101.859375 26.964844 C 101.34375 26.964844 100.984375 27.300781 100.984375 27.792969 C 100.984375 28.125 101.164062 28.371094 101.613281 28.664062 C 102.035156 28.910156 102.195312 29.109375 102.195312 29.425781 C 102.195312 30.320312 101.367188 32.0625 99.464844 35.195312 L 99.015625 32.625 C 98.679688 30.65625 97.453125 26.964844 97.117188 26.964844 L 97.027344 26.964844 C 97.003906 26.984375 96.914062 26.984375 96.824219 26.984375 C 96.625 27.007812 95.816406 27.144531 94.632812 27.367188 C 94.519531 27.390625 94.230469 27.457031 93.917969 27.5 Z M 93.917969 27.882812 "/>
<path style=" stroke:none;fill-rule:nonzero;fill:rgb(0%,0%,0%);fill-opacity:1;" d="M 275.058594 28.105469 L 275.128906 28.105469 L 275.148438 28.082031 L 275.238281 28.082031 L 275.261719 28.058594 L 275.351562 28.058594 L 275.394531 28.035156 L 275.574219 28.035156 L 275.621094 28.015625 L 275.753906 28.015625 C 277.027344 28.015625 277.363281 28.574219 278.394531 32.421875 C 278.773438 33.851562 279.3125 36.46875 279.3125 36.851562 C 279.3125 37.207031 279.152344 37.566406 278.839844 37.96875 C 278.148438 38.863281 277.699219 39.445312 277.453125 39.714844 C 276.984375 40.207031 276.714844 40.386719 276.425781 40.386719 C 276.289062 40.386719 276.132812 40.316406 275.886719 40.140625 C 275.550781 39.871094 275.304688 39.757812 275.058594 39.757812 C 274.570312 39.757812 274.1875 40.140625 274.1875 40.628906 C 274.1875 41.191406 274.679688 41.613281 275.328125 41.613281 C 276.761719 41.613281 279.667969 38.257812 282.085938 33.851562 C 283.605469 31.125 284.230469 29.511719 284.230469 28.417969 C 284.230469 27.746094 283.671875 27.1875 283 27.1875 C 282.488281 27.1875 282.128906 27.523438 282.128906 28.015625 C 282.128906 28.351562 282.308594 28.597656 282.753906 28.886719 C 283.179688 29.132812 283.335938 29.335938 283.335938 29.648438 C 283.335938 30.542969 282.507812 32.289062 280.609375 35.417969 L 280.160156 32.847656 C 279.824219 30.878906 278.59375 27.1875 278.257812 27.1875 L 278.167969 27.1875 C 278.148438 27.210938 278.058594 27.210938 277.96875 27.210938 C 277.765625 27.230469 276.960938 27.367188 275.777344 27.589844 C 275.664062 27.613281 275.375 27.679688 275.058594 27.722656 Z M 275.058594 28.105469 "/>
<path style=" stroke:none;fill-rule:nonzero;fill:rgb(0%,0%,0%);fill-opacity:1;" d="M 234.566406 89.390625 L 234.613281 89.277344 L 234.699219 89.097656 L 234.722656 89.007812 L 234.769531 88.917969 L 234.8125 88.851562 L 234.859375 88.785156 L 234.945312 88.652344 L 234.96875 88.585938 L 235.015625 88.539062 L 235.058594 88.472656 L 235.101562 88.425781 L 235.148438 88.382812 L 235.191406 88.339844 L 235.261719 88.316406 L 235.304688 88.269531 L 235.347656 88.25 L 235.417969 88.226562 L 235.460938 88.203125 L 235.527344 88.179688 L 235.574219 88.160156 L 235.707031 88.113281 L 235.773438 88.113281 L 235.863281 88.09375 L 236.019531 88.09375 L 236.085938 88.070312 L 239.621094 88.070312 L 232.710938 96.367188 L 232.910156 96.570312 C 233.269531 96.277344 233.558594 96.167969 233.941406 96.167969 C 234.476562 96.167969 235.214844 96.457031 236.265625 97.105469 C 237.363281 97.777344 238.125 98.070312 238.75 98.070312 C 239.867188 98.070312 240.851562 97.285156 240.851562 96.390625 C 240.851562 95.921875 240.539062 95.585938 240.070312 95.585938 C 239.621094 95.585938 239.308594 95.875 239.308594 96.277344 C 239.308594 96.480469 239.375 96.703125 239.511719 96.949219 C 239.578125 97.085938 239.621094 97.21875 239.621094 97.285156 C 239.621094 97.464844 239.375 97.597656 239.019531 97.597656 C 238.457031 97.597656 238.191406 97.441406 237.476562 96.503906 C 236.492188 95.226562 236.066406 94.9375 234.769531 94.644531 L 241.234375 86.972656 L 241.234375 86.726562 L 234.902344 86.726562 L 234.207031 89.300781 Z M 234.566406 89.390625 "/>
</g>
</svg>
