<?xml version="1.0" encoding="UTF-8"?>
<svg xmlns="http://www.w3.org/2000/svg" xmlns:xlink="http://www.w3.org/1999/xlink" width="604pt" height="156.800003pt" viewBox="0 0 604 156.800003" version="1.1">
<defs>
<clipPath id="clip1">
  <path d="M 431 141 L 446 141 L 446 156.800781 L 431 156.800781 Z M 431 141 "/>
</clipPath>
<clipPath id="clip2">
  <path d="M 448 142 L 461 142 L 461 156.800781 L 448 156.800781 Z M 448 142 "/>
</clipPath>
<clipPath id="clip3">
  <path d="M 462 141 L 476 141 L 476 156.800781 L 462 156.800781 Z M 462 141 "/>
</clipPath>
<clipPath id="clip4">
  <path d="M 103 141 L 118 141 L 118 156.800781 L 103 156.800781 Z M 103 141 "/>
</clipPath>
<clipPath id="clip5">
  <path d="M 120 142 L 133 142 L 133 156.800781 L 120 156.800781 Z M 120 142 "/>
</clipPath>
<clipPath id="clip6">
  <path d="M 134 141 L 148 141 L 148 156.800781 L 134 156.800781 Z M 134 141 "/>
</clipPath>
</defs>
<g id="surface1">
<g clip-path="url(#clip1)" clip-rule="nonzero">
<path style=" stroke:none;fill-rule:nonzero;fill:rgb(0%,0%,0%);fill-opacity:1;" d="M 445.621094 155.808594 L 445.511719 155.789062 L 445.398438 155.789062 L 445.285156 155.765625 L 445.199219 155.765625 L 445.019531 155.71875 L 444.953125 155.699219 L 444.863281 155.699219 L 444.792969 155.675781 L 444.726562 155.628906 L 444.660156 155.609375 L 444.617188 155.585938 L 444.546875 155.542969 L 444.503906 155.496094 L 444.324219 155.316406 L 444.300781 155.25 L 444.257812 155.183594 L 444.234375 155.117188 L 444.191406 155.027344 L 444.167969 154.960938 L 444.144531 154.871094 L 444.125 154.757812 L 444.078125 154.667969 L 444.054688 154.558594 L 444.035156 154.421875 L 444.011719 154.378906 L 444.011719 154.3125 L 443.988281 154.242188 L 443.988281 154.175781 L 443.96875 154.109375 L 443.96875 154.042969 L 443.945312 153.953125 L 443.921875 153.886719 L 441.84375 141.269531 L 441.261719 141.269531 L 434.796875 152.410156 C 433.027344 155.382812 432.804688 155.628906 431.910156 155.808594 L 431.910156 156.167969 L 436.09375 156.167969 L 436.09375 155.808594 C 434.953125 155.699219 434.773438 155.585938 434.773438 155.027344 C 434.773438 154.601562 434.839844 154.402344 435.222656 153.640625 L 436.496094 151.132812 L 441.394531 151.132812 L 441.28125 150.328125 L 436.964844 150.328125 L 440.296875 144.535156 L 441.28125 150.328125 L 441.394531 151.132812 L 441.84375 154.042969 C 441.863281 154.242188 441.886719 154.445312 441.886719 154.625 C 441.886719 155.472656 441.574219 155.675781 440.140625 155.808594 L 440.140625 156.167969 L 445.621094 156.167969 Z M 445.621094 155.808594 "/>
</g>
<g clip-path="url(#clip2)" clip-rule="nonzero">
<path style=" stroke:none;fill-rule:nonzero;fill:rgb(0%,0%,0%);fill-opacity:1;" d="M 460.902344 147.691406 L 460.902344 147.375 L 460.855469 147.085938 L 460.8125 146.796875 L 460.742188 146.503906 L 460.675781 146.234375 L 460.566406 145.988281 L 460.453125 145.742188 L 460.320312 145.496094 L 460.183594 145.273438 L 460.027344 145.074219 L 459.847656 144.871094 L 459.671875 144.667969 L 459.492188 144.492188 L 459.289062 144.3125 L 458.84375 144 L 458.617188 143.84375 L 458.371094 143.707031 L 458.125 143.597656 L 457.632812 143.371094 L 457.367188 143.28125 L 457.121094 143.195312 L 456.851562 143.125 L 456.582031 143.058594 L 456.316406 142.992188 L 456.046875 142.949219 L 455.777344 142.902344 L 455.507812 142.878906 L 455.242188 142.859375 L 454.972656 142.835938 L 454.703125 142.835938 C 451.820312 142.835938 448.507812 144.402344 448.507812 147.667969 L 448.507812 155.855469 C 448.507812 156.257812 448.507812 156.660156 448.957031 156.660156 C 449.402344 156.660156 449.402344 156.257812 449.402344 155.855469 L 449.402344 147.777344 C 449.402344 144.445312 453.027344 143.730469 454.703125 143.730469 C 455.710938 143.730469 457.121094 143.933594 458.285156 144.691406 C 460.007812 145.765625 460.007812 147.199219 460.007812 147.800781 L 460.007812 155.855469 C 460.007812 156.257812 460.007812 156.660156 460.453125 156.660156 C 460.902344 156.660156 460.902344 156.257812 460.902344 155.855469 Z M 460.902344 147.691406 "/>
</g>
<g clip-path="url(#clip3)" clip-rule="nonzero">
<path style=" stroke:none;fill-rule:nonzero;fill:rgb(0%,0%,0%);fill-opacity:1;" d="M 462.578125 156.167969 L 468.863281 156.167969 C 472.355469 156.167969 474.769531 154.332031 474.769531 151.714844 C 474.769531 150.886719 474.5 150.105469 474.007812 149.613281 C 473.5625 149.097656 473.113281 148.832031 471.949219 148.339844 C 473.539062 147.957031 474.1875 147.691406 474.902344 147.0625 C 475.53125 146.527344 475.867188 145.765625 475.867188 144.894531 C 475.867188 142.769531 474.277344 141.605469 471.390625 141.605469 L 470.988281 142.277344 C 472.777344 142.277344 473.605469 143.035156 473.605469 144.691406 C 473.605469 145.96875 473.070312 146.929688 472.109375 147.464844 C 471.347656 147.914062 470.273438 148.070312 468.28125 148.070312 L 468.058594 148.785156 C 469.511719 148.785156 470.453125 148.875 470.878906 149.054688 C 471.792969 149.433594 472.355469 150.417969 472.355469 151.605469 C 472.355469 154.019531 470.699219 155.496094 467.992188 155.496094 C 467.050781 155.496094 466.558594 155.160156 466.558594 154.558594 C 466.558594 154.289062 466.828125 153.214844 467.34375 151.449219 C 467.632812 150.441406 467.769531 149.925781 468.058594 148.785156 L 468.28125 148.070312 L 469.738281 142.902344 C 469.871094 142.410156 470.140625 142.277344 470.988281 142.277344 L 471.390625 141.605469 L 465.644531 141.605469 L 465.644531 141.964844 C 467.03125 142.074219 467.367188 142.253906 467.367188 142.878906 C 467.367188 143.214844 467.277344 143.773438 467.121094 144.3125 L 464.367188 154.15625 C 463.988281 155.453125 463.832031 155.585938 462.578125 155.808594 Z M 462.578125 156.167969 "/>
</g>
<path style="fill:none;stroke-width:1.749215;stroke-linecap:butt;stroke-linejoin:miter;stroke:rgb(0%,0%,0%);stroke-opacity:1;stroke-miterlimit:4;" d="M 0.875 0.875 L 252.335938 0.875 L 252.335938 127.101562 L 0.875 127.101562 Z M 0.875 0.875 "/>
<path style=" stroke:none;fill-rule:nonzero;fill:rgb(0%,0%,0%);fill-opacity:1;" d="M 59.367188 37.238281 L 59.253906 37.214844 L 59.140625 37.214844 L 59.03125 37.191406 L 58.941406 37.191406 L 58.851562 37.167969 L 58.761719 37.148438 L 58.695312 37.125 L 58.605469 37.125 L 58.539062 37.101562 L 58.46875 37.058594 L 58.402344 37.035156 L 58.359375 37.011719 L 58.292969 36.96875 L 58.203125 36.878906 L 58.15625 36.835938 L 58.113281 36.789062 L 58.066406 36.746094 L 58.046875 36.675781 L 58 36.609375 L 57.980469 36.542969 L 57.933594 36.453125 L 57.910156 36.386719 L 57.890625 36.296875 L 57.867188 36.1875 L 57.820312 36.097656 L 57.800781 35.984375 L 57.777344 35.851562 L 57.753906 35.804688 L 57.753906 35.738281 L 57.734375 35.671875 L 57.734375 35.605469 L 57.710938 35.535156 L 57.710938 35.46875 L 57.6875 35.378906 L 57.664062 35.3125 L 55.585938 22.695312 L 55.003906 22.695312 L 48.539062 33.835938 C 46.773438 36.8125 46.546875 37.058594 45.652344 37.238281 L 45.652344 37.59375 L 49.835938 37.59375 L 49.835938 37.238281 C 48.695312 37.125 48.515625 37.011719 48.515625 36.453125 C 48.515625 36.027344 48.582031 35.828125 48.964844 35.066406 L 50.238281 32.5625 L 55.136719 32.5625 L 55.027344 31.757812 L 50.707031 31.757812 L 54.042969 25.960938 L 55.027344 31.757812 L 55.136719 32.5625 L 55.585938 35.46875 C 55.605469 35.671875 55.628906 35.871094 55.628906 36.050781 C 55.628906 36.902344 55.316406 37.101562 53.886719 37.238281 L 53.886719 37.59375 L 59.367188 37.59375 Z M 59.367188 37.238281 "/>
<path style=" stroke:none;fill-rule:nonzero;fill:rgb(0%,0%,0%);fill-opacity:1;" d="M 196.144531 37.59375 L 202.191406 37.59375 C 205.570312 37.59375 207.871094 35.832031 207.871094 33.3125 C 207.871094 32.515625 207.613281 31.761719 207.140625 31.289062 C 206.710938 30.792969 206.300781 30.535156 205.179688 30.0625 C 206.6875 29.695312 207.3125 29.4375 208 28.835938 C 208.601562 28.320312 208.925781 27.589844 208.925781 26.75 C 208.925781 24.703125 207.398438 23.585938 204.644531 23.585938 L 204.257812 24.230469 C 205.976562 24.230469 206.753906 24.960938 206.753906 26.554688 C 206.753906 27.78125 206.234375 28.707031 205.332031 29.222656 C 204.601562 29.652344 203.566406 29.804688 201.628906 29.804688 L 201.414062 30.492188 C 202.8125 30.492188 203.71875 30.578125 204.148438 30.75 C 205.03125 31.117188 205.570312 32.0625 205.570312 33.203125 C 205.570312 35.527344 203.976562 36.949219 201.351562 36.949219 C 200.445312 36.949219 199.996094 36.625 199.996094 36.046875 C 199.996094 35.789062 200.253906 34.753906 200.75 33.054688 C 201.007812 32.085938 201.136719 31.589844 201.414062 30.492188 L 201.628906 29.804688 L 203.03125 24.832031 C 203.160156 24.359375 203.417969 24.230469 204.257812 24.230469 L 204.644531 23.585938 L 199.113281 23.585938 L 199.113281 23.929688 C 200.445312 24.039062 200.75 24.210938 200.75 24.8125 C 200.75 25.132812 200.683594 25.671875 200.511719 26.1875 L 197.886719 35.65625 C 197.5 36.90625 197.347656 37.035156 196.144531 37.25 Z M 196.144531 37.59375 "/>
<path style=" stroke:none;fill-rule:nonzero;fill:rgb(0%,0%,0%);fill-opacity:1;" d="M 268.589844 27.070312 L 268.082031 22.675781 C 265.871094 21.457031 264.480469 18.933594 264.480469 16.269531 C 264.480469 14.796875 264.90625 13.152344 265.613281 11.820312 C 266.636719 9.976562 268.335938 8.925781 270.265625 8.925781 C 272.191406 8.925781 273.863281 9.976562 274.882812 11.820312 C 275.621094 13.152344 276.046875 14.796875 276.046875 16.269531 C 276.046875 18.933594 274.628906 21.457031 272.445312 22.675781 L 271.9375 27.070312 L 280.15625 27.070312 L 280.15625 22.734375 L 279.503906 22.734375 C 279.308594 23.980469 278.683594 24.519531 277.550781 24.519531 L 273.410156 24.519531 L 273.496094 23.441406 C 274.488281 23.074219 275.082031 22.789062 275.761719 22.363281 C 277.917969 21.003906 279.222656 18.707031 279.222656 16.269531 C 279.222656 14.398438 278.398438 12.328125 277.039062 10.742188 C 275.308594 8.757812 272.929688 7.679688 270.265625 7.679688 C 267.570312 7.679688 265.21875 8.757812 263.488281 10.742188 C 262.128906 12.328125 261.304688 14.398438 261.304688 16.269531 C 261.304688 18.707031 262.609375 21.003906 264.734375 22.363281 C 265.386719 22.789062 265.984375 23.074219 267.003906 23.441406 L 267.089844 24.519531 L 262.976562 24.519531 C 261.84375 24.519531 261.222656 23.980469 261.023438 22.734375 L 260.34375 22.734375 L 260.34375 27.070312 Z M 268.589844 27.070312 "/>
<path style="fill:none;stroke-width:1.749215;stroke-linecap:butt;stroke-linejoin:miter;stroke:rgb(0%,0%,0%);stroke-opacity:1;stroke-miterlimit:4;" d="M 324.074219 0.875 L 575.539062 0.875 L 575.539062 127.101562 L 324.074219 127.101562 Z M 324.074219 0.875 "/>
<path style=" stroke:none;fill-rule:nonzero;fill:rgb(0%,0%,0%);fill-opacity:1;" d="M 382.566406 37.238281 L 382.453125 37.214844 L 382.339844 37.214844 L 382.230469 37.191406 L 382.140625 37.191406 L 382.050781 37.167969 L 381.960938 37.148438 L 381.894531 37.125 L 381.804688 37.125 L 381.738281 37.101562 L 381.671875 37.058594 L 381.605469 37.035156 L 381.558594 37.011719 L 381.492188 36.96875 L 381.269531 36.746094 L 381.246094 36.675781 L 381.199219 36.609375 L 381.179688 36.542969 L 381.132812 36.453125 L 381.113281 36.386719 L 381.089844 36.296875 L 381.066406 36.183594 L 381.023438 36.097656 L 381 35.984375 L 380.976562 35.851562 L 380.953125 35.804688 L 380.953125 35.738281 L 380.933594 35.671875 L 380.933594 35.605469 L 380.910156 35.535156 L 380.910156 35.46875 L 380.886719 35.378906 L 380.867188 35.3125 L 378.785156 22.695312 L 378.203125 22.695312 L 371.738281 33.835938 C 369.972656 36.8125 369.746094 37.058594 368.851562 37.238281 L 368.851562 37.59375 L 373.035156 37.59375 L 373.035156 37.238281 C 371.894531 37.125 371.714844 37.011719 371.714844 36.453125 C 371.714844 36.027344 371.785156 35.828125 372.164062 35.066406 L 373.4375 32.5625 L 378.335938 32.5625 L 378.226562 31.757812 L 373.910156 31.757812 L 377.242188 25.960938 L 378.226562 31.757812 L 378.335938 32.5625 L 378.785156 35.46875 C 378.808594 35.671875 378.828125 35.871094 378.828125 36.050781 C 378.828125 36.902344 378.515625 37.101562 377.085938 37.238281 L 377.085938 37.59375 L 382.566406 37.59375 Z M 382.566406 37.238281 "/>
<path style=" stroke:none;fill-rule:nonzero;fill:rgb(0%,0%,0%);fill-opacity:1;" d="M 519.34375 37.59375 L 525.390625 37.59375 C 528.769531 37.59375 531.070312 35.832031 531.070312 33.3125 C 531.070312 32.515625 530.8125 31.761719 530.339844 31.289062 C 529.910156 30.792969 529.5 30.535156 528.382812 30.0625 C 529.886719 29.695312 530.511719 29.4375 531.199219 28.835938 C 531.804688 28.320312 532.125 27.589844 532.125 26.75 C 532.125 24.703125 530.597656 23.585938 527.84375 23.585938 L 527.457031 24.230469 C 529.179688 24.230469 529.953125 24.960938 529.953125 26.554688 C 529.953125 27.78125 529.4375 28.707031 528.53125 29.222656 C 527.800781 29.652344 526.765625 29.804688 524.832031 29.804688 L 524.617188 30.492188 C 526.015625 30.492188 526.917969 30.578125 527.347656 30.75 C 528.230469 31.117188 528.769531 32.0625 528.769531 33.203125 C 528.769531 35.527344 527.175781 36.949219 524.550781 36.949219 C 523.648438 36.949219 523.195312 36.625 523.195312 36.046875 C 523.195312 35.785156 523.453125 34.753906 523.949219 33.054688 C 524.207031 32.085938 524.335938 31.589844 524.617188 30.492188 L 524.832031 29.804688 L 526.230469 24.832031 C 526.359375 24.359375 526.617188 24.230469 527.457031 24.230469 L 527.84375 23.585938 L 522.3125 23.585938 L 522.3125 23.929688 C 523.648438 24.035156 523.949219 24.210938 523.949219 24.8125 C 523.949219 25.132812 523.882812 25.671875 523.710938 26.1875 L 521.085938 35.65625 C 520.699219 36.90625 520.546875 37.035156 519.34375 37.25 Z M 519.34375 37.59375 "/>
<path style=" stroke:none;fill-rule:nonzero;fill:rgb(0%,0%,0%);fill-opacity:1;" d="M 591.792969 27.070312 L 591.28125 22.675781 C 589.070312 21.457031 587.679688 18.933594 587.679688 16.269531 C 587.679688 14.796875 588.105469 13.152344 588.816406 11.820312 C 589.835938 9.976562 591.535156 8.925781 593.464844 8.925781 C 595.390625 8.925781 597.0625 9.976562 598.085938 11.820312 C 598.820312 13.152344 599.246094 14.796875 599.246094 16.269531 C 599.246094 18.933594 597.828125 21.457031 595.648438 22.675781 L 595.136719 27.070312 L 603.355469 27.070312 L 603.355469 22.734375 L 602.707031 22.734375 C 602.507812 23.980469 601.882812 24.519531 600.75 24.519531 L 596.609375 24.519531 L 596.695312 23.441406 C 597.6875 23.074219 598.28125 22.789062 598.964844 22.363281 C 601.117188 21.003906 602.421875 18.707031 602.421875 16.269531 C 602.421875 14.398438 601.601562 12.328125 600.238281 10.742188 C 598.507812 8.757812 596.128906 7.679688 593.464844 7.679688 C 590.769531 7.679688 588.417969 8.757812 586.6875 10.742188 C 585.328125 12.328125 584.503906 14.398438 584.503906 16.269531 C 584.503906 18.707031 585.808594 21.003906 587.9375 22.363281 C 588.589844 22.789062 589.183594 23.074219 590.203125 23.441406 L 590.289062 24.519531 L 586.179688 24.519531 C 585.042969 24.519531 584.421875 23.980469 584.222656 22.734375 L 583.542969 22.734375 L 583.542969 27.070312 Z M 591.792969 27.070312 "/>
<g clip-path="url(#clip4)" clip-rule="nonzero">
<path style=" stroke:none;fill-rule:nonzero;fill:rgb(0%,0%,0%);fill-opacity:1;" d="M 117.414062 155.808594 L 117.300781 155.785156 L 117.191406 155.785156 L 117.078125 155.765625 L 116.988281 155.765625 L 116.808594 155.71875 L 116.742188 155.699219 L 116.652344 155.699219 L 116.585938 155.675781 L 116.519531 155.628906 L 116.453125 155.609375 L 116.40625 155.585938 L 116.339844 155.539062 L 116.292969 155.496094 L 116.25 155.453125 L 116.207031 155.40625 L 116.160156 155.363281 L 116.117188 155.316406 L 116.09375 155.25 L 116.046875 155.183594 L 116.027344 155.117188 L 115.980469 155.027344 L 115.960938 154.960938 L 115.9375 154.871094 L 115.914062 154.757812 L 115.871094 154.667969 L 115.847656 154.558594 L 115.824219 154.421875 L 115.800781 154.378906 L 115.800781 154.3125 L 115.78125 154.242188 L 115.78125 154.175781 L 115.757812 154.109375 L 115.757812 154.042969 L 115.734375 153.953125 L 115.714844 153.886719 L 113.632812 141.269531 L 113.050781 141.269531 L 106.585938 152.410156 C 104.820312 155.382812 104.59375 155.628906 103.699219 155.808594 L 103.699219 156.167969 L 107.882812 156.167969 L 107.882812 155.808594 C 106.742188 155.699219 106.5625 155.585938 106.5625 155.027344 C 106.5625 154.601562 106.632812 154.398438 107.011719 153.640625 L 108.285156 151.132812 L 113.183594 151.132812 L 113.074219 150.328125 L 108.757812 150.328125 L 112.089844 144.535156 L 113.074219 150.328125 L 113.183594 151.132812 L 113.632812 154.042969 C 113.65625 154.242188 113.675781 154.445312 113.675781 154.625 C 113.675781 155.472656 113.363281 155.675781 111.933594 155.808594 L 111.933594 156.167969 L 117.414062 156.167969 Z M 117.414062 155.808594 "/>
</g>
<g clip-path="url(#clip5)" clip-rule="nonzero">
<path style=" stroke:none;fill-rule:nonzero;fill:rgb(0%,0%,0%);fill-opacity:1;" d="M 132.691406 143.640625 L 132.691406 143.304688 L 132.667969 143.28125 L 132.667969 143.171875 L 132.648438 143.148438 L 132.648438 143.082031 L 132.601562 143.035156 L 132.601562 143.015625 L 132.578125 142.992188 L 132.558594 142.96875 L 132.558594 142.945312 L 132.535156 142.925781 L 132.511719 142.902344 L 132.46875 142.878906 L 132.445312 142.878906 L 132.445312 142.859375 L 132.378906 142.859375 L 132.355469 142.835938 L 132.242188 142.835938 C 131.796875 142.835938 131.796875 143.238281 131.796875 143.640625 L 131.796875 151.714844 C 131.796875 155.046875 128.171875 155.765625 126.496094 155.765625 C 125.488281 155.765625 124.078125 155.5625 122.914062 154.804688 C 121.195312 153.707031 121.195312 152.273438 121.195312 151.671875 L 121.195312 143.640625 C 121.195312 143.238281 121.195312 142.835938 120.746094 142.835938 C 120.296875 142.835938 120.296875 143.238281 120.296875 143.640625 L 120.296875 151.78125 C 120.296875 155.183594 123.722656 156.660156 126.496094 156.660156 C 129.378906 156.660156 132.691406 155.09375 132.691406 151.804688 Z M 132.691406 143.640625 "/>
</g>
<g clip-path="url(#clip6)" clip-rule="nonzero">
<path style=" stroke:none;fill-rule:nonzero;fill:rgb(0%,0%,0%);fill-opacity:1;" d="M 134.367188 156.167969 L 140.65625 156.167969 C 144.144531 156.167969 146.558594 154.332031 146.558594 151.714844 C 146.558594 150.886719 146.292969 150.105469 145.800781 149.613281 C 145.351562 149.097656 144.90625 148.832031 143.742188 148.339844 C 145.328125 147.957031 145.980469 147.6875 146.695312 147.0625 C 147.320312 146.527344 147.65625 145.765625 147.65625 144.894531 C 147.65625 142.769531 146.066406 141.605469 143.183594 141.605469 L 142.78125 142.277344 C 144.570312 142.277344 145.398438 143.035156 145.398438 144.691406 C 145.398438 145.96875 144.859375 146.929688 143.898438 147.464844 C 143.136719 147.914062 142.0625 148.070312 140.074219 148.070312 L 139.847656 148.785156 C 141.304688 148.785156 142.242188 148.875 142.667969 149.054688 C 143.585938 149.433594 144.144531 150.417969 144.144531 151.605469 C 144.144531 154.019531 142.488281 155.496094 139.78125 155.496094 C 138.84375 155.496094 138.351562 155.160156 138.351562 154.558594 C 138.351562 154.289062 138.621094 153.214844 139.132812 151.449219 C 139.425781 150.441406 139.558594 149.925781 139.847656 148.785156 L 140.074219 148.070312 L 141.527344 142.902344 C 141.660156 142.410156 141.929688 142.277344 142.78125 142.277344 L 143.183594 141.605469 L 137.433594 141.605469 L 137.433594 141.960938 C 138.820312 142.074219 139.15625 142.253906 139.15625 142.878906 C 139.15625 143.214844 139.066406 143.773438 138.910156 144.3125 L 136.160156 154.152344 C 135.777344 155.453125 135.621094 155.585938 134.367188 155.808594 Z M 134.367188 156.167969 "/>
</g>
<path style=" stroke:none;fill-rule:nonzero;fill:rgb(79.998779%,79.998779%,79.998779%);fill-opacity:1;" d="M 92.890625 106.9375 C 84.160156 105.65625 75.722656 101.152344 69.652344 94.722656 C 53.042969 77.128906 54.320312 48.410156 72.269531 32.445312 C 86.023438 20.214844 105.109375 17.742188 121.605469 26.070312 C 124.242188 27.402344 126.949219 28.507812 126.933594 30.03125 C 126.914062 32.488281 124.863281 32.21875 122.820312 34.484375 C 117.953125 39.878906 112.800781 49.488281 111.570312 56.789062 C 109.1875 70.910156 113.730469 85.46875 123.65625 95.238281 L 127.804688 98.9375 L 123.300781 101.539062 C 118.199219 104.507812 111.140625 106.734375 105.734375 107.515625 C 99.613281 108.398438 101.898438 108.53125 95.554688 107.601562 Z M 92.890625 106.9375 "/>
<path style=" stroke:none;fill-rule:nonzero;fill:rgb(79.998779%,79.998779%,79.998779%);fill-opacity:1;" d="M 122.929688 94.445312 C 115.832031 86.550781 112.253906 77.5 111.484375 67.269531 C 110.644531 56.101562 114.917969 43.167969 122.699219 35.503906 L 127.621094 30.242188 L 133.347656 35.289062 C 138.84375 41.285156 143.375 50.515625 144.605469 58.941406 C 146.328125 70.75 141.664062 84.394531 133.125 93.789062 L 127.824219 98.433594 Z M 122.929688 94.445312 "/>
<path style=" stroke:none;fill-rule:nonzero;fill:rgb(79.998779%,79.998779%,79.998779%);fill-opacity:1;" d="M 149.421875 107.628906 C 144.808594 106.925781 137.007812 104.621094 132.191406 101.820312 L 128.519531 98.433594 L 133.667969 92.9375 C 149.09375 76.277344 148.523438 52.609375 132.871094 34.847656 L 128.511719 30.027344 L 132.589844 27.210938 C 138.871094 22.425781 154.105469 19.828125 163.4375 21.765625 C 180.695312 25.355469 195.347656 41.445312 197.9375 59.210938 C 199.773438 71.789062 195.109375 85.496094 185.601562 95.003906 C 176.019531 104.585938 162.699219 109.65625 149.421875 107.628906 Z M 149.421875 107.628906 "/>
<path style="fill:none;stroke-width:1.6;stroke-linecap:butt;stroke-linejoin:miter;stroke:rgb(0%,0%,0%);stroke-opacity:1;stroke-miterlimit:4;" d="M 144.558594 64.542969 C 144.558594 88.582031 125.070312 108.070312 101.03125 108.070312 C 76.992188 108.070312 57.507812 88.582031 57.507812 64.542969 C 57.507812 40.503906 76.992188 21.015625 101.03125 21.015625 C 125.070312 21.015625 144.558594 40.503906 144.558594 64.542969 Z M 144.558594 64.542969 "/>
<path style="fill:none;stroke-width:1.6;stroke-linecap:butt;stroke-linejoin:miter;stroke:rgb(0%,0%,0%);stroke-opacity:1;stroke-miterlimit:4;" d="M 198.160156 64.542969 C 198.160156 88.582031 178.671875 108.070312 154.632812 108.070312 C 130.59375 108.070312 111.105469 88.582031 111.105469 64.542969 C 111.105469 40.503906 130.59375 21.015625 154.632812 21.015625 C 178.671875 21.015625 198.160156 40.503906 198.160156 64.542969 Z M 198.160156 64.542969 "/>
<path style=" stroke:none;fill-rule:nonzero;fill:rgb(79.998779%,79.998779%,79.998779%);fill-opacity:1;" d="M 445.863281 93.777344 C 438.765625 85.882812 435.453125 77.632812 434.683594 67.402344 C 433.847656 56.234375 438.25 42.769531 446.03125 35.105469 L 451.085938 30.507812 L 456.945312 35.953125 C 462.441406 41.949219 466.308594 50.78125 467.539062 59.210938 C 469.257812 71.019531 464.464844 85.195312 455.925781 94.589844 L 451.023438 97.769531 Z M 445.863281 93.777344 "/>
<path style="fill:none;stroke-width:1.6;stroke-linecap:butt;stroke-linejoin:miter;stroke:rgb(0%,0%,0%);stroke-opacity:1;stroke-miterlimit:4;" d="M 521.359375 64.542969 C 521.359375 88.582031 501.871094 108.066406 477.832031 108.066406 C 453.792969 108.066406 434.304688 88.582031 434.304688 64.542969 C 434.304688 40.503906 453.792969 21.015625 477.832031 21.015625 C 501.871094 21.015625 521.359375 40.503906 521.359375 64.542969 Z M 521.359375 64.542969 "/>
<path style="fill:none;stroke-width:1.6;stroke-linecap:butt;stroke-linejoin:miter;stroke:rgb(0%,0%,0%);stroke-opacity:1;stroke-miterlimit:4;" d="M 467.757812 64.542969 C 467.757812 88.582031 448.273438 108.066406 424.234375 108.066406 C 400.195312 108.066406 380.707031 88.582031 380.707031 64.542969 C 380.707031 40.503906 400.195312 21.015625 424.234375 21.015625 C 448.273438 21.015625 467.757812 40.503906 467.757812 64.542969 Z M 467.757812 64.542969 "/>
</g>
</svg>
