<?xml version="1.0" encoding="UTF-8"?>
<svg xmlns="http://www.w3.org/2000/svg" xmlns:xlink="http://www.w3.org/1999/xlink" width="350.399994pt" height="216pt" viewBox="0 0 350.399994 216" version="1.1">
<g id="surface1">
<path style="fill:none;stroke-width:1.6;stroke-linecap:butt;stroke-linejoin:miter;stroke:rgb(0%,0%,0%);stroke-opacity:1;stroke-miterlimit:10;" d="M 0.800781 0.800781 L 349.082031 0.800781 L 349.082031 214.65625 L 0.800781 214.65625 Z M 0.800781 0.800781 "/>
<path style="fill:none;stroke-width:0.8;stroke-linecap:butt;stroke-linejoin:miter;stroke:rgb(0%,0%,0%);stroke-opacity:1;stroke-miterlimit:4;" d="M 58 169.847656 L 68.859375 159.347656 "/>
<path style="fill:none;stroke-width:0.8;stroke-linecap:butt;stroke-linejoin:miter;stroke:rgb(0%,0%,0%);stroke-opacity:1;stroke-miterlimit:4;" d="M 79.871094 169.925781 L 69.011719 159.425781 "/>
<path style="fill:none;stroke-width:0.8;stroke-linecap:butt;stroke-linejoin:miter;stroke:rgb(0%,0%,0%);stroke-opacity:1;stroke-miterlimit:4;" d="M 68.890625 159.597656 L 68.949219 139.234375 "/>
<path style="fill:none;stroke-width:0.8;stroke-linecap:butt;stroke-linejoin:miter;stroke:rgb(0%,0%,0%);stroke-opacity:1;stroke-miterlimit:4;" d="M 79.4375 141.761719 L 68.925781 148.070312 "/>
<path style="fill:none;stroke-width:0.8;stroke-linecap:butt;stroke-linejoin:miter;stroke:rgb(0%,0%,0%);stroke-opacity:1;stroke-miterlimit:10;" d="M 75.460938 132.554688 C 75.460938 136.089844 72.597656 138.957031 69.0625 138.957031 C 65.527344 138.957031 62.660156 136.089844 62.660156 132.554688 C 62.660156 129.023438 65.527344 126.15625 69.0625 126.15625 C 72.597656 126.15625 75.460938 129.023438 75.460938 132.554688 Z M 75.460938 132.554688 "/>
<path style="fill:none;stroke-width:0.8;stroke-linecap:butt;stroke-linejoin:miter;stroke:rgb(0%,0%,0%);stroke-opacity:1;stroke-miterlimit:4;" d="M 58.242188 141.761719 L 68.757812 148.070312 "/>
<path style="fill:none;stroke-width:0.8;stroke-linecap:butt;stroke-linejoin:miter;stroke:rgb(0%,0%,0%);stroke-opacity:1;stroke-miterlimit:4;" d="M 91.605469 105.921875 L 102.464844 95.421875 "/>
<path style="fill:none;stroke-width:0.8;stroke-linecap:butt;stroke-linejoin:miter;stroke:rgb(0%,0%,0%);stroke-opacity:1;stroke-miterlimit:4;" d="M 113.476562 106 L 102.617188 95.5 "/>
<path style="fill:none;stroke-width:0.8;stroke-linecap:butt;stroke-linejoin:miter;stroke:rgb(0%,0%,0%);stroke-opacity:1;stroke-miterlimit:4;" d="M 102.496094 95.675781 L 102.554688 75.308594 "/>
<path style="fill:none;stroke-width:0.8;stroke-linecap:butt;stroke-linejoin:miter;stroke:rgb(0%,0%,0%);stroke-opacity:1;stroke-miterlimit:4;" d="M 113.042969 77.835938 L 102.53125 84.144531 "/>
<path style="fill:none;stroke-width:0.8;stroke-linecap:butt;stroke-linejoin:miter;stroke:rgb(0%,0%,0%);stroke-opacity:1;stroke-miterlimit:10;" d="M 109.066406 68.632812 C 109.066406 72.167969 106.203125 75.03125 102.667969 75.03125 C 99.132812 75.03125 96.265625 72.167969 96.265625 68.632812 C 96.265625 65.097656 99.132812 62.230469 102.667969 62.230469 C 106.203125 62.230469 109.066406 65.097656 109.066406 68.632812 Z M 109.066406 68.632812 "/>
<path style="fill:none;stroke-width:0.8;stroke-linecap:butt;stroke-linejoin:miter;stroke:rgb(0%,0%,0%);stroke-opacity:1;stroke-miterlimit:4;" d="M 91.851562 77.835938 L 102.363281 84.144531 "/>
<path style="fill:none;stroke-width:0.8;stroke-linecap:butt;stroke-linejoin:miter;stroke:rgb(0%,0%,0%);stroke-opacity:1;stroke-miterlimit:4;" d="M 126.007812 59.519531 L 136.867188 49.023438 "/>
<path style="fill:none;stroke-width:0.8;stroke-linecap:butt;stroke-linejoin:miter;stroke:rgb(0%,0%,0%);stroke-opacity:1;stroke-miterlimit:4;" d="M 147.875 59.601562 L 137.015625 49.101562 "/>
<path style="fill:none;stroke-width:0.8;stroke-linecap:butt;stroke-linejoin:miter;stroke:rgb(0%,0%,0%);stroke-opacity:1;stroke-miterlimit:4;" d="M 136.898438 49.273438 L 136.957031 28.910156 "/>
<path style="fill:none;stroke-width:0.8;stroke-linecap:butt;stroke-linejoin:miter;stroke:rgb(0%,0%,0%);stroke-opacity:1;stroke-miterlimit:4;" d="M 147.445312 31.4375 L 136.929688 37.746094 "/>
<path style="fill:none;stroke-width:0.8;stroke-linecap:butt;stroke-linejoin:miter;stroke:rgb(0%,0%,0%);stroke-opacity:1;stroke-miterlimit:10;" d="M 143.46875 22.230469 C 143.46875 25.765625 140.601562 28.632812 137.066406 28.632812 C 133.53125 28.632812 130.667969 25.765625 130.667969 22.230469 C 130.667969 18.695312 133.53125 15.832031 137.066406 15.832031 C 140.601562 15.832031 143.46875 18.695312 143.46875 22.230469 Z M 143.46875 22.230469 "/>
<path style="fill:none;stroke-width:0.8;stroke-linecap:butt;stroke-linejoin:miter;stroke:rgb(0%,0%,0%);stroke-opacity:1;stroke-miterlimit:4;" d="M 126.25 31.4375 L 136.765625 37.746094 "/>
<path style="fill:none;stroke-width:0.8;stroke-linecap:butt;stroke-linejoin:miter;stroke:rgb(0%,0%,0%);stroke-opacity:1;stroke-miterlimit:4;" d="M 182.808594 53.121094 L 193.664062 42.621094 "/>
<path style="fill:none;stroke-width:0.8;stroke-linecap:butt;stroke-linejoin:miter;stroke:rgb(0%,0%,0%);stroke-opacity:1;stroke-miterlimit:4;" d="M 204.675781 53.203125 L 193.816406 42.703125 "/>
<path style="fill:none;stroke-width:0.8;stroke-linecap:butt;stroke-linejoin:miter;stroke:rgb(0%,0%,0%);stroke-opacity:1;stroke-miterlimit:4;" d="M 193.699219 42.875 L 193.753906 22.507812 "/>
<path style="fill:none;stroke-width:0.8;stroke-linecap:butt;stroke-linejoin:miter;stroke:rgb(0%,0%,0%);stroke-opacity:1;stroke-miterlimit:4;" d="M 204.242188 25.039062 L 193.730469 31.347656 "/>
<path style="fill:none;stroke-width:0.8;stroke-linecap:butt;stroke-linejoin:miter;stroke:rgb(0%,0%,0%);stroke-opacity:1;stroke-miterlimit:10;" d="M 200.265625 15.832031 C 200.265625 19.367188 197.402344 22.230469 193.867188 22.230469 C 190.332031 22.230469 187.46875 19.367188 187.46875 15.832031 C 187.46875 12.296875 190.332031 9.429688 193.867188 9.429688 C 197.402344 9.429688 200.265625 12.296875 200.265625 15.832031 Z M 200.265625 15.832031 "/>
<path style="fill:none;stroke-width:0.8;stroke-linecap:butt;stroke-linejoin:miter;stroke:rgb(0%,0%,0%);stroke-opacity:1;stroke-miterlimit:4;" d="M 183.050781 25.039062 L 193.5625 31.347656 "/>
<path style="fill:none;stroke-width:0.8;stroke-linecap:butt;stroke-linejoin:miter;stroke:rgb(0%,0%,0%);stroke-opacity:1;stroke-miterlimit:4;" d="M 266.007812 139.519531 L 276.867188 129.023438 "/>
<path style="fill:none;stroke-width:0.8;stroke-linecap:butt;stroke-linejoin:miter;stroke:rgb(0%,0%,0%);stroke-opacity:1;stroke-miterlimit:4;" d="M 287.875 139.601562 L 277.015625 129.101562 "/>
<path style="fill:none;stroke-width:0.8;stroke-linecap:butt;stroke-linejoin:miter;stroke:rgb(0%,0%,0%);stroke-opacity:1;stroke-miterlimit:4;" d="M 276.898438 129.273438 L 276.957031 108.910156 "/>
<path style="fill:none;stroke-width:0.8;stroke-linecap:butt;stroke-linejoin:miter;stroke:rgb(0%,0%,0%);stroke-opacity:1;stroke-miterlimit:4;" d="M 287.445312 111.4375 L 276.929688 117.746094 "/>
<path style="fill:none;stroke-width:0.8;stroke-linecap:butt;stroke-linejoin:miter;stroke:rgb(0%,0%,0%);stroke-opacity:1;stroke-miterlimit:10;" d="M 283.46875 102.230469 C 283.46875 105.765625 280.601562 108.632812 277.066406 108.632812 C 273.53125 108.632812 270.667969 105.765625 270.667969 102.230469 C 270.667969 98.695312 273.53125 95.832031 277.066406 95.832031 C 280.601562 95.832031 283.46875 98.695312 283.46875 102.230469 Z M 283.46875 102.230469 "/>
<path style="fill:none;stroke-width:0.8;stroke-linecap:butt;stroke-linejoin:miter;stroke:rgb(0%,0%,0%);stroke-opacity:1;stroke-miterlimit:4;" d="M 266.25 111.4375 L 276.765625 117.746094 "/>
<path style="fill:none;stroke-width:0.8;stroke-linecap:butt;stroke-linejoin:miter;stroke:rgb(0%,0%,0%);stroke-opacity:1;stroke-miterlimit:4;" d="M 156.40625 204.320312 L 167.265625 193.820312 "/>
<path style="fill:none;stroke-width:0.8;stroke-linecap:butt;stroke-linejoin:miter;stroke:rgb(0%,0%,0%);stroke-opacity:1;stroke-miterlimit:4;" d="M 178.277344 204.402344 L 167.417969 193.902344 "/>
<path style="fill:none;stroke-width:0.8;stroke-linecap:butt;stroke-linejoin:miter;stroke:rgb(0%,0%,0%);stroke-opacity:1;stroke-miterlimit:4;" d="M 167.296875 194.074219 L 167.355469 173.707031 "/>
<path style="fill:none;stroke-width:0.8;stroke-linecap:butt;stroke-linejoin:miter;stroke:rgb(0%,0%,0%);stroke-opacity:1;stroke-miterlimit:4;" d="M 177.84375 176.238281 L 167.328125 182.546875 "/>
<path style="fill:none;stroke-width:0.8;stroke-linecap:butt;stroke-linejoin:miter;stroke:rgb(0%,0%,0%);stroke-opacity:1;stroke-miterlimit:10;" d="M 173.867188 167.03125 C 173.867188 170.566406 171 173.429688 167.46875 173.429688 C 163.933594 173.429688 161.066406 170.566406 161.066406 167.03125 C 161.066406 163.496094 163.933594 160.632812 167.46875 160.632812 C 171 160.632812 173.867188 163.496094 173.867188 167.03125 Z M 173.867188 167.03125 "/>
<path style="fill:none;stroke-width:0.8;stroke-linecap:butt;stroke-linejoin:miter;stroke:rgb(0%,0%,0%);stroke-opacity:1;stroke-miterlimit:4;" d="M 156.648438 176.238281 L 167.164062 182.546875 "/>
<path style="fill:none;stroke-width:0.8;stroke-linecap:butt;stroke-linejoin:miter;stroke:rgb(0%,0%,0%);stroke-opacity:1;stroke-miterlimit:4;" d="M 14.808594 202.722656 L 25.664062 192.222656 "/>
<path style="fill:none;stroke-width:0.8;stroke-linecap:butt;stroke-linejoin:miter;stroke:rgb(0%,0%,0%);stroke-opacity:1;stroke-miterlimit:4;" d="M 36.675781 202.800781 L 25.816406 192.300781 "/>
<path style="fill:none;stroke-width:0.8;stroke-linecap:butt;stroke-linejoin:miter;stroke:rgb(0%,0%,0%);stroke-opacity:1;stroke-miterlimit:4;" d="M 25.699219 192.472656 L 25.753906 172.109375 "/>
<path style="fill:none;stroke-width:0.8;stroke-linecap:butt;stroke-linejoin:miter;stroke:rgb(0%,0%,0%);stroke-opacity:1;stroke-miterlimit:4;" d="M 36.242188 174.636719 L 25.730469 180.945312 "/>
<path style="fill:none;stroke-width:0.8;stroke-linecap:butt;stroke-linejoin:miter;stroke:rgb(0%,0%,0%);stroke-opacity:1;stroke-miterlimit:10;" d="M 32.265625 165.429688 C 32.265625 168.964844 29.402344 171.832031 25.867188 171.832031 C 22.332031 171.832031 19.46875 168.964844 19.46875 165.429688 C 19.46875 161.898438 22.332031 159.03125 25.867188 159.03125 C 29.402344 159.03125 32.265625 161.898438 32.265625 165.429688 Z M 32.265625 165.429688 "/>
<path style="fill:none;stroke-width:0.8;stroke-linecap:butt;stroke-linejoin:miter;stroke:rgb(0%,0%,0%);stroke-opacity:1;stroke-miterlimit:4;" d="M 15.050781 174.636719 L 25.5625 180.945312 "/>
<path style="fill:none;stroke-width:0.8;stroke-linecap:butt;stroke-linejoin:miter;stroke:rgb(0%,0%,0%);stroke-opacity:1;stroke-miterlimit:4;" d="M 222.007812 93.121094 L 232.867188 82.621094 "/>
<path style="fill:none;stroke-width:0.8;stroke-linecap:butt;stroke-linejoin:miter;stroke:rgb(0%,0%,0%);stroke-opacity:1;stroke-miterlimit:4;" d="M 243.875 93.203125 L 233.015625 82.703125 "/>
<path style="fill:none;stroke-width:0.8;stroke-linecap:butt;stroke-linejoin:miter;stroke:rgb(0%,0%,0%);stroke-opacity:1;stroke-miterlimit:4;" d="M 232.898438 82.875 L 232.957031 62.507812 "/>
<path style="fill:none;stroke-width:0.8;stroke-linecap:butt;stroke-linejoin:miter;stroke:rgb(0%,0%,0%);stroke-opacity:1;stroke-miterlimit:4;" d="M 243.445312 65.039062 L 232.929688 71.347656 "/>
<path style="fill:none;stroke-width:0.8;stroke-linecap:butt;stroke-linejoin:miter;stroke:rgb(0%,0%,0%);stroke-opacity:1;stroke-miterlimit:10;" d="M 239.46875 55.832031 C 239.46875 59.367188 236.601562 62.230469 233.066406 62.230469 C 229.53125 62.230469 226.667969 59.367188 226.667969 55.832031 C 226.667969 52.296875 229.53125 49.429688 233.066406 49.429688 C 236.601562 49.429688 239.46875 52.296875 239.46875 55.832031 Z M 239.46875 55.832031 "/>
<path style="fill:none;stroke-width:0.8;stroke-linecap:butt;stroke-linejoin:miter;stroke:rgb(0%,0%,0%);stroke-opacity:1;stroke-miterlimit:4;" d="M 222.25 65.039062 L 232.765625 71.347656 "/>
<path style="fill:none;stroke-width:0.8;stroke-linecap:butt;stroke-linejoin:miter;stroke:rgb(0%,0%,0%);stroke-opacity:1;stroke-miterlimit:4;" d="M 314.007812 125.921875 L 324.867188 115.421875 "/>
<path style="fill:none;stroke-width:0.8;stroke-linecap:butt;stroke-linejoin:miter;stroke:rgb(0%,0%,0%);stroke-opacity:1;stroke-miterlimit:4;" d="M 335.875 126 L 325.015625 115.5 "/>
<path style="fill:none;stroke-width:0.8;stroke-linecap:butt;stroke-linejoin:miter;stroke:rgb(0%,0%,0%);stroke-opacity:1;stroke-miterlimit:4;" d="M 324.898438 115.675781 L 324.957031 95.308594 "/>
<path style="fill:none;stroke-width:0.8;stroke-linecap:butt;stroke-linejoin:miter;stroke:rgb(0%,0%,0%);stroke-opacity:1;stroke-miterlimit:4;" d="M 335.445312 97.835938 L 324.929688 104.144531 "/>
<path style="fill:none;stroke-width:0.8;stroke-linecap:butt;stroke-linejoin:miter;stroke:rgb(0%,0%,0%);stroke-opacity:1;stroke-miterlimit:10;" d="M 331.46875 88.632812 C 331.46875 92.167969 328.601562 95.03125 325.066406 95.03125 C 321.53125 95.03125 318.667969 92.167969 318.667969 88.632812 C 318.667969 85.097656 321.53125 82.230469 325.066406 82.230469 C 328.601562 82.230469 331.46875 85.097656 331.46875 88.632812 Z M 331.46875 88.632812 "/>
<path style="fill:none;stroke-width:0.8;stroke-linecap:butt;stroke-linejoin:miter;stroke:rgb(0%,0%,0%);stroke-opacity:1;stroke-miterlimit:4;" d="M 314.25 97.835938 L 324.765625 104.144531 "/>
<path style="fill:none;stroke-width:0.8;stroke-linecap:butt;stroke-linejoin:miter;stroke:rgb(0%,0%,0%);stroke-opacity:1;stroke-miterlimit:4;" d="M 289.207031 202.722656 L 300.066406 192.222656 "/>
<path style="fill:none;stroke-width:0.8;stroke-linecap:butt;stroke-linejoin:miter;stroke:rgb(0%,0%,0%);stroke-opacity:1;stroke-miterlimit:4;" d="M 311.074219 202.800781 L 300.214844 192.300781 "/>
<path style="fill:none;stroke-width:0.8;stroke-linecap:butt;stroke-linejoin:miter;stroke:rgb(0%,0%,0%);stroke-opacity:1;stroke-miterlimit:4;" d="M 300.097656 192.472656 L 300.15625 172.109375 "/>
<path style="fill:none;stroke-width:0.8;stroke-linecap:butt;stroke-linejoin:miter;stroke:rgb(0%,0%,0%);stroke-opacity:1;stroke-miterlimit:4;" d="M 310.644531 174.636719 L 300.128906 180.945312 "/>
<path style="fill:none;stroke-width:0.8;stroke-linecap:butt;stroke-linejoin:miter;stroke:rgb(0%,0%,0%);stroke-opacity:1;stroke-miterlimit:10;" d="M 306.667969 165.429688 C 306.667969 168.964844 303.800781 171.832031 300.265625 171.832031 C 296.730469 171.832031 293.867188 168.964844 293.867188 165.429688 C 293.867188 161.898438 296.730469 159.03125 300.265625 159.03125 C 303.800781 159.03125 306.667969 161.898438 306.667969 165.429688 Z M 306.667969 165.429688 "/>
<path style="fill:none;stroke-width:0.8;stroke-linecap:butt;stroke-linejoin:miter;stroke:rgb(0%,0%,0%);stroke-opacity:1;stroke-miterlimit:4;" d="M 289.449219 174.636719 L 299.964844 180.945312 "/>
<path style="fill:none;stroke-width:0.8;stroke-linecap:butt;stroke-linejoin:miter;stroke:rgb(0%,0%,0%);stroke-opacity:1;stroke-miterlimit:4;" d="M 106.007812 189.121094 L 116.867188 178.621094 "/>
<path style="fill:none;stroke-width:0.8;stroke-linecap:butt;stroke-linejoin:miter;stroke:rgb(0%,0%,0%);stroke-opacity:1;stroke-miterlimit:4;" d="M 127.875 189.203125 L 117.015625 178.703125 "/>
<path style="fill:none;stroke-width:0.8;stroke-linecap:butt;stroke-linejoin:miter;stroke:rgb(0%,0%,0%);stroke-opacity:1;stroke-miterlimit:4;" d="M 116.898438 178.875 L 116.957031 158.507812 "/>
<path style="fill:none;stroke-width:0.8;stroke-linecap:butt;stroke-linejoin:miter;stroke:rgb(0%,0%,0%);stroke-opacity:1;stroke-miterlimit:4;" d="M 127.445312 161.039062 L 116.929688 167.347656 "/>
<path style="fill:none;stroke-width:0.8;stroke-linecap:butt;stroke-linejoin:miter;stroke:rgb(0%,0%,0%);stroke-opacity:1;stroke-miterlimit:10;" d="M 123.46875 151.832031 C 123.46875 155.367188 120.601562 158.230469 117.066406 158.230469 C 113.53125 158.230469 110.667969 155.367188 110.667969 151.832031 C 110.667969 148.296875 113.53125 145.429688 117.066406 145.429688 C 120.601562 145.429688 123.46875 148.296875 123.46875 151.832031 Z M 123.46875 151.832031 "/>
<path style="fill:none;stroke-width:0.8;stroke-linecap:butt;stroke-linejoin:miter;stroke:rgb(0%,0%,0%);stroke-opacity:1;stroke-miterlimit:4;" d="M 106.25 161.039062 L 116.765625 167.347656 "/>
<path style="fill:none;stroke-width:1.6;stroke-linecap:butt;stroke-linejoin:miter;stroke:rgb(0%,0%,0%);stroke-opacity:1;stroke-miterlimit:10;" d="M 143.339844 168.917969 C 143.339844 187.253906 131.523438 202.117188 116.941406 202.117188 C 102.359375 202.117188 90.542969 187.253906 90.542969 168.917969 C 90.542969 150.582031 102.359375 135.714844 116.941406 135.714844 C 131.523438 135.714844 143.339844 150.582031 143.339844 168.917969 Z M 143.339844 168.917969 "/>
<path style="fill:none;stroke-width:0.8;stroke-linecap:butt;stroke-linejoin:miter;stroke:rgb(0%,0%,0%);stroke-opacity:1;stroke-miterlimit:4;" d="M 47.605469 64.320312 L 58.464844 53.820312 "/>
<path style="fill:none;stroke-width:0.8;stroke-linecap:butt;stroke-linejoin:miter;stroke:rgb(0%,0%,0%);stroke-opacity:1;stroke-miterlimit:4;" d="M 69.476562 64.402344 L 58.617188 53.902344 "/>
<path style="fill:none;stroke-width:0.8;stroke-linecap:butt;stroke-linejoin:miter;stroke:rgb(0%,0%,0%);stroke-opacity:1;stroke-miterlimit:4;" d="M 58.496094 54.074219 L 58.554688 33.707031 "/>
<path style="fill:none;stroke-width:0.8;stroke-linecap:butt;stroke-linejoin:miter;stroke:rgb(0%,0%,0%);stroke-opacity:1;stroke-miterlimit:4;" d="M 69.042969 36.238281 L 58.53125 42.546875 "/>
<path style="fill:none;stroke-width:0.8;stroke-linecap:butt;stroke-linejoin:miter;stroke:rgb(0%,0%,0%);stroke-opacity:1;stroke-miterlimit:10;" d="M 65.066406 27.03125 C 65.066406 30.566406 62.203125 33.429688 58.667969 33.429688 C 55.132812 33.429688 52.265625 30.566406 52.265625 27.03125 C 52.265625 23.496094 55.132812 20.632812 58.667969 20.632812 C 62.203125 20.632812 65.066406 23.496094 65.066406 27.03125 Z M 65.066406 27.03125 "/>
<path style="fill:none;stroke-width:0.8;stroke-linecap:butt;stroke-linejoin:miter;stroke:rgb(0%,0%,0%);stroke-opacity:1;stroke-miterlimit:4;" d="M 47.851562 36.238281 L 58.363281 42.546875 "/>
<path style="fill:none;stroke-width:1.6;stroke-linecap:butt;stroke-linejoin:miter;stroke:rgb(0%,0%,0%);stroke-opacity:1;stroke-miterlimit:10;" d="M 84.941406 44.117188 C 84.941406 62.453125 73.121094 77.316406 58.542969 77.316406 C 43.960938 77.316406 32.140625 62.453125 32.140625 44.117188 C 32.140625 25.78125 43.960938 10.917969 58.542969 10.917969 C 73.121094 10.917969 84.941406 25.78125 84.941406 44.117188 Z M 84.941406 44.117188 "/>
<path style="fill:none;stroke-width:0.8;stroke-linecap:butt;stroke-linejoin:miter;stroke:rgb(0%,0%,0%);stroke-opacity:1;stroke-miterlimit:4;" d="M 167.605469 131.519531 L 178.464844 121.023438 "/>
<path style="fill:none;stroke-width:0.8;stroke-linecap:butt;stroke-linejoin:miter;stroke:rgb(0%,0%,0%);stroke-opacity:1;stroke-miterlimit:4;" d="M 189.476562 131.601562 L 178.617188 121.101562 "/>
<path style="fill:none;stroke-width:0.8;stroke-linecap:butt;stroke-linejoin:miter;stroke:rgb(0%,0%,0%);stroke-opacity:1;stroke-miterlimit:4;" d="M 178.496094 121.273438 L 178.554688 100.910156 "/>
<path style="fill:none;stroke-width:0.8;stroke-linecap:butt;stroke-linejoin:miter;stroke:rgb(0%,0%,0%);stroke-opacity:1;stroke-miterlimit:4;" d="M 189.042969 103.4375 L 178.53125 109.746094 "/>
<path style="fill:none;stroke-width:0.8;stroke-linecap:butt;stroke-linejoin:miter;stroke:rgb(0%,0%,0%);stroke-opacity:1;stroke-miterlimit:10;" d="M 185.066406 94.230469 C 185.066406 97.765625 182.203125 100.632812 178.667969 100.632812 C 175.132812 100.632812 172.265625 97.765625 172.265625 94.230469 C 172.265625 90.695312 175.132812 87.832031 178.667969 87.832031 C 182.203125 87.832031 185.066406 90.695312 185.066406 94.230469 Z M 185.066406 94.230469 "/>
<path style="fill:none;stroke-width:0.8;stroke-linecap:butt;stroke-linejoin:miter;stroke:rgb(0%,0%,0%);stroke-opacity:1;stroke-miterlimit:4;" d="M 167.851562 103.4375 L 178.363281 109.746094 "/>
<path style="fill:none;stroke-width:1.6;stroke-linecap:butt;stroke-linejoin:miter;stroke:rgb(0%,0%,0%);stroke-opacity:1;stroke-miterlimit:10;" d="M 204.941406 111.316406 C 204.941406 129.652344 193.121094 144.515625 178.542969 144.515625 C 163.960938 144.515625 152.140625 129.652344 152.140625 111.316406 C 152.140625 92.980469 163.960938 78.117188 178.542969 78.117188 C 193.121094 78.117188 204.941406 92.980469 204.941406 111.316406 Z M 204.941406 111.316406 "/>
<path style="fill:none;stroke-width:0.8;stroke-linecap:butt;stroke-linejoin:miter;stroke:rgb(0%,0%,0%);stroke-opacity:1;stroke-miterlimit:4;" d="M 270.007812 61.121094 L 280.867188 50.621094 "/>
<path style="fill:none;stroke-width:0.8;stroke-linecap:butt;stroke-linejoin:miter;stroke:rgb(0%,0%,0%);stroke-opacity:1;stroke-miterlimit:4;" d="M 291.875 61.203125 L 281.015625 50.703125 "/>
<path style="fill:none;stroke-width:0.8;stroke-linecap:butt;stroke-linejoin:miter;stroke:rgb(0%,0%,0%);stroke-opacity:1;stroke-miterlimit:4;" d="M 280.898438 50.875 L 280.957031 30.507812 "/>
<path style="fill:none;stroke-width:0.8;stroke-linecap:butt;stroke-linejoin:miter;stroke:rgb(0%,0%,0%);stroke-opacity:1;stroke-miterlimit:4;" d="M 291.445312 33.039062 L 280.929688 39.347656 "/>
<path style="fill:none;stroke-width:0.8;stroke-linecap:butt;stroke-linejoin:miter;stroke:rgb(0%,0%,0%);stroke-opacity:1;stroke-miterlimit:10;" d="M 287.46875 23.832031 C 287.46875 27.367188 284.601562 30.230469 281.066406 30.230469 C 277.53125 30.230469 274.667969 27.367188 274.667969 23.832031 C 274.667969 20.296875 277.53125 17.429688 281.066406 17.429688 C 284.601562 17.429688 287.46875 20.296875 287.46875 23.832031 Z M 287.46875 23.832031 "/>
<path style="fill:none;stroke-width:0.8;stroke-linecap:butt;stroke-linejoin:miter;stroke:rgb(0%,0%,0%);stroke-opacity:1;stroke-miterlimit:4;" d="M 270.25 33.039062 L 280.765625 39.347656 "/>
<path style="fill:none;stroke-width:1.6;stroke-linecap:butt;stroke-linejoin:miter;stroke:rgb(0%,0%,0%);stroke-opacity:1;stroke-miterlimit:10;" d="M 307.339844 40.917969 C 307.339844 59.253906 295.523438 74.117188 280.941406 74.117188 C 266.359375 74.117188 254.542969 59.253906 254.542969 40.917969 C 254.542969 22.582031 266.359375 7.714844 280.941406 7.714844 C 295.523438 7.714844 307.339844 22.582031 307.339844 40.917969 Z M 307.339844 40.917969 "/>
<path style="fill:none;stroke-width:0.8;stroke-linecap:butt;stroke-linejoin:miter;stroke:rgb(0%,0%,0%);stroke-opacity:1;stroke-miterlimit:4;" d="M 228.40625 196.320312 L 239.265625 185.820312 "/>
<path style="fill:none;stroke-width:0.8;stroke-linecap:butt;stroke-linejoin:miter;stroke:rgb(0%,0%,0%);stroke-opacity:1;stroke-miterlimit:4;" d="M 250.277344 196.402344 L 239.417969 185.902344 "/>
<path style="fill:none;stroke-width:0.8;stroke-linecap:butt;stroke-linejoin:miter;stroke:rgb(0%,0%,0%);stroke-opacity:1;stroke-miterlimit:4;" d="M 239.296875 186.074219 L 239.355469 165.707031 "/>
<path style="fill:none;stroke-width:0.8;stroke-linecap:butt;stroke-linejoin:miter;stroke:rgb(0%,0%,0%);stroke-opacity:1;stroke-miterlimit:4;" d="M 249.84375 168.238281 L 239.328125 174.546875 "/>
<path style="fill:none;stroke-width:0.8;stroke-linecap:butt;stroke-linejoin:miter;stroke:rgb(0%,0%,0%);stroke-opacity:1;stroke-miterlimit:10;" d="M 245.867188 159.03125 C 245.867188 162.566406 243 165.429688 239.46875 165.429688 C 235.933594 165.429688 233.066406 162.566406 233.066406 159.03125 C 233.066406 155.496094 235.933594 152.632812 239.46875 152.632812 C 243 152.632812 245.867188 155.496094 245.867188 159.03125 Z M 245.867188 159.03125 "/>
<path style="fill:none;stroke-width:0.8;stroke-linecap:butt;stroke-linejoin:miter;stroke:rgb(0%,0%,0%);stroke-opacity:1;stroke-miterlimit:4;" d="M 228.648438 168.238281 L 239.164062 174.546875 "/>
<path style="fill:none;stroke-width:1.6;stroke-linecap:butt;stroke-linejoin:miter;stroke:rgb(0%,0%,0%);stroke-opacity:1;stroke-miterlimit:10;" d="M 265.742188 176.117188 C 265.742188 194.453125 253.921875 209.316406 239.339844 209.316406 C 224.761719 209.316406 212.941406 194.453125 212.941406 176.117188 C 212.941406 157.78125 224.761719 142.917969 239.339844 142.917969 C 253.921875 142.917969 265.742188 157.78125 265.742188 176.117188 Z M 265.742188 176.117188 "/>
<path style="fill:none;stroke-width:0.8;stroke-linecap:butt;stroke-linejoin:miter;stroke:rgb(0%,0%,0%);stroke-opacity:1;stroke-miterlimit:4;" d="M 26.007812 129.921875 L 36.867188 119.421875 "/>
<path style="fill:none;stroke-width:0.8;stroke-linecap:butt;stroke-linejoin:miter;stroke:rgb(0%,0%,0%);stroke-opacity:1;stroke-miterlimit:4;" d="M 47.875 130 L 37.015625 119.5 "/>
<path style="fill:none;stroke-width:0.8;stroke-linecap:butt;stroke-linejoin:miter;stroke:rgb(0%,0%,0%);stroke-opacity:1;stroke-miterlimit:4;" d="M 36.898438 119.675781 L 36.957031 99.308594 "/>
<path style="fill:none;stroke-width:0.8;stroke-linecap:butt;stroke-linejoin:miter;stroke:rgb(0%,0%,0%);stroke-opacity:1;stroke-miterlimit:4;" d="M 47.445312 101.835938 L 36.929688 108.144531 "/>
<path style="fill:none;stroke-width:0.8;stroke-linecap:butt;stroke-linejoin:miter;stroke:rgb(0%,0%,0%);stroke-opacity:1;stroke-miterlimit:10;" d="M 43.46875 92.632812 C 43.46875 96.167969 40.601562 99.03125 37.066406 99.03125 C 33.53125 99.03125 30.667969 96.167969 30.667969 92.632812 C 30.667969 89.097656 33.53125 86.230469 37.066406 86.230469 C 40.601562 86.230469 43.46875 89.097656 43.46875 92.632812 Z M 43.46875 92.632812 "/>
<path style="fill:none;stroke-width:0.8;stroke-linecap:butt;stroke-linejoin:miter;stroke:rgb(0%,0%,0%);stroke-opacity:1;stroke-miterlimit:4;" d="M 26.25 101.835938 L 36.765625 108.144531 "/>
</g>
</svg>
