<svg width="606" height="590" viewBox="0 0 606 590" fill="none" xmlns="http://www.w3.org/2000/svg">
<rect width="606" height="590" fill="#10099F"/>
<path d="M299.404 301.672C312.106 321.7 328.31 327.969 345.572 323.98V323.491C329.287 322.433 310.07 304.765 298.101 287.749C289.958 276.595 271.475 262.51 262.111 263.324L256.249 264.301C245.255 265.672 234.187 266.352 223.109 266.336C219.666 266.462 216.406 267.913 214.009 270.386C211.612 272.859 210.263 276.163 210.244 279.607C211.384 286.039 218.386 284.736 221.318 283.515C226.284 281.643 229.46 278.467 235.892 279.119C250.223 280.503 263.658 294.832 278.885 298.822C280.676 299.799 280.757 300.124 280.757 300.776C280.757 302.974 279.699 302.893 278.722 302.649C270.579 300.287 260.157 305.01 253.073 302.242C249.213 300.84 245.768 298.488 243.058 295.402C238.335 291.169 232.717 284.411 223.679 291.168C222.654 292.047 221.463 292.712 220.177 293.123C217.707 293.721 215.103 293.402 212.85 292.227C214.197 293.441 215.207 294.984 215.781 296.705C216.324 298.566 216.324 300.543 215.781 302.404L214.641 305.172C214.489 305.728 214.299 306.272 214.071 306.801L213.664 307.696C210.569 315.838 204.544 334.646 205.928 338.228C208.127 343.601 218.549 339.775 224.737 339.856C227.994 339.856 231.414 341.973 232.88 341.81C234.345 341.647 235.485 339.123 234.508 337.495C233.515 336.127 232.121 335.103 230.519 334.564C229.053 334.075 226.855 334.564 226.122 333.587C227.18 330.819 232.88 332.61 234.915 333.587C236.344 334.315 237.584 335.366 238.537 336.655C239.49 337.945 240.13 339.438 240.406 341.017C240.683 342.597 240.588 344.219 240.13 345.755C239.671 347.292 238.862 348.701 237.765 349.871C235.649 351.356 233.177 352.255 230.6 352.476C229.297 347.998 224.086 349.382 221.399 350.929C218.712 352.476 219.526 355.977 219.2 358.338C219.037 359.554 218.765 360.753 218.386 361.92C218.2 362.806 218.2 363.721 218.386 364.607C221.228 363.872 223.964 362.777 226.529 361.35C228.564 360.78 230.763 362.979 232.88 363.793C237.73 365.893 242.986 366.894 248.269 366.724C247.292 371.283 242.325 371.934 240.127 372.016C237.928 372.097 234.834 370.306 231.984 370.306C229.134 370.306 226.04 372.016 223.028 371.772C223.591 372.468 224.006 373.271 224.249 374.133C224.249 375.761 222.865 377.553 222.458 379.1C223.724 377.957 225.228 377.11 226.861 376.617C228.494 376.124 230.216 375.999 231.903 376.25C234.601 376.666 237.347 376.666 240.045 376.25C241.266 376.25 241.185 374.458 242.569 374.621C243.953 374.784 243.465 376.738 243.384 377.227C242.081 381.135 237.847 383.007 234.508 384.88C233.053 386.013 231.951 387.539 231.333 389.277C230.774 391.219 230.774 393.278 231.333 395.22C232.31 399.535 235.73 408.979 256.249 402.71C259.587 401.733 290.203 395.708 305.103 380.728C309.996 375.075 312.69 367.849 312.69 360.373C312.69 352.897 309.996 345.671 305.103 340.019C303.875 338.668 302.927 337.088 302.312 335.37C301.697 333.651 301.428 331.828 301.521 330.005C303.138 319.738 301.986 309.227 298.182 299.555C298.778 300.133 299.201 300.866 299.404 301.672ZM223.76 296.054C223.508 295.507 223.316 294.933 223.19 294.344C224.404 293.619 225.759 293.165 227.164 293.01C228.569 292.855 229.991 293.005 231.333 293.448C236.625 294.67 239.475 300.857 243.709 302.486C241.669 304.23 239.192 305.384 236.544 305.824C237.125 304.826 237.314 303.648 237.073 302.519C236.832 301.39 236.179 300.391 235.241 299.718C234.671 302.404 232.717 303.055 231.17 303.951C231.014 304.51 231.014 305.102 231.17 305.661C229.623 304.44 229.786 304.277 229.134 302.404C229.511 302.2 229.833 301.908 230.073 301.554C230.314 301.2 230.467 300.794 230.519 300.369C230.681 296.379 226.936 294.995 223.76 296.054ZM248.921 307.615C248.494 308.781 247.948 309.899 247.292 310.953C245.987 312.675 244.196 313.968 242.15 314.665C240.104 315.361 237.897 315.43 235.811 314.861C233.369 313.884 227.669 312.012 230.03 308.348C236.137 311.36 241.511 306.475 245.582 304.032L248.432 305.498C249.328 305.905 249.328 306.394 248.921 307.615Z" fill="white"/>
<path d="M391.251 360.046C419.994 368.188 405.012 384.471 415.679 393.508C418.04 390.74 420.32 387.891 422.519 384.878C417.552 374.457 420.157 362.489 391.251 359.476C391.088 359.476 391.007 359.965 391.251 360.046Z" fill="white"/>
<path d="M397.521 411.584L394.101 408.978L386.936 403.035C386.936 407.513 386.936 413.701 386.936 419.319C390.682 417.039 394.102 414.352 397.521 411.584Z" fill="white"/>
<path d="M376.431 426.238C378.677 415.992 378.677 405.382 376.431 395.136C372.305 392.365 368.038 389.811 363.647 387.483C362.195 401.704 358.051 415.52 351.434 428.192C349.724 431.448 347.362 435.682 344.757 439.753C355.807 436.501 366.438 431.965 376.431 426.238Z" fill="white"/>
<path d="M350.131 400.103C353.632 390.17 346.63 384.389 350.131 365.419V362.895C343.291 360.86 328.717 360.616 325.297 366.152C318.783 376.818 315.932 424.203 289.795 445.778C293.622 445.778 297.449 446.267 301.358 446.267C308.77 446.263 316.172 445.719 323.505 444.638C336.185 432.427 345.377 417.052 350.131 400.103Z" fill="white"/>
<path d="M185.246 262.914C182.559 261.693 185.246 258.029 190.702 250.294C231.414 193.954 341.419 225.055 348.421 223.915C353.632 223.101 278.477 184.346 223.108 213.575C213.5 218.623 190.539 228.067 189.236 223.915C202.848 217.222 215.75 209.175 227.75 199.897C230.175 197.858 232.732 195.982 235.404 194.279C256.468 181.603 280.893 175.64 305.429 177.181C337.071 178.762 366.792 192.839 388.06 216.319C409.328 239.798 420.404 270.76 418.854 302.401C418.584 306.715 418.067 311.01 417.307 315.265C415.159 312.657 413.147 309.94 411.281 307.124C411.281 307.124 419.912 202.014 308.849 184.997C289.584 181.694 269.767 184.782 252.422 193.791C257 193.691 261.569 193.31 266.101 192.651C317.398 183.939 404.523 214.552 401.266 294.178C401.266 296.783 367.393 242.885 313.979 232.871C254.131 221.635 226.203 238.57 226.203 238.57C253.579 235.714 281.225 236.838 308.279 241.908C357.134 251.678 394.182 289.782 413.479 326.908C412.095 329.595 396.217 328.292 392.309 323.407C379.77 308.101 346.549 268.043 303.393 257.785C215.292 236.698 188.666 264.379 185.246 262.914Z" fill="white"/>
<path d="M349.561 302.646C334.986 302.646 325.133 275.697 299.973 266.415V265.927C330.182 268.858 337.51 293.364 349.561 302.239V302.646ZM349.561 314.94C335.556 309.241 307.139 268.043 281.897 264.868C281.897 264.868 281.49 265.275 281.897 265.357C302.09 274.231 330.752 314.696 349.479 315.429C349.561 315.429 349.561 315.021 349.561 314.94ZM352.411 351.74C338.161 326.175 322.772 351.333 305.754 317.219H305.266C309.744 361.511 339.057 343.355 352.085 351.903C352.248 352.229 352.573 351.903 352.411 351.74Z" fill="white"/>
<path d="M405.337 402.789C389.052 380.807 359.577 384.226 362.752 360.534C362.752 360.534 362.752 360.534 363.241 360.534C369.836 375.759 397.602 361.104 405.826 402.708C405.907 402.789 405.5 402.789 405.337 402.789Z" fill="white"/>
<path d="M385.389 363.873C325.868 337.331 373.827 317.71 354.041 296.704C383.923 321.943 347.364 340.018 385.552 363.548C385.877 363.548 385.634 363.955 385.389 363.873Z" fill="white"/>
<path d="M426.997 367.863C419.751 340.263 370 357.849 376.188 320.397C376.188 320.397 376.596 320.397 376.677 320.397C386.367 353.778 431.883 317.873 427.486 367.944L426.997 367.863Z" fill="white"/>
<path d="M422.355 322.431C423.772 315.942 424.698 309.356 425.124 302.728C426.741 269.451 415.089 236.892 392.725 212.195C370.362 187.498 339.113 172.681 305.836 170.995C280.666 169.464 255.602 175.382 233.776 188.011H232.88L221.155 168.552C247.82 151.596 279.186 143.555 310.722 145.592C335.077 147.044 358.714 154.399 379.592 167.023C400.47 179.647 417.963 197.16 430.562 218.052C443.16 238.944 450.487 262.587 451.908 286.942C453.33 311.297 448.804 335.632 438.721 357.847C435.255 345.221 429.725 333.254 422.355 322.431Z" fill="white"/>
<path d="M266.021 494.548C263.405 494.12 260.893 493.209 258.611 491.861L259.832 485.185C261.753 486.76 264.057 487.799 266.509 488.197C269.196 488.197 270.988 488.197 271.232 486.569C271.476 484.94 269.929 484.045 266.835 482.091C262.357 479.323 259.425 476.718 260.321 471.67C261.217 466.622 265.695 463.528 272.861 465.075C275.729 465.6 278.484 466.619 281.003 468.087L279.782 475.171C277.921 473.644 275.756 472.534 273.431 471.914L271.151 471.425C268.789 471.425 267.324 471.425 267.161 472.809C266.998 474.193 268.545 475.415 271.802 477.288C275.059 479.16 279.049 482.498 278.153 487.79C277.257 493.082 272.616 495.688 266.021 494.548Z" fill="white"/>
<path d="M247.78 459.782L238.172 487.22L231.17 484.696L240.859 457.34L247.78 459.782Z" fill="white"/>
<path d="M199.009 469.715C196.184 468.18 193.758 466.005 191.925 463.364L195.263 457.584C196.993 460.03 199.246 462.06 201.858 463.527C203.759 464.672 206.036 465.014 208.189 464.48C209.255 464.215 210.259 463.744 211.142 463.091C212.026 462.439 212.773 461.618 213.34 460.678C213.906 459.737 214.282 458.694 214.445 457.607C214.609 456.521 214.557 455.414 214.292 454.348C214.028 453.282 213.556 452.278 212.903 451.394C212.251 450.511 211.43 449.765 210.489 449.198C209.624 448.671 208.694 448.261 207.721 447.976L204.138 454.246L198.032 450.663L203.975 440.242C207.456 440.548 210.824 441.633 213.828 443.417C215.73 444.292 217.43 445.551 218.821 447.116C220.211 448.68 221.263 450.517 221.908 452.508C222.553 454.499 222.779 456.603 222.57 458.686C222.361 460.769 221.723 462.786 220.695 464.61C219.668 466.434 218.272 468.024 216.599 469.282C214.925 470.54 213.009 471.437 210.971 471.917C208.933 472.396 206.818 472.448 204.759 472.069C202.7 471.69 200.742 470.889 199.009 469.715Z" fill="white"/>
<path d="M192.819 429.412L173.929 451.638L168.31 446.834L187.201 424.689L192.819 429.412Z" fill="white"/>
<path d="M175.476 413.292L153.247 432.181L148.525 426.482L165.95 411.664L159.11 403.522L163.833 399.532L175.476 413.292Z" fill="white"/>
<path d="M155.933 388.054L130.692 402.465L127.027 396.033L146.895 384.716L141.684 375.597L147.058 372.503L155.933 388.054Z" fill="white"/>
<path d="M113.431 368.922L111.232 361.919L127.517 356.628C128.229 356.49 128.903 356.195 129.487 355.765C130.071 355.335 130.552 354.78 130.895 354.141C131.238 353.502 131.435 352.794 131.47 352.069C131.506 351.345 131.379 350.621 131.1 349.951C130.948 349.242 130.639 348.576 130.194 348.004C129.748 347.431 129.179 346.967 128.529 346.646C127.878 346.325 127.164 346.155 126.439 346.149C125.714 346.144 124.997 346.302 124.342 346.613L108.057 351.905L105.777 344.822L123.283 339.286C126.522 338.271 130.032 338.584 133.04 340.157C136.048 341.729 138.309 344.432 139.324 347.671C140.339 350.91 140.025 354.42 138.452 357.428C136.88 360.436 134.176 362.696 130.937 363.711L113.431 368.922Z" fill="white"/>
<path d="M101.217 322.429L113.268 307.53L99.5884 294.096L128.983 292.386L129.39 299.47L114.652 300.365L116.362 302.156L121.818 307.204L116.932 312.904L115.466 314.939L130.286 314.043V321.045L101.217 322.429Z" fill="white"/>
<path d="M106.345 245.816L108.625 238.814L125.317 244.188C125.967 244.499 126.678 244.66 127.399 244.659C128.119 244.659 128.83 244.496 129.479 244.183C130.128 243.87 130.698 243.416 131.147 242.853C131.597 242.29 131.914 241.633 132.075 240.931C132.354 240.261 132.481 239.538 132.446 238.813C132.411 238.088 132.214 237.381 131.871 236.741C131.528 236.102 131.047 235.547 130.463 235.117C129.878 234.687 129.205 234.392 128.492 234.255L112.208 228.881L114.488 221.798L131.913 227.497C133.466 227.938 134.903 228.716 136.122 229.775C137.341 230.835 138.311 232.149 138.964 233.626C139.617 235.103 139.937 236.706 139.9 238.32C139.863 239.934 139.471 241.521 138.752 242.966C138.416 244.517 137.753 245.978 136.807 247.252C135.862 248.527 134.655 249.585 133.267 250.355C131.88 251.126 130.344 251.592 128.763 251.721C127.181 251.851 125.59 251.642 124.096 251.108L106.345 245.816Z" fill="white"/>
<path d="M123.527 200.795L142.417 195.096L145.349 194.119L132.891 185.977L136.718 179.789L161.797 195.259L142.824 201.039L139.975 202.016L152.433 210.158L148.606 216.345L123.527 200.876V200.795Z" fill="white"/>
<path d="M171.811 182.961L150.316 163.34L155.364 157.884L176.86 177.506L171.811 182.961Z" fill="white"/>
<path d="M174.418 140.137L182.56 144.289C185.166 145.755 187.69 147.057 189.562 148.36C189.562 147.301 188.015 142.661 187.527 140.218L185.654 131.506L192.087 126.622L198.112 159.189L168.555 144.696L174.418 140.137Z" fill="white"/>
<path d="M208.126 117.828L225.47 109.686L228.075 115.304L217.49 120.27L219.688 124.911L228.726 120.677L231.251 126.051L222.213 130.285L224.574 135.333L235.648 130.122L238.335 135.74L220.503 143.881L208.126 117.828Z" fill="white"/>
<path d="M251.852 131.018L245.256 102.685L255.516 100.323C262.274 98.6951 267.73 100.894 269.277 107.244C269.736 108.972 269.663 110.797 269.068 112.482C268.472 114.168 267.381 115.633 265.938 116.688L274.081 125.807L266.59 127.599L259.831 119.457L256.737 120.189L258.854 129.552L251.852 131.018ZM255.353 114.734L259.017 113.839C259.529 113.791 260.024 113.629 260.465 113.364C260.906 113.099 261.281 112.737 261.563 112.307C261.844 111.877 262.026 111.388 262.092 110.878C262.159 110.368 262.11 109.85 261.948 109.361C261.86 108.858 261.663 108.38 261.37 107.961C261.077 107.542 260.696 107.192 260.254 106.936C259.812 106.68 259.318 106.524 258.809 106.478C258.3 106.433 257.788 106.5 257.307 106.674L253.724 107.488L255.353 114.734Z" fill="white"/>
<path d="M297.287 94.542C299.914 94.4459 302.535 94.8323 305.022 95.6819V102.521C302.826 101.339 300.349 100.776 297.857 100.892C295.17 100.892 293.541 101.951 293.541 103.416C293.541 104.882 295.333 105.614 298.753 106.917C303.638 108.79 306.895 110.744 306.895 115.873C306.895 121.003 303.068 124.585 295.821 124.747C292.81 124.835 289.806 124.394 286.946 123.445V116.28C289.105 117.373 291.455 118.036 293.867 118.234H296.228C298.59 118.234 299.893 117.339 299.893 116.117C299.893 114.896 298.02 113.838 294.437 112.616C289.47 110.907 286.294 108.953 286.294 103.579C286.294 98.2056 290.61 94.7048 297.287 94.542Z" fill="white"/>
<path d="M322.041 125.321L326.031 96.4995L333.359 97.558L329.37 126.298L322.041 125.321Z" fill="white"/>
<path d="M351.924 101.055L373.827 108.057L371.873 114.001L364.545 111.64L357.542 133.459L350.458 131.18L357.705 109.686L350.295 107.325L351.924 101.055Z" fill="white"/>
<path d="M374.723 139.812L402 121.493L399.72 154.06L393.043 150.152L393.532 145.267L385.389 140.382L381.399 143.231L374.723 139.812ZM394.509 140.301C394.759 137.84 395.139 135.393 395.648 132.973L389.704 137.614L394.509 140.301Z" fill="white"/>
<path d="M427.892 139.323L444.91 154.792L440.757 159.351L434.976 154.141L419.668 171.075L414.131 166.109L429.52 149.174L423.739 143.964L427.892 139.323Z" fill="white"/>
<path d="M434.406 186.953L457.286 168.96L461.846 174.741L439.128 192.734L434.406 186.953Z" fill="white"/>
<path d="M478.863 200.304C480.22 202.567 481.08 205.092 481.388 207.713L475.444 210.969C475.448 208.485 474.802 206.044 473.571 203.886C472.349 201.525 470.721 200.466 469.418 201.199C468.115 201.932 468.197 203.805 468.604 207.387C469.255 212.598 469.092 216.587 464.533 219.03C459.973 221.472 455.088 219.599 451.586 213.249C450.134 210.738 449.167 207.976 448.736 205.107L455.006 201.688C455.016 204.115 455.486 206.518 456.39 208.771C456.721 209.476 457.102 210.156 457.53 210.806C458.752 212.76 459.973 213.656 461.032 213.086C462.09 212.516 462.172 210.4 461.683 206.573C460.95 201.444 461.194 197.698 465.917 195.174C470.639 192.65 475.688 194.442 478.863 200.304Z" fill="white"/>
<path d="M469.174 257.46L497.591 251.598L499.138 258.844L470.64 264.706L469.174 257.46Z" fill="white"/>
<path d="M502.966 289.293C503.118 292.049 502.76 294.809 501.908 297.435H495.068C496.214 295.198 496.747 292.698 496.615 290.189C496.615 287.502 495.557 285.874 494.091 285.955C492.625 286.037 491.811 287.746 490.59 291.166C488.798 296.132 486.925 299.308 481.714 299.715C476.503 300.122 473.002 296.051 472.676 288.805C472.543 285.791 472.986 282.779 473.979 279.93H481.063C480.034 282.108 479.4 284.451 479.19 286.851C479.148 287.61 479.148 288.371 479.19 289.13C479.19 291.491 480.167 292.875 481.307 292.794C482.447 292.713 483.587 290.922 484.808 287.258C486.03 283.594 488.391 279.116 493.684 279.116C498.976 279.116 502.722 282.698 502.966 289.293Z" fill="white"/>
<path d="M472.676 314.291L501.419 318.687L500.279 325.934L477.724 322.514L476.096 332.935L469.989 331.958L472.676 314.291Z" fill="white"/>
<path d="M467.709 342.624L490.264 366.479L457.694 369.654L460.381 362.49L465.267 362.083L468.686 352.964L465.267 349.463L467.709 342.624ZM470.477 362.164C472.92 362.164 476.015 362.164 477.887 362.164L472.35 357.116L470.477 362.164Z" fill="white"/>
<path d="M475.688 397.984L456.554 403.033C455.577 403.033 454.518 403.521 453.623 403.928L465.755 412.07L461.684 418.095L437.256 401.811L456.391 396.682L459.322 395.868L447.19 387.726L451.18 381.782L475.607 398.066L475.688 397.984Z" fill="white"/>
<path d="M427.159 414.027L447.27 435.359L440.105 441.953C438.766 443.538 437.106 444.821 435.235 445.716C433.363 446.612 431.323 447.1 429.249 447.148C427.174 447.196 425.113 446.803 423.202 445.996C421.291 445.188 419.573 443.983 418.163 442.462C416.752 440.941 415.68 439.138 415.018 437.172C414.356 435.206 414.119 433.121 414.323 431.057C414.527 428.992 415.167 426.995 416.2 425.196C417.234 423.397 418.638 421.838 420.319 420.622L427.159 414.027ZM424.309 425.181C422.689 426.682 421.732 428.765 421.648 430.971C421.564 433.178 422.36 435.327 423.861 436.946C425.362 438.566 427.445 439.523 429.651 439.607C431.858 439.691 434.007 438.895 435.627 437.394L437.255 435.847L425.937 423.635L424.309 425.181Z" fill="white"/>
<path d="M395.728 439.916L411.199 464.341L404.929 468.249L389.459 443.823L395.728 439.916Z" fill="white"/>
<path d="M378.305 450.665L375.617 483.232L351.19 461.086L358.355 458.237L361.938 461.656L370.976 458.074V453.189L378.305 450.665ZM365.846 465.809C367.638 467.6 369.755 469.798 370.976 471.263V463.773L365.846 465.809Z" fill="white"/>
<path d="M342.966 493L324.157 496.094L323.18 489.906L334.661 488.033L333.847 482.985L323.994 484.532L323.017 478.752L332.87 477.123L331.974 471.669L319.923 473.623L318.865 467.516L338.325 464.341L342.966 493Z" fill="white"/>
</svg>
