<?xml version="1.0" encoding="UTF-8" standalone="no"?>
<!-- Created with Inkscape (http://www.inkscape.org/) -->

<svg
   xmlns:dc="http://purl.org/dc/elements/1.1/"
   xmlns:cc="http://creativecommons.org/ns#"
   xmlns:rdf="http://www.w3.org/1999/02/22-rdf-syntax-ns#"
   xmlns:svg="http://www.w3.org/2000/svg"
   xmlns="http://www.w3.org/2000/svg"
   xmlns:sodipodi="http://sodipodi.sourceforge.net/DTD/sodipodi-0.dtd"
   xmlns:inkscape="http://www.inkscape.org/namespaces/inkscape"
   width="210mm"
   height="297mm"
   viewBox="0 0 210 297"
   version="1.1"
   id="svg8"
   inkscape:version="0.92.2 2405546, 2018-03-11"
   sodipodi:docname="jafnstaett.svg"
   inkscape:export-filename="/home/sigurdur/Dropbox/Kennsla/GreiningIV/Edbook/Edbook/Drawings/jafnstaett.png"
   inkscape:export-xdpi="96"
   inkscape:export-ydpi="96">
  <sodipodi:namedview
     id="base"
     pagecolor="#ffffff"
     bordercolor="#666666"
     borderopacity="1.0"
     inkscape:pageopacity="0.0"
     inkscape:pageshadow="2"
     inkscape:zoom="0.7"
     inkscape:cx="1075.5305"
     inkscape:cy="872.99952"
     inkscape:document-units="mm"
     inkscape:current-layer="layer1"
     showgrid="false"
     inkscape:window-width="1680"
     inkscape:window-height="994"
     inkscape:window-x="0"
     inkscape:window-y="402"
     inkscape:window-maximized="1" />
  <defs
     id="defs2">
    <marker
       inkscape:isstock="true"
       style="overflow:visible;"
       id="marker1200"
       refX="0.0"
       refY="0.0"
       orient="auto"
       inkscape:stockid="Arrow1Mend">
      <path
         transform="scale(0.4) rotate(180) translate(10,0)"
         style="fill-rule:evenodd;stroke:#000000;stroke-width:1pt;stroke-opacity:1;fill:#000000;fill-opacity:1"
         d="M 0.0,0.0 L 5.0,-5.0 L -12.5,0.0 L 5.0,5.0 L 0.0,0.0 z "
         id="path1198" />
    </marker>
    <marker
       inkscape:stockid="Arrow1Lend"
       orient="auto"
       refY="0.0"
       refX="0.0"
       id="Arrow1Lend"
       style="overflow:visible;"
       inkscape:isstock="true">
      <path
         id="path835"
         d="M 0.0,0.0 L 5.0,-5.0 L -12.5,0.0 L 5.0,5.0 L 0.0,0.0 z "
         style="fill-rule:evenodd;stroke:#000000;stroke-width:1pt;stroke-opacity:1;fill:#000000;fill-opacity:1"
         transform="scale(0.8) rotate(180) translate(12.5,0)" />
    </marker>
    <marker
       inkscape:stockid="Arrow1Mend"
       orient="auto"
       refY="0.0"
       refX="0.0"
       id="marker1116"
       style="overflow:visible;"
       inkscape:isstock="true"
       inkscape:collect="always">
      <path
         id="path1114"
         d="M 0.0,0.0 L 5.0,-5.0 L -12.5,0.0 L 5.0,5.0 L 0.0,0.0 z "
         style="fill-rule:evenodd;stroke:#000000;stroke-width:1pt;stroke-opacity:1;fill:#000000;fill-opacity:1"
         transform="scale(0.4) rotate(180) translate(10,0)" />
    </marker>
    <marker
       inkscape:stockid="Arrow1Mend"
       orient="auto"
       refY="0.0"
       refX="0.0"
       id="Arrow1Mend"
       style="overflow:visible;"
       inkscape:isstock="true">
      <path
         id="path841"
         d="M 0.0,0.0 L 5.0,-5.0 L -12.5,0.0 L 5.0,5.0 L 0.0,0.0 z "
         style="fill-rule:evenodd;stroke:#000000;stroke-width:1pt;stroke-opacity:1;fill:#ffffff;fill-opacity:1"
         transform="scale(0.4) rotate(180) translate(10,0)" />
    </marker>
  </defs>
  <metadata
     id="metadata5">
    <rdf:RDF>
      <cc:Work
         rdf:about="">
        <dc:format>image/svg+xml</dc:format>
        <dc:type
           rdf:resource="http://purl.org/dc/dcmitype/StillImage" />
        <dc:title></dc:title>
      </cc:Work>
    </rdf:RDF>
  </metadata>
  <g
     inkscape:label="Layer 1"
     inkscape:groupmode="layer"
     id="layer1">
    <flowRoot
       style="fill:black;fill-opacity:1;stroke:none;font-family:sans-serif;font-style:normal;font-weight:normal;font-size:13.33333333px;line-height:1.25;letter-spacing:0px;word-spacing:0px"
       id="flowRoot1718"
       xml:space="preserve"><flowRegion
         id="flowRegion1720"><rect
           y="330.05499"
           x="346.9874"
           height="48.487324"
           width="108.5914"
           id="rect1722" /></flowRegion><flowPara
         id="flowPara1724" /></flowRoot>    <rect
       style="opacity:1;fill:none;fill-opacity:1;stroke:none;stroke-width:1.07385325;stroke-miterlimit:4;stroke-dasharray:1.07385334, 2.1477066;stroke-dashoffset:0;stroke-opacity:1"
       id="rect3195"
       width="383.26785"
       height="134.55147"
       x="28.726191"
       y="30.90476"
       inkscape:export-xdpi="199"
       inkscape:export-ydpi="199" />
    <g
       id="g4142"
       inkscape:export-xdpi="199"
       inkscape:export-ydpi="199"
       transform="matrix(2.3971631,0,0,2.3971631,-40.135175,-43.178992)">
      <path
         inkscape:connector-curvature="0"
         id="path2139-2"
         d="M 114.92589,52.680088 V 69.553623"
         style="opacity:1;fill:none;fill-opacity:1;stroke:#808080;stroke-width:0.5;stroke-miterlimit:4;stroke-dasharray:0.50000002, 1.00000004;stroke-dashoffset:0;stroke-opacity:1" />
      <path
         style="opacity:1;fill:none;fill-opacity:1;stroke:#ff0000;stroke-width:0.5;stroke-miterlimit:4;stroke-dasharray:none;stroke-dashoffset:0;stroke-opacity:1"
         d="m 137.64381,56.85832 c 0,0 -4.94449,8.95353 -6.81537,4.009043 -1.87089,-4.944484 -4.81085,10.824418 -10.28989,3.0736 -5.47902,-7.750816 -5.74629,-12.962574 -5.74629,-12.962574"
         id="path1860-8-2"
         inkscape:connector-curvature="0" />
      <path
         inkscape:connector-curvature="0"
         id="path2139"
         d="M 69.089174,50.978389 V 67.851924"
         style="opacity:1;fill:none;fill-opacity:1;stroke:#808080;stroke-width:0.5;stroke-miterlimit:4;stroke-dasharray:0.50000001, 1.00000003;stroke-dashoffset:0;stroke-opacity:1" />
      <path
         style="opacity:1;fill:none;fill-opacity:1;stroke:#ff0000;stroke-width:0.5;stroke-miterlimit:4;stroke-dasharray:none;stroke-dashoffset:0;stroke-opacity:1"
         d="m 91.940718,56.85832 c 0,0 -4.944485,8.95353 -6.815372,4.009043 -1.87089,-4.944484 -4.810851,10.824418 -10.289881,3.0736 -5.47902,-7.750816 -5.74629,-12.962574 -5.74629,-12.962574"
         id="path1860-8"
         inkscape:connector-curvature="0" />
      <path
         inkscape:connector-curvature="0"
         id="path815"
         d="M 35.947751,67.950014 H 185.14361"
         style="opacity:1;fill:#000000;fill-opacity:1;stroke:#000000;stroke-width:0.55020332;stroke-miterlimit:4;stroke-dasharray:none;stroke-dashoffset:0;stroke-opacity:1;marker-end:url(#marker1200)" />
      <path
         sodipodi:nodetypes="cc"
         inkscape:connector-curvature="0"
         id="path815-3"
         d="M 91.940719,85.322534 V 36.144942"
         style="opacity:1;fill:#000000;fill-opacity:1;stroke:#000000;stroke-width:0.5;stroke-miterlimit:4;stroke-dasharray:none;stroke-dashoffset:0;stroke-opacity:1;marker-end:url(#marker1116)" />
      <path
         style="opacity:1;fill:#000000;fill-opacity:1;stroke:#000000;stroke-width:0.5;stroke-miterlimit:4;stroke-dasharray:none;stroke-dashoffset:0;stroke-opacity:1"
         d="m 114.92589,66.212754 v 3.340869"
         id="path1726"
         inkscape:connector-curvature="0" />
      <g
         id="g1755"
         transform="matrix(0.28033173,0,0,0.28033173,40.798752,44.677659)">
        <g
           id="g1753"
           transform="matrix(0.3,0,0,-0.3,-52.5,222.75)"
           xml:space="preserve"
           stroke-miterlimit="10.433"
           font-style="normal"
           font-variant="normal"
           font-weight="normal"
           font-stretch="normal"
           font-size-adjust="none"
           letter-spacing="normal"
           word-spacing="normal"
           style="font-style:normal;font-variant:normal;font-weight:normal;font-stretch:normal;letter-spacing:normal;word-spacing:normal;text-anchor:start;fill:none;fill-opacity:1;fill-rule:evenodd;stroke:#000000;stroke-linecap:butt;stroke-linejoin:miter;stroke-miterlimit:10.43299961;stroke-dasharray:none;stroke-dashoffset:0;stroke-opacity:1"><path
             d="m 488.35,417.65 h 0.16 0.16 l 0.15,0.01 h 0.08 l 0.08,0.01 h 0.07 l 0.08,0.01 0.07,0.01 0.07,0.01 0.07,0.02 0.07,0.02 0.07,0.02 0.06,0.02 0.06,0.02 0.06,0.03 0.05,0.03 0.06,0.04 0.05,0.03 0.04,0.05 0.04,0.04 0.04,0.05 0.02,0.03 0.02,0.03 0.01,0.03 0.02,0.03 0.01,0.03 0.02,0.03 0.01,0.04 0.01,0.03 0.01,0.04 v 0.04 l 0.01,0.04 0.01,0.04 v 0.04 l 0.01,0.04 v 0.05 0.04 c 0,1 -0.91,1 -1.75,1 h -26.96 c -0.84,0 -1.73,0 -1.73,-1 0,-1 0.89,-1 1.73,-1 z"
             id="path1749"
             inkscape:connector-curvature="0"
             style="fill:#000000;stroke-width:0" /><path
             d="m 512.92,436.34 0.04,0.16 0.04,0.16 0.04,0.15 0.04,0.15 0.04,0.13 0.05,0.13 0.04,0.13 0.06,0.11 0.06,0.12 0.06,0.1 0.07,0.1 0.09,0.09 0.08,0.09 0.1,0.08 0.11,0.08 0.12,0.07 0.14,0.06 0.15,0.06 0.16,0.06 0.17,0.05 0.1,0.02 0.1,0.02 0.1,0.02 0.11,0.02 0.11,0.02 0.11,0.02 0.12,0.02 0.13,0.01 0.13,0.01 0.13,0.02 0.14,0.01 0.15,0.01 0.15,0.01 0.16,0.01 0.16,0.01 0.16,0.01 h 0.18 l 0.18,0.01 h 0.18 l 0.19,0.01 h 0.2 0.2 0.21 0.22 c 1.48,0 1.89,0 1.89,0.96 0,0.59 -0.55,0.59 -0.8,0.59 -1.65,0 -5.73,-0.16 -7.37,-0.16 -1.5,0 -5.14,0.16 -6.63,0.16 -0.36,0 -0.95,0 -0.95,-1 0,-0.55 0.45,-0.55 1.39,-0.55 0.11,0 1.05,0 1.91,-0.09 0.89,-0.11 1.34,-0.16 1.34,-0.8 0,-0.2 -0.06,-0.36 -0.2,-0.95 l -6.67,-26.75 c -0.5,-1.95 -0.61,-2.34 -4.55,-2.34 -0.85,0 -1.35,0 -1.35,-1 0,-0.55 0.46,-0.55 1.35,-0.55 h 23.08 c 1.18,0 1.23,0 1.54,0.84 l 3.92,10.77 c 0.21,0.55 0.21,0.64 0.21,0.7 0,0.19 -0.14,0.55 -0.59,0.55 -0.46,0 -0.5,-0.25 -0.85,-1.05 -1.7,-4.59 -3.89,-10.26 -12.52,-10.26 h -4.67 c -0.7,0 -0.79,0 -1.09,0.04 -0.5,0.05 -0.66,0.1 -0.66,0.5 0,0.14 0,0.25 0.25,1.14 z"
             id="path1751"
             inkscape:connector-curvature="0"
             style="fill:#000000;stroke-width:0" /></g>      </g>
      <g
         id="g1813"
         transform="matrix(0.28033173,0,0,0.28033173,89.831863,44.677659)">
        <g
           word-spacing="normal"
           letter-spacing="normal"
           font-size-adjust="none"
           font-stretch="normal"
           font-weight="normal"
           font-variant="normal"
           font-style="normal"
           stroke-miterlimit="10.433"
           xml:space="preserve"
           transform="matrix(0.3,0,0,-0.3,-52.5,222.75)"
           id="g1811"
           style="font-style:normal;font-variant:normal;font-weight:normal;font-stretch:normal;letter-spacing:normal;word-spacing:normal;text-anchor:start;fill:none;fill-opacity:1;fill-rule:evenodd;stroke:#000000;stroke-linecap:butt;stroke-linejoin:miter;stroke-miterlimit:10.43299961;stroke-dasharray:none;stroke-dashoffset:0;stroke-opacity:1"><path
             id="path1809"
             d="m 474.16,436.34 0.04,0.16 0.04,0.16 0.04,0.15 0.04,0.15 0.04,0.13 0.05,0.13 0.05,0.13 0.05,0.11 0.06,0.12 0.06,0.1 0.08,0.1 0.08,0.09 0.09,0.09 0.1,0.08 0.11,0.08 0.12,0.07 0.13,0.06 0.15,0.06 0.16,0.06 0.18,0.05 0.09,0.02 0.1,0.02 0.1,0.02 0.11,0.02 0.11,0.02 0.11,0.02 0.12,0.02 0.13,0.01 0.13,0.01 0.14,0.02 0.14,0.01 0.14,0.01 0.15,0.01 0.16,0.01 0.16,0.01 0.17,0.01 h 0.17 l 0.18,0.01 h 0.18 l 0.19,0.01 h 0.2 0.2 0.21 0.22 c 1.49,0 1.89,0 1.89,0.96 0,0.59 -0.54,0.59 -0.79,0.59 -1.66,0 -5.74,-0.16 -7.38,-0.16 -1.5,0 -5.14,0.16 -6.62,0.16 -0.36,0 -0.96,0 -0.96,-1 0,-0.55 0.46,-0.55 1.39,-0.55 0.11,0 1.05,0 1.91,-0.09 0.89,-0.11 1.34,-0.16 1.34,-0.8 0,-0.2 -0.06,-0.36 -0.2,-0.95 l -6.67,-26.75 c -0.5,-1.95 -0.61,-2.34 -4.55,-2.34 -0.84,0 -1.34,0 -1.34,-1 0,-0.55 0.45,-0.55 1.34,-0.55 h 23.08 c 1.19,0 1.23,0 1.55,0.84 l 3.92,10.77 c 0.2,0.55 0.2,0.64 0.2,0.7 0,0.19 -0.14,0.55 -0.59,0.55 -0.46,0 -0.5,-0.25 -0.85,-1.05 -1.7,-4.59 -3.89,-10.26 -12.51,-10.26 h -4.67 c -0.71,0 -0.8,0 -1.1,0.04 -0.5,0.05 -0.65,0.1 -0.65,0.5 0,0.14 0,0.25 0.25,1.14 z"
             inkscape:connector-curvature="0"
             style="fill:#000000;stroke-width:0" /></g>      </g>
      <path
         style="opacity:1;fill:#000000;fill-opacity:1;stroke:#000000;stroke-width:0.5;stroke-miterlimit:4;stroke-dasharray:none;stroke-dashoffset:0;stroke-opacity:1"
         d="m 69.065332,66.212754 v 3.340869"
         id="path1726-6"
         inkscape:connector-curvature="0" />
      <path
         style="opacity:1;fill:none;fill-opacity:1;stroke:#000000;stroke-width:0.5;stroke-miterlimit:4;stroke-dasharray:none;stroke-dashoffset:0;stroke-opacity:1"
         d="m 91.940718,56.85832 c 0,0 4.944485,8.953529 6.815372,4.009043 1.87089,-4.944485 4.81085,10.824417 10.28988,3.073599 5.47902,-7.750815 5.74629,-12.962573 5.74629,-12.962573"
         id="path1860"
         inkscape:connector-curvature="0" />
      <path
         style="opacity:1;fill:#000000;fill-opacity:1;stroke:#000000;stroke-width:0.5;stroke-miterlimit:4;stroke-dasharray:none;stroke-dashoffset:0;stroke-opacity:1"
         d="m 160.45572,66.212754 v 3.340869"
         id="path1726-7"
         inkscape:connector-curvature="0" />
      <path
         sodipodi:nodetypes="csc"
         style="opacity:1;fill:none;fill-opacity:1;stroke:#ff0000;stroke-width:0.5;stroke-miterlimit:4;stroke-dasharray:none;stroke-dashoffset:0;stroke-opacity:1"
         d="m 46.237633,56.85832 c 0,0 -4.944481,8.953529 -6.815372,4.009043 -0.810437,-2.141864 -1.821482,-0.396921 -3.152625,1.639321"
         id="path1860-8-7"
         inkscape:connector-curvature="0" />
      <path
         style="opacity:1;fill:none;fill-opacity:1;stroke:#ff0000;stroke-width:0.5;stroke-miterlimit:4;stroke-dasharray:none;stroke-dashoffset:0;stroke-opacity:1"
         d="m 46.237633,56.85832 c 0,0 4.944486,8.953529 6.815373,4.009043 1.87089,-4.944485 4.81085,10.824417 10.289879,3.073599 5.479021,-7.750815 5.74629,-12.962573 5.74629,-12.962573"
         id="path1860-9"
         inkscape:connector-curvature="0" />
      <path
         style="opacity:1;fill:none;fill-opacity:1;stroke:#ff0000;stroke-width:0.5;stroke-miterlimit:4;stroke-dasharray:none;stroke-dashoffset:0;stroke-opacity:1"
         d="m 137.64381,56.85832 c 0,0 4.94448,8.953529 6.81537,4.009043 1.87089,-4.944485 4.81085,10.824417 10.28988,3.073599 5.47902,-7.750815 5.74629,-12.962573 5.74629,-12.962573"
         id="path1860-9-3"
         inkscape:connector-curvature="0" />
      <g
         style="fill:#ff0000"
         transform="matrix(0.31484744,0,0,0.31484744,113.93715,23.560996)"
         id="g2239">
        <g
           style="font-style:normal;font-variant:normal;font-weight:normal;font-stretch:normal;letter-spacing:normal;word-spacing:normal;text-anchor:start;fill:#ff0000;fill-opacity:1;fill-rule:evenodd;stroke:#000000;stroke-linecap:butt;stroke-linejoin:miter;stroke-miterlimit:10.43299961;stroke-dasharray:none;stroke-dashoffset:0;stroke-opacity:1"
           word-spacing="normal"
           letter-spacing="normal"
           font-size-adjust="none"
           font-stretch="normal"
           font-weight="normal"
           font-variant="normal"
           font-style="normal"
           stroke-miterlimit="10.433"
           xml:space="preserve"
           transform="matrix(0.3,0,0,-0.3,-52.5,222.75)"
           id="g2237"><path
             style="fill:#ff0000;stroke-width:0"
             inkscape:connector-curvature="0"
             id="path2227"
             d="m 473.8,426.12 h 4.28 c 1,0 1.5,0 1.5,1 0,0.55 -0.5,0.55 -1.34,0.55 h -4.14 l 1.04,5.69 c 0.21,1.04 0.91,4.57 1.21,5.17 0.45,0.95 1.29,1.7 2.34,1.7 0.19,0 1.49,0 2.44,-0.91 -2.19,-0.18 -2.69,-1.93 -2.69,-2.68 0,-1.14 0.89,-1.74 1.85,-1.74 1.29,0 2.73,1.1 2.73,2.99 0,2.29 -2.3,3.43 -4.33,3.43 -1.7,0 -4.84,-0.89 -6.33,-5.82 -0.29,-1.05 -0.45,-1.55 -1.64,-7.83 h -3.43 c -0.96,0 -1.5,0 -1.5,-0.94 0,-0.61 0.45,-0.61 1.39,-0.61 h 3.29 l -3.75,-19.67 c -0.89,-4.83 -1.73,-9.38 -4.33,-9.38 -0.2,0 -1.43,0 -2.39,0.91 2.3,0.14 2.74,1.94 2.74,2.69 0,1.14 -0.89,1.75 -1.85,1.75 -1.29,0 -2.73,-1.1 -2.73,-3 0,-2.24 2.19,-3.44 4.23,-3.44 2.74,0 4.74,2.94 5.63,4.84 1.59,3.14 2.75,9.16 2.8,9.52 z" /><path
             style="fill:#ff0000;stroke-width:0"
             inkscape:connector-curvature="0"
             id="path2229"
             d="m 500.68,419.87 0.02,0.11 0.03,0.11 0.03,0.1 0.02,0.09 0.03,0.09 0.03,0.09 0.03,0.08 0.02,0.07 0.03,0.07 0.04,0.06 0.03,0.07 0.04,0.05 0.04,0.05 0.05,0.05 0.04,0.05 0.06,0.04 0.05,0.03 0.07,0.04 0.07,0.03 0.07,0.03 0.08,0.02 0.09,0.02 0.09,0.02 0.05,0.01 0.06,0.01 h 0.05 l 0.06,0.01 0.06,0.01 h 0.06 l 0.06,0.01 h 0.06 0.07 l 0.07,0.01 h 0.07 0.08 0.07 l 0.08,0.01 h 0.09 0.08 0.09 0.09 c 0.4,0 0.89,0 0.89,0.73 0,0.38 -0.27,0.52 -0.52,0.52 -0.82,0 -2.92,-0.14 -3.76,-0.14 -0.74,0 -1.91,0.03 -2.69,0.03 -0.86,0.05 -1.87,0.11 -2.75,0.11 -0.23,0 -0.77,0 -0.77,-0.74 0,-0.51 0.32,-0.51 1.36,-0.51 0.82,0 0.94,0 1.82,-0.08 1.01,-0.09 1.12,-0.2 1.12,-0.62 0,-0.24 0,-0.32 -0.14,-0.8 l -4.01,-15.95 c -0.66,-2.63 -2.9,-4.82 -5.16,-4.82 -0.49,0 -2.69,0.11 -3.49,1.82 2.02,0 2.47,1.64 2.47,2.26 0,0.97 -0.82,1.5 -1.59,1.5 -0.94,0 -2.34,-0.76 -2.34,-2.72 0,-2.26 2.12,-3.84 5.06,-3.84 3.4,0 7.28,2.2 8.15,5.69 z" /><path
             style="fill:#ff0000;stroke-width:0"
             inkscape:connector-curvature="0"
             id="path2231"
             d="m 524.2,394.25 v 0.02 0.03 0.01 0.02 l -0.01,0.01 v 0.02 l -0.01,0.01 v 0.02 l -0.01,0.02 -0.01,0.02 -0.01,0.02 -0.02,0.03 -0.01,0.02 -0.02,0.03 -0.02,0.03 -0.03,0.03 -0.02,0.03 -0.03,0.04 -0.02,0.02 -0.02,0.02 -0.01,0.02 -0.02,0.02 -0.02,0.02 -0.02,0.03 -0.02,0.02 -0.02,0.02 -0.03,0.03 -0.02,0.02 -0.02,0.03 -0.03,0.03 -0.03,0.03 -0.02,0.03 -0.03,0.03 -0.03,0.03 -0.03,0.03 -0.04,0.03 -0.03,0.04 -0.03,0.03 -0.04,0.04 -0.03,0.03 -0.04,0.04 -0.04,0.04 c -6.22,6.28 -7.81,15.69 -7.81,23.31 0,8.67 1.89,17.35 8.01,23.56 0.64,0.61 0.64,0.71 0.64,0.86 0,0.35 -0.18,0.49 -0.48,0.49 -0.5,0 -4.99,-3.38 -7.92,-9.7 -2.55,-5.49 -3.14,-11.02 -3.14,-15.21 0,-3.89 0.54,-9.9 3.28,-15.54 2.98,-6.13 7.28,-9.36 7.78,-9.36 0.3,0 0.48,0.14 0.48,0.5 z" /><path
             style="fill:#ff0000;stroke-width:0"
             inkscape:connector-curvature="0"
             id="path2233"
             d="m 543.68,421.25 0.03,0.13 0.03,0.15 0.04,0.16 0.05,0.18 0.05,0.19 0.06,0.21 0.07,0.22 0.07,0.22 0.08,0.23 0.09,0.24 0.09,0.25 0.11,0.24 0.11,0.25 0.12,0.25 0.13,0.25 0.13,0.25 0.15,0.24 0.16,0.24 0.16,0.23 0.18,0.22 0.19,0.22 0.2,0.2 0.21,0.19 0.22,0.18 0.23,0.16 0.24,0.14 0.13,0.07 0.13,0.06 0.13,0.05 0.14,0.05 0.14,0.05 0.14,0.04 0.15,0.03 0.14,0.03 0.16,0.02 0.15,0.02 0.16,0.01 h 0.16 c 0.25,0 1.44,0 2.49,-0.64 -1.39,-0.25 -2.39,-1.5 -2.39,-2.69 0,-0.79 0.54,-1.75 1.89,-1.75 1.09,0 2.68,0.89 2.68,2.89 0,2.6 -2.93,3.28 -4.62,3.28 -2.89,0 -4.64,-2.64 -5.23,-3.78 -1.25,3.28 -3.94,3.78 -5.38,3.78 -5.19,0 -8.03,-6.42 -8.03,-7.67 0,-0.5 0.5,-0.5 0.61,-0.5 0.39,0 0.55,0.11 0.64,0.55 1.69,5.28 4.98,6.53 6.67,6.53 0.96,0 2.69,-0.44 2.69,-3.33 0,-1.54 -0.85,-4.89 -2.69,-11.86 -0.79,-3.09 -2.53,-5.18 -4.73,-5.18 -0.3,0 -1.44,0 -2.49,0.65 1.25,0.24 2.35,1.28 2.35,2.69 0,1.34 -1.1,1.73 -1.85,1.73 -1.5,0 -2.75,-1.29 -2.75,-2.89 0,-2.28 2.5,-3.28 4.69,-3.28 3.3,0 5.08,3.49 5.24,3.78 0.59,-1.84 2.38,-3.78 5.37,-3.78 5.14,0 7.98,6.42 7.98,7.67 0,0.5 -0.45,0.5 -0.6,0.5 -0.44,0 -0.55,-0.2 -0.65,-0.54 -1.64,-5.33 -5.03,-6.53 -6.62,-6.53 -1.95,0 -2.75,1.59 -2.75,3.29 0,1.1 0.3,2.19 0.86,4.38 z" /><path
             style="fill:#ff0000;stroke-width:0"
             inkscape:connector-curvature="0"
             id="path2235"
             d="m 569.86,418.65 v 0.37 0.39 l -0.01,0.39 -0.02,0.41 -0.04,0.84 -0.06,0.88 -0.08,0.92 -0.1,0.95 -0.14,0.97 -0.16,1.01 -0.2,1.02 -0.23,1.03 -0.27,1.05 -0.3,1.06 -0.35,1.07 -0.39,1.07 -0.22,0.53 -0.22,0.53 -0.24,0.53 -0.25,0.53 c -2.98,6.12 -7.26,9.36 -7.76,9.36 -0.3,0 -0.5,-0.19 -0.5,-0.49 0,-0.15 0,-0.25 0.93,-1.15 4.9,-4.92 7.74,-12.85 7.74,-23.27 0,-8.51 -1.84,-17.28 -8.03,-23.56 -0.64,-0.59 -0.64,-0.7 -0.64,-0.84 0,-0.3 0.2,-0.5 0.5,-0.5 0.5,0 4.96,3.39 7.92,9.71 2.53,5.47 3.12,11 3.12,15.19 z" /></g>      </g>
      <g
         transform="matrix(0.31484744,0,0,0.31484744,75.855501,26.032634)"
         id="g2349">
        <g
           style="font-style:normal;font-variant:normal;font-weight:normal;font-stretch:normal;letter-spacing:normal;word-spacing:normal;text-anchor:start;fill:none;fill-opacity:1;fill-rule:evenodd;stroke:#000000;stroke-linecap:butt;stroke-linejoin:miter;stroke-miterlimit:10.43299961;stroke-dasharray:none;stroke-dashoffset:0;stroke-opacity:1"
           id="g2347"
           transform="matrix(0.3,0,0,-0.3,-52.5,222.75)"
           xml:space="preserve"
           stroke-miterlimit="10.433"
           font-style="normal"
           font-variant="normal"
           font-weight="normal"
           font-stretch="normal"
           font-size-adjust="none"
           letter-spacing="normal"
           word-spacing="normal"><path
             style="fill:#000000;stroke-width:0"
             inkscape:connector-curvature="0"
             d="m 473.8,426.12 h 4.28 c 1,0 1.5,0 1.5,1 0,0.55 -0.5,0.55 -1.34,0.55 h -4.14 l 1.04,5.69 c 0.21,1.04 0.91,4.57 1.21,5.17 0.45,0.95 1.29,1.7 2.34,1.7 0.19,0 1.49,0 2.44,-0.91 -2.19,-0.18 -2.69,-1.93 -2.69,-2.68 0,-1.14 0.89,-1.74 1.85,-1.74 1.29,0 2.73,1.1 2.73,2.99 0,2.29 -2.3,3.43 -4.33,3.43 -1.7,0 -4.84,-0.89 -6.33,-5.82 -0.29,-1.05 -0.45,-1.55 -1.64,-7.83 h -3.43 c -0.96,0 -1.5,0 -1.5,-0.94 0,-0.61 0.45,-0.61 1.39,-0.61 h 3.29 l -3.75,-19.67 c -0.89,-4.83 -1.73,-9.38 -4.33,-9.38 -0.2,0 -1.43,0 -2.39,0.91 2.3,0.14 2.74,1.94 2.74,2.69 0,1.14 -0.89,1.75 -1.85,1.75 -1.29,0 -2.73,-1.1 -2.73,-3 0,-2.24 2.19,-3.44 4.23,-3.44 2.74,0 4.74,2.94 5.63,4.84 1.59,3.14 2.75,9.16 2.8,9.52 z"
             id="path2339" /><path
             style="fill:#000000;stroke-width:0"
             inkscape:connector-curvature="0"
             d="m 501.77,394.25 v 0.02 l -0.01,0.03 v 0.01 0.02 0.01 l -0.01,0.02 v 0.01 l -0.01,0.02 -0.01,0.02 -0.01,0.02 -0.01,0.02 -0.01,0.03 -0.02,0.02 -0.02,0.03 -0.02,0.03 -0.02,0.03 -0.03,0.03 -0.03,0.04 -0.02,0.02 -0.01,0.02 -0.02,0.02 -0.02,0.02 -0.02,0.02 -0.02,0.03 -0.02,0.02 -0.02,0.02 -0.02,0.03 -0.03,0.02 -0.02,0.03 -0.03,0.03 -0.02,0.03 -0.03,0.03 -0.03,0.03 -0.03,0.03 -0.03,0.03 -0.03,0.03 -0.04,0.04 -0.03,0.03 -0.03,0.04 -0.04,0.03 -0.04,0.04 -0.04,0.04 c -6.22,6.28 -7.81,15.69 -7.81,23.31 0,8.67 1.89,17.35 8.01,23.56 0.65,0.61 0.65,0.71 0.65,0.86 0,0.35 -0.19,0.49 -0.49,0.49 -0.5,0 -4.98,-3.38 -7.92,-9.7 -2.55,-5.49 -3.14,-11.02 -3.14,-15.21 0,-3.89 0.55,-9.9 3.28,-15.54 2.98,-6.13 7.28,-9.36 7.78,-9.36 0.3,0 0.49,0.14 0.49,0.5 z"
             id="path2341" /><path
             style="fill:#000000;stroke-width:0"
             inkscape:connector-curvature="0"
             d="m 521.24,421.25 0.03,0.13 0.03,0.15 0.05,0.16 0.04,0.18 0.05,0.19 0.06,0.21 0.07,0.22 0.07,0.22 0.08,0.23 0.09,0.24 0.09,0.25 0.11,0.24 0.11,0.25 0.12,0.25 0.13,0.25 0.14,0.25 0.14,0.24 0.16,0.24 0.17,0.23 0.17,0.22 0.19,0.22 0.2,0.2 0.21,0.19 0.22,0.18 0.23,0.16 0.25,0.14 0.12,0.07 0.13,0.06 0.14,0.05 0.13,0.05 0.14,0.05 0.14,0.04 0.15,0.03 0.15,0.03 0.15,0.02 0.15,0.02 0.16,0.01 h 0.17 c 0.25,0 1.43,0 2.48,-0.64 -1.39,-0.25 -2.39,-1.5 -2.39,-2.69 0,-0.79 0.55,-1.75 1.89,-1.75 1.09,0 2.69,0.89 2.69,2.89 0,2.6 -2.94,3.28 -4.63,3.28 -2.89,0 -4.64,-2.64 -5.23,-3.78 -1.25,3.28 -3.94,3.78 -5.38,3.78 -5.18,0 -8.03,-6.42 -8.03,-7.67 0,-0.5 0.5,-0.5 0.61,-0.5 0.39,0 0.55,0.11 0.64,0.55 1.69,5.28 4.99,6.53 6.67,6.53 0.96,0 2.69,-0.44 2.69,-3.33 0,-1.54 -0.84,-4.89 -2.69,-11.86 -0.79,-3.09 -2.53,-5.18 -4.73,-5.18 -0.3,0 -1.44,0 -2.48,0.65 1.25,0.24 2.34,1.28 2.34,2.69 0,1.34 -1.09,1.73 -1.84,1.73 -1.5,0 -2.75,-1.29 -2.75,-2.89 0,-2.28 2.5,-3.28 4.68,-3.28 3.3,0 5.08,3.49 5.24,3.78 0.59,-1.84 2.39,-3.78 5.37,-3.78 5.14,0 7.99,6.42 7.99,7.67 0,0.5 -0.46,0.5 -0.61,0.5 -0.44,0 -0.55,-0.2 -0.64,-0.54 -1.64,-5.33 -5.04,-6.53 -6.63,-6.53 -1.95,0 -2.75,1.59 -2.75,3.29 0,1.1 0.3,2.19 0.86,4.38 z"
             id="path2343" /><path
             style="fill:#000000;stroke-width:0"
             inkscape:connector-curvature="0"
             d="m 547.43,418.65 -0.01,0.37 v 0.39 l -0.01,0.39 -0.01,0.41 -0.04,0.84 -0.06,0.88 -0.08,0.92 -0.11,0.95 -0.14,0.97 -0.16,1.01 -0.2,1.02 -0.23,1.03 -0.26,1.05 -0.31,1.06 -0.35,1.07 -0.39,1.07 -0.21,0.53 -0.23,0.53 -0.24,0.53 -0.24,0.53 c -2.99,6.12 -7.27,9.36 -7.77,9.36 -0.3,0 -0.5,-0.19 -0.5,-0.49 0,-0.15 0,-0.25 0.94,-1.15 4.89,-4.92 7.73,-12.85 7.73,-23.27 0,-8.51 -1.84,-17.28 -8.03,-23.56 -0.64,-0.59 -0.64,-0.7 -0.64,-0.84 0,-0.3 0.2,-0.5 0.5,-0.5 0.5,0 4.97,3.39 7.92,9.71 2.53,5.47 3.13,11 3.13,15.19 z"
             id="path2345" /></g>      </g>
      <path
         sodipodi:nodetypes="cssc"
         style="opacity:1;fill:none;fill-opacity:1;stroke:#ff0000;stroke-width:0.5;stroke-miterlimit:4;stroke-dasharray:none;stroke-dashoffset:0;stroke-opacity:1"
         d="m 178.42807,62.317946 c -0.74333,0.166966 -1.41975,-0.190481 -1.89655,-1.450583 -1.87089,-4.944485 -4.81085,10.824419 -10.28988,3.073601 -5.47902,-7.750817 -5.74629,-12.962575 -5.74629,-12.962575"
         id="path1860-8-9"
         inkscape:connector-curvature="0" />
    </g>
  </g>
</svg>
