<?xml version="1.0" encoding="UTF-8" standalone="no"?>
<svg
   width="1362.5974"
   height="509.142"
   viewBox="0 0 1362.5974 509.142"
   fill="none"
   version="1.1"
   id="svg3213"
   sodipodi:docname="haskoli_islands-edbook.svg"
   inkscape:version="1.2.2 (732a01da63, 2022-12-09)"
   xmlns:inkscape="http://www.inkscape.org/namespaces/inkscape"
   xmlns:sodipodi="http://sodipodi.sourceforge.net/DTD/sodipodi-0.dtd"
   xmlns="http://www.w3.org/2000/svg"
   xmlns:svg="http://www.w3.org/2000/svg">
  <sodipodi:namedview
     id="namedview3215"
     pagecolor="#ffffff"
     bordercolor="#000000"
     borderopacity="0.25"
     inkscape:showpageshadow="2"
     inkscape:pageopacity="0.0"
     inkscape:pagecheckerboard="0"
     inkscape:deskcolor="#d1d1d1"
     showgrid="false"
     inkscape:zoom="0.88546256"
     inkscape:cx="681"
     inkscape:cy="450.61194"
     inkscape:window-width="3440"
     inkscape:window-height="1369"
     inkscape:window-x="-8"
     inkscape:window-y="-8"
     inkscape:window-maximized="1"
     inkscape:current-layer="svg3213" />
  <g
     clip-path="url(#clip0_1_244)"
     id="g3206"
     transform="matrix(0.6986007,0,0,0.6986007,205.89394,226.39956)">
    <path
       d="m 432.526,32.0646 h 35.063 V 85.3518 H 518.57 V 32.0646 h 35.294 V 170.242 H 518.57 v -55.363 h -50.981 v 55.363 h -35.063 z"
       fill="#c4c4c4"
       id="path3106" />
    <path
       d="m 432.526,32.0646 h 35.063 V 85.3518 H 518.57 V 32.0646 h 35.294 V 170.242 H 518.57 v -55.363 h -50.981 v 55.363 h -35.063 z"
       fill="#ffffff"
       id="path3108" />
    <path
       d="M 581.084,170.242 649.827,30.2191 h 1.615 l 68.743,140.0229 h -36.679 l -9.688,-21.222 h -46.367 l -9.689,21.222 z m 82.815,-44.752 c -4.845,-10.842 -10.381,-24.683 -13.149,-32.9871 -1.846,4.6136 -9.458,24.2211 -13.149,32.9871 z M 638.985,23.9908 649.827,0 h 30.911 l -20.069,23.9908 z"
       fill="#c4c4c4"
       id="path3110" />
    <path
       d="M 581.084,170.242 649.827,30.2191 h 1.615 l 68.743,140.0229 h -36.679 l -9.688,-21.222 h -46.367 l -9.689,21.222 z m 82.815,-44.752 c -4.845,-10.842 -10.381,-24.683 -13.149,-32.9871 -1.846,4.6136 -9.458,24.2211 -13.149,32.9871 z M 638.985,23.9908 649.827,0 h 30.911 l -20.069,23.9908 z"
       fill="#ffffff"
       id="path3112" />
    <path
       d="m 791.696,29.2964 c 13.84,0 27.681,2.7682 36.908,6.4591 v 32.526 c -8.304,-5.075 -21.222,-8.5352 -33.91,-8.5352 -12.687,0 -20.761,4.3829 -20.761,11.3033 0,6.4591 8.074,10.842 24.222,17.5317 23.298,9.2273 39.215,18.9157 39.215,43.5987 0,25.605 -19.146,40.83 -53.518,40.83 -15.686,0 -31.372,-2.998 -41.753,-7.381 v -33.91 c 9.689,5.075 21.453,8.996 32.526,9.919 3.922,0.461 7.382,0.461 10.842,0.231 11.303,-0.693 17.763,-3.922 17.763,-9.689 0,-7.382 -8.536,-10.842 -25.606,-17.301 -23.299,-8.766 -38.293,-18.4545 -38.293,-43.8294 0,-25.3748 20.761,-41.7532 52.365,-41.7532 z"
       fill="#c4c4c4"
       id="path3114" />
    <path
       d="m 791.696,29.2964 c 13.84,0 27.681,2.7682 36.908,6.4591 v 32.526 c -8.304,-5.075 -21.222,-8.5352 -33.91,-8.5352 -12.687,0 -20.761,4.3829 -20.761,11.3033 0,6.4591 8.074,10.842 24.222,17.5317 23.298,9.2273 39.215,18.9157 39.215,43.5987 0,25.605 -19.146,40.83 -53.518,40.83 -15.686,0 -31.372,-2.998 -41.753,-7.381 v -33.91 c 9.689,5.075 21.453,8.996 32.526,9.919 3.922,0.461 7.382,0.461 10.842,0.231 11.303,-0.693 17.763,-3.922 17.763,-9.689 0,-7.382 -8.536,-10.842 -25.606,-17.301 -23.299,-8.766 -38.293,-18.4545 -38.293,-43.8294 0,-25.3748 20.761,-41.7532 52.365,-41.7532 z"
       fill="#ffffff"
       id="path3116" />
    <path
       d="m 873.356,32.0646 h 35.064 v 60.8997 l 47.52,-60.8997 h 41.061 l -47.981,58.8236 48.673,79.3538 h -38.985 l -33.679,-56.978 -16.84,20.069 v 37.14 H 873.126 V 32.0646 Z"
       fill="#c4c4c4"
       id="path3118" />
    <path
       d="m 873.356,32.0646 h 35.064 v 60.8997 l 47.52,-60.8997 h 41.061 l -47.981,58.8236 48.673,79.3538 h -38.985 l -33.679,-56.978 -16.84,20.069 v 37.14 H 873.126 V 32.0646 Z"
       fill="#ffffff"
       id="path3120" />
    <path
       d="m 1012.92,101.269 c 0,-39.4466 30.45,-71.7419 73.12,-71.7419 42.68,0 73.13,32.0646 73.13,71.7419 0,40.138 -30.22,71.741 -73.13,71.741 -42.67,0 -73.12,-31.834 -73.12,-71.741 z m 73.12,39.677 c 22.38,0 37.6,-18.224 37.6,-39.677 0,-21.2229 -15.22,-39.6773 -37.6,-39.6773 -22.37,0 -37.83,18.4544 -37.83,39.6773 0,21.453 15.23,39.677 37.83,39.677 z M 1074.05,23.9908 1085.12,0 h 30.91 l -20.07,23.9908 z"
       fill="#c4c4c4"
       id="path3122" />
    <path
       d="m 1012.92,101.269 c 0,-39.4466 30.45,-71.7419 73.12,-71.7419 42.68,0 73.13,32.0646 73.13,71.7419 0,40.138 -30.22,71.741 -73.13,71.741 -42.67,0 -73.12,-31.834 -73.12,-71.741 z m 73.12,39.677 c 22.38,0 37.6,-18.224 37.6,-39.677 0,-21.2229 -15.22,-39.6773 -37.6,-39.6773 -22.37,0 -37.83,18.4544 -37.83,39.6773 0,21.453 15.23,39.677 37.83,39.677 z M 1074.05,23.9908 1085.12,0 h 30.91 l -20.07,23.9908 z"
       fill="#ffffff"
       id="path3124" />
    <path
       d="M 1193.54,170.242 V 32.0646 h 35.06 V 140.715 h 49.83 v 29.527 z"
       fill="#c4c4c4"
       id="path3126" />
    <path
       d="M 1193.54,170.242 V 32.0646 h 35.06 V 140.715 h 49.83 v 29.527 z"
       fill="#ffffff"
       id="path3128" />
    <path
       d="M 1314.19,170.242 V 32.0646 h 35.06 V 170.242 Z"
       fill="#c4c4c4"
       id="path3130" />
    <path
       d="M 1314.19,170.242 V 32.0646 h 35.06 V 170.242 Z"
       fill="#ffffff"
       id="path3132" />
    <path
       d="M 432.295,372.549 V 234.371 h 35.064 v 138.178 z m 13.841,-170.242 h 30.911 l -20.069,23.991 h -21.915 z"
       fill="#c4c4c4"
       id="path3134" />
    <path
       d="M 432.295,372.549 V 234.371 h 35.064 v 138.178 z m 13.841,-170.242 h 30.911 l -20.069,23.991 h -21.915 z"
       fill="#ffffff"
       id="path3136" />
    <path
       d="m 566.09,231.603 c 13.841,0 27.681,2.768 36.909,6.459 v 32.526 c -8.305,-5.075 -21.223,-8.535 -33.91,-8.535 -12.688,0 -20.762,4.383 -20.762,11.303 0,6.459 8.074,10.842 24.222,17.532 23.299,9.227 39.216,18.916 39.216,43.599 0,25.605 -19.147,40.83 -53.518,40.83 -15.687,0 -31.373,-2.999 -41.753,-7.382 v -33.679 c 9.688,5.075 21.453,8.997 32.525,9.919 3.922,0.462 7.382,0.462 10.842,0.231 11.304,-0.692 17.763,-3.922 17.763,-9.689 0,-7.381 -8.535,-10.842 -25.606,-17.301 -23.298,-8.765 -38.293,-18.454 -38.293,-43.829 0,-25.375 20.992,-41.984 52.365,-41.984 z"
       fill="#c4c4c4"
       id="path3138" />
    <path
       d="m 566.09,231.603 c 13.841,0 27.681,2.768 36.909,6.459 v 32.526 c -8.305,-5.075 -21.223,-8.535 -33.91,-8.535 -12.688,0 -20.762,4.383 -20.762,11.303 0,6.459 8.074,10.842 24.222,17.532 23.299,9.227 39.216,18.916 39.216,43.599 0,25.605 -19.147,40.83 -53.518,40.83 -15.687,0 -31.373,-2.999 -41.753,-7.382 v -33.679 c 9.688,5.075 21.453,8.997 32.525,9.919 3.922,0.462 7.382,0.462 10.842,0.231 11.304,-0.692 17.763,-3.922 17.763,-9.689 0,-7.381 -8.535,-10.842 -25.606,-17.301 -23.298,-8.765 -38.293,-18.454 -38.293,-43.829 0,-25.375 20.992,-41.984 52.365,-41.984 z"
       fill="#ffffff"
       id="path3140" />
    <path
       d="M 652.595,372.549 V 234.371 h 35.063 v 108.651 h 49.827 v 29.527 z"
       fill="#c4c4c4"
       id="path3142" />
    <path
       d="M 652.595,372.549 V 234.371 h 35.063 v 108.651 h 49.827 v 29.527 z"
       fill="#ffffff"
       id="path3144" />
    <path
       d="m 762.168,372.549 68.743,-140.023 h 1.615 l 68.743,140.023 H 864.59 l -9.688,-21.223 h -46.367 l -9.689,21.223 z m 82.815,-44.752 c -4.845,-10.842 -10.381,-24.683 -13.149,-32.987 -1.846,4.613 -9.458,24.221 -13.149,32.987 z"
       fill="#c4c4c4"
       id="path3146" />
    <path
       d="m 762.168,372.549 68.743,-140.023 h 1.615 l 68.743,140.023 H 864.59 l -9.688,-21.223 h -46.367 l -9.689,21.223 z m 82.815,-44.752 c -4.845,-10.842 -10.381,-24.683 -13.149,-32.987 -1.846,4.613 -9.458,24.221 -13.149,32.987 z"
       fill="#ffffff"
       id="path3148" />
    <path
       d="m 934.025,232.526 70.355,62.284 c 3.92,2.999 7.38,6.459 11.31,9.458 v -69.666 h 34.6 v 140.023 h -1.39 l -70.815,-62.284 -11.072,-9.227 V 372.78 H 932.641 V 232.757 h 1.384 z"
       fill="#c4c4c4"
       id="path3150" />
    <path
       d="m 934.025,232.526 70.355,62.284 c 3.92,2.999 7.38,6.459 11.31,9.458 v -69.666 h 34.6 v 140.023 h -1.39 l -70.815,-62.284 -11.072,-9.227 V 372.78 H 932.641 V 232.757 h 1.384 z"
       fill="#ffffff"
       id="path3152" />
    <path
       d="M 1103.58,372.549 V 234.371 h 46.36 c 48.45,0 78.2,29.066 78.2,69.205 0,40.138 -29.99,69.204 -78.2,69.204 h -46.36 z m 46.13,-29.527 c 27.91,0 42.91,-17.993 42.91,-39.446 0,-21.454 -15,-39.447 -43.14,-39.447 h -10.84 v 79.124 h 11.07 z"
       fill="#c4c4c4"
       id="path3154" />
    <path
       d="M 1103.58,372.549 V 234.371 h 46.36 c 48.45,0 78.2,29.066 78.2,69.205 0,40.138 -29.99,69.204 -78.2,69.204 h -46.36 z m 46.13,-29.527 c 27.91,0 42.91,-17.993 42.91,-39.446 0,-21.454 -15,-39.447 -43.14,-39.447 h -10.84 v 79.124 h 11.07 z"
       fill="#ffffff"
       id="path3156" />
    <path
       d="m 1315.57,231.603 c 13.84,0 27.68,2.768 36.91,6.459 v 32.526 c -8.3,-5.075 -21.22,-8.535 -33.91,-8.535 -12.69,0 -20.76,4.383 -20.76,11.303 0,6.459 8.07,10.842 24.22,17.532 23.3,9.227 39.22,18.916 39.22,43.599 0,25.605 -19.15,40.83 -53.52,40.83 -15.69,0 -31.37,-2.999 -41.76,-7.382 v -33.679 c 9.69,5.075 21.46,8.997 32.53,9.919 3.92,0.462 7.38,0.462 10.84,0.231 11.31,-0.692 17.76,-3.922 17.76,-9.689 0,-7.381 -8.53,-10.842 -25.6,-17.301 -23.3,-8.765 -38.29,-18.454 -38.29,-43.829 0,-25.375 20.76,-41.984 52.36,-41.984 z"
       fill="#c4c4c4"
       id="path3158" />
    <path
       d="m 1315.57,231.603 c 13.84,0 27.68,2.768 36.91,6.459 v 32.526 c -8.3,-5.075 -21.22,-8.535 -33.91,-8.535 -12.69,0 -20.76,4.383 -20.76,11.303 0,6.459 8.07,10.842 24.22,17.532 23.3,9.227 39.22,18.916 39.22,43.599 0,25.605 -19.15,40.83 -53.52,40.83 -15.69,0 -31.37,-2.999 -41.76,-7.382 v -33.679 c 9.69,5.075 21.46,8.997 32.53,9.919 3.92,0.462 7.38,0.462 10.84,0.231 11.31,-0.692 17.76,-3.922 17.76,-9.689 0,-7.381 -8.53,-10.842 -25.6,-17.301 -23.3,-8.765 -38.29,-18.454 -38.29,-43.829 0,-25.375 20.76,-41.984 52.36,-41.984 z"
       fill="#ffffff"
       id="path3160" />
    <path
       d="m 150.404,211.534 c 16.609,26.067 37.601,34.371 60.207,29.066 0.462,0 0.231,-0.692 0,-0.692 -20.992,-1.384 -46.367,-24.452 -61.822,-46.598 -10.611,-14.533 -35.064,-32.756 -47.29,-32.064 -0.461,0.23 -7.6121,1.384 -7.6121,1.384 -10.6113,1.615 -26.0669,2.537 -43.3679,2.768 -7.3818,0 -16.8397,6.459 -16.8397,17.301 1.3841,8.535 10.15,6.69 14.3022,5.075 6.4591,-2.538 10.6113,-6.459 18.9158,-5.767 18.6851,1.845 36.2167,20.531 56.0557,25.605 2.306,1.154 2.537,1.615 2.306,2.538 0,2.768 -1.384,2.768 -2.537,2.307 -10.611,-2.999 -24.2214,2.999 -33.4487,-0.462 -7.1511,-2.768 -7.6124,-4.152 -12.9181,-8.996 -6.2284,-5.536 -13.6101,-14.302 -25.3748,-5.536 -1.1534,1.153 -3.2296,2.306 -4.6136,2.537 -3.2296,0.692 -6.2284,0.461 -9.4579,-1.153 0,0 -0.2307,0 0,0.23 1.6147,1.384 3.2295,3.461 3.9215,5.767 1.3841,4.383 0.2307,7.382 0.2307,7.382 l -1.3841,3.691 c -0.2307,0.692 -0.4613,1.384 -0.692,2.076 l -0.4614,1.154 c -4.1522,10.841 -11.9954,35.063 -10.1499,39.677 2.7681,6.92 16.3783,2.076 24.4521,2.076 4.3829,0 8.7659,2.768 10.3806,2.537 2.9989,-0.231 3.4602,-3.46 2.0762,-5.536 -0.9228,-1.384 -2.9989,-2.999 -5.075,-3.691 -2.0761,-0.692 -4.8443,0.461 -5.767,-1.384 1.3841,-3.691 8.7658,-1.154 11.534,0.461 1.6148,0.923 13.3795,9.919 3.6909,20.992 -1.1534,1.384 -5.9977,2.999 -9.2272,3.46 -1.8455,-5.997 -8.5352,-4.152 -11.9954,-2.076 -2.5375,1.615 -2.5375,6.69 -2.9989,9.689 -0.2306,1.845 -0.4613,2.537 -1.1534,4.613 -0.692,1.846 -0.4613,3.461 -0.4613,3.461 5.0749,-0.692 7.6124,-3.461 10.842,-4.153 2.7681,-0.692 5.5363,2.077 8.3045,3.23 6.2283,2.537 11.7647,3.921 20.0692,3.691 -1.1534,5.997 -7.8432,6.69 -10.3807,6.92 -3.4602,0 -6.9204,-2.307 -10.842,-2.076 -4.1522,0 -7.8431,2.307 -11.7647,1.846 -0.2306,0 -0.2306,0.23 -0.2306,0.23 0.692,0.923 1.384,2.307 1.6147,2.999 0.4614,2.076 -1.8454,4.383 -2.3068,6.459 0,0.231 0.2307,0.231 0.2307,0.231 2.0761,-2.999 7.1511,-3.691 12.2261,-3.691 4.1522,0 7.8431,1.153 11.0726,0 1.6148,-0.692 1.6148,-2.307 3.2296,-2.076 1.1534,0.23 1.1534,2.768 1.1534,3.46 -1.6148,5.075 -7.1511,7.612 -11.5341,9.919 -0.2306,0 -3.2295,2.768 -4.1522,5.767 -1.1534,4.614 -0.6921,5.306 -0.2307,7.843 1.1534,5.537 5.767,17.993 32.526,9.689 4.3829,-1.384 44.2907,-9.227 63.8987,-28.604 0.23,-0.231 21.453,-23.068 -0.231,-52.596 -3.921,-5.305 -4.844,-8.073 -4.614,-13.148 1.385,-18.455 0,-30.45 -4.382,-39.677 0.922,0.461 1.614,1.153 2.076,1.845 z m -98.7316,-7.382 c -0.2307,-0.692 -0.692,-1.614 -0.692,-2.307 2.7681,-2.076 7.1511,-2.076 10.3806,-1.153 6.9204,1.615 11.0727,9.689 16.1476,11.765 -2.0761,1.845 -5.3056,3.46 -9.2272,4.383 0.692,-1.384 2.0761,-5.537 -1.8454,-7.843 -0.6921,3.46 -3.2296,4.382 -5.3057,5.536 -0.2307,1.153 -0.2307,1.615 0,2.076 -2.0761,-1.615 -1.8454,-1.615 -2.7682,-4.152 1.1534,-0.692 1.6148,-1.615 1.8455,-2.538 0.4613,-5.305 -4.3829,-7.151 -8.5352,-5.767 z m 32.7566,14.995 c -0.2306,0.922 -1.384,3.46 -2.0761,4.382 -3.2295,4.153 -9.6886,7.152 -14.9942,5.075 -3.2295,-1.153 -10.6113,-3.69 -7.6125,-8.535 7.8432,3.922 14.9943,-2.307 20.2999,-5.536 1.6148,0.692 2.7682,1.384 3.6909,1.845 1.1534,0.692 1.1534,1.384 0.692,2.769 z"
       fill="#c4c4c4"
       id="path3162" />
    <path
       d="m 150.404,211.534 c 16.609,26.067 37.601,34.371 60.207,29.066 0.462,0 0.231,-0.692 0,-0.692 -20.992,-1.384 -46.367,-24.452 -61.822,-46.598 -10.611,-14.533 -35.064,-32.756 -47.29,-32.064 -0.461,0.23 -7.6121,1.384 -7.6121,1.384 -10.6113,1.615 -26.0669,2.537 -43.3679,2.768 -7.3818,0 -16.8397,6.459 -16.8397,17.301 1.3841,8.535 10.15,6.69 14.3022,5.075 6.4591,-2.538 10.6113,-6.459 18.9158,-5.767 18.6851,1.845 36.2167,20.531 56.0557,25.605 2.306,1.154 2.537,1.615 2.306,2.538 0,2.768 -1.384,2.768 -2.537,2.307 -10.611,-2.999 -24.2214,2.999 -33.4487,-0.462 -7.1511,-2.768 -7.6124,-4.152 -12.9181,-8.996 -6.2284,-5.536 -13.6101,-14.302 -25.3748,-5.536 -1.1534,1.153 -3.2296,2.306 -4.6136,2.537 -3.2296,0.692 -6.2284,0.461 -9.4579,-1.153 0,0 -0.2307,0 0,0.23 1.6147,1.384 3.2295,3.461 3.9215,5.767 1.3841,4.383 0.2307,7.382 0.2307,7.382 l -1.3841,3.691 c -0.2307,0.692 -0.4613,1.384 -0.692,2.076 l -0.4614,1.154 c -4.1522,10.841 -11.9954,35.063 -10.1499,39.677 2.7681,6.92 16.3783,2.076 24.4521,2.076 4.3829,0 8.7659,2.768 10.3806,2.537 2.9989,-0.231 3.4602,-3.46 2.0762,-5.536 -0.9228,-1.384 -2.9989,-2.999 -5.075,-3.691 -2.0761,-0.692 -4.8443,0.461 -5.767,-1.384 1.3841,-3.691 8.7658,-1.154 11.534,0.461 1.6148,0.923 13.3795,9.919 3.6909,20.992 -1.1534,1.384 -5.9977,2.999 -9.2272,3.46 -1.8455,-5.997 -8.5352,-4.152 -11.9954,-2.076 -2.5375,1.615 -2.5375,6.69 -2.9989,9.689 -0.2306,1.845 -0.4613,2.537 -1.1534,4.613 -0.692,1.846 -0.4613,3.461 -0.4613,3.461 5.0749,-0.692 7.6124,-3.461 10.842,-4.153 2.7681,-0.692 5.5363,2.077 8.3045,3.23 6.2283,2.537 11.7647,3.921 20.0692,3.691 -1.1534,5.997 -7.8432,6.69 -10.3807,6.92 -3.4602,0 -6.9204,-2.307 -10.842,-2.076 -4.1522,0 -7.8431,2.307 -11.7647,1.846 -0.2306,0 -0.2306,0.23 -0.2306,0.23 0.692,0.923 1.384,2.307 1.6147,2.999 0.4614,2.076 -1.8454,4.383 -2.3068,6.459 0,0.231 0.2307,0.231 0.2307,0.231 2.0761,-2.999 7.1511,-3.691 12.2261,-3.691 4.1522,0 7.8431,1.153 11.0726,0 1.6148,-0.692 1.6148,-2.307 3.2296,-2.076 1.1534,0.23 1.1534,2.768 1.1534,3.46 -1.6148,5.075 -7.1511,7.612 -11.5341,9.919 -0.2306,0 -3.2295,2.768 -4.1522,5.767 -1.1534,4.614 -0.6921,5.306 -0.2307,7.843 1.1534,5.537 5.767,17.993 32.526,9.689 4.3829,-1.384 44.2907,-9.227 63.8987,-28.604 0.23,-0.231 21.453,-23.068 -0.231,-52.596 -3.921,-5.305 -4.844,-8.073 -4.614,-13.148 1.385,-18.455 0,-30.45 -4.382,-39.677 0.922,0.461 1.614,1.153 2.076,1.845 z m -98.7316,-7.382 c -0.2307,-0.692 -0.692,-1.614 -0.692,-2.307 2.7681,-2.076 7.1511,-2.076 10.3806,-1.153 6.9204,1.615 11.0727,9.689 16.1476,11.765 -2.0761,1.845 -5.3056,3.46 -9.2272,4.383 0.692,-1.384 2.0761,-5.537 -1.8454,-7.843 -0.6921,3.46 -3.2296,4.382 -5.3057,5.536 -0.2307,1.153 -0.2307,1.615 0,2.076 -2.0761,-1.615 -1.8454,-1.615 -2.7682,-4.152 1.1534,-0.692 1.6148,-1.615 1.8455,-2.538 0.4613,-5.305 -4.3829,-7.151 -8.5352,-5.767 z m 32.7566,14.995 c -0.2306,0.922 -1.384,3.46 -2.0761,4.382 -3.2295,4.153 -9.6886,7.152 -14.9942,5.075 -3.2295,-1.153 -10.6113,-3.69 -7.6125,-8.535 7.8432,3.922 14.9943,-2.307 20.2999,-5.536 1.6148,0.692 2.7682,1.384 3.6909,1.845 1.1534,0.692 1.1534,1.384 0.692,2.769 z"
       fill="#ffffff"
       id="path3164" />
    <path
       d="m 270.127,287.659 c 37.37,10.611 17.993,31.372 32.064,43.598 2.999,-3.691 5.998,-7.381 8.997,-11.303 -6.459,-13.61 -2.999,-29.296 -40.831,-33.218 -0.692,0 -0.692,0.692 -0.23,0.923 z"
       fill="#c4c4c4"
       id="path3166" />
    <path
       d="m 270.127,287.659 c 37.37,10.611 17.993,31.372 32.064,43.598 2.999,-3.691 5.998,-7.381 8.997,-11.303 -6.459,-13.61 -2.999,-29.296 -40.831,-33.218 -0.692,0 -0.692,0.692 -0.23,0.923 z"
       fill="#ffffff"
       id="path3168" />
    <path
       d="m 278.2,354.787 c -1.384,-1.154 -2.998,-2.076 -4.382,-3.23 -1.385,-1.153 -8.074,-6.69 -9.228,-7.843 0,5.998 0.462,13.841 0,21.453 4.614,-3.229 9.228,-6.689 13.61,-10.38 z"
       fill="#c4c4c4"
       id="path3170" />
    <path
       d="m 278.2,354.787 c -1.384,-1.154 -2.998,-2.076 -4.382,-3.23 -1.385,-1.153 -8.074,-6.69 -9.228,-7.843 0,5.998 0.462,13.841 0,21.453 4.614,-3.229 9.228,-6.689 13.61,-10.38 z"
       fill="#ffffff"
       id="path3172" />
    <path
       d="m 250.749,373.933 c 2.307,-13.61 3.461,-30.911 0,-40.6 -5.767,-4.152 -10.38,-6.459 -16.609,-9.919 -1.614,18.455 -7.381,36.448 -15.917,53.287 -2.306,4.383 -5.305,9.689 -8.765,14.995 14.532,-4.383 28.373,-10.381 41.291,-17.763 z"
       fill="#c4c4c4"
       id="path3174" />
    <path
       d="m 250.749,373.933 c 2.307,-13.61 3.461,-30.911 0,-40.6 -5.767,-4.152 -10.38,-6.459 -16.609,-9.919 -1.614,18.455 -7.381,36.448 -15.917,53.287 -2.306,4.383 -5.305,9.689 -8.765,14.995 14.532,-4.383 28.373,-10.381 41.291,-17.763 z"
       fill="#ffffff"
       id="path3176" />
    <path
       d="m 216.378,339.792 c 4.614,-12.918 -4.613,-20.53 -0.231,-45.213 l 0.462,-3.229 c -8.997,-2.538 -27.913,-2.999 -32.295,4.152 -8.536,13.841 -12.227,75.663 -46.367,103.806 5.075,0.461 10.15,0.692 15.225,0.692 9.688,0 19.377,-0.692 28.835,-2.076 12.918,-11.303 23.991,-28.604 34.371,-58.132 z"
       fill="#c4c4c4"
       id="path3178" />
    <path
       d="m 216.378,339.792 c 4.614,-12.918 -4.613,-20.53 -0.231,-45.213 l 0.462,-3.229 c -8.997,-2.538 -27.913,-2.999 -32.295,4.152 -8.536,13.841 -12.227,75.663 -46.367,103.806 5.075,0.461 10.15,0.692 15.225,0.692 9.688,0 19.377,-0.692 28.835,-2.076 12.918,-11.303 23.991,-28.604 34.371,-58.132 z"
       fill="#ffffff"
       id="path3180" />
    <path
       d="M 1.38394,161.015 C -2.07626,159.4 1.15326,154.556 8.53504,144.637 62.0529,71.2803 205.075,111.649 214.071,110.265 220.761,109.112 122.953,58.5928 50.7496,96.6551 38.2928,103.114 8.53504,115.34 6.6896,110.035 c 0,0 34.8328,-17.5321 50.0577,-31.373 0.9227,-0.9227 5.5363,-4.6136 9.9192,-7.3817 27.451,-16.3783 59.0545,-24.2215 91.3495,-22.1454 86.505,5.075 152.941,78.4311 147.866,163.3221 -0.23,5.767 -0.923,11.303 -2.076,16.839 -4.152,-5.305 -7.612,-10.38 -7.843,-11.072 0,0 11.303,-137.0245 -133.564,-158.9391 -26.298,-3.9216 -54.21,0.2307 -73.5871,11.534 6.459,-0.2307 12.6871,-0.4613 17.7621,-1.3841 66.898,-11.3033 180.392,28.6044 176.24,132.4102 -0.231,3.461 -44.06,-66.897 -113.725,-80.046 -77.9703,-14.763 -114.4179,7.382 -114.4179,7.382 0,0 51.6729,-6.69 107.0359,4.383 63.437,12.687 111.88,62.284 137.255,110.727 -1.846,3.46 -22.607,1.614 -27.682,-4.614 C 254.902,219.608 211.765,167.474 155.479,154.095 40.5996,126.874 5.99755,163.091 1.38394,161.015 Z"
       fill="#c4c4c4"
       id="path3182" />
    <path
       d="M 1.38394,161.015 C -2.07626,159.4 1.15326,154.556 8.53504,144.637 62.0529,71.2803 205.075,111.649 214.071,110.265 220.761,109.112 122.953,58.5928 50.7496,96.6551 38.2928,103.114 8.53504,115.34 6.6896,110.035 c 0,0 34.8328,-17.5321 50.0577,-31.373 0.9227,-0.9227 5.5363,-4.6136 9.9192,-7.3817 27.451,-16.3783 59.0545,-24.2215 91.3495,-22.1454 86.505,5.075 152.941,78.4311 147.866,163.3221 -0.23,5.767 -0.923,11.303 -2.076,16.839 -4.152,-5.305 -7.612,-10.38 -7.843,-11.072 0,0 11.303,-137.0245 -133.564,-158.9391 -26.298,-3.9216 -54.21,0.2307 -73.5871,11.534 6.459,-0.2307 12.6871,-0.4613 17.7621,-1.3841 66.898,-11.3033 180.392,28.6044 176.24,132.4102 -0.231,3.461 -44.06,-66.897 -113.725,-80.046 -77.9703,-14.763 -114.4179,7.382 -114.4179,7.382 0,0 51.6729,-6.69 107.0359,4.383 63.437,12.687 111.88,62.284 137.255,110.727 -1.846,3.46 -22.607,1.614 -27.682,-4.614 C 254.902,219.608 211.765,167.474 155.479,154.095 40.5996,126.874 5.99755,163.091 1.38394,161.015 Z"
       fill="#ffffff"
       id="path3184" />
    <path
       d="m 215.225,212.918 c -18.916,0.462 -31.603,-35.294 -64.591,-47.289 -0.461,-0.231 -0.23,-0.692 0.231,-0.692 39.216,3.69 48.904,35.755 64.591,47.289 0.23,0.231 0,0.461 -0.231,0.692 z m 0.461,15.917 c -18.224,-7.382 -55.132,-61.13 -88.12,-65.282 -0.461,0 -0.461,0.461 -0.23,0.692 26.297,11.534 63.206,64.359 88.12,65.282 0.461,0 0.461,-0.692 0.23,-0.692 z m 3.691,47.982 c -18.454,-33.449 -38.754,-0.462 -60.9,-44.983 -0.23,-0.231 -0.692,-0.231 -0.692,0.231 5.767,57.67 44.06,34.14 60.9,45.213 0.461,0 0.923,-0.231 0.692,-0.461 z"
       fill="#c4c4c4"
       id="path3186" />
    <path
       d="m 215.225,212.918 c -18.916,0.462 -31.603,-35.294 -64.591,-47.289 -0.461,-0.231 -0.23,-0.692 0.231,-0.692 39.216,3.69 48.904,35.755 64.591,47.289 0.23,0.231 0,0.461 -0.231,0.692 z m 0.461,15.917 c -18.224,-7.382 -55.132,-61.13 -88.12,-65.282 -0.461,0 -0.461,0.461 -0.23,0.692 26.297,11.534 63.206,64.359 88.12,65.282 0.461,0 0.461,-0.692 0.23,-0.692 z m 3.691,47.982 c -18.454,-33.449 -38.754,-0.462 -60.9,-44.983 -0.23,-0.231 -0.692,-0.231 -0.692,0.231 5.767,57.67 44.06,34.14 60.9,45.213 0.461,0 0.923,-0.231 0.692,-0.461 z"
       fill="#ffffff"
       id="path3188" />
    <path
       d="m 288.351,343.483 c -21.223,-28.835 -59.747,-24.221 -55.594,-55.132 0,-0.231 0.461,-0.462 0.692,0 8.535,19.838 44.752,0.692 55.594,54.902 0,0.23 -0.462,0.461 -0.692,0.23 z"
       fill="#c4c4c4"
       id="path3190" />
    <path
       d="m 288.351,343.483 c -21.223,-28.835 -59.747,-24.221 -55.594,-55.132 0,-0.231 0.461,-0.462 0.692,0 8.535,19.838 44.752,0.692 55.594,54.902 0,0.23 -0.462,0.461 -0.692,0.23 z"
       fill="#ffffff"
       id="path3192" />
    <path
       d="m 262.284,292.503 c -77.509,-34.602 -14.995,-60.208 -40.831,-87.659 0,0 0,-0.23 0.231,-0.23 38.985,32.756 -8.766,56.516 41.061,87.197 0.231,0.461 0,0.923 -0.461,0.692 z"
       fill="#c4c4c4"
       id="path3194" />
    <path
       d="m 262.284,292.503 c -77.509,-34.602 -14.995,-60.208 -40.831,-87.659 0,0 0,-0.23 0.231,-0.23 38.985,32.756 -8.766,56.516 41.061,87.197 0.231,0.461 0,0.923 -0.461,0.692 z"
       fill="#ffffff"
       id="path3196" />
    <path
       d="m 316.493,297.809 c -9.458,-35.987 -74.279,-13.149 -66.205,-61.823 0,-0.461 0.461,-0.461 0.692,0 12.687,43.599 71.972,-3.46 66.205,61.823 0,0.23 -0.461,0.461 -0.692,0 z"
       fill="#c4c4c4"
       id="path3198" />
    <path
       d="m 316.493,297.809 c -9.458,-35.987 -74.279,-13.149 -66.205,-61.823 0,-0.461 0.461,-0.461 0.692,0 12.687,43.599 71.972,-3.46 66.205,61.823 0,0.23 -0.461,0.461 -0.692,0 z"
       fill="#ffffff"
       id="path3200" />
    <path
       d="m 310.496,238.524 c 1.845,-8.305 3.229,-16.84 3.69,-25.606 5.306,-89.273 -64.359,-166.3205 -155.478,-171.8568 -33.218,-1.8455 -65.5134,5.767 -94.1178,22.1453 -0.4613,0 -0.692,0.2307 -1.1534,0.2307 L 48.2119,38.0623 C 83.0447,16.1477 123.183,5.76704 164.706,8.07384 272.664,14.5329 355.248,107.497 348.789,215.456 c -1.384,24.452 -7.382,47.52 -17.301,69.434 -3.691,-14.994 -10.612,-30.449 -20.992,-46.366 z"
       fill="#c4c4c4"
       id="path3202" />
    <path
       d="m 310.496,238.524 c 1.845,-8.305 3.229,-16.84 3.69,-25.606 5.306,-89.273 -64.359,-166.3205 -155.478,-171.8568 -33.218,-1.8455 -65.5134,5.767 -94.1178,22.1453 -0.4613,0 -0.692,0.2307 -1.1534,0.2307 L 48.2119,38.0623 C 83.0447,16.1477 123.183,5.76704 164.706,8.07384 272.664,14.5329 355.248,107.497 348.789,215.456 c -1.384,24.452 -7.382,47.52 -17.301,69.434 -3.691,-14.994 -10.612,-30.449 -20.992,-46.366 z"
       fill="#ffffff"
       id="path3204" />
  </g>
  <defs
     id="defs3211">
    <clipPath
       id="clip0_1_244">
      <rect
         width="1361.02"
         height="400"
         fill="#ffffff"
         id="rect3208"
         x="0"
         y="0" />
    </clipPath>
  </defs>
  <g
     aria-label="EDBOOK"
     id="text4823"
     style="font-style:italic;font-size:318.045px;font-family:'Linux Libertine G';-inkscape-font-specification:'Linux Libertine G Italic';fill:#924141;stroke:#484848;stroke-width:0.234402"
     transform="matrix(0.69967292,0,0,0.69339725,202.83709,46.000526)">
    <path
       d="M 5.0646775,5.2059235 V 227.83743 H 152.95561 V 183.62918 H 56.58797 v -51.20525 h 90.00674 V 89.169807 H 56.58797 V 49.41418 h 96.36764 V 5.2059235 Z"
       style="font-style:normal;font-weight:bold;font-family:'Jost*';-inkscape-font-specification:'Jost* Bold';fill:#ffffff"
       id="path560" />
    <path
       d="m 276.35727,227.83743 c 72.83231,0 119.26688,-42.93607 119.26688,-111.31575 C 395.62415,48.142 349.18958,5.2059235 276.35727,5.2059235 H 196.84602 V 227.83743 Z M 274.449,52.912675 c 34.34886,0 65.51728,15.584206 65.51728,63.609005 0,48.0248 -31.16842,63.609 -65.51728,63.609 H 252.18585 V 52.912675 Z"
       style="font-style:normal;font-weight:bold;font-family:'Jost*';-inkscape-font-specification:'Jost* Bold';fill:#ffffff"
       id="path562" />
    <path
       d="m 603.62552,165.18257 c 0,-29.89624 -19.40075,-48.0248 -45.16239,-56.93006 20.03683,-8.905263 32.44059,-24.807513 32.44059,-46.434574 0,-37.847357 -33.39473,-56.6120125 -79.19321,-56.6120125 H 429.97294 V 227.83743 h 87.14434 c 52.79547,0 86.50824,-18.44661 86.50824,-62.65486 z M 505.9857,46.86982 c 18.12857,0 29.26014,7.951126 29.26014,22.899241 0,14.948116 -11.13157,23.853376 -29.26014,23.853376 H 483.72255 V 46.86982 Z m -22.26315,139.30372 v -55.02179 h 27.35187 c 20.67293,0 36.89322,6.99699 36.89322,26.39773 0,21.62707 -16.22029,28.62406 -36.89322,28.62406 z"
       style="font-style:normal;font-weight:bold;font-family:'Jost*';-inkscape-font-specification:'Jost* Bold';fill:#ffffff"
       id="path564" />
    <path
       d="m 628.4329,116.52168 c 0,68.69772 49.93307,118.31274 119.90297,118.31274 69.65186,0 119.58493,-49.61502 119.58493,-118.31274 0,-68.697725 -50.8872,-116.40447675 -119.58493,-116.40447675 -68.06163,0 -119.90297,47.70675175 -119.90297,116.40447675 z m 56.93006,0 c 0,-39.437584 25.12556,-67.1075 62.97291,-67.1075 38.48345,0 62.65487,27.669916 62.65487,67.1075 0,39.43758 -25.12555,67.1075 -62.65487,67.1075 -37.84735,0 -62.97291,-27.66992 -62.97291,-67.1075 z"
       style="font-style:normal;font-weight:bold;font-family:'Jost*';-inkscape-font-specification:'Jost* Bold';fill:#ffffff"
       id="path566" />
    <path
       d="m 889.54759,116.52168 c 0,68.69772 49.93307,118.31274 119.90301,118.31274 69.6518,0 119.5849,-49.61502 119.5849,-118.31274 0,-68.697725 -50.8872,-116.40447675 -119.5849,-116.40447675 -68.06167,0 -119.90301,47.70675175 -119.90301,116.40447675 z m 56.93006,0 c 0,-39.437584 25.12555,-67.1075 62.97295,-67.1075 38.4834,0 62.6548,27.669916 62.6548,67.1075 0,39.43758 -25.1255,67.1075 -62.6548,67.1075 -37.8474,0 -62.97295,-27.66992 -62.97295,-67.1075 z"
       style="font-style:normal;font-weight:bold;font-family:'Jost*';-inkscape-font-specification:'Jost* Bold';fill:#ffffff"
       id="path568" />
    <path
       d="M 1163.384,5.2059235 V 227.83743 h 55.6579 v -97.32177 l 78.2391,97.32177 h 65.1992 L 1267.3847,109.52469 1357.7095,5.2059235 h -62.9729 L 1219.0419,92.986347 V 5.2059235 Z"
       style="font-style:normal;font-weight:bold;font-family:'Jost*';-inkscape-font-specification:'Jost* Bold';fill:#ffffff"
       id="path570" />
  </g>
</svg>
