<svg version="1.1" viewBox="0.0 0.0 780.1443569553805 501.76640419947506" fill="none" stroke="none" stroke-linecap="square" stroke-miterlimit="10" xmlns:xlink="http://www.w3.org/1999/xlink" xmlns="http://www.w3.org/2000/svg"><clipPath id="p.0"><path d="m0 0l780.14435 0l0 501.76642l-780.14435 0l0 -501.76642z" clip-rule="nonzero"/></clipPath><g clip-path="url(#p.0)"><path fill="#000000" fill-opacity="0.0" d="m0 0l780.14435 0l0 501.76642l-780.14435 0z" fill-rule="evenodd"/><path fill="#a64d79" fill-opacity="0.35" d="m164.63795 438.99213l-154.10834 -321.77863l105.17362 -61.945766l154.10834 321.77866z" fill-rule="evenodd"/><path stroke="#000000" stroke-width="2.0" stroke-linejoin="round" stroke-linecap="butt" d="m164.63795 438.99213l-154.10834 -321.77863l105.17362 -61.945766l154.10834 321.77866z" fill-rule="evenodd"/><defs><linearGradient id="p.1" gradientUnits="userSpaceOnUse" gradientTransform="matrix(-11.97120341845753 0.0 0.0 -11.97120341845753 0.0 0.0)" spreadMethod="pad" x1="-56.27963075940218" y1="-8.22139128926797" x2="-44.308427340944654" y2="-8.22139128926797"><stop offset="0.0" stop-color="#1c4587"/><stop offset="0.5" stop-color="#c9daf8"/><stop offset="1.0" stop-color="#1c4587"/></linearGradient></defs><path fill="url(#p.1)" d="m673.7349 98.419945l-71.65485 149.38583l-71.65491 -149.38583z" fill-rule="evenodd"/><path stroke="#000000" stroke-width="1.0" stroke-linejoin="round" stroke-linecap="butt" d="m673.7349 98.419945l-71.65485 149.38583l-71.65491 -149.38583z" fill-rule="evenodd"/><defs><linearGradient id="p.2" gradientUnits="userSpaceOnUse" gradientTransform="matrix(11.971093793558433 0.0 0.0 11.971093793558433 0.0 0.0)" spreadMethod="pad" x1="44.30861384311387" y1="10.107461975879922" x2="56.2797076366723" y2="10.107461975879922"><stop offset="0.0" stop-color="#1c4587"/><stop offset="0.5" stop-color="#6d9eeb"/><stop offset="1.0" stop-color="#1c4587"/></linearGradient></defs><path fill="url(#p.2)" d="m530.42255 99.72179l0 0c0 -11.750183 32.080383 -21.275589 71.653564 -21.275589l0 0c39.57318 0 71.653564 9.525406 71.653564 21.275589l0 0c0 11.750183 -32.080383 21.275589 -71.653564 21.275589l0 0c-39.57318 0 -71.653564 -9.525406 -71.653564 -21.275589z" fill-rule="evenodd"/><path stroke="#000000" stroke-width="1.0" stroke-linejoin="round" stroke-linecap="butt" d="m530.42255 99.72179l0 0c0 -11.750183 32.080383 -21.275589 71.653564 -21.275589l0 0c39.57318 0 71.653564 9.525406 71.653564 21.275589l0 0c0 11.750183 -32.080383 21.275589 -71.653564 21.275589l0 0c-39.57318 0 -71.653564 -9.525406 -71.653564 -21.275589z" fill-rule="evenodd"/><defs><linearGradient id="p.3" gradientUnits="userSpaceOnUse" gradientTransform="matrix(11.97120341845753 0.0 0.0 11.97120341845753 0.0 0.0)" spreadMethod="pad" x1="10.246263529175014" y1="33.35168809378807" x2="22.21746694763254" y2="33.35168809378807"><stop offset="0.0" stop-color="#1c4587"/><stop offset="0.5" stop-color="#c9daf8"/><stop offset="1.0" stop-color="#1c4587"/></linearGradient></defs><path fill="url(#p.3)" d="m122.6601 399.25986l71.654854 -149.38585l71.65486 149.38585z" fill-rule="evenodd"/><path stroke="#000000" stroke-width="3.0" stroke-linejoin="round" stroke-linecap="butt" d="m122.6601 399.25986l71.654854 -149.38585l71.65486 149.38585z" fill-rule="evenodd"/><defs><linearGradient id="p.4" gradientUnits="userSpaceOnUse" gradientTransform="matrix(-11.971093793558433 0.0 0.0 -11.971093793558433 0.0 0.0)" spreadMethod="pad" x1="-22.217889654160082" y1="-31.465998111288133" x2="-10.246795860601651" y2="-31.465998111288133"><stop offset="0.0" stop-color="#1c4587"/><stop offset="0.5" stop-color="#c9daf8"/><stop offset="1.0" stop-color="#1c4587"/></linearGradient></defs><path fill="url(#p.4)" d="m265.97244 397.958l0 0c0 11.750183 -32.080383 21.275574 -71.65355 21.275574l0 0c-39.57315 0 -71.65354 -9.525391 -71.65354 -21.275574l0 0c0 -11.750183 32.08039 -21.275604 71.65354 -21.275604l0 0c39.573166 0 71.65355 9.525421 71.65355 21.275604z" fill-rule="evenodd"/><path stroke="#000000" stroke-width="3.0" stroke-linejoin="round" stroke-linecap="butt" d="m265.97244 397.958l0 0c0 11.750183 -32.080383 21.275574 -71.65355 21.275574l0 0c-39.57315 0 -71.65354 -9.525391 -71.65354 -21.275574l0 0c0 -11.750183 32.08039 -21.275604 71.65354 -21.275604l0 0c39.573166 0 71.65355 9.525421 71.65355 21.275604z" fill-rule="evenodd"/><defs><linearGradient id="p.5" gradientUnits="userSpaceOnUse" gradientTransform="matrix(11.97120341845753 0.0 0.0 11.97120341845753 0.0 0.0)" spreadMethod="pad" x1="44.30820809215034" y1="33.178920043866924" x2="56.279411510607865" y2="33.178920043866924"><stop offset="0.0" stop-color="#1c4587"/><stop offset="0.5" stop-color="#c9daf8"/><stop offset="1.0" stop-color="#1c4587"/></linearGradient></defs><path fill="url(#p.5)" d="m530.42255 397.1916l71.65491 -149.38582l71.65485 149.38582z" fill-rule="evenodd"/><path stroke="#000000" stroke-width="1.0" stroke-linejoin="round" stroke-linecap="butt" d="m530.42255 397.1916l71.65491 -149.38582l71.65485 149.38582z" fill-rule="evenodd"/><defs><linearGradient id="p.6" gradientUnits="userSpaceOnUse" gradientTransform="matrix(-11.971093793558433 0.0 0.0 -11.971093793558433 0.0 0.0)" spreadMethod="pad" x1="-56.280146138276464" y1="-31.29322847924923" x2="-44.309052344718026" y2="-31.29322847924923"><stop offset="0.0" stop-color="#1c4587"/><stop offset="0.5" stop-color="#c9daf8"/><stop offset="1.0" stop-color="#1c4587"/></linearGradient></defs><path fill="url(#p.6)" d="m673.7349 395.88977l0 0c0 11.750183 -32.080383 21.275574 -71.653564 21.275574l0 0c-39.57318 0 -71.653564 -9.525391 -71.653564 -21.275574l0 0c0 -11.750183 32.080383 -21.275604 71.653564 -21.275604l0 0c39.57318 0 71.653564 9.525421 71.653564 21.275604z" fill-rule="evenodd"/><path stroke="#000000" stroke-width="1.0" stroke-linejoin="round" stroke-linecap="butt" d="m673.7349 395.88977l0 0c0 11.750183 -32.080383 21.275574 -71.653564 21.275574l0 0c-39.57318 0 -71.653564 -9.525391 -71.653564 -21.275574l0 0c0 -11.750183 32.080383 -21.275604 71.653564 -21.275604l0 0c39.57318 0 71.653564 9.525421 71.653564 21.275604z" fill-rule="evenodd"/><defs><linearGradient id="p.7" gradientUnits="userSpaceOnUse" gradientTransform="matrix(-11.97120341845753 0.0 0.0 -11.97120341845753 0.0 0.0)" spreadMethod="pad" x1="-22.218015069618332" y1="-8.394159339189116" x2="-10.246811651160805" y2="-8.394159339189116"><stop offset="0.0" stop-color="#1c4587"/><stop offset="0.5" stop-color="#c9daf8"/><stop offset="1.0" stop-color="#1c4587"/></linearGradient></defs><path fill="url(#p.7)" d="m265.97638 100.48819l-71.65486 149.38582l-71.654854 -149.38582z" fill-rule="evenodd"/><path stroke="#000000" stroke-width="3.0" stroke-linejoin="round" stroke-linecap="butt" d="m265.97638 100.48819l-71.65486 149.38582l-71.654854 -149.38582z" fill-rule="evenodd"/><defs><linearGradient id="p.8" gradientUnits="userSpaceOnUse" gradientTransform="matrix(11.971093793558433 0.0 0.0 11.971093793558433 0.0 0.0)" spreadMethod="pad" x1="10.246686235200611" y1="10.280231607918823" x2="22.217780028759044" y2="10.280231607918823"><stop offset="0.0" stop-color="#1c4587"/><stop offset="0.5" stop-color="#6d9eeb"/><stop offset="1.0" stop-color="#1c4587"/></linearGradient></defs><path fill="url(#p.8)" d="m122.66404 101.79002l0 0c0 -11.750183 32.08039 -21.275589 71.65354 -21.275589l0 0c39.573166 0 71.65355 9.525406 71.65355 21.275589l0 0c0 11.750183 -32.080383 21.275597 -71.65355 21.275597l0 0c-39.57315 0 -71.65354 -9.5254135 -71.65354 -21.275597z" fill-rule="evenodd"/><path stroke="#000000" stroke-width="3.0" stroke-linejoin="round" stroke-linecap="butt" d="m122.66404 101.79002l0 0c0 -11.750183 32.08039 -21.275589 71.65354 -21.275589l0 0c39.573166 0 71.65355 9.525406 71.65355 21.275589l0 0c0 11.750183 -32.080383 21.275597 -71.65355 21.275597l0 0c-39.57315 0 -71.65354 -9.5254135 -71.65354 -21.275597z" fill-rule="evenodd"/><path fill="#000000" fill-opacity="0.0" d="m192.87253 418.0651l0 0c-30.422714 -56.078156 -39.367157 -105.94171 -20.285263 -113.08649c19.081894 -7.144806 59.412415 30.966919 91.466354 86.434296l-33.09561 17.780548z" fill-rule="evenodd"/><path fill="#000000" fill-opacity="0.0" d="m192.87253 418.0651l0 0c-30.422714 -56.078156 -39.367157 -105.94171 -20.285263 -113.08649c19.081894 -7.144806 59.412415 30.966919 91.466354 86.434296" fill-rule="evenodd"/><path stroke="#000000" stroke-width="3.0" stroke-linejoin="round" stroke-linecap="butt" d="m192.87253 418.0651l0 0c-30.422714 -56.078156 -39.367157 -105.94171 -20.285263 -113.08649c19.081894 -7.144806 59.412415 30.966919 91.466354 86.434296" fill-rule="evenodd"/><path fill="#a64d79" fill-opacity="0.35" d="m155.84514 417.6614l-20.259842 -42.07611l24.934387 -56.10498" fill-rule="evenodd"/><path stroke="#000000" stroke-width="3.0" stroke-linejoin="round" stroke-linecap="butt" d="m155.84514 417.6614l-20.259842 -42.07611l24.934387 -56.10498" fill-rule="evenodd"/><path fill="#a64d79" fill-opacity="0.35" d="m155.84514 416.10498c6.233597 0.5192566 32.466766 4.93396 37.40158 3.1154785c4.9348145 -1.8184509 -4.9356995 -8.571716 -7.7926483 -14.026245c-2.856964 -5.4544983 -6.4921265 -12.207336 -9.349091 -18.700775c-2.8569489 -6.4934387 -5.71434 -12.727478 -7.7926483 -20.259857c-2.0782928 -7.5323486 -3.3783875 -17.14215 -4.6771545 -24.934357c-1.2987823 -7.7922363 -2.5962524 -18.182434 -3.1154938 -21.818909" fill-rule="evenodd"/><path stroke="#000000" stroke-width="2.0" stroke-linejoin="round" stroke-linecap="butt" d="m155.84514 416.10498c6.233597 0.5192566 32.466766 4.93396 37.40158 3.1154785c4.9348145 -1.8184509 -4.9356995 -8.571716 -7.7926483 -14.026245c-2.856964 -5.4544983 -6.4921265 -12.207336 -9.349091 -18.700775c-2.8569489 -6.4934387 -5.71434 -12.727478 -7.7926483 -20.259857c-2.0782928 -7.5323486 -3.3783875 -17.14215 -4.6771545 -24.934357c-1.2987823 -7.7922363 -2.5962524 -18.182434 -3.1154938 -21.818909" fill-rule="evenodd"/><path fill="#3b68a6" fill-opacity="0.35" d="m192.87253 418.0651l0 0c-29.318832 -54.043365 -38.854004 -102.69098 -22.00766 -112.28113c16.846329 -9.590149 54.536957 23.029327 86.99185 75.287415l-26.898712 28.12207z" fill-rule="evenodd"/><path fill="#000000" fill-opacity="0.0" d="m192.87253 418.0651l0 0c-29.318832 -54.043365 -38.854004 -102.69098 -22.00766 -112.28113c16.846329 -9.590149 54.536957 23.029327 86.99185 75.287415" fill-rule="evenodd"/><path stroke="#741b47" stroke-width="4.0" stroke-linejoin="round" stroke-linecap="butt" d="m192.87253 418.0651l0 0c-29.318832 -54.043365 -38.854004 -102.69098 -22.00766 -112.28113c16.846329 -9.590149 54.536957 23.029327 86.99185 75.287415" fill-rule="evenodd"/><defs><linearGradient id="p.9" gradientUnits="userSpaceOnUse" gradientTransform="matrix(-11.97120341845753 0.0 0.0 -11.97120341845753 0.0 0.0)" spreadMethod="pad" x1="-56.27963075940218" y1="-8.22139128926797" x2="-44.308427340944654" y2="-8.22139128926797"><stop offset="0.0" stop-color="#1c4587"/><stop offset="0.5" stop-color="#c9daf8"/><stop offset="1.0" stop-color="#1c4587"/></linearGradient></defs><path fill="url(#p.9)" d="m673.7349 98.419945l-71.65485 149.38583l-71.65491 -149.38583z" fill-rule="evenodd"/><path stroke="#000000" stroke-width="3.0" stroke-linejoin="round" stroke-linecap="butt" d="m673.7349 98.419945l-71.65485 149.38583l-71.65491 -149.38583z" fill-rule="evenodd"/><defs><linearGradient id="p.10" gradientUnits="userSpaceOnUse" gradientTransform="matrix(11.97120341845753 0.0 0.0 11.97120341845753 0.0 0.0)" spreadMethod="pad" x1="44.30820809215034" y1="33.178920043866924" x2="56.279411510607865" y2="33.178920043866924"><stop offset="0.0" stop-color="#1c4587"/><stop offset="0.5" stop-color="#c9daf8"/><stop offset="1.0" stop-color="#1c4587"/></linearGradient></defs><path fill="url(#p.10)" d="m530.42255 397.1916l71.65491 -149.38582l71.65485 149.38582z" fill-rule="evenodd"/><path stroke="#000000" stroke-width="3.0" stroke-linejoin="round" stroke-linecap="butt" d="m530.42255 397.1916l71.65491 -149.38582l71.65485 149.38582z" fill-rule="evenodd"/><defs><linearGradient id="p.11" gradientUnits="userSpaceOnUse" gradientTransform="matrix(-11.971093793558433 0.0 0.0 -11.971093793558433 0.0 0.0)" spreadMethod="pad" x1="-56.280146138276464" y1="-31.29322847924923" x2="-44.309052344718026" y2="-31.29322847924923"><stop offset="0.0" stop-color="#1c4587"/><stop offset="0.5" stop-color="#c9daf8"/><stop offset="1.0" stop-color="#1c4587"/></linearGradient></defs><path fill="url(#p.11)" d="m673.7349 395.88977l0 0c0 11.750183 -32.080383 21.275574 -71.653564 21.275574l0 0c-39.57318 0 -71.653564 -9.525391 -71.653564 -21.275574l0 0c0 -11.750183 32.080383 -21.275604 71.653564 -21.275604l0 0c39.57318 0 71.653564 9.525421 71.653564 21.275604z" fill-rule="evenodd"/><path stroke="#000000" stroke-width="3.0" stroke-linejoin="round" stroke-linecap="butt" d="m673.7349 395.88977l0 0c0 11.750183 -32.080383 21.275574 -71.653564 21.275574l0 0c-39.57318 0 -71.653564 -9.525391 -71.653564 -21.275574l0 0c0 -11.750183 32.080383 -21.275604 71.653564 -21.275604l0 0c39.57318 0 71.653564 9.525421 71.653564 21.275604z" fill-rule="evenodd"/><path fill="#a64d79" fill-opacity="0.35" d="m530.42255 115.57218l143.30713 0l0 295.3701l-143.30713 0z" fill-rule="evenodd"/><path stroke="#000000" stroke-width="2.0" stroke-linejoin="round" stroke-linecap="butt" d="m530.42255 115.57218l143.30713 0l0 295.3701l-143.30713 0z" fill-rule="evenodd"/><defs><linearGradient id="p.12" gradientUnits="userSpaceOnUse" gradientTransform="matrix(-9.238503265426809 0.0 0.0 -9.238503265426809 0.0 0.0)" spreadMethod="pad" x1="-69.78989166710875" y1="-9.6637098735682" x2="-60.55138840168193" y2="-9.6637098735682"><stop offset="0.0" stop-color="#1c4587"/><stop offset="0.5" stop-color="#c9daf8"/><stop offset="1.0" stop-color="#1c4587"/></linearGradient></defs><path fill="url(#p.12)" d="m644.75415 90.31769l0 0c-0.33563232 39.905487 -19.528015 71.87419 -42.97821 71.58859c-23.450134 -0.28559875 -42.371765 -32.71849 -42.371765 -72.62807l42.677185 0z" fill-rule="evenodd"/><path fill="#000000" fill-opacity="0.0" d="m644.75415 90.31769l0 0c-0.33563232 39.905487 -19.528015 71.87419 -42.97821 71.58859c-23.450134 -0.28559875 -42.371765 -32.71849 -42.371765 -72.62807" fill-rule="evenodd"/><path stroke="#741b47" stroke-width="3.0" stroke-linejoin="round" stroke-linecap="butt" d="m644.75415 90.31769l0 0c-0.33563232 39.905487 -19.528015 71.87419 -42.97821 71.58859c-23.450134 -0.28559875 -42.371765 -32.71849 -42.371765 -72.62807" fill-rule="evenodd"/><path fill="#3b68a6" fill-opacity="0.35" d="m644.75415 90.31769l0 0c-0.33563232 39.905487 -19.528015 71.87419 -42.97821 71.58859c-23.450134 -0.28559875 -42.371765 -32.71849 -42.371765 -72.62807l42.677185 0z" fill-rule="evenodd"/><path fill="#000000" fill-opacity="0.0" d="m644.75415 90.31769l0 0c-0.33563232 39.905487 -19.528015 71.87419 -42.97821 71.58859c-23.450134 -0.28559875 -42.371765 -32.71849 -42.371765 -72.62807" fill-rule="evenodd"/><path stroke="#741b47" stroke-width="3.0" stroke-linejoin="round" stroke-linecap="butt" d="m644.75415 90.31769l0 0c-0.33563232 39.905487 -19.528015 71.87419 -42.97821 71.58859c-23.450134 -0.28559875 -42.371765 -32.71849 -42.371765 -72.62807" fill-rule="evenodd"/><defs><linearGradient id="p.13" gradientUnits="userSpaceOnUse" gradientTransform="matrix(11.971093793558433 0.0 0.0 11.971093793558433 0.0 0.0)" spreadMethod="pad" x1="44.30861384311387" y1="10.107461975879922" x2="56.2797076366723" y2="10.107461975879922"><stop offset="0.0" stop-color="#1c4587"/><stop offset="0.5" stop-color="#6d9eeb"/><stop offset="1.0" stop-color="#1c4587"/></linearGradient></defs><path fill="url(#p.13)" d="m530.42255 99.72179l0 0c0 -11.750183 32.080383 -21.275589 71.653564 -21.275589l0 0c39.57318 0 71.653564 9.525406 71.653564 21.275589l0 0c0 11.750183 -32.080383 21.275589 -71.653564 21.275589l0 0c-39.57318 0 -71.653564 -9.525406 -71.653564 -21.275589z" fill-rule="evenodd"/><path stroke="#000000" stroke-width="3.0" stroke-linejoin="round" stroke-linecap="butt" d="m530.42255 99.72179l0 0c0 -11.750183 32.080383 -21.275589 71.653564 -21.275589l0 0c39.57318 0 71.653564 9.525406 71.653564 21.275589l0 0c0 11.750183 -32.080383 21.275589 -71.653564 21.275589l0 0c-39.57318 0 -71.653564 -9.525406 -71.653564 -21.275589z" fill-rule="evenodd"/><defs><linearGradient id="p.14" gradientUnits="userSpaceOnUse" gradientTransform="matrix(9.258063361455482 0.0 0.0 9.258063361455482 0.0 0.0)" spreadMethod="pad" x1="60.31657770755847" y1="45.226646946593824" x2="69.57464106901396" y2="45.226646946593824"><stop offset="0.0" stop-color="#1c4587"/><stop offset="0.5" stop-color="#6d9eeb"/><stop offset="1.0" stop-color="#1c4587"/></linearGradient></defs><path fill="url(#p.14)" d="m558.4147 410.92914c3.439148 0.97262573 13.491821 4.5386963 20.634705 5.8356934c7.1428223 1.2969971 14.286133 1.9463196 22.222534 1.9463196c7.9363403 0 18.253235 -0.6493225 25.39563 -1.9463196c7.142456 -1.2969971 14.549072 -4.8630676 17.458862 -5.8356934" fill-rule="evenodd"/><path stroke="#000000" stroke-width="2.0" stroke-linejoin="round" stroke-linecap="butt" d="m558.4147 410.92914c3.439148 0.97262573 13.491821 4.5386963 20.634705 5.8356934c7.1428223 1.2969971 14.286133 1.9463196 22.222534 1.9463196c7.9363403 0 18.253235 -0.6493225 25.39563 -1.9463196c7.142456 -1.2969971 14.549072 -4.8630676 17.458862 -5.8356934" fill-rule="evenodd"/><defs><linearGradient id="p.15" gradientUnits="userSpaceOnUse" gradientTransform="matrix(8.893524344289343 0.0 0.0 8.893524344289343 0.0 0.0)" spreadMethod="pad" x1="63.22831835994832" y1="49.46446074657076" x2="72.12184270423766" y2="49.46446074657076"><stop offset="0.0" stop-color="#1c4587"/><stop offset="0.5" stop-color="#c9daf8"/><stop offset="1.0" stop-color="#1c4587"/></linearGradient></defs><path fill="url(#p.15)" d="m562.3226 413.51666l0 0c6.316162 -27.553436 21.818909 -45.836975 39.196167 -46.2269c17.377258 -0.38989258 33.157837 17.19168 39.89862 44.45215l-39.336 28.171478z" fill-rule="evenodd"/><path fill="#000000" fill-opacity="0.0" d="m562.3226 413.51666l0 0c6.316162 -27.553436 21.818909 -45.836975 39.196167 -46.2269c17.377258 -0.38989258 33.157837 17.19168 39.89862 44.45215" fill-rule="evenodd"/><path stroke="#741b47" stroke-width="3.0" stroke-linejoin="round" stroke-linecap="butt" d="m562.3226 413.51666l0 0c6.316162 -27.553436 21.818909 -45.836975 39.196167 -46.2269c17.377258 -0.38989258 33.157837 17.19168 39.89862 44.45215" fill-rule="evenodd"/><path fill="#3b68a6" fill-opacity="0.35" d="m562.3213 413.51666l0 0c6.316162 -27.553436 21.818909 -45.836975 39.196106 -46.2269c17.377258 -0.38989258 33.157837 17.19168 39.89868 44.45215l-39.336 28.171478z" fill-rule="evenodd"/><path fill="#000000" fill-opacity="0.0" d="m562.3213 413.51666l0 0c6.316162 -27.553436 21.818909 -45.836975 39.196106 -46.2269c17.377258 -0.38989258 33.157837 17.19168 39.89868 44.45215" fill-rule="evenodd"/><path stroke="#741b47" stroke-width="3.0" stroke-linejoin="round" stroke-linecap="butt" d="m562.3213 413.51666l0 0c6.316162 -27.553436 21.818909 -45.836975 39.196106 -46.2269c17.377258 -0.38989258 33.157837 17.19168 39.89868 44.45215" fill-rule="evenodd"/><path fill="#ffffff" d="m640.80023 414.38583l0 0c0.01739502 28.19696 -17.31305 51.055115 -38.70868 51.055115c-21.395569 0 -38.75421 -22.858154 -38.771606 -51.055115l0 0c25.428467 8.509186 52.062317 8.509186 77.480286 0z" fill-rule="evenodd"/><path fill="#000000" d="m645.57745 409.43832l0 0c0 6.679596 -19.325806 12.094482 -43.165405 12.094482c-23.839539 0 -43.165344 -5.4148865 -43.165344 -12.094482l0 0c6.6377563 5.074646 23.875916 8.448608 43.165344 8.448608c19.28949 0 36.52765 -3.3739624 43.165405 -8.448608z" fill-rule="evenodd"/><path fill="#a64d79" fill-opacity="0.35" d="m315.54083 183.45287l101.81891 -66.362206l53.173218 53.196846l-101.81891 66.36221z" fill-rule="evenodd"/><path stroke="#000000" stroke-width="2.0" stroke-linejoin="round" stroke-linecap="butt" d="m315.54083 183.45287l101.81891 -66.362206l53.173218 53.196846l-101.81891 66.36221z" fill-rule="evenodd"/><defs><linearGradient id="p.16" gradientUnits="userSpaceOnUse" gradientTransform="matrix(-11.97120341845753 0.0 0.0 -11.97120341845753 0.0 0.0)" spreadMethod="pad" x1="-38.81777978488466" y1="-8.535245938331576" x2="-26.846576366427126" y2="-8.535245938331576"><stop offset="0.0" stop-color="#1c4587"/><stop offset="0.5" stop-color="#c9daf8"/><stop offset="1.0" stop-color="#1c4587"/></linearGradient></defs><path fill="url(#p.16)" d="m464.69553 102.17716l-71.65485 149.38583l-71.65485 -149.38583z" fill-rule="evenodd"/><path stroke="#000000" stroke-width="3.0" stroke-linejoin="round" stroke-linecap="butt" d="m464.69553 102.17716l-71.65485 149.38583l-71.65485 -149.38583z" fill-rule="evenodd"/><defs><linearGradient id="p.17" gradientUnits="userSpaceOnUse" gradientTransform="matrix(11.971093793558433 0.0 0.0 11.971093793558433 0.0 0.0)" spreadMethod="pad" x1="26.846602962268303" y1="10.42131949905719" x2="38.81769675582674" y2="10.42131949905719"><stop offset="0.0" stop-color="#1c4587"/><stop offset="0.5" stop-color="#6d9eeb"/><stop offset="1.0" stop-color="#1c4587"/></linearGradient></defs><path fill="url(#p.17)" d="m321.3832 103.479004l0 0c0 -11.750183 32.080383 -21.275589 71.653534 -21.275589l0 0c39.57315 0 71.653534 9.525406 71.653534 21.275589l0 0c0 11.750183 -32.080383 21.275589 -71.653534 21.275589l0 0c-39.57315 0 -71.653534 -9.525406 -71.653534 -21.275589z" fill-rule="evenodd"/><path stroke="#000000" stroke-width="3.0" stroke-linejoin="round" stroke-linecap="butt" d="m321.3832 103.479004l0 0c0 -11.750183 32.080383 -21.275589 71.653534 -21.275589l0 0c39.57315 0 71.653534 9.525406 71.653534 21.275589l0 0c0 11.750183 -32.080383 21.275589 -71.653534 21.275589l0 0c-39.57315 0 -71.653534 -9.525406 -71.653534 -21.275589z" fill-rule="evenodd"/><defs><linearGradient id="p.18" gradientUnits="userSpaceOnUse" gradientTransform="matrix(11.97120341845753 0.0 0.0 11.97120341845753 0.0 0.0)" spreadMethod="pad" x1="26.84635711763281" y1="33.379203817474746" x2="38.81756053609034" y2="33.379203817474746"><stop offset="0.0" stop-color="#1c4587"/><stop offset="0.5" stop-color="#c9daf8"/><stop offset="1.0" stop-color="#1c4587"/></linearGradient></defs><path fill="url(#p.18)" d="m321.3832 399.58923l71.65485 -149.38582l71.65485 149.38582z" fill-rule="evenodd"/><path stroke="#000000" stroke-width="3.0" stroke-linejoin="round" stroke-linecap="butt" d="m321.3832 399.58923l71.65485 -149.38582l71.65485 149.38582z" fill-rule="evenodd"/><defs><linearGradient id="p.19" gradientUnits="userSpaceOnUse" gradientTransform="matrix(-11.971093793558433 0.0 0.0 -11.971093793558433 0.0 0.0)" spreadMethod="pad" x1="-38.818135257430896" y1="-31.49351408694915" x2="-26.847041463872465" y2="-31.49351408694915"><stop offset="0.0" stop-color="#1c4587"/><stop offset="0.5" stop-color="#c9daf8"/><stop offset="1.0" stop-color="#1c4587"/></linearGradient></defs><path fill="url(#p.19)" d="m464.69553 398.2874l0 0c0 11.750183 -32.080383 21.275574 -71.653534 21.275574l0 0c-39.57315 0 -71.653534 -9.525391 -71.653534 -21.275574l0 0c0 -11.750183 32.080383 -21.275604 71.653534 -21.275604l0 0c39.57315 0 71.653534 9.525421 71.653534 21.275604z" fill-rule="evenodd"/><path stroke="#000000" stroke-width="3.0" stroke-linejoin="round" stroke-linecap="butt" d="m464.69553 398.2874l0 0c0 11.750183 -32.080383 21.275574 -71.653534 21.275574l0 0c-39.57315 0 -71.653534 -9.525391 -71.653534 -21.275574l0 0c0 -11.750183 32.080383 -21.275604 71.653534 -21.275604l0 0c39.57315 0 71.653534 9.525421 71.653534 21.275604z" fill-rule="evenodd"/><path fill="#a64d79" fill-opacity="0.35" d="m464.69553 305.0118l-10.637787 42.551178l-132.66928 0l10.637787 -42.551178z" fill-rule="evenodd"/><path stroke="#000000" stroke-width="2.0" stroke-linejoin="round" stroke-linecap="butt" d="m464.69553 305.0118l-10.637787 42.551178l-132.66928 0l10.637787 -42.551178z" fill-rule="evenodd"/><defs><linearGradient id="p.20" gradientUnits="userSpaceOnUse" gradientTransform="matrix(8.106573593884834 0.0 0.0 8.106573593884834 0.0 0.0)" spreadMethod="pad" x1="44.4304210057364" y1="39.65075439180058" x2="52.53699459962123" y2="39.65075439180058"><stop offset="0.0" stop-color="#1c4587"/><stop offset="0.5" stop-color="#c9daf8"/><stop offset="1.0" stop-color="#1c4587"/></linearGradient></defs><path fill="url(#p.20)" d="m360.17847 321.43176l32.858276 -69.20735l32.858276 69.20735z" fill-rule="evenodd"/><path stroke="#000000" stroke-width="2.0" stroke-linejoin="round" stroke-linecap="butt" d="m360.17847 321.43176l32.858276 -69.20735l32.858276 69.20735z" fill-rule="evenodd"/><defs><linearGradient id="p.21" gradientUnits="userSpaceOnUse" gradientTransform="matrix(-8.29001866396083 0.0 0.0 -8.29001866396083 0.0 0.0)" spreadMethod="pad" x1="-51.5564821745358" y1="-37.67915429990247" x2="-43.26646351057497" y2="-37.67915429990247"><stop offset="0.0" stop-color="#1c4587"/><stop offset="0.5" stop-color="#c9daf8"/><stop offset="1.0" stop-color="#1c4587"/></linearGradient></defs><path fill="url(#p.21)" d="m427.4042 324.89633l0 0c0 6.923126 -15.384491 12.535431 -34.362213 12.535431l0 0c-18.977722 0 -34.362213 -5.6123047 -34.362213 -12.535431l0 0c0 -6.923126 15.384491 -12.535431 34.362213 -12.535431l0 0c18.977722 0 34.362213 5.6123047 34.362213 12.535431z" fill-rule="evenodd"/><path stroke="#741b47" stroke-width="3.0" stroke-linejoin="round" stroke-linecap="butt" d="m427.4042 324.89633l0 0c0 6.923126 -15.384491 12.535431 -34.362213 12.535431l0 0c-18.977722 0 -34.362213 -5.6123047 -34.362213 -12.535431l0 0c0 -6.923126 15.384491 -12.535431 34.362213 -12.535431l0 0c18.977722 0 34.362213 5.6123047 34.362213 12.535431z" fill-rule="evenodd"/><path fill="#3b68a6" fill-opacity="0.35" d="m427.4042 324.89633l0 0c0 6.923126 -15.384491 12.535431 -34.362213 12.535431l0 0c-18.977722 0 -34.362213 -5.6123047 -34.362213 -12.535431l0 0c0 -6.923126 15.384491 -12.535431 34.362213 -12.535431l0 0c18.977722 0 34.362213 5.6123047 34.362213 12.535431z" fill-rule="evenodd"/><path stroke="#741b47" stroke-width="3.0" stroke-linejoin="round" stroke-linecap="butt" d="m427.4042 324.89633l0 0c0 6.923126 -15.384491 12.535431 -34.362213 12.535431l0 0c-18.977722 0 -34.362213 -5.6123047 -34.362213 -12.535431l0 0c0 -6.923126 15.384491 -12.535431 34.362213 -12.535431l0 0c18.977722 0 34.362213 5.6123047 34.362213 12.535431z" fill-rule="evenodd"/><path fill="#a64d79" fill-opacity="0.35" d="m366.4462 194.0l16.763763 33.53018l31.136505 -21.553802l23.950134 -47.902893z" fill-rule="evenodd"/><path stroke="#000000" stroke-width="2.0" stroke-linejoin="round" stroke-linecap="butt" d="m366.4462 194.0l16.763763 33.53018l31.136505 -21.553802l23.950134 -47.902893z" fill-rule="evenodd"/><defs><linearGradient id="p.22" gradientUnits="userSpaceOnUse" gradientTransform="matrix(8.494555456827248 -4.886872148622587 4.886872148622587 8.494555456827248 0.0 0.0)" spreadMethod="pad" x1="22.610167002506405" y1="36.98417743179711" x2="31.10472245933365" y2="36.98417743179711"><stop offset="0.0" stop-color="#1c4587"/><stop offset="0.5" stop-color="#c9daf8"/><stop offset="1.0" stop-color="#1c4587"/></linearGradient></defs><path fill="url(#p.22)" d="m366.06668 191.96658l0 0c-3.7224731 -6.4621735 9.412842 -20.99353 29.338593 -32.456696l0 0c19.92572 -11.463165 39.096405 -15.517288 42.81888 -9.055115l0 0c3.7225037 6.462158 -9.412842 20.993515 -29.338562 32.456696l0 0c-19.92575 11.463165 -39.096436 15.517273 -42.81891 9.055115z" fill-rule="evenodd"/><path stroke="#741b47" stroke-width="3.0" stroke-linejoin="round" stroke-linecap="butt" d="m366.06668 191.96658l0 0c-3.7224731 -6.4621735 9.412842 -20.99353 29.338593 -32.456696l0 0c19.92572 -11.463165 39.096405 -15.517288 42.81888 -9.055115l0 0c3.7225037 6.462158 -9.412842 20.993515 -29.338562 32.456696l0 0c-19.92575 11.463165 -39.096436 15.517273 -42.81891 9.055115z" fill-rule="evenodd"/><path fill="#3b68a6" fill-opacity="0.35" d="m366.06668 191.96658l0 0c-3.7224731 -6.4621735 9.412842 -20.99353 29.338593 -32.456696l0 0c19.92572 -11.463165 39.096405 -15.517288 42.81888 -9.055115l0 0c3.7225037 6.462158 -9.412842 20.993515 -29.338562 32.456696l0 0c-19.92575 11.463165 -39.096436 15.517273 -42.81891 9.055115z" fill-rule="evenodd"/><path stroke="#741b47" stroke-width="3.0" stroke-linejoin="round" stroke-linecap="butt" d="m366.06668 191.96658l0 0c-3.7224731 -6.4621735 9.412842 -20.99353 29.338593 -32.456696l0 0c19.92572 -11.463165 39.096405 -15.517288 42.81888 -9.055115l0 0c3.7225037 6.462158 -9.412842 20.993515 -29.338562 32.456696l0 0c-19.92575 11.463165 -39.096436 15.517273 -42.81891 9.055115z" fill-rule="evenodd"/></g></svg>