<?xml version="1.0" encoding="UTF-8"?>
<svg xmlns="http://www.w3.org/2000/svg" xmlns:xlink="http://www.w3.org/1999/xlink" width="184.425pt" height="127.732pt" viewBox="0 0 184.425 127.732" version="1.1">
<g id="surface1">
<path style="fill:none;stroke-width:0.3985;stroke-linecap:butt;stroke-linejoin:miter;stroke:rgb(0%,0%,0%);stroke-opacity:1;stroke-miterlimit:10;" d="M 85.041906 -0.0011875 C 85.041906 31.311312 46.967687 56.694125 -0.0010625 56.694125 C -46.965906 56.694125 -85.040125 31.311312 -85.040125 -0.0011875 C -85.040125 -31.309781 -46.965906 -56.692594 -0.0010625 -56.692594 C 46.967687 -56.692594 85.041906 -31.309781 85.041906 -0.0011875 Z M 85.041906 -0.0011875 " transform="matrix(1,0,0,-1,92.212,63.866)"/>
<path style="fill-rule:nonzero;fill:rgb(0%,0%,0%);fill-opacity:1;stroke-width:0.3985;stroke-linecap:butt;stroke-linejoin:miter;stroke:rgb(0%,0%,0%);stroke-opacity:1;stroke-miterlimit:10;" d="M 65.373937 -0.0011875 C 65.373937 1.100375 64.483312 1.991 63.38175 1.991 C 62.284094 1.991 61.389562 1.100375 61.389562 -0.0011875 C 61.389562 -1.098844 62.284094 -1.993375 63.38175 -1.993375 C 64.483312 -1.993375 65.373937 -1.098844 65.373937 -0.0011875 Z M 65.373937 -0.0011875 " transform="matrix(1,0,0,-1,92.212,63.866)"/>
<path style="fill-rule:nonzero;fill:rgb(0%,0%,0%);fill-opacity:1;stroke-width:0.3985;stroke-linecap:butt;stroke-linejoin:miter;stroke:rgb(0%,0%,0%);stroke-opacity:1;stroke-miterlimit:10;" d="M -61.391688 -0.0011875 C -61.391688 1.100375 -62.282313 1.991 -63.383875 1.991 C -64.485438 1.991 -65.376063 1.100375 -65.376063 -0.0011875 C -65.376063 -1.098844 -64.485438 -1.993375 -63.383875 -1.993375 C -62.282313 -1.993375 -61.391688 -1.098844 -61.391688 -0.0011875 Z M -61.391688 -0.0011875 " transform="matrix(1,0,0,-1,92.212,63.866)"/>
<path style="fill:none;stroke-width:0.3985;stroke-linecap:butt;stroke-linejoin:miter;stroke:rgb(100%,0%,0%);stroke-opacity:1;stroke-miterlimit:10;" d="M 63.38175 -0.0011875 L -0.0010625 56.694125 L -63.383875 -0.0011875 " transform="matrix(1,0,0,-1,92.212,63.866)"/>
<path style="fill:none;stroke-width:0.3985;stroke-linecap:butt;stroke-linejoin:miter;stroke:rgb(0%,0%,100%);stroke-opacity:1;stroke-miterlimit:10;" d="M 63.38175 -0.0011875 L -28.348719 -53.450406 L -63.383875 -0.0011875 " transform="matrix(1,0,0,-1,92.212,63.866)"/>
<path style="fill:none;stroke-width:0.3985;stroke-linecap:butt;stroke-linejoin:miter;stroke:rgb(0%,100%,0%);stroke-opacity:1;stroke-miterlimit:10;" d="M 63.38175 -0.0011875 L 82.338781 -14.173063 L -63.383875 -0.0011875 " transform="matrix(1,0,0,-1,92.212,63.866)"/>
</g>
</svg>
