<?xml version="1.0" encoding="UTF-8" standalone="no"?>
<svg
   xmlns:dc="http://purl.org/dc/elements/1.1/"
   xmlns:cc="http://creativecommons.org/ns#"
   xmlns:rdf="http://www.w3.org/1999/02/22-rdf-syntax-ns#"
   xmlns:svg="http://www.w3.org/2000/svg"
   xmlns="http://www.w3.org/2000/svg"
   viewBox="0 0 197.24374 54.376251"
   height="54.376251"
   width="197.24374"
   xml:space="preserve"
   version="1.1"
   id="svg2"><metadata
     id="metadata8"><rdf:RDF><cc:Work
         rdf:about=""><dc:format>image/svg+xml</dc:format><dc:type
           rdf:resource="http://purl.org/dc/dcmitype/StillImage" /></cc:Work></rdf:RDF></metadata><defs
     id="defs6" /><g
     transform="matrix(1.25,0,0,-1.25,0,54.37625)"
     id="g10"><g
       transform="translate(-4.441,-36.644)"
       id="g12"><g
         id="g14"><g
           id="g16"><g
             id="g18"><g
               transform="translate(19.425,48.226)"
               id="g20"><g
                 id="g22"><g
                   transform="translate(-14.984,-11.582)"
                   id="g24"><text
                     id="text26"
                     style="font-variant:normal;font-weight:normal;font-size:24.78709984px;font-family:CMR17;-inkscape-font-specification:CMR17;writing-mode:lr-tb;fill:#000000;fill-opacity:1;fill-rule:nonzero;stroke:none"
                     transform="matrix(1,0,0,-1,14.984,11.582)"><tspan
                       id="tspan28"
                       y="0"
                       x="0">O</tspan></text>
<g
                     transform="translate(14.984,11.582)"
                     id="g30" /></g></g><g
                 transform="translate(-19.425,-48.226)"
                 id="g32" /></g></g><g
             id="g34"><g
               transform="translate(76.765,48.226)"
               id="g36"><g
                 id="g38"><g
                   transform="translate(-72.324,-11.582)"
                   id="g40"><text
                     id="text42"
                     style="font-variant:normal;font-weight:normal;font-size:24.78709984px;font-family:CMR17;-inkscape-font-specification:CMR17;writing-mode:lr-tb;fill:#000000;fill-opacity:1;fill-rule:nonzero;stroke:none"
                     transform="matrix(1,0,0,-1,72.324,11.582)"><tspan
                       id="tspan44"
                       y="0"
                       x="0">C</tspan></text>
<g
                     transform="translate(72.324,11.582)"
                     id="g46" /></g></g><g
                 transform="translate(-76.765,-48.226)"
                 id="g48" /></g></g><g
             id="g50"><g
               transform="translate(132.811,48.226)"
               id="g52"><g
                 id="g54"><g
                   transform="translate(-128.37,-11.582)"
                   id="g56"><text
                     id="text58"
                     style="font-variant:normal;font-weight:normal;font-size:24.78709984px;font-family:CMR17;-inkscape-font-specification:CMR17;writing-mode:lr-tb;fill:#000000;fill-opacity:1;fill-rule:nonzero;stroke:none"
                     transform="matrix(1,0,0,-1,128.37,11.582)"><tspan
                       id="tspan60"
                       y="0"
                       x="0">O</tspan></text>
<g
                     transform="translate(128.37,11.582)"
                     id="g62" /></g></g><g
                 transform="translate(-132.811,-48.226)"
                 id="g64" /></g></g><path
             id="path66"
             style="fill:#000000;fill-opacity:1;fill-rule:nonzero;stroke:#000000;stroke-width:0.3985;stroke-linecap:butt;stroke-linejoin:miter;stroke-miterlimit:10;stroke-dasharray:none;stroke-opacity:1"
             d="m 51.1783,56.69362 c 0,1.65069 -1.33812,2.98883 -2.98883,2.98883 -1.6507,0 -2.98883,-1.33814 -2.98883,-2.98883 0,-1.65071 1.33813,-2.98883 2.98883,-2.98883 1.65071,0 2.98883,1.33812 2.98883,2.98883 z" /><path
             id="path68"
             style="fill:#000000;fill-opacity:1;fill-rule:nonzero;stroke:#000000;stroke-width:0.3985;stroke-linecap:butt;stroke-linejoin:miter;stroke-miterlimit:10;stroke-dasharray:none;stroke-opacity:1"
             d="m 68.18657,56.69362 c 0,1.65069 -1.33812,2.98883 -2.98883,2.98883 -1.65071,0 -2.98883,-1.33814 -2.98883,-2.98883 0,-1.65071 1.33812,-2.98883 2.98883,-2.98883 1.65071,0 2.98883,1.33812 2.98883,2.98883 z" /><path
             id="path70"
             style="fill:#000000;fill-opacity:1;fill-rule:nonzero;stroke:#000000;stroke-width:0.3985;stroke-linecap:butt;stroke-linejoin:miter;stroke-miterlimit:10;stroke-dasharray:none;stroke-opacity:1"
             d="m 107.87192,56.69362 c 0,1.65069 -1.33812,2.98883 -2.98883,2.98883 -1.6507,0 -2.98883,-1.33814 -2.98883,-2.98883 0,-1.65071 1.33813,-2.98883 2.98883,-2.98883 1.65071,0 2.98883,1.33812 2.98883,2.98883 z" /><path
             id="path72"
             style="fill:#000000;fill-opacity:1;fill-rule:nonzero;stroke:#000000;stroke-width:0.3985;stroke-linecap:butt;stroke-linejoin:miter;stroke-miterlimit:10;stroke-dasharray:none;stroke-opacity:1"
             d="m 124.88019,56.69362 c 0,1.65069 -1.33812,2.98883 -2.98883,2.98883 -1.65071,0 -2.98883,-1.33814 -2.98883,-2.98883 0,-1.65071 1.33812,-2.98883 2.98883,-2.98883 1.65071,0 2.98883,1.33812 2.98883,2.98883 z" /></g></g></g></g></svg>