<?xml version="1.0" encoding="UTF-8" standalone="no"?>
<svg
   xmlns:dc="http://purl.org/dc/elements/1.1/"
   xmlns:cc="http://creativecommons.org/ns#"
   xmlns:rdf="http://www.w3.org/1999/02/22-rdf-syntax-ns#"
   xmlns:svg="http://www.w3.org/2000/svg"
   xmlns="http://www.w3.org/2000/svg"
   viewBox="0 0 161.81 128.785"
   height="128.785"
   width="161.81"
   xml:space="preserve"
   version="1.1"
   id="svg2"><metadata
     id="metadata8"><rdf:RDF><cc:Work
         rdf:about=""><dc:format>image/svg+xml</dc:format><dc:type
           rdf:resource="http://purl.org/dc/dcmitype/StillImage" /></cc:Work></rdf:RDF></metadata><defs
     id="defs6" /><g
     transform="matrix(1.25,0,0,-1.25,0,128.785)"
     id="g10"><g
       transform="translate(-4.441,-8.297)"
       id="g12"><g
         id="g14"><g
           id="g16"><g
             id="g18"><g
               transform="translate(19.425,19.879)"
               id="g20"><g
                 id="g22"><g
                   transform="translate(-14.984,-11.582)"
                   id="g24"><text
                     id="text26"
                     style="font-variant:normal;font-weight:normal;font-size:24.78709984px;font-family:CMR17;-inkscape-font-specification:CMR17;writing-mode:lr-tb;fill:#000000;fill-opacity:1;fill-rule:nonzero;stroke:none"
                     transform="matrix(1,0,0,-1,14.984,11.582)"><tspan
                       id="tspan28"
                       y="0"
                       x="0">O</tspan></text>
<g
                     transform="translate(14.984,11.582)"
                     id="g30" /></g></g><g
                 transform="translate(-19.425,-19.879)"
                 id="g32" /></g></g><g
             id="g34"><g
               transform="translate(104.464,19.879)"
               id="g36"><g
                 id="g38"><g
                   transform="translate(-100.023,-11.582)"
                   id="g40"><text
                     id="text42"
                     style="font-variant:normal;font-weight:normal;font-size:24.78709984px;font-family:CMR17;-inkscape-font-specification:CMR17;writing-mode:lr-tb;fill:#000000;fill-opacity:1;fill-rule:nonzero;stroke:none"
                     transform="matrix(1,0,0,-1,100.023,11.582)"><tspan
                       id="tspan44"
                       y="0"
                       x="0">O</tspan></text>
<g
                     transform="translate(100.023,11.582)"
                     id="g46" /></g></g><g
                 transform="translate(-104.464,-19.879)"
                 id="g48" /></g></g><g
             id="g50"><g
               transform="translate(62.273,34.052)"
               id="g52"><g
                 id="g54"><g
                   transform="translate(-57.832,-25.755)"
                   id="g56"><text
                     id="text58"
                     style="font-variant:normal;font-weight:normal;font-size:24.78709984px;font-family:CMR17;-inkscape-font-specification:CMR17;writing-mode:lr-tb;fill:#000000;fill-opacity:1;fill-rule:nonzero;stroke:none"
                     transform="matrix(1,0,0,-1,57.832,25.755)"><tspan
                       id="tspan60"
                       y="0"
                       x="0">N</tspan></text>
<g
                     transform="translate(57.832,25.755)"
                     id="g62" /></g></g><g
                 transform="translate(-62.273,-34.052)"
                 id="g64" /></g></g><g
             id="g66"><g
               transform="translate(61.945,79.407)"
               id="g68"><g
                 id="g70"><g
                   transform="translate(-57.504,-71.11)"
                   id="g72"><text
                     id="text74"
                     style="font-variant:normal;font-weight:normal;font-size:24.78709984px;font-family:CMR17;-inkscape-font-specification:CMR17;writing-mode:lr-tb;fill:#000000;fill-opacity:1;fill-rule:nonzero;stroke:none"
                     transform="matrix(1,0,0,-1,57.504,71.11)"><tspan
                       id="tspan76"
                       y="0"
                       x="0">O</tspan></text>
<g
                     transform="translate(57.504,71.11)"
                     id="g78" /></g></g><g
                 transform="translate(-61.945,-79.407)"
                 id="g80" /></g></g><path
             id="path82"
             style="fill:#000000;fill-opacity:1;fill-rule:nonzero;stroke:#000000;stroke-width:0.3985;stroke-linecap:butt;stroke-linejoin:miter;stroke-miterlimit:10;stroke-dasharray:none;stroke-opacity:1"
             d="m 73.3577,56.69362 c 0,1.37558 -1.11512,2.49069 -2.4907,2.49069 -1.37558,0 -2.49069,-1.11511 -2.49069,-2.49069 0,-1.3756 1.11511,-2.49069 2.49069,-2.49069 1.37558,0 2.4907,1.11509 2.4907,2.49069 z" /><path
             id="path84"
             style="fill:#000000;fill-opacity:1;fill-rule:nonzero;stroke:#000000;stroke-width:0.3985;stroke-linecap:butt;stroke-linejoin:miter;stroke-miterlimit:10;stroke-dasharray:none;stroke-opacity:1"
             d="m 73.3577,70.867 c 0,1.37558 -1.11512,2.4907 -2.4907,2.4907 -1.37558,0 -2.49069,-1.11512 -2.49069,-2.4907 0,-1.37558 1.11511,-2.49069 2.49069,-2.49069 1.37558,0 2.4907,1.11511 2.4907,2.49069 z" /><path
             id="path86"
             style="fill:#000000;fill-opacity:1;fill-rule:nonzero;stroke:#000000;stroke-width:0.3985;stroke-linecap:butt;stroke-linejoin:miter;stroke-miterlimit:10;stroke-dasharray:none;stroke-opacity:1"
             d="m 45.0109,33.16571 c 0,1.37558 -1.11512,2.49069 -2.4907,2.49069 -1.37558,0 -2.49069,-1.11511 -2.49069,-2.49069 0,-1.37558 1.11511,-2.49069 2.49069,-2.49069 1.37558,0 2.4907,1.11511 2.4907,2.49069 z" /><path
             id="path88"
             style="fill:#000000;fill-opacity:1;fill-rule:nonzero;stroke:#000000;stroke-width:0.3985;stroke-linecap:butt;stroke-linejoin:miter;stroke-miterlimit:10;stroke-dasharray:none;stroke-opacity:1"
             d="m 59.18431,37.98462 c 0,1.37558 -1.11511,2.49069 -2.49069,2.49069 -1.3756,0 -2.49069,-1.11511 -2.49069,-2.49069 0,-1.37558 1.11509,-2.49069 2.49069,-2.49069 1.37558,0 2.49069,1.11511 2.49069,2.49069 z" /><path
             id="path90"
             style="fill:#000000;fill-opacity:1;fill-rule:nonzero;stroke:#000000;stroke-width:0.3985;stroke-linecap:butt;stroke-linejoin:miter;stroke-miterlimit:10;stroke-dasharray:none;stroke-opacity:1"
             d="m 101.70451,33.16571 c 0,1.37558 -1.11511,2.49069 -2.49069,2.49069 -1.37558,0 -2.49069,-1.11511 -2.49069,-2.49069 0,-1.37558 1.11511,-2.49069 2.49069,-2.49069 1.37558,0 2.49069,1.11511 2.49069,2.49069 z" /><path
             id="path92"
             style="fill:#000000;fill-opacity:1;fill-rule:nonzero;stroke:#000000;stroke-width:0.3985;stroke-linecap:butt;stroke-linejoin:miter;stroke-miterlimit:10;stroke-dasharray:none;stroke-opacity:1"
             d="m 87.53111,37.98462 c 0,1.37558 -1.11511,2.49069 -2.49069,2.49069 -1.37558,0 -2.49069,-1.11511 -2.49069,-2.49069 0,-1.37558 1.11511,-2.49069 2.49069,-2.49069 1.37558,0 2.49069,1.11511 2.49069,2.49069 z" /></g></g></g></g></svg>