<?xml version="1.0" encoding="UTF-8" standalone="no"?>
<svg
   xmlns:dc="http://purl.org/dc/elements/1.1/"
   xmlns:cc="http://creativecommons.org/ns#"
   xmlns:rdf="http://www.w3.org/1999/02/22-rdf-syntax-ns#"
   xmlns:svg="http://www.w3.org/2000/svg"
   xmlns="http://www.w3.org/2000/svg"
   viewBox="0 0 593.27374 136.1875"
   height="136.1875"
   width="593.27374"
   xml:space="preserve"
   version="1.1"
   id="svg2"><metadata
     id="metadata8"><rdf:RDF><cc:Work
         rdf:about=""><dc:format>image/svg+xml</dc:format><dc:type
           rdf:resource="http://purl.org/dc/dcmitype/StillImage" /></cc:Work></rdf:RDF></metadata><defs
     id="defs6" /><g
     transform="matrix(1.25,0,0,-1.25,0,136.1875)"
     id="g10"><g
       transform="translate(-1.935,-5.336)"
       id="g12"><g
         id="g14"><g
           id="g16"><g
             id="g18"><g
               transform="translate(19.426,19.879)"
               id="g20"><g
                 id="g22"><g
                   transform="translate(-17.491,-14.543)"
                   id="g24"><text
                     id="text26"
                     style="font-variant:normal;font-weight:normal;font-size:24.78709984px;font-family:CMR17;-inkscape-font-specification:CMR17;writing-mode:lr-tb;fill:#000000;fill-opacity:1;fill-rule:nonzero;stroke:none"
                     transform="matrix(1,0,0,-1,17.491,14.543)"><tspan
                       id="tspan28"
                       y="0"
                       x="0">O</tspan></text>
<g
                     transform="translate(17.491,14.543)"
                     id="g30" /></g></g><g
                 transform="translate(-19.426,-19.879)"
                 id="g32" /></g></g><g
             id="g34"><g
               transform="translate(104.465,19.879)"
               id="g36"><g
                 id="g38"><g
                   transform="translate(-102.53,-14.543)"
                   id="g40"><text
                     id="text42"
                     style="font-variant:normal;font-weight:normal;font-size:24.78709984px;font-family:CMR17;-inkscape-font-specification:CMR17;writing-mode:lr-tb;fill:#000000;fill-opacity:1;fill-rule:nonzero;stroke:none"
                     transform="matrix(1,0,0,-1,102.53,14.543)"><tspan
                       id="tspan44"
                       y="0"
                       x="0">O</tspan></text>
<g
                     transform="translate(102.53,14.543)"
                     id="g46" /></g></g><g
                 transform="translate(-104.465,-19.879)"
                 id="g48" /></g></g><g
             id="g50"><g
               transform="translate(62.274,34.052)"
               id="g52"><g
                 id="g54"><g
                   transform="translate(-60.339,-28.716)"
                   id="g56"><text
                     id="text58"
                     style="font-variant:normal;font-weight:normal;font-size:24.78709984px;font-family:CMR17;-inkscape-font-specification:CMR17;writing-mode:lr-tb;fill:#000000;fill-opacity:1;fill-rule:nonzero;stroke:none"
                     transform="matrix(1,0,0,-1,60.339,28.716)"><tspan
                       id="tspan60"
                       y="0"
                       x="0">N</tspan></text>
<g
                     transform="translate(60.339,28.716)"
                     id="g62" /></g></g><g
                 transform="translate(-62.274,-34.052)"
                 id="g64" /></g></g><g
             id="g66"><g
               transform="translate(61.945,79.407)"
               id="g68"><g
                 id="g70"><g
                   transform="translate(-60.01,-74.071)"
                   id="g72"><text
                     id="text74"
                     style="font-variant:normal;font-weight:normal;font-size:24.78709984px;font-family:CMR17;-inkscape-font-specification:CMR17;writing-mode:lr-tb;fill:#000000;fill-opacity:1;fill-rule:nonzero;stroke:none"
                     transform="matrix(1,0,0,-1,60.01,74.071)"><tspan
                       id="tspan76"
                       y="0"
                       x="0">O</tspan></text>
<g
                     transform="translate(60.01,74.071)"
                     id="g78" /></g></g><g
                 transform="translate(-61.945,-79.407)"
                 id="g80" /></g></g><path
             id="path82"
             style="fill:#000000;fill-opacity:1;fill-rule:nonzero;stroke:#000000;stroke-width:0.3985;stroke-linecap:butt;stroke-linejoin:miter;stroke-miterlimit:10;stroke-dasharray:none;stroke-opacity:1"
             d="m 72.66031,56.69362 c 0,0.99042 -0.80287,1.79329 -1.79331,1.79329 -0.99041,0 -1.79328,-0.80287 -1.79328,-1.79329 0,-0.99043 0.80287,-1.79331 1.79328,-1.79331 0.99044,0 1.79331,0.80288 1.79331,1.79331 z" /><path
             id="path84"
             style="fill:#000000;fill-opacity:1;fill-rule:nonzero;stroke:#000000;stroke-width:0.3985;stroke-linecap:butt;stroke-linejoin:miter;stroke-miterlimit:10;stroke-dasharray:none;stroke-opacity:1"
             d="m 72.66031,70.867 c 0,0.99044 -0.80287,1.79331 -1.79331,1.79331 -0.99041,0 -1.79328,-0.80287 -1.79328,-1.79331 0,-0.99041 0.80287,-1.79328 1.79328,-1.79328 0.99044,0 1.79331,0.80287 1.79331,1.79328 z" /><path
             id="path86"
             style="fill:#000000;fill-opacity:1;fill-rule:nonzero;stroke:#000000;stroke-width:0.3985;stroke-linecap:butt;stroke-linejoin:miter;stroke-miterlimit:10;stroke-dasharray:none;stroke-opacity:1"
             d="m 44.3135,33.16571 c 0,0.99042 -0.80288,1.7933 -1.7933,1.7933 -0.99043,0 -1.7933,-0.80288 -1.7933,-1.7933 0,-0.99043 0.80287,-1.79331 1.7933,-1.79331 0.99042,0 1.7933,0.80288 1.7933,1.79331 z" /><path
             id="path88"
             style="fill:#000000;fill-opacity:1;fill-rule:nonzero;stroke:#000000;stroke-width:0.3985;stroke-linecap:butt;stroke-linejoin:miter;stroke-miterlimit:10;stroke-dasharray:none;stroke-opacity:1"
             d="m 58.48691,37.98462 c 0,0.99042 -0.80287,1.79329 -1.79329,1.79329 -0.99043,0 -1.79331,-0.80287 -1.79331,-1.79329 0,-0.99043 0.80288,-1.79331 1.79331,-1.79331 0.99042,0 1.79329,0.80288 1.79329,1.79331 z" /><path
             id="path90"
             style="fill:#000000;fill-opacity:1;fill-rule:nonzero;stroke:#000000;stroke-width:0.3985;stroke-linecap:butt;stroke-linejoin:miter;stroke-miterlimit:10;stroke-dasharray:none;stroke-opacity:1"
             d="m 101.00713,38.26836 c 0,0.99043 -0.80289,1.7933 -1.79331,1.7933 -0.99043,0 -1.7933,-0.80287 -1.7933,-1.7933 0,-0.99042 0.80287,-1.79331 1.7933,-1.79331 0.99042,0 1.79331,0.80289 1.79331,1.79331 z" /><path
             id="path92"
             style="fill:#000000;fill-opacity:1;fill-rule:nonzero;stroke:#000000;stroke-width:0.3985;stroke-linecap:butt;stroke-linejoin:miter;stroke-miterlimit:10;stroke-dasharray:none;stroke-opacity:1"
             d="m 86.83372,43.93764 c 0,0.99041 -0.80287,1.79329 -1.7933,1.79329 -0.99042,0 -1.7933,-0.80288 -1.7933,-1.79329 0,-0.99044 0.80288,-1.79331 1.7933,-1.79331 0.99043,0 1.7933,0.80287 1.7933,1.79331 z" /><path
             id="path94"
             style="fill:#000000;fill-opacity:1;fill-rule:nonzero;stroke:#000000;stroke-width:0.3985;stroke-linecap:butt;stroke-linejoin:miter;stroke-miterlimit:10;stroke-dasharray:none;stroke-opacity:1"
             d="m 98.17227,31.18166 c 0,0.99041 -0.80287,1.7933 -1.7933,1.7933 -0.99042,0 -1.79331,-0.80289 -1.79331,-1.7933 0,-0.99044 0.80289,-1.79331 1.79331,-1.79331 0.99043,0 1.7933,0.80287 1.7933,1.79331 z" /><path
             id="path96"
             style="fill:#000000;fill-opacity:1;fill-rule:nonzero;stroke:#000000;stroke-width:0.3985;stroke-linecap:butt;stroke-linejoin:miter;stroke-miterlimit:10;stroke-dasharray:none;stroke-opacity:1"
             d="m 83.99886,36.85092 c 0,0.99043 -0.80288,1.79331 -1.79331,1.79331 -0.99042,0 -1.79329,-0.80288 -1.79329,-1.79331 0,-0.99042 0.80287,-1.7933 1.79329,-1.7933 0.99043,0 1.79331,0.80288 1.79331,1.7933 z" /><path
             id="path98"
             style="fill:#000000;fill-opacity:1;fill-rule:nonzero;stroke:#000000;stroke-width:0.3985;stroke-linecap:butt;stroke-linejoin:miter;stroke-miterlimit:10;stroke-dasharray:none;stroke-opacity:1"
             d="m 118.01538,41.10277 c 0,0.99042 -0.80287,1.7933 -1.7933,1.7933 -0.99042,0 -1.79329,-0.80288 -1.79329,-1.7933 0,-0.99042 0.80287,-1.79331 1.79329,-1.79331 0.99043,0 1.7933,0.80289 1.7933,1.79331 z" /><path
             id="path100"
             style="fill:#000000;fill-opacity:1;fill-rule:nonzero;stroke:#000000;stroke-width:0.3985;stroke-linecap:butt;stroke-linejoin:miter;stroke-miterlimit:10;stroke-dasharray:none;stroke-opacity:1"
             d="m 125.1021,36.85092 c 0,0.99043 -0.80289,1.79331 -1.79331,1.79331 -0.99043,0 -1.7933,-0.80288 -1.7933,-1.79331 0,-0.99042 0.80287,-1.7933 1.7933,-1.7933 0.99042,0 1.79331,0.80288 1.79331,1.7933 z" /><path
             id="path102"
             style="fill:#000000;fill-opacity:1;fill-rule:nonzero;stroke:#000000;stroke-width:0.3985;stroke-linecap:butt;stroke-linejoin:miter;stroke-miterlimit:10;stroke-dasharray:none;stroke-opacity:1"
             d="m 118.01538,15.59082 c 0,0.99043 -0.80287,1.7933 -1.7933,1.7933 -0.99042,0 -1.79329,-0.80287 -1.79329,-1.7933 0,-0.99042 0.80287,-1.7933 1.79329,-1.7933 0.99043,0 1.7933,0.80288 1.7933,1.7933 z" /><path
             id="path104"
             style="fill:#000000;fill-opacity:1;fill-rule:nonzero;stroke:#000000;stroke-width:0.3985;stroke-linecap:butt;stroke-linejoin:miter;stroke-miterlimit:10;stroke-dasharray:none;stroke-opacity:1"
             d="m 125.1021,19.84267 c 0,0.99041 -0.80289,1.7933 -1.79331,1.7933 -0.99043,0 -1.7933,-0.80289 -1.7933,-1.7933 0,-0.99044 0.80287,-1.79331 1.7933,-1.79331 0.99042,0 1.79331,0.80287 1.79331,1.79331 z" /><path
             id="path106"
             style="fill:#000000;fill-opacity:1;fill-rule:nonzero;stroke:#000000;stroke-width:0.3985;stroke-linecap:butt;stroke-linejoin:miter;stroke-miterlimit:10;stroke-dasharray:none;stroke-opacity:1"
             d="m 25.88824,41.10277 c 0,0.99042 -0.80287,1.7933 -1.7933,1.7933 -0.99042,0 -1.79329,-0.80288 -1.79329,-1.7933 0,-0.99042 0.80287,-1.79331 1.79329,-1.79331 0.99043,0 1.7933,0.80289 1.7933,1.79331 z" /><path
             id="path108"
             style="fill:#000000;fill-opacity:1;fill-rule:nonzero;stroke:#000000;stroke-width:0.3985;stroke-linecap:butt;stroke-linejoin:miter;stroke-miterlimit:10;stroke-dasharray:none;stroke-opacity:1"
             d="m 34.39195,41.10277 c 0,0.99042 -0.80288,1.7933 -1.7933,1.7933 -0.99043,0 -1.79331,-0.80288 -1.79331,-1.7933 0,-0.99042 0.80288,-1.79331 1.79331,-1.79331 0.99042,0 1.7933,0.80289 1.7933,1.79331 z" /><path
             id="path110"
             style="fill:#000000;fill-opacity:1;fill-rule:nonzero;stroke:#000000;stroke-width:0.3985;stroke-linecap:butt;stroke-linejoin:miter;stroke-miterlimit:10;stroke-dasharray:none;stroke-opacity:1"
             d="m 25.88824,15.59082 c 0,0.99043 -0.80287,1.7933 -1.7933,1.7933 -0.99042,0 -1.79329,-0.80287 -1.79329,-1.7933 0,-0.99042 0.80287,-1.7933 1.79329,-1.7933 0.99043,0 1.7933,0.80288 1.7933,1.7933 z" /><path
             id="path112"
             style="fill:#000000;fill-opacity:1;fill-rule:nonzero;stroke:#000000;stroke-width:0.3985;stroke-linecap:butt;stroke-linejoin:miter;stroke-miterlimit:10;stroke-dasharray:none;stroke-opacity:1"
             d="m 34.39195,15.59082 c 0,0.99043 -0.80288,1.7933 -1.7933,1.7933 -0.99043,0 -1.79331,-0.80287 -1.79331,-1.7933 0,-0.99042 0.80288,-1.7933 1.79331,-1.7933 0.99042,0 1.7933,0.80288 1.7933,1.7933 z" /><path
             id="path114"
             style="fill:#000000;fill-opacity:1;fill-rule:nonzero;stroke:#000000;stroke-width:0.3985;stroke-linecap:butt;stroke-linejoin:miter;stroke-miterlimit:10;stroke-dasharray:none;stroke-opacity:1"
             d="m 17.38412,32.59865 c 0,0.99042 -0.80287,1.7933 -1.7933,1.7933 -0.99042,0 -1.7933,-0.80288 -1.7933,-1.7933 0,-0.99043 0.80288,-1.79331 1.7933,-1.79331 0.99043,0 1.7933,0.80288 1.7933,1.79331 z" /><path
             id="path116"
             style="fill:#000000;fill-opacity:1;fill-rule:nonzero;stroke:#000000;stroke-width:0.3985;stroke-linecap:butt;stroke-linejoin:miter;stroke-miterlimit:10;stroke-dasharray:none;stroke-opacity:1"
             d="m 17.38412,24.09494 c 0,0.99043 -0.80287,1.7933 -1.7933,1.7933 -0.99042,0 -1.7933,-0.80287 -1.7933,-1.7933 0,-0.99042 0.80288,-1.79329 1.7933,-1.79329 0.99043,0 1.7933,0.80287 1.7933,1.79329 z" /><path
             id="path118"
             style="fill:#000000;fill-opacity:1;fill-rule:nonzero;stroke:#000000;stroke-width:0.3985;stroke-linecap:butt;stroke-linejoin:miter;stroke-miterlimit:10;stroke-dasharray:none;stroke-opacity:1"
             d="m 59.90433,92.1271 c 0,0.99044 -0.80287,1.79331 -1.79331,1.79331 -0.99042,0 -1.79329,-0.80287 -1.79329,-1.79331 0,-0.99041 0.80287,-1.79328 1.79329,-1.79328 0.99044,0 1.79331,0.80287 1.79331,1.79328 z" /><path
             id="path120"
             style="fill:#000000;fill-opacity:1;fill-rule:nonzero;stroke:#000000;stroke-width:0.3985;stroke-linecap:butt;stroke-linejoin:miter;stroke-miterlimit:10;stroke-dasharray:none;stroke-opacity:1"
             d="m 59.90433,83.62299 c 0,0.99043 -0.80287,1.7933 -1.79331,1.7933 -0.99042,0 -1.79329,-0.80287 -1.79329,-1.7933 0,-0.99042 0.80287,-1.79331 1.79329,-1.79331 0.99044,0 1.79331,0.80289 1.79331,1.79331 z" /><path
             id="path122"
             style="fill:#000000;fill-opacity:1;fill-rule:nonzero;stroke:#000000;stroke-width:0.3985;stroke-linecap:butt;stroke-linejoin:miter;stroke-miterlimit:10;stroke-dasharray:none;stroke-opacity:1"
             d="m 85.41629,92.1271 c 0,0.99044 -0.80287,1.79331 -1.7933,1.79331 -0.99042,0 -1.79331,-0.80287 -1.79331,-1.79331 0,-0.99041 0.80289,-1.79328 1.79331,-1.79328 0.99043,0 1.7933,0.80287 1.7933,1.79328 z" /><path
             id="path124"
             style="fill:#000000;fill-opacity:1;fill-rule:nonzero;stroke:#000000;stroke-width:0.3985;stroke-linecap:butt;stroke-linejoin:miter;stroke-miterlimit:10;stroke-dasharray:none;stroke-opacity:1"
             d="m 85.41629,83.62299 c 0,0.99043 -0.80287,1.7933 -1.7933,1.7933 -0.99042,0 -1.79331,-0.80287 -1.79331,-1.7933 0,-0.99042 0.80289,-1.79331 1.79331,-1.79331 0.99043,0 1.7933,0.80289 1.7933,1.79331 z" /><path
             id="path126"
             style="fill:#000000;fill-opacity:1;fill-rule:nonzero;stroke:#000000;stroke-width:0.3985;stroke-linecap:butt;stroke-linejoin:miter;stroke-miterlimit:10;stroke-dasharray:none;stroke-opacity:1"
             d="m 76.91216,100.63126 c 0,0.99041 -0.80289,1.7933 -1.79331,1.7933 -0.99042,0 -1.7933,-0.80289 -1.7933,-1.7933 0,-0.99044 0.80288,-1.79331 1.7933,-1.79331 0.99042,0 1.79331,0.80287 1.79331,1.79331 z" /><path
             id="path128"
             style="fill:#000000;fill-opacity:1;fill-rule:nonzero;stroke:#000000;stroke-width:0.3985;stroke-linecap:butt;stroke-linejoin:miter;stroke-miterlimit:10;stroke-dasharray:none;stroke-opacity:1"
             d="m 68.40846,100.63126 c 0,0.99041 -0.80287,1.7933 -1.79329,1.7933 -0.99043,0 -1.7933,-0.80289 -1.7933,-1.7933 0,-0.99044 0.80287,-1.79331 1.7933,-1.79331 0.99042,0 1.79329,0.80287 1.79329,1.79331 z" /><g
             id="g130"><path
               id="path132"
               style="fill:none;stroke:#000000;stroke-width:0.79701;stroke-linecap:butt;stroke-linejoin:miter;stroke-miterlimit:10;stroke-dasharray:none;stroke-opacity:1"
               d="m 136.86176,51.02432 38.09135,0" /><g
               transform="matrix(-1,0,0,-1,136.46326,51.02432)"
               id="g134"><g
                 id="g136"><path
                   id="path138"
                   style="fill:none;stroke:#000000;stroke-width:0.79701;stroke-linecap:round;stroke-linejoin:round;stroke-miterlimit:10;stroke-dasharray:none;stroke-opacity:1"
                   d="M -2.55046,3.11095 C -2.0845,1.24435 -1.04614,0.36295 0,0 -1.04614,-0.36295 -2.0845,-1.24435 -2.55046,-3.11095" /></g></g><g
               transform="translate(175.35162,51.02432)"
               id="g140"><g
                 id="g142"><path
                   id="path144"
                   style="fill:none;stroke:#000000;stroke-width:0.79701;stroke-linecap:round;stroke-linejoin:round;stroke-miterlimit:10;stroke-dasharray:none;stroke-opacity:1"
                   d="M -2.55046,3.11095 C -2.0845,1.24435 -1.04614,0.36295 0,0 -1.04614,-0.36295 -2.0845,-1.24435 -2.55046,-3.11095" /></g></g></g><g
             id="g146"><g
               transform="translate(189.504,19.879)"
               id="g148"><g
                 id="g150"><g
                   transform="translate(-187.569,-14.543)"
                   id="g152"><text
                     id="text154"
                     style="font-variant:normal;font-weight:normal;font-size:24.78709984px;font-family:CMR17;-inkscape-font-specification:CMR17;writing-mode:lr-tb;fill:#000000;fill-opacity:1;fill-rule:nonzero;stroke:none"
                     transform="matrix(1,0,0,-1,187.569,14.543)"><tspan
                       id="tspan156"
                       y="0"
                       x="0">O</tspan></text>
<g
                     transform="translate(187.569,14.543)"
                     id="g158" /></g></g><g
                 transform="translate(-189.504,-19.879)"
                 id="g160" /></g></g><g
             id="g162"><g
               transform="translate(274.544,19.879)"
               id="g164"><g
                 id="g166"><g
                   transform="translate(-272.609,-14.543)"
                   id="g168"><text
                     id="text170"
                     style="font-variant:normal;font-weight:normal;font-size:24.78709984px;font-family:CMR17;-inkscape-font-specification:CMR17;writing-mode:lr-tb;fill:#000000;fill-opacity:1;fill-rule:nonzero;stroke:none"
                     transform="matrix(1,0,0,-1,272.609,14.543)"><tspan
                       id="tspan172"
                       y="0"
                       x="0">O</tspan></text>
<g
                     transform="translate(272.609,14.543)"
                     id="g174" /></g></g><g
                 transform="translate(-274.544,-19.879)"
                 id="g176" /></g></g><g
             id="g178"><g
               transform="translate(232.353,34.052)"
               id="g180"><g
                 id="g182"><g
                   transform="translate(-230.418,-28.716)"
                   id="g184"><text
                     id="text186"
                     style="font-variant:normal;font-weight:normal;font-size:24.78709984px;font-family:CMR17;-inkscape-font-specification:CMR17;writing-mode:lr-tb;fill:#000000;fill-opacity:1;fill-rule:nonzero;stroke:none"
                     transform="matrix(1,0,0,-1,230.418,28.716)"><tspan
                       id="tspan188"
                       y="0"
                       x="0">N</tspan></text>
<g
                     transform="translate(230.418,28.716)"
                     id="g190" /></g></g><g
                 transform="translate(-232.353,-34.052)"
                 id="g192" /></g></g><g
             id="g194"><g
               transform="translate(232.024,79.407)"
               id="g196"><g
                 id="g198"><g
                   transform="translate(-230.089,-74.071)"
                   id="g200"><text
                     id="text202"
                     style="font-variant:normal;font-weight:normal;font-size:24.78709984px;font-family:CMR17;-inkscape-font-specification:CMR17;writing-mode:lr-tb;fill:#000000;fill-opacity:1;fill-rule:nonzero;stroke:none"
                     transform="matrix(1,0,0,-1,230.089,74.071)"><tspan
                       id="tspan204"
                       y="0"
                       x="0">O</tspan></text>
<g
                     transform="translate(230.089,74.071)"
                     id="g206" /></g></g><g
                 transform="translate(-232.024,-79.407)"
                 id="g208" /></g></g><path
             id="path210"
             style="fill:#000000;fill-opacity:1;fill-rule:nonzero;stroke:#000000;stroke-width:0.3985;stroke-linecap:butt;stroke-linejoin:miter;stroke-miterlimit:10;stroke-dasharray:none;stroke-opacity:1"
             d="m 242.74117,56.69362 c 0,0.99042 -0.80287,1.79329 -1.79329,1.79329 -0.99044,0 -1.79331,-0.80287 -1.79331,-1.79329 0,-0.99043 0.80287,-1.79331 1.79331,-1.79331 0.99042,0 1.79329,0.80288 1.79329,1.79331 z" /><path
             id="path212"
             style="fill:#000000;fill-opacity:1;fill-rule:nonzero;stroke:#000000;stroke-width:0.3985;stroke-linecap:butt;stroke-linejoin:miter;stroke-miterlimit:10;stroke-dasharray:none;stroke-opacity:1"
             d="m 242.74117,70.867 c 0,0.99044 -0.80287,1.79331 -1.79329,1.79331 -0.99044,0 -1.79331,-0.80287 -1.79331,-1.79331 0,-0.99041 0.80287,-1.79328 1.79331,-1.79328 0.99042,0 1.79329,0.80287 1.79329,1.79328 z" /><path
             id="path214"
             style="fill:#000000;fill-opacity:1;fill-rule:nonzero;stroke:#000000;stroke-width:0.3985;stroke-linecap:butt;stroke-linejoin:miter;stroke-miterlimit:10;stroke-dasharray:none;stroke-opacity:1"
             d="m 217.2292,31.18166 c 0,0.99041 -0.80287,1.7933 -1.79329,1.7933 -0.99043,0 -1.7933,-0.80289 -1.7933,-1.7933 0,-0.99044 0.80287,-1.79331 1.7933,-1.79331 0.99042,0 1.79329,0.80287 1.79329,1.79331 z" /><path
             id="path216"
             style="fill:#000000;fill-opacity:1;fill-rule:nonzero;stroke:#000000;stroke-width:0.3985;stroke-linecap:butt;stroke-linejoin:miter;stroke-miterlimit:10;stroke-dasharray:none;stroke-opacity:1"
             d="m 228.56778,36.85092 c 0,0.99043 -0.80288,1.79331 -1.7933,1.79331 -0.99044,0 -1.79331,-0.80288 -1.79331,-1.79331 0,-0.99042 0.80287,-1.7933 1.79331,-1.7933 0.99042,0 1.7933,0.80288 1.7933,1.7933 z" /><path
             id="path218"
             style="fill:#000000;fill-opacity:1;fill-rule:nonzero;stroke:#000000;stroke-width:0.3985;stroke-linecap:butt;stroke-linejoin:miter;stroke-miterlimit:10;stroke-dasharray:none;stroke-opacity:1"
             d="m 214.39436,38.26836 c 0,0.99043 -0.80288,1.7933 -1.7933,1.7933 -0.99042,0 -1.79331,-0.80287 -1.79331,-1.7933 0,-0.99042 0.80289,-1.79331 1.79331,-1.79331 0.99042,0 1.7933,0.80289 1.7933,1.79331 z" /><path
             id="path220"
             style="fill:#000000;fill-opacity:1;fill-rule:nonzero;stroke:#000000;stroke-width:0.3985;stroke-linecap:butt;stroke-linejoin:miter;stroke-miterlimit:10;stroke-dasharray:none;stroke-opacity:1"
             d="m 225.73291,43.93764 c 0,0.99041 -0.80289,1.79329 -1.79331,1.79329 -0.99041,0 -1.7933,-0.80288 -1.7933,-1.79329 0,-0.99044 0.80289,-1.79331 1.7933,-1.79331 0.99042,0 1.79331,0.80287 1.79331,1.79331 z" /><path
             id="path222"
             style="fill:#000000;fill-opacity:1;fill-rule:nonzero;stroke:#000000;stroke-width:0.3985;stroke-linecap:butt;stroke-linejoin:miter;stroke-miterlimit:10;stroke-dasharray:none;stroke-opacity:1"
             d="m 271.08798,33.16571 c 0,0.99042 -0.80288,1.7933 -1.7933,1.7933 -0.99042,0 -1.79331,-0.80288 -1.79331,-1.7933 0,-0.99043 0.80289,-1.79331 1.79331,-1.79331 0.99042,0 1.7933,0.80288 1.7933,1.79331 z" /><path
             id="path224"
             style="fill:#000000;fill-opacity:1;fill-rule:nonzero;stroke:#000000;stroke-width:0.3985;stroke-linecap:butt;stroke-linejoin:miter;stroke-miterlimit:10;stroke-dasharray:none;stroke-opacity:1"
             d="m 256.91458,37.98462 c 0,0.99042 -0.80287,1.79329 -1.7933,1.79329 -0.99042,0 -1.79331,-0.80287 -1.79331,-1.79329 0,-0.99043 0.80289,-1.79331 1.79331,-1.79331 0.99043,0 1.7933,0.80288 1.7933,1.79331 z" /><path
             id="path226"
             style="fill:#000000;fill-opacity:1;fill-rule:nonzero;stroke:#000000;stroke-width:0.3985;stroke-linecap:butt;stroke-linejoin:miter;stroke-miterlimit:10;stroke-dasharray:none;stroke-opacity:1"
             d="m 197.3861,41.10277 c 0,0.99042 -0.80288,1.7933 -1.7933,1.7933 -0.99043,0 -1.7933,-0.80288 -1.7933,-1.7933 0,-0.99042 0.80287,-1.79331 1.7933,-1.79331 0.99042,0 1.7933,0.80289 1.7933,1.79331 z" /><path
             id="path228"
             style="fill:#000000;fill-opacity:1;fill-rule:nonzero;stroke:#000000;stroke-width:0.3985;stroke-linecap:butt;stroke-linejoin:miter;stroke-miterlimit:10;stroke-dasharray:none;stroke-opacity:1"
             d="m 190.2994,36.85092 c 0,0.99043 -0.80288,1.79331 -1.79331,1.79331 -0.99042,0 -1.79331,-0.80288 -1.79331,-1.79331 0,-0.99042 0.80289,-1.7933 1.79331,-1.7933 0.99043,0 1.79331,0.80288 1.79331,1.7933 z" /><path
             id="path230"
             style="fill:#000000;fill-opacity:1;fill-rule:nonzero;stroke:#000000;stroke-width:0.3985;stroke-linecap:butt;stroke-linejoin:miter;stroke-miterlimit:10;stroke-dasharray:none;stroke-opacity:1"
             d="m 197.3861,15.59082 c 0,0.99043 -0.80288,1.7933 -1.7933,1.7933 -0.99043,0 -1.7933,-0.80287 -1.7933,-1.7933 0,-0.99042 0.80287,-1.7933 1.7933,-1.7933 0.99042,0 1.7933,0.80288 1.7933,1.7933 z" /><path
             id="path232"
             style="fill:#000000;fill-opacity:1;fill-rule:nonzero;stroke:#000000;stroke-width:0.3985;stroke-linecap:butt;stroke-linejoin:miter;stroke-miterlimit:10;stroke-dasharray:none;stroke-opacity:1"
             d="m 190.2994,19.84267 c 0,0.99041 -0.80288,1.7933 -1.79331,1.7933 -0.99042,0 -1.79331,-0.80289 -1.79331,-1.7933 0,-0.99044 0.80289,-1.79331 1.79331,-1.79331 0.99043,0 1.79331,0.80287 1.79331,1.79331 z" /><path
             id="path234"
             style="fill:#000000;fill-opacity:1;fill-rule:nonzero;stroke:#000000;stroke-width:0.3985;stroke-linecap:butt;stroke-linejoin:miter;stroke-miterlimit:10;stroke-dasharray:none;stroke-opacity:1"
             d="m 289.51323,41.10277 c 0,0.99042 -0.80287,1.7933 -1.79331,1.7933 -0.99042,0 -1.79328,-0.80288 -1.79328,-1.7933 0,-0.99042 0.80286,-1.79331 1.79328,-1.79331 0.99044,0 1.79331,0.80289 1.79331,1.79331 z" /><path
             id="path236"
             style="fill:#000000;fill-opacity:1;fill-rule:nonzero;stroke:#000000;stroke-width:0.3985;stroke-linecap:butt;stroke-linejoin:miter;stroke-miterlimit:10;stroke-dasharray:none;stroke-opacity:1"
             d="m 281.00954,41.10277 c 0,0.99042 -0.80287,1.7933 -1.79331,1.7933 -0.99042,0 -1.7933,-0.80288 -1.7933,-1.7933 0,-0.99042 0.80288,-1.79331 1.7933,-1.79331 0.99044,0 1.79331,0.80289 1.79331,1.79331 z" /><path
             id="path238"
             style="fill:#000000;fill-opacity:1;fill-rule:nonzero;stroke:#000000;stroke-width:0.3985;stroke-linecap:butt;stroke-linejoin:miter;stroke-miterlimit:10;stroke-dasharray:none;stroke-opacity:1"
             d="m 281.00954,15.59082 c 0,0.99043 -0.80287,1.7933 -1.79331,1.7933 -0.99042,0 -1.7933,-0.80287 -1.7933,-1.7933 0,-0.99042 0.80288,-1.7933 1.7933,-1.7933 0.99044,0 1.79331,0.80288 1.79331,1.7933 z" /><path
             id="path240"
             style="fill:#000000;fill-opacity:1;fill-rule:nonzero;stroke:#000000;stroke-width:0.3985;stroke-linecap:butt;stroke-linejoin:miter;stroke-miterlimit:10;stroke-dasharray:none;stroke-opacity:1"
             d="m 289.51323,15.59082 c 0,0.99043 -0.80287,1.7933 -1.79331,1.7933 -0.99042,0 -1.79328,-0.80287 -1.79328,-1.7933 0,-0.99042 0.80286,-1.7933 1.79328,-1.7933 0.99044,0 1.79331,0.80288 1.79331,1.7933 z" /><path
             id="path242"
             style="fill:#000000;fill-opacity:1;fill-rule:nonzero;stroke:#000000;stroke-width:0.3985;stroke-linecap:butt;stroke-linejoin:miter;stroke-miterlimit:10;stroke-dasharray:none;stroke-opacity:1"
             d="m 298.01736,32.59865 c 0,0.99042 -0.80288,1.7933 -1.7933,1.7933 -0.99043,0 -1.7933,-0.80288 -1.7933,-1.7933 0,-0.99043 0.80287,-1.79331 1.7933,-1.79331 0.99042,0 1.7933,0.80288 1.7933,1.79331 z" /><path
             id="path244"
             style="fill:#000000;fill-opacity:1;fill-rule:nonzero;stroke:#000000;stroke-width:0.3985;stroke-linecap:butt;stroke-linejoin:miter;stroke-miterlimit:10;stroke-dasharray:none;stroke-opacity:1"
             d="m 298.01736,24.09494 c 0,0.99043 -0.80288,1.7933 -1.7933,1.7933 -0.99043,0 -1.7933,-0.80287 -1.7933,-1.7933 0,-0.99042 0.80287,-1.79329 1.7933,-1.79329 0.99042,0 1.7933,0.80287 1.7933,1.79329 z" /><path
             id="path246"
             style="fill:#000000;fill-opacity:1;fill-rule:nonzero;stroke:#000000;stroke-width:0.3985;stroke-linecap:butt;stroke-linejoin:miter;stroke-miterlimit:10;stroke-dasharray:none;stroke-opacity:1"
             d="m 229.98518,92.1271 c 0,0.99044 -0.80287,1.79331 -1.79328,1.79331 -0.99044,0 -1.79331,-0.80287 -1.79331,-1.79331 0,-0.99041 0.80287,-1.79328 1.79331,-1.79328 0.99041,0 1.79328,0.80287 1.79328,1.79328 z" /><path
             id="path248"
             style="fill:#000000;fill-opacity:1;fill-rule:nonzero;stroke:#000000;stroke-width:0.3985;stroke-linecap:butt;stroke-linejoin:miter;stroke-miterlimit:10;stroke-dasharray:none;stroke-opacity:1"
             d="m 229.98518,83.62299 c 0,0.99043 -0.80287,1.7933 -1.79328,1.7933 -0.99044,0 -1.79331,-0.80287 -1.79331,-1.7933 0,-0.99042 0.80287,-1.79331 1.79331,-1.79331 0.99041,0 1.79328,0.80289 1.79328,1.79331 z" /><path
             id="path250"
             style="fill:#000000;fill-opacity:1;fill-rule:nonzero;stroke:#000000;stroke-width:0.3985;stroke-linecap:butt;stroke-linejoin:miter;stroke-miterlimit:10;stroke-dasharray:none;stroke-opacity:1"
             d="m 255.49715,92.1271 c 0,0.99044 -0.80288,1.79331 -1.79331,1.79331 -0.99042,0 -1.79329,-0.80287 -1.79329,-1.79331 0,-0.99041 0.80287,-1.79328 1.79329,-1.79328 0.99043,0 1.79331,0.80287 1.79331,1.79328 z" /><path
             id="path252"
             style="fill:#000000;fill-opacity:1;fill-rule:nonzero;stroke:#000000;stroke-width:0.3985;stroke-linecap:butt;stroke-linejoin:miter;stroke-miterlimit:10;stroke-dasharray:none;stroke-opacity:1"
             d="m 255.49715,83.62299 c 0,0.99043 -0.80288,1.7933 -1.79331,1.7933 -0.99042,0 -1.79329,-0.80287 -1.79329,-1.7933 0,-0.99042 0.80287,-1.79331 1.79329,-1.79331 0.99043,0 1.79331,0.80289 1.79331,1.79331 z" /><path
             id="path254"
             style="fill:#000000;fill-opacity:1;fill-rule:nonzero;stroke:#000000;stroke-width:0.3985;stroke-linecap:butt;stroke-linejoin:miter;stroke-miterlimit:10;stroke-dasharray:none;stroke-opacity:1"
             d="m 246.99301,100.63126 c 0,0.99041 -0.80287,1.7933 -1.79331,1.7933 -0.99041,0 -1.7933,-0.80289 -1.7933,-1.7933 0,-0.99044 0.80289,-1.79331 1.7933,-1.79331 0.99044,0 1.79331,0.80287 1.79331,1.79331 z" /><path
             id="path256"
             style="fill:#000000;fill-opacity:1;fill-rule:nonzero;stroke:#000000;stroke-width:0.3985;stroke-linecap:butt;stroke-linejoin:miter;stroke-miterlimit:10;stroke-dasharray:none;stroke-opacity:1"
             d="m 238.48933,100.63126 c 0,0.99041 -0.80288,1.7933 -1.7933,1.7933 -0.99043,0 -1.7933,-0.80289 -1.7933,-1.7933 0,-0.99044 0.80287,-1.79331 1.7933,-1.79331 0.99042,0 1.7933,0.80287 1.7933,1.79331 z" /><g
             id="g258"><path
               id="path260"
               style="fill:none;stroke:#000000;stroke-width:0.79701;stroke-linecap:butt;stroke-linejoin:miter;stroke-miterlimit:10;stroke-dasharray:none;stroke-opacity:1"
               d="m 306.94263,51.02432 38.09135,0" /><g
               transform="matrix(-1,0,0,-1,306.54411,51.02432)"
               id="g262"><g
                 id="g264"><path
                   id="path266"
                   style="fill:none;stroke:#000000;stroke-width:0.79701;stroke-linecap:round;stroke-linejoin:round;stroke-miterlimit:10;stroke-dasharray:none;stroke-opacity:1"
                   d="M -2.55046,3.11095 C -2.0845,1.24435 -1.04614,0.36295 0,0 -1.04614,-0.36295 -2.0845,-1.24435 -2.55046,-3.11095" /></g></g><g
               transform="translate(345.43248,51.02432)"
               id="g268"><g
                 id="g270"><path
                   id="path272"
                   style="fill:none;stroke:#000000;stroke-width:0.79701;stroke-linecap:round;stroke-linejoin:round;stroke-miterlimit:10;stroke-dasharray:none;stroke-opacity:1"
                   d="M -2.55046,3.11095 C -2.0845,1.24435 -1.04614,0.36295 0,0 -1.04614,-0.36295 -2.0845,-1.24435 -2.55046,-3.11095" /></g></g></g><g
             id="g274"><g
               transform="translate(359.583,19.879)"
               id="g276"><g
                 id="g278"><g
                   transform="translate(-357.648,-14.543)"
                   id="g280"><text
                     id="text282"
                     style="font-variant:normal;font-weight:normal;font-size:24.78709984px;font-family:CMR17;-inkscape-font-specification:CMR17;writing-mode:lr-tb;fill:#000000;fill-opacity:1;fill-rule:nonzero;stroke:none"
                     transform="matrix(1,0,0,-1,357.648,14.543)"><tspan
                       id="tspan284"
                       y="0"
                       x="0">O</tspan></text>
<g
                     transform="translate(357.648,14.543)"
                     id="g286" /></g></g><g
                 transform="translate(-359.583,-19.879)"
                 id="g288" /></g></g><g
             id="g290"><g
               transform="translate(444.622,19.879)"
               id="g292"><g
                 id="g294"><g
                   transform="translate(-442.687,-14.543)"
                   id="g296"><text
                     id="text298"
                     style="font-variant:normal;font-weight:normal;font-size:24.78709984px;font-family:CMR17;-inkscape-font-specification:CMR17;writing-mode:lr-tb;fill:#000000;fill-opacity:1;fill-rule:nonzero;stroke:none"
                     transform="matrix(1,0,0,-1,442.687,14.543)"><tspan
                       id="tspan300"
                       y="0"
                       x="0">O</tspan></text>
<g
                     transform="translate(442.687,14.543)"
                     id="g302" /></g></g><g
                 transform="translate(-444.622,-19.879)"
                 id="g304" /></g></g><g
             id="g306"><g
               transform="translate(402.431,34.052)"
               id="g308"><g
                 id="g310"><g
                   transform="translate(-400.496,-28.716)"
                   id="g312"><text
                     id="text314"
                     style="font-variant:normal;font-weight:normal;font-size:24.78709984px;font-family:CMR17;-inkscape-font-specification:CMR17;writing-mode:lr-tb;fill:#000000;fill-opacity:1;fill-rule:nonzero;stroke:none"
                     transform="matrix(1,0,0,-1,400.496,28.716)"><tspan
                       id="tspan316"
                       y="0"
                       x="0">N</tspan></text>
<g
                     transform="translate(400.496,28.716)"
                     id="g318" /></g></g><g
                 transform="translate(-402.431,-34.052)"
                 id="g320" /></g></g><g
             id="g322"><g
               transform="translate(402.103,79.407)"
               id="g324"><g
                 id="g326"><g
                   transform="translate(-400.168,-74.071)"
                   id="g328"><text
                     id="text330"
                     style="font-variant:normal;font-weight:normal;font-size:24.78709984px;font-family:CMR17;-inkscape-font-specification:CMR17;writing-mode:lr-tb;fill:#000000;fill-opacity:1;fill-rule:nonzero;stroke:none"
                     transform="matrix(1,0,0,-1,400.168,74.071)"><tspan
                       id="tspan332"
                       y="0"
                       x="0">O</tspan></text>
<g
                     transform="translate(400.168,74.071)"
                     id="g334" /></g></g><g
                 transform="translate(-402.103,-79.407)"
                 id="g336" /></g></g><path
             id="path338"
             style="fill:#000000;fill-opacity:1;fill-rule:nonzero;stroke:#000000;stroke-width:0.3985;stroke-linecap:butt;stroke-linejoin:miter;stroke-miterlimit:10;stroke-dasharray:none;stroke-opacity:1"
             d="m 409.13681,56.69362 c 0,0.99042 -0.80287,1.79329 -1.79331,1.79329 -0.99041,0 -1.7933,-0.80287 -1.7933,-1.79329 0,-0.99043 0.80289,-1.79331 1.7933,-1.79331 0.99044,0 1.79331,0.80288 1.79331,1.79331 z" /><path
             id="path340"
             style="fill:#000000;fill-opacity:1;fill-rule:nonzero;stroke:#000000;stroke-width:0.3985;stroke-linecap:butt;stroke-linejoin:miter;stroke-miterlimit:10;stroke-dasharray:none;stroke-opacity:1"
             d="m 409.13681,70.867 c 0,0.99044 -0.80287,1.79331 -1.79331,1.79331 -0.99041,0 -1.7933,-0.80287 -1.7933,-1.79331 0,-0.99041 0.80289,-1.79328 1.7933,-1.79328 0.99044,0 1.79331,0.80287 1.79331,1.79328 z" /><path
             id="path342"
             style="fill:#000000;fill-opacity:1;fill-rule:nonzero;stroke:#000000;stroke-width:0.3985;stroke-linecap:butt;stroke-linejoin:miter;stroke-miterlimit:10;stroke-dasharray:none;stroke-opacity:1"
             d="m 416.50725,56.69362 c 0,0.99042 -0.80287,1.79329 -1.79331,1.79329 -0.99041,0 -1.7933,-0.80287 -1.7933,-1.79329 0,-0.99043 0.80289,-1.79331 1.7933,-1.79331 0.99044,0 1.79331,0.80288 1.79331,1.79331 z" /><path
             id="path344"
             style="fill:#000000;fill-opacity:1;fill-rule:nonzero;stroke:#000000;stroke-width:0.3985;stroke-linecap:butt;stroke-linejoin:miter;stroke-miterlimit:10;stroke-dasharray:none;stroke-opacity:1"
             d="m 416.50725,70.867 c 0,0.99044 -0.80287,1.79331 -1.79331,1.79331 -0.99041,0 -1.7933,-0.80287 -1.7933,-1.79331 0,-0.99041 0.80289,-1.79328 1.7933,-1.79328 0.99044,0 1.79331,0.80287 1.79331,1.79328 z" /><path
             id="path346"
             style="fill:#000000;fill-opacity:1;fill-rule:nonzero;stroke:#000000;stroke-width:0.3985;stroke-linecap:butt;stroke-linejoin:miter;stroke-miterlimit:10;stroke-dasharray:none;stroke-opacity:1"
             d="m 384.47522,33.16571 c 0,0.99042 -0.80287,1.7933 -1.7933,1.7933 -0.99042,0 -1.79331,-0.80288 -1.79331,-1.7933 0,-0.99043 0.80289,-1.79331 1.79331,-1.79331 0.99043,0 1.7933,0.80288 1.7933,1.79331 z" /><path
             id="path348"
             style="fill:#000000;fill-opacity:1;fill-rule:nonzero;stroke:#000000;stroke-width:0.3985;stroke-linecap:butt;stroke-linejoin:miter;stroke-miterlimit:10;stroke-dasharray:none;stroke-opacity:1"
             d="m 398.64864,37.98462 c 0,0.99042 -0.80289,1.79329 -1.79331,1.79329 -0.99043,0 -1.7933,-0.80287 -1.7933,-1.79329 0,-0.99043 0.80287,-1.79331 1.7933,-1.79331 0.99042,0 1.79331,0.80288 1.79331,1.79331 z" /><path
             id="path350"
             style="fill:#000000;fill-opacity:1;fill-rule:nonzero;stroke:#000000;stroke-width:0.3985;stroke-linecap:butt;stroke-linejoin:miter;stroke-miterlimit:10;stroke-dasharray:none;stroke-opacity:1"
             d="m 441.16884,33.16571 c 0,0.99042 -0.80287,1.7933 -1.79331,1.7933 -0.99041,0 -1.7933,-0.80288 -1.7933,-1.7933 0,-0.99043 0.80289,-1.79331 1.7933,-1.79331 0.99044,0 1.79331,0.80288 1.79331,1.79331 z" /><path
             id="path352"
             style="fill:#000000;fill-opacity:1;fill-rule:nonzero;stroke:#000000;stroke-width:0.3985;stroke-linecap:butt;stroke-linejoin:miter;stroke-miterlimit:10;stroke-dasharray:none;stroke-opacity:1"
             d="m 426.99544,37.98462 c 0,0.99042 -0.80287,1.79329 -1.79331,1.79329 -0.99041,0 -1.79329,-0.80287 -1.79329,-1.79329 0,-0.99043 0.80288,-1.79331 1.79329,-1.79331 0.99044,0 1.79331,0.80288 1.79331,1.79331 z" /><path
             id="path354"
             style="fill:#000000;fill-opacity:1;fill-rule:nonzero;stroke:#000000;stroke-width:0.3985;stroke-linecap:butt;stroke-linejoin:miter;stroke-miterlimit:10;stroke-dasharray:none;stroke-opacity:1"
             d="m 366.04997,41.10277 c 0,0.99042 -0.80288,1.7933 -1.7933,1.7933 -0.99043,0 -1.79331,-0.80288 -1.79331,-1.7933 0,-0.99042 0.80288,-1.79331 1.79331,-1.79331 0.99042,0 1.7933,0.80289 1.7933,1.79331 z" /><path
             id="path356"
             style="fill:#000000;fill-opacity:1;fill-rule:nonzero;stroke:#000000;stroke-width:0.3985;stroke-linecap:butt;stroke-linejoin:miter;stroke-miterlimit:10;stroke-dasharray:none;stroke-opacity:1"
             d="m 374.55367,41.10277 c 0,0.99042 -0.80287,1.7933 -1.79331,1.7933 -0.99042,0 -1.7933,-0.80288 -1.7933,-1.7933 0,-0.99042 0.80288,-1.79331 1.7933,-1.79331 0.99044,0 1.79331,0.80289 1.79331,1.79331 z" /><path
             id="path358"
             style="fill:#000000;fill-opacity:1;fill-rule:nonzero;stroke:#000000;stroke-width:0.3985;stroke-linecap:butt;stroke-linejoin:miter;stroke-miterlimit:10;stroke-dasharray:none;stroke-opacity:1"
             d="m 366.04997,15.59082 c 0,0.99043 -0.80288,1.7933 -1.7933,1.7933 -0.99043,0 -1.79331,-0.80287 -1.79331,-1.7933 0,-0.99042 0.80288,-1.7933 1.79331,-1.7933 0.99042,0 1.7933,0.80288 1.7933,1.7933 z" /><path
             id="path360"
             style="fill:#000000;fill-opacity:1;fill-rule:nonzero;stroke:#000000;stroke-width:0.3985;stroke-linecap:butt;stroke-linejoin:miter;stroke-miterlimit:10;stroke-dasharray:none;stroke-opacity:1"
             d="m 374.55367,15.59082 c 0,0.99043 -0.80287,1.7933 -1.79331,1.7933 -0.99042,0 -1.7933,-0.80287 -1.7933,-1.7933 0,-0.99042 0.80288,-1.7933 1.7933,-1.7933 0.99044,0 1.79331,0.80288 1.79331,1.7933 z" /><path
             id="path362"
             style="fill:#000000;fill-opacity:1;fill-rule:nonzero;stroke:#000000;stroke-width:0.3985;stroke-linecap:butt;stroke-linejoin:miter;stroke-miterlimit:10;stroke-dasharray:none;stroke-opacity:1"
             d="m 357.54584,32.59865 c 0,0.99042 -0.80287,1.7933 -1.79331,1.7933 -0.99041,0 -1.79329,-0.80288 -1.79329,-1.7933 0,-0.99043 0.80288,-1.79331 1.79329,-1.79331 0.99044,0 1.79331,0.80288 1.79331,1.79331 z" /><path
             id="path364"
             style="fill:#000000;fill-opacity:1;fill-rule:nonzero;stroke:#000000;stroke-width:0.3985;stroke-linecap:butt;stroke-linejoin:miter;stroke-miterlimit:10;stroke-dasharray:none;stroke-opacity:1"
             d="m 357.54584,24.09494 c 0,0.99043 -0.80287,1.7933 -1.79331,1.7933 -0.99041,0 -1.79329,-0.80287 -1.79329,-1.7933 0,-0.99042 0.80288,-1.79329 1.79329,-1.79329 0.99044,0 1.79331,0.80287 1.79331,1.79329 z" /><path
             id="path366"
             style="fill:#000000;fill-opacity:1;fill-rule:nonzero;stroke:#000000;stroke-width:0.3985;stroke-linecap:butt;stroke-linejoin:miter;stroke-miterlimit:10;stroke-dasharray:none;stroke-opacity:1"
             d="m 459.59409,41.10277 c 0,0.99042 -0.80288,1.7933 -1.79329,1.7933 -0.99044,0 -1.79331,-0.80288 -1.79331,-1.7933 0,-0.99042 0.80287,-1.79331 1.79331,-1.79331 0.99041,0 1.79329,0.80289 1.79329,1.79331 z" /><path
             id="path368"
             style="fill:#000000;fill-opacity:1;fill-rule:nonzero;stroke:#000000;stroke-width:0.3985;stroke-linecap:butt;stroke-linejoin:miter;stroke-miterlimit:10;stroke-dasharray:none;stroke-opacity:1"
             d="m 451.0904,41.10277 c 0,0.99042 -0.80288,1.7933 -1.79331,1.7933 -0.99042,0 -1.79329,-0.80288 -1.79329,-1.7933 0,-0.99042 0.80287,-1.79331 1.79329,-1.79331 0.99043,0 1.79331,0.80289 1.79331,1.79331 z" /><path
             id="path370"
             style="fill:#000000;fill-opacity:1;fill-rule:nonzero;stroke:#000000;stroke-width:0.3985;stroke-linecap:butt;stroke-linejoin:miter;stroke-miterlimit:10;stroke-dasharray:none;stroke-opacity:1"
             d="m 451.0904,15.59082 c 0,0.99043 -0.80288,1.7933 -1.79331,1.7933 -0.99042,0 -1.79329,-0.80287 -1.79329,-1.7933 0,-0.99042 0.80287,-1.7933 1.79329,-1.7933 0.99043,0 1.79331,0.80288 1.79331,1.7933 z" /><path
             id="path372"
             style="fill:#000000;fill-opacity:1;fill-rule:nonzero;stroke:#000000;stroke-width:0.3985;stroke-linecap:butt;stroke-linejoin:miter;stroke-miterlimit:10;stroke-dasharray:none;stroke-opacity:1"
             d="m 459.59409,15.59082 c 0,0.99043 -0.80288,1.7933 -1.79329,1.7933 -0.99044,0 -1.79331,-0.80287 -1.79331,-1.7933 0,-0.99042 0.80287,-1.7933 1.79331,-1.7933 0.99041,0 1.79329,0.80288 1.79329,1.7933 z" /><path
             id="path374"
             style="fill:#000000;fill-opacity:1;fill-rule:nonzero;stroke:#000000;stroke-width:0.3985;stroke-linecap:butt;stroke-linejoin:miter;stroke-miterlimit:10;stroke-dasharray:none;stroke-opacity:1"
             d="m 468.09822,32.59865 c 0,0.99042 -0.80289,1.7933 -1.7933,1.7933 -0.99044,0 -1.79331,-0.80288 -1.79331,-1.7933 0,-0.99043 0.80287,-1.79331 1.79331,-1.79331 0.99041,0 1.7933,0.80288 1.7933,1.79331 z" /><path
             id="path376"
             style="fill:#000000;fill-opacity:1;fill-rule:nonzero;stroke:#000000;stroke-width:0.3985;stroke-linecap:butt;stroke-linejoin:miter;stroke-miterlimit:10;stroke-dasharray:none;stroke-opacity:1"
             d="m 468.09822,24.09494 c 0,0.99043 -0.80289,1.7933 -1.7933,1.7933 -0.99044,0 -1.79331,-0.80287 -1.79331,-1.7933 0,-0.99042 0.80287,-1.79329 1.79331,-1.79329 0.99041,0 1.7933,0.80287 1.7933,1.79329 z" /><path
             id="path378"
             style="fill:#000000;fill-opacity:1;fill-rule:nonzero;stroke:#000000;stroke-width:0.3985;stroke-linecap:butt;stroke-linejoin:miter;stroke-miterlimit:10;stroke-dasharray:none;stroke-opacity:1"
             d="m 400.06606,93.54454 c 0,0.99043 -0.80289,1.7933 -1.79331,1.7933 -0.99043,0 -1.7933,-0.80287 -1.7933,-1.7933 0,-0.99042 0.80287,-1.79329 1.7933,-1.79329 0.99042,0 1.79331,0.80287 1.79331,1.79329 z" /><path
             id="path380"
             style="fill:#000000;fill-opacity:1;fill-rule:nonzero;stroke:#000000;stroke-width:0.3985;stroke-linecap:butt;stroke-linejoin:miter;stroke-miterlimit:10;stroke-dasharray:none;stroke-opacity:1"
             d="m 405.73532,99.21382 c 0,0.99042 -0.80287,1.79331 -1.7933,1.79331 -0.99042,0 -1.79329,-0.80289 -1.79329,-1.79331 0,-0.99043 0.80287,-1.7933 1.79329,-1.7933 0.99043,0 1.7933,0.80287 1.7933,1.7933 z" /><path
             id="path382"
             style="fill:#000000;fill-opacity:1;fill-rule:nonzero;stroke:#000000;stroke-width:0.3985;stroke-linecap:butt;stroke-linejoin:miter;stroke-miterlimit:10;stroke-dasharray:none;stroke-opacity:1"
             d="m 425.578,93.54454 c 0,0.99043 -0.80287,1.7933 -1.79329,1.7933 -0.99043,0 -1.7933,-0.80287 -1.7933,-1.7933 0,-0.99042 0.80287,-1.79329 1.7933,-1.79329 0.99042,0 1.79329,0.80287 1.79329,1.79329 z" /><path
             id="path384"
             style="fill:#000000;fill-opacity:1;fill-rule:nonzero;stroke:#000000;stroke-width:0.3985;stroke-linecap:butt;stroke-linejoin:miter;stroke-miterlimit:10;stroke-dasharray:none;stroke-opacity:1"
             d="m 419.90874,99.21382 c 0,0.99042 -0.80287,1.79331 -1.79331,1.79331 -0.99041,0 -1.7933,-0.80289 -1.7933,-1.79331 0,-0.99043 0.80289,-1.7933 1.7933,-1.7933 0.99044,0 1.79331,0.80287 1.79331,1.7933 z" /></g></g></g></g></svg>