<svg width="1362" height="400" viewBox="0 0 1362 400" fill="none" xmlns="http://www.w3.org/2000/svg">
<g clip-path="url(#clip0_1_244)">
<path d="M432.526 32.0646H467.589V85.3518H518.57V32.0646H553.864V170.242H518.57V114.879H467.589V170.242H432.526V32.0646Z" fill="#C4C4C4"/>
<path d="M432.526 32.0646H467.589V85.3518H518.57V32.0646H553.864V170.242H518.57V114.879H467.589V170.242H432.526V32.0646Z" fill="white"/>
<path d="M581.084 170.242L649.827 30.2191H651.442L720.185 170.242H683.506L673.818 149.02H627.451L617.762 170.242H581.084ZM663.899 125.49C659.054 114.648 653.518 100.807 650.75 92.5029C648.904 97.1165 641.292 116.724 637.601 125.49H663.899ZM638.985 23.9908L649.827 0H680.738L660.669 23.9908H638.985Z" fill="#C4C4C4"/>
<path d="M581.084 170.242L649.827 30.2191H651.442L720.185 170.242H683.506L673.818 149.02H627.451L617.762 170.242H581.084ZM663.899 125.49C659.054 114.648 653.518 100.807 650.75 92.5029C648.904 97.1165 641.292 116.724 637.601 125.49H663.899ZM638.985 23.9908L649.827 0H680.738L660.669 23.9908H638.985Z" fill="white"/>
<path d="M791.696 29.2964C805.536 29.2964 819.377 32.0646 828.604 35.7555V68.2815C820.3 63.2065 807.382 59.7463 794.694 59.7463C782.007 59.7463 773.933 64.1292 773.933 71.0496C773.933 77.5087 782.007 81.8916 798.155 88.5813C821.453 97.8086 837.37 107.497 837.37 132.18C837.37 157.785 818.224 173.01 783.852 173.01C768.166 173.01 752.48 170.012 742.099 165.629V131.719C751.788 136.794 763.552 140.715 774.625 141.638C778.547 142.099 782.007 142.099 785.467 141.869C796.77 141.176 803.23 137.947 803.23 132.18C803.23 124.798 794.694 121.338 777.624 114.879C754.325 106.113 739.331 96.4245 739.331 71.0496C739.331 45.6748 760.092 29.2964 791.696 29.2964Z" fill="#C4C4C4"/>
<path d="M791.696 29.2964C805.536 29.2964 819.377 32.0646 828.604 35.7555V68.2815C820.3 63.2065 807.382 59.7463 794.694 59.7463C782.007 59.7463 773.933 64.1292 773.933 71.0496C773.933 77.5087 782.007 81.8916 798.155 88.5813C821.453 97.8086 837.37 107.497 837.37 132.18C837.37 157.785 818.224 173.01 783.852 173.01C768.166 173.01 752.48 170.012 742.099 165.629V131.719C751.788 136.794 763.552 140.715 774.625 141.638C778.547 142.099 782.007 142.099 785.467 141.869C796.77 141.176 803.23 137.947 803.23 132.18C803.23 124.798 794.694 121.338 777.624 114.879C754.325 106.113 739.331 96.4245 739.331 71.0496C739.331 45.6748 760.092 29.2964 791.696 29.2964Z" fill="white"/>
<path d="M873.356 32.0646H908.42V92.9643L955.94 32.0646H997.001L949.02 90.8882L997.693 170.242H958.708L925.029 113.264L908.189 133.333V170.473H873.126V32.0646H873.356Z" fill="#C4C4C4"/>
<path d="M873.356 32.0646H908.42V92.9643L955.94 32.0646H997.001L949.02 90.8882L997.693 170.242H958.708L925.029 113.264L908.189 133.333V170.473H873.126V32.0646H873.356Z" fill="white"/>
<path d="M1012.92 101.269C1012.92 61.8224 1043.37 29.5271 1086.04 29.5271C1128.72 29.5271 1159.17 61.5917 1159.17 101.269C1159.17 141.407 1128.95 173.01 1086.04 173.01C1043.37 173.01 1012.92 141.176 1012.92 101.269ZM1086.04 140.946C1108.42 140.946 1123.64 122.722 1123.64 101.269C1123.64 80.0461 1108.42 61.5917 1086.04 61.5917C1063.67 61.5917 1048.21 80.0461 1048.21 101.269C1048.21 122.722 1063.44 140.946 1086.04 140.946ZM1074.05 23.9908L1085.12 0H1116.03L1095.96 23.9908H1074.05Z" fill="#C4C4C4"/>
<path d="M1012.92 101.269C1012.92 61.8224 1043.37 29.5271 1086.04 29.5271C1128.72 29.5271 1159.17 61.5917 1159.17 101.269C1159.17 141.407 1128.95 173.01 1086.04 173.01C1043.37 173.01 1012.92 141.176 1012.92 101.269ZM1086.04 140.946C1108.42 140.946 1123.64 122.722 1123.64 101.269C1123.64 80.0461 1108.42 61.5917 1086.04 61.5917C1063.67 61.5917 1048.21 80.0461 1048.21 101.269C1048.21 122.722 1063.44 140.946 1086.04 140.946ZM1074.05 23.9908L1085.12 0H1116.03L1095.96 23.9908H1074.05Z" fill="white"/>
<path d="M1193.54 170.242V32.0646H1228.6V140.715H1278.43V170.242H1193.54Z" fill="#C4C4C4"/>
<path d="M1193.54 170.242V32.0646H1228.6V140.715H1278.43V170.242H1193.54Z" fill="white"/>
<path d="M1314.19 170.242V32.0646H1349.25V170.242H1314.19Z" fill="#C4C4C4"/>
<path d="M1314.19 170.242V32.0646H1349.25V170.242H1314.19Z" fill="white"/>
<path d="M432.295 372.549V234.371H467.359V372.549H432.295ZM446.136 202.307H477.047L456.978 226.298H435.063L446.136 202.307Z" fill="#C4C4C4"/>
<path d="M432.295 372.549V234.371H467.359V372.549H432.295ZM446.136 202.307H477.047L456.978 226.298H435.063L446.136 202.307Z" fill="white"/>
<path d="M566.09 231.603C579.931 231.603 593.771 234.371 602.999 238.062V270.588C594.694 265.513 581.776 262.053 569.089 262.053C556.401 262.053 548.327 266.436 548.327 273.356C548.327 279.815 556.401 284.198 572.549 290.888C595.848 300.115 611.765 309.804 611.765 334.487C611.765 360.092 592.618 375.317 558.247 375.317C542.56 375.317 526.874 372.318 516.494 367.935V334.256C526.182 339.331 537.947 343.253 549.019 344.175C552.941 344.637 556.401 344.637 559.861 344.406C571.165 343.714 577.624 340.484 577.624 334.717C577.624 327.336 569.089 323.875 552.018 317.416C528.72 308.651 513.725 298.962 513.725 273.587C513.725 248.212 534.717 231.603 566.09 231.603Z" fill="#C4C4C4"/>
<path d="M566.09 231.603C579.931 231.603 593.771 234.371 602.999 238.062V270.588C594.694 265.513 581.776 262.053 569.089 262.053C556.401 262.053 548.327 266.436 548.327 273.356C548.327 279.815 556.401 284.198 572.549 290.888C595.848 300.115 611.765 309.804 611.765 334.487C611.765 360.092 592.618 375.317 558.247 375.317C542.56 375.317 526.874 372.318 516.494 367.935V334.256C526.182 339.331 537.947 343.253 549.019 344.175C552.941 344.637 556.401 344.637 559.861 344.406C571.165 343.714 577.624 340.484 577.624 334.717C577.624 327.336 569.089 323.875 552.018 317.416C528.72 308.651 513.725 298.962 513.725 273.587C513.725 248.212 534.717 231.603 566.09 231.603Z" fill="white"/>
<path d="M652.595 372.549V234.371H687.658V343.022H737.485V372.549H652.595Z" fill="#C4C4C4"/>
<path d="M652.595 372.549V234.371H687.658V343.022H737.485V372.549H652.595Z" fill="white"/>
<path d="M762.168 372.549L830.911 232.526H832.526L901.269 372.549H864.59L854.902 351.326H808.535L798.846 372.549H762.168ZM844.983 327.797C840.138 316.955 834.602 303.114 831.834 294.81C829.988 299.423 822.376 319.031 818.685 327.797H844.983Z" fill="#C4C4C4"/>
<path d="M762.168 372.549L830.911 232.526H832.526L901.269 372.549H864.59L854.902 351.326H808.535L798.846 372.549H762.168ZM844.983 327.797C840.138 316.955 834.602 303.114 831.834 294.81C829.988 299.423 822.376 319.031 818.685 327.797H844.983Z" fill="white"/>
<path d="M934.025 232.526L1004.38 294.81C1008.3 297.809 1011.76 301.269 1015.69 304.268V234.602H1050.29V374.625H1048.9L978.085 312.341L967.013 303.114V372.78H932.641V232.757H934.025V232.526Z" fill="#C4C4C4"/>
<path d="M934.025 232.526L1004.38 294.81C1008.3 297.809 1011.76 301.269 1015.69 304.268V234.602H1050.29V374.625H1048.9L978.085 312.341L967.013 303.114V372.78H932.641V232.757H934.025V232.526Z" fill="white"/>
<path d="M1103.58 372.549V234.371H1149.94C1198.39 234.371 1228.14 263.437 1228.14 303.576C1228.14 343.714 1198.15 372.78 1149.94 372.78H1103.58V372.549ZM1149.71 343.022C1177.62 343.022 1192.62 325.029 1192.62 303.576C1192.62 282.122 1177.62 264.129 1149.48 264.129H1138.64V343.253H1149.71V343.022Z" fill="#C4C4C4"/>
<path d="M1103.58 372.549V234.371H1149.94C1198.39 234.371 1228.14 263.437 1228.14 303.576C1228.14 343.714 1198.15 372.78 1149.94 372.78H1103.58V372.549ZM1149.71 343.022C1177.62 343.022 1192.62 325.029 1192.62 303.576C1192.62 282.122 1177.62 264.129 1149.48 264.129H1138.64V343.253H1149.71V343.022Z" fill="white"/>
<path d="M1315.57 231.603C1329.41 231.603 1343.25 234.371 1352.48 238.062V270.588C1344.18 265.513 1331.26 262.053 1318.57 262.053C1305.88 262.053 1297.81 266.436 1297.81 273.356C1297.81 279.815 1305.88 284.198 1322.03 290.888C1345.33 300.115 1361.25 309.804 1361.25 334.487C1361.25 360.092 1342.1 375.317 1307.73 375.317C1292.04 375.317 1276.36 372.318 1265.97 367.935V334.256C1275.66 339.331 1287.43 343.253 1298.5 344.175C1302.42 344.637 1305.88 344.637 1309.34 344.406C1320.65 343.714 1327.1 340.484 1327.1 334.717C1327.1 327.336 1318.57 323.875 1301.5 317.416C1278.2 308.651 1263.21 298.962 1263.21 273.587C1263.21 248.212 1283.97 231.603 1315.57 231.603Z" fill="#C4C4C4"/>
<path d="M1315.57 231.603C1329.41 231.603 1343.25 234.371 1352.48 238.062V270.588C1344.18 265.513 1331.26 262.053 1318.57 262.053C1305.88 262.053 1297.81 266.436 1297.81 273.356C1297.81 279.815 1305.88 284.198 1322.03 290.888C1345.33 300.115 1361.25 309.804 1361.25 334.487C1361.25 360.092 1342.1 375.317 1307.73 375.317C1292.04 375.317 1276.36 372.318 1265.97 367.935V334.256C1275.66 339.331 1287.43 343.253 1298.5 344.175C1302.42 344.637 1305.88 344.637 1309.34 344.406C1320.65 343.714 1327.1 340.484 1327.1 334.717C1327.1 327.336 1318.57 323.875 1301.5 317.416C1278.2 308.651 1263.21 298.962 1263.21 273.587C1263.21 248.212 1283.97 231.603 1315.57 231.603Z" fill="white"/>
<path d="M150.404 211.534C167.013 237.601 188.005 245.905 210.611 240.6C211.073 240.6 210.842 239.908 210.611 239.908C189.619 238.524 164.244 215.456 148.789 193.31C138.178 178.777 113.725 160.554 101.499 161.246C101.038 161.476 93.8869 162.63 93.8869 162.63C83.2756 164.245 67.82 165.167 50.519 165.398C43.1372 165.398 33.6793 171.857 33.6793 182.699C35.0634 191.234 43.8293 189.389 47.9815 187.774C54.4406 185.236 58.5928 181.315 66.8973 182.007C85.5824 183.852 103.114 202.538 122.953 207.612C125.259 208.766 125.49 209.227 125.259 210.15C125.259 212.918 123.875 212.918 122.722 212.457C112.111 209.458 98.5006 215.456 89.2733 211.995C82.1222 209.227 81.6609 207.843 76.3552 202.999C70.1268 197.463 62.7451 188.697 50.9804 197.463C49.827 198.616 47.7508 199.769 46.3668 200C43.1372 200.692 40.1384 200.461 36.9089 198.847C36.9089 198.847 36.6782 198.847 36.9089 199.077C38.5236 200.461 40.1384 202.538 40.8304 204.844C42.2145 209.227 41.0611 212.226 41.0611 212.226L39.677 215.917C39.4463 216.609 39.2157 217.301 38.985 217.993L38.5236 219.147C34.3714 229.988 26.5282 254.21 28.3737 258.824C31.1418 265.744 44.752 260.9 52.8258 260.9C57.2087 260.9 61.5917 263.668 63.2064 263.437C66.2053 263.206 66.6666 259.977 65.2826 257.901C64.3598 256.517 62.2837 254.902 60.2076 254.21C58.1315 253.518 55.3633 254.671 54.4406 252.826C55.8247 249.135 63.2064 251.672 65.9746 253.287C67.5894 254.21 79.3541 263.206 69.6655 274.279C68.5121 275.663 63.6678 277.278 60.4383 277.739C58.5928 271.742 51.9031 273.587 48.4429 275.663C45.9054 277.278 45.9054 282.353 45.444 285.352C45.2134 287.197 44.9827 287.889 44.2906 289.965C43.5986 291.811 43.8293 293.426 43.8293 293.426C48.9042 292.734 51.4417 289.965 54.6713 289.273C57.4394 288.581 60.2076 291.35 62.9758 292.503C69.2041 295.04 74.7405 296.424 83.045 296.194C81.8916 302.191 75.2018 302.884 72.6643 303.114C69.2041 303.114 65.7439 300.807 61.8223 301.038C57.6701 301.038 53.9792 303.345 50.0576 302.884C49.827 302.884 49.827 303.114 49.827 303.114C50.519 304.037 51.211 305.421 51.4417 306.113C51.9031 308.189 49.5963 310.496 49.1349 312.572C49.1349 312.803 49.3656 312.803 49.3656 312.803C51.4417 309.804 56.5167 309.112 61.5917 309.112C65.7439 309.112 69.4348 310.265 72.6643 309.112C74.2791 308.42 74.2791 306.805 75.8939 307.036C77.0473 307.266 77.0473 309.804 77.0473 310.496C75.4325 315.571 69.8962 318.108 65.5132 320.415C65.2826 320.415 62.2837 323.183 61.361 326.182C60.2076 330.796 60.6689 331.488 61.1303 334.025C62.2837 339.562 66.8973 352.018 93.6563 343.714C98.0392 342.33 137.947 334.487 157.555 315.11C157.785 314.879 179.008 292.042 157.324 262.514C153.403 257.209 152.48 254.441 152.71 249.366C154.095 230.911 152.71 218.916 148.328 209.689C149.25 210.15 149.942 210.842 150.404 211.534ZM51.6724 204.152C51.4417 203.46 50.9804 202.538 50.9804 201.845C53.7485 199.769 58.1315 199.769 61.361 200.692C68.2814 202.307 72.4337 210.381 77.5086 212.457C75.4325 214.302 72.203 215.917 68.2814 216.84C68.9734 215.456 70.3575 211.303 66.436 208.997C65.7439 212.457 63.2064 213.379 61.1303 214.533C60.8996 215.686 60.8996 216.148 61.1303 216.609C59.0542 214.994 59.2849 214.994 58.3621 212.457C59.5155 211.765 59.9769 210.842 60.2076 209.919C60.6689 204.614 55.8247 202.768 51.6724 204.152ZM84.429 219.147C84.1984 220.069 83.045 222.607 82.3529 223.529C79.1234 227.682 72.6643 230.681 67.3587 228.604C64.1292 227.451 56.7474 224.914 59.7462 220.069C67.5894 223.991 74.7405 217.762 80.0461 214.533C81.6609 215.225 82.8143 215.917 83.737 216.378C84.8904 217.07 84.8904 217.762 84.429 219.147Z" fill="#C4C4C4"/>
<path d="M150.404 211.534C167.013 237.601 188.005 245.905 210.611 240.6C211.073 240.6 210.842 239.908 210.611 239.908C189.619 238.524 164.244 215.456 148.789 193.31C138.178 178.777 113.725 160.554 101.499 161.246C101.038 161.476 93.8869 162.63 93.8869 162.63C83.2756 164.245 67.82 165.167 50.519 165.398C43.1372 165.398 33.6793 171.857 33.6793 182.699C35.0634 191.234 43.8293 189.389 47.9815 187.774C54.4406 185.236 58.5928 181.315 66.8973 182.007C85.5824 183.852 103.114 202.538 122.953 207.612C125.259 208.766 125.49 209.227 125.259 210.15C125.259 212.918 123.875 212.918 122.722 212.457C112.111 209.458 98.5006 215.456 89.2733 211.995C82.1222 209.227 81.6609 207.843 76.3552 202.999C70.1268 197.463 62.7451 188.697 50.9804 197.463C49.827 198.616 47.7508 199.769 46.3668 200C43.1372 200.692 40.1384 200.461 36.9089 198.847C36.9089 198.847 36.6782 198.847 36.9089 199.077C38.5236 200.461 40.1384 202.538 40.8304 204.844C42.2145 209.227 41.0611 212.226 41.0611 212.226L39.677 215.917C39.4463 216.609 39.2157 217.301 38.985 217.993L38.5236 219.147C34.3714 229.988 26.5282 254.21 28.3737 258.824C31.1418 265.744 44.752 260.9 52.8258 260.9C57.2087 260.9 61.5917 263.668 63.2064 263.437C66.2053 263.206 66.6666 259.977 65.2826 257.901C64.3598 256.517 62.2837 254.902 60.2076 254.21C58.1315 253.518 55.3633 254.671 54.4406 252.826C55.8247 249.135 63.2064 251.672 65.9746 253.287C67.5894 254.21 79.3541 263.206 69.6655 274.279C68.5121 275.663 63.6678 277.278 60.4383 277.739C58.5928 271.742 51.9031 273.587 48.4429 275.663C45.9054 277.278 45.9054 282.353 45.444 285.352C45.2134 287.197 44.9827 287.889 44.2906 289.965C43.5986 291.811 43.8293 293.426 43.8293 293.426C48.9042 292.734 51.4417 289.965 54.6713 289.273C57.4394 288.581 60.2076 291.35 62.9758 292.503C69.2041 295.04 74.7405 296.424 83.045 296.194C81.8916 302.191 75.2018 302.884 72.6643 303.114C69.2041 303.114 65.7439 300.807 61.8223 301.038C57.6701 301.038 53.9792 303.345 50.0576 302.884C49.827 302.884 49.827 303.114 49.827 303.114C50.519 304.037 51.211 305.421 51.4417 306.113C51.9031 308.189 49.5963 310.496 49.1349 312.572C49.1349 312.803 49.3656 312.803 49.3656 312.803C51.4417 309.804 56.5167 309.112 61.5917 309.112C65.7439 309.112 69.4348 310.265 72.6643 309.112C74.2791 308.42 74.2791 306.805 75.8939 307.036C77.0473 307.266 77.0473 309.804 77.0473 310.496C75.4325 315.571 69.8962 318.108 65.5132 320.415C65.2826 320.415 62.2837 323.183 61.361 326.182C60.2076 330.796 60.6689 331.488 61.1303 334.025C62.2837 339.562 66.8973 352.018 93.6563 343.714C98.0392 342.33 137.947 334.487 157.555 315.11C157.785 314.879 179.008 292.042 157.324 262.514C153.403 257.209 152.48 254.441 152.71 249.366C154.095 230.911 152.71 218.916 148.328 209.689C149.25 210.15 149.942 210.842 150.404 211.534ZM51.6724 204.152C51.4417 203.46 50.9804 202.538 50.9804 201.845C53.7485 199.769 58.1315 199.769 61.361 200.692C68.2814 202.307 72.4337 210.381 77.5086 212.457C75.4325 214.302 72.203 215.917 68.2814 216.84C68.9734 215.456 70.3575 211.303 66.436 208.997C65.7439 212.457 63.2064 213.379 61.1303 214.533C60.8996 215.686 60.8996 216.148 61.1303 216.609C59.0542 214.994 59.2849 214.994 58.3621 212.457C59.5155 211.765 59.9769 210.842 60.2076 209.919C60.6689 204.614 55.8247 202.768 51.6724 204.152ZM84.429 219.147C84.1984 220.069 83.045 222.607 82.3529 223.529C79.1234 227.682 72.6643 230.681 67.3587 228.604C64.1292 227.451 56.7474 224.914 59.7462 220.069C67.5894 223.991 74.7405 217.762 80.0461 214.533C81.6609 215.225 82.8143 215.917 83.737 216.378C84.8904 217.07 84.8904 217.762 84.429 219.147Z" fill="white"/>
<path d="M270.127 287.659C307.497 298.27 288.12 319.031 302.191 331.257C305.19 327.566 308.189 323.876 311.188 319.954C304.729 306.344 308.189 290.658 270.357 286.736C269.665 286.736 269.665 287.428 270.127 287.659Z" fill="#C4C4C4"/>
<path d="M270.127 287.659C307.497 298.27 288.12 319.031 302.191 331.257C305.19 327.566 308.189 323.876 311.188 319.954C304.729 306.344 308.189 290.658 270.357 286.736C269.665 286.736 269.665 287.428 270.127 287.659Z" fill="white"/>
<path d="M278.2 354.787C276.816 353.633 275.202 352.711 273.818 351.557C272.433 350.404 265.744 344.867 264.59 343.714C264.59 349.712 265.052 357.555 264.59 365.167C269.204 361.938 273.818 358.478 278.2 354.787Z" fill="#C4C4C4"/>
<path d="M278.2 354.787C276.816 353.633 275.202 352.711 273.818 351.557C272.433 350.404 265.744 344.867 264.59 343.714C264.59 349.712 265.052 357.555 264.59 365.167C269.204 361.938 273.818 358.478 278.2 354.787Z" fill="white"/>
<path d="M250.749 373.933C253.056 360.323 254.21 343.022 250.749 333.333C244.982 329.181 240.369 326.874 234.14 323.414C232.526 341.869 226.759 359.862 218.223 376.701C215.917 381.084 212.918 386.39 209.458 391.696C223.99 387.313 237.831 381.315 250.749 373.933Z" fill="#C4C4C4"/>
<path d="M250.749 373.933C253.056 360.323 254.21 343.022 250.749 333.333C244.982 329.181 240.369 326.874 234.14 323.414C232.526 341.869 226.759 359.862 218.223 376.701C215.917 381.084 212.918 386.39 209.458 391.696C223.99 387.313 237.831 381.315 250.749 373.933Z" fill="white"/>
<path d="M216.378 339.792C220.992 326.874 211.765 319.262 216.147 294.579L216.609 291.35C207.612 288.812 188.696 288.351 184.314 295.502C175.778 309.343 172.087 371.165 137.947 399.308C143.022 399.769 148.097 400 153.172 400C162.86 400 172.549 399.308 182.007 397.924C194.925 386.621 205.998 369.32 216.378 339.792Z" fill="#C4C4C4"/>
<path d="M216.378 339.792C220.992 326.874 211.765 319.262 216.147 294.579L216.609 291.35C207.612 288.812 188.696 288.351 184.314 295.502C175.778 309.343 172.087 371.165 137.947 399.308C143.022 399.769 148.097 400 153.172 400C162.86 400 172.549 399.308 182.007 397.924C194.925 386.621 205.998 369.32 216.378 339.792Z" fill="white"/>
<path d="M1.38394 161.015C-2.07626 159.4 1.15326 154.556 8.53504 144.637C62.0529 71.2803 205.075 111.649 214.071 110.265C220.761 109.112 122.953 58.5928 50.7496 96.6551C38.2928 103.114 8.53504 115.34 6.6896 110.035C6.6896 110.035 41.5224 92.5029 56.7473 78.662C57.67 77.7393 62.2836 74.0484 66.6665 71.2803C94.1175 54.902 125.721 47.0588 158.016 49.1349C244.521 54.2099 310.957 127.566 305.882 212.457C305.652 218.224 304.959 223.76 303.806 229.296C299.654 223.991 296.194 218.916 295.963 218.224C295.963 218.224 307.266 81.1995 162.399 59.2849C136.101 55.3633 108.189 59.5156 88.8119 70.8189C95.2709 70.5882 101.499 70.3576 106.574 69.4348C173.472 58.1315 286.966 98.0392 282.814 201.845C282.583 205.306 238.754 134.948 169.089 121.799C91.1187 107.036 54.6711 129.181 54.6711 129.181C54.6711 129.181 106.344 122.491 161.707 133.564C225.144 146.251 273.587 195.848 298.962 244.291C297.116 247.751 276.355 245.905 271.28 239.677C254.902 219.608 211.765 167.474 155.479 154.095C40.5996 126.874 5.99755 163.091 1.38394 161.015Z" fill="#C4C4C4"/>
<path d="M1.38394 161.015C-2.07626 159.4 1.15326 154.556 8.53504 144.637C62.0529 71.2803 205.075 111.649 214.071 110.265C220.761 109.112 122.953 58.5928 50.7496 96.6551C38.2928 103.114 8.53504 115.34 6.6896 110.035C6.6896 110.035 41.5224 92.5029 56.7473 78.662C57.67 77.7393 62.2836 74.0484 66.6665 71.2803C94.1175 54.902 125.721 47.0588 158.016 49.1349C244.521 54.2099 310.957 127.566 305.882 212.457C305.652 218.224 304.959 223.76 303.806 229.296C299.654 223.991 296.194 218.916 295.963 218.224C295.963 218.224 307.266 81.1995 162.399 59.2849C136.101 55.3633 108.189 59.5156 88.8119 70.8189C95.2709 70.5882 101.499 70.3576 106.574 69.4348C173.472 58.1315 286.966 98.0392 282.814 201.845C282.583 205.306 238.754 134.948 169.089 121.799C91.1187 107.036 54.6711 129.181 54.6711 129.181C54.6711 129.181 106.344 122.491 161.707 133.564C225.144 146.251 273.587 195.848 298.962 244.291C297.116 247.751 276.355 245.905 271.28 239.677C254.902 219.608 211.765 167.474 155.479 154.095C40.5996 126.874 5.99755 163.091 1.38394 161.015Z" fill="white"/>
<path d="M215.225 212.918C196.309 213.38 183.622 177.624 150.634 165.629C150.173 165.398 150.404 164.937 150.865 164.937C190.081 168.627 199.769 200.692 215.456 212.226C215.686 212.457 215.456 212.687 215.225 212.918ZM215.686 228.835C197.462 221.453 160.554 167.705 127.566 163.553C127.105 163.553 127.105 164.014 127.336 164.245C153.633 175.779 190.542 228.604 215.456 229.527C215.917 229.527 215.917 228.835 215.686 228.835ZM219.377 276.817C200.923 243.368 180.623 276.355 158.477 231.834C158.247 231.603 157.785 231.603 157.785 232.065C163.552 289.735 201.845 266.205 218.685 277.278C219.146 277.278 219.608 277.047 219.377 276.817Z" fill="#C4C4C4"/>
<path d="M215.225 212.918C196.309 213.38 183.622 177.624 150.634 165.629C150.173 165.398 150.404 164.937 150.865 164.937C190.081 168.627 199.769 200.692 215.456 212.226C215.686 212.457 215.456 212.687 215.225 212.918ZM215.686 228.835C197.462 221.453 160.554 167.705 127.566 163.553C127.105 163.553 127.105 164.014 127.336 164.245C153.633 175.779 190.542 228.604 215.456 229.527C215.917 229.527 215.917 228.835 215.686 228.835ZM219.377 276.817C200.923 243.368 180.623 276.355 158.477 231.834C158.247 231.603 157.785 231.603 157.785 232.065C163.552 289.735 201.845 266.205 218.685 277.278C219.146 277.278 219.608 277.047 219.377 276.817Z" fill="white"/>
<path d="M288.351 343.483C267.128 314.648 228.604 319.262 232.757 288.351C232.757 288.12 233.218 287.889 233.449 288.351C241.984 308.189 278.201 289.043 289.043 343.253C289.043 343.483 288.581 343.714 288.351 343.483Z" fill="#C4C4C4"/>
<path d="M288.351 343.483C267.128 314.648 228.604 319.262 232.757 288.351C232.757 288.12 233.218 287.889 233.449 288.351C241.984 308.189 278.201 289.043 289.043 343.253C289.043 343.483 288.581 343.714 288.351 343.483Z" fill="white"/>
<path d="M262.284 292.503C184.775 257.901 247.289 232.295 221.453 204.844C221.453 204.844 221.453 204.614 221.684 204.614C260.669 237.37 212.918 261.13 262.745 291.811C262.976 292.272 262.745 292.734 262.284 292.503Z" fill="#C4C4C4"/>
<path d="M262.284 292.503C184.775 257.901 247.289 232.295 221.453 204.844C221.453 204.844 221.453 204.614 221.684 204.614C260.669 237.37 212.918 261.13 262.745 291.811C262.976 292.272 262.745 292.734 262.284 292.503Z" fill="white"/>
<path d="M316.493 297.809C307.035 261.822 242.214 284.66 250.288 235.986C250.288 235.525 250.749 235.525 250.98 235.986C263.667 279.585 322.952 232.526 317.185 297.809C317.185 298.039 316.724 298.27 316.493 297.809Z" fill="#C4C4C4"/>
<path d="M316.493 297.809C307.035 261.822 242.214 284.66 250.288 235.986C250.288 235.525 250.749 235.525 250.98 235.986C263.667 279.585 322.952 232.526 317.185 297.809C317.185 298.039 316.724 298.27 316.493 297.809Z" fill="white"/>
<path d="M310.496 238.524C312.341 230.219 313.725 221.684 314.186 212.918C319.492 123.645 249.827 46.5975 158.708 41.0612C125.49 39.2157 93.1946 46.8282 64.5902 63.2065C64.1289 63.2065 63.8982 63.4372 63.4368 63.4372L48.2119 38.0623C83.0447 16.1477 123.183 5.76704 164.706 8.07384C272.664 14.5329 355.248 107.497 348.789 215.456C347.405 239.908 341.407 262.976 331.488 284.89C327.797 269.896 320.876 254.441 310.496 238.524Z" fill="#C4C4C4"/>
<path d="M310.496 238.524C312.341 230.219 313.725 221.684 314.186 212.918C319.492 123.645 249.827 46.5975 158.708 41.0612C125.49 39.2157 93.1946 46.8282 64.5902 63.2065C64.1289 63.2065 63.8982 63.4372 63.4368 63.4372L48.2119 38.0623C83.0447 16.1477 123.183 5.76704 164.706 8.07384C272.664 14.5329 355.248 107.497 348.789 215.456C347.405 239.908 341.407 262.976 331.488 284.89C327.797 269.896 320.876 254.441 310.496 238.524Z" fill="white"/>
</g>
<defs>
<clipPath id="clip0_1_244">
<rect width="1361.02" height="400" fill="white"/>
</clipPath>
</defs>
</svg>
