<?xml version="1.0" encoding="UTF-8" standalone="no"?>
<svg
   xmlns:dc="http://purl.org/dc/elements/1.1/"
   xmlns:cc="http://creativecommons.org/ns#"
   xmlns:rdf="http://www.w3.org/1999/02/22-rdf-syntax-ns#"
   xmlns:svg="http://www.w3.org/2000/svg"
   xmlns="http://www.w3.org/2000/svg"
   viewBox="0 0 220.74249 200.3125"
   height="200.3125"
   width="220.74249"
   xml:space="preserve"
   version="1.1"
   id="svg2"><metadata
     id="metadata8"><rdf:RDF><cc:Work
         rdf:about=""><dc:format>image/svg+xml</dc:format><dc:type
           rdf:resource="http://purl.org/dc/dcmitype/StillImage" /></cc:Work></rdf:RDF></metadata><defs
     id="defs6" /><g
     transform="matrix(1.25,0,0,-1.25,0,200.3125)"
     id="g10"><g
       transform="translate(31.511,21.23)"
       id="g12"><g
         id="g14"><g
           id="g16"><path
             id="path18"
             style="fill:none;stroke:#000000;stroke-width:0.3985;stroke-linecap:butt;stroke-linejoin:miter;stroke-miterlimit:10;stroke-dasharray:none;stroke-opacity:1"
             d="M 0,0 118.658,0" /><g
             transform="translate(118.85725,0)"
             id="g20"><g
               id="g22"><path
                 id="path24"
                 style="fill:none;stroke:#000000;stroke-width:0.3985;stroke-linecap:round;stroke-linejoin:round;stroke-miterlimit:10;stroke-dasharray:none;stroke-opacity:1"
                 d="M -2.07224,2.39104 C -1.69365,0.95639 -0.84999,0.27895 0,0 -0.84999,-0.27895 -1.69365,-0.95639 -2.07224,-2.39104" /></g></g><g
             id="g26"><g
               transform="translate(117.256,-9.648)"
               id="g28"><g
                 id="g30"><g
                   transform="translate(-148.767,-11.582)"
                   id="g32"><text
                     id="text34"
                     style="font-variant:normal;font-weight:normal;font-size:9.96259975px;font-family:CMMI10;-inkscape-font-specification:CMMI10;writing-mode:lr-tb;fill:#000000;fill-opacity:1;fill-rule:nonzero;stroke:none"
                     transform="matrix(1,0,0,-1,148.767,11.582)"><tspan
                       id="tspan36"
                       y="0"
                       x="0">t</tspan></text>
<g
                     transform="translate(148.767,11.582)"
                     id="g38" /></g></g><g
                 transform="translate(-117.256,9.648)"
                 id="g40" /></g></g><path
             id="path42"
             style="fill:none;stroke:#000000;stroke-width:0.3985;stroke-linecap:butt;stroke-linejoin:miter;stroke-miterlimit:10;stroke-dasharray:none;stroke-opacity:1"
             d="M 0,0 0,118.658" /><g
             transform="matrix(0,1,-1,0,0,118.85725)"
             id="g44"><g
               id="g46"><path
                 id="path48"
                 style="fill:none;stroke:#000000;stroke-width:0.3985;stroke-linecap:round;stroke-linejoin:round;stroke-miterlimit:10;stroke-dasharray:none;stroke-opacity:1"
                 d="M -2.07224,2.39104 C -1.69365,0.95639 -0.84999,0.27895 0,0 -0.84999,-0.27895 -1.69365,-0.95639 -2.07224,-2.39104" /></g></g><g
             id="g50"><g
               transform="translate(-16.527,116.564)"
               id="g52"><g
                 id="g54"><g
                   transform="translate(-14.984,-137.794)"
                   id="g56"><text
                     id="text58"
                     style="font-variant:normal;font-weight:normal;font-size:9.96259975px;font-family:CMR10;-inkscape-font-specification:CMR10;writing-mode:lr-tb;fill:#000000;fill-opacity:1;fill-rule:nonzero;stroke:none"
                     transform="matrix(1,0,0,-1,14.984,137.794)"><tspan
                       id="tspan60"
                       y="0"
                       x="0">[</tspan></text>
<text
                     id="text62"
                     style="font-variant:normal;font-weight:normal;font-size:9.96259975px;font-family:CMMI10;-inkscape-font-specification:CMMI10;writing-mode:lr-tb;fill:#000000;fill-opacity:1;fill-rule:nonzero;stroke:none"
                     transform="matrix(1,0,0,-1,17.752,137.794)"><tspan
                       id="tspan64"
                       y="0"
                       x="0">A</tspan></text>
<text
                     id="text66"
                     style="font-variant:normal;font-weight:normal;font-size:9.96259975px;font-family:CMR10;-inkscape-font-specification:CMR10;writing-mode:lr-tb;fill:#000000;fill-opacity:1;fill-rule:nonzero;stroke:none"
                     transform="matrix(1,0,0,-1,25.224,137.794)"><tspan
                       id="tspan68"
                       y="0"
                       x="0">]</tspan></text>
<g
                     transform="translate(14.984,137.794)"
                     id="g70" /></g></g><g
                 transform="translate(16.527,-116.564)"
                 id="g72" /></g></g><g
             id="g74"><path
               id="path76"
               style="fill:none;stroke:#0000ff;stroke-width:0.3985;stroke-linecap:butt;stroke-linejoin:miter;stroke-miterlimit:10;stroke-dasharray:none;stroke-opacity:1"
               d="m 0,85.15547 c 0,0 3.58388,-6.24867 4.96034,-8.4864 1.37646,-2.23773 3.58388,-5.627 4.96034,-7.64165 1.37647,-2.01466 3.58388,-5.06456 4.96035,-6.87863 1.37646,-1.81409 3.58387,-4.56267 4.96034,-6.19612 1.37646,-1.63346 3.58388,-4.10637 4.96034,-5.57671 1.37647,-1.47034 3.58389,-3.6967 4.96034,-5.02048 1.37647,-1.32376 3.5839,-3.32858 4.96036,-4.52044 1.37645,-1.19188 3.58388,-2.99668 4.96034,-4.06977 1.37647,-1.07309 3.58388,-2.69834 4.96035,-3.66444 1.37646,-0.96611 3.58387,-2.42937 4.96034,-3.29854 1.37646,-0.86919 3.58388,-2.18347 4.96034,-2.96591 1.37647,-0.78244 3.58388,-1.96855 4.96034,-2.67352 1.37647,-0.70499 3.5839,-1.77257 4.96035,-2.40752 1.37646,-0.63494 3.58389,-1.59676 4.96035,-2.16873 1.37647,-0.57199 3.58387,-1.43881 4.96035,-1.95378 1.37648,-0.51497 3.58387,-1.29442 4.96035,-1.75783 1.37648,-0.46342 3.58388,-1.16525 4.96035,-1.58223 1.37646,-0.41697 3.58387,-1.04738 4.96034,-1.42305 1.37646,-0.37567 3.58389,-0.94629 4.96034,-1.28464 1.37647,-0.33835 3.58389,-0.84951 4.96036,-1.154 1.37645,-0.30451 3.58388,-0.76648 4.96034,-1.04068 1.37647,-0.2742 3.58388,-0.68895 4.96035,-0.9356 1.37646,-0.24665 3.58387,-0.61985 4.96034,-0.84214 1.37646,-0.22228 4.96034,-0.75998 4.96034,-0.75998" /></g><g
             id="g78"><g
               transform="matrix(0.8,0,0,0.8,-15.495,83.047)"
               id="g80"><g
                 id="g82"><g
                   transform="translate(-16.016,-104.277)"
                   id="g84"><text
                     id="text86"
                     style="font-variant:normal;font-weight:normal;font-size:9.96259975px;font-family:CMR10;-inkscape-font-specification:CMR10;writing-mode:lr-tb;fill:#000000;fill-opacity:1;fill-rule:nonzero;stroke:none"
                     transform="matrix(1,0,0,-1,16.016,104.277)"><tspan
                       id="tspan88"
                       y="0"
                       x="0">[</tspan></text>
<text
                     id="text90"
                     style="font-variant:normal;font-weight:normal;font-size:9.96259975px;font-family:CMMI10;-inkscape-font-specification:CMMI10;writing-mode:lr-tb;fill:#000000;fill-opacity:1;fill-rule:nonzero;stroke:none"
                     transform="matrix(1,0,0,-1,18.784,104.277)"><tspan
                       id="tspan92"
                       y="0"
                       x="0">A</tspan></text>
<text
                     id="text94"
                     style="font-variant:normal;font-weight:normal;font-size:9.96259975px;font-family:CMR10;-inkscape-font-specification:CMR10;writing-mode:lr-tb;fill:#000000;fill-opacity:1;fill-rule:nonzero;stroke:none"
                     transform="matrix(1,0,0,-1,26.256,104.277)"><tspan
                       id="tspan96"
                       y="0"
                       x="0">]</tspan></text>
<text
                     id="text98"
                     style="font-variant:normal;font-weight:normal;font-size:6.97380018px;font-family:CMR7;-inkscape-font-specification:CMR7;writing-mode:lr-tb;fill:#000000;fill-opacity:1;fill-rule:nonzero;stroke:none"
                     transform="matrix(1,0,0,-1,29.023,102.782)"><tspan
                       id="tspan100"
                       y="0"
                       x="0">0</tspan></text>
<g
                     transform="translate(16.016,104.277)"
                     id="g102" /></g></g><g
                 transform="translate(15.495,-83.047)"
                 id="g104" /></g></g><g
             id="g106"><g
               transform="matrix(0.8,0,0,0.8,120.953,5.094)"
               id="g108"><g
                 id="g110"><g
                   transform="translate(-152.464,-26.324)"
                   id="g112"><text
                     id="text114"
                     style="font-variant:normal;font-weight:normal;font-size:9.96259975px;font-family:CMR10;-inkscape-font-specification:CMR10;writing-mode:lr-tb;fill:#000000;fill-opacity:1;fill-rule:nonzero;stroke:none"
                     transform="matrix(1,0,0,-1,152.464,26.324)"><tspan
                       id="tspan116"
                       y="0"
                       x="0">[</tspan></text>
<text
                     id="text118"
                     style="font-variant:normal;font-weight:normal;font-size:9.96259975px;font-family:CMMI10;-inkscape-font-specification:CMMI10;writing-mode:lr-tb;fill:#000000;fill-opacity:1;fill-rule:nonzero;stroke:none"
                     transform="matrix(1,0,0,-1,155.231,26.324)"><tspan
                       id="tspan120"
                       y="0"
                       x="0">A</tspan></text>
<text
                     id="text122"
                     style="font-variant:normal;font-weight:normal;font-size:9.96259975px;font-family:CMR10;-inkscape-font-specification:CMR10;writing-mode:lr-tb;fill:#000000;fill-opacity:1;fill-rule:nonzero;stroke:none"
                     transform="matrix(1,0,0,-1,162.703,26.324)"><tspan
                       id="tspan124"
                       y="0"
                       x="0">]</tspan></text>
<text
                     id="text126"
                     style="font-variant:normal;font-weight:normal;font-size:6.97380018px;font-family:CMMI7;-inkscape-font-specification:CMMI7;writing-mode:lr-tb;fill:#000000;fill-opacity:1;fill-rule:nonzero;stroke:none"
                     transform="matrix(1,0,0,-1,165.471,24.83)"><tspan
                       id="tspan128"
                       y="0"
                       x="0">t</tspan></text>
<g
                     transform="translate(152.464,26.324)"
                     id="g130" /></g></g><g
                 transform="translate(-120.953,-5.094)"
                 id="g132" /></g></g></g></g></g></g></svg>