<?xml version="1.0" encoding="UTF-8" standalone="no"?>
<svg
   xmlns:dc="http://purl.org/dc/elements/1.1/"
   xmlns:cc="http://creativecommons.org/ns#"
   xmlns:rdf="http://www.w3.org/1999/02/22-rdf-syntax-ns#"
   xmlns:svg="http://www.w3.org/2000/svg"
   xmlns="http://www.w3.org/2000/svg"
   viewBox="0 0 204.93375 200.77"
   height="200.77"
   width="204.93375"
   xml:space="preserve"
   version="1.1"
   id="svg2"><metadata
     id="metadata8"><rdf:RDF><cc:Work
         rdf:about=""><dc:format>image/svg+xml</dc:format><dc:type
           rdf:resource="http://purl.org/dc/dcmitype/StillImage" /></cc:Work></rdf:RDF></metadata><defs
     id="defs6" /><g
     transform="matrix(1.25,0,0,-1.25,0,200.77)"
     id="g10"><g
       transform="translate(31.511,21.596)"
       id="g12"><g
         id="g14"><g
           id="g16"><path
             id="path18"
             style="fill:none;stroke:#000000;stroke-width:0.3985;stroke-linecap:butt;stroke-linejoin:miter;stroke-miterlimit:10;stroke-dasharray:none;stroke-opacity:1"
             d="M 0,0 118.658,0" /><g
             transform="translate(118.85725,0)"
             id="g20"><g
               id="g22"><path
                 id="path24"
                 style="fill:none;stroke:#000000;stroke-width:0.3985;stroke-linecap:round;stroke-linejoin:round;stroke-miterlimit:10;stroke-dasharray:none;stroke-opacity:1"
                 d="M -2.07224,2.39104 C -1.69365,0.95639 -0.84999,0.27895 0,0 -0.84999,-0.27895 -1.69365,-0.95639 -2.07224,-2.39104" /></g></g><g
             id="g26"><g
               transform="translate(117.256,-9.648)"
               id="g28"><g
                 id="g30"><g
                   transform="translate(-148.767,-11.948)"
                   id="g32"><text
                     id="text34"
                     style="font-variant:normal;font-weight:normal;font-size:9.96259975px;font-family:CMMI10;-inkscape-font-specification:CMMI10;writing-mode:lr-tb;fill:#000000;fill-opacity:1;fill-rule:nonzero;stroke:none"
                     transform="matrix(1,0,0,-1,148.767,11.948)"><tspan
                       id="tspan36"
                       y="0"
                       x="0">t</tspan></text>
<g
                     transform="translate(148.767,11.948)"
                     id="g38" /></g></g><g
                 transform="translate(-117.256,9.648)"
                 id="g40" /></g></g><path
             id="path42"
             style="fill:none;stroke:#000000;stroke-width:0.3985;stroke-linecap:butt;stroke-linejoin:miter;stroke-miterlimit:10;stroke-dasharray:none;stroke-opacity:1"
             d="M 0,0 0,118.658" /><g
             transform="matrix(0,1,-1,0,0,118.85725)"
             id="g44"><g
               id="g46"><path
                 id="path48"
                 style="fill:none;stroke:#000000;stroke-width:0.3985;stroke-linecap:round;stroke-linejoin:round;stroke-miterlimit:10;stroke-dasharray:none;stroke-opacity:1"
                 d="M -2.07224,2.39104 C -1.69365,0.95639 -0.84999,0.27895 0,0 -0.84999,-0.27895 -1.69365,-0.95639 -2.07224,-2.39104" /></g></g><g
             id="g50"><g
               transform="translate(-16.527,116.564)"
               id="g52"><g
                 id="g54"><g
                   transform="translate(-14.984,-138.16)"
                   id="g56"><text
                     id="text58"
                     style="font-variant:normal;font-weight:normal;font-size:9.96259975px;font-family:CMR10;-inkscape-font-specification:CMR10;writing-mode:lr-tb;fill:#000000;fill-opacity:1;fill-rule:nonzero;stroke:none"
                     transform="matrix(1,0,0,-1,14.984,138.16)"><tspan
                       id="tspan60"
                       y="0"
                       x="0">[</tspan></text>
<text
                     id="text62"
                     style="font-variant:normal;font-weight:normal;font-size:9.96259975px;font-family:CMMI10;-inkscape-font-specification:CMMI10;writing-mode:lr-tb;fill:#000000;fill-opacity:1;fill-rule:nonzero;stroke:none"
                     transform="matrix(1,0,0,-1,17.752,138.16)"><tspan
                       id="tspan64"
                       y="0"
                       x="0">A</tspan></text>
<text
                     id="text66"
                     style="font-variant:normal;font-weight:normal;font-size:9.96259975px;font-family:CMR10;-inkscape-font-specification:CMR10;writing-mode:lr-tb;fill:#000000;fill-opacity:1;fill-rule:nonzero;stroke:none"
                     transform="matrix(1,0,0,-1,25.224,138.16)"><tspan
                       id="tspan68"
                       y="0"
                       x="0">]</tspan></text>
<g
                     transform="translate(14.984,138.16)"
                     id="g70" /></g></g><g
                 transform="translate(16.527,-116.564)"
                 id="g72" /></g></g><g
             id="g74"><path
               id="path76"
               style="fill:none;stroke:#0000ff;stroke-width:0.3985;stroke-linecap:butt;stroke-linejoin:miter;stroke-miterlimit:10;stroke-dasharray:none;stroke-opacity:1"
               d="m 0,85.04042 c 0,0 2.56007,-2.56009 3.54333,-3.54335 0.98327,-0.98326 2.56009,-2.56009 3.54336,-3.54335 0.98326,-0.98326 2.56008,-2.56009 3.54335,-3.54335 0.98326,-0.98327 2.56008,-2.56009 3.54335,-3.54337 0.98326,-0.98326 2.56008,-2.56008 3.54335,-3.54335 0.98327,-0.98325 2.56008,-2.56008 3.54336,-3.54335 0.98326,-0.98326 2.56009,-2.56009 3.54335,-3.54335 0.98326,-0.98325 2.56009,-2.56007 3.54335,-3.54333 0.98326,-0.98328 2.56008,-2.56009 3.54334,-3.54337 0.98326,-0.98326 2.56009,-2.56009 3.54335,-3.54335 0.98327,-0.98326 2.56009,-2.56009 3.54336,-3.54335 0.98326,-0.98326 2.56009,-2.56009 3.54335,-3.54335 0.98326,-0.98326 2.56009,-2.56009 3.54335,-3.54335 0.98326,-0.98327 2.56009,-2.56009 3.54335,-3.54336 0.98326,-0.98326 2.56009,-2.56009 3.54335,-3.54335 0.98328,-0.98326 2.56009,-2.56008 3.54337,-3.54334 0.98326,-0.98326 2.56008,-2.56009 3.54333,-3.54335 0.98326,-0.98326 2.56009,-2.56009 3.54335,-3.54335 0.98327,-0.98328 2.5601,-2.56009 3.54335,-3.54336 0.98327,-0.98327 2.56009,-2.56009 3.54335,-3.54335 0.98328,-0.98327 2.5601,-2.56009 3.54337,-3.54335 C 75.39363,9.64677 76.97046,8.06995 77.95372,7.08669 78.93698,6.10342 80.51381,4.5266 81.49707,3.54333 82.48033,2.56007 85.04042,0 85.04042,0" /></g><g
             id="g78"><g
               transform="matrix(0.8,0,0,0.8,-15.495,83.047)"
               id="g80"><g
                 id="g82"><g
                   transform="translate(-16.016,-104.643)"
                   id="g84"><text
                     id="text86"
                     style="font-variant:normal;font-weight:normal;font-size:9.96259975px;font-family:CMR10;-inkscape-font-specification:CMR10;writing-mode:lr-tb;fill:#000000;fill-opacity:1;fill-rule:nonzero;stroke:none"
                     transform="matrix(1,0,0,-1,16.016,104.643)"><tspan
                       id="tspan88"
                       y="0"
                       x="0">[</tspan></text>
<text
                     id="text90"
                     style="font-variant:normal;font-weight:normal;font-size:9.96259975px;font-family:CMMI10;-inkscape-font-specification:CMMI10;writing-mode:lr-tb;fill:#000000;fill-opacity:1;fill-rule:nonzero;stroke:none"
                     transform="matrix(1,0,0,-1,18.784,104.643)"><tspan
                       id="tspan92"
                       y="0"
                       x="0">A</tspan></text>
<text
                     id="text94"
                     style="font-variant:normal;font-weight:normal;font-size:9.96259975px;font-family:CMR10;-inkscape-font-specification:CMR10;writing-mode:lr-tb;fill:#000000;fill-opacity:1;fill-rule:nonzero;stroke:none"
                     transform="matrix(1,0,0,-1,26.256,104.643)"><tspan
                       id="tspan96"
                       y="0"
                       x="0">]</tspan></text>
<text
                     id="text98"
                     style="font-variant:normal;font-weight:normal;font-size:6.97380018px;font-family:CMR7;-inkscape-font-specification:CMR7;writing-mode:lr-tb;fill:#000000;fill-opacity:1;fill-rule:nonzero;stroke:none"
                     transform="matrix(1,0,0,-1,29.023,103.148)"><tspan
                       id="tspan100"
                       y="0"
                       x="0">0</tspan></text>
<g
                     transform="translate(16.016,104.643)"
                     id="g102" /></g></g><g
                 transform="translate(15.495,-83.047)"
                 id="g104" /></g></g><g
             id="g106"><g
               transform="matrix(0.8,0,0,0.8,82.951,-8.398)"
               id="g108"><g
                 id="g110"><g
                   transform="translate(-114.462,-13.198)"
                   id="g112"><text
                     id="text114"
                     style="font-variant:normal;font-weight:normal;font-size:9.96259975px;font-family:CMMI10;-inkscape-font-specification:CMMI10;writing-mode:lr-tb;fill:#000000;fill-opacity:1;fill-rule:nonzero;stroke:none"
                     transform="matrix(1,0,0,-1,114.462,13.198)"><tspan
                       id="tspan116"
                       y="0"
                       x="0">t</tspan></text>
<text
                     id="text118"
                     style="font-variant:normal;font-weight:normal;font-size:6.97380018px;font-family:CMMI7;-inkscape-font-specification:CMMI7;writing-mode:lr-tb;fill:#000000;fill-opacity:1;fill-rule:nonzero;stroke:none"
                     transform="matrix(1,0,0,-1,118.06,11.704)"><tspan
                       id="tspan120"
                       y="0"
                       x="0">f</tspan></text>
<g
                     transform="translate(114.462,13.198)"
                     id="g122" /></g></g><g
                 transform="translate(-82.951,8.398)"
                 id="g124" /></g></g></g></g></g></g></svg>