<svg version="1.1" xmlns="http://www.w3.org/2000/svg" xmlns:xlink="http://www.w3.org/1999/xlink" width="342" height="418"><defs><clipPath id="mVGpWhaafTbF"><path fill="none" stroke="none" d=" M 0 0 L 342 0 L 342 418 L 0 418 L 0 0 Z"/></clipPath></defs><g transform="scale(1,1)" clip-path="url(#mVGpWhaafTbF)"><g><rect fill="rgb(255,255,255)" stroke="none" x="0" y="0" width="342" height="419" fill-opacity="1"/><path fill="none" stroke="rgb(192,192,192)" paint-order="fill stroke markers" d=" M 124.5 0.5 L 124.5 418.5 M 203.5 0.5 L 203.5 418.5 M 283.5 0.5 L 283.5 418.5" stroke-opacity="1" stroke-linecap="round" stroke-linejoin="round" stroke-miterlimit="10"/><path fill="none" stroke="rgb(192,192,192)" paint-order="fill stroke markers" d=" M 13.5 0.5 L 13.5 418.5 M 29.5 0.5 L 29.5 418.5 M 61.5 0.5 L 61.5 418.5 M 76.5 0.5 L 76.5 418.5 M 92.5 0.5 L 92.5 418.5 M 108.5 0.5 L 108.5 418.5 M 140.5 0.5 L 140.5 418.5 M 156.5 0.5 L 156.5 418.5 M 172.5 0.5 L 172.5 418.5 M 188.5 0.5 L 188.5 418.5 M 219.5 0.5 L 219.5 418.5 M 235.5 0.5 L 235.5 418.5 M 251.5 0.5 L 251.5 418.5 M 267.5 0.5 L 267.5 418.5 M 299.5 0.5 L 299.5 418.5 M 314.5 0.5 L 314.5 418.5 M 330.5 0.5 L 330.5 418.5" stroke-opacity="0.23529411764705882" stroke-linecap="round" stroke-linejoin="round" stroke-miterlimit="10"/><path fill="none" stroke="rgb(192,192,192)" paint-order="fill stroke markers" d=" M 0.5 3.5 L 342.5 3.5 M 0.5 3.5 L 342.5 3.5 M 0.5 83.5 L 342.5 83.5 M 0.5 162.5 L 342.5 162.5 M 0.5 241.5 L 342.5 241.5 M 0.5 400.5 L 342.5 400.5" stroke-opacity="1" stroke-linecap="round" stroke-linejoin="round" stroke-miterlimit="10"/><path fill="none" stroke="rgb(192,192,192)" paint-order="fill stroke markers" d=" M 0.5 3.5 L 342.5 3.5 M 0.5 19.5 L 342.5 19.5 M 0.5 35.5 L 342.5 35.5 M 0.5 51.5 L 342.5 51.5 M 0.5 67.5 L 342.5 67.5 M 0.5 99.5 L 342.5 99.5 M 0.5 114.5 L 342.5 114.5 M 0.5 130.5 L 342.5 130.5 M 0.5 146.5 L 342.5 146.5 M 0.5 178.5 L 342.5 178.5 M 0.5 194.5 L 342.5 194.5 M 0.5 210.5 L 342.5 210.5 M 0.5 225.5 L 342.5 225.5 M 0.5 257.5 L 342.5 257.5 M 0.5 273.5 L 342.5 273.5 M 0.5 289.5 L 342.5 289.5 M 0.5 305.5 L 342.5 305.5 M 0.5 336.5 L 342.5 336.5 M 0.5 352.5 L 342.5 352.5 M 0.5 368.5 L 342.5 368.5 M 0.5 384.5 L 342.5 384.5 M 0.5 416.5 L 342.5 416.5" stroke-opacity="0.23529411764705882" stroke-linecap="round" stroke-linejoin="round" stroke-miterlimit="10"/><path fill="none" stroke="rgb(37,37,37)" paint-order="fill stroke markers" d=" M 45.5 2.5 L 45.5 418.5" stroke-opacity="1" stroke-miterlimit="10"/><path fill="none" stroke="rgb(37,37,37)" paint-order="fill stroke markers" d=" M 45.5 1.5 L 41.5 5.5" stroke-opacity="1" stroke-miterlimit="10"/><path fill="none" stroke="rgb(37,37,37)" paint-order="fill stroke markers" d=" M 45.5 1.5 L 49.5 5.5" stroke-opacity="1" stroke-miterlimit="10"/><path fill="none" stroke="rgb(37,37,37)" paint-order="fill stroke markers" d=" M 0.5 321.5 L 340.5 321.5" stroke-opacity="1" stroke-miterlimit="10"/><path fill="none" stroke="rgb(37,37,37)" paint-order="fill stroke markers" d=" M 341.5 321.5 L 337.5 317.5" stroke-opacity="1" stroke-miterlimit="10"/><path fill="none" stroke="rgb(37,37,37)" paint-order="fill stroke markers" d=" M 341.5 321.5 L 337.5 325.5" stroke-opacity="1" stroke-miterlimit="10"/><text fill="rgb(37,37,37)" stroke="none" font-family="geogebra-sans-serif, sans-serif" font-size="12px" font-style="normal" font-weight="normal" text-decoration="normal" x="122" y="337" text-anchor="start" dominant-baseline="alphabetic" fill-opacity="1">1</text><text fill="none" stroke="rgb(255,255,255)" font-family="geogebra-sans-serif, sans-serif" font-size="12px" font-style="normal" font-weight="normal" text-decoration="normal" x="122" y="337" text-anchor="start" dominant-baseline="alphabetic" stroke-opacity="1" stroke-linejoin="bevel" stroke-miterlimit="10" stroke-width="3">1</text><text fill="rgb(37,37,37)" stroke="none" font-family="geogebra-sans-serif, sans-serif" font-size="12px" font-style="normal" font-weight="normal" text-decoration="normal" x="122" y="337" text-anchor="start" dominant-baseline="alphabetic" fill-opacity="1">1</text><text fill="rgb(37,37,37)" stroke="none" font-family="geogebra-sans-serif, sans-serif" font-size="12px" font-style="normal" font-weight="normal" text-decoration="normal" x="201" y="337" text-anchor="start" dominant-baseline="alphabetic" fill-opacity="1">2</text><text fill="none" stroke="rgb(255,255,255)" font-family="geogebra-sans-serif, sans-serif" font-size="12px" font-style="normal" font-weight="normal" text-decoration="normal" x="201" y="337" text-anchor="start" dominant-baseline="alphabetic" stroke-opacity="1" stroke-linejoin="bevel" stroke-miterlimit="10" stroke-width="3">2</text><text fill="rgb(37,37,37)" stroke="none" font-family="geogebra-sans-serif, sans-serif" font-size="12px" font-style="normal" font-weight="normal" text-decoration="normal" x="201" y="337" text-anchor="start" dominant-baseline="alphabetic" fill-opacity="1">2</text><text fill="rgb(37,37,37)" stroke="none" font-family="geogebra-sans-serif, sans-serif" font-size="12px" font-style="normal" font-weight="normal" text-decoration="normal" x="281" y="337" text-anchor="start" dominant-baseline="alphabetic" fill-opacity="1">3</text><text fill="none" stroke="rgb(255,255,255)" font-family="geogebra-sans-serif, sans-serif" font-size="12px" font-style="normal" font-weight="normal" text-decoration="normal" x="281" y="337" text-anchor="start" dominant-baseline="alphabetic" stroke-opacity="1" stroke-linejoin="bevel" stroke-miterlimit="10" stroke-width="3">3</text><text fill="rgb(37,37,37)" stroke="none" font-family="geogebra-sans-serif, sans-serif" font-size="12px" font-style="normal" font-weight="normal" text-decoration="normal" x="281" y="337" text-anchor="start" dominant-baseline="alphabetic" fill-opacity="1">3</text><text fill="rgb(37,37,37)" stroke="none" font-family="geogebra-sans-serif, sans-serif" font-size="12px" font-style="normal" font-weight="normal" text-decoration="normal" x="25" y="405" text-anchor="start" dominant-baseline="alphabetic" fill-opacity="1">–1</text><text fill="none" stroke="rgb(255,255,255)" font-family="geogebra-sans-serif, sans-serif" font-size="12px" font-style="normal" font-weight="normal" text-decoration="normal" x="25" y="405" text-anchor="start" dominant-baseline="alphabetic" stroke-opacity="1" stroke-linejoin="bevel" stroke-miterlimit="10" stroke-width="3">–1</text><text fill="rgb(37,37,37)" stroke="none" font-family="geogebra-sans-serif, sans-serif" font-size="12px" font-style="normal" font-weight="normal" text-decoration="normal" x="25" y="405" text-anchor="start" dominant-baseline="alphabetic" fill-opacity="1">–1</text><text fill="rgb(37,37,37)" stroke="none" font-family="geogebra-sans-serif, sans-serif" font-size="12px" font-style="normal" font-weight="normal" text-decoration="normal" x="31" y="246" text-anchor="start" dominant-baseline="alphabetic" fill-opacity="1">1</text><text fill="none" stroke="rgb(255,255,255)" font-family="geogebra-sans-serif, sans-serif" font-size="12px" font-style="normal" font-weight="normal" text-decoration="normal" x="31" y="246" text-anchor="start" dominant-baseline="alphabetic" stroke-opacity="1" stroke-linejoin="bevel" stroke-miterlimit="10" stroke-width="3">1</text><text fill="rgb(37,37,37)" stroke="none" font-family="geogebra-sans-serif, sans-serif" font-size="12px" font-style="normal" font-weight="normal" text-decoration="normal" x="31" y="246" text-anchor="start" dominant-baseline="alphabetic" fill-opacity="1">1</text><text fill="rgb(37,37,37)" stroke="none" font-family="geogebra-sans-serif, sans-serif" font-size="12px" font-style="normal" font-weight="normal" text-decoration="normal" x="31" y="167" text-anchor="start" dominant-baseline="alphabetic" fill-opacity="1">2</text><text fill="none" stroke="rgb(255,255,255)" font-family="geogebra-sans-serif, sans-serif" font-size="12px" font-style="normal" font-weight="normal" text-decoration="normal" x="31" y="167" text-anchor="start" dominant-baseline="alphabetic" stroke-opacity="1" stroke-linejoin="bevel" stroke-miterlimit="10" stroke-width="3">2</text><text fill="rgb(37,37,37)" stroke="none" font-family="geogebra-sans-serif, sans-serif" font-size="12px" font-style="normal" font-weight="normal" text-decoration="normal" x="31" y="167" text-anchor="start" dominant-baseline="alphabetic" fill-opacity="1">2</text><text fill="rgb(37,37,37)" stroke="none" font-family="geogebra-sans-serif, sans-serif" font-size="12px" font-style="normal" font-weight="normal" text-decoration="normal" x="31" y="88" text-anchor="start" dominant-baseline="alphabetic" fill-opacity="1">3</text><text fill="none" stroke="rgb(255,255,255)" font-family="geogebra-sans-serif, sans-serif" font-size="12px" font-style="normal" font-weight="normal" text-decoration="normal" x="31" y="88" text-anchor="start" dominant-baseline="alphabetic" stroke-opacity="1" stroke-linejoin="bevel" stroke-miterlimit="10" stroke-width="3">3</text><text fill="rgb(37,37,37)" stroke="none" font-family="geogebra-sans-serif, sans-serif" font-size="12px" font-style="normal" font-weight="normal" text-decoration="normal" x="31" y="88" text-anchor="start" dominant-baseline="alphabetic" fill-opacity="1">3</text><text fill="rgb(37,37,37)" stroke="none" font-family="geogebra-sans-serif, sans-serif" font-size="12px" font-style="normal" font-weight="normal" text-decoration="normal" x="31" y="337" text-anchor="start" dominant-baseline="alphabetic" fill-opacity="1">0</text><text fill="none" stroke="rgb(255,255,255)" font-family="geogebra-sans-serif, sans-serif" font-size="12px" font-style="normal" font-weight="normal" text-decoration="normal" x="31" y="337" text-anchor="start" dominant-baseline="alphabetic" stroke-opacity="1" stroke-linejoin="bevel" stroke-miterlimit="10" stroke-width="3">0</text><text fill="rgb(37,37,37)" stroke="none" font-family="geogebra-sans-serif, sans-serif" font-size="12px" font-style="normal" font-weight="normal" text-decoration="normal" x="31" y="337" text-anchor="start" dominant-baseline="alphabetic" fill-opacity="1">0</text><path fill="rgb(21,101,192)" stroke="none" paint-order="stroke fill markers" fill-rule="evenodd" d=" M 45.2666054384302 83.17503645187747 L 124.56937271712474 83.17503645187747 L 124.56937271712474 241.78057100926617 L 203.87213999581925 241.78057100926617 L 203.87213999581925 321.0833382879605 L 45.2666054384302 321.0833382879605 Z" fill-opacity="0.09803921568627451"/><path fill="rgb(211,47,47)" stroke="none" paint-order="stroke fill markers" fill-rule="evenodd" d=" M 45.2666054384302 83.17503645187747 L 164.22075635647198 83.17503645187747 L 164.22075635647198 241.78057100926617 L 243.52352363516653 241.78057100926617 L 243.52352363516653 321.0833382879605 L 45.2666054384302 321.0833382879605 Z" fill-opacity="0.09803921568627451"/><path fill="none" stroke="rgb(21,101,192)" paint-order="fill stroke markers" d=" M 45.2666054384302 83.17503645187747 L 124.56937271712474 83.17503645187747" stroke-opacity="0.6980392156862745" stroke-linecap="round" stroke-linejoin="round" stroke-miterlimit="10" stroke-width="2.5"/><path fill="none" stroke="rgb(21,101,192)" paint-order="fill stroke markers" d=" M 124.56937271712474 83.17503645187747 L 124.56937271712474 241.78057100926617" stroke-opacity="0.6980392156862745" stroke-linecap="round" stroke-linejoin="round" stroke-miterlimit="10" stroke-width="2.5"/><path fill="none" stroke="rgb(21,101,192)" paint-order="fill stroke markers" d=" M 124.56937271712474 241.78057100926617 L 203.87213999581925 241.78057100926617" stroke-opacity="0.6980392156862745" stroke-linecap="round" stroke-linejoin="round" stroke-miterlimit="10" stroke-width="2.5"/><path fill="none" stroke="rgb(21,101,192)" paint-order="fill stroke markers" d=" M 203.87213999581925 241.78057100926617 L 203.87213999581925 321.0833382879605" stroke-opacity="0.6980392156862745" stroke-linecap="round" stroke-linejoin="round" stroke-miterlimit="10" stroke-width="2.5"/><path fill="none" stroke="rgb(21,101,192)" paint-order="fill stroke markers" d=" M 203.87213999581925 321.0833382879605 L 45.2666054384302 321.0833382879605" stroke-opacity="0.6980392156862745" stroke-linecap="round" stroke-linejoin="round" stroke-miterlimit="10" stroke-width="2.5"/><path fill="none" stroke="rgb(21,101,192)" paint-order="fill stroke markers" d=" M 45.2666054384302 321.0833382879605 L 45.2666054384302 83.17503645187747" stroke-opacity="0.6980392156862745" stroke-linecap="round" stroke-linejoin="round" stroke-miterlimit="10" stroke-width="2.5"/><path fill="none" stroke="rgb(211,47,47)" paint-order="fill stroke markers" d=" M 45.2666054384302 83.17503645187747 L 164.22075635647198 83.17503645187747" stroke-opacity="0.6980392156862745" stroke-linecap="round" stroke-linejoin="round" stroke-miterlimit="10" stroke-width="2.5"/><path fill="none" stroke="rgb(211,47,47)" paint-order="fill stroke markers" d=" M 164.22075635647198 83.17503645187747 L 164.22075635647198 241.78057100926617" stroke-opacity="0.6980392156862745" stroke-linecap="round" stroke-linejoin="round" stroke-miterlimit="10" stroke-width="2.5"/><path fill="none" stroke="rgb(211,47,47)" paint-order="fill stroke markers" d=" M 164.22075635647198 241.78057100926617 L 243.52352363516653 241.78057100926617" stroke-opacity="0.6980392156862745" stroke-linecap="round" stroke-linejoin="round" stroke-miterlimit="10" stroke-width="2.5"/><path fill="none" stroke="rgb(211,47,47)" paint-order="fill stroke markers" d=" M 243.52352363516653 241.78057100926617 L 243.52352363516653 321.0833382879605" stroke-opacity="0.6980392156862745" stroke-linecap="round" stroke-linejoin="round" stroke-miterlimit="10" stroke-width="2.5"/><path fill="none" stroke="rgb(211,47,47)" paint-order="fill stroke markers" d=" M 243.52352363516653 321.0833382879605 L 45.2666054384302 321.0833382879605" stroke-opacity="0.6980392156862745" stroke-linecap="round" stroke-linejoin="round" stroke-miterlimit="10" stroke-width="2.5"/><path fill="none" stroke="rgb(211,47,47)" paint-order="fill stroke markers" d=" M 45.2666054384302 321.0833382879605 L 45.2666054384302 83.17503645187747" stroke-opacity="0.6980392156862745" stroke-linecap="round" stroke-linejoin="round" stroke-miterlimit="10" stroke-width="2.5"/><path fill="rgb(21,101,192)" stroke="none" paint-order="stroke fill markers" d=" M 46.2666054384302 83.17503645187747 C 46.2666054384302 83.72732120170826 45.818890188260994 84.17503645187747 45.2666054384302 84.17503645187747 C 44.7143206885994 84.17503645187747 44.2666054384302 83.72732120170826 44.2666054384302 83.17503645187747 C 44.2666054384302 82.62275170204668 44.7143206885994 82.17503645187747 45.2666054384302 82.17503645187747 C 45.818890188260994 82.17503645187747 46.2666054384302 82.62275170204668 46.2666054384302 83.17503645187747 Z" fill-opacity="1"/><path fill="rgb(21,101,192)" stroke="none" paint-order="stroke fill markers" d=" M 125.56937271712474 83.17503645187747 C 125.56937271712474 83.72732120170826 125.12165746695553 84.17503645187747 124.56937271712474 84.17503645187747 C 124.01708796729395 84.17503645187747 123.56937271712474 83.72732120170826 123.56937271712474 83.17503645187747 C 123.56937271712474 82.62275170204668 124.01708796729395 82.17503645187747 124.56937271712474 82.17503645187747 C 125.12165746695553 82.17503645187747 125.56937271712474 82.62275170204668 125.56937271712474 83.17503645187747 Z" fill-opacity="1"/><path fill="rgb(211,47,47)" stroke="none" paint-order="stroke fill markers" d=" M 125.56937271712474 241.78057100926617 C 125.56937271712474 242.33285575909696 125.12165746695553 242.78057100926617 124.56937271712474 242.78057100926617 C 124.01708796729395 242.78057100926617 123.56937271712474 242.33285575909696 123.56937271712474 241.78057100926617 C 123.56937271712474 241.22828625943538 124.01708796729395 240.78057100926617 124.56937271712474 240.78057100926617 C 125.12165746695553 240.78057100926617 125.56937271712474 241.22828625943538 125.56937271712474 241.78057100926617 Z" fill-opacity="1"/><path fill="rgb(21,101,192)" stroke="none" paint-order="stroke fill markers" d=" M 204.87213999581925 321.0833382879605 C 204.87213999581925 321.6356230377913 204.42442474565004 322.0833382879605 203.87213999581925 322.0833382879605 C 203.31985524598846 322.0833382879605 202.87213999581925 321.6356230377913 202.87213999581925 321.0833382879605 C 202.87213999581925 320.5310535381297 203.31985524598846 320.0833382879605 203.87213999581925 320.0833382879605 C 204.42442474565004 320.0833382879605 204.87213999581925 320.5310535381297 204.87213999581925 321.0833382879605 Z" fill-opacity="1"/><path fill="rgb(97,97,97)" stroke="none" paint-order="stroke fill markers" d=" M 46.2666054384302 321.0833382879605 C 46.2666054384302 321.6356230377913 45.818890188260994 322.0833382879605 45.2666054384302 322.0833382879605 C 44.7143206885994 322.0833382879605 44.2666054384302 321.6356230377913 44.2666054384302 321.0833382879605 C 44.2666054384302 320.5310535381297 44.7143206885994 320.0833382879605 45.2666054384302 320.0833382879605 C 45.818890188260994 320.0833382879605 46.2666054384302 320.5310535381297 46.2666054384302 321.0833382879605 Z" fill-opacity="1"/><path fill="rgb(21,101,192)" stroke="none" paint-order="stroke fill markers" d=" M 46.2666054384302 83.17503645187747 C 46.2666054384302 83.72732120170826 45.818890188260994 84.17503645187747 45.2666054384302 84.17503645187747 C 44.7143206885994 84.17503645187747 44.2666054384302 83.72732120170826 44.2666054384302 83.17503645187747 C 44.2666054384302 82.62275170204668 44.7143206885994 82.17503645187747 45.2666054384302 82.17503645187747 C 45.818890188260994 82.17503645187747 46.2666054384302 82.62275170204668 46.2666054384302 83.17503645187747 Z" fill-opacity="1"/><path fill="rgb(97,97,97)" stroke="none" paint-order="stroke fill markers" d=" M 46.2666054384302 321.0833382879605 C 46.2666054384302 321.6356230377913 45.818890188260994 322.0833382879605 45.2666054384302 322.0833382879605 C 44.7143206885994 322.0833382879605 44.2666054384302 321.6356230377913 44.2666054384302 321.0833382879605 C 44.2666054384302 320.5310535381297 44.7143206885994 320.0833382879605 45.2666054384302 320.0833382879605 C 45.818890188260994 320.0833382879605 46.2666054384302 320.5310535381297 46.2666054384302 321.0833382879605 Z" fill-opacity="1"/><path fill="rgb(211,47,47)" stroke="none" paint-order="stroke fill markers" d=" M 46.2666054384302 162.0375253505422 C 46.2666054384302 162.589810100373 45.818890188260994 163.0375253505422 45.2666054384302 163.0375253505422 C 44.7143206885994 163.0375253505422 44.2666054384302 162.589810100373 44.2666054384302 162.0375253505422 C 44.2666054384302 161.48524060071142 44.7143206885994 161.0375253505422 45.2666054384302 161.0375253505422 C 45.818890188260994 161.0375253505422 46.2666054384302 161.48524060071142 46.2666054384302 162.0375253505422 Z" fill-opacity="1"/><path fill="rgb(211,47,47)" stroke="none" paint-order="stroke fill markers" d=" M 125.56937271712474 162.47780373057182 C 125.56937271712474 163.0300884804026 125.12165746695553 163.47780373057182 124.56937271712474 163.47780373057182 C 124.01708796729395 163.47780373057182 123.56937271712474 163.0300884804026 123.56937271712474 162.47780373057182 C 123.56937271712474 161.92551898074103 124.01708796729395 161.47780373057182 124.56937271712474 161.47780373057182 C 125.12165746695553 161.47780373057182 125.56937271712474 161.92551898074103 125.56937271712474 162.47780373057182 Z" fill-opacity="1"/><path fill="rgb(97,97,97)" stroke="none" paint-order="stroke fill markers" d=" M 46.2666054384302 321.0833382879605 C 46.2666054384302 321.6356230377913 45.818890188260994 322.0833382879605 45.2666054384302 322.0833382879605 C 44.7143206885994 322.0833382879605 44.2666054384302 321.6356230377913 44.2666054384302 321.0833382879605 C 44.2666054384302 320.5310535381297 44.7143206885994 320.0833382879605 45.2666054384302 320.0833382879605 C 45.818890188260994 320.0833382879605 46.2666054384302 320.5310535381297 46.2666054384302 321.0833382879605 Z" fill-opacity="1"/><path fill="rgb(211,47,47)" stroke="none" paint-order="stroke fill markers" d=" M 46.2666054384302 400.3861055666548 C 46.2666054384302 400.9383903164856 45.818890188260994 401.3861055666548 45.2666054384302 401.3861055666548 C 44.7143206885994 401.3861055666548 44.2666054384302 400.9383903164856 44.2666054384302 400.3861055666548 C 44.2666054384302 399.833820816824 44.7143206885994 399.3861055666548 45.2666054384302 399.3861055666548 C 45.818890188260994 399.3861055666548 46.2666054384302 399.833820816824 46.2666054384302 400.3861055666548 Z" fill-opacity="1"/><path fill="rgb(97,97,97)" stroke="none" paint-order="stroke fill markers" d=" M 46.2666054384302 321.0833382879605 C 46.2666054384302 321.6356230377913 45.818890188260994 322.0833382879605 45.2666054384302 322.0833382879605 C 44.7143206885994 322.0833382879605 44.2666054384302 321.6356230377913 44.2666054384302 321.0833382879605 C 44.2666054384302 320.5310535381297 44.7143206885994 320.0833382879605 45.2666054384302 320.0833382879605 C 45.818890188260994 320.0833382879605 46.2666054384302 320.5310535381297 46.2666054384302 321.0833382879605 Z" fill-opacity="1"/><path fill="rgb(211,47,47)" stroke="none" paint-order="stroke fill markers" d=" M 46.2666054384302 400.3861055666548 C 46.2666054384302 400.9383903164856 45.818890188260994 401.3861055666548 45.2666054384302 401.3861055666548 C 44.7143206885994 401.3861055666548 44.2666054384302 400.9383903164856 44.2666054384302 400.3861055666548 C 44.2666054384302 399.833820816824 44.7143206885994 399.3861055666548 45.2666054384302 399.3861055666548 C 45.818890188260994 399.3861055666548 46.2666054384302 399.833820816824 46.2666054384302 400.3861055666548 Z" fill-opacity="1"/><path fill="rgb(211,47,47)" stroke="none" paint-order="stroke fill markers" d=" M 46.2666054384302 83.17503645187747 C 46.2666054384302 83.72732120170826 45.818890188260994 84.17503645187747 45.2666054384302 84.17503645187747 C 44.7143206885994 84.17503645187747 44.2666054384302 83.72732120170826 44.2666054384302 83.17503645187747 C 44.2666054384302 82.62275170204668 44.7143206885994 82.17503645187747 45.2666054384302 82.17503645187747 C 45.818890188260994 82.17503645187747 46.2666054384302 82.62275170204668 46.2666054384302 83.17503645187747 Z" fill-opacity="1"/><path fill="rgb(211,47,47)" stroke="none" paint-order="stroke fill markers" d=" M 165.22075635647198 83.17503645187747 C 165.22075635647198 83.72732120170826 164.77304110630277 84.17503645187747 164.22075635647198 84.17503645187747 C 163.6684716066412 84.17503645187747 163.22075635647198 83.72732120170826 163.22075635647198 83.17503645187747 C 163.22075635647198 82.62275170204668 163.6684716066412 82.17503645187747 164.22075635647198 82.17503645187747 C 164.77304110630277 82.17503645187747 165.22075635647198 82.62275170204668 165.22075635647198 83.17503645187747 Z" fill-opacity="1"/><path fill="rgb(211,47,47)" stroke="none" paint-order="stroke fill markers" d=" M 165.22075635647198 241.78057100926617 C 165.22075635647198 242.33285575909696 164.77304110630277 242.78057100926617 164.22075635647198 242.78057100926617 C 163.6684716066412 242.78057100926617 163.22075635647198 242.33285575909696 163.22075635647198 241.78057100926617 C 163.22075635647198 241.22828625943538 163.6684716066412 240.78057100926617 164.22075635647198 240.78057100926617 C 164.77304110630277 240.78057100926617 165.22075635647198 241.22828625943538 165.22075635647198 241.78057100926617 Z" fill-opacity="1"/><path fill="rgb(211,47,47)" stroke="none" paint-order="stroke fill markers" d=" M 244.52352363516653 241.78057100926617 C 244.52352363516653 242.33285575909696 244.07580838499732 242.78057100926617 243.52352363516653 242.78057100926617 C 242.97123888533574 242.78057100926617 242.52352363516653 242.33285575909696 242.52352363516653 241.78057100926617 C 242.52352363516653 241.22828625943538 242.97123888533574 240.78057100926617 243.52352363516653 240.78057100926617 C 244.07580838499732 240.78057100926617 244.52352363516653 241.22828625943538 244.52352363516653 241.78057100926617 Z" fill-opacity="1"/><path fill="rgb(211,47,47)" stroke="none" paint-order="stroke fill markers" d=" M 244.52352363516653 321.0833382879605 C 244.52352363516653 321.6356230377913 244.07580838499732 322.0833382879605 243.52352363516653 322.0833382879605 C 242.97123888533574 322.0833382879605 242.52352363516653 321.6356230377913 242.52352363516653 321.0833382879605 C 242.52352363516653 320.5310535381297 242.97123888533574 320.0833382879605 243.52352363516653 320.0833382879605 C 244.07580838499732 320.0833382879605 244.52352363516653 320.5310535381297 244.52352363516653 321.0833382879605 Z" fill-opacity="1"/></g></g></svg>