<svg version="1.1" xmlns="http://www.w3.org/2000/svg" xmlns:xlink="http://www.w3.org/1999/xlink" width="342" height="418"><defs><clipPath id="TeGcsCTGaare"><path fill="none" stroke="none" d=" M 0 0 L 342 0 L 342 418 L 0 418 L 0 0 Z"/></clipPath></defs><g transform="scale(1,1)" clip-path="url(#TeGcsCTGaare)"><g><rect fill="rgb(255,255,255)" stroke="none" x="0" y="0" width="342" height="419" fill-opacity="1"/><path fill="none" stroke="rgb(192,192,192)" paint-order="fill stroke markers" d=" M 3.5 0.5 L 3.5 418.5 M 3.5 0.5 L 3.5 418.5 M 162.5 0.5 L 162.5 418.5 M 241.5 0.5 L 241.5 418.5 M 321.5 0.5 L 321.5 418.5" stroke-opacity="1" stroke-linecap="round" stroke-linejoin="round" stroke-miterlimit="10"/><path fill="none" stroke="rgb(192,192,192)" paint-order="fill stroke markers" d=" M 19.5 0.5 L 19.5 418.5 M 35.5 0.5 L 35.5 418.5 M 51.5 0.5 L 51.5 418.5 M 67.5 0.5 L 67.5 418.5 M 99.5 0.5 L 99.5 418.5 M 114.5 0.5 L 114.5 418.5 M 130.5 0.5 L 130.5 418.5 M 146.5 0.5 L 146.5 418.5 M 178.5 0.5 L 178.5 418.5 M 194.5 0.5 L 194.5 418.5 M 210.5 0.5 L 210.5 418.5 M 226.5 0.5 L 226.5 418.5 M 257.5 0.5 L 257.5 418.5 M 273.5 0.5 L 273.5 418.5 M 289.5 0.5 L 289.5 418.5 M 305.5 0.5 L 305.5 418.5 M 337.5 0.5 L 337.5 418.5" stroke-opacity="0.23529411764705882" stroke-linecap="round" stroke-linejoin="round" stroke-miterlimit="10"/><path fill="none" stroke="rgb(192,192,192)" paint-order="fill stroke markers" d=" M 0.5 70.5 L 342.5 70.5 M 0.5 70.5 L 342.5 70.5 M 0.5 149.5 L 342.5 149.5 M 0.5 229.5 L 342.5 229.5 M 0.5 387.5 L 342.5 387.5" stroke-opacity="1" stroke-linecap="round" stroke-linejoin="round" stroke-miterlimit="10"/><path fill="none" stroke="rgb(192,192,192)" paint-order="fill stroke markers" d=" M 0.5 7.5 L 342.5 7.5 M 0.5 22.5 L 342.5 22.5 M 0.5 38.5 L 342.5 38.5 M 0.5 54.5 L 342.5 54.5 M 0.5 86.5 L 342.5 86.5 M 0.5 102.5 L 342.5 102.5 M 0.5 118.5 L 342.5 118.5 M 0.5 133.5 L 342.5 133.5 M 0.5 165.5 L 342.5 165.5 M 0.5 181.5 L 342.5 181.5 M 0.5 197.5 L 342.5 197.5 M 0.5 213.5 L 342.5 213.5 M 0.5 244.5 L 342.5 244.5 M 0.5 260.5 L 342.5 260.5 M 0.5 276.5 L 342.5 276.5 M 0.5 292.5 L 342.5 292.5 M 0.5 324.5 L 342.5 324.5 M 0.5 340.5 L 342.5 340.5 M 0.5 355.5 L 342.5 355.5 M 0.5 371.5 L 342.5 371.5 M 0.5 403.5 L 342.5 403.5" stroke-opacity="0.23529411764705882" stroke-linecap="round" stroke-linejoin="round" stroke-miterlimit="10"/><path fill="none" stroke="rgb(37,37,37)" paint-order="fill stroke markers" d=" M 83.5 2.5 L 83.5 418.5" stroke-opacity="1" stroke-miterlimit="10"/><path fill="none" stroke="rgb(37,37,37)" paint-order="fill stroke markers" d=" M 83.5 1.5 L 79.5 5.5" stroke-opacity="1" stroke-miterlimit="10"/><path fill="none" stroke="rgb(37,37,37)" paint-order="fill stroke markers" d=" M 83.5 1.5 L 87.5 5.5" stroke-opacity="1" stroke-miterlimit="10"/><path fill="none" stroke="rgb(37,37,37)" paint-order="fill stroke markers" d=" M 0.5 308.5 L 340.5 308.5" stroke-opacity="1" stroke-miterlimit="10"/><path fill="none" stroke="rgb(37,37,37)" paint-order="fill stroke markers" d=" M 341.5 308.5 L 337.5 304.5" stroke-opacity="1" stroke-miterlimit="10"/><path fill="none" stroke="rgb(37,37,37)" paint-order="fill stroke markers" d=" M 341.5 308.5 L 337.5 312.5" stroke-opacity="1" stroke-miterlimit="10"/><text fill="rgb(37,37,37)" stroke="none" font-family="geogebra-sans-serif, sans-serif" font-size="12px" font-style="normal" font-weight="normal" text-decoration="normal" x="160" y="324" text-anchor="start" dominant-baseline="alphabetic" fill-opacity="1">1</text><text fill="none" stroke="rgb(255,255,255)" font-family="geogebra-sans-serif, sans-serif" font-size="12px" font-style="normal" font-weight="normal" text-decoration="normal" x="160" y="324" text-anchor="start" dominant-baseline="alphabetic" stroke-opacity="1" stroke-linejoin="bevel" stroke-miterlimit="10" stroke-width="3">1</text><text fill="rgb(37,37,37)" stroke="none" font-family="geogebra-sans-serif, sans-serif" font-size="12px" font-style="normal" font-weight="normal" text-decoration="normal" x="160" y="324" text-anchor="start" dominant-baseline="alphabetic" fill-opacity="1">1</text><text fill="rgb(37,37,37)" stroke="none" font-family="geogebra-sans-serif, sans-serif" font-size="12px" font-style="normal" font-weight="normal" text-decoration="normal" x="239" y="324" text-anchor="start" dominant-baseline="alphabetic" fill-opacity="1">2</text><text fill="none" stroke="rgb(255,255,255)" font-family="geogebra-sans-serif, sans-serif" font-size="12px" font-style="normal" font-weight="normal" text-decoration="normal" x="239" y="324" text-anchor="start" dominant-baseline="alphabetic" stroke-opacity="1" stroke-linejoin="bevel" stroke-miterlimit="10" stroke-width="3">2</text><text fill="rgb(37,37,37)" stroke="none" font-family="geogebra-sans-serif, sans-serif" font-size="12px" font-style="normal" font-weight="normal" text-decoration="normal" x="239" y="324" text-anchor="start" dominant-baseline="alphabetic" fill-opacity="1">2</text><text fill="rgb(37,37,37)" stroke="none" font-family="geogebra-sans-serif, sans-serif" font-size="12px" font-style="normal" font-weight="normal" text-decoration="normal" x="319" y="324" text-anchor="start" dominant-baseline="alphabetic" fill-opacity="1">3</text><text fill="none" stroke="rgb(255,255,255)" font-family="geogebra-sans-serif, sans-serif" font-size="12px" font-style="normal" font-weight="normal" text-decoration="normal" x="319" y="324" text-anchor="start" dominant-baseline="alphabetic" stroke-opacity="1" stroke-linejoin="bevel" stroke-miterlimit="10" stroke-width="3">3</text><text fill="rgb(37,37,37)" stroke="none" font-family="geogebra-sans-serif, sans-serif" font-size="12px" font-style="normal" font-weight="normal" text-decoration="normal" x="319" y="324" text-anchor="start" dominant-baseline="alphabetic" fill-opacity="1">3</text><text fill="rgb(37,37,37)" stroke="none" font-family="geogebra-sans-serif, sans-serif" font-size="12px" font-style="normal" font-weight="normal" text-decoration="normal" x="63" y="392" text-anchor="start" dominant-baseline="alphabetic" fill-opacity="1">–1</text><text fill="none" stroke="rgb(255,255,255)" font-family="geogebra-sans-serif, sans-serif" font-size="12px" font-style="normal" font-weight="normal" text-decoration="normal" x="63" y="392" text-anchor="start" dominant-baseline="alphabetic" stroke-opacity="1" stroke-linejoin="bevel" stroke-miterlimit="10" stroke-width="3">–1</text><text fill="rgb(37,37,37)" stroke="none" font-family="geogebra-sans-serif, sans-serif" font-size="12px" font-style="normal" font-weight="normal" text-decoration="normal" x="63" y="392" text-anchor="start" dominant-baseline="alphabetic" fill-opacity="1">–1</text><text fill="rgb(37,37,37)" stroke="none" font-family="geogebra-sans-serif, sans-serif" font-size="12px" font-style="normal" font-weight="normal" text-decoration="normal" x="69" y="234" text-anchor="start" dominant-baseline="alphabetic" fill-opacity="1">1</text><text fill="none" stroke="rgb(255,255,255)" font-family="geogebra-sans-serif, sans-serif" font-size="12px" font-style="normal" font-weight="normal" text-decoration="normal" x="69" y="234" text-anchor="start" dominant-baseline="alphabetic" stroke-opacity="1" stroke-linejoin="bevel" stroke-miterlimit="10" stroke-width="3">1</text><text fill="rgb(37,37,37)" stroke="none" font-family="geogebra-sans-serif, sans-serif" font-size="12px" font-style="normal" font-weight="normal" text-decoration="normal" x="69" y="234" text-anchor="start" dominant-baseline="alphabetic" fill-opacity="1">1</text><text fill="rgb(37,37,37)" stroke="none" font-family="geogebra-sans-serif, sans-serif" font-size="12px" font-style="normal" font-weight="normal" text-decoration="normal" x="69" y="154" text-anchor="start" dominant-baseline="alphabetic" fill-opacity="1">2</text><text fill="none" stroke="rgb(255,255,255)" font-family="geogebra-sans-serif, sans-serif" font-size="12px" font-style="normal" font-weight="normal" text-decoration="normal" x="69" y="154" text-anchor="start" dominant-baseline="alphabetic" stroke-opacity="1" stroke-linejoin="bevel" stroke-miterlimit="10" stroke-width="3">2</text><text fill="rgb(37,37,37)" stroke="none" font-family="geogebra-sans-serif, sans-serif" font-size="12px" font-style="normal" font-weight="normal" text-decoration="normal" x="69" y="154" text-anchor="start" dominant-baseline="alphabetic" fill-opacity="1">2</text><text fill="rgb(37,37,37)" stroke="none" font-family="geogebra-sans-serif, sans-serif" font-size="12px" font-style="normal" font-weight="normal" text-decoration="normal" x="69" y="75" text-anchor="start" dominant-baseline="alphabetic" fill-opacity="1">3</text><text fill="none" stroke="rgb(255,255,255)" font-family="geogebra-sans-serif, sans-serif" font-size="12px" font-style="normal" font-weight="normal" text-decoration="normal" x="69" y="75" text-anchor="start" dominant-baseline="alphabetic" stroke-opacity="1" stroke-linejoin="bevel" stroke-miterlimit="10" stroke-width="3">3</text><text fill="rgb(37,37,37)" stroke="none" font-family="geogebra-sans-serif, sans-serif" font-size="12px" font-style="normal" font-weight="normal" text-decoration="normal" x="69" y="75" text-anchor="start" dominant-baseline="alphabetic" fill-opacity="1">3</text><text fill="rgb(37,37,37)" stroke="none" font-family="geogebra-sans-serif, sans-serif" font-size="12px" font-style="normal" font-weight="normal" text-decoration="normal" x="69" y="324" text-anchor="start" dominant-baseline="alphabetic" fill-opacity="1">0</text><text fill="none" stroke="rgb(255,255,255)" font-family="geogebra-sans-serif, sans-serif" font-size="12px" font-style="normal" font-weight="normal" text-decoration="normal" x="69" y="324" text-anchor="start" dominant-baseline="alphabetic" stroke-opacity="1" stroke-linejoin="bevel" stroke-miterlimit="10" stroke-width="3">0</text><text fill="rgb(37,37,37)" stroke="none" font-family="geogebra-sans-serif, sans-serif" font-size="12px" font-style="normal" font-weight="normal" text-decoration="normal" x="69" y="324" text-anchor="start" dominant-baseline="alphabetic" fill-opacity="1">0</text><path fill="rgb(21,101,192)" stroke="none" paint-order="stroke fill markers" fill-rule="evenodd" d=" M 83.26660543843022 70.50836978521068 L 162.5693727171248 70.50836978521068 L 162.5693727171248 229.11390434259943 L 241.87213999581934 229.11390434259943 L 241.87213999581934 308.4166716212938 L 83.26660543843022 308.4166716212938 Z" fill-opacity="0.09803921568627451"/><path fill="rgb(211,47,47)" stroke="none" paint-order="stroke fill markers" fill-rule="evenodd" d=" M 83.26660543843022 70.50836978521068 L 122.91798907777749 70.50836978521068 L 122.91798907777749 229.11390434259943 L 162.5693727171248 229.11390434259943 L 162.5693727171248 308.4166716212938 L 83.26660543843022 308.4166716212938 Z" fill-opacity="0.09803921568627451"/><path fill="none" stroke="rgb(21,101,192)" paint-order="fill stroke markers" d=" M 83.26660543843022 70.50836978521068 L 162.5693727171248 70.50836978521068" stroke-opacity="0.6980392156862745" stroke-linecap="round" stroke-linejoin="round" stroke-miterlimit="10" stroke-width="2.5"/><path fill="none" stroke="rgb(21,101,192)" paint-order="fill stroke markers" d=" M 162.5693727171248 70.50836978521068 L 162.5693727171248 229.11390434259943" stroke-opacity="0.6980392156862745" stroke-linecap="round" stroke-linejoin="round" stroke-miterlimit="10" stroke-width="2.5"/><path fill="none" stroke="rgb(21,101,192)" paint-order="fill stroke markers" d=" M 162.5693727171248 229.11390434259943 L 241.87213999581934 229.11390434259943" stroke-opacity="0.6980392156862745" stroke-linecap="round" stroke-linejoin="round" stroke-miterlimit="10" stroke-width="2.5"/><path fill="none" stroke="rgb(21,101,192)" paint-order="fill stroke markers" d=" M 241.87213999581934 229.11390434259943 L 241.87213999581934 308.4166716212938" stroke-opacity="0.6980392156862745" stroke-linecap="round" stroke-linejoin="round" stroke-miterlimit="10" stroke-width="2.5"/><path fill="none" stroke="rgb(21,101,192)" paint-order="fill stroke markers" d=" M 241.87213999581934 308.4166716212938 L 83.26660543843022 308.4166716212938" stroke-opacity="0.6980392156862745" stroke-linecap="round" stroke-linejoin="round" stroke-miterlimit="10" stroke-width="2.5"/><path fill="none" stroke="rgb(21,101,192)" paint-order="fill stroke markers" d=" M 83.26660543843022 308.4166716212938 L 83.26660543843022 70.50836978521068" stroke-opacity="0.6980392156862745" stroke-linecap="round" stroke-linejoin="round" stroke-miterlimit="10" stroke-width="2.5"/><path fill="none" stroke="rgb(211,47,47)" paint-order="fill stroke markers" d=" M 83.26660543843022 70.50836978521068 L 122.91798907777749 70.50836978521068" stroke-opacity="0.6980392156862745" stroke-linecap="round" stroke-linejoin="round" stroke-miterlimit="10" stroke-width="2.5"/><path fill="none" stroke="rgb(211,47,47)" paint-order="fill stroke markers" d=" M 122.91798907777749 70.50836978521068 L 122.91798907777749 229.11390434259943" stroke-opacity="0.6980392156862745" stroke-linecap="round" stroke-linejoin="round" stroke-miterlimit="10" stroke-width="2.5"/><path fill="none" stroke="rgb(211,47,47)" paint-order="fill stroke markers" d=" M 122.91798907777749 229.11390434259943 L 162.5693727171248 229.11390434259943" stroke-opacity="0.6980392156862745" stroke-linecap="round" stroke-linejoin="round" stroke-miterlimit="10" stroke-width="2.5"/><path fill="none" stroke="rgb(211,47,47)" paint-order="fill stroke markers" d=" M 162.5693727171248 229.11390434259943 L 162.5693727171248 308.4166716212938" stroke-opacity="0.6980392156862745" stroke-linecap="round" stroke-linejoin="round" stroke-miterlimit="10" stroke-width="2.5"/><path fill="none" stroke="rgb(211,47,47)" paint-order="fill stroke markers" d=" M 162.5693727171248 308.4166716212938 L 83.26660543843022 308.4166716212938" stroke-opacity="0.6980392156862745" stroke-linecap="round" stroke-linejoin="round" stroke-miterlimit="10" stroke-width="2.5"/><path fill="none" stroke="rgb(211,47,47)" paint-order="fill stroke markers" d=" M 83.26660543843022 308.4166716212938 L 83.26660543843022 70.50836978521068" stroke-opacity="0.6980392156862745" stroke-linecap="round" stroke-linejoin="round" stroke-miterlimit="10" stroke-width="2.5"/><path fill="rgb(21,101,192)" stroke="none" paint-order="stroke fill markers" d=" M 84.26660543843022 70.50836978521068 C 84.26660543843022 71.06065453504146 83.81889018826101 71.50836978521068 83.26660543843022 71.50836978521068 C 82.71432068859943 71.50836978521068 82.26660543843022 71.06065453504146 82.26660543843022 70.50836978521068 C 82.26660543843022 69.95608503537989 82.71432068859943 69.50836978521068 83.26660543843022 69.50836978521068 C 83.81889018826101 69.50836978521068 84.26660543843022 69.95608503537989 84.26660543843022 70.50836978521068 Z" fill-opacity="1"/><path fill="rgb(21,101,192)" stroke="none" paint-order="stroke fill markers" d=" M 163.5693727171248 70.50836978521068 C 163.5693727171248 71.06065453504146 163.12165746695558 71.50836978521068 162.5693727171248 71.50836978521068 C 162.017087967294 71.50836978521068 161.5693727171248 71.06065453504146 161.5693727171248 70.50836978521068 C 161.5693727171248 69.95608503537989 162.017087967294 69.50836978521068 162.5693727171248 69.50836978521068 C 163.12165746695558 69.50836978521068 163.5693727171248 69.95608503537989 163.5693727171248 70.50836978521068 Z" fill-opacity="1"/><path fill="rgb(211,47,47)" stroke="none" paint-order="stroke fill markers" d=" M 163.5693727171248 229.11390434259943 C 163.5693727171248 229.66618909243022 163.12165746695558 230.11390434259943 162.5693727171248 230.11390434259943 C 162.017087967294 230.11390434259943 161.5693727171248 229.66618909243022 161.5693727171248 229.11390434259943 C 161.5693727171248 228.56161959276864 162.017087967294 228.11390434259943 162.5693727171248 228.11390434259943 C 163.12165746695558 228.11390434259943 163.5693727171248 228.56161959276864 163.5693727171248 229.11390434259943 Z" fill-opacity="1"/><path fill="rgb(21,101,192)" stroke="none" paint-order="stroke fill markers" d=" M 242.87213999581934 308.4166716212938 C 242.87213999581934 308.9689563711246 242.42442474565013 309.4166716212938 241.87213999581934 309.4166716212938 C 241.31985524598855 309.4166716212938 240.87213999581934 308.9689563711246 240.87213999581934 308.4166716212938 C 240.87213999581934 307.864386871463 241.31985524598855 307.4166716212938 241.87213999581934 307.4166716212938 C 242.42442474565013 307.4166716212938 242.87213999581934 307.864386871463 242.87213999581934 308.4166716212938 Z" fill-opacity="1"/><path fill="rgb(97,97,97)" stroke="none" paint-order="stroke fill markers" d=" M 84.26660543843022 308.4166716212938 C 84.26660543843022 308.9689563711246 83.81889018826101 309.4166716212938 83.26660543843022 309.4166716212938 C 82.71432068859943 309.4166716212938 82.26660543843022 308.9689563711246 82.26660543843022 308.4166716212938 C 82.26660543843022 307.864386871463 82.71432068859943 307.4166716212938 83.26660543843022 307.4166716212938 C 83.81889018826101 307.4166716212938 84.26660543843022 307.864386871463 84.26660543843022 308.4166716212938 Z" fill-opacity="1"/><path fill="rgb(21,101,192)" stroke="none" paint-order="stroke fill markers" d=" M 84.26660543843022 70.50836978521068 C 84.26660543843022 71.06065453504146 83.81889018826101 71.50836978521068 83.26660543843022 71.50836978521068 C 82.71432068859943 71.50836978521068 82.26660543843022 71.06065453504146 82.26660543843022 70.50836978521068 C 82.26660543843022 69.95608503537989 82.71432068859943 69.50836978521068 83.26660543843022 69.50836978521068 C 83.81889018826101 69.50836978521068 84.26660543843022 69.95608503537989 84.26660543843022 70.50836978521068 Z" fill-opacity="1"/><path fill="rgb(97,97,97)" stroke="none" paint-order="stroke fill markers" d=" M 84.26660543843022 308.4166716212938 C 84.26660543843022 308.9689563711246 83.81889018826101 309.4166716212938 83.26660543843022 309.4166716212938 C 82.71432068859943 309.4166716212938 82.26660543843022 308.9689563711246 82.26660543843022 308.4166716212938 C 82.26660543843022 307.864386871463 82.71432068859943 307.4166716212938 83.26660543843022 307.4166716212938 C 83.81889018826101 307.4166716212938 84.26660543843022 307.864386871463 84.26660543843022 308.4166716212938 Z" fill-opacity="1"/><path fill="rgb(211,47,47)" stroke="none" paint-order="stroke fill markers" d=" M 84.26660543843022 149.37085868387544 C 84.26660543843022 149.92314343370623 83.81889018826101 150.37085868387544 83.26660543843022 150.37085868387544 C 82.71432068859943 150.37085868387544 82.26660543843022 149.92314343370623 82.26660543843022 149.37085868387544 C 82.26660543843022 148.81857393404465 82.71432068859943 148.37085868387544 83.26660543843022 148.37085868387544 C 83.81889018826101 148.37085868387544 84.26660543843022 148.81857393404465 84.26660543843022 149.37085868387544 Z" fill-opacity="1"/><path fill="rgb(211,47,47)" stroke="none" paint-order="stroke fill markers" d=" M 163.5693727171248 149.81113706390505 C 163.5693727171248 150.36342181373584 163.12165746695558 150.81113706390505 162.5693727171248 150.81113706390505 C 162.017087967294 150.81113706390505 161.5693727171248 150.36342181373584 161.5693727171248 149.81113706390505 C 161.5693727171248 149.25885231407426 162.017087967294 148.81113706390505 162.5693727171248 148.81113706390505 C 163.12165746695558 148.81113706390505 163.5693727171248 149.25885231407426 163.5693727171248 149.81113706390505 Z" fill-opacity="1"/><path fill="rgb(97,97,97)" stroke="none" paint-order="stroke fill markers" d=" M 84.26660543843022 308.4166716212938 C 84.26660543843022 308.9689563711246 83.81889018826101 309.4166716212938 83.26660543843022 309.4166716212938 C 82.71432068859943 309.4166716212938 82.26660543843022 308.9689563711246 82.26660543843022 308.4166716212938 C 82.26660543843022 307.864386871463 82.71432068859943 307.4166716212938 83.26660543843022 307.4166716212938 C 83.81889018826101 307.4166716212938 84.26660543843022 307.864386871463 84.26660543843022 308.4166716212938 Z" fill-opacity="1"/><path fill="rgb(211,47,47)" stroke="none" paint-order="stroke fill markers" d=" M 84.26660543843022 387.7194388999882 C 84.26660543843022 388.27172364981897 83.81889018826101 388.7194388999882 83.26660543843022 388.7194388999882 C 82.71432068859943 388.7194388999882 82.26660543843022 388.27172364981897 82.26660543843022 387.7194388999882 C 82.26660543843022 387.1671541501574 82.71432068859943 386.7194388999882 83.26660543843022 386.7194388999882 C 83.81889018826101 386.7194388999882 84.26660543843022 387.1671541501574 84.26660543843022 387.7194388999882 Z" fill-opacity="1"/><path fill="rgb(97,97,97)" stroke="none" paint-order="stroke fill markers" d=" M 84.26660543843022 308.4166716212938 C 84.26660543843022 308.9689563711246 83.81889018826101 309.4166716212938 83.26660543843022 309.4166716212938 C 82.71432068859943 309.4166716212938 82.26660543843022 308.9689563711246 82.26660543843022 308.4166716212938 C 82.26660543843022 307.864386871463 82.71432068859943 307.4166716212938 83.26660543843022 307.4166716212938 C 83.81889018826101 307.4166716212938 84.26660543843022 307.864386871463 84.26660543843022 308.4166716212938 Z" fill-opacity="1"/><path fill="rgb(211,47,47)" stroke="none" paint-order="stroke fill markers" d=" M 84.26660543843022 387.7194388999882 C 84.26660543843022 388.27172364981897 83.81889018826101 388.7194388999882 83.26660543843022 388.7194388999882 C 82.71432068859943 388.7194388999882 82.26660543843022 388.27172364981897 82.26660543843022 387.7194388999882 C 82.26660543843022 387.1671541501574 82.71432068859943 386.7194388999882 83.26660543843022 386.7194388999882 C 83.81889018826101 386.7194388999882 84.26660543843022 387.1671541501574 84.26660543843022 387.7194388999882 Z" fill-opacity="1"/><path fill="rgb(211,47,47)" stroke="none" paint-order="stroke fill markers" d=" M 84.26660543843022 70.50836978521068 C 84.26660543843022 71.06065453504146 83.81889018826101 71.50836978521068 83.26660543843022 71.50836978521068 C 82.71432068859943 71.50836978521068 82.26660543843022 71.06065453504146 82.26660543843022 70.50836978521068 C 82.26660543843022 69.95608503537989 82.71432068859943 69.50836978521068 83.26660543843022 69.50836978521068 C 83.81889018826101 69.50836978521068 84.26660543843022 69.95608503537989 84.26660543843022 70.50836978521068 Z" fill-opacity="1"/><path fill="rgb(211,47,47)" stroke="none" paint-order="stroke fill markers" d=" M 123.91798907777749 70.50836978521068 C 123.91798907777749 71.06065453504146 123.47027382760828 71.50836978521068 122.91798907777749 71.50836978521068 C 122.3657043279467 71.50836978521068 121.91798907777749 71.06065453504146 121.91798907777749 70.50836978521068 C 121.91798907777749 69.95608503537989 122.3657043279467 69.50836978521068 122.91798907777749 69.50836978521068 C 123.47027382760828 69.50836978521068 123.91798907777749 69.95608503537989 123.91798907777749 70.50836978521068 Z" fill-opacity="1"/><path fill="rgb(211,47,47)" stroke="none" paint-order="stroke fill markers" d=" M 123.91798907777749 229.11390434259943 C 123.91798907777749 229.66618909243022 123.47027382760828 230.11390434259943 122.91798907777749 230.11390434259943 C 122.3657043279467 230.11390434259943 121.91798907777749 229.66618909243022 121.91798907777749 229.11390434259943 C 121.91798907777749 228.56161959276864 122.3657043279467 228.11390434259943 122.91798907777749 228.11390434259943 C 123.47027382760828 228.11390434259943 123.91798907777749 228.56161959276864 123.91798907777749 229.11390434259943 Z" fill-opacity="1"/><path fill="rgb(211,47,47)" stroke="none" paint-order="stroke fill markers" d=" M 163.5693727171248 229.11390434259943 C 163.5693727171248 229.66618909243022 163.12165746695558 230.11390434259943 162.5693727171248 230.11390434259943 C 162.017087967294 230.11390434259943 161.5693727171248 229.66618909243022 161.5693727171248 229.11390434259943 C 161.5693727171248 228.56161959276864 162.017087967294 228.11390434259943 162.5693727171248 228.11390434259943 C 163.12165746695558 228.11390434259943 163.5693727171248 228.56161959276864 163.5693727171248 229.11390434259943 Z" fill-opacity="1"/><path fill="rgb(211,47,47)" stroke="none" paint-order="stroke fill markers" d=" M 163.5693727171248 308.4166716212938 C 163.5693727171248 308.9689563711246 163.12165746695558 309.4166716212938 162.5693727171248 309.4166716212938 C 162.017087967294 309.4166716212938 161.5693727171248 308.9689563711246 161.5693727171248 308.4166716212938 C 161.5693727171248 307.864386871463 162.017087967294 307.4166716212938 162.5693727171248 307.4166716212938 C 163.12165746695558 307.4166716212938 163.5693727171248 307.864386871463 163.5693727171248 308.4166716212938 Z" fill-opacity="1"/></g></g></svg>