<svg version="1.1" xmlns="http://www.w3.org/2000/svg" xmlns:xlink="http://www.w3.org/1999/xlink" width="342" height="346"><defs><clipPath id="NAcqqeviGMTU"><path fill="none" stroke="none" d=" M 0 0 L 342 0 L 342 346 L 0 346 L 0 0 Z"/></clipPath></defs><g transform="scale(1,1)" clip-path="url(#NAcqqeviGMTU)"><g><rect fill="rgb(255,255,255)" stroke="none" x="0" y="0" width="342" height="347" fill-opacity="1"/><path fill="none" stroke="rgb(192,192,192)" paint-order="fill stroke markers" d=" M 43.5 0.5 L 43.5 346.5 M 43.5 0.5 L 43.5 346.5 M 174.5 0.5 L 174.5 346.5 M 240.5 0.5 L 240.5 346.5 M 306.5 0.5 L 306.5 346.5" stroke-opacity="1" stroke-linecap="round" stroke-linejoin="round" stroke-miterlimit="10"/><path fill="none" stroke="rgb(192,192,192)" paint-order="fill stroke markers" d=" M 4.5 0.5 L 4.5 346.5 M 17.5 0.5 L 17.5 346.5 M 30.5 0.5 L 30.5 346.5 M 56.5 0.5 L 56.5 346.5 M 69.5 0.5 L 69.5 346.5 M 83.5 0.5 L 83.5 346.5 M 96.5 0.5 L 96.5 346.5 M 122.5 0.5 L 122.5 346.5 M 135.5 0.5 L 135.5 346.5 M 148.5 0.5 L 148.5 346.5 M 161.5 0.5 L 161.5 346.5 M 188.5 0.5 L 188.5 346.5 M 201.5 0.5 L 201.5 346.5 M 214.5 0.5 L 214.5 346.5 M 227.5 0.5 L 227.5 346.5 M 253.5 0.5 L 253.5 346.5 M 266.5 0.5 L 266.5 346.5 M 280.5 0.5 L 280.5 346.5 M 293.5 0.5 L 293.5 346.5 M 319.5 0.5 L 319.5 346.5 M 332.5 0.5 L 332.5 346.5" stroke-opacity="0.23529411764705882" stroke-linecap="round" stroke-linejoin="round" stroke-miterlimit="10"/><path fill="none" stroke="rgb(192,192,192)" paint-order="fill stroke markers" d=" M 0.5 9.5 L 342.5 9.5 M 0.5 9.5 L 342.5 9.5 M 0.5 74.5 L 342.5 74.5 M 0.5 140.5 L 342.5 140.5 M 0.5 206.5 L 342.5 206.5 M 0.5 337.5 L 342.5 337.5" stroke-opacity="1" stroke-linecap="round" stroke-linejoin="round" stroke-miterlimit="10"/><path fill="none" stroke="rgb(192,192,192)" paint-order="fill stroke markers" d=" M 0.5 9.5 L 342.5 9.5 M 0.5 22.5 L 342.5 22.5 M 0.5 35.5 L 342.5 35.5 M 0.5 48.5 L 342.5 48.5 M 0.5 61.5 L 342.5 61.5 M 0.5 88.5 L 342.5 88.5 M 0.5 101.5 L 342.5 101.5 M 0.5 114.5 L 342.5 114.5 M 0.5 127.5 L 342.5 127.5 M 0.5 153.5 L 342.5 153.5 M 0.5 166.5 L 342.5 166.5 M 0.5 180.5 L 342.5 180.5 M 0.5 193.5 L 342.5 193.5 M 0.5 219.5 L 342.5 219.5 M 0.5 232.5 L 342.5 232.5 M 0.5 245.5 L 342.5 245.5 M 0.5 258.5 L 342.5 258.5 M 0.5 285.5 L 342.5 285.5 M 0.5 298.5 L 342.5 298.5 M 0.5 311.5 L 342.5 311.5 M 0.5 324.5 L 342.5 324.5" stroke-opacity="0.23529411764705882" stroke-linecap="round" stroke-linejoin="round" stroke-miterlimit="10"/><path fill="none" stroke="rgb(37,37,37)" paint-order="fill stroke markers" d=" M 109.5 2.5 L 109.5 346.5" stroke-opacity="1" stroke-miterlimit="10"/><path fill="none" stroke="rgb(37,37,37)" paint-order="fill stroke markers" d=" M 109.5 1.5 L 105.5 5.5" stroke-opacity="1" stroke-miterlimit="10"/><path fill="none" stroke="rgb(37,37,37)" paint-order="fill stroke markers" d=" M 109.5 1.5 L 113.5 5.5" stroke-opacity="1" stroke-miterlimit="10"/><path fill="none" stroke="rgb(37,37,37)" paint-order="fill stroke markers" d=" M 0.5 271.5 L 340.5 271.5" stroke-opacity="1" stroke-miterlimit="10"/><path fill="none" stroke="rgb(37,37,37)" paint-order="fill stroke markers" d=" M 341.5 271.5 L 337.5 267.5" stroke-opacity="1" stroke-miterlimit="10"/><path fill="none" stroke="rgb(37,37,37)" paint-order="fill stroke markers" d=" M 341.5 271.5 L 337.5 275.5" stroke-opacity="1" stroke-miterlimit="10"/><text fill="rgb(37,37,37)" stroke="none" font-family="geogebra-sans-serif, sans-serif" font-size="12px" font-style="normal" font-weight="normal" text-decoration="normal" x="38" y="287" text-anchor="start" dominant-baseline="alphabetic" fill-opacity="1">–1</text><text fill="none" stroke="rgb(255,255,255)" font-family="geogebra-sans-serif, sans-serif" font-size="12px" font-style="normal" font-weight="normal" text-decoration="normal" x="38" y="287" text-anchor="start" dominant-baseline="alphabetic" stroke-opacity="1" stroke-linejoin="bevel" stroke-miterlimit="10" stroke-width="3">–1</text><text fill="rgb(37,37,37)" stroke="none" font-family="geogebra-sans-serif, sans-serif" font-size="12px" font-style="normal" font-weight="normal" text-decoration="normal" x="38" y="287" text-anchor="start" dominant-baseline="alphabetic" fill-opacity="1">–1</text><text fill="rgb(37,37,37)" stroke="none" font-family="geogebra-sans-serif, sans-serif" font-size="12px" font-style="normal" font-weight="normal" text-decoration="normal" x="172" y="287" text-anchor="start" dominant-baseline="alphabetic" fill-opacity="1">1</text><text fill="none" stroke="rgb(255,255,255)" font-family="geogebra-sans-serif, sans-serif" font-size="12px" font-style="normal" font-weight="normal" text-decoration="normal" x="172" y="287" text-anchor="start" dominant-baseline="alphabetic" stroke-opacity="1" stroke-linejoin="bevel" stroke-miterlimit="10" stroke-width="3">1</text><text fill="rgb(37,37,37)" stroke="none" font-family="geogebra-sans-serif, sans-serif" font-size="12px" font-style="normal" font-weight="normal" text-decoration="normal" x="172" y="287" text-anchor="start" dominant-baseline="alphabetic" fill-opacity="1">1</text><text fill="rgb(37,37,37)" stroke="none" font-family="geogebra-sans-serif, sans-serif" font-size="12px" font-style="normal" font-weight="normal" text-decoration="normal" x="238" y="287" text-anchor="start" dominant-baseline="alphabetic" fill-opacity="1">2</text><text fill="none" stroke="rgb(255,255,255)" font-family="geogebra-sans-serif, sans-serif" font-size="12px" font-style="normal" font-weight="normal" text-decoration="normal" x="238" y="287" text-anchor="start" dominant-baseline="alphabetic" stroke-opacity="1" stroke-linejoin="bevel" stroke-miterlimit="10" stroke-width="3">2</text><text fill="rgb(37,37,37)" stroke="none" font-family="geogebra-sans-serif, sans-serif" font-size="12px" font-style="normal" font-weight="normal" text-decoration="normal" x="238" y="287" text-anchor="start" dominant-baseline="alphabetic" fill-opacity="1">2</text><text fill="rgb(37,37,37)" stroke="none" font-family="geogebra-sans-serif, sans-serif" font-size="12px" font-style="normal" font-weight="normal" text-decoration="normal" x="304" y="287" text-anchor="start" dominant-baseline="alphabetic" fill-opacity="1">3</text><text fill="none" stroke="rgb(255,255,255)" font-family="geogebra-sans-serif, sans-serif" font-size="12px" font-style="normal" font-weight="normal" text-decoration="normal" x="304" y="287" text-anchor="start" dominant-baseline="alphabetic" stroke-opacity="1" stroke-linejoin="bevel" stroke-miterlimit="10" stroke-width="3">3</text><text fill="rgb(37,37,37)" stroke="none" font-family="geogebra-sans-serif, sans-serif" font-size="12px" font-style="normal" font-weight="normal" text-decoration="normal" x="304" y="287" text-anchor="start" dominant-baseline="alphabetic" fill-opacity="1">3</text><text fill="rgb(37,37,37)" stroke="none" font-family="geogebra-sans-serif, sans-serif" font-size="12px" font-style="normal" font-weight="normal" text-decoration="normal" x="95" y="211" text-anchor="start" dominant-baseline="alphabetic" fill-opacity="1">1</text><text fill="none" stroke="rgb(255,255,255)" font-family="geogebra-sans-serif, sans-serif" font-size="12px" font-style="normal" font-weight="normal" text-decoration="normal" x="95" y="211" text-anchor="start" dominant-baseline="alphabetic" stroke-opacity="1" stroke-linejoin="bevel" stroke-miterlimit="10" stroke-width="3">1</text><text fill="rgb(37,37,37)" stroke="none" font-family="geogebra-sans-serif, sans-serif" font-size="12px" font-style="normal" font-weight="normal" text-decoration="normal" x="95" y="211" text-anchor="start" dominant-baseline="alphabetic" fill-opacity="1">1</text><text fill="rgb(37,37,37)" stroke="none" font-family="geogebra-sans-serif, sans-serif" font-size="12px" font-style="normal" font-weight="normal" text-decoration="normal" x="95" y="145" text-anchor="start" dominant-baseline="alphabetic" fill-opacity="1">2</text><text fill="none" stroke="rgb(255,255,255)" font-family="geogebra-sans-serif, sans-serif" font-size="12px" font-style="normal" font-weight="normal" text-decoration="normal" x="95" y="145" text-anchor="start" dominant-baseline="alphabetic" stroke-opacity="1" stroke-linejoin="bevel" stroke-miterlimit="10" stroke-width="3">2</text><text fill="rgb(37,37,37)" stroke="none" font-family="geogebra-sans-serif, sans-serif" font-size="12px" font-style="normal" font-weight="normal" text-decoration="normal" x="95" y="145" text-anchor="start" dominant-baseline="alphabetic" fill-opacity="1">2</text><text fill="rgb(37,37,37)" stroke="none" font-family="geogebra-sans-serif, sans-serif" font-size="12px" font-style="normal" font-weight="normal" text-decoration="normal" x="95" y="79" text-anchor="start" dominant-baseline="alphabetic" fill-opacity="1">3</text><text fill="none" stroke="rgb(255,255,255)" font-family="geogebra-sans-serif, sans-serif" font-size="12px" font-style="normal" font-weight="normal" text-decoration="normal" x="95" y="79" text-anchor="start" dominant-baseline="alphabetic" stroke-opacity="1" stroke-linejoin="bevel" stroke-miterlimit="10" stroke-width="3">3</text><text fill="rgb(37,37,37)" stroke="none" font-family="geogebra-sans-serif, sans-serif" font-size="12px" font-style="normal" font-weight="normal" text-decoration="normal" x="95" y="79" text-anchor="start" dominant-baseline="alphabetic" fill-opacity="1">3</text><text fill="rgb(37,37,37)" stroke="none" font-family="geogebra-sans-serif, sans-serif" font-size="12px" font-style="normal" font-weight="normal" text-decoration="normal" x="95" y="287" text-anchor="start" dominant-baseline="alphabetic" fill-opacity="1">0</text><text fill="none" stroke="rgb(255,255,255)" font-family="geogebra-sans-serif, sans-serif" font-size="12px" font-style="normal" font-weight="normal" text-decoration="normal" x="95" y="287" text-anchor="start" dominant-baseline="alphabetic" stroke-opacity="1" stroke-linejoin="bevel" stroke-miterlimit="10" stroke-width="3">0</text><text fill="rgb(37,37,37)" stroke="none" font-family="geogebra-sans-serif, sans-serif" font-size="12px" font-style="normal" font-weight="normal" text-decoration="normal" x="95" y="287" text-anchor="start" dominant-baseline="alphabetic" fill-opacity="1">0</text><path fill="rgb(21,101,192)" stroke="none" paint-order="stroke fill markers" fill-rule="evenodd" d=" M 109.27140528934122 74.93353256976201 L 174.9411717620043 74.93353256976201 L 174.9411717620043 206.27306551508843 L 240.6109382346674 206.27306551508843 L 240.6109382346674 271.9428319877517 L 109.27140528934122 271.9428319877517 Z" fill-opacity="0.09803921568627451"/><path fill="rgb(211,47,47)" stroke="none" paint-order="stroke fill markers" fill-rule="evenodd" d=" M 213.99999999999994 74.99999999999989 L 280.66666666666663 74.99999999999989 L 208.66666666666663 206.27306551508843 L 293.3333333333333 206.33333333333326 L 240.6109382346674 271.9428319877517 L 109.27140528934122 271.9428319877517 Z" fill-opacity="0.09803921568627451"/><path fill="none" stroke="rgb(21,101,192)" paint-order="fill stroke markers" d=" M 109.27140528934122 74.93353256976201 L 174.9411717620043 74.93353256976201" stroke-opacity="0.6980392156862745" stroke-linecap="round" stroke-linejoin="round" stroke-miterlimit="10" stroke-width="2.5"/><path fill="none" stroke="rgb(21,101,192)" paint-order="fill stroke markers" d=" M 174.9411717620043 74.93353256976201 L 174.9411717620043 206.27306551508843" stroke-opacity="0.6980392156862745" stroke-linecap="round" stroke-linejoin="round" stroke-miterlimit="10" stroke-width="2.5"/><path fill="none" stroke="rgb(21,101,192)" paint-order="fill stroke markers" d=" M 174.9411717620043 206.27306551508843 L 240.6109382346674 206.27306551508843" stroke-opacity="0.6980392156862745" stroke-linecap="round" stroke-linejoin="round" stroke-miterlimit="10" stroke-width="2.5"/><path fill="none" stroke="rgb(21,101,192)" paint-order="fill stroke markers" d=" M 240.6109382346674 206.27306551508843 L 240.6109382346674 271.9428319877517" stroke-opacity="0.6980392156862745" stroke-linecap="round" stroke-linejoin="round" stroke-miterlimit="10" stroke-width="2.5"/><path fill="none" stroke="rgb(21,101,192)" paint-order="fill stroke markers" d=" M 240.6109382346674 271.9428319877517 L 109.27140528934122 271.9428319877517" stroke-opacity="0.6980392156862745" stroke-linecap="round" stroke-linejoin="round" stroke-miterlimit="10" stroke-width="2.5"/><path fill="none" stroke="rgb(21,101,192)" paint-order="fill stroke markers" d=" M 109.27140528934122 271.9428319877517 L 109.27140528934122 74.93353256976201" stroke-opacity="0.6980392156862745" stroke-linecap="round" stroke-linejoin="round" stroke-miterlimit="10" stroke-width="2.5"/><path fill="none" stroke="rgb(211,47,47)" paint-order="fill stroke markers" d=" M 213.99999999999994 74.99999999999989 L 280.66666666666663 74.99999999999989" stroke-opacity="0.6980392156862745" stroke-linecap="round" stroke-linejoin="round" stroke-miterlimit="10" stroke-width="2.5"/><path fill="none" stroke="rgb(211,47,47)" paint-order="fill stroke markers" d=" M 280.66666666666663 74.99999999999989 L 208.66666666666663 206.27306551508843" stroke-opacity="0.6980392156862745" stroke-linecap="round" stroke-linejoin="round" stroke-miterlimit="10" stroke-width="2.5"/><path fill="none" stroke="rgb(211,47,47)" paint-order="fill stroke markers" d=" M 208.66666666666663 206.27306551508843 L 293.3333333333333 206.33333333333326" stroke-opacity="0.6980392156862745" stroke-linecap="round" stroke-linejoin="round" stroke-miterlimit="10" stroke-width="2.5"/><path fill="none" stroke="rgb(211,47,47)" paint-order="fill stroke markers" d=" M 293.3333333333333 206.33333333333326 L 240.6109382346674 271.9428319877517" stroke-opacity="0.6980392156862745" stroke-linecap="round" stroke-linejoin="round" stroke-miterlimit="10" stroke-width="2.5"/><path fill="none" stroke="rgb(211,47,47)" paint-order="fill stroke markers" d=" M 240.6109382346674 271.9428319877517 L 109.27140528934122 271.9428319877517" stroke-opacity="0.6980392156862745" stroke-linecap="round" stroke-linejoin="round" stroke-miterlimit="10" stroke-width="2.5"/><path fill="none" stroke="rgb(211,47,47)" paint-order="fill stroke markers" d=" M 109.27140528934122 271.9428319877517 L 213.99999999999994 74.99999999999989" stroke-opacity="0.6980392156862745" stroke-linecap="round" stroke-linejoin="round" stroke-miterlimit="10" stroke-width="2.5"/><path fill="rgb(21,101,192)" stroke="none" paint-order="stroke fill markers" d=" M 110.27140528934122 74.93353256976201 C 110.27140528934122 75.4858173195928 109.823690039172 75.93353256976201 109.27140528934122 75.93353256976201 C 108.71912053951043 75.93353256976201 108.27140528934122 75.4858173195928 108.27140528934122 74.93353256976201 C 108.27140528934122 74.38124781993122 108.71912053951043 73.93353256976201 109.27140528934122 73.93353256976201 C 109.823690039172 73.93353256976201 110.27140528934122 74.38124781993122 110.27140528934122 74.93353256976201 Z" fill-opacity="1"/><path fill="rgb(21,101,192)" stroke="none" paint-order="stroke fill markers" d=" M 175.9411717620043 74.93353256976201 C 175.9411717620043 75.4858173195928 175.4934565118351 75.93353256976201 174.9411717620043 75.93353256976201 C 174.3888870121735 75.93353256976201 173.9411717620043 75.4858173195928 173.9411717620043 74.93353256976201 C 173.9411717620043 74.38124781993122 174.3888870121735 73.93353256976201 174.9411717620043 73.93353256976201 C 175.4934565118351 73.93353256976201 175.9411717620043 74.38124781993122 175.9411717620043 74.93353256976201 Z" fill-opacity="1"/><path fill="rgb(211,47,47)" stroke="none" paint-order="stroke fill markers" d=" M 175.9411717620043 206.27306551508843 C 175.9411717620043 206.82535026491922 175.4934565118351 207.27306551508843 174.9411717620043 207.27306551508843 C 174.3888870121735 207.27306551508843 173.9411717620043 206.82535026491922 173.9411717620043 206.27306551508843 C 173.9411717620043 205.72078076525764 174.3888870121735 205.27306551508843 174.9411717620043 205.27306551508843 C 175.4934565118351 205.27306551508843 175.9411717620043 205.72078076525764 175.9411717620043 206.27306551508843 Z" fill-opacity="1"/><path fill="rgb(21,101,192)" stroke="none" paint-order="stroke fill markers" d=" M 241.6109382346674 271.9428319877517 C 241.6109382346674 272.49511673758246 241.1632229844982 272.9428319877517 240.6109382346674 272.9428319877517 C 240.0586534848366 272.9428319877517 239.6109382346674 272.49511673758246 239.6109382346674 271.9428319877517 C 239.6109382346674 271.3905472379209 240.0586534848366 270.9428319877517 240.6109382346674 270.9428319877517 C 241.1632229844982 270.9428319877517 241.6109382346674 271.3905472379209 241.6109382346674 271.9428319877517 Z" fill-opacity="1"/><path fill="rgb(97,97,97)" stroke="none" paint-order="stroke fill markers" d=" M 110.27140528934122 271.9428319877517 C 110.27140528934122 272.49511673758246 109.823690039172 272.9428319877517 109.27140528934122 272.9428319877517 C 108.71912053951043 272.9428319877517 108.27140528934122 272.49511673758246 108.27140528934122 271.9428319877517 C 108.27140528934122 271.3905472379209 108.71912053951043 270.9428319877517 109.27140528934122 270.9428319877517 C 109.823690039172 270.9428319877517 110.27140528934122 271.3905472379209 110.27140528934122 271.9428319877517 Z" fill-opacity="1"/><path fill="rgb(21,101,192)" stroke="none" paint-order="stroke fill markers" d=" M 110.27140528934122 74.93353256976201 C 110.27140528934122 75.4858173195928 109.823690039172 75.93353256976201 109.27140528934122 75.93353256976201 C 108.71912053951043 75.93353256976201 108.27140528934122 75.4858173195928 108.27140528934122 74.93353256976201 C 108.27140528934122 74.38124781993122 108.71912053951043 73.93353256976201 109.27140528934122 73.93353256976201 C 109.823690039172 73.93353256976201 110.27140528934122 74.38124781993122 110.27140528934122 74.93353256976201 Z" fill-opacity="1"/><path fill="rgb(97,97,97)" stroke="none" paint-order="stroke fill markers" d=" M 110.27140528934122 271.9428319877517 C 110.27140528934122 272.49511673758246 109.823690039172 272.9428319877517 109.27140528934122 272.9428319877517 C 108.71912053951043 272.9428319877517 108.27140528934122 272.49511673758246 108.27140528934122 271.9428319877517 C 108.27140528934122 271.3905472379209 108.71912053951043 270.9428319877517 109.27140528934122 270.9428319877517 C 109.823690039172 270.9428319877517 110.27140528934122 271.3905472379209 110.27140528934122 271.9428319877517 Z" fill-opacity="1"/><path fill="rgb(211,47,47)" stroke="none" paint-order="stroke fill markers" d=" M 110.27140528934122 140.23870926338387 C 110.27140528934122 140.79099401321466 109.823690039172 141.23870926338387 109.27140528934122 141.23870926338387 C 108.71912053951043 141.23870926338387 108.27140528934122 140.79099401321466 108.27140528934122 140.23870926338387 C 108.27140528934122 139.68642451355308 108.71912053951043 139.23870926338387 109.27140528934122 139.23870926338387 C 109.823690039172 139.23870926338387 110.27140528934122 139.68642451355308 110.27140528934122 140.23870926338387 Z" fill-opacity="1"/><path fill="rgb(211,47,47)" stroke="none" paint-order="stroke fill markers" d=" M 175.9411717620043 140.60329904242522 C 175.9411717620043 141.155583792256 175.4934565118351 141.60329904242522 174.9411717620043 141.60329904242522 C 174.3888870121735 141.60329904242522 173.9411717620043 141.155583792256 173.9411717620043 140.60329904242522 C 173.9411717620043 140.05101429259443 174.3888870121735 139.60329904242522 174.9411717620043 139.60329904242522 C 175.4934565118351 139.60329904242522 175.9411717620043 140.05101429259443 175.9411717620043 140.60329904242522 Z" fill-opacity="1"/><path fill="rgb(97,97,97)" stroke="none" paint-order="stroke fill markers" d=" M 110.27140528934122 271.9428319877517 C 110.27140528934122 272.49511673758246 109.823690039172 272.9428319877517 109.27140528934122 272.9428319877517 C 108.71912053951043 272.9428319877517 108.27140528934122 272.49511673758246 108.27140528934122 271.9428319877517 C 108.27140528934122 271.3905472379209 108.71912053951043 270.9428319877517 109.27140528934122 270.9428319877517 C 109.823690039172 270.9428319877517 110.27140528934122 271.3905472379209 110.27140528934122 271.9428319877517 Z" fill-opacity="1"/><path fill="rgb(211,47,47)" stroke="none" paint-order="stroke fill markers" d=" M 110.27140528934122 337.6125984604149 C 110.27140528934122 338.1648832102457 109.823690039172 338.6125984604149 109.27140528934122 338.6125984604149 C 108.71912053951043 338.6125984604149 108.27140528934122 338.1648832102457 108.27140528934122 337.6125984604149 C 108.27140528934122 337.0603137105841 108.71912053951043 336.6125984604149 109.27140528934122 336.6125984604149 C 109.823690039172 336.6125984604149 110.27140528934122 337.0603137105841 110.27140528934122 337.6125984604149 Z" fill-opacity="1"/><path fill="rgb(97,97,97)" stroke="none" paint-order="stroke fill markers" d=" M 110.27140528934122 271.9428319877517 C 110.27140528934122 272.49511673758246 109.823690039172 272.9428319877517 109.27140528934122 272.9428319877517 C 108.71912053951043 272.9428319877517 108.27140528934122 272.49511673758246 108.27140528934122 271.9428319877517 C 108.27140528934122 271.3905472379209 108.71912053951043 270.9428319877517 109.27140528934122 270.9428319877517 C 109.823690039172 270.9428319877517 110.27140528934122 271.3905472379209 110.27140528934122 271.9428319877517 Z" fill-opacity="1"/><path fill="rgb(211,47,47)" stroke="none" paint-order="stroke fill markers" d=" M 110.27140528934122 337.6125984604149 C 110.27140528934122 338.1648832102457 109.823690039172 338.6125984604149 109.27140528934122 338.6125984604149 C 108.71912053951043 338.6125984604149 108.27140528934122 338.1648832102457 108.27140528934122 337.6125984604149 C 108.27140528934122 337.0603137105841 108.71912053951043 336.6125984604149 109.27140528934122 336.6125984604149 C 109.823690039172 336.6125984604149 110.27140528934122 337.0603137105841 110.27140528934122 337.6125984604149 Z" fill-opacity="1"/><path fill="rgb(211,47,47)" stroke="none" paint-order="stroke fill markers" d=" M 110.27140528934122 74.99999999999989 C 110.27140528934122 75.55228474983068 109.823690039172 75.99999999999989 109.27140528934122 75.99999999999989 C 108.71912053951043 75.99999999999989 108.27140528934122 75.55228474983068 108.27140528934122 74.99999999999989 C 108.27140528934122 74.4477152501691 108.71912053951043 73.99999999999989 109.27140528934122 73.99999999999989 C 109.823690039172 73.99999999999989 110.27140528934122 74.4477152501691 110.27140528934122 74.99999999999989 Z" fill-opacity="1"/><path fill="rgb(211,47,47)" stroke="none" paint-order="stroke fill markers" d=" M 175.9411717620043 206.27306551508843 C 175.9411717620043 206.82535026491922 175.4934565118351 207.27306551508843 174.9411717620043 207.27306551508843 C 174.3888870121735 207.27306551508843 173.9411717620043 206.82535026491922 173.9411717620043 206.27306551508843 C 173.9411717620043 205.72078076525764 174.3888870121735 205.27306551508843 174.9411717620043 205.27306551508843 C 175.4934565118351 205.27306551508843 175.9411717620043 205.72078076525764 175.9411717620043 206.27306551508843 Z" fill-opacity="1"/><path fill="rgb(211,47,47)" stroke="none" paint-order="stroke fill markers" d=" M 241.6109382346674 206.27306551508843 C 241.6109382346674 206.82535026491922 241.1632229844982 207.27306551508843 240.6109382346674 207.27306551508843 C 240.0586534848366 207.27306551508843 239.6109382346674 206.82535026491922 239.6109382346674 206.27306551508843 C 239.6109382346674 205.72078076525764 240.0586534848366 205.27306551508843 240.6109382346674 205.27306551508843 C 241.1632229844982 205.27306551508843 241.6109382346674 205.72078076525764 241.6109382346674 206.27306551508843 Z" fill-opacity="1"/><path fill="rgb(211,47,47)" stroke="none" paint-order="stroke fill markers" d=" M 241.6109382346674 271.9428319877517 C 241.6109382346674 272.49511673758246 241.1632229844982 272.9428319877517 240.6109382346674 272.9428319877517 C 240.0586534848366 272.9428319877517 239.6109382346674 272.49511673758246 239.6109382346674 271.9428319877517 C 239.6109382346674 271.3905472379209 240.0586534848366 270.9428319877517 240.6109382346674 270.9428319877517 C 241.1632229844982 270.9428319877517 241.6109382346674 271.3905472379209 241.6109382346674 271.9428319877517 Z" fill-opacity="1"/><path fill="rgb(211,47,47)" stroke="none" paint-order="stroke fill markers" d=" M 214.99999999999994 74.99999999999989 C 214.99999999999994 75.55228474983068 214.55228474983073 75.99999999999989 213.99999999999994 75.99999999999989 C 213.44771525016915 75.99999999999989 212.99999999999994 75.55228474983068 212.99999999999994 74.99999999999989 C 212.99999999999994 74.4477152501691 213.44771525016915 73.99999999999989 213.99999999999994 73.99999999999989 C 214.55228474983073 73.99999999999989 214.99999999999994 74.4477152501691 214.99999999999994 74.99999999999989 Z" fill-opacity="1"/><path fill="rgb(211,47,47)" stroke="none" paint-order="stroke fill markers" d=" M 281.66666666666663 74.99999999999989 C 281.66666666666663 75.55228474983068 281.2189514164974 75.99999999999989 280.66666666666663 75.99999999999989 C 280.11438191683584 75.99999999999989 279.66666666666663 75.55228474983068 279.66666666666663 74.99999999999989 C 279.66666666666663 74.4477152501691 280.11438191683584 73.99999999999989 280.66666666666663 73.99999999999989 C 281.2189514164974 73.99999999999989 281.66666666666663 74.4477152501691 281.66666666666663 74.99999999999989 Z" fill-opacity="1"/><path fill="rgb(21,101,192)" stroke="none" paint-order="stroke fill markers" d=" M 209.66666666666663 206.27306551508843 C 209.66666666666663 206.82535026491922 209.21895141649742 207.27306551508843 208.66666666666663 207.27306551508843 C 208.11438191683584 207.27306551508843 207.66666666666663 206.82535026491922 207.66666666666663 206.27306551508843 C 207.66666666666663 205.72078076525764 208.11438191683584 205.27306551508843 208.66666666666663 205.27306551508843 C 209.21895141649742 205.27306551508843 209.66666666666663 205.72078076525764 209.66666666666663 206.27306551508843 Z" fill-opacity="1"/><path fill="none" stroke="rgb(0,0,0)" paint-order="fill stroke markers" d=" M 209.66666666666663 206.27306551508843 C 209.66666666666663 206.82535026491922 209.21895141649742 207.27306551508843 208.66666666666663 207.27306551508843 C 208.11438191683584 207.27306551508843 207.66666666666663 206.82535026491922 207.66666666666663 206.27306551508843 C 207.66666666666663 205.72078076525764 208.11438191683584 205.27306551508843 208.66666666666663 205.27306551508843 C 209.21895141649742 205.27306551508843 209.66666666666663 205.72078076525764 209.66666666666663 206.27306551508843 Z" stroke-opacity="1" stroke-linecap="round" stroke-linejoin="round" stroke-miterlimit="10"/><path fill="rgb(211,47,47)" stroke="none" paint-order="stroke fill markers" d=" M 294.3333333333333 206.33333333333326 C 294.3333333333333 206.88561808316405 293.8856180831641 207.33333333333326 293.3333333333333 207.33333333333326 C 292.7810485835025 207.33333333333326 292.3333333333333 206.88561808316405 292.3333333333333 206.33333333333326 C 292.3333333333333 205.78104858350247 292.7810485835025 205.33333333333326 293.3333333333333 205.33333333333326 C 293.8856180831641 205.33333333333326 294.3333333333333 205.78104858350247 294.3333333333333 206.33333333333326 Z" fill-opacity="1"/></g></g></svg>