<svg version="1.1" xmlns="http://www.w3.org/2000/svg" xmlns:xlink="http://www.w3.org/1999/xlink" width="326" height="348"><defs><clipPath id="sRIzJOinScLk"><path fill="none" stroke="none" d=" M 0 0 L 326 0 L 326 348 L 0 348 L 0 0 Z"/></clipPath></defs><g transform="scale(1,1)" clip-path="url(#sRIzJOinScLk)"><g><rect fill="rgb(255,255,255)" stroke="none" x="0" y="0" width="326" height="349" fill-opacity="1"/><path fill="none" stroke="rgb(192,192,192)" paint-order="fill stroke markers" d=" M 107.5 0.5 L 107.5 348.5 M 182.5 0.5 L 182.5 348.5 M 257.5 0.5 L 257.5 348.5" stroke-opacity="1" stroke-linecap="round" stroke-linejoin="round" stroke-miterlimit="10"/><path fill="none" stroke="rgb(192,192,192)" paint-order="fill stroke markers" d=" M 2.5 0.5 L 2.5 348.5 M 17.5 0.5 L 17.5 348.5 M 47.5 0.5 L 47.5 348.5 M 62.5 0.5 L 62.5 348.5 M 77.5 0.5 L 77.5 348.5 M 92.5 0.5 L 92.5 348.5 M 122.5 0.5 L 122.5 348.5 M 137.5 0.5 L 137.5 348.5 M 152.5 0.5 L 152.5 348.5 M 167.5 0.5 L 167.5 348.5 M 197.5 0.5 L 197.5 348.5 M 212.5 0.5 L 212.5 348.5 M 227.5 0.5 L 227.5 348.5 M 242.5 0.5 L 242.5 348.5 M 272.5 0.5 L 272.5 348.5 M 287.5 0.5 L 287.5 348.5 M 302.5 0.5 L 302.5 348.5 M 317.5 0.5 L 317.5 348.5" stroke-opacity="0.23529411764705882" stroke-linecap="round" stroke-linejoin="round" stroke-miterlimit="10"/><path fill="none" stroke="rgb(192,192,192)" paint-order="fill stroke markers" d=" M 0.5 46.5 L 326.5 46.5 M 0.5 46.5 L 326.5 46.5 M 0.5 121.5 L 326.5 121.5 M 0.5 196.5 L 326.5 196.5 M 0.5 346.5 L 326.5 346.5" stroke-opacity="1" stroke-linecap="round" stroke-linejoin="round" stroke-miterlimit="10"/><path fill="none" stroke="rgb(192,192,192)" paint-order="fill stroke markers" d=" M 0.5 1.5 L 326.5 1.5 M 0.5 1.5 L 326.5 1.5 M 0.5 16.5 L 326.5 16.5 M 0.5 31.5 L 326.5 31.5 M 0.5 61.5 L 326.5 61.5 M 0.5 76.5 L 326.5 76.5 M 0.5 91.5 L 326.5 91.5 M 0.5 106.5 L 326.5 106.5 M 0.5 136.5 L 326.5 136.5 M 0.5 151.5 L 326.5 151.5 M 0.5 166.5 L 326.5 166.5 M 0.5 181.5 L 326.5 181.5 M 0.5 211.5 L 326.5 211.5 M 0.5 226.5 L 326.5 226.5 M 0.5 241.5 L 326.5 241.5 M 0.5 256.5 L 326.5 256.5 M 0.5 286.5 L 326.5 286.5 M 0.5 301.5 L 326.5 301.5 M 0.5 316.5 L 326.5 316.5 M 0.5 331.5 L 326.5 331.5" stroke-opacity="0.23529411764705882" stroke-linecap="round" stroke-linejoin="round" stroke-miterlimit="10"/><path fill="none" stroke="rgb(37,37,37)" paint-order="fill stroke markers" d=" M 32.5 2.5 L 32.5 348.5" stroke-opacity="1" stroke-miterlimit="10"/><path fill="none" stroke="rgb(37,37,37)" paint-order="fill stroke markers" d=" M 32.5 1.5 L 28.5 5.5" stroke-opacity="1" stroke-miterlimit="10"/><path fill="none" stroke="rgb(37,37,37)" paint-order="fill stroke markers" d=" M 32.5 1.5 L 36.5 5.5" stroke-opacity="1" stroke-miterlimit="10"/><path fill="none" stroke="rgb(37,37,37)" paint-order="fill stroke markers" d=" M 0.5 271.5 L 324.5 271.5" stroke-opacity="1" stroke-miterlimit="10"/><path fill="none" stroke="rgb(37,37,37)" paint-order="fill stroke markers" d=" M 325.5 271.5 L 321.5 267.5" stroke-opacity="1" stroke-miterlimit="10"/><path fill="none" stroke="rgb(37,37,37)" paint-order="fill stroke markers" d=" M 325.5 271.5 L 321.5 275.5" stroke-opacity="1" stroke-miterlimit="10"/><text fill="rgb(37,37,37)" stroke="none" font-family="geogebra-sans-serif, sans-serif" font-size="12px" font-style="normal" font-weight="normal" text-decoration="normal" x="105" y="287" text-anchor="start" dominant-baseline="alphabetic" fill-opacity="1">1</text><text fill="none" stroke="rgb(255,255,255)" font-family="geogebra-sans-serif, sans-serif" font-size="12px" font-style="normal" font-weight="normal" text-decoration="normal" x="105" y="287" text-anchor="start" dominant-baseline="alphabetic" stroke-opacity="1" stroke-linejoin="bevel" stroke-miterlimit="10" stroke-width="3">1</text><text fill="rgb(37,37,37)" stroke="none" font-family="geogebra-sans-serif, sans-serif" font-size="12px" font-style="normal" font-weight="normal" text-decoration="normal" x="105" y="287" text-anchor="start" dominant-baseline="alphabetic" fill-opacity="1">1</text><text fill="rgb(37,37,37)" stroke="none" font-family="geogebra-sans-serif, sans-serif" font-size="12px" font-style="normal" font-weight="normal" text-decoration="normal" x="180" y="287" text-anchor="start" dominant-baseline="alphabetic" fill-opacity="1">2</text><text fill="none" stroke="rgb(255,255,255)" font-family="geogebra-sans-serif, sans-serif" font-size="12px" font-style="normal" font-weight="normal" text-decoration="normal" x="180" y="287" text-anchor="start" dominant-baseline="alphabetic" stroke-opacity="1" stroke-linejoin="bevel" stroke-miterlimit="10" stroke-width="3">2</text><text fill="rgb(37,37,37)" stroke="none" font-family="geogebra-sans-serif, sans-serif" font-size="12px" font-style="normal" font-weight="normal" text-decoration="normal" x="180" y="287" text-anchor="start" dominant-baseline="alphabetic" fill-opacity="1">2</text><text fill="rgb(37,37,37)" stroke="none" font-family="geogebra-sans-serif, sans-serif" font-size="12px" font-style="normal" font-weight="normal" text-decoration="normal" x="255" y="287" text-anchor="start" dominant-baseline="alphabetic" fill-opacity="1">3</text><text fill="none" stroke="rgb(255,255,255)" font-family="geogebra-sans-serif, sans-serif" font-size="12px" font-style="normal" font-weight="normal" text-decoration="normal" x="255" y="287" text-anchor="start" dominant-baseline="alphabetic" stroke-opacity="1" stroke-linejoin="bevel" stroke-miterlimit="10" stroke-width="3">3</text><text fill="rgb(37,37,37)" stroke="none" font-family="geogebra-sans-serif, sans-serif" font-size="12px" font-style="normal" font-weight="normal" text-decoration="normal" x="255" y="287" text-anchor="start" dominant-baseline="alphabetic" fill-opacity="1">3</text><text fill="rgb(37,37,37)" stroke="none" font-family="geogebra-sans-serif, sans-serif" font-size="12px" font-style="normal" font-weight="normal" text-decoration="normal" x="18" y="201" text-anchor="start" dominant-baseline="alphabetic" fill-opacity="1">1</text><text fill="none" stroke="rgb(255,255,255)" font-family="geogebra-sans-serif, sans-serif" font-size="12px" font-style="normal" font-weight="normal" text-decoration="normal" x="18" y="201" text-anchor="start" dominant-baseline="alphabetic" stroke-opacity="1" stroke-linejoin="bevel" stroke-miterlimit="10" stroke-width="3">1</text><text fill="rgb(37,37,37)" stroke="none" font-family="geogebra-sans-serif, sans-serif" font-size="12px" font-style="normal" font-weight="normal" text-decoration="normal" x="18" y="201" text-anchor="start" dominant-baseline="alphabetic" fill-opacity="1">1</text><text fill="rgb(37,37,37)" stroke="none" font-family="geogebra-sans-serif, sans-serif" font-size="12px" font-style="normal" font-weight="normal" text-decoration="normal" x="18" y="126" text-anchor="start" dominant-baseline="alphabetic" fill-opacity="1">2</text><text fill="none" stroke="rgb(255,255,255)" font-family="geogebra-sans-serif, sans-serif" font-size="12px" font-style="normal" font-weight="normal" text-decoration="normal" x="18" y="126" text-anchor="start" dominant-baseline="alphabetic" stroke-opacity="1" stroke-linejoin="bevel" stroke-miterlimit="10" stroke-width="3">2</text><text fill="rgb(37,37,37)" stroke="none" font-family="geogebra-sans-serif, sans-serif" font-size="12px" font-style="normal" font-weight="normal" text-decoration="normal" x="18" y="126" text-anchor="start" dominant-baseline="alphabetic" fill-opacity="1">2</text><text fill="rgb(37,37,37)" stroke="none" font-family="geogebra-sans-serif, sans-serif" font-size="12px" font-style="normal" font-weight="normal" text-decoration="normal" x="18" y="51" text-anchor="start" dominant-baseline="alphabetic" fill-opacity="1">3</text><text fill="none" stroke="rgb(255,255,255)" font-family="geogebra-sans-serif, sans-serif" font-size="12px" font-style="normal" font-weight="normal" text-decoration="normal" x="18" y="51" text-anchor="start" dominant-baseline="alphabetic" stroke-opacity="1" stroke-linejoin="bevel" stroke-miterlimit="10" stroke-width="3">3</text><text fill="rgb(37,37,37)" stroke="none" font-family="geogebra-sans-serif, sans-serif" font-size="12px" font-style="normal" font-weight="normal" text-decoration="normal" x="18" y="51" text-anchor="start" dominant-baseline="alphabetic" fill-opacity="1">3</text><text fill="rgb(37,37,37)" stroke="none" font-family="geogebra-sans-serif, sans-serif" font-size="12px" font-style="normal" font-weight="normal" text-decoration="normal" x="18" y="287" text-anchor="start" dominant-baseline="alphabetic" fill-opacity="1">0</text><text fill="none" stroke="rgb(255,255,255)" font-family="geogebra-sans-serif, sans-serif" font-size="12px" font-style="normal" font-weight="normal" text-decoration="normal" x="18" y="287" text-anchor="start" dominant-baseline="alphabetic" stroke-opacity="1" stroke-linejoin="bevel" stroke-miterlimit="10" stroke-width="3">0</text><text fill="rgb(37,37,37)" stroke="none" font-family="geogebra-sans-serif, sans-serif" font-size="12px" font-style="normal" font-weight="normal" text-decoration="normal" x="18" y="287" text-anchor="start" dominant-baseline="alphabetic" fill-opacity="1">0</text><path fill="none" stroke="rgb(255,204,102)" paint-order="fill stroke markers" d=" M -5 290.4999999999996 L 331 122.49999999999963" stroke-opacity="0.6980392156862745" stroke-linecap="round" stroke-linejoin="round" stroke-miterlimit="10" stroke-width="2.5"/><path fill="rgb(211,47,47)" stroke="none" paint-order="stroke fill markers" d=" M 182.9999999999996 196.4999999999998 L 165.89407997212632 200.30131556174942 L 167.2357207586262 202.98459713474918 L 167.23572075862617 202.98459713474918 L 32.44098300562484 270.3819660112498 C 31.823509883845766 270.69070257213934 31.57322945036034 271.44154387259556 31.881966011249872 272.05901699437464 C 32.100972951533414 272.49703087494174 32.54244648393335 272.75027382069646 33.000970575622816 272.75027382069646 C 33.18883308232115 272.75027382069646 33.379557753162764 272.7077636093556 33.55901699437474 272.61803398874963 L 168.3537547473761 205.22066511224895 L 168.35375474737606 205.22066511224895 L 169.69539553387594 207.9039466852487 L 182.9999999999997 196.4999999999998 Z" fill-opacity="0.6980392156862745"/><text fill="rgb(211,47,47)" stroke="none" font-family="geogebra-sans-serif, sans-serif" font-size="16px" font-style="normal" font-weight="normal" text-decoration="normal" x="123" y="229" text-anchor="start" dominant-baseline="alphabetic" fill-opacity="1">v</text><text fill="none" stroke="rgb(255,255,255)" font-family="geogebra-sans-serif, sans-serif" font-size="16px" font-style="normal" font-weight="normal" text-decoration="normal" x="123" y="229" text-anchor="start" dominant-baseline="alphabetic" stroke-opacity="1" stroke-linejoin="bevel" stroke-miterlimit="10" stroke-width="3">v</text><text fill="rgb(211,47,47)" stroke="none" font-family="geogebra-sans-serif, sans-serif" font-size="16px" font-style="normal" font-weight="normal" text-decoration="normal" x="123" y="229" text-anchor="start" dominant-baseline="alphabetic" fill-opacity="1">v</text><path fill="rgb(97,97,97)" stroke="none" paint-order="stroke fill markers" d=" M 33.99999999999979 271.4999999999997 C 33.99999999999979 272.0522847498305 33.55228474983058 272.4999999999997 32.99999999999979 272.4999999999997 C 32.44771525016899 272.4999999999997 31.999999999999787 272.0522847498305 31.999999999999787 271.4999999999997 C 31.999999999999787 270.9477152501689 32.44771525016899 270.4999999999997 32.99999999999979 270.4999999999997 C 33.55228474983058 270.4999999999997 33.99999999999979 270.9477152501689 33.99999999999979 271.4999999999997 Z" fill-opacity="1"/><path fill="rgb(21,101,192)" stroke="none" paint-order="stroke fill markers" d=" M 183.99999999999972 196.49999999999977 C 183.99999999999972 197.05228474983056 183.5522847498305 197.49999999999977 182.99999999999972 197.49999999999977 C 182.44771525016893 197.49999999999977 181.99999999999972 197.05228474983056 181.99999999999972 196.49999999999977 C 181.99999999999972 195.94771525016898 182.44771525016893 195.49999999999977 182.99999999999972 195.49999999999977 C 183.5522847498305 195.49999999999977 183.99999999999972 195.94771525016898 183.99999999999972 196.49999999999977 Z" fill-opacity="1"/><path fill="rgb(21,101,192)" stroke="none" paint-order="stroke fill markers" d=" M 258.99999999999966 346.49999999999966 C 258.99999999999966 347.05228474983045 258.55228474983045 347.49999999999966 257.99999999999966 347.49999999999966 C 257.44771525016887 347.49999999999966 256.99999999999966 347.05228474983045 256.99999999999966 346.49999999999966 C 256.99999999999966 345.94771525016887 257.44771525016887 345.49999999999966 257.99999999999966 345.49999999999966 C 258.55228474983045 345.49999999999966 258.99999999999966 345.94771525016887 258.99999999999966 346.49999999999966 Z" fill-opacity="1"/><path fill="rgb(21,101,192)" stroke="none" paint-order="stroke fill markers" d=" M 258.99999999999966 46.499999999999886 C 258.99999999999966 47.052284749830676 258.55228474983045 47.499999999999886 257.99999999999966 47.499999999999886 C 257.44771525016887 47.499999999999886 256.99999999999966 47.052284749830676 256.99999999999966 46.499999999999886 C 256.99999999999966 45.94771525016909 257.44771525016887 45.499999999999886 257.99999999999966 45.499999999999886 C 258.55228474983045 45.499999999999886 258.99999999999966 45.94771525016909 258.99999999999966 46.499999999999886 Z" fill-opacity="1"/><g transform="scale(19,19)"><g transform="translate(9.631578947368421,8.577736842105264)"><path fill="rgb(255,204,102)" stroke="none" paint-order="stroke fill markers" d=" M 0.34900000000000003 -0.388 L 0.34900000000000003 -0.388 Q 0.428 -0.369 0.47100000000000003 -0.294 Q 0.499 -0.244 0.499 -0.186 Q 0.499 -0.091 0.433 -0.029 Q 0.378 0.022 0.302 0.022 Q 0.194 0.022 0.128 -0.038 L 0.128 -0.038 L 0.11800000000000001 -0.048 Q 0.082 0.01 0.082 0.009000000000000001 Q 0.074 0.022 0.067 0.022 Q 0.057 0.013000000000000001 0.056 -0.002 L 0.056 -0.202 Q 0.056 -0.224 0.063 -0.226 L 0.063 -0.226 L 0.064 -0.227 L 0.069 -0.227 Q 0.08 -0.227 0.081 -0.217 Q 0.084 -0.121 0.139 -0.067 L 0.14300000000000002 -0.063 Q 0.201 -0.009000000000000001 0.301 -0.009000000000000001 Q 0.376 -0.009000000000000001 0.41400000000000003 -0.075 Q 0.435 -0.111 0.435 -0.152 Q 0.435 -0.20600000000000002 0.404 -0.244 Q 0.377 -0.28 0.326 -0.293 L 0.325 -0.294 Q 0.325 -0.293 0.319 -0.295 Q 0.195 -0.325 0.187 -0.328 Q 0.108 -0.355 0.073 -0.431 Q 0.056 -0.46900000000000003 0.056 -0.511 Q 0.056 -0.602 0.125 -0.66 Q 0.179 -0.705 0.251 -0.705 Q 0.336 -0.705 0.398 -0.648 L 0.41100000000000003 -0.635 L 0.446 -0.6920000000000001 Q 0.453 -0.705 0.461 -0.705 Q 0.47100000000000003 -0.6960000000000001 0.47200000000000003 -0.681 L 0.47200000000000003 -0.48 Q 0.47200000000000003 -0.459 0.466 -0.457 L 0.465 -0.457 L 0.464 -0.456 L 0.459 -0.456 Q 0.449 -0.456 0.447 -0.468 Q 0.419 -0.675 0.252 -0.677 Q 0.18 -0.677 0.14200000000000002 -0.619 L 0.14100000000000001 -0.618 Q 0.12 -0.585 0.12 -0.546 Q 0.12 -0.48 0.17300000000000001 -0.441 Q 0.194 -0.425 0.221 -0.419 L 0.34900000000000003 -0.388 Z"/></g><g transform="translate(10.187578947368422,8.577736842105264)"><path fill="rgb(255,204,102)" stroke="none" paint-order="stroke fill markers" d=" M 0.17500000000000002 -0.337 L 0.17500000000000002 -0.114 Q 0.17500000000000002 -0.094 0.183 -0.081 L 0.189 -0.07200000000000001 Q 0.229 -0.011 0.294 -0.011 Q 0.357 -0.011 0.4 -0.077 Q 0.438 -0.135 0.438 -0.216 Q 0.438 -0.319 0.382 -0.379 Q 0.34700000000000003 -0.417 0.304 -0.417 Q 0.232 -0.417 0.186 -0.354 Q 0.18 -0.34600000000000003 0.17500000000000002 -0.337 M 0.17500000000000002 -0.059000000000000004 L 0.17500000000000002 -0.059000000000000004 L 0.17500000000000002 -0.05 L 0.17500000000000002 0.11800000000000001 Q 0.17500000000000002 0.152 0.191 0.158 Q 0.202 0.163 0.253 0.163 L 0.253 0.194 Q 0.148 0.191 0.14 0.191 Q 0.13 0.191 0.028 0.194 L 0.028 0.163 Q 0.08700000000000001 0.163 0.097 0.154 L 0.099 0.152 L 0.099 0.152 Q 0.106 0.14300000000000002 0.106 0.11800000000000001 L 0.106 -0.35000000000000003 Q 0.106 -0.385 0.092 -0.393 Q 0.079 -0.4 0.028 -0.4 L 0.028 -0.431 L 0.17200000000000001 -0.442 L 0.17200000000000001 -0.376 Q 0.232 -0.442 0.312 -0.442 Q 0.403 -0.442 0.465 -0.369 Q 0.521 -0.304 0.521 -0.216 Q 0.521 -0.112 0.444 -0.044 Q 0.38 0.011 0.298 0.011 Q 0.228 0.011 0.186 -0.04 Q 0.177 -0.051000000000000004 0.17500000000000002 -0.059000000000000004 Z"/></g><g transform="translate(10.743578947368423,8.577736842105264)"><path fill="rgb(255,204,102)" stroke="none" paint-order="stroke fill markers" d=" M 0.333 -0.076 Q 0.308 -0.014 0.245 0.005 Q 0.225 0.011 0.202 0.011 Q 0.117 0.011 0.07100000000000001 -0.03 Q 0.042 -0.056 0.042 -0.095 Q 0.042 -0.17200000000000001 0.127 -0.218 Q 0.134 -0.222 0.14200000000000002 -0.225 Q 0.203 -0.254 0.321 -0.261 L 0.326 -0.261 L 0.326 -0.298 Q 0.326 -0.383 0.265 -0.41500000000000004 Q 0.244 -0.426 0.22 -0.426 Q 0.154 -0.426 0.11800000000000001 -0.387 Q 0.115 -0.383 0.112 -0.38 Q 0.159 -0.374 0.163 -0.334 Q 0.163 -0.3 0.132 -0.29 Q 0.125 -0.28800000000000003 0.117 -0.28800000000000003 Q 0.081 -0.28800000000000003 0.073 -0.321 Q 0.07100000000000001 -0.326 0.07100000000000001 -0.335 Q 0.07100000000000001 -0.395 0.134 -0.427 Q 0.17300000000000001 -0.448 0.222 -0.448 Q 0.304 -0.448 0.359 -0.393 Q 0.394 -0.357 0.395 -0.293 L 0.395 -0.292 L 0.395 -0.275 L 0.395 -0.075 Q 0.395 -0.046 0.41300000000000003 -0.032 Q 0.421 -0.025 0.432 -0.025 Q 0.467 -0.025 0.468 -0.089 L 0.468 -0.145 L 0.493 -0.145 L 0.493 -0.089 Q 0.493 -0.016 0.433 0.002 Q 0.421 0.006 0.41100000000000003 0.006 Q 0.362 0.006 0.341 -0.046 Q 0.335 -0.06 0.333 -0.076 M 0.326 -0.24 Q 0.17200000000000001 -0.234 0.13 -0.146 Q 0.11900000000000001 -0.122 0.11900000000000001 -0.096 Q 0.11900000000000001 -0.045 0.165 -0.021 Q 0.185 -0.011 0.209 -0.011 Q 0.261 -0.011 0.296 -0.052000000000000005 Q 0.326 -0.08600000000000001 0.326 -0.14 L 0.326 -0.24 Z"/></g><g transform="translate(11.243578947368423,8.577736842105264)"><path fill="rgb(255,204,102)" stroke="none" paint-order="stroke fill markers" d=" M 0.11 -0.34400000000000003 Q 0.11 -0.383 0.095 -0.392 Q 0.083 -0.399 0.052000000000000005 -0.4 L 0.032 -0.4 L 0.032 -0.431 L 0.17300000000000001 -0.442 L 0.17300000000000001 -0.337 Q 0.22 -0.442 0.321 -0.442 Q 0.396 -0.442 0.426 -0.405 Q 0.453 -0.374 0.456 -0.32 Q 0.457 -0.301 0.457 -0.252 L 0.457 -0.061 Q 0.458 -0.037 0.486 -0.033 Q 0.498 -0.031 0.535 -0.031 L 0.535 0 Q 0.433 -0.003 0.423 -0.003 Q 0.41500000000000004 -0.003 0.31 0 L 0.31 -0.031 Q 0.369 -0.031 0.379 -0.04 L 0.381 -0.042 Q 0.388 -0.05 0.388 -0.076 L 0.388 -0.309 Q 0.388 -0.40800000000000003 0.331 -0.418 Q 0.323 -0.42 0.314 -0.42 Q 0.253 -0.42 0.212 -0.367 Q 0.179 -0.324 0.179 -0.26 L 0.179 -0.076 Q 0.179 -0.042 0.195 -0.036000000000000004 Q 0.20600000000000002 -0.031 0.257 -0.031 L 0.257 0 Q 0.155 -0.003 0.145 -0.003 Q 0.137 -0.003 0.032 0 L 0.032 -0.031 Q 0.091 -0.031 0.101 -0.04 L 0.10300000000000001 -0.042 Q 0.11 -0.05 0.11 -0.076 L 0.11 -0.34400000000000003 Z"/></g><g transform="translate(11.79957894736842,8.577736842105264)"><path fill="rgb(255,204,102)" stroke="none" paint-order="stroke fill markers" d=" M 0.506 -0.376 L 0.34 -0.02 Q 0.329 0.004 0.303 0.004 Q 0.277 0.004 0.265 -0.021 L 0.09 -0.397 L 0.026000000000000002 -0.397 L 0.026000000000000002 -0.444 Q 0.036000000000000004 -0.444 0.08 -0.4425 Q 0.124 -0.441 0.14 -0.441 Q 0.214 -0.441 0.264 -0.444 L 0.264 -0.397 L 0.21 -0.397 L 0.337 -0.124 L 0.453 -0.374 Q 0.458 -0.384 0.458 -0.386 Q 0.458 -0.397 0.41000000000000003 -0.397 L 0.41000000000000003 -0.444 Q 0.47300000000000003 -0.441 0.501 -0.441 Q 0.542 -0.441 0.58 -0.444 L 0.58 -0.397 Q 0.536 -0.397 0.5235 -0.3925 Q 0.511 -0.388 0.506 -0.376 Z"/></g></g></g></g></svg>