<svg version="1.1" xmlns="http://www.w3.org/2000/svg" xmlns:xlink="http://www.w3.org/1999/xlink" width="350" height="342"><defs><clipPath id="mgyNMHrXpTXp"><path fill="none" stroke="none" d=" M 0 0 L 350 0 L 350 342 L 0 342 L 0 0 Z"/></clipPath></defs><g transform="scale(1,1)" clip-path="url(#mgyNMHrXpTXp)"><g><rect fill="rgb(255,255,255)" stroke="none" x="0" y="0" width="351" height="343" fill-opacity="1"/><path fill="none" stroke="rgb(192,192,192)" paint-order="fill stroke markers" d=" M 38.5 0.5 L 38.5 342.5 M 38.5 0.5 L 38.5 342.5 M 187.5 0.5 L 187.5 342.5 M 262.5 0.5 L 262.5 342.5 M 337.5 0.5 L 337.5 342.5" stroke-opacity="1" stroke-linecap="round" stroke-linejoin="round" stroke-miterlimit="10"/><path fill="none" stroke="rgb(192,192,192)" paint-order="fill stroke markers" d=" M 8.5 0.5 L 8.5 342.5 M 23.5 0.5 L 23.5 342.5 M 53.5 0.5 L 53.5 342.5 M 68.5 0.5 L 68.5 342.5 M 83.5 0.5 L 83.5 342.5 M 97.5 0.5 L 97.5 342.5 M 127.5 0.5 L 127.5 342.5 M 142.5 0.5 L 142.5 342.5 M 157.5 0.5 L 157.5 342.5 M 172.5 0.5 L 172.5 342.5 M 202.5 0.5 L 202.5 342.5 M 217.5 0.5 L 217.5 342.5 M 232.5 0.5 L 232.5 342.5 M 247.5 0.5 L 247.5 342.5 M 277.5 0.5 L 277.5 342.5 M 292.5 0.5 L 292.5 342.5 M 307.5 0.5 L 307.5 342.5 M 322.5 0.5 L 322.5 342.5" stroke-opacity="0.23529411764705882" stroke-linecap="round" stroke-linejoin="round" stroke-miterlimit="10"/><path fill="none" stroke="rgb(192,192,192)" paint-order="fill stroke markers" d=" M 0.5 20.5 L 350.5 20.5 M 0.5 20.5 L 350.5 20.5 M 0.5 95.5 L 350.5 95.5 M 0.5 170.5 L 350.5 170.5 M 0.5 320.5 L 350.5 320.5" stroke-opacity="1" stroke-linecap="round" stroke-linejoin="round" stroke-miterlimit="10"/><path fill="none" stroke="rgb(192,192,192)" paint-order="fill stroke markers" d=" M 0.5 5.5 L 350.5 5.5 M 0.5 5.5 L 350.5 5.5 M 0.5 35.5 L 350.5 35.5 M 0.5 50.5 L 350.5 50.5 M 0.5 65.5 L 350.5 65.5 M 0.5 80.5 L 350.5 80.5 M 0.5 110.5 L 350.5 110.5 M 0.5 125.5 L 350.5 125.5 M 0.5 140.5 L 350.5 140.5 M 0.5 155.5 L 350.5 155.5 M 0.5 185.5 L 350.5 185.5 M 0.5 200.5 L 350.5 200.5 M 0.5 215.5 L 350.5 215.5 M 0.5 230.5 L 350.5 230.5 M 0.5 260.5 L 350.5 260.5 M 0.5 275.5 L 350.5 275.5 M 0.5 290.5 L 350.5 290.5 M 0.5 305.5 L 350.5 305.5 M 0.5 335.5 L 350.5 335.5" stroke-opacity="0.23529411764705882" stroke-linecap="round" stroke-linejoin="round" stroke-miterlimit="10"/><path fill="none" stroke="rgb(37,37,37)" paint-order="fill stroke markers" d=" M 112.5 2.5 L 112.5 342.5" stroke-opacity="1" stroke-miterlimit="10"/><path fill="none" stroke="rgb(37,37,37)" paint-order="fill stroke markers" d=" M 112.5 1.5 L 108.5 5.5" stroke-opacity="1" stroke-miterlimit="10"/><path fill="none" stroke="rgb(37,37,37)" paint-order="fill stroke markers" d=" M 112.5 1.5 L 116.5 5.5" stroke-opacity="1" stroke-miterlimit="10"/><path fill="none" stroke="rgb(37,37,37)" paint-order="fill stroke markers" d=" M 0.5 245.5 L 348.5 245.5" stroke-opacity="1" stroke-miterlimit="10"/><path fill="none" stroke="rgb(37,37,37)" paint-order="fill stroke markers" d=" M 349.5 245.5 L 345.5 241.5" stroke-opacity="1" stroke-miterlimit="10"/><path fill="none" stroke="rgb(37,37,37)" paint-order="fill stroke markers" d=" M 349.5 245.5 L 345.5 249.5" stroke-opacity="1" stroke-miterlimit="10"/><text fill="rgb(37,37,37)" stroke="none" font-family="geogebra-sans-serif, sans-serif" font-size="12px" font-style="normal" font-weight="normal" text-decoration="normal" x="33" y="261" text-anchor="start" dominant-baseline="alphabetic" fill-opacity="1">–1</text><text fill="none" stroke="rgb(255,255,255)" font-family="geogebra-sans-serif, sans-serif" font-size="12px" font-style="normal" font-weight="normal" text-decoration="normal" x="33" y="261" text-anchor="start" dominant-baseline="alphabetic" stroke-opacity="1" stroke-linejoin="bevel" stroke-miterlimit="10" stroke-width="3">–1</text><text fill="rgb(37,37,37)" stroke="none" font-family="geogebra-sans-serif, sans-serif" font-size="12px" font-style="normal" font-weight="normal" text-decoration="normal" x="33" y="261" text-anchor="start" dominant-baseline="alphabetic" fill-opacity="1">–1</text><text fill="rgb(37,37,37)" stroke="none" font-family="geogebra-sans-serif, sans-serif" font-size="12px" font-style="normal" font-weight="normal" text-decoration="normal" x="185" y="261" text-anchor="start" dominant-baseline="alphabetic" fill-opacity="1">1</text><text fill="none" stroke="rgb(255,255,255)" font-family="geogebra-sans-serif, sans-serif" font-size="12px" font-style="normal" font-weight="normal" text-decoration="normal" x="185" y="261" text-anchor="start" dominant-baseline="alphabetic" stroke-opacity="1" stroke-linejoin="bevel" stroke-miterlimit="10" stroke-width="3">1</text><text fill="rgb(37,37,37)" stroke="none" font-family="geogebra-sans-serif, sans-serif" font-size="12px" font-style="normal" font-weight="normal" text-decoration="normal" x="185" y="261" text-anchor="start" dominant-baseline="alphabetic" fill-opacity="1">1</text><text fill="rgb(37,37,37)" stroke="none" font-family="geogebra-sans-serif, sans-serif" font-size="12px" font-style="normal" font-weight="normal" text-decoration="normal" x="260" y="261" text-anchor="start" dominant-baseline="alphabetic" fill-opacity="1">2</text><text fill="none" stroke="rgb(255,255,255)" font-family="geogebra-sans-serif, sans-serif" font-size="12px" font-style="normal" font-weight="normal" text-decoration="normal" x="260" y="261" text-anchor="start" dominant-baseline="alphabetic" stroke-opacity="1" stroke-linejoin="bevel" stroke-miterlimit="10" stroke-width="3">2</text><text fill="rgb(37,37,37)" stroke="none" font-family="geogebra-sans-serif, sans-serif" font-size="12px" font-style="normal" font-weight="normal" text-decoration="normal" x="260" y="261" text-anchor="start" dominant-baseline="alphabetic" fill-opacity="1">2</text><text fill="rgb(37,37,37)" stroke="none" font-family="geogebra-sans-serif, sans-serif" font-size="12px" font-style="normal" font-weight="normal" text-decoration="normal" x="335" y="261" text-anchor="start" dominant-baseline="alphabetic" fill-opacity="1">3</text><text fill="none" stroke="rgb(255,255,255)" font-family="geogebra-sans-serif, sans-serif" font-size="12px" font-style="normal" font-weight="normal" text-decoration="normal" x="335" y="261" text-anchor="start" dominant-baseline="alphabetic" stroke-opacity="1" stroke-linejoin="bevel" stroke-miterlimit="10" stroke-width="3">3</text><text fill="rgb(37,37,37)" stroke="none" font-family="geogebra-sans-serif, sans-serif" font-size="12px" font-style="normal" font-weight="normal" text-decoration="normal" x="335" y="261" text-anchor="start" dominant-baseline="alphabetic" fill-opacity="1">3</text><text fill="rgb(37,37,37)" stroke="none" font-family="geogebra-sans-serif, sans-serif" font-size="12px" font-style="normal" font-weight="normal" text-decoration="normal" x="92" y="325" text-anchor="start" dominant-baseline="alphabetic" fill-opacity="1">–1</text><text fill="none" stroke="rgb(255,255,255)" font-family="geogebra-sans-serif, sans-serif" font-size="12px" font-style="normal" font-weight="normal" text-decoration="normal" x="92" y="325" text-anchor="start" dominant-baseline="alphabetic" stroke-opacity="1" stroke-linejoin="bevel" stroke-miterlimit="10" stroke-width="3">–1</text><text fill="rgb(37,37,37)" stroke="none" font-family="geogebra-sans-serif, sans-serif" font-size="12px" font-style="normal" font-weight="normal" text-decoration="normal" x="92" y="325" text-anchor="start" dominant-baseline="alphabetic" fill-opacity="1">–1</text><text fill="rgb(37,37,37)" stroke="none" font-family="geogebra-sans-serif, sans-serif" font-size="12px" font-style="normal" font-weight="normal" text-decoration="normal" x="98" y="175" text-anchor="start" dominant-baseline="alphabetic" fill-opacity="1">1</text><text fill="none" stroke="rgb(255,255,255)" font-family="geogebra-sans-serif, sans-serif" font-size="12px" font-style="normal" font-weight="normal" text-decoration="normal" x="98" y="175" text-anchor="start" dominant-baseline="alphabetic" stroke-opacity="1" stroke-linejoin="bevel" stroke-miterlimit="10" stroke-width="3">1</text><text fill="rgb(37,37,37)" stroke="none" font-family="geogebra-sans-serif, sans-serif" font-size="12px" font-style="normal" font-weight="normal" text-decoration="normal" x="98" y="175" text-anchor="start" dominant-baseline="alphabetic" fill-opacity="1">1</text><text fill="rgb(37,37,37)" stroke="none" font-family="geogebra-sans-serif, sans-serif" font-size="12px" font-style="normal" font-weight="normal" text-decoration="normal" x="98" y="100" text-anchor="start" dominant-baseline="alphabetic" fill-opacity="1">2</text><text fill="none" stroke="rgb(255,255,255)" font-family="geogebra-sans-serif, sans-serif" font-size="12px" font-style="normal" font-weight="normal" text-decoration="normal" x="98" y="100" text-anchor="start" dominant-baseline="alphabetic" stroke-opacity="1" stroke-linejoin="bevel" stroke-miterlimit="10" stroke-width="3">2</text><text fill="rgb(37,37,37)" stroke="none" font-family="geogebra-sans-serif, sans-serif" font-size="12px" font-style="normal" font-weight="normal" text-decoration="normal" x="98" y="100" text-anchor="start" dominant-baseline="alphabetic" fill-opacity="1">2</text><text fill="rgb(37,37,37)" stroke="none" font-family="geogebra-sans-serif, sans-serif" font-size="12px" font-style="normal" font-weight="normal" text-decoration="normal" x="98" y="25" text-anchor="start" dominant-baseline="alphabetic" fill-opacity="1">3</text><text fill="none" stroke="rgb(255,255,255)" font-family="geogebra-sans-serif, sans-serif" font-size="12px" font-style="normal" font-weight="normal" text-decoration="normal" x="98" y="25" text-anchor="start" dominant-baseline="alphabetic" stroke-opacity="1" stroke-linejoin="bevel" stroke-miterlimit="10" stroke-width="3">3</text><text fill="rgb(37,37,37)" stroke="none" font-family="geogebra-sans-serif, sans-serif" font-size="12px" font-style="normal" font-weight="normal" text-decoration="normal" x="98" y="25" text-anchor="start" dominant-baseline="alphabetic" fill-opacity="1">3</text><text fill="rgb(37,37,37)" stroke="none" font-family="geogebra-sans-serif, sans-serif" font-size="12px" font-style="normal" font-weight="normal" text-decoration="normal" x="98" y="261" text-anchor="start" dominant-baseline="alphabetic" fill-opacity="1">0</text><text fill="none" stroke="rgb(255,255,255)" font-family="geogebra-sans-serif, sans-serif" font-size="12px" font-style="normal" font-weight="normal" text-decoration="normal" x="98" y="261" text-anchor="start" dominant-baseline="alphabetic" stroke-opacity="1" stroke-linejoin="bevel" stroke-miterlimit="10" stroke-width="3">0</text><text fill="rgb(37,37,37)" stroke="none" font-family="geogebra-sans-serif, sans-serif" font-size="12px" font-style="normal" font-weight="normal" text-decoration="normal" x="98" y="261" text-anchor="start" dominant-baseline="alphabetic" fill-opacity="1">0</text><path fill="rgb(255,153,204)" stroke="none" paint-order="stroke fill markers" fill-rule="evenodd" d=" M 38 20.5 L 38 320.4999999999999 L 337.99999999999994 320.4999999999999 L 337.99999999999994 20.5 Z" fill-opacity="0.09803921568627451"/><path fill="none" stroke="rgb(255,153,204)" paint-order="fill stroke markers" d=" M 38 20.5 L 38 320.4999999999999" stroke-opacity="0.6980392156862745" stroke-linecap="round" stroke-linejoin="round" stroke-miterlimit="10" stroke-width="2.5"/><path fill="none" stroke="rgb(255,153,204)" paint-order="fill stroke markers" d=" M 38 320.4999999999999 L 337.99999999999994 320.4999999999999" stroke-opacity="0.6980392156862745" stroke-linecap="round" stroke-linejoin="round" stroke-miterlimit="10" stroke-width="2.5"/><path fill="none" stroke="rgb(255,153,204)" paint-order="fill stroke markers" d=" M 337.99999999999994 320.4999999999999 L 337.99999999999994 20.5" stroke-opacity="0.6980392156862745" stroke-linecap="round" stroke-linejoin="round" stroke-miterlimit="10" stroke-width="2.5"/><path fill="none" stroke="rgb(255,153,204)" paint-order="fill stroke markers" d=" M 337.99999999999994 20.5 L 38 20.5" stroke-opacity="0.6980392156862745" stroke-linecap="round" stroke-linejoin="round" stroke-miterlimit="10" stroke-width="2.5"/><path fill="rgb(21,101,192)" stroke="none" paint-order="stroke fill markers" d=" M 262.99999999999994 170.49999999999994 L 245.89407997212658 174.3013155617496 L 247.23572075862646 176.98459713474935 L 247.23572075862643 176.98459713474935 L 112.44098300562504 244.38196601125003 C 111.82350988384599 244.69070257213954 111.57322945036057 245.44154387259582 111.8819660112501 246.05901699437487 C 112.10097295153363 246.49703087494194 112.54244648393355 246.7502738206966 113.000970575623 246.75027382069663 C 113.18883308232134 246.75027382069663 113.37955775316296 246.7077636093558 113.55901699437493 246.6180339887498 L 248.35375474737629 179.22066511224915 L 248.35375474737634 179.22066511224915 L 249.6953955338762 181.90394668524888 L 262.99999999999994 170.49999999999994 Z" fill-opacity="0.6980392156862745"/><text fill="rgb(21,101,192)" stroke="none" font-family="geogebra-sans-serif, sans-serif" font-size="16px" font-style="normal" font-weight="normal" text-decoration="normal" x="213" y="210" text-anchor="start" dominant-baseline="alphabetic" fill-opacity="1">u</text><text fill="none" stroke="rgb(255,255,255)" font-family="geogebra-sans-serif, sans-serif" font-size="16px" font-style="normal" font-weight="normal" text-decoration="normal" x="213" y="210" text-anchor="start" dominant-baseline="alphabetic" stroke-opacity="1" stroke-linejoin="bevel" stroke-miterlimit="10" stroke-width="3">u</text><text fill="rgb(21,101,192)" stroke="none" font-family="geogebra-sans-serif, sans-serif" font-size="16px" font-style="normal" font-weight="normal" text-decoration="normal" x="213" y="210" text-anchor="start" dominant-baseline="alphabetic" fill-opacity="1">u</text><path fill="rgb(211,47,47)" stroke="none" paint-order="stroke fill markers" d=" M 187.99999999999994 95.5 L 176.59605331475103 108.80460446612372 L 179.2793348877508 110.1462452526236 L 111.88196601125009 244.94098300562496 C 111.57322945036056 245.558456127404 111.82350988384597 246.30929742786026 112.44098300562503 246.6180339887498 C 112.620442246837 246.7077636093558 112.81116691767862 246.75027382069663 112.99902942437697 246.75027382069663 C 113.45755351606643 246.75027382069663 113.89902704846635 246.49703087494194 114.11803398874989 246.05901699437487 L 181.51540286525056 111.26427924137349 L 184.19868443825033 112.60592002787337 L 187.99999999999997 95.5 Z" fill-opacity="0.6980392156862745"/><text fill="rgb(211,47,47)" stroke="none" font-family="geogebra-sans-serif, sans-serif" font-size="16px" font-style="normal" font-weight="normal" text-decoration="normal" x="163" y="167" text-anchor="start" dominant-baseline="alphabetic" fill-opacity="1">v</text><text fill="none" stroke="rgb(255,255,255)" font-family="geogebra-sans-serif, sans-serif" font-size="16px" font-style="normal" font-weight="normal" text-decoration="normal" x="163" y="167" text-anchor="start" dominant-baseline="alphabetic" stroke-opacity="1" stroke-linejoin="bevel" stroke-miterlimit="10" stroke-width="3">v</text><text fill="rgb(211,47,47)" stroke="none" font-family="geogebra-sans-serif, sans-serif" font-size="16px" font-style="normal" font-weight="normal" text-decoration="normal" x="163" y="167" text-anchor="start" dominant-baseline="alphabetic" fill-opacity="1">v</text><path fill="rgb(97,97,97)" stroke="none" paint-order="stroke fill markers" d=" M 113.99999999999999 245.49999999999991 C 113.99999999999999 246.0522847498307 113.55228474983078 246.49999999999991 112.99999999999999 246.49999999999991 C 112.4477152501692 246.49999999999991 111.99999999999999 246.0522847498307 111.99999999999999 245.49999999999991 C 111.99999999999999 244.94771525016913 112.4477152501692 244.49999999999991 112.99999999999999 244.49999999999991 C 113.55228474983078 244.49999999999991 113.99999999999999 244.94771525016913 113.99999999999999 245.49999999999991 Z" fill-opacity="1"/><path fill="rgb(21,101,192)" stroke="none" paint-order="stroke fill markers" d=" M 263.99999999999994 170.49999999999994 C 263.99999999999994 171.05228474983073 263.55228474983073 171.49999999999994 262.99999999999994 171.49999999999994 C 262.44771525016915 171.49999999999994 261.99999999999994 171.05228474983073 261.99999999999994 170.49999999999994 C 261.99999999999994 169.94771525016915 262.44771525016915 169.49999999999994 262.99999999999994 169.49999999999994 C 263.55228474983073 169.49999999999994 263.99999999999994 169.94771525016915 263.99999999999994 170.49999999999994 Z" fill-opacity="1"/><path fill="rgb(21,101,192)" stroke="none" paint-order="stroke fill markers" d=" M 188.99999999999997 95.49999999999997 C 188.99999999999997 96.05228474983076 188.55228474983076 96.49999999999997 187.99999999999997 96.49999999999997 C 187.44771525016918 96.49999999999997 186.99999999999997 96.05228474983076 186.99999999999997 95.49999999999997 C 186.99999999999997 94.94771525016918 187.44771525016918 94.49999999999997 187.99999999999997 94.49999999999997 C 188.55228474983076 94.49999999999997 188.99999999999997 94.94771525016918 188.99999999999997 95.49999999999997 Z" fill-opacity="1"/><path fill="rgb(21,101,192)" stroke="none" paint-order="stroke fill markers" d=" M 39 20.5 C 39 21.052284749830793 38.55228474983079 21.5 38 21.5 C 37.4477152501692 21.5 37 21.052284749830793 37 20.5 C 37 19.947715250169207 37.4477152501692 19.5 38 19.5 C 38.55228474983079 19.5 39 19.947715250169207 39 20.5 Z" fill-opacity="1"/><path fill="rgb(21,101,192)" stroke="none" paint-order="stroke fill markers" d=" M 39 320.4999999999999 C 39 321.0522847498307 38.55228474983079 321.4999999999999 38 321.4999999999999 C 37.4477152501692 321.4999999999999 37 321.0522847498307 37 320.4999999999999 C 37 319.9477152501691 37.4477152501692 319.4999999999999 38 319.4999999999999 C 38.55228474983079 319.4999999999999 39 319.9477152501691 39 320.4999999999999 Z" fill-opacity="1"/><path fill="rgb(21,101,192)" stroke="none" paint-order="stroke fill markers" d=" M 338.99999999999994 320.4999999999999 C 338.99999999999994 321.0522847498307 338.55228474983073 321.4999999999999 337.99999999999994 321.4999999999999 C 337.44771525016915 321.4999999999999 336.99999999999994 321.0522847498307 336.99999999999994 320.4999999999999 C 336.99999999999994 319.9477152501691 337.44771525016915 319.4999999999999 337.99999999999994 319.4999999999999 C 338.55228474983073 319.4999999999999 338.99999999999994 319.9477152501691 338.99999999999994 320.4999999999999 Z" fill-opacity="1"/><path fill="rgb(21,101,192)" stroke="none" paint-order="stroke fill markers" d=" M 338.99999999999994 20.5 C 338.99999999999994 21.052284749830793 338.55228474983073 21.5 337.99999999999994 21.5 C 337.44771525016915 21.5 336.99999999999994 21.052284749830793 336.99999999999994 20.5 C 336.99999999999994 19.947715250169207 337.44771525016915 19.5 337.99999999999994 19.5 C 338.55228474983073 19.5 338.99999999999994 19.947715250169207 338.99999999999994 20.5 Z" fill-opacity="1"/></g></g></svg>