<svg version="1.1" xmlns="http://www.w3.org/2000/svg" xmlns:xlink="http://www.w3.org/1999/xlink" width="342" height="480"><defs><clipPath id="QnLDHvhBMoLC"><path fill="none" stroke="none" d=" M 0 0 L 342 0 L 342 480 L 0 480 L 0 0 Z"/></clipPath></defs><g transform="scale(1,1)" clip-path="url(#QnLDHvhBMoLC)"><g><rect fill="rgb(255,255,255)" stroke="none" x="0" y="0" width="342" height="481" fill-opacity="1"/><path fill="none" stroke="rgb(192,192,192)" paint-order="fill stroke markers" d=" M 157.5 0.5 L 157.5 480.5 M 255.5 0.5 L 255.5 480.5" stroke-opacity="1" stroke-linecap="round" stroke-linejoin="round" stroke-miterlimit="10"/><path fill="none" stroke="rgb(192,192,192)" paint-order="fill stroke markers" d=" M 19.5 0.5 L 19.5 480.5 M 39.5 0.5 L 39.5 480.5 M 78.5 0.5 L 78.5 480.5 M 98.5 0.5 L 98.5 480.5 M 118.5 0.5 L 118.5 480.5 M 137.5 0.5 L 137.5 480.5 M 177.5 0.5 L 177.5 480.5 M 196.5 0.5 L 196.5 480.5 M 216.5 0.5 L 216.5 480.5 M 236.5 0.5 L 236.5 480.5 M 275.5 0.5 L 275.5 480.5 M 295.5 0.5 L 295.5 480.5 M 315.5 0.5 L 315.5 480.5 M 334.5 0.5 L 334.5 480.5" stroke-opacity="0.23529411764705882" stroke-linecap="round" stroke-linejoin="round" stroke-miterlimit="10"/><path fill="none" stroke="rgb(192,192,192)" paint-order="fill stroke markers" d=" M 0.5 80.5 L 342.5 80.5 M 0.5 80.5 L 342.5 80.5 M 0.5 179.5 L 342.5 179.5 M 0.5 277.5 L 342.5 277.5 M 0.5 474.5 L 342.5 474.5" stroke-opacity="1" stroke-linecap="round" stroke-linejoin="round" stroke-miterlimit="10"/><path fill="none" stroke="rgb(192,192,192)" paint-order="fill stroke markers" d=" M 0.5 2.5 L 342.5 2.5 M 0.5 21.5 L 342.5 21.5 M 0.5 41.5 L 342.5 41.5 M 0.5 61.5 L 342.5 61.5 M 0.5 100.5 L 342.5 100.5 M 0.5 120.5 L 342.5 120.5 M 0.5 140.5 L 342.5 140.5 M 0.5 159.5 L 342.5 159.5 M 0.5 199.5 L 342.5 199.5 M 0.5 218.5 L 342.5 218.5 M 0.5 238.5 L 342.5 238.5 M 0.5 258.5 L 342.5 258.5 M 0.5 297.5 L 342.5 297.5 M 0.5 317.5 L 342.5 317.5 M 0.5 337.5 L 342.5 337.5 M 0.5 356.5 L 342.5 356.5 M 0.5 396.5 L 342.5 396.5 M 0.5 415.5 L 342.5 415.5 M 0.5 435.5 L 342.5 435.5 M 0.5 455.5 L 342.5 455.5" stroke-opacity="0.23529411764705882" stroke-linecap="round" stroke-linejoin="round" stroke-miterlimit="10"/><path fill="none" stroke="rgb(37,37,37)" paint-order="fill stroke markers" d=" M 58.5 2.5 L 58.5 480.5" stroke-opacity="1" stroke-miterlimit="10"/><path fill="none" stroke="rgb(37,37,37)" paint-order="fill stroke markers" d=" M 58.5 1.5 L 54.5 5.5" stroke-opacity="1" stroke-miterlimit="10"/><path fill="none" stroke="rgb(37,37,37)" paint-order="fill stroke markers" d=" M 58.5 1.5 L 62.5 5.5" stroke-opacity="1" stroke-miterlimit="10"/><path fill="none" stroke="rgb(37,37,37)" paint-order="fill stroke markers" d=" M 0.5 376.5 L 340.5 376.5" stroke-opacity="1" stroke-miterlimit="10"/><path fill="none" stroke="rgb(37,37,37)" paint-order="fill stroke markers" d=" M 341.5 376.5 L 337.5 372.5" stroke-opacity="1" stroke-miterlimit="10"/><path fill="none" stroke="rgb(37,37,37)" paint-order="fill stroke markers" d=" M 341.5 376.5 L 337.5 380.5" stroke-opacity="1" stroke-miterlimit="10"/><text fill="rgb(37,37,37)" stroke="none" font-family="geogebra-sans-serif, sans-serif" font-size="12px" font-style="normal" font-weight="normal" text-decoration="normal" x="155" y="392" text-anchor="start" dominant-baseline="alphabetic" fill-opacity="1">1</text><text fill="none" stroke="rgb(255,255,255)" font-family="geogebra-sans-serif, sans-serif" font-size="12px" font-style="normal" font-weight="normal" text-decoration="normal" x="155" y="392" text-anchor="start" dominant-baseline="alphabetic" stroke-opacity="1" stroke-linejoin="bevel" stroke-miterlimit="10" stroke-width="3">1</text><text fill="rgb(37,37,37)" stroke="none" font-family="geogebra-sans-serif, sans-serif" font-size="12px" font-style="normal" font-weight="normal" text-decoration="normal" x="155" y="392" text-anchor="start" dominant-baseline="alphabetic" fill-opacity="1">1</text><text fill="rgb(37,37,37)" stroke="none" font-family="geogebra-sans-serif, sans-serif" font-size="12px" font-style="normal" font-weight="normal" text-decoration="normal" x="253" y="392" text-anchor="start" dominant-baseline="alphabetic" fill-opacity="1">2</text><text fill="none" stroke="rgb(255,255,255)" font-family="geogebra-sans-serif, sans-serif" font-size="12px" font-style="normal" font-weight="normal" text-decoration="normal" x="253" y="392" text-anchor="start" dominant-baseline="alphabetic" stroke-opacity="1" stroke-linejoin="bevel" stroke-miterlimit="10" stroke-width="3">2</text><text fill="rgb(37,37,37)" stroke="none" font-family="geogebra-sans-serif, sans-serif" font-size="12px" font-style="normal" font-weight="normal" text-decoration="normal" x="253" y="392" text-anchor="start" dominant-baseline="alphabetic" fill-opacity="1">2</text><text fill="rgb(37,37,37)" stroke="none" font-family="geogebra-sans-serif, sans-serif" font-size="12px" font-style="normal" font-weight="normal" text-decoration="normal" x="44" y="282" text-anchor="start" dominant-baseline="alphabetic" fill-opacity="1">1</text><text fill="none" stroke="rgb(255,255,255)" font-family="geogebra-sans-serif, sans-serif" font-size="12px" font-style="normal" font-weight="normal" text-decoration="normal" x="44" y="282" text-anchor="start" dominant-baseline="alphabetic" stroke-opacity="1" stroke-linejoin="bevel" stroke-miterlimit="10" stroke-width="3">1</text><text fill="rgb(37,37,37)" stroke="none" font-family="geogebra-sans-serif, sans-serif" font-size="12px" font-style="normal" font-weight="normal" text-decoration="normal" x="44" y="282" text-anchor="start" dominant-baseline="alphabetic" fill-opacity="1">1</text><text fill="rgb(37,37,37)" stroke="none" font-family="geogebra-sans-serif, sans-serif" font-size="12px" font-style="normal" font-weight="normal" text-decoration="normal" x="44" y="184" text-anchor="start" dominant-baseline="alphabetic" fill-opacity="1">2</text><text fill="none" stroke="rgb(255,255,255)" font-family="geogebra-sans-serif, sans-serif" font-size="12px" font-style="normal" font-weight="normal" text-decoration="normal" x="44" y="184" text-anchor="start" dominant-baseline="alphabetic" stroke-opacity="1" stroke-linejoin="bevel" stroke-miterlimit="10" stroke-width="3">2</text><text fill="rgb(37,37,37)" stroke="none" font-family="geogebra-sans-serif, sans-serif" font-size="12px" font-style="normal" font-weight="normal" text-decoration="normal" x="44" y="184" text-anchor="start" dominant-baseline="alphabetic" fill-opacity="1">2</text><text fill="rgb(37,37,37)" stroke="none" font-family="geogebra-sans-serif, sans-serif" font-size="12px" font-style="normal" font-weight="normal" text-decoration="normal" x="44" y="85" text-anchor="start" dominant-baseline="alphabetic" fill-opacity="1">3</text><text fill="none" stroke="rgb(255,255,255)" font-family="geogebra-sans-serif, sans-serif" font-size="12px" font-style="normal" font-weight="normal" text-decoration="normal" x="44" y="85" text-anchor="start" dominant-baseline="alphabetic" stroke-opacity="1" stroke-linejoin="bevel" stroke-miterlimit="10" stroke-width="3">3</text><text fill="rgb(37,37,37)" stroke="none" font-family="geogebra-sans-serif, sans-serif" font-size="12px" font-style="normal" font-weight="normal" text-decoration="normal" x="44" y="85" text-anchor="start" dominant-baseline="alphabetic" fill-opacity="1">3</text><text fill="rgb(37,37,37)" stroke="none" font-family="geogebra-sans-serif, sans-serif" font-size="12px" font-style="normal" font-weight="normal" text-decoration="normal" x="44" y="392" text-anchor="start" dominant-baseline="alphabetic" fill-opacity="1">0</text><text fill="none" stroke="rgb(255,255,255)" font-family="geogebra-sans-serif, sans-serif" font-size="12px" font-style="normal" font-weight="normal" text-decoration="normal" x="44" y="392" text-anchor="start" dominant-baseline="alphabetic" stroke-opacity="1" stroke-linejoin="bevel" stroke-miterlimit="10" stroke-width="3">0</text><text fill="rgb(37,37,37)" stroke="none" font-family="geogebra-sans-serif, sans-serif" font-size="12px" font-style="normal" font-weight="normal" text-decoration="normal" x="44" y="392" text-anchor="start" dominant-baseline="alphabetic" fill-opacity="1">0</text><path fill="rgb(21,101,192)" stroke="none" paint-order="stroke fill markers" fill-rule="evenodd" d=" M 58.90710793401199 80.90029885464315 L 157.41175764300658 80.90029885464315 L 157.41175764300658 277.9095982726327 L 255.91640735200122 277.9095982726327 L 255.91640735200122 376.4142479816275 L 58.90710793401199 376.4142479816275 Z" fill-opacity="0.09803921568627451"/><path fill="rgb(211,47,47)" stroke="none" paint-order="stroke fill markers" fill-rule="evenodd" d=" M 58.90710793401199 228.65727341813533 L 157.41175764300658 228.65727341813533 L 157.41175764300658 327.16192312713014 L 255.91640735200122 327.16192312713014 L 255.91640735200122 376.4142479816275 L 58.90710793401199 376.4142479816275 Z" fill-opacity="0.09803921568627451"/><path fill="none" stroke="rgb(21,101,192)" paint-order="fill stroke markers" d=" M 58.90710793401199 80.90029885464315 L 157.41175764300658 80.90029885464315" stroke-opacity="0.6980392156862745" stroke-linecap="round" stroke-linejoin="round" stroke-miterlimit="10" stroke-width="2.5"/><path fill="none" stroke="rgb(21,101,192)" paint-order="fill stroke markers" d=" M 157.41175764300658 80.90029885464315 L 157.41175764300658 277.9095982726327" stroke-opacity="0.6980392156862745" stroke-linecap="round" stroke-linejoin="round" stroke-miterlimit="10" stroke-width="2.5"/><path fill="none" stroke="rgb(21,101,192)" paint-order="fill stroke markers" d=" M 157.41175764300658 277.9095982726327 L 255.91640735200122 277.9095982726327" stroke-opacity="0.6980392156862745" stroke-linecap="round" stroke-linejoin="round" stroke-miterlimit="10" stroke-width="2.5"/><path fill="none" stroke="rgb(21,101,192)" paint-order="fill stroke markers" d=" M 255.91640735200122 277.9095982726327 L 255.91640735200122 376.4142479816275" stroke-opacity="0.6980392156862745" stroke-linecap="round" stroke-linejoin="round" stroke-miterlimit="10" stroke-width="2.5"/><path fill="none" stroke="rgb(21,101,192)" paint-order="fill stroke markers" d=" M 255.91640735200122 376.4142479816275 L 58.90710793401199 376.4142479816275" stroke-opacity="0.6980392156862745" stroke-linecap="round" stroke-linejoin="round" stroke-miterlimit="10" stroke-width="2.5"/><path fill="none" stroke="rgb(21,101,192)" paint-order="fill stroke markers" d=" M 58.90710793401199 376.4142479816275 L 58.90710793401199 80.90029885464315" stroke-opacity="0.6980392156862745" stroke-linecap="round" stroke-linejoin="round" stroke-miterlimit="10" stroke-width="2.5"/><path fill="none" stroke="rgb(211,47,47)" paint-order="fill stroke markers" d=" M 58.90710793401199 228.65727341813533 L 157.41175764300658 228.65727341813533" stroke-opacity="0.6980392156862745" stroke-linecap="round" stroke-linejoin="round" stroke-miterlimit="10" stroke-width="2.5"/><path fill="none" stroke="rgb(211,47,47)" paint-order="fill stroke markers" d=" M 157.41175764300658 228.65727341813533 L 157.41175764300658 327.16192312713014" stroke-opacity="0.6980392156862745" stroke-linecap="round" stroke-linejoin="round" stroke-miterlimit="10" stroke-width="2.5"/><path fill="none" stroke="rgb(211,47,47)" paint-order="fill stroke markers" d=" M 157.41175764300658 327.16192312713014 L 255.91640735200122 327.16192312713014" stroke-opacity="0.6980392156862745" stroke-linecap="round" stroke-linejoin="round" stroke-miterlimit="10" stroke-width="2.5"/><path fill="none" stroke="rgb(211,47,47)" paint-order="fill stroke markers" d=" M 255.91640735200122 327.16192312713014 L 255.91640735200122 376.4142479816275" stroke-opacity="0.6980392156862745" stroke-linecap="round" stroke-linejoin="round" stroke-miterlimit="10" stroke-width="2.5"/><path fill="none" stroke="rgb(211,47,47)" paint-order="fill stroke markers" d=" M 255.91640735200122 376.4142479816275 L 58.90710793401199 376.4142479816275" stroke-opacity="0.6980392156862745" stroke-linecap="round" stroke-linejoin="round" stroke-miterlimit="10" stroke-width="2.5"/><path fill="none" stroke="rgb(211,47,47)" paint-order="fill stroke markers" d=" M 58.90710793401199 376.4142479816275 L 58.90710793401199 228.65727341813533" stroke-opacity="0.6980392156862745" stroke-linecap="round" stroke-linejoin="round" stroke-miterlimit="10" stroke-width="2.5"/><path fill="rgb(21,101,192)" stroke="none" paint-order="stroke fill markers" d=" M 59.90710793401199 80.90029885464315 C 59.90710793401199 81.45258360447394 59.45939268384278 81.90029885464315 58.90710793401199 81.90029885464315 C 58.35482318418119 81.90029885464315 57.90710793401199 81.45258360447394 57.90710793401199 80.90029885464315 C 57.90710793401199 80.34801410481236 58.35482318418119 79.90029885464315 58.90710793401199 79.90029885464315 C 59.45939268384278 79.90029885464315 59.90710793401199 80.34801410481236 59.90710793401199 80.90029885464315 Z" fill-opacity="1"/><path fill="rgb(21,101,192)" stroke="none" paint-order="stroke fill markers" d=" M 158.41175764300658 80.90029885464315 C 158.41175764300658 81.45258360447394 157.96404239283737 81.90029885464315 157.41175764300658 81.90029885464315 C 156.8594728931758 81.90029885464315 156.41175764300658 81.45258360447394 156.41175764300658 80.90029885464315 C 156.41175764300658 80.34801410481236 156.8594728931758 79.90029885464315 157.41175764300658 79.90029885464315 C 157.96404239283737 79.90029885464315 158.41175764300658 80.34801410481236 158.41175764300658 80.90029885464315 Z" fill-opacity="1"/><path fill="rgb(211,47,47)" stroke="none" paint-order="stroke fill markers" d=" M 158.41175764300658 277.9095982726327 C 158.41175764300658 278.4618830224635 157.96404239283737 278.9095982726327 157.41175764300658 278.9095982726327 C 156.8594728931758 278.9095982726327 156.41175764300658 278.4618830224635 156.41175764300658 277.9095982726327 C 156.41175764300658 277.3573135228019 156.8594728931758 276.9095982726327 157.41175764300658 276.9095982726327 C 157.96404239283737 276.9095982726327 158.41175764300658 277.3573135228019 158.41175764300658 277.9095982726327 Z" fill-opacity="1"/><path fill="rgb(21,101,192)" stroke="none" paint-order="stroke fill markers" d=" M 256.9164073520012 376.4142479816275 C 256.9164073520012 376.9665327314583 256.468692101832 377.4142479816275 255.91640735200122 377.4142479816275 C 255.36412260217043 377.4142479816275 254.91640735200122 376.9665327314583 254.91640735200122 376.4142479816275 C 254.91640735200122 375.8619632317967 255.36412260217043 375.4142479816275 255.91640735200122 375.4142479816275 C 256.468692101832 375.4142479816275 256.9164073520012 375.8619632317967 256.9164073520012 376.4142479816275 Z" fill-opacity="1"/><path fill="rgb(97,97,97)" stroke="none" paint-order="stroke fill markers" d=" M 59.90710793401199 376.4142479816275 C 59.90710793401199 376.9665327314583 59.45939268384278 377.4142479816275 58.90710793401199 377.4142479816275 C 58.35482318418119 377.4142479816275 57.90710793401199 376.9665327314583 57.90710793401199 376.4142479816275 C 57.90710793401199 375.8619632317967 58.35482318418119 375.4142479816275 58.90710793401199 375.4142479816275 C 59.45939268384278 375.4142479816275 59.90710793401199 375.8619632317967 59.90710793401199 376.4142479816275 Z" fill-opacity="1"/><path fill="rgb(21,101,192)" stroke="none" paint-order="stroke fill markers" d=" M 59.90710793401199 80.90029885464315 C 59.90710793401199 81.45258360447394 59.45939268384278 81.90029885464315 58.90710793401199 81.90029885464315 C 58.35482318418119 81.90029885464315 57.90710793401199 81.45258360447394 57.90710793401199 80.90029885464315 C 57.90710793401199 80.34801410481236 58.35482318418119 79.90029885464315 58.90710793401199 79.90029885464315 C 59.45939268384278 79.90029885464315 59.90710793401199 80.34801410481236 59.90710793401199 80.90029885464315 Z" fill-opacity="1"/><path fill="rgb(97,97,97)" stroke="none" paint-order="stroke fill markers" d=" M 59.90710793401199 376.4142479816275 C 59.90710793401199 376.9665327314583 59.45939268384278 377.4142479816275 58.90710793401199 377.4142479816275 C 58.35482318418119 377.4142479816275 57.90710793401199 376.9665327314583 57.90710793401199 376.4142479816275 C 57.90710793401199 375.8619632317967 58.35482318418119 375.4142479816275 58.90710793401199 375.4142479816275 C 59.45939268384278 375.4142479816275 59.90710793401199 375.8619632317967 59.90710793401199 376.4142479816275 Z" fill-opacity="1"/><path fill="rgb(211,47,47)" stroke="none" paint-order="stroke fill markers" d=" M 59.90710793401199 178.8580638950759 C 59.90710793401199 179.4103486449067 59.45939268384278 179.8580638950759 58.90710793401199 179.8580638950759 C 58.35482318418119 179.8580638950759 57.90710793401199 179.4103486449067 57.90710793401199 178.8580638950759 C 57.90710793401199 178.3057791452451 58.35482318418119 177.8580638950759 58.90710793401199 177.8580638950759 C 59.45939268384278 177.8580638950759 59.90710793401199 178.3057791452451 59.90710793401199 178.8580638950759 Z" fill-opacity="1"/><path fill="rgb(211,47,47)" stroke="none" paint-order="stroke fill markers" d=" M 158.41175764300658 179.40494856363793 C 158.41175764300658 179.95723331346872 157.96404239283737 180.40494856363793 157.41175764300658 180.40494856363793 C 156.8594728931758 180.40494856363793 156.41175764300658 179.95723331346872 156.41175764300658 179.40494856363793 C 156.41175764300658 178.85266381380714 156.8594728931758 178.40494856363793 157.41175764300658 178.40494856363793 C 157.96404239283737 178.40494856363793 158.41175764300658 178.85266381380714 158.41175764300658 179.40494856363793 Z" fill-opacity="1"/><path fill="rgb(97,97,97)" stroke="none" paint-order="stroke fill markers" d=" M 59.90710793401199 376.4142479816275 C 59.90710793401199 376.9665327314583 59.45939268384278 377.4142479816275 58.90710793401199 377.4142479816275 C 58.35482318418119 377.4142479816275 57.90710793401199 376.9665327314583 57.90710793401199 376.4142479816275 C 57.90710793401199 375.8619632317967 58.35482318418119 375.4142479816275 58.90710793401199 375.4142479816275 C 59.45939268384278 375.4142479816275 59.90710793401199 375.8619632317967 59.90710793401199 376.4142479816275 Z" fill-opacity="1"/><path fill="rgb(211,47,47)" stroke="none" paint-order="stroke fill markers" d=" M 59.90710793401199 474.9188976906223 C 59.90710793401199 475.4711824404531 59.45939268384278 475.9188976906223 58.90710793401199 475.9188976906223 C 58.35482318418119 475.9188976906223 57.90710793401199 475.4711824404531 57.90710793401199 474.9188976906223 C 57.90710793401199 474.3666129407915 58.35482318418119 473.9188976906223 58.90710793401199 473.9188976906223 C 59.45939268384278 473.9188976906223 59.90710793401199 474.3666129407915 59.90710793401199 474.9188976906223 Z" fill-opacity="1"/><path fill="rgb(97,97,97)" stroke="none" paint-order="stroke fill markers" d=" M 59.90710793401199 376.4142479816275 C 59.90710793401199 376.9665327314583 59.45939268384278 377.4142479816275 58.90710793401199 377.4142479816275 C 58.35482318418119 377.4142479816275 57.90710793401199 376.9665327314583 57.90710793401199 376.4142479816275 C 57.90710793401199 375.8619632317967 58.35482318418119 375.4142479816275 58.90710793401199 375.4142479816275 C 59.45939268384278 375.4142479816275 59.90710793401199 375.8619632317967 59.90710793401199 376.4142479816275 Z" fill-opacity="1"/><path fill="rgb(211,47,47)" stroke="none" paint-order="stroke fill markers" d=" M 59.90710793401199 474.9188976906223 C 59.90710793401199 475.4711824404531 59.45939268384278 475.9188976906223 58.90710793401199 475.9188976906223 C 58.35482318418119 475.9188976906223 57.90710793401199 475.4711824404531 57.90710793401199 474.9188976906223 C 57.90710793401199 474.3666129407915 58.35482318418119 473.9188976906223 58.90710793401199 473.9188976906223 C 59.45939268384278 473.9188976906223 59.90710793401199 474.3666129407915 59.90710793401199 474.9188976906223 Z" fill-opacity="1"/><path fill="rgb(211,47,47)" stroke="none" paint-order="stroke fill markers" d=" M 59.90710793401199 228.65727341813533 C 59.90710793401199 229.20955816796612 59.45939268384278 229.65727341813533 58.90710793401199 229.65727341813533 C 58.35482318418119 229.65727341813533 57.90710793401199 229.20955816796612 57.90710793401199 228.65727341813533 C 57.90710793401199 228.10498866830454 58.35482318418119 227.65727341813533 58.90710793401199 227.65727341813533 C 59.45939268384278 227.65727341813533 59.90710793401199 228.10498866830454 59.90710793401199 228.65727341813533 Z" fill-opacity="1"/><path fill="rgb(211,47,47)" stroke="none" paint-order="stroke fill markers" d=" M 158.41175764300658 228.65727341813533 C 158.41175764300658 229.20955816796612 157.96404239283737 229.65727341813533 157.41175764300658 229.65727341813533 C 156.8594728931758 229.65727341813533 156.41175764300658 229.20955816796612 156.41175764300658 228.65727341813533 C 156.41175764300658 228.10498866830454 156.8594728931758 227.65727341813533 157.41175764300658 227.65727341813533 C 157.96404239283737 227.65727341813533 158.41175764300658 228.10498866830454 158.41175764300658 228.65727341813533 Z" fill-opacity="1"/><path fill="rgb(211,47,47)" stroke="none" paint-order="stroke fill markers" d=" M 158.41175764300658 327.16192312713014 C 158.41175764300658 327.7142078769609 157.96404239283737 328.16192312713014 157.41175764300658 328.16192312713014 C 156.8594728931758 328.16192312713014 156.41175764300658 327.7142078769609 156.41175764300658 327.16192312713014 C 156.41175764300658 326.60963837729935 156.8594728931758 326.16192312713014 157.41175764300658 326.16192312713014 C 157.96404239283737 326.16192312713014 158.41175764300658 326.60963837729935 158.41175764300658 327.16192312713014 Z" fill-opacity="1"/><path fill="rgb(211,47,47)" stroke="none" paint-order="stroke fill markers" d=" M 256.9164073520012 327.16192312713014 C 256.9164073520012 327.7142078769609 256.468692101832 328.16192312713014 255.91640735200122 328.16192312713014 C 255.36412260217043 328.16192312713014 254.91640735200122 327.7142078769609 254.91640735200122 327.16192312713014 C 254.91640735200122 326.60963837729935 255.36412260217043 326.16192312713014 255.91640735200122 326.16192312713014 C 256.468692101832 326.16192312713014 256.9164073520012 326.60963837729935 256.9164073520012 327.16192312713014 Z" fill-opacity="1"/><path fill="rgb(211,47,47)" stroke="none" paint-order="stroke fill markers" d=" M 256.9164073520012 376.4142479816275 C 256.9164073520012 376.9665327314583 256.468692101832 377.4142479816275 255.91640735200122 377.4142479816275 C 255.36412260217043 377.4142479816275 254.91640735200122 376.9665327314583 254.91640735200122 376.4142479816275 C 254.91640735200122 375.8619632317967 255.36412260217043 375.4142479816275 255.91640735200122 375.4142479816275 C 256.468692101832 375.4142479816275 256.9164073520012 375.8619632317967 256.9164073520012 376.4142479816275 Z" fill-opacity="1"/></g></g></svg>