<svg version="1.1" xmlns="http://www.w3.org/2000/svg" xmlns:xlink="http://www.w3.org/1999/xlink" width="342" height="346"><defs><clipPath id="ATzBsUMcwHrt"><path fill="none" stroke="none" d=" M 0 0 L 342 0 L 342 346 L 0 346 L 0 0 Z"/></clipPath></defs><g transform="scale(1,1)" clip-path="url(#ATzBsUMcwHrt)"><g><rect fill="rgb(255,255,255)" stroke="none" x="0" y="0" width="342" height="347" fill-opacity="1"/><path fill="none" stroke="rgb(192,192,192)" paint-order="fill stroke markers" d=" M 38.5 0.5 L 38.5 346.5 M 38.5 0.5 L 38.5 346.5 M 169.5 0.5 L 169.5 346.5 M 235.5 0.5 L 235.5 346.5 M 301.5 0.5 L 301.5 346.5" stroke-opacity="1" stroke-linecap="round" stroke-linejoin="round" stroke-miterlimit="10"/><path fill="none" stroke="rgb(192,192,192)" paint-order="fill stroke markers" d=" M 12.5 0.5 L 12.5 346.5 M 25.5 0.5 L 25.5 346.5 M 51.5 0.5 L 51.5 346.5 M 64.5 0.5 L 64.5 346.5 M 78.5 0.5 L 78.5 346.5 M 91.5 0.5 L 91.5 346.5 M 117.5 0.5 L 117.5 346.5 M 130.5 0.5 L 130.5 346.5 M 143.5 0.5 L 143.5 346.5 M 156.5 0.5 L 156.5 346.5 M 183.5 0.5 L 183.5 346.5 M 196.5 0.5 L 196.5 346.5 M 209.5 0.5 L 209.5 346.5 M 222.5 0.5 L 222.5 346.5 M 248.5 0.5 L 248.5 346.5 M 261.5 0.5 L 261.5 346.5 M 275.5 0.5 L 275.5 346.5 M 288.5 0.5 L 288.5 346.5 M 314.5 0.5 L 314.5 346.5 M 327.5 0.5 L 327.5 346.5 M 340.5 0.5 L 340.5 346.5" stroke-opacity="0.23529411764705882" stroke-linecap="round" stroke-linejoin="round" stroke-miterlimit="10"/><path fill="none" stroke="rgb(192,192,192)" paint-order="fill stroke markers" d=" M 0.5 21.5 L 342.5 21.5 M 0.5 21.5 L 342.5 21.5 M 0.5 86.5 L 342.5 86.5 M 0.5 152.5 L 342.5 152.5 M 0.5 218.5 L 342.5 218.5" stroke-opacity="1" stroke-linecap="round" stroke-linejoin="round" stroke-miterlimit="10"/><path fill="none" stroke="rgb(192,192,192)" paint-order="fill stroke markers" d=" M 0.5 8.5 L 342.5 8.5 M 0.5 8.5 L 342.5 8.5 M 0.5 34.5 L 342.5 34.5 M 0.5 47.5 L 342.5 47.5 M 0.5 60.5 L 342.5 60.5 M 0.5 73.5 L 342.5 73.5 M 0.5 100.5 L 342.5 100.5 M 0.5 113.5 L 342.5 113.5 M 0.5 126.5 L 342.5 126.5 M 0.5 139.5 L 342.5 139.5 M 0.5 165.5 L 342.5 165.5 M 0.5 178.5 L 342.5 178.5 M 0.5 192.5 L 342.5 192.5 M 0.5 205.5 L 342.5 205.5 M 0.5 231.5 L 342.5 231.5 M 0.5 244.5 L 342.5 244.5 M 0.5 257.5 L 342.5 257.5 M 0.5 270.5 L 342.5 270.5 M 0.5 297.5 L 342.5 297.5 M 0.5 310.5 L 342.5 310.5 M 0.5 323.5 L 342.5 323.5 M 0.5 336.5 L 342.5 336.5" stroke-opacity="0.23529411764705882" stroke-linecap="round" stroke-linejoin="round" stroke-miterlimit="10"/><path fill="none" stroke="rgb(37,37,37)" paint-order="fill stroke markers" d=" M 104.5 2.5 L 104.5 346.5" stroke-opacity="1" stroke-miterlimit="10"/><path fill="none" stroke="rgb(37,37,37)" paint-order="fill stroke markers" d=" M 104.5 1.5 L 100.5 5.5" stroke-opacity="1" stroke-miterlimit="10"/><path fill="none" stroke="rgb(37,37,37)" paint-order="fill stroke markers" d=" M 104.5 1.5 L 108.5 5.5" stroke-opacity="1" stroke-miterlimit="10"/><path fill="none" stroke="rgb(37,37,37)" paint-order="fill stroke markers" d=" M 0.5 283.5 L 340.5 283.5" stroke-opacity="1" stroke-miterlimit="10"/><path fill="none" stroke="rgb(37,37,37)" paint-order="fill stroke markers" d=" M 341.5 283.5 L 337.5 279.5" stroke-opacity="1" stroke-miterlimit="10"/><path fill="none" stroke="rgb(37,37,37)" paint-order="fill stroke markers" d=" M 341.5 283.5 L 337.5 287.5" stroke-opacity="1" stroke-miterlimit="10"/><text fill="rgb(37,37,37)" stroke="none" font-family="geogebra-sans-serif, sans-serif" font-size="12px" font-style="normal" font-weight="normal" text-decoration="normal" x="33" y="299" text-anchor="start" dominant-baseline="alphabetic" fill-opacity="1">–1</text><text fill="none" stroke="rgb(255,255,255)" font-family="geogebra-sans-serif, sans-serif" font-size="12px" font-style="normal" font-weight="normal" text-decoration="normal" x="33" y="299" text-anchor="start" dominant-baseline="alphabetic" stroke-opacity="1" stroke-linejoin="bevel" stroke-miterlimit="10" stroke-width="3">–1</text><text fill="rgb(37,37,37)" stroke="none" font-family="geogebra-sans-serif, sans-serif" font-size="12px" font-style="normal" font-weight="normal" text-decoration="normal" x="33" y="299" text-anchor="start" dominant-baseline="alphabetic" fill-opacity="1">–1</text><text fill="rgb(37,37,37)" stroke="none" font-family="geogebra-sans-serif, sans-serif" font-size="12px" font-style="normal" font-weight="normal" text-decoration="normal" x="167" y="299" text-anchor="start" dominant-baseline="alphabetic" fill-opacity="1">1</text><text fill="none" stroke="rgb(255,255,255)" font-family="geogebra-sans-serif, sans-serif" font-size="12px" font-style="normal" font-weight="normal" text-decoration="normal" x="167" y="299" text-anchor="start" dominant-baseline="alphabetic" stroke-opacity="1" stroke-linejoin="bevel" stroke-miterlimit="10" stroke-width="3">1</text><text fill="rgb(37,37,37)" stroke="none" font-family="geogebra-sans-serif, sans-serif" font-size="12px" font-style="normal" font-weight="normal" text-decoration="normal" x="167" y="299" text-anchor="start" dominant-baseline="alphabetic" fill-opacity="1">1</text><text fill="rgb(37,37,37)" stroke="none" font-family="geogebra-sans-serif, sans-serif" font-size="12px" font-style="normal" font-weight="normal" text-decoration="normal" x="233" y="299" text-anchor="start" dominant-baseline="alphabetic" fill-opacity="1">2</text><text fill="none" stroke="rgb(255,255,255)" font-family="geogebra-sans-serif, sans-serif" font-size="12px" font-style="normal" font-weight="normal" text-decoration="normal" x="233" y="299" text-anchor="start" dominant-baseline="alphabetic" stroke-opacity="1" stroke-linejoin="bevel" stroke-miterlimit="10" stroke-width="3">2</text><text fill="rgb(37,37,37)" stroke="none" font-family="geogebra-sans-serif, sans-serif" font-size="12px" font-style="normal" font-weight="normal" text-decoration="normal" x="233" y="299" text-anchor="start" dominant-baseline="alphabetic" fill-opacity="1">2</text><text fill="rgb(37,37,37)" stroke="none" font-family="geogebra-sans-serif, sans-serif" font-size="12px" font-style="normal" font-weight="normal" text-decoration="normal" x="299" y="299" text-anchor="start" dominant-baseline="alphabetic" fill-opacity="1">3</text><text fill="none" stroke="rgb(255,255,255)" font-family="geogebra-sans-serif, sans-serif" font-size="12px" font-style="normal" font-weight="normal" text-decoration="normal" x="299" y="299" text-anchor="start" dominant-baseline="alphabetic" stroke-opacity="1" stroke-linejoin="bevel" stroke-miterlimit="10" stroke-width="3">3</text><text fill="rgb(37,37,37)" stroke="none" font-family="geogebra-sans-serif, sans-serif" font-size="12px" font-style="normal" font-weight="normal" text-decoration="normal" x="299" y="299" text-anchor="start" dominant-baseline="alphabetic" fill-opacity="1">3</text><text fill="rgb(37,37,37)" stroke="none" font-family="geogebra-sans-serif, sans-serif" font-size="12px" font-style="normal" font-weight="normal" text-decoration="normal" x="90" y="223" text-anchor="start" dominant-baseline="alphabetic" fill-opacity="1">1</text><text fill="none" stroke="rgb(255,255,255)" font-family="geogebra-sans-serif, sans-serif" font-size="12px" font-style="normal" font-weight="normal" text-decoration="normal" x="90" y="223" text-anchor="start" dominant-baseline="alphabetic" stroke-opacity="1" stroke-linejoin="bevel" stroke-miterlimit="10" stroke-width="3">1</text><text fill="rgb(37,37,37)" stroke="none" font-family="geogebra-sans-serif, sans-serif" font-size="12px" font-style="normal" font-weight="normal" text-decoration="normal" x="90" y="223" text-anchor="start" dominant-baseline="alphabetic" fill-opacity="1">1</text><text fill="rgb(37,37,37)" stroke="none" font-family="geogebra-sans-serif, sans-serif" font-size="12px" font-style="normal" font-weight="normal" text-decoration="normal" x="90" y="157" text-anchor="start" dominant-baseline="alphabetic" fill-opacity="1">2</text><text fill="none" stroke="rgb(255,255,255)" font-family="geogebra-sans-serif, sans-serif" font-size="12px" font-style="normal" font-weight="normal" text-decoration="normal" x="90" y="157" text-anchor="start" dominant-baseline="alphabetic" stroke-opacity="1" stroke-linejoin="bevel" stroke-miterlimit="10" stroke-width="3">2</text><text fill="rgb(37,37,37)" stroke="none" font-family="geogebra-sans-serif, sans-serif" font-size="12px" font-style="normal" font-weight="normal" text-decoration="normal" x="90" y="157" text-anchor="start" dominant-baseline="alphabetic" fill-opacity="1">2</text><text fill="rgb(37,37,37)" stroke="none" font-family="geogebra-sans-serif, sans-serif" font-size="12px" font-style="normal" font-weight="normal" text-decoration="normal" x="90" y="91" text-anchor="start" dominant-baseline="alphabetic" fill-opacity="1">3</text><text fill="none" stroke="rgb(255,255,255)" font-family="geogebra-sans-serif, sans-serif" font-size="12px" font-style="normal" font-weight="normal" text-decoration="normal" x="90" y="91" text-anchor="start" dominant-baseline="alphabetic" stroke-opacity="1" stroke-linejoin="bevel" stroke-miterlimit="10" stroke-width="3">3</text><text fill="rgb(37,37,37)" stroke="none" font-family="geogebra-sans-serif, sans-serif" font-size="12px" font-style="normal" font-weight="normal" text-decoration="normal" x="90" y="91" text-anchor="start" dominant-baseline="alphabetic" fill-opacity="1">3</text><text fill="rgb(37,37,37)" stroke="none" font-family="geogebra-sans-serif, sans-serif" font-size="12px" font-style="normal" font-weight="normal" text-decoration="normal" x="90" y="26" text-anchor="start" dominant-baseline="alphabetic" fill-opacity="1">4</text><text fill="none" stroke="rgb(255,255,255)" font-family="geogebra-sans-serif, sans-serif" font-size="12px" font-style="normal" font-weight="normal" text-decoration="normal" x="90" y="26" text-anchor="start" dominant-baseline="alphabetic" stroke-opacity="1" stroke-linejoin="bevel" stroke-miterlimit="10" stroke-width="3">4</text><text fill="rgb(37,37,37)" stroke="none" font-family="geogebra-sans-serif, sans-serif" font-size="12px" font-style="normal" font-weight="normal" text-decoration="normal" x="90" y="26" text-anchor="start" dominant-baseline="alphabetic" fill-opacity="1">4</text><text fill="rgb(37,37,37)" stroke="none" font-family="geogebra-sans-serif, sans-serif" font-size="12px" font-style="normal" font-weight="normal" text-decoration="normal" x="90" y="299" text-anchor="start" dominant-baseline="alphabetic" fill-opacity="1">0</text><text fill="none" stroke="rgb(255,255,255)" font-family="geogebra-sans-serif, sans-serif" font-size="12px" font-style="normal" font-weight="normal" text-decoration="normal" x="90" y="299" text-anchor="start" dominant-baseline="alphabetic" stroke-opacity="1" stroke-linejoin="bevel" stroke-miterlimit="10" stroke-width="3">0</text><text fill="rgb(37,37,37)" stroke="none" font-family="geogebra-sans-serif, sans-serif" font-size="12px" font-style="normal" font-weight="normal" text-decoration="normal" x="90" y="299" text-anchor="start" dominant-baseline="alphabetic" fill-opacity="1">0</text><path fill="rgb(21,101,192)" stroke="none" paint-order="stroke fill markers" fill-rule="evenodd" d=" M 104.2714052893412 86.93353256976201 L 169.94117176200427 86.93353256976201 L 169.94117176200427 218.27306551508843 L 235.61093823466737 218.27306551508843 L 235.61093823466737 283.9428319877517 L 104.2714052893412 283.9428319877517 Z" fill-opacity="0.09803921568627451"/><path fill="rgb(211,47,47)" stroke="none" paint-order="stroke fill markers" fill-rule="evenodd" d=" M 235.61093823466737 218.27306551508843 L 235.61093823466737 152.60329904242522 L 169.94117176200427 188 L 169 48.00000000000003 L 104.2714052893412 86.99999999999989 L 104.2714052893412 283.9428319877517 Z" fill-opacity="0.09803921568627451"/><path fill="none" stroke="rgb(21,101,192)" paint-order="fill stroke markers" d=" M 104.2714052893412 86.93353256976201 L 169.94117176200427 86.93353256976201" stroke-opacity="0.6980392156862745" stroke-linecap="round" stroke-linejoin="round" stroke-miterlimit="10" stroke-width="2.5"/><path fill="none" stroke="rgb(21,101,192)" paint-order="fill stroke markers" d=" M 169.94117176200427 86.93353256976201 L 169.94117176200427 218.27306551508843" stroke-opacity="0.6980392156862745" stroke-linecap="round" stroke-linejoin="round" stroke-miterlimit="10" stroke-width="2.5"/><path fill="none" stroke="rgb(21,101,192)" paint-order="fill stroke markers" d=" M 169.94117176200427 218.27306551508843 L 235.61093823466737 218.27306551508843" stroke-opacity="0.6980392156862745" stroke-linecap="round" stroke-linejoin="round" stroke-miterlimit="10" stroke-width="2.5"/><path fill="none" stroke="rgb(21,101,192)" paint-order="fill stroke markers" d=" M 235.61093823466737 218.27306551508843 L 235.61093823466737 283.9428319877517" stroke-opacity="0.6980392156862745" stroke-linecap="round" stroke-linejoin="round" stroke-miterlimit="10" stroke-width="2.5"/><path fill="none" stroke="rgb(21,101,192)" paint-order="fill stroke markers" d=" M 235.61093823466737 283.9428319877517 L 104.2714052893412 283.9428319877517" stroke-opacity="0.6980392156862745" stroke-linecap="round" stroke-linejoin="round" stroke-miterlimit="10" stroke-width="2.5"/><path fill="none" stroke="rgb(21,101,192)" paint-order="fill stroke markers" d=" M 104.2714052893412 283.9428319877517 L 104.2714052893412 86.93353256976201" stroke-opacity="0.6980392156862745" stroke-linecap="round" stroke-linejoin="round" stroke-miterlimit="10" stroke-width="2.5"/><path fill="none" stroke="rgb(211,47,47)" paint-order="fill stroke markers" d=" M 235.61093823466737 218.27306551508843 L 235.61093823466737 152.60329904242522" stroke-opacity="0.6980392156862745" stroke-linecap="round" stroke-linejoin="round" stroke-miterlimit="10" stroke-width="2.5"/><path fill="none" stroke="rgb(211,47,47)" paint-order="fill stroke markers" d=" M 235.61093823466737 152.60329904242522 L 169.94117176200427 188" stroke-opacity="0.6980392156862745" stroke-linecap="round" stroke-linejoin="round" stroke-miterlimit="10" stroke-width="2.5"/><path fill="none" stroke="rgb(211,47,47)" paint-order="fill stroke markers" d=" M 169.94117176200427 188 L 169 48.00000000000003" stroke-opacity="0.6980392156862745" stroke-linecap="round" stroke-linejoin="round" stroke-miterlimit="10" stroke-width="2.5"/><path fill="none" stroke="rgb(211,47,47)" paint-order="fill stroke markers" d=" M 169 48.00000000000003 L 104.2714052893412 86.99999999999989" stroke-opacity="0.6980392156862745" stroke-linecap="round" stroke-linejoin="round" stroke-miterlimit="10" stroke-width="2.5"/><path fill="none" stroke="rgb(211,47,47)" paint-order="fill stroke markers" d=" M 104.2714052893412 86.99999999999989 L 104.2714052893412 283.9428319877517" stroke-opacity="0.6980392156862745" stroke-linecap="round" stroke-linejoin="round" stroke-miterlimit="10" stroke-width="2.5"/><path fill="none" stroke="rgb(211,47,47)" paint-order="fill stroke markers" d=" M 104.2714052893412 283.9428319877517 L 235.61093823466737 218.27306551508843" stroke-opacity="0.6980392156862745" stroke-linecap="round" stroke-linejoin="round" stroke-miterlimit="10" stroke-width="2.5"/><path fill="rgb(21,101,192)" stroke="none" paint-order="stroke fill markers" d=" M 105.2714052893412 86.93353256976201 C 105.2714052893412 87.4858173195928 104.82369003917199 87.93353256976201 104.2714052893412 87.93353256976201 C 103.71912053951041 87.93353256976201 103.2714052893412 87.4858173195928 103.2714052893412 86.93353256976201 C 103.2714052893412 86.38124781993122 103.71912053951041 85.93353256976201 104.2714052893412 85.93353256976201 C 104.82369003917199 85.93353256976201 105.2714052893412 86.38124781993122 105.2714052893412 86.93353256976201 Z" fill-opacity="1"/><path fill="rgb(21,101,192)" stroke="none" paint-order="stroke fill markers" d=" M 170.94117176200427 86.93353256976201 C 170.94117176200427 87.4858173195928 170.49345651183506 87.93353256976201 169.94117176200427 87.93353256976201 C 169.38888701217348 87.93353256976201 168.94117176200427 87.4858173195928 168.94117176200427 86.93353256976201 C 168.94117176200427 86.38124781993122 169.38888701217348 85.93353256976201 169.94117176200427 85.93353256976201 C 170.49345651183506 85.93353256976201 170.94117176200427 86.38124781993122 170.94117176200427 86.93353256976201 Z" fill-opacity="1"/><path fill="rgb(211,47,47)" stroke="none" paint-order="stroke fill markers" d=" M 170.94117176200427 218.27306551508843 C 170.94117176200427 218.82535026491922 170.49345651183506 219.27306551508843 169.94117176200427 219.27306551508843 C 169.38888701217348 219.27306551508843 168.94117176200427 218.82535026491922 168.94117176200427 218.27306551508843 C 168.94117176200427 217.72078076525764 169.38888701217348 217.27306551508843 169.94117176200427 217.27306551508843 C 170.49345651183506 217.27306551508843 170.94117176200427 217.72078076525764 170.94117176200427 218.27306551508843 Z" fill-opacity="1"/><path fill="rgb(21,101,192)" stroke="none" paint-order="stroke fill markers" d=" M 236.61093823466737 283.9428319877517 C 236.61093823466737 284.49511673758246 236.16322298449816 284.9428319877517 235.61093823466737 284.9428319877517 C 235.05865348483658 284.9428319877517 234.61093823466737 284.49511673758246 234.61093823466737 283.9428319877517 C 234.61093823466737 283.3905472379209 235.05865348483658 282.9428319877517 235.61093823466737 282.9428319877517 C 236.16322298449816 282.9428319877517 236.61093823466737 283.3905472379209 236.61093823466737 283.9428319877517 Z" fill-opacity="1"/><path fill="rgb(97,97,97)" stroke="none" paint-order="stroke fill markers" d=" M 105.2714052893412 283.9428319877517 C 105.2714052893412 284.49511673758246 104.82369003917199 284.9428319877517 104.2714052893412 284.9428319877517 C 103.71912053951041 284.9428319877517 103.2714052893412 284.49511673758246 103.2714052893412 283.9428319877517 C 103.2714052893412 283.3905472379209 103.71912053951041 282.9428319877517 104.2714052893412 282.9428319877517 C 104.82369003917199 282.9428319877517 105.2714052893412 283.3905472379209 105.2714052893412 283.9428319877517 Z" fill-opacity="1"/><path fill="rgb(21,101,192)" stroke="none" paint-order="stroke fill markers" d=" M 105.2714052893412 86.93353256976201 C 105.2714052893412 87.4858173195928 104.82369003917199 87.93353256976201 104.2714052893412 87.93353256976201 C 103.71912053951041 87.93353256976201 103.2714052893412 87.4858173195928 103.2714052893412 86.93353256976201 C 103.2714052893412 86.38124781993122 103.71912053951041 85.93353256976201 104.2714052893412 85.93353256976201 C 104.82369003917199 85.93353256976201 105.2714052893412 86.38124781993122 105.2714052893412 86.93353256976201 Z" fill-opacity="1"/><path fill="rgb(97,97,97)" stroke="none" paint-order="stroke fill markers" d=" M 105.2714052893412 283.9428319877517 C 105.2714052893412 284.49511673758246 104.82369003917199 284.9428319877517 104.2714052893412 284.9428319877517 C 103.71912053951041 284.9428319877517 103.2714052893412 284.49511673758246 103.2714052893412 283.9428319877517 C 103.2714052893412 283.3905472379209 103.71912053951041 282.9428319877517 104.2714052893412 282.9428319877517 C 104.82369003917199 282.9428319877517 105.2714052893412 283.3905472379209 105.2714052893412 283.9428319877517 Z" fill-opacity="1"/><path fill="rgb(211,47,47)" stroke="none" paint-order="stroke fill markers" d=" M 105.2714052893412 152.23870926338387 C 105.2714052893412 152.79099401321466 104.82369003917199 153.23870926338387 104.2714052893412 153.23870926338387 C 103.71912053951041 153.23870926338387 103.2714052893412 152.79099401321466 103.2714052893412 152.23870926338387 C 103.2714052893412 151.68642451355308 103.71912053951041 151.23870926338387 104.2714052893412 151.23870926338387 C 104.82369003917199 151.23870926338387 105.2714052893412 151.68642451355308 105.2714052893412 152.23870926338387 Z" fill-opacity="1"/><path fill="rgb(211,47,47)" stroke="none" paint-order="stroke fill markers" d=" M 170.94117176200427 152.60329904242522 C 170.94117176200427 153.155583792256 170.49345651183506 153.60329904242522 169.94117176200427 153.60329904242522 C 169.38888701217348 153.60329904242522 168.94117176200427 153.155583792256 168.94117176200427 152.60329904242522 C 168.94117176200427 152.05101429259443 169.38888701217348 151.60329904242522 169.94117176200427 151.60329904242522 C 170.49345651183506 151.60329904242522 170.94117176200427 152.05101429259443 170.94117176200427 152.60329904242522 Z" fill-opacity="1"/><path fill="rgb(97,97,97)" stroke="none" paint-order="stroke fill markers" d=" M 105.2714052893412 283.9428319877517 C 105.2714052893412 284.49511673758246 104.82369003917199 284.9428319877517 104.2714052893412 284.9428319877517 C 103.71912053951041 284.9428319877517 103.2714052893412 284.49511673758246 103.2714052893412 283.9428319877517 C 103.2714052893412 283.3905472379209 103.71912053951041 282.9428319877517 104.2714052893412 282.9428319877517 C 104.82369003917199 282.9428319877517 105.2714052893412 283.3905472379209 105.2714052893412 283.9428319877517 Z" fill-opacity="1"/><path fill="rgb(97,97,97)" stroke="none" paint-order="stroke fill markers" d=" M 105.2714052893412 283.9428319877517 C 105.2714052893412 284.49511673758246 104.82369003917199 284.9428319877517 104.2714052893412 284.9428319877517 C 103.71912053951041 284.9428319877517 103.2714052893412 284.49511673758246 103.2714052893412 283.9428319877517 C 103.2714052893412 283.3905472379209 103.71912053951041 282.9428319877517 104.2714052893412 282.9428319877517 C 104.82369003917199 282.9428319877517 105.2714052893412 283.3905472379209 105.2714052893412 283.9428319877517 Z" fill-opacity="1"/><path fill="rgb(211,47,47)" stroke="none" paint-order="stroke fill markers" d=" M 105.2714052893412 86.99999999999989 C 105.2714052893412 87.55228474983068 104.82369003917199 87.99999999999989 104.2714052893412 87.99999999999989 C 103.71912053951041 87.99999999999989 103.2714052893412 87.55228474983068 103.2714052893412 86.99999999999989 C 103.2714052893412 86.4477152501691 103.71912053951041 85.99999999999989 104.2714052893412 85.99999999999989 C 104.82369003917199 85.99999999999989 105.2714052893412 86.4477152501691 105.2714052893412 86.99999999999989 Z" fill-opacity="1"/><path fill="rgb(211,47,47)" stroke="none" paint-order="stroke fill markers" d=" M 170.94117176200427 218.27306551508843 C 170.94117176200427 218.82535026491922 170.49345651183506 219.27306551508843 169.94117176200427 219.27306551508843 C 169.38888701217348 219.27306551508843 168.94117176200427 218.82535026491922 168.94117176200427 218.27306551508843 C 168.94117176200427 217.72078076525764 169.38888701217348 217.27306551508843 169.94117176200427 217.27306551508843 C 170.49345651183506 217.27306551508843 170.94117176200427 217.72078076525764 170.94117176200427 218.27306551508843 Z" fill-opacity="1"/><path fill="rgb(211,47,47)" stroke="none" paint-order="stroke fill markers" d=" M 236.61093823466737 218.27306551508843 C 236.61093823466737 218.82535026491922 236.16322298449816 219.27306551508843 235.61093823466737 219.27306551508843 C 235.05865348483658 219.27306551508843 234.61093823466737 218.82535026491922 234.61093823466737 218.27306551508843 C 234.61093823466737 217.72078076525764 235.05865348483658 217.27306551508843 235.61093823466737 217.27306551508843 C 236.16322298449816 217.27306551508843 236.61093823466737 217.72078076525764 236.61093823466737 218.27306551508843 Z" fill-opacity="1"/><path fill="rgb(211,47,47)" stroke="none" paint-order="stroke fill markers" d=" M 236.61093823466737 283.9428319877517 C 236.61093823466737 284.49511673758246 236.16322298449816 284.9428319877517 235.61093823466737 284.9428319877517 C 235.05865348483658 284.9428319877517 234.61093823466737 284.49511673758246 234.61093823466737 283.9428319877517 C 234.61093823466737 283.3905472379209 235.05865348483658 282.9428319877517 235.61093823466737 282.9428319877517 C 236.16322298449816 282.9428319877517 236.61093823466737 283.3905472379209 236.61093823466737 283.9428319877517 Z" fill-opacity="1"/><path fill="rgb(211,47,47)" stroke="none" paint-order="stroke fill markers" d=" M 105.2714052893412 86.93353256976201 C 105.2714052893412 87.4858173195928 104.82369003917199 87.93353256976201 104.2714052893412 87.93353256976201 C 103.71912053951041 87.93353256976201 103.2714052893412 87.4858173195928 103.2714052893412 86.93353256976201 C 103.2714052893412 86.38124781993122 103.71912053951041 85.93353256976201 104.2714052893412 85.93353256976201 C 104.82369003917199 85.93353256976201 105.2714052893412 86.38124781993122 105.2714052893412 86.93353256976201 Z" fill-opacity="1"/><path fill="rgb(21,101,192)" stroke="none" paint-order="stroke fill markers" d=" M 172 218.27306551508843 C 172 218.82535026491922 171.5522847498308 219.27306551508843 171 219.27306551508843 C 170.4477152501692 219.27306551508843 170 218.82535026491922 170 218.27306551508843 C 170 217.72078076525764 170.4477152501692 217.27306551508843 171 217.27306551508843 C 171.5522847498308 217.27306551508843 172 217.72078076525764 172 218.27306551508843 Z" fill-opacity="1"/><path fill="rgb(211,47,47)" stroke="none" paint-order="stroke fill markers" d=" M 236.61093823466737 152.60329904242522 C 236.61093823466737 153.155583792256 236.16322298449816 153.60329904242522 235.61093823466737 153.60329904242522 C 235.05865348483658 153.60329904242522 234.61093823466737 153.155583792256 234.61093823466737 152.60329904242522 C 234.61093823466737 152.05101429259443 235.05865348483658 151.60329904242522 235.61093823466737 151.60329904242522 C 236.16322298449816 151.60329904242522 236.61093823466737 152.05101429259443 236.61093823466737 152.60329904242522 Z" fill-opacity="1"/><path fill="rgb(21,101,192)" stroke="none" paint-order="stroke fill markers" d=" M 170.94117176200427 188 C 170.94117176200427 188.5522847498308 170.49345651183506 189 169.94117176200427 189 C 169.38888701217348 189 168.94117176200427 188.5522847498308 168.94117176200427 188 C 168.94117176200427 187.4477152501692 169.38888701217348 187 169.94117176200427 187 C 170.49345651183506 187 170.94117176200427 187.4477152501692 170.94117176200427 188 Z" fill-opacity="1"/><path fill="rgb(211,47,47)" stroke="none" paint-order="stroke fill markers" d=" M 170 48.00000000000003 C 170 48.55228474983082 169.5522847498308 49.00000000000003 169 49.00000000000003 C 168.4477152501692 49.00000000000003 168 48.55228474983082 168 48.00000000000003 C 168 47.44771525016923 168.4477152501692 47.00000000000003 169 47.00000000000003 C 169.5522847498308 47.00000000000003 170 47.44771525016923 170 48.00000000000003 Z" fill-opacity="1"/></g></g></svg>