<svg version="1.1" xmlns="http://www.w3.org/2000/svg" xmlns:xlink="http://www.w3.org/1999/xlink" width="342" height="480"><defs><clipPath id="KyVvDofAgaAQ"><path fill="none" stroke="none" d=" M 0 0 L 342 0 L 342 480 L 0 480 L 0 0 Z"/></clipPath></defs><g transform="scale(1,1)" clip-path="url(#KyVvDofAgaAQ)"><g><rect fill="rgb(255,255,255)" stroke="none" x="0" y="0" width="342" height="481" fill-opacity="1"/><path fill="none" stroke="rgb(192,192,192)" paint-order="fill stroke markers" d=" M 20.5 0.5 L 20.5 480.5 M 20.5 0.5 L 20.5 480.5 M 179.5 0.5 L 179.5 480.5 M 258.5 0.5 L 258.5 480.5 M 338.5 0.5 L 338.5 480.5" stroke-opacity="1" stroke-linecap="round" stroke-linejoin="round" stroke-miterlimit="10"/><path fill="none" stroke="rgb(192,192,192)" paint-order="fill stroke markers" d=" M 5.5 0.5 L 5.5 480.5 M 36.5 0.5 L 36.5 480.5 M 52.5 0.5 L 52.5 480.5 M 68.5 0.5 L 68.5 480.5 M 84.5 0.5 L 84.5 480.5 M 116.5 0.5 L 116.5 480.5 M 131.5 0.5 L 131.5 480.5 M 147.5 0.5 L 147.5 480.5 M 163.5 0.5 L 163.5 480.5 M 195.5 0.5 L 195.5 480.5 M 211.5 0.5 L 211.5 480.5 M 227.5 0.5 L 227.5 480.5 M 243.5 0.5 L 243.5 480.5 M 274.5 0.5 L 274.5 480.5 M 290.5 0.5 L 290.5 480.5 M 306.5 0.5 L 306.5 480.5 M 322.5 0.5 L 322.5 480.5" stroke-opacity="0.23529411764705882" stroke-linecap="round" stroke-linejoin="round" stroke-miterlimit="10"/><path fill="none" stroke="rgb(192,192,192)" paint-order="fill stroke markers" d=" M 0.5 77.5 L 342.5 77.5 M 0.5 77.5 L 342.5 77.5 M 0.5 157.5 L 342.5 157.5 M 0.5 236.5 L 342.5 236.5 M 0.5 315.5 L 342.5 315.5 M 0.5 474.5 L 342.5 474.5" stroke-opacity="1" stroke-linecap="round" stroke-linejoin="round" stroke-miterlimit="10"/><path fill="none" stroke="rgb(192,192,192)" paint-order="fill stroke markers" d=" M 0.5 14.5 L 342.5 14.5 M 0.5 30.5 L 342.5 30.5 M 0.5 46.5 L 342.5 46.5 M 0.5 62.5 L 342.5 62.5 M 0.5 93.5 L 342.5 93.5 M 0.5 109.5 L 342.5 109.5 M 0.5 125.5 L 342.5 125.5 M 0.5 141.5 L 342.5 141.5 M 0.5 173.5 L 342.5 173.5 M 0.5 188.5 L 342.5 188.5 M 0.5 204.5 L 342.5 204.5 M 0.5 220.5 L 342.5 220.5 M 0.5 252.5 L 342.5 252.5 M 0.5 268.5 L 342.5 268.5 M 0.5 284.5 L 342.5 284.5 M 0.5 299.5 L 342.5 299.5 M 0.5 331.5 L 342.5 331.5 M 0.5 347.5 L 342.5 347.5 M 0.5 363.5 L 342.5 363.5 M 0.5 379.5 L 342.5 379.5 M 0.5 410.5 L 342.5 410.5 M 0.5 426.5 L 342.5 426.5 M 0.5 442.5 L 342.5 442.5 M 0.5 458.5 L 342.5 458.5" stroke-opacity="0.23529411764705882" stroke-linecap="round" stroke-linejoin="round" stroke-miterlimit="10"/><path fill="none" stroke="rgb(37,37,37)" paint-order="fill stroke markers" d=" M 100.5 2.5 L 100.5 480.5" stroke-opacity="1" stroke-miterlimit="10"/><path fill="none" stroke="rgb(37,37,37)" paint-order="fill stroke markers" d=" M 100.5 1.5 L 96.5 5.5" stroke-opacity="1" stroke-miterlimit="10"/><path fill="none" stroke="rgb(37,37,37)" paint-order="fill stroke markers" d=" M 100.5 1.5 L 104.5 5.5" stroke-opacity="1" stroke-miterlimit="10"/><path fill="none" stroke="rgb(37,37,37)" paint-order="fill stroke markers" d=" M 0.5 395.5 L 340.5 395.5" stroke-opacity="1" stroke-miterlimit="10"/><path fill="none" stroke="rgb(37,37,37)" paint-order="fill stroke markers" d=" M 341.5 395.5 L 337.5 391.5" stroke-opacity="1" stroke-miterlimit="10"/><path fill="none" stroke="rgb(37,37,37)" paint-order="fill stroke markers" d=" M 341.5 395.5 L 337.5 399.5" stroke-opacity="1" stroke-miterlimit="10"/><text fill="rgb(37,37,37)" stroke="none" font-family="geogebra-sans-serif, sans-serif" font-size="12px" font-style="normal" font-weight="normal" text-decoration="normal" x="15" y="411" text-anchor="start" dominant-baseline="alphabetic" fill-opacity="1">–1</text><text fill="none" stroke="rgb(255,255,255)" font-family="geogebra-sans-serif, sans-serif" font-size="12px" font-style="normal" font-weight="normal" text-decoration="normal" x="15" y="411" text-anchor="start" dominant-baseline="alphabetic" stroke-opacity="1" stroke-linejoin="bevel" stroke-miterlimit="10" stroke-width="3">–1</text><text fill="rgb(37,37,37)" stroke="none" font-family="geogebra-sans-serif, sans-serif" font-size="12px" font-style="normal" font-weight="normal" text-decoration="normal" x="15" y="411" text-anchor="start" dominant-baseline="alphabetic" fill-opacity="1">–1</text><text fill="rgb(37,37,37)" stroke="none" font-family="geogebra-sans-serif, sans-serif" font-size="12px" font-style="normal" font-weight="normal" text-decoration="normal" x="177" y="411" text-anchor="start" dominant-baseline="alphabetic" fill-opacity="1">1</text><text fill="none" stroke="rgb(255,255,255)" font-family="geogebra-sans-serif, sans-serif" font-size="12px" font-style="normal" font-weight="normal" text-decoration="normal" x="177" y="411" text-anchor="start" dominant-baseline="alphabetic" stroke-opacity="1" stroke-linejoin="bevel" stroke-miterlimit="10" stroke-width="3">1</text><text fill="rgb(37,37,37)" stroke="none" font-family="geogebra-sans-serif, sans-serif" font-size="12px" font-style="normal" font-weight="normal" text-decoration="normal" x="177" y="411" text-anchor="start" dominant-baseline="alphabetic" fill-opacity="1">1</text><text fill="rgb(37,37,37)" stroke="none" font-family="geogebra-sans-serif, sans-serif" font-size="12px" font-style="normal" font-weight="normal" text-decoration="normal" x="256" y="411" text-anchor="start" dominant-baseline="alphabetic" fill-opacity="1">2</text><text fill="none" stroke="rgb(255,255,255)" font-family="geogebra-sans-serif, sans-serif" font-size="12px" font-style="normal" font-weight="normal" text-decoration="normal" x="256" y="411" text-anchor="start" dominant-baseline="alphabetic" stroke-opacity="1" stroke-linejoin="bevel" stroke-miterlimit="10" stroke-width="3">2</text><text fill="rgb(37,37,37)" stroke="none" font-family="geogebra-sans-serif, sans-serif" font-size="12px" font-style="normal" font-weight="normal" text-decoration="normal" x="256" y="411" text-anchor="start" dominant-baseline="alphabetic" fill-opacity="1">2</text><text fill="rgb(37,37,37)" stroke="none" font-family="geogebra-sans-serif, sans-serif" font-size="12px" font-style="normal" font-weight="normal" text-decoration="normal" x="86" y="320" text-anchor="start" dominant-baseline="alphabetic" fill-opacity="1">1</text><text fill="none" stroke="rgb(255,255,255)" font-family="geogebra-sans-serif, sans-serif" font-size="12px" font-style="normal" font-weight="normal" text-decoration="normal" x="86" y="320" text-anchor="start" dominant-baseline="alphabetic" stroke-opacity="1" stroke-linejoin="bevel" stroke-miterlimit="10" stroke-width="3">1</text><text fill="rgb(37,37,37)" stroke="none" font-family="geogebra-sans-serif, sans-serif" font-size="12px" font-style="normal" font-weight="normal" text-decoration="normal" x="86" y="320" text-anchor="start" dominant-baseline="alphabetic" fill-opacity="1">1</text><text fill="rgb(37,37,37)" stroke="none" font-family="geogebra-sans-serif, sans-serif" font-size="12px" font-style="normal" font-weight="normal" text-decoration="normal" x="86" y="241" text-anchor="start" dominant-baseline="alphabetic" fill-opacity="1">2</text><text fill="none" stroke="rgb(255,255,255)" font-family="geogebra-sans-serif, sans-serif" font-size="12px" font-style="normal" font-weight="normal" text-decoration="normal" x="86" y="241" text-anchor="start" dominant-baseline="alphabetic" stroke-opacity="1" stroke-linejoin="bevel" stroke-miterlimit="10" stroke-width="3">2</text><text fill="rgb(37,37,37)" stroke="none" font-family="geogebra-sans-serif, sans-serif" font-size="12px" font-style="normal" font-weight="normal" text-decoration="normal" x="86" y="241" text-anchor="start" dominant-baseline="alphabetic" fill-opacity="1">2</text><text fill="rgb(37,37,37)" stroke="none" font-family="geogebra-sans-serif, sans-serif" font-size="12px" font-style="normal" font-weight="normal" text-decoration="normal" x="86" y="162" text-anchor="start" dominant-baseline="alphabetic" fill-opacity="1">3</text><text fill="none" stroke="rgb(255,255,255)" font-family="geogebra-sans-serif, sans-serif" font-size="12px" font-style="normal" font-weight="normal" text-decoration="normal" x="86" y="162" text-anchor="start" dominant-baseline="alphabetic" stroke-opacity="1" stroke-linejoin="bevel" stroke-miterlimit="10" stroke-width="3">3</text><text fill="rgb(37,37,37)" stroke="none" font-family="geogebra-sans-serif, sans-serif" font-size="12px" font-style="normal" font-weight="normal" text-decoration="normal" x="86" y="162" text-anchor="start" dominant-baseline="alphabetic" fill-opacity="1">3</text><text fill="rgb(37,37,37)" stroke="none" font-family="geogebra-sans-serif, sans-serif" font-size="12px" font-style="normal" font-weight="normal" text-decoration="normal" x="86" y="82" text-anchor="start" dominant-baseline="alphabetic" fill-opacity="1">4</text><text fill="none" stroke="rgb(255,255,255)" font-family="geogebra-sans-serif, sans-serif" font-size="12px" font-style="normal" font-weight="normal" text-decoration="normal" x="86" y="82" text-anchor="start" dominant-baseline="alphabetic" stroke-opacity="1" stroke-linejoin="bevel" stroke-miterlimit="10" stroke-width="3">4</text><text fill="rgb(37,37,37)" stroke="none" font-family="geogebra-sans-serif, sans-serif" font-size="12px" font-style="normal" font-weight="normal" text-decoration="normal" x="86" y="82" text-anchor="start" dominant-baseline="alphabetic" fill-opacity="1">4</text><text fill="rgb(37,37,37)" stroke="none" font-family="geogebra-sans-serif, sans-serif" font-size="12px" font-style="normal" font-weight="normal" text-decoration="normal" x="86" y="411" text-anchor="start" dominant-baseline="alphabetic" fill-opacity="1">0</text><text fill="none" stroke="rgb(255,255,255)" font-family="geogebra-sans-serif, sans-serif" font-size="12px" font-style="normal" font-weight="normal" text-decoration="normal" x="86" y="411" text-anchor="start" dominant-baseline="alphabetic" stroke-opacity="1" stroke-linejoin="bevel" stroke-miterlimit="10" stroke-width="3">0</text><text fill="rgb(37,37,37)" stroke="none" font-family="geogebra-sans-serif, sans-serif" font-size="12px" font-style="normal" font-weight="normal" text-decoration="normal" x="86" y="411" text-anchor="start" dominant-baseline="alphabetic" fill-opacity="1">0</text><path fill="rgb(21,101,192)" stroke="none" paint-order="stroke fill markers" fill-rule="evenodd" d=" M 100.26660543843037 157.17503645187756 L 179.5693727171249 157.17503645187756 L 179.5693727171249 315.7805710092665 L 258.87213999581945 315.7805710092665 L 258.87213999581945 395.08333828796094 L 100.26660543843037 395.08333828796094 Z" fill-opacity="0.09803921568627451"/><path fill="rgb(211,47,47)" stroke="none" paint-order="stroke fill markers" fill-rule="evenodd" d=" M 100.26660543843037 38.22088553383588 L 179.5693727171249 38.22088553383588 L 179.5693727171249 276.12918736991924 L 258.87213999581945 276.12918736991924 L 258.87213999581945 395.08333828796094 L 100.26660543843037 395.08333828796094 Z" fill-opacity="0.09803921568627451"/><path fill="none" stroke="rgb(21,101,192)" paint-order="fill stroke markers" d=" M 100.26660543843037 157.17503645187756 L 179.5693727171249 157.17503645187756" stroke-opacity="0.6980392156862745" stroke-linecap="round" stroke-linejoin="round" stroke-miterlimit="10" stroke-width="2.5"/><path fill="none" stroke="rgb(21,101,192)" paint-order="fill stroke markers" d=" M 179.5693727171249 157.17503645187756 L 179.5693727171249 315.7805710092665" stroke-opacity="0.6980392156862745" stroke-linecap="round" stroke-linejoin="round" stroke-miterlimit="10" stroke-width="2.5"/><path fill="none" stroke="rgb(21,101,192)" paint-order="fill stroke markers" d=" M 179.5693727171249 315.7805710092665 L 258.87213999581945 315.7805710092665" stroke-opacity="0.6980392156862745" stroke-linecap="round" stroke-linejoin="round" stroke-miterlimit="10" stroke-width="2.5"/><path fill="none" stroke="rgb(21,101,192)" paint-order="fill stroke markers" d=" M 258.87213999581945 315.7805710092665 L 258.87213999581945 395.08333828796094" stroke-opacity="0.6980392156862745" stroke-linecap="round" stroke-linejoin="round" stroke-miterlimit="10" stroke-width="2.5"/><path fill="none" stroke="rgb(21,101,192)" paint-order="fill stroke markers" d=" M 258.87213999581945 395.08333828796094 L 100.26660543843037 395.08333828796094" stroke-opacity="0.6980392156862745" stroke-linecap="round" stroke-linejoin="round" stroke-miterlimit="10" stroke-width="2.5"/><path fill="none" stroke="rgb(21,101,192)" paint-order="fill stroke markers" d=" M 100.26660543843037 395.08333828796094 L 100.26660543843037 157.17503645187756" stroke-opacity="0.6980392156862745" stroke-linecap="round" stroke-linejoin="round" stroke-miterlimit="10" stroke-width="2.5"/><path fill="none" stroke="rgb(211,47,47)" paint-order="fill stroke markers" d=" M 100.26660543843037 38.22088553383588 L 179.5693727171249 38.22088553383588" stroke-opacity="0.6980392156862745" stroke-linecap="round" stroke-linejoin="round" stroke-miterlimit="10" stroke-width="2.5"/><path fill="none" stroke="rgb(211,47,47)" paint-order="fill stroke markers" d=" M 179.5693727171249 38.22088553383588 L 179.5693727171249 276.12918736991924" stroke-opacity="0.6980392156862745" stroke-linecap="round" stroke-linejoin="round" stroke-miterlimit="10" stroke-width="2.5"/><path fill="none" stroke="rgb(211,47,47)" paint-order="fill stroke markers" d=" M 179.5693727171249 276.12918736991924 L 258.87213999581945 276.12918736991924" stroke-opacity="0.6980392156862745" stroke-linecap="round" stroke-linejoin="round" stroke-miterlimit="10" stroke-width="2.5"/><path fill="none" stroke="rgb(211,47,47)" paint-order="fill stroke markers" d=" M 258.87213999581945 276.12918736991924 L 258.87213999581945 395.08333828796094" stroke-opacity="0.6980392156862745" stroke-linecap="round" stroke-linejoin="round" stroke-miterlimit="10" stroke-width="2.5"/><path fill="none" stroke="rgb(211,47,47)" paint-order="fill stroke markers" d=" M 258.87213999581945 395.08333828796094 L 100.26660543843037 395.08333828796094" stroke-opacity="0.6980392156862745" stroke-linecap="round" stroke-linejoin="round" stroke-miterlimit="10" stroke-width="2.5"/><path fill="none" stroke="rgb(211,47,47)" paint-order="fill stroke markers" d=" M 100.26660543843037 395.08333828796094 L 100.26660543843037 38.22088553383588" stroke-opacity="0.6980392156862745" stroke-linecap="round" stroke-linejoin="round" stroke-miterlimit="10" stroke-width="2.5"/><path fill="rgb(21,101,192)" stroke="none" paint-order="stroke fill markers" d=" M 101.26660543843037 157.17503645187756 C 101.26660543843037 157.72732120170835 100.81889018826116 158.17503645187756 100.26660543843037 158.17503645187756 C 99.71432068859959 158.17503645187756 99.26660543843037 157.72732120170835 99.26660543843037 157.17503645187756 C 99.26660543843037 156.62275170204677 99.71432068859959 156.17503645187756 100.26660543843037 156.17503645187756 C 100.81889018826116 156.17503645187756 101.26660543843037 156.62275170204677 101.26660543843037 157.17503645187756 Z" fill-opacity="1"/><path fill="rgb(21,101,192)" stroke="none" paint-order="stroke fill markers" d=" M 180.5693727171249 157.17503645187756 C 180.5693727171249 157.72732120170835 180.1216574669557 158.17503645187756 179.5693727171249 158.17503645187756 C 179.01708796729412 158.17503645187756 178.5693727171249 157.72732120170835 178.5693727171249 157.17503645187756 C 178.5693727171249 156.62275170204677 179.01708796729412 156.17503645187756 179.5693727171249 156.17503645187756 C 180.1216574669557 156.17503645187756 180.5693727171249 156.62275170204677 180.5693727171249 157.17503645187756 Z" fill-opacity="1"/><path fill="rgb(211,47,47)" stroke="none" paint-order="stroke fill markers" d=" M 180.5693727171249 315.7805710092665 C 180.5693727171249 316.3328557590973 180.1216574669557 316.7805710092665 179.5693727171249 316.7805710092665 C 179.01708796729412 316.7805710092665 178.5693727171249 316.3328557590973 178.5693727171249 315.7805710092665 C 178.5693727171249 315.2282862594357 179.01708796729412 314.7805710092665 179.5693727171249 314.7805710092665 C 180.1216574669557 314.7805710092665 180.5693727171249 315.2282862594357 180.5693727171249 315.7805710092665 Z" fill-opacity="1"/><path fill="rgb(21,101,192)" stroke="none" paint-order="stroke fill markers" d=" M 259.87213999581945 395.08333828796094 C 259.87213999581945 395.63562303779173 259.42442474565024 396.08333828796094 258.87213999581945 396.08333828796094 C 258.31985524598866 396.08333828796094 257.87213999581945 395.63562303779173 257.87213999581945 395.08333828796094 C 257.87213999581945 394.53105353813015 258.31985524598866 394.08333828796094 258.87213999581945 394.08333828796094 C 259.42442474565024 394.08333828796094 259.87213999581945 394.53105353813015 259.87213999581945 395.08333828796094 Z" fill-opacity="1"/><path fill="rgb(97,97,97)" stroke="none" paint-order="stroke fill markers" d=" M 101.26660543843037 395.08333828796094 C 101.26660543843037 395.63562303779173 100.81889018826116 396.08333828796094 100.26660543843037 396.08333828796094 C 99.71432068859959 396.08333828796094 99.26660543843037 395.63562303779173 99.26660543843037 395.08333828796094 C 99.26660543843037 394.53105353813015 99.71432068859959 394.08333828796094 100.26660543843037 394.08333828796094 C 100.81889018826116 394.08333828796094 101.26660543843037 394.53105353813015 101.26660543843037 395.08333828796094 Z" fill-opacity="1"/><path fill="rgb(21,101,192)" stroke="none" paint-order="stroke fill markers" d=" M 101.26660543843037 157.17503645187756 C 101.26660543843037 157.72732120170835 100.81889018826116 158.17503645187756 100.26660543843037 158.17503645187756 C 99.71432068859959 158.17503645187756 99.26660543843037 157.72732120170835 99.26660543843037 157.17503645187756 C 99.26660543843037 156.62275170204677 99.71432068859959 156.17503645187756 100.26660543843037 156.17503645187756 C 100.81889018826116 156.17503645187756 101.26660543843037 156.62275170204677 101.26660543843037 157.17503645187756 Z" fill-opacity="1"/><path fill="rgb(97,97,97)" stroke="none" paint-order="stroke fill markers" d=" M 101.26660543843037 395.08333828796094 C 101.26660543843037 395.63562303779173 100.81889018826116 396.08333828796094 100.26660543843037 396.08333828796094 C 99.71432068859959 396.08333828796094 99.26660543843037 395.63562303779173 99.26660543843037 395.08333828796094 C 99.26660543843037 394.53105353813015 99.71432068859959 394.08333828796094 100.26660543843037 394.08333828796094 C 100.81889018826116 394.08333828796094 101.26660543843037 394.53105353813015 101.26660543843037 395.08333828796094 Z" fill-opacity="1"/><path fill="rgb(211,47,47)" stroke="none" paint-order="stroke fill markers" d=" M 101.26660543843037 236.0375253505424 C 101.26660543843037 236.5898101003732 100.81889018826116 237.0375253505424 100.26660543843037 237.0375253505424 C 99.71432068859959 237.0375253505424 99.26660543843037 236.5898101003732 99.26660543843037 236.0375253505424 C 99.26660543843037 235.48524060071162 99.71432068859959 235.0375253505424 100.26660543843037 235.0375253505424 C 100.81889018826116 235.0375253505424 101.26660543843037 235.48524060071162 101.26660543843037 236.0375253505424 Z" fill-opacity="1"/><path fill="rgb(211,47,47)" stroke="none" paint-order="stroke fill markers" d=" M 180.5693727171249 236.47780373057202 C 180.5693727171249 237.0300884804028 180.1216574669557 237.47780373057202 179.5693727171249 237.47780373057202 C 179.01708796729412 237.47780373057202 178.5693727171249 237.0300884804028 178.5693727171249 236.47780373057202 C 178.5693727171249 235.92551898074123 179.01708796729412 235.47780373057202 179.5693727171249 235.47780373057202 C 180.1216574669557 235.47780373057202 180.5693727171249 235.92551898074123 180.5693727171249 236.47780373057202 Z" fill-opacity="1"/><path fill="rgb(97,97,97)" stroke="none" paint-order="stroke fill markers" d=" M 101.26660543843037 395.08333828796094 C 101.26660543843037 395.63562303779173 100.81889018826116 396.08333828796094 100.26660543843037 396.08333828796094 C 99.71432068859959 396.08333828796094 99.26660543843037 395.63562303779173 99.26660543843037 395.08333828796094 C 99.26660543843037 394.53105353813015 99.71432068859959 394.08333828796094 100.26660543843037 394.08333828796094 C 100.81889018826116 394.08333828796094 101.26660543843037 394.53105353813015 101.26660543843037 395.08333828796094 Z" fill-opacity="1"/><path fill="rgb(211,47,47)" stroke="none" paint-order="stroke fill markers" d=" M 101.26660543843037 474.3861055666554 C 101.26660543843037 474.93839031648616 100.81889018826116 475.3861055666554 100.26660543843037 475.3861055666554 C 99.71432068859959 475.3861055666554 99.26660543843037 474.93839031648616 99.26660543843037 474.3861055666554 C 99.26660543843037 473.8338208168246 99.71432068859959 473.3861055666554 100.26660543843037 473.3861055666554 C 100.81889018826116 473.3861055666554 101.26660543843037 473.8338208168246 101.26660543843037 474.3861055666554 Z" fill-opacity="1"/><path fill="rgb(97,97,97)" stroke="none" paint-order="stroke fill markers" d=" M 101.26660543843037 395.08333828796094 C 101.26660543843037 395.63562303779173 100.81889018826116 396.08333828796094 100.26660543843037 396.08333828796094 C 99.71432068859959 396.08333828796094 99.26660543843037 395.63562303779173 99.26660543843037 395.08333828796094 C 99.26660543843037 394.53105353813015 99.71432068859959 394.08333828796094 100.26660543843037 394.08333828796094 C 100.81889018826116 394.08333828796094 101.26660543843037 394.53105353813015 101.26660543843037 395.08333828796094 Z" fill-opacity="1"/><path fill="rgb(211,47,47)" stroke="none" paint-order="stroke fill markers" d=" M 101.26660543843037 474.3861055666554 C 101.26660543843037 474.93839031648616 100.81889018826116 475.3861055666554 100.26660543843037 475.3861055666554 C 99.71432068859959 475.3861055666554 99.26660543843037 474.93839031648616 99.26660543843037 474.3861055666554 C 99.26660543843037 473.8338208168246 99.71432068859959 473.3861055666554 100.26660543843037 473.3861055666554 C 100.81889018826116 473.3861055666554 101.26660543843037 473.8338208168246 101.26660543843037 474.3861055666554 Z" fill-opacity="1"/><path fill="rgb(211,47,47)" stroke="none" paint-order="stroke fill markers" d=" M 101.26660543843037 38.22088553383588 C 101.26660543843037 38.77317028366667 100.81889018826116 39.22088553383588 100.26660543843037 39.22088553383588 C 99.71432068859959 39.22088553383588 99.26660543843037 38.77317028366667 99.26660543843037 38.22088553383588 C 99.26660543843037 37.668600784005086 99.71432068859959 37.22088553383588 100.26660543843037 37.22088553383588 C 100.81889018826116 37.22088553383588 101.26660543843037 37.668600784005086 101.26660543843037 38.22088553383588 Z" fill-opacity="1"/><path fill="rgb(211,47,47)" stroke="none" paint-order="stroke fill markers" d=" M 180.5693727171249 38.22088553383588 C 180.5693727171249 38.77317028366667 180.1216574669557 39.22088553383588 179.5693727171249 39.22088553383588 C 179.01708796729412 39.22088553383588 178.5693727171249 38.77317028366667 178.5693727171249 38.22088553383588 C 178.5693727171249 37.668600784005086 179.01708796729412 37.22088553383588 179.5693727171249 37.22088553383588 C 180.1216574669557 37.22088553383588 180.5693727171249 37.668600784005086 180.5693727171249 38.22088553383588 Z" fill-opacity="1"/><path fill="rgb(211,47,47)" stroke="none" paint-order="stroke fill markers" d=" M 180.5693727171249 276.12918736991924 C 180.5693727171249 276.68147211975 180.1216574669557 277.12918736991924 179.5693727171249 277.12918736991924 C 179.01708796729412 277.12918736991924 178.5693727171249 276.68147211975 178.5693727171249 276.12918736991924 C 178.5693727171249 275.57690262008845 179.01708796729412 275.12918736991924 179.5693727171249 275.12918736991924 C 180.1216574669557 275.12918736991924 180.5693727171249 275.57690262008845 180.5693727171249 276.12918736991924 Z" fill-opacity="1"/><path fill="rgb(211,47,47)" stroke="none" paint-order="stroke fill markers" d=" M 259.87213999581945 276.12918736991924 C 259.87213999581945 276.68147211975 259.42442474565024 277.12918736991924 258.87213999581945 277.12918736991924 C 258.31985524598866 277.12918736991924 257.87213999581945 276.68147211975 257.87213999581945 276.12918736991924 C 257.87213999581945 275.57690262008845 258.31985524598866 275.12918736991924 258.87213999581945 275.12918736991924 C 259.42442474565024 275.12918736991924 259.87213999581945 275.57690262008845 259.87213999581945 276.12918736991924 Z" fill-opacity="1"/><path fill="rgb(211,47,47)" stroke="none" paint-order="stroke fill markers" d=" M 259.87213999581945 395.08333828796094 C 259.87213999581945 395.63562303779173 259.42442474565024 396.08333828796094 258.87213999581945 396.08333828796094 C 258.31985524598866 396.08333828796094 257.87213999581945 395.63562303779173 257.87213999581945 395.08333828796094 C 257.87213999581945 394.53105353813015 258.31985524598866 394.08333828796094 258.87213999581945 394.08333828796094 C 259.42442474565024 394.08333828796094 259.87213999581945 394.53105353813015 259.87213999581945 395.08333828796094 Z" fill-opacity="1"/></g></g></svg>