<svg version="1.1" xmlns="http://www.w3.org/2000/svg" xmlns:xlink="http://www.w3.org/1999/xlink" width="342" height="346"><defs><clipPath id="TZmnkmZIeGJg"><path fill="none" stroke="none" d=" M 0 0 L 342 0 L 342 346 L 0 346 L 0 0 Z"/></clipPath></defs><g transform="scale(1,1)" clip-path="url(#TZmnkmZIeGJg)"><g><rect fill="rgb(255,255,255)" stroke="none" x="0" y="0" width="342" height="347" fill-opacity="1"/><path fill="none" stroke="rgb(192,192,192)" paint-order="fill stroke markers" d=" M 47.5 0.5 L 47.5 346.5 M 47.5 0.5 L 47.5 346.5 M 178.5 0.5 L 178.5 346.5 M 244.5 0.5 L 244.5 346.5 M 310.5 0.5 L 310.5 346.5" stroke-opacity="1" stroke-linecap="round" stroke-linejoin="round" stroke-miterlimit="10"/><path fill="none" stroke="rgb(192,192,192)" paint-order="fill stroke markers" d=" M 8.5 0.5 L 8.5 346.5 M 21.5 0.5 L 21.5 346.5 M 34.5 0.5 L 34.5 346.5 M 60.5 0.5 L 60.5 346.5 M 73.5 0.5 L 73.5 346.5 M 87.5 0.5 L 87.5 346.5 M 100.5 0.5 L 100.5 346.5 M 126.5 0.5 L 126.5 346.5 M 139.5 0.5 L 139.5 346.5 M 152.5 0.5 L 152.5 346.5 M 165.5 0.5 L 165.5 346.5 M 192.5 0.5 L 192.5 346.5 M 205.5 0.5 L 205.5 346.5 M 218.5 0.5 L 218.5 346.5 M 231.5 0.5 L 231.5 346.5 M 257.5 0.5 L 257.5 346.5 M 270.5 0.5 L 270.5 346.5 M 284.5 0.5 L 284.5 346.5 M 297.5 0.5 L 297.5 346.5 M 323.5 0.5 L 323.5 346.5 M 336.5 0.5 L 336.5 346.5" stroke-opacity="0.23529411764705882" stroke-linecap="round" stroke-linejoin="round" stroke-miterlimit="10"/><path fill="none" stroke="rgb(192,192,192)" paint-order="fill stroke markers" d=" M 0.5 52.5 L 342.5 52.5 M 0.5 52.5 L 342.5 52.5 M 0.5 118.5 L 342.5 118.5 M 0.5 184.5 L 342.5 184.5 M 0.5 315.5 L 342.5 315.5" stroke-opacity="1" stroke-linecap="round" stroke-linejoin="round" stroke-miterlimit="10"/><path fill="none" stroke="rgb(192,192,192)" paint-order="fill stroke markers" d=" M 0.5 0.5 L 342.5 0.5 M 0.5 13.5 L 342.5 13.5 M 0.5 26.5 L 342.5 26.5 M 0.5 39.5 L 342.5 39.5 M 0.5 66.5 L 342.5 66.5 M 0.5 79.5 L 342.5 79.5 M 0.5 92.5 L 342.5 92.5 M 0.5 105.5 L 342.5 105.5 M 0.5 131.5 L 342.5 131.5 M 0.5 144.5 L 342.5 144.5 M 0.5 158.5 L 342.5 158.5 M 0.5 171.5 L 342.5 171.5 M 0.5 197.5 L 342.5 197.5 M 0.5 210.5 L 342.5 210.5 M 0.5 223.5 L 342.5 223.5 M 0.5 236.5 L 342.5 236.5 M 0.5 263.5 L 342.5 263.5 M 0.5 276.5 L 342.5 276.5 M 0.5 289.5 L 342.5 289.5 M 0.5 302.5 L 342.5 302.5 M 0.5 328.5 L 342.5 328.5 M 0.5 341.5 L 342.5 341.5" stroke-opacity="0.23529411764705882" stroke-linecap="round" stroke-linejoin="round" stroke-miterlimit="10"/><path fill="none" stroke="rgb(37,37,37)" paint-order="fill stroke markers" d=" M 113.5 2.5 L 113.5 346.5" stroke-opacity="1" stroke-miterlimit="10"/><path fill="none" stroke="rgb(37,37,37)" paint-order="fill stroke markers" d=" M 113.5 1.5 L 109.5 5.5" stroke-opacity="1" stroke-miterlimit="10"/><path fill="none" stroke="rgb(37,37,37)" paint-order="fill stroke markers" d=" M 113.5 1.5 L 117.5 5.5" stroke-opacity="1" stroke-miterlimit="10"/><path fill="none" stroke="rgb(37,37,37)" paint-order="fill stroke markers" d=" M 0.5 249.5 L 340.5 249.5" stroke-opacity="1" stroke-miterlimit="10"/><path fill="none" stroke="rgb(37,37,37)" paint-order="fill stroke markers" d=" M 341.5 249.5 L 337.5 245.5" stroke-opacity="1" stroke-miterlimit="10"/><path fill="none" stroke="rgb(37,37,37)" paint-order="fill stroke markers" d=" M 341.5 249.5 L 337.5 253.5" stroke-opacity="1" stroke-miterlimit="10"/><text fill="rgb(37,37,37)" stroke="none" font-family="geogebra-sans-serif, sans-serif" font-size="12px" font-style="normal" font-weight="normal" text-decoration="normal" x="42" y="265" text-anchor="start" dominant-baseline="alphabetic" fill-opacity="1">–1</text><text fill="none" stroke="rgb(255,255,255)" font-family="geogebra-sans-serif, sans-serif" font-size="12px" font-style="normal" font-weight="normal" text-decoration="normal" x="42" y="265" text-anchor="start" dominant-baseline="alphabetic" stroke-opacity="1" stroke-linejoin="bevel" stroke-miterlimit="10" stroke-width="3">–1</text><text fill="rgb(37,37,37)" stroke="none" font-family="geogebra-sans-serif, sans-serif" font-size="12px" font-style="normal" font-weight="normal" text-decoration="normal" x="42" y="265" text-anchor="start" dominant-baseline="alphabetic" fill-opacity="1">–1</text><text fill="rgb(37,37,37)" stroke="none" font-family="geogebra-sans-serif, sans-serif" font-size="12px" font-style="normal" font-weight="normal" text-decoration="normal" x="176" y="265" text-anchor="start" dominant-baseline="alphabetic" fill-opacity="1">1</text><text fill="none" stroke="rgb(255,255,255)" font-family="geogebra-sans-serif, sans-serif" font-size="12px" font-style="normal" font-weight="normal" text-decoration="normal" x="176" y="265" text-anchor="start" dominant-baseline="alphabetic" stroke-opacity="1" stroke-linejoin="bevel" stroke-miterlimit="10" stroke-width="3">1</text><text fill="rgb(37,37,37)" stroke="none" font-family="geogebra-sans-serif, sans-serif" font-size="12px" font-style="normal" font-weight="normal" text-decoration="normal" x="176" y="265" text-anchor="start" dominant-baseline="alphabetic" fill-opacity="1">1</text><text fill="rgb(37,37,37)" stroke="none" font-family="geogebra-sans-serif, sans-serif" font-size="12px" font-style="normal" font-weight="normal" text-decoration="normal" x="242" y="265" text-anchor="start" dominant-baseline="alphabetic" fill-opacity="1">2</text><text fill="none" stroke="rgb(255,255,255)" font-family="geogebra-sans-serif, sans-serif" font-size="12px" font-style="normal" font-weight="normal" text-decoration="normal" x="242" y="265" text-anchor="start" dominant-baseline="alphabetic" stroke-opacity="1" stroke-linejoin="bevel" stroke-miterlimit="10" stroke-width="3">2</text><text fill="rgb(37,37,37)" stroke="none" font-family="geogebra-sans-serif, sans-serif" font-size="12px" font-style="normal" font-weight="normal" text-decoration="normal" x="242" y="265" text-anchor="start" dominant-baseline="alphabetic" fill-opacity="1">2</text><text fill="rgb(37,37,37)" stroke="none" font-family="geogebra-sans-serif, sans-serif" font-size="12px" font-style="normal" font-weight="normal" text-decoration="normal" x="308" y="265" text-anchor="start" dominant-baseline="alphabetic" fill-opacity="1">3</text><text fill="none" stroke="rgb(255,255,255)" font-family="geogebra-sans-serif, sans-serif" font-size="12px" font-style="normal" font-weight="normal" text-decoration="normal" x="308" y="265" text-anchor="start" dominant-baseline="alphabetic" stroke-opacity="1" stroke-linejoin="bevel" stroke-miterlimit="10" stroke-width="3">3</text><text fill="rgb(37,37,37)" stroke="none" font-family="geogebra-sans-serif, sans-serif" font-size="12px" font-style="normal" font-weight="normal" text-decoration="normal" x="308" y="265" text-anchor="start" dominant-baseline="alphabetic" fill-opacity="1">3</text><text fill="rgb(37,37,37)" stroke="none" font-family="geogebra-sans-serif, sans-serif" font-size="12px" font-style="normal" font-weight="normal" text-decoration="normal" x="93" y="320" text-anchor="start" dominant-baseline="alphabetic" fill-opacity="1">–1</text><text fill="none" stroke="rgb(255,255,255)" font-family="geogebra-sans-serif, sans-serif" font-size="12px" font-style="normal" font-weight="normal" text-decoration="normal" x="93" y="320" text-anchor="start" dominant-baseline="alphabetic" stroke-opacity="1" stroke-linejoin="bevel" stroke-miterlimit="10" stroke-width="3">–1</text><text fill="rgb(37,37,37)" stroke="none" font-family="geogebra-sans-serif, sans-serif" font-size="12px" font-style="normal" font-weight="normal" text-decoration="normal" x="93" y="320" text-anchor="start" dominant-baseline="alphabetic" fill-opacity="1">–1</text><text fill="rgb(37,37,37)" stroke="none" font-family="geogebra-sans-serif, sans-serif" font-size="12px" font-style="normal" font-weight="normal" text-decoration="normal" x="99" y="189" text-anchor="start" dominant-baseline="alphabetic" fill-opacity="1">1</text><text fill="none" stroke="rgb(255,255,255)" font-family="geogebra-sans-serif, sans-serif" font-size="12px" font-style="normal" font-weight="normal" text-decoration="normal" x="99" y="189" text-anchor="start" dominant-baseline="alphabetic" stroke-opacity="1" stroke-linejoin="bevel" stroke-miterlimit="10" stroke-width="3">1</text><text fill="rgb(37,37,37)" stroke="none" font-family="geogebra-sans-serif, sans-serif" font-size="12px" font-style="normal" font-weight="normal" text-decoration="normal" x="99" y="189" text-anchor="start" dominant-baseline="alphabetic" fill-opacity="1">1</text><text fill="rgb(37,37,37)" stroke="none" font-family="geogebra-sans-serif, sans-serif" font-size="12px" font-style="normal" font-weight="normal" text-decoration="normal" x="99" y="123" text-anchor="start" dominant-baseline="alphabetic" fill-opacity="1">2</text><text fill="none" stroke="rgb(255,255,255)" font-family="geogebra-sans-serif, sans-serif" font-size="12px" font-style="normal" font-weight="normal" text-decoration="normal" x="99" y="123" text-anchor="start" dominant-baseline="alphabetic" stroke-opacity="1" stroke-linejoin="bevel" stroke-miterlimit="10" stroke-width="3">2</text><text fill="rgb(37,37,37)" stroke="none" font-family="geogebra-sans-serif, sans-serif" font-size="12px" font-style="normal" font-weight="normal" text-decoration="normal" x="99" y="123" text-anchor="start" dominant-baseline="alphabetic" fill-opacity="1">2</text><text fill="rgb(37,37,37)" stroke="none" font-family="geogebra-sans-serif, sans-serif" font-size="12px" font-style="normal" font-weight="normal" text-decoration="normal" x="99" y="57" text-anchor="start" dominant-baseline="alphabetic" fill-opacity="1">3</text><text fill="none" stroke="rgb(255,255,255)" font-family="geogebra-sans-serif, sans-serif" font-size="12px" font-style="normal" font-weight="normal" text-decoration="normal" x="99" y="57" text-anchor="start" dominant-baseline="alphabetic" stroke-opacity="1" stroke-linejoin="bevel" stroke-miterlimit="10" stroke-width="3">3</text><text fill="rgb(37,37,37)" stroke="none" font-family="geogebra-sans-serif, sans-serif" font-size="12px" font-style="normal" font-weight="normal" text-decoration="normal" x="99" y="57" text-anchor="start" dominant-baseline="alphabetic" fill-opacity="1">3</text><text fill="rgb(37,37,37)" stroke="none" font-family="geogebra-sans-serif, sans-serif" font-size="12px" font-style="normal" font-weight="normal" text-decoration="normal" x="99" y="265" text-anchor="start" dominant-baseline="alphabetic" fill-opacity="1">0</text><text fill="none" stroke="rgb(255,255,255)" font-family="geogebra-sans-serif, sans-serif" font-size="12px" font-style="normal" font-weight="normal" text-decoration="normal" x="99" y="265" text-anchor="start" dominant-baseline="alphabetic" stroke-opacity="1" stroke-linejoin="bevel" stroke-miterlimit="10" stroke-width="3">0</text><text fill="rgb(37,37,37)" stroke="none" font-family="geogebra-sans-serif, sans-serif" font-size="12px" font-style="normal" font-weight="normal" text-decoration="normal" x="99" y="265" text-anchor="start" dominant-baseline="alphabetic" fill-opacity="1">0</text><path fill="rgb(21,101,192)" stroke="none" paint-order="stroke fill markers" fill-rule="evenodd" d=" M 113.27140528934116 52.93353256976181 L 178.94117176200425 52.93353256976181 L 178.94117176200425 184.27306551508826 L 244.61093823466734 184.27306551508826 L 244.61093823466734 249.94283198775148 L 113.27140528934116 249.94283198775148 Z" fill-opacity="0.09803921568627451"/><path fill="none" stroke="rgb(21,101,192)" paint-order="fill stroke markers" d=" M 113.27140528934116 52.93353256976181 L 178.94117176200425 52.93353256976181" stroke-opacity="0.6980392156862745" stroke-linecap="round" stroke-linejoin="round" stroke-miterlimit="10" stroke-width="2.5"/><path fill="none" stroke="rgb(21,101,192)" paint-order="fill stroke markers" d=" M 178.94117176200425 52.93353256976181 L 178.94117176200425 184.27306551508826" stroke-opacity="0.6980392156862745" stroke-linecap="round" stroke-linejoin="round" stroke-miterlimit="10" stroke-width="2.5"/><path fill="none" stroke="rgb(21,101,192)" paint-order="fill stroke markers" d=" M 178.94117176200425 184.27306551508826 L 244.61093823466734 184.27306551508826" stroke-opacity="0.6980392156862745" stroke-linecap="round" stroke-linejoin="round" stroke-miterlimit="10" stroke-width="2.5"/><path fill="none" stroke="rgb(21,101,192)" paint-order="fill stroke markers" d=" M 244.61093823466734 184.27306551508826 L 244.61093823466734 249.94283198775148" stroke-opacity="0.6980392156862745" stroke-linecap="round" stroke-linejoin="round" stroke-miterlimit="10" stroke-width="2.5"/><path fill="none" stroke="rgb(211,47,47)" paint-order="fill stroke markers" d=" M 244.61093823466734 249.94283198775148 L 113.27140528934116 249.94283198775148" stroke-opacity="0.6980392156862745" stroke-linecap="round" stroke-linejoin="round" stroke-miterlimit="10" stroke-width="6"/><path fill="none" stroke="rgb(21,101,192)" paint-order="fill stroke markers" d=" M 113.27140528934116 249.94283198775148 L 113.27140528934116 52.93353256976181" stroke-opacity="0.6980392156862745" stroke-linecap="round" stroke-linejoin="round" stroke-miterlimit="10" stroke-width="2.5"/><path fill="rgb(21,101,192)" stroke="none" paint-order="stroke fill markers" d=" M 114.27140528934116 52.93353256976181 C 114.27140528934116 53.4858173195926 113.82369003917195 53.93353256976181 113.27140528934116 53.93353256976181 C 112.71912053951037 53.93353256976181 112.27140528934116 53.4858173195926 112.27140528934116 52.93353256976181 C 112.27140528934116 52.38124781993101 112.71912053951037 51.93353256976181 113.27140528934116 51.93353256976181 C 113.82369003917195 51.93353256976181 114.27140528934116 52.38124781993101 114.27140528934116 52.93353256976181 Z" fill-opacity="1"/><path fill="rgb(21,101,192)" stroke="none" paint-order="stroke fill markers" d=" M 179.94117176200425 52.93353256976181 C 179.94117176200425 53.4858173195926 179.49345651183503 53.93353256976181 178.94117176200425 53.93353256976181 C 178.38888701217346 53.93353256976181 177.94117176200425 53.4858173195926 177.94117176200425 52.93353256976181 C 177.94117176200425 52.38124781993101 178.38888701217346 51.93353256976181 178.94117176200425 51.93353256976181 C 179.49345651183503 51.93353256976181 179.94117176200425 52.38124781993101 179.94117176200425 52.93353256976181 Z" fill-opacity="1"/><path fill="rgb(211,47,47)" stroke="none" paint-order="stroke fill markers" d=" M 179.94117176200425 184.27306551508826 C 179.94117176200425 184.82535026491905 179.49345651183503 185.27306551508826 178.94117176200425 185.27306551508826 C 178.38888701217346 185.27306551508826 177.94117176200425 184.82535026491905 177.94117176200425 184.27306551508826 C 177.94117176200425 183.72078076525747 178.38888701217346 183.27306551508826 178.94117176200425 183.27306551508826 C 179.49345651183503 183.27306551508826 179.94117176200425 183.72078076525747 179.94117176200425 184.27306551508826 Z" fill-opacity="1"/><path fill="rgb(21,101,192)" stroke="none" paint-order="stroke fill markers" d=" M 245.61093823466734 249.94283198775148 C 245.61093823466734 250.49511673758226 245.16322298449813 250.94283198775148 244.61093823466734 250.94283198775148 C 244.05865348483655 250.94283198775148 243.61093823466734 250.49511673758226 243.61093823466734 249.94283198775148 C 243.61093823466734 249.39054723792069 244.05865348483655 248.94283198775148 244.61093823466734 248.94283198775148 C 245.16322298449813 248.94283198775148 245.61093823466734 249.39054723792069 245.61093823466734 249.94283198775148 Z" fill-opacity="1"/><path fill="rgb(97,97,97)" stroke="none" paint-order="stroke fill markers" d=" M 114.27140528934116 249.94283198775148 C 114.27140528934116 250.49511673758226 113.82369003917195 250.94283198775148 113.27140528934116 250.94283198775148 C 112.71912053951037 250.94283198775148 112.27140528934116 250.49511673758226 112.27140528934116 249.94283198775148 C 112.27140528934116 249.39054723792069 112.71912053951037 248.94283198775148 113.27140528934116 248.94283198775148 C 113.82369003917195 248.94283198775148 114.27140528934116 249.39054723792069 114.27140528934116 249.94283198775148 Z" fill-opacity="1"/><path fill="rgb(21,101,192)" stroke="none" paint-order="stroke fill markers" d=" M 114.27140528934116 52.93353256976181 C 114.27140528934116 53.4858173195926 113.82369003917195 53.93353256976181 113.27140528934116 53.93353256976181 C 112.71912053951037 53.93353256976181 112.27140528934116 53.4858173195926 112.27140528934116 52.93353256976181 C 112.27140528934116 52.38124781993101 112.71912053951037 51.93353256976181 113.27140528934116 51.93353256976181 C 113.82369003917195 51.93353256976181 114.27140528934116 52.38124781993101 114.27140528934116 52.93353256976181 Z" fill-opacity="1"/><path fill="rgb(97,97,97)" stroke="none" paint-order="stroke fill markers" d=" M 114.27140528934116 249.94283198775148 C 114.27140528934116 250.49511673758226 113.82369003917195 250.94283198775148 113.27140528934116 250.94283198775148 C 112.71912053951037 250.94283198775148 112.27140528934116 250.49511673758226 112.27140528934116 249.94283198775148 C 112.27140528934116 249.39054723792069 112.71912053951037 248.94283198775148 113.27140528934116 248.94283198775148 C 113.82369003917195 248.94283198775148 114.27140528934116 249.39054723792069 114.27140528934116 249.94283198775148 Z" fill-opacity="1"/><path fill="rgb(211,47,47)" stroke="none" paint-order="stroke fill markers" d=" M 114.27140528934116 118.23870926338367 C 114.27140528934116 118.79099401321446 113.82369003917195 119.23870926338367 113.27140528934116 119.23870926338367 C 112.71912053951037 119.23870926338367 112.27140528934116 118.79099401321446 112.27140528934116 118.23870926338367 C 112.27140528934116 117.68642451355288 112.71912053951037 117.23870926338367 113.27140528934116 117.23870926338367 C 113.82369003917195 117.23870926338367 114.27140528934116 117.68642451355288 114.27140528934116 118.23870926338367 Z" fill-opacity="1"/><path fill="rgb(21,101,192)" stroke="none" paint-order="stroke fill markers" d=" M 179.94117176200425 118.60329904242502 C 179.94117176200425 119.15558379225581 179.49345651183503 119.60329904242502 178.94117176200425 119.60329904242502 C 178.38888701217346 119.60329904242502 177.94117176200425 119.15558379225581 177.94117176200425 118.60329904242502 C 177.94117176200425 118.05101429259423 178.38888701217346 117.60329904242502 178.94117176200425 117.60329904242502 C 179.49345651183503 117.60329904242502 179.94117176200425 118.05101429259423 179.94117176200425 118.60329904242502 Z" fill-opacity="1"/><path fill="rgb(97,97,97)" stroke="none" paint-order="stroke fill markers" d=" M 114.27140528934116 249.94283198775148 C 114.27140528934116 250.49511673758226 113.82369003917195 250.94283198775148 113.27140528934116 250.94283198775148 C 112.71912053951037 250.94283198775148 112.27140528934116 250.49511673758226 112.27140528934116 249.94283198775148 C 112.27140528934116 249.39054723792069 112.71912053951037 248.94283198775148 113.27140528934116 248.94283198775148 C 113.82369003917195 248.94283198775148 114.27140528934116 249.39054723792069 114.27140528934116 249.94283198775148 Z" fill-opacity="1"/><path fill="rgb(211,47,47)" stroke="none" paint-order="stroke fill markers" d=" M 114.27140528934116 315.6125984604147 C 114.27140528934116 316.1648832102455 113.82369003917195 316.6125984604147 113.27140528934116 316.6125984604147 C 112.71912053951037 316.6125984604147 112.27140528934116 316.1648832102455 112.27140528934116 315.6125984604147 C 112.27140528934116 315.0603137105839 112.71912053951037 314.6125984604147 113.27140528934116 314.6125984604147 C 113.82369003917195 314.6125984604147 114.27140528934116 315.0603137105839 114.27140528934116 315.6125984604147 Z" fill-opacity="1"/><path fill="rgb(97,97,97)" stroke="none" paint-order="stroke fill markers" d=" M 114.27140528934116 249.94283198775148 C 114.27140528934116 250.49511673758226 113.82369003917195 250.94283198775148 113.27140528934116 250.94283198775148 C 112.71912053951037 250.94283198775148 112.27140528934116 250.49511673758226 112.27140528934116 249.94283198775148 C 112.27140528934116 249.39054723792069 112.71912053951037 248.94283198775148 113.27140528934116 248.94283198775148 C 113.82369003917195 248.94283198775148 114.27140528934116 249.39054723792069 114.27140528934116 249.94283198775148 Z" fill-opacity="1"/><path fill="rgb(211,47,47)" stroke="none" paint-order="stroke fill markers" d=" M 114.27140528934116 315.6125984604147 C 114.27140528934116 316.1648832102455 113.82369003917195 316.6125984604147 113.27140528934116 316.6125984604147 C 112.71912053951037 316.6125984604147 112.27140528934116 316.1648832102455 112.27140528934116 315.6125984604147 C 112.27140528934116 315.0603137105839 112.71912053951037 314.6125984604147 113.27140528934116 314.6125984604147 C 113.82369003917195 314.6125984604147 114.27140528934116 315.0603137105839 114.27140528934116 315.6125984604147 Z" fill-opacity="1"/><path fill="rgb(211,47,47)" stroke="none" paint-order="stroke fill markers" d=" M 114.27140528934116 52.99999999999969 C 114.27140528934116 53.55228474983048 113.82369003917195 53.99999999999969 113.27140528934116 53.99999999999969 C 112.71912053951037 53.99999999999969 112.27140528934116 53.55228474983048 112.27140528934116 52.99999999999969 C 112.27140528934116 52.44771525016889 112.71912053951037 51.99999999999969 113.27140528934116 51.99999999999969 C 113.82369003917195 51.99999999999969 114.27140528934116 52.44771525016889 114.27140528934116 52.99999999999969 Z" fill-opacity="1"/><path fill="rgb(211,47,47)" stroke="none" paint-order="stroke fill markers" d=" M 179.94117176200425 184.27306551508826 C 179.94117176200425 184.82535026491905 179.49345651183503 185.27306551508826 178.94117176200425 185.27306551508826 C 178.38888701217346 185.27306551508826 177.94117176200425 184.82535026491905 177.94117176200425 184.27306551508826 C 177.94117176200425 183.72078076525747 178.38888701217346 183.27306551508826 178.94117176200425 183.27306551508826 C 179.49345651183503 183.27306551508826 179.94117176200425 183.72078076525747 179.94117176200425 184.27306551508826 Z" fill-opacity="1"/><path fill="rgb(21,101,192)" stroke="none" paint-order="stroke fill markers" d=" M 245.61093823466734 184.27306551508826 C 245.61093823466734 184.82535026491905 245.16322298449813 185.27306551508826 244.61093823466734 185.27306551508826 C 244.05865348483655 185.27306551508826 243.61093823466734 184.82535026491905 243.61093823466734 184.27306551508826 C 243.61093823466734 183.72078076525747 244.05865348483655 183.27306551508826 244.61093823466734 183.27306551508826 C 245.16322298449813 183.27306551508826 245.61093823466734 183.72078076525747 245.61093823466734 184.27306551508826 Z" fill-opacity="1"/><path fill="rgb(211,47,47)" stroke="none" paint-order="stroke fill markers" d=" M 114.27140528934116 52.93353256976181 C 114.27140528934116 53.4858173195926 113.82369003917195 53.93353256976181 113.27140528934116 53.93353256976181 C 112.71912053951037 53.93353256976181 112.27140528934116 53.4858173195926 112.27140528934116 52.93353256976181 C 112.27140528934116 52.38124781993101 112.71912053951037 51.93353256976181 113.27140528934116 51.93353256976181 C 113.82369003917195 51.93353256976181 114.27140528934116 52.38124781993101 114.27140528934116 52.93353256976181 Z" fill-opacity="1"/><path fill="rgb(21,101,192)" stroke="none" paint-order="stroke fill markers" d=" M 180.99999999999994 184.27306551508826 C 180.99999999999994 184.82535026491905 180.55228474983073 185.27306551508826 179.99999999999994 185.27306551508826 C 179.44771525016915 185.27306551508826 178.99999999999994 184.82535026491905 178.99999999999994 184.27306551508826 C 178.99999999999994 183.72078076525747 179.44771525016915 183.27306551508826 179.99999999999994 183.27306551508826 C 180.55228474983073 183.27306551508826 180.99999999999994 183.72078076525747 180.99999999999994 184.27306551508826 Z" fill-opacity="1"/><path fill="rgb(21,101,192)" stroke="none" paint-order="stroke fill markers" d=" M 179.94117176200425 153.99999999999983 C 179.94117176200425 154.55228474983062 179.49345651183503 154.99999999999983 178.94117176200425 154.99999999999983 C 178.38888701217346 154.99999999999983 177.94117176200425 154.55228474983062 177.94117176200425 153.99999999999983 C 177.94117176200425 153.44771525016904 178.38888701217346 152.99999999999983 178.94117176200425 152.99999999999983 C 179.49345651183503 152.99999999999983 179.94117176200425 153.44771525016904 179.94117176200425 153.99999999999983 Z" fill-opacity="1"/></g></g></svg>