<svg version="1.1" xmlns="http://www.w3.org/2000/svg" xmlns:xlink="http://www.w3.org/1999/xlink" width="342" height="346"><defs><clipPath id="fqyRXEiEpWnT"><path fill="none" stroke="none" d=" M 0 0 L 342 0 L 342 346 L 0 346 L 0 0 Z"/></clipPath></defs><g transform="scale(1,1)" clip-path="url(#fqyRXEiEpWnT)"><g><rect fill="rgb(255,255,255)" stroke="none" x="0" y="0" width="342" height="347" fill-opacity="1"/><path fill="none" stroke="rgb(192,192,192)" paint-order="fill stroke markers" d=" M 55.5 0.5 L 55.5 346.5 M 55.5 0.5 L 55.5 346.5 M 186.5 0.5 L 186.5 346.5 M 252.5 0.5 L 252.5 346.5 M 318.5 0.5 L 318.5 346.5" stroke-opacity="1" stroke-linecap="round" stroke-linejoin="round" stroke-miterlimit="10"/><path fill="none" stroke="rgb(192,192,192)" paint-order="fill stroke markers" d=" M 3.5 0.5 L 3.5 346.5 M 16.5 0.5 L 16.5 346.5 M 29.5 0.5 L 29.5 346.5 M 42.5 0.5 L 42.5 346.5 M 68.5 0.5 L 68.5 346.5 M 81.5 0.5 L 81.5 346.5 M 95.5 0.5 L 95.5 346.5 M 108.5 0.5 L 108.5 346.5 M 134.5 0.5 L 134.5 346.5 M 147.5 0.5 L 147.5 346.5 M 160.5 0.5 L 160.5 346.5 M 173.5 0.5 L 173.5 346.5 M 200.5 0.5 L 200.5 346.5 M 213.5 0.5 L 213.5 346.5 M 226.5 0.5 L 226.5 346.5 M 239.5 0.5 L 239.5 346.5 M 265.5 0.5 L 265.5 346.5 M 278.5 0.5 L 278.5 346.5 M 292.5 0.5 L 292.5 346.5 M 305.5 0.5 L 305.5 346.5 M 331.5 0.5 L 331.5 346.5" stroke-opacity="0.23529411764705882" stroke-linecap="round" stroke-linejoin="round" stroke-miterlimit="10"/><path fill="none" stroke="rgb(192,192,192)" paint-order="fill stroke markers" d=" M 0.5 52.5 L 342.5 52.5 M 0.5 52.5 L 342.5 52.5 M 0.5 118.5 L 342.5 118.5 M 0.5 184.5 L 342.5 184.5 M 0.5 315.5 L 342.5 315.5" stroke-opacity="1" stroke-linecap="round" stroke-linejoin="round" stroke-miterlimit="10"/><path fill="none" stroke="rgb(192,192,192)" paint-order="fill stroke markers" d=" M 0.5 0.5 L 342.5 0.5 M 0.5 13.5 L 342.5 13.5 M 0.5 26.5 L 342.5 26.5 M 0.5 39.5 L 342.5 39.5 M 0.5 66.5 L 342.5 66.5 M 0.5 79.5 L 342.5 79.5 M 0.5 92.5 L 342.5 92.5 M 0.5 105.5 L 342.5 105.5 M 0.5 131.5 L 342.5 131.5 M 0.5 144.5 L 342.5 144.5 M 0.5 158.5 L 342.5 158.5 M 0.5 171.5 L 342.5 171.5 M 0.5 197.5 L 342.5 197.5 M 0.5 210.5 L 342.5 210.5 M 0.5 223.5 L 342.5 223.5 M 0.5 236.5 L 342.5 236.5 M 0.5 263.5 L 342.5 263.5 M 0.5 276.5 L 342.5 276.5 M 0.5 289.5 L 342.5 289.5 M 0.5 302.5 L 342.5 302.5 M 0.5 328.5 L 342.5 328.5 M 0.5 341.5 L 342.5 341.5" stroke-opacity="0.23529411764705882" stroke-linecap="round" stroke-linejoin="round" stroke-miterlimit="10"/><path fill="none" stroke="rgb(37,37,37)" paint-order="fill stroke markers" d=" M 121.5 2.5 L 121.5 346.5" stroke-opacity="1" stroke-miterlimit="10"/><path fill="none" stroke="rgb(37,37,37)" paint-order="fill stroke markers" d=" M 121.5 1.5 L 117.5 5.5" stroke-opacity="1" stroke-miterlimit="10"/><path fill="none" stroke="rgb(37,37,37)" paint-order="fill stroke markers" d=" M 121.5 1.5 L 125.5 5.5" stroke-opacity="1" stroke-miterlimit="10"/><path fill="none" stroke="rgb(37,37,37)" paint-order="fill stroke markers" d=" M 0.5 249.5 L 340.5 249.5" stroke-opacity="1" stroke-miterlimit="10"/><path fill="none" stroke="rgb(37,37,37)" paint-order="fill stroke markers" d=" M 341.5 249.5 L 337.5 245.5" stroke-opacity="1" stroke-miterlimit="10"/><path fill="none" stroke="rgb(37,37,37)" paint-order="fill stroke markers" d=" M 341.5 249.5 L 337.5 253.5" stroke-opacity="1" stroke-miterlimit="10"/><text fill="rgb(37,37,37)" stroke="none" font-family="geogebra-sans-serif, sans-serif" font-size="12px" font-style="normal" font-weight="normal" text-decoration="normal" x="50" y="265" text-anchor="start" dominant-baseline="alphabetic" fill-opacity="1">–1</text><text fill="none" stroke="rgb(255,255,255)" font-family="geogebra-sans-serif, sans-serif" font-size="12px" font-style="normal" font-weight="normal" text-decoration="normal" x="50" y="265" text-anchor="start" dominant-baseline="alphabetic" stroke-opacity="1" stroke-linejoin="bevel" stroke-miterlimit="10" stroke-width="3">–1</text><text fill="rgb(37,37,37)" stroke="none" font-family="geogebra-sans-serif, sans-serif" font-size="12px" font-style="normal" font-weight="normal" text-decoration="normal" x="50" y="265" text-anchor="start" dominant-baseline="alphabetic" fill-opacity="1">–1</text><text fill="rgb(37,37,37)" stroke="none" font-family="geogebra-sans-serif, sans-serif" font-size="12px" font-style="normal" font-weight="normal" text-decoration="normal" x="184" y="265" text-anchor="start" dominant-baseline="alphabetic" fill-opacity="1">1</text><text fill="none" stroke="rgb(255,255,255)" font-family="geogebra-sans-serif, sans-serif" font-size="12px" font-style="normal" font-weight="normal" text-decoration="normal" x="184" y="265" text-anchor="start" dominant-baseline="alphabetic" stroke-opacity="1" stroke-linejoin="bevel" stroke-miterlimit="10" stroke-width="3">1</text><text fill="rgb(37,37,37)" stroke="none" font-family="geogebra-sans-serif, sans-serif" font-size="12px" font-style="normal" font-weight="normal" text-decoration="normal" x="184" y="265" text-anchor="start" dominant-baseline="alphabetic" fill-opacity="1">1</text><text fill="rgb(37,37,37)" stroke="none" font-family="geogebra-sans-serif, sans-serif" font-size="12px" font-style="normal" font-weight="normal" text-decoration="normal" x="250" y="265" text-anchor="start" dominant-baseline="alphabetic" fill-opacity="1">2</text><text fill="none" stroke="rgb(255,255,255)" font-family="geogebra-sans-serif, sans-serif" font-size="12px" font-style="normal" font-weight="normal" text-decoration="normal" x="250" y="265" text-anchor="start" dominant-baseline="alphabetic" stroke-opacity="1" stroke-linejoin="bevel" stroke-miterlimit="10" stroke-width="3">2</text><text fill="rgb(37,37,37)" stroke="none" font-family="geogebra-sans-serif, sans-serif" font-size="12px" font-style="normal" font-weight="normal" text-decoration="normal" x="250" y="265" text-anchor="start" dominant-baseline="alphabetic" fill-opacity="1">2</text><text fill="rgb(37,37,37)" stroke="none" font-family="geogebra-sans-serif, sans-serif" font-size="12px" font-style="normal" font-weight="normal" text-decoration="normal" x="316" y="265" text-anchor="start" dominant-baseline="alphabetic" fill-opacity="1">3</text><text fill="none" stroke="rgb(255,255,255)" font-family="geogebra-sans-serif, sans-serif" font-size="12px" font-style="normal" font-weight="normal" text-decoration="normal" x="316" y="265" text-anchor="start" dominant-baseline="alphabetic" stroke-opacity="1" stroke-linejoin="bevel" stroke-miterlimit="10" stroke-width="3">3</text><text fill="rgb(37,37,37)" stroke="none" font-family="geogebra-sans-serif, sans-serif" font-size="12px" font-style="normal" font-weight="normal" text-decoration="normal" x="316" y="265" text-anchor="start" dominant-baseline="alphabetic" fill-opacity="1">3</text><text fill="rgb(37,37,37)" stroke="none" font-family="geogebra-sans-serif, sans-serif" font-size="12px" font-style="normal" font-weight="normal" text-decoration="normal" x="101" y="320" text-anchor="start" dominant-baseline="alphabetic" fill-opacity="1">–1</text><text fill="none" stroke="rgb(255,255,255)" font-family="geogebra-sans-serif, sans-serif" font-size="12px" font-style="normal" font-weight="normal" text-decoration="normal" x="101" y="320" text-anchor="start" dominant-baseline="alphabetic" stroke-opacity="1" stroke-linejoin="bevel" stroke-miterlimit="10" stroke-width="3">–1</text><text fill="rgb(37,37,37)" stroke="none" font-family="geogebra-sans-serif, sans-serif" font-size="12px" font-style="normal" font-weight="normal" text-decoration="normal" x="101" y="320" text-anchor="start" dominant-baseline="alphabetic" fill-opacity="1">–1</text><text fill="rgb(37,37,37)" stroke="none" font-family="geogebra-sans-serif, sans-serif" font-size="12px" font-style="normal" font-weight="normal" text-decoration="normal" x="107" y="189" text-anchor="start" dominant-baseline="alphabetic" fill-opacity="1">1</text><text fill="none" stroke="rgb(255,255,255)" font-family="geogebra-sans-serif, sans-serif" font-size="12px" font-style="normal" font-weight="normal" text-decoration="normal" x="107" y="189" text-anchor="start" dominant-baseline="alphabetic" stroke-opacity="1" stroke-linejoin="bevel" stroke-miterlimit="10" stroke-width="3">1</text><text fill="rgb(37,37,37)" stroke="none" font-family="geogebra-sans-serif, sans-serif" font-size="12px" font-style="normal" font-weight="normal" text-decoration="normal" x="107" y="189" text-anchor="start" dominant-baseline="alphabetic" fill-opacity="1">1</text><text fill="rgb(37,37,37)" stroke="none" font-family="geogebra-sans-serif, sans-serif" font-size="12px" font-style="normal" font-weight="normal" text-decoration="normal" x="107" y="123" text-anchor="start" dominant-baseline="alphabetic" fill-opacity="1">2</text><text fill="none" stroke="rgb(255,255,255)" font-family="geogebra-sans-serif, sans-serif" font-size="12px" font-style="normal" font-weight="normal" text-decoration="normal" x="107" y="123" text-anchor="start" dominant-baseline="alphabetic" stroke-opacity="1" stroke-linejoin="bevel" stroke-miterlimit="10" stroke-width="3">2</text><text fill="rgb(37,37,37)" stroke="none" font-family="geogebra-sans-serif, sans-serif" font-size="12px" font-style="normal" font-weight="normal" text-decoration="normal" x="107" y="123" text-anchor="start" dominant-baseline="alphabetic" fill-opacity="1">2</text><text fill="rgb(37,37,37)" stroke="none" font-family="geogebra-sans-serif, sans-serif" font-size="12px" font-style="normal" font-weight="normal" text-decoration="normal" x="107" y="57" text-anchor="start" dominant-baseline="alphabetic" fill-opacity="1">3</text><text fill="none" stroke="rgb(255,255,255)" font-family="geogebra-sans-serif, sans-serif" font-size="12px" font-style="normal" font-weight="normal" text-decoration="normal" x="107" y="57" text-anchor="start" dominant-baseline="alphabetic" stroke-opacity="1" stroke-linejoin="bevel" stroke-miterlimit="10" stroke-width="3">3</text><text fill="rgb(37,37,37)" stroke="none" font-family="geogebra-sans-serif, sans-serif" font-size="12px" font-style="normal" font-weight="normal" text-decoration="normal" x="107" y="57" text-anchor="start" dominant-baseline="alphabetic" fill-opacity="1">3</text><text fill="rgb(37,37,37)" stroke="none" font-family="geogebra-sans-serif, sans-serif" font-size="12px" font-style="normal" font-weight="normal" text-decoration="normal" x="107" y="265" text-anchor="start" dominant-baseline="alphabetic" fill-opacity="1">0</text><text fill="none" stroke="rgb(255,255,255)" font-family="geogebra-sans-serif, sans-serif" font-size="12px" font-style="normal" font-weight="normal" text-decoration="normal" x="107" y="265" text-anchor="start" dominant-baseline="alphabetic" stroke-opacity="1" stroke-linejoin="bevel" stroke-miterlimit="10" stroke-width="3">0</text><text fill="rgb(37,37,37)" stroke="none" font-family="geogebra-sans-serif, sans-serif" font-size="12px" font-style="normal" font-weight="normal" text-decoration="normal" x="107" y="265" text-anchor="start" dominant-baseline="alphabetic" fill-opacity="1">0</text><path fill="rgb(21,101,192)" stroke="none" paint-order="stroke fill markers" fill-rule="evenodd" d=" M 121.27140528934116 52.93353256976181 L 186.94117176200425 52.93353256976181 L 186.94117176200425 184.27306551508826 L 252.61093823466734 184.27306551508826 L 252.61093823466734 249.94283198775148 L 121.27140528934116 249.94283198775148 Z" fill-opacity="0.09803921568627451"/><path fill="none" stroke="rgb(21,101,192)" paint-order="fill stroke markers" d=" M 121.27140528934116 52.93353256976181 L 186.94117176200425 52.93353256976181" stroke-opacity="0.6980392156862745" stroke-linecap="round" stroke-linejoin="round" stroke-miterlimit="10" stroke-width="2.5"/><path fill="none" stroke="rgb(21,101,192)" paint-order="fill stroke markers" d=" M 186.94117176200425 52.93353256976181 L 186.94117176200425 184.27306551508826" stroke-opacity="0.6980392156862745" stroke-linecap="round" stroke-linejoin="round" stroke-miterlimit="10" stroke-width="2.5"/><path fill="none" stroke="rgb(21,101,192)" paint-order="fill stroke markers" d=" M 186.94117176200425 184.27306551508826 L 252.61093823466734 184.27306551508826" stroke-opacity="0.6980392156862745" stroke-linecap="round" stroke-linejoin="round" stroke-miterlimit="10" stroke-width="2.5"/><path fill="none" stroke="rgb(21,101,192)" paint-order="fill stroke markers" d=" M 252.61093823466734 184.27306551508826 L 252.61093823466734 249.94283198775148" stroke-opacity="0.6980392156862745" stroke-linecap="round" stroke-linejoin="round" stroke-miterlimit="10" stroke-width="2.5"/><path fill="none" stroke="rgb(21,101,192)" paint-order="fill stroke markers" d=" M 252.61093823466734 249.94283198775148 L 121.27140528934116 249.94283198775148" stroke-opacity="0.6980392156862745" stroke-linecap="round" stroke-linejoin="round" stroke-miterlimit="10" stroke-width="2.5"/><path fill="none" stroke="rgb(211,47,47)" paint-order="fill stroke markers" d=" M 121.27140528934116 249.94283198775148 L 121.27140528934116 52.93353256976181" stroke-opacity="0.6980392156862745" stroke-linecap="round" stroke-linejoin="round" stroke-miterlimit="10" stroke-width="4"/><path fill="rgb(21,101,192)" stroke="none" paint-order="stroke fill markers" d=" M 122.27140528934116 52.93353256976181 C 122.27140528934116 53.4858173195926 121.82369003917195 53.93353256976181 121.27140528934116 53.93353256976181 C 120.71912053951037 53.93353256976181 120.27140528934116 53.4858173195926 120.27140528934116 52.93353256976181 C 120.27140528934116 52.38124781993101 120.71912053951037 51.93353256976181 121.27140528934116 51.93353256976181 C 121.82369003917195 51.93353256976181 122.27140528934116 52.38124781993101 122.27140528934116 52.93353256976181 Z" fill-opacity="1"/><path fill="rgb(21,101,192)" stroke="none" paint-order="stroke fill markers" d=" M 187.94117176200425 52.93353256976181 C 187.94117176200425 53.4858173195926 187.49345651183503 53.93353256976181 186.94117176200425 53.93353256976181 C 186.38888701217346 53.93353256976181 185.94117176200425 53.4858173195926 185.94117176200425 52.93353256976181 C 185.94117176200425 52.38124781993101 186.38888701217346 51.93353256976181 186.94117176200425 51.93353256976181 C 187.49345651183503 51.93353256976181 187.94117176200425 52.38124781993101 187.94117176200425 52.93353256976181 Z" fill-opacity="1"/><path fill="rgb(211,47,47)" stroke="none" paint-order="stroke fill markers" d=" M 187.94117176200425 184.27306551508826 C 187.94117176200425 184.82535026491905 187.49345651183503 185.27306551508826 186.94117176200425 185.27306551508826 C 186.38888701217346 185.27306551508826 185.94117176200425 184.82535026491905 185.94117176200425 184.27306551508826 C 185.94117176200425 183.72078076525747 186.38888701217346 183.27306551508826 186.94117176200425 183.27306551508826 C 187.49345651183503 183.27306551508826 187.94117176200425 183.72078076525747 187.94117176200425 184.27306551508826 Z" fill-opacity="1"/><path fill="rgb(21,101,192)" stroke="none" paint-order="stroke fill markers" d=" M 253.61093823466734 249.94283198775148 C 253.61093823466734 250.49511673758226 253.16322298449813 250.94283198775148 252.61093823466734 250.94283198775148 C 252.05865348483655 250.94283198775148 251.61093823466734 250.49511673758226 251.61093823466734 249.94283198775148 C 251.61093823466734 249.39054723792069 252.05865348483655 248.94283198775148 252.61093823466734 248.94283198775148 C 253.16322298449813 248.94283198775148 253.61093823466734 249.39054723792069 253.61093823466734 249.94283198775148 Z" fill-opacity="1"/><path fill="rgb(97,97,97)" stroke="none" paint-order="stroke fill markers" d=" M 122.27140528934116 249.94283198775148 C 122.27140528934116 250.49511673758226 121.82369003917195 250.94283198775148 121.27140528934116 250.94283198775148 C 120.71912053951037 250.94283198775148 120.27140528934116 250.49511673758226 120.27140528934116 249.94283198775148 C 120.27140528934116 249.39054723792069 120.71912053951037 248.94283198775148 121.27140528934116 248.94283198775148 C 121.82369003917195 248.94283198775148 122.27140528934116 249.39054723792069 122.27140528934116 249.94283198775148 Z" fill-opacity="1"/><path fill="rgb(21,101,192)" stroke="none" paint-order="stroke fill markers" d=" M 122.27140528934116 52.93353256976181 C 122.27140528934116 53.4858173195926 121.82369003917195 53.93353256976181 121.27140528934116 53.93353256976181 C 120.71912053951037 53.93353256976181 120.27140528934116 53.4858173195926 120.27140528934116 52.93353256976181 C 120.27140528934116 52.38124781993101 120.71912053951037 51.93353256976181 121.27140528934116 51.93353256976181 C 121.82369003917195 51.93353256976181 122.27140528934116 52.38124781993101 122.27140528934116 52.93353256976181 Z" fill-opacity="1"/><path fill="rgb(97,97,97)" stroke="none" paint-order="stroke fill markers" d=" M 122.27140528934116 249.94283198775148 C 122.27140528934116 250.49511673758226 121.82369003917195 250.94283198775148 121.27140528934116 250.94283198775148 C 120.71912053951037 250.94283198775148 120.27140528934116 250.49511673758226 120.27140528934116 249.94283198775148 C 120.27140528934116 249.39054723792069 120.71912053951037 248.94283198775148 121.27140528934116 248.94283198775148 C 121.82369003917195 248.94283198775148 122.27140528934116 249.39054723792069 122.27140528934116 249.94283198775148 Z" fill-opacity="1"/><path fill="rgb(211,47,47)" stroke="none" paint-order="stroke fill markers" d=" M 122.27140528934116 118.23870926338367 C 122.27140528934116 118.79099401321446 121.82369003917195 119.23870926338367 121.27140528934116 119.23870926338367 C 120.71912053951037 119.23870926338367 120.27140528934116 118.79099401321446 120.27140528934116 118.23870926338367 C 120.27140528934116 117.68642451355288 120.71912053951037 117.23870926338367 121.27140528934116 117.23870926338367 C 121.82369003917195 117.23870926338367 122.27140528934116 117.68642451355288 122.27140528934116 118.23870926338367 Z" fill-opacity="1"/><path fill="rgb(21,101,192)" stroke="none" paint-order="stroke fill markers" d=" M 187.94117176200425 118.60329904242502 C 187.94117176200425 119.15558379225581 187.49345651183503 119.60329904242502 186.94117176200425 119.60329904242502 C 186.38888701217346 119.60329904242502 185.94117176200425 119.15558379225581 185.94117176200425 118.60329904242502 C 185.94117176200425 118.05101429259423 186.38888701217346 117.60329904242502 186.94117176200425 117.60329904242502 C 187.49345651183503 117.60329904242502 187.94117176200425 118.05101429259423 187.94117176200425 118.60329904242502 Z" fill-opacity="1"/><path fill="rgb(97,97,97)" stroke="none" paint-order="stroke fill markers" d=" M 122.27140528934116 249.94283198775148 C 122.27140528934116 250.49511673758226 121.82369003917195 250.94283198775148 121.27140528934116 250.94283198775148 C 120.71912053951037 250.94283198775148 120.27140528934116 250.49511673758226 120.27140528934116 249.94283198775148 C 120.27140528934116 249.39054723792069 120.71912053951037 248.94283198775148 121.27140528934116 248.94283198775148 C 121.82369003917195 248.94283198775148 122.27140528934116 249.39054723792069 122.27140528934116 249.94283198775148 Z" fill-opacity="1"/><path fill="rgb(211,47,47)" stroke="none" paint-order="stroke fill markers" d=" M 122.27140528934116 315.6125984604147 C 122.27140528934116 316.1648832102455 121.82369003917195 316.6125984604147 121.27140528934116 316.6125984604147 C 120.71912053951037 316.6125984604147 120.27140528934116 316.1648832102455 120.27140528934116 315.6125984604147 C 120.27140528934116 315.0603137105839 120.71912053951037 314.6125984604147 121.27140528934116 314.6125984604147 C 121.82369003917195 314.6125984604147 122.27140528934116 315.0603137105839 122.27140528934116 315.6125984604147 Z" fill-opacity="1"/><path fill="rgb(97,97,97)" stroke="none" paint-order="stroke fill markers" d=" M 122.27140528934116 249.94283198775148 C 122.27140528934116 250.49511673758226 121.82369003917195 250.94283198775148 121.27140528934116 250.94283198775148 C 120.71912053951037 250.94283198775148 120.27140528934116 250.49511673758226 120.27140528934116 249.94283198775148 C 120.27140528934116 249.39054723792069 120.71912053951037 248.94283198775148 121.27140528934116 248.94283198775148 C 121.82369003917195 248.94283198775148 122.27140528934116 249.39054723792069 122.27140528934116 249.94283198775148 Z" fill-opacity="1"/><path fill="rgb(211,47,47)" stroke="none" paint-order="stroke fill markers" d=" M 122.27140528934116 315.6125984604147 C 122.27140528934116 316.1648832102455 121.82369003917195 316.6125984604147 121.27140528934116 316.6125984604147 C 120.71912053951037 316.6125984604147 120.27140528934116 316.1648832102455 120.27140528934116 315.6125984604147 C 120.27140528934116 315.0603137105839 120.71912053951037 314.6125984604147 121.27140528934116 314.6125984604147 C 121.82369003917195 314.6125984604147 122.27140528934116 315.0603137105839 122.27140528934116 315.6125984604147 Z" fill-opacity="1"/><path fill="rgb(211,47,47)" stroke="none" paint-order="stroke fill markers" d=" M 122.27140528934116 52.99999999999969 C 122.27140528934116 53.55228474983048 121.82369003917195 53.99999999999969 121.27140528934116 53.99999999999969 C 120.71912053951037 53.99999999999969 120.27140528934116 53.55228474983048 120.27140528934116 52.99999999999969 C 120.27140528934116 52.44771525016889 120.71912053951037 51.99999999999969 121.27140528934116 51.99999999999969 C 121.82369003917195 51.99999999999969 122.27140528934116 52.44771525016889 122.27140528934116 52.99999999999969 Z" fill-opacity="1"/><path fill="rgb(211,47,47)" stroke="none" paint-order="stroke fill markers" d=" M 187.94117176200425 184.27306551508826 C 187.94117176200425 184.82535026491905 187.49345651183503 185.27306551508826 186.94117176200425 185.27306551508826 C 186.38888701217346 185.27306551508826 185.94117176200425 184.82535026491905 185.94117176200425 184.27306551508826 C 185.94117176200425 183.72078076525747 186.38888701217346 183.27306551508826 186.94117176200425 183.27306551508826 C 187.49345651183503 183.27306551508826 187.94117176200425 183.72078076525747 187.94117176200425 184.27306551508826 Z" fill-opacity="1"/><path fill="rgb(21,101,192)" stroke="none" paint-order="stroke fill markers" d=" M 253.61093823466734 184.27306551508826 C 253.61093823466734 184.82535026491905 253.16322298449813 185.27306551508826 252.61093823466734 185.27306551508826 C 252.05865348483655 185.27306551508826 251.61093823466734 184.82535026491905 251.61093823466734 184.27306551508826 C 251.61093823466734 183.72078076525747 252.05865348483655 183.27306551508826 252.61093823466734 183.27306551508826 C 253.16322298449813 183.27306551508826 253.61093823466734 183.72078076525747 253.61093823466734 184.27306551508826 Z" fill-opacity="1"/><path fill="rgb(211,47,47)" stroke="none" paint-order="stroke fill markers" d=" M 122.27140528934116 52.93353256976181 C 122.27140528934116 53.4858173195926 121.82369003917195 53.93353256976181 121.27140528934116 53.93353256976181 C 120.71912053951037 53.93353256976181 120.27140528934116 53.4858173195926 120.27140528934116 52.93353256976181 C 120.27140528934116 52.38124781993101 120.71912053951037 51.93353256976181 121.27140528934116 51.93353256976181 C 121.82369003917195 51.93353256976181 122.27140528934116 52.38124781993101 122.27140528934116 52.93353256976181 Z" fill-opacity="1"/><path fill="rgb(21,101,192)" stroke="none" paint-order="stroke fill markers" d=" M 188.99999999999994 184.27306551508826 C 188.99999999999994 184.82535026491905 188.55228474983073 185.27306551508826 187.99999999999994 185.27306551508826 C 187.44771525016915 185.27306551508826 186.99999999999994 184.82535026491905 186.99999999999994 184.27306551508826 C 186.99999999999994 183.72078076525747 187.44771525016915 183.27306551508826 187.99999999999994 183.27306551508826 C 188.55228474983073 183.27306551508826 188.99999999999994 183.72078076525747 188.99999999999994 184.27306551508826 Z" fill-opacity="1"/><path fill="rgb(21,101,192)" stroke="none" paint-order="stroke fill markers" d=" M 187.94117176200425 153.99999999999983 C 187.94117176200425 154.55228474983062 187.49345651183503 154.99999999999983 186.94117176200425 154.99999999999983 C 186.38888701217346 154.99999999999983 185.94117176200425 154.55228474983062 185.94117176200425 153.99999999999983 C 185.94117176200425 153.44771525016904 186.38888701217346 152.99999999999983 186.94117176200425 152.99999999999983 C 187.49345651183503 152.99999999999983 187.94117176200425 153.44771525016904 187.94117176200425 153.99999999999983 Z" fill-opacity="1"/></g></g></svg>