<svg version="1.1" xmlns="http://www.w3.org/2000/svg" xmlns:xlink="http://www.w3.org/1999/xlink" width="342" height="418"><defs><clipPath id="fIuQCyinUWOW"><path fill="none" stroke="none" d=" M 0 0 L 342 0 L 342 418 L 0 418 L 0 0 Z"/></clipPath></defs><g transform="scale(1,1)" clip-path="url(#fIuQCyinUWOW)"><g><rect fill="rgb(255,255,255)" stroke="none" x="0" y="0" width="342" height="419" fill-opacity="1"/><path fill="none" stroke="rgb(192,192,192)" paint-order="fill stroke markers" d=" M 21.5 0.5 L 21.5 418.5 M 21.5 0.5 L 21.5 418.5 M 75.5 0.5 L 75.5 418.5 M 130.5 0.5 L 130.5 418.5 M 239.5 0.5 L 239.5 418.5 M 294.5 0.5 L 294.5 418.5" stroke-opacity="1" stroke-linecap="round" stroke-linejoin="round" stroke-miterlimit="10"/><path fill="none" stroke="rgb(192,192,192)" paint-order="fill stroke markers" d=" M 10.5 0.5 L 10.5 418.5 M 32.5 0.5 L 32.5 418.5 M 42.5 0.5 L 42.5 418.5 M 53.5 0.5 L 53.5 418.5 M 64.5 0.5 L 64.5 418.5 M 86.5 0.5 L 86.5 418.5 M 97.5 0.5 L 97.5 418.5 M 108.5 0.5 L 108.5 418.5 M 119.5 0.5 L 119.5 418.5 M 141.5 0.5 L 141.5 418.5 M 152.5 0.5 L 152.5 418.5 M 163.5 0.5 L 163.5 418.5 M 173.5 0.5 L 173.5 418.5 M 195.5 0.5 L 195.5 418.5 M 206.5 0.5 L 206.5 418.5 M 217.5 0.5 L 217.5 418.5 M 228.5 0.5 L 228.5 418.5 M 250.5 0.5 L 250.5 418.5 M 261.5 0.5 L 261.5 418.5 M 272.5 0.5 L 272.5 418.5 M 283.5 0.5 L 283.5 418.5 M 304.5 0.5 L 304.5 418.5 M 315.5 0.5 L 315.5 418.5 M 326.5 0.5 L 326.5 418.5 M 337.5 0.5 L 337.5 418.5" stroke-opacity="0.23529411764705882" stroke-linecap="round" stroke-linejoin="round" stroke-miterlimit="10"/><path fill="none" stroke="rgb(192,192,192)" paint-order="fill stroke markers" d=" M 0.5 51.5 L 342.5 51.5 M 0.5 51.5 L 342.5 51.5 M 0.5 106.5 L 342.5 106.5 M 0.5 160.5 L 342.5 160.5 M 0.5 270.5 L 342.5 270.5 M 0.5 324.5 L 342.5 324.5 M 0.5 379.5 L 342.5 379.5" stroke-opacity="1" stroke-linecap="round" stroke-linejoin="round" stroke-miterlimit="10"/><path fill="none" stroke="rgb(192,192,192)" paint-order="fill stroke markers" d=" M 0.5 8.5 L 342.5 8.5 M 0.5 18.5 L 342.5 18.5 M 0.5 29.5 L 342.5 29.5 M 0.5 40.5 L 342.5 40.5 M 0.5 62.5 L 342.5 62.5 M 0.5 73.5 L 342.5 73.5 M 0.5 84.5 L 342.5 84.5 M 0.5 95.5 L 342.5 95.5 M 0.5 117.5 L 342.5 117.5 M 0.5 128.5 L 342.5 128.5 M 0.5 139.5 L 342.5 139.5 M 0.5 149.5 L 342.5 149.5 M 0.5 171.5 L 342.5 171.5 M 0.5 182.5 L 342.5 182.5 M 0.5 193.5 L 342.5 193.5 M 0.5 204.5 L 342.5 204.5 M 0.5 226.5 L 342.5 226.5 M 0.5 237.5 L 342.5 237.5 M 0.5 248.5 L 342.5 248.5 M 0.5 259.5 L 342.5 259.5 M 0.5 280.5 L 342.5 280.5 M 0.5 291.5 L 342.5 291.5 M 0.5 302.5 L 342.5 302.5 M 0.5 313.5 L 342.5 313.5 M 0.5 335.5 L 342.5 335.5 M 0.5 346.5 L 342.5 346.5 M 0.5 357.5 L 342.5 357.5 M 0.5 368.5 L 342.5 368.5 M 0.5 390.5 L 342.5 390.5 M 0.5 401.5 L 342.5 401.5 M 0.5 411.5 L 342.5 411.5" stroke-opacity="0.23529411764705882" stroke-linecap="round" stroke-linejoin="round" stroke-miterlimit="10"/><path fill="none" stroke="rgb(37,37,37)" paint-order="fill stroke markers" d=" M 184.5 2.5 L 184.5 418.5" stroke-opacity="1" stroke-miterlimit="10"/><path fill="none" stroke="rgb(37,37,37)" paint-order="fill stroke markers" d=" M 184.5 1.5 L 180.5 5.5" stroke-opacity="1" stroke-miterlimit="10"/><path fill="none" stroke="rgb(37,37,37)" paint-order="fill stroke markers" d=" M 184.5 1.5 L 188.5 5.5" stroke-opacity="1" stroke-miterlimit="10"/><path fill="none" stroke="rgb(37,37,37)" paint-order="fill stroke markers" d=" M 0.5 215.5 L 340.5 215.5" stroke-opacity="1" stroke-miterlimit="10"/><path fill="none" stroke="rgb(37,37,37)" paint-order="fill stroke markers" d=" M 341.5 215.5 L 337.5 211.5" stroke-opacity="1" stroke-miterlimit="10"/><path fill="none" stroke="rgb(37,37,37)" paint-order="fill stroke markers" d=" M 341.5 215.5 L 337.5 219.5" stroke-opacity="1" stroke-miterlimit="10"/><text fill="rgb(37,37,37)" stroke="none" font-family="geogebra-sans-serif, sans-serif" font-size="12px" font-style="normal" font-weight="normal" text-decoration="normal" x="16" y="231" text-anchor="start" dominant-baseline="alphabetic" fill-opacity="1">–3</text><text fill="none" stroke="rgb(255,255,255)" font-family="geogebra-sans-serif, sans-serif" font-size="12px" font-style="normal" font-weight="normal" text-decoration="normal" x="16" y="231" text-anchor="start" dominant-baseline="alphabetic" stroke-opacity="1" stroke-linejoin="bevel" stroke-miterlimit="10" stroke-width="3">–3</text><text fill="rgb(37,37,37)" stroke="none" font-family="geogebra-sans-serif, sans-serif" font-size="12px" font-style="normal" font-weight="normal" text-decoration="normal" x="16" y="231" text-anchor="start" dominant-baseline="alphabetic" fill-opacity="1">–3</text><text fill="rgb(37,37,37)" stroke="none" font-family="geogebra-sans-serif, sans-serif" font-size="12px" font-style="normal" font-weight="normal" text-decoration="normal" x="70" y="231" text-anchor="start" dominant-baseline="alphabetic" fill-opacity="1">–2</text><text fill="none" stroke="rgb(255,255,255)" font-family="geogebra-sans-serif, sans-serif" font-size="12px" font-style="normal" font-weight="normal" text-decoration="normal" x="70" y="231" text-anchor="start" dominant-baseline="alphabetic" stroke-opacity="1" stroke-linejoin="bevel" stroke-miterlimit="10" stroke-width="3">–2</text><text fill="rgb(37,37,37)" stroke="none" font-family="geogebra-sans-serif, sans-serif" font-size="12px" font-style="normal" font-weight="normal" text-decoration="normal" x="70" y="231" text-anchor="start" dominant-baseline="alphabetic" fill-opacity="1">–2</text><text fill="rgb(37,37,37)" stroke="none" font-family="geogebra-sans-serif, sans-serif" font-size="12px" font-style="normal" font-weight="normal" text-decoration="normal" x="125" y="231" text-anchor="start" dominant-baseline="alphabetic" fill-opacity="1">–1</text><text fill="none" stroke="rgb(255,255,255)" font-family="geogebra-sans-serif, sans-serif" font-size="12px" font-style="normal" font-weight="normal" text-decoration="normal" x="125" y="231" text-anchor="start" dominant-baseline="alphabetic" stroke-opacity="1" stroke-linejoin="bevel" stroke-miterlimit="10" stroke-width="3">–1</text><text fill="rgb(37,37,37)" stroke="none" font-family="geogebra-sans-serif, sans-serif" font-size="12px" font-style="normal" font-weight="normal" text-decoration="normal" x="125" y="231" text-anchor="start" dominant-baseline="alphabetic" fill-opacity="1">–1</text><text fill="rgb(37,37,37)" stroke="none" font-family="geogebra-sans-serif, sans-serif" font-size="12px" font-style="normal" font-weight="normal" text-decoration="normal" x="237" y="231" text-anchor="start" dominant-baseline="alphabetic" fill-opacity="1">1</text><text fill="none" stroke="rgb(255,255,255)" font-family="geogebra-sans-serif, sans-serif" font-size="12px" font-style="normal" font-weight="normal" text-decoration="normal" x="237" y="231" text-anchor="start" dominant-baseline="alphabetic" stroke-opacity="1" stroke-linejoin="bevel" stroke-miterlimit="10" stroke-width="3">1</text><text fill="rgb(37,37,37)" stroke="none" font-family="geogebra-sans-serif, sans-serif" font-size="12px" font-style="normal" font-weight="normal" text-decoration="normal" x="237" y="231" text-anchor="start" dominant-baseline="alphabetic" fill-opacity="1">1</text><text fill="rgb(37,37,37)" stroke="none" font-family="geogebra-sans-serif, sans-serif" font-size="12px" font-style="normal" font-weight="normal" text-decoration="normal" x="292" y="231" text-anchor="start" dominant-baseline="alphabetic" fill-opacity="1">2</text><text fill="none" stroke="rgb(255,255,255)" font-family="geogebra-sans-serif, sans-serif" font-size="12px" font-style="normal" font-weight="normal" text-decoration="normal" x="292" y="231" text-anchor="start" dominant-baseline="alphabetic" stroke-opacity="1" stroke-linejoin="bevel" stroke-miterlimit="10" stroke-width="3">2</text><text fill="rgb(37,37,37)" stroke="none" font-family="geogebra-sans-serif, sans-serif" font-size="12px" font-style="normal" font-weight="normal" text-decoration="normal" x="292" y="231" text-anchor="start" dominant-baseline="alphabetic" fill-opacity="1">2</text><text fill="rgb(37,37,37)" stroke="none" font-family="geogebra-sans-serif, sans-serif" font-size="12px" font-style="normal" font-weight="normal" text-decoration="normal" x="164" y="384" text-anchor="start" dominant-baseline="alphabetic" fill-opacity="1">–3</text><text fill="none" stroke="rgb(255,255,255)" font-family="geogebra-sans-serif, sans-serif" font-size="12px" font-style="normal" font-weight="normal" text-decoration="normal" x="164" y="384" text-anchor="start" dominant-baseline="alphabetic" stroke-opacity="1" stroke-linejoin="bevel" stroke-miterlimit="10" stroke-width="3">–3</text><text fill="rgb(37,37,37)" stroke="none" font-family="geogebra-sans-serif, sans-serif" font-size="12px" font-style="normal" font-weight="normal" text-decoration="normal" x="164" y="384" text-anchor="start" dominant-baseline="alphabetic" fill-opacity="1">–3</text><text fill="rgb(37,37,37)" stroke="none" font-family="geogebra-sans-serif, sans-serif" font-size="12px" font-style="normal" font-weight="normal" text-decoration="normal" x="164" y="329" text-anchor="start" dominant-baseline="alphabetic" fill-opacity="1">–2</text><text fill="none" stroke="rgb(255,255,255)" font-family="geogebra-sans-serif, sans-serif" font-size="12px" font-style="normal" font-weight="normal" text-decoration="normal" x="164" y="329" text-anchor="start" dominant-baseline="alphabetic" stroke-opacity="1" stroke-linejoin="bevel" stroke-miterlimit="10" stroke-width="3">–2</text><text fill="rgb(37,37,37)" stroke="none" font-family="geogebra-sans-serif, sans-serif" font-size="12px" font-style="normal" font-weight="normal" text-decoration="normal" x="164" y="329" text-anchor="start" dominant-baseline="alphabetic" fill-opacity="1">–2</text><text fill="rgb(37,37,37)" stroke="none" font-family="geogebra-sans-serif, sans-serif" font-size="12px" font-style="normal" font-weight="normal" text-decoration="normal" x="164" y="275" text-anchor="start" dominant-baseline="alphabetic" fill-opacity="1">–1</text><text fill="none" stroke="rgb(255,255,255)" font-family="geogebra-sans-serif, sans-serif" font-size="12px" font-style="normal" font-weight="normal" text-decoration="normal" x="164" y="275" text-anchor="start" dominant-baseline="alphabetic" stroke-opacity="1" stroke-linejoin="bevel" stroke-miterlimit="10" stroke-width="3">–1</text><text fill="rgb(37,37,37)" stroke="none" font-family="geogebra-sans-serif, sans-serif" font-size="12px" font-style="normal" font-weight="normal" text-decoration="normal" x="164" y="275" text-anchor="start" dominant-baseline="alphabetic" fill-opacity="1">–1</text><text fill="rgb(37,37,37)" stroke="none" font-family="geogebra-sans-serif, sans-serif" font-size="12px" font-style="normal" font-weight="normal" text-decoration="normal" x="170" y="165" text-anchor="start" dominant-baseline="alphabetic" fill-opacity="1">1</text><text fill="none" stroke="rgb(255,255,255)" font-family="geogebra-sans-serif, sans-serif" font-size="12px" font-style="normal" font-weight="normal" text-decoration="normal" x="170" y="165" text-anchor="start" dominant-baseline="alphabetic" stroke-opacity="1" stroke-linejoin="bevel" stroke-miterlimit="10" stroke-width="3">1</text><text fill="rgb(37,37,37)" stroke="none" font-family="geogebra-sans-serif, sans-serif" font-size="12px" font-style="normal" font-weight="normal" text-decoration="normal" x="170" y="165" text-anchor="start" dominant-baseline="alphabetic" fill-opacity="1">1</text><text fill="rgb(37,37,37)" stroke="none" font-family="geogebra-sans-serif, sans-serif" font-size="12px" font-style="normal" font-weight="normal" text-decoration="normal" x="170" y="111" text-anchor="start" dominant-baseline="alphabetic" fill-opacity="1">2</text><text fill="none" stroke="rgb(255,255,255)" font-family="geogebra-sans-serif, sans-serif" font-size="12px" font-style="normal" font-weight="normal" text-decoration="normal" x="170" y="111" text-anchor="start" dominant-baseline="alphabetic" stroke-opacity="1" stroke-linejoin="bevel" stroke-miterlimit="10" stroke-width="3">2</text><text fill="rgb(37,37,37)" stroke="none" font-family="geogebra-sans-serif, sans-serif" font-size="12px" font-style="normal" font-weight="normal" text-decoration="normal" x="170" y="111" text-anchor="start" dominant-baseline="alphabetic" fill-opacity="1">2</text><text fill="rgb(37,37,37)" stroke="none" font-family="geogebra-sans-serif, sans-serif" font-size="12px" font-style="normal" font-weight="normal" text-decoration="normal" x="170" y="56" text-anchor="start" dominant-baseline="alphabetic" fill-opacity="1">3</text><text fill="none" stroke="rgb(255,255,255)" font-family="geogebra-sans-serif, sans-serif" font-size="12px" font-style="normal" font-weight="normal" text-decoration="normal" x="170" y="56" text-anchor="start" dominant-baseline="alphabetic" stroke-opacity="1" stroke-linejoin="bevel" stroke-miterlimit="10" stroke-width="3">3</text><text fill="rgb(37,37,37)" stroke="none" font-family="geogebra-sans-serif, sans-serif" font-size="12px" font-style="normal" font-weight="normal" text-decoration="normal" x="170" y="56" text-anchor="start" dominant-baseline="alphabetic" fill-opacity="1">3</text><text fill="rgb(37,37,37)" stroke="none" font-family="geogebra-sans-serif, sans-serif" font-size="12px" font-style="normal" font-weight="normal" text-decoration="normal" x="170" y="231" text-anchor="start" dominant-baseline="alphabetic" fill-opacity="1">0</text><text fill="none" stroke="rgb(255,255,255)" font-family="geogebra-sans-serif, sans-serif" font-size="12px" font-style="normal" font-weight="normal" text-decoration="normal" x="170" y="231" text-anchor="start" dominant-baseline="alphabetic" stroke-opacity="1" stroke-linejoin="bevel" stroke-miterlimit="10" stroke-width="3">0</text><text fill="rgb(37,37,37)" stroke="none" font-family="geogebra-sans-serif, sans-serif" font-size="12px" font-style="normal" font-weight="normal" text-decoration="normal" x="170" y="231" text-anchor="start" dominant-baseline="alphabetic" fill-opacity="1">0</text><path fill="rgb(21,101,192)" stroke="none" paint-order="stroke fill markers" fill-rule="evenodd" d=" M 184.8729055183898 51.72018688196178 L 239.45575533387003 51.72018688196178 L 239.45575533387003 160.88588651292196 L 294.03860514935025 160.88588651292196 L 294.03860514935025 215.46873632840206 L 184.8729055183898 215.46873632840206 Z" fill-opacity="0.09803921568627451"/><path fill="rgb(211,47,47)" stroke="none" paint-order="stroke fill markers" fill-rule="evenodd" d=" M 184.8729055183898 379.21728577484237 L 130.2900557029096 379.21728577484237 L 130.2900557029096 270.05158614388216 L 75.70720588742938 270.05158614388216 L 75.70720588742938 215.46873632840206 L 184.8729055183898 215.46873632840206 Z" fill-opacity="0.09803921568627451"/><path fill="none" stroke="rgb(21,101,192)" paint-order="fill stroke markers" d=" M 184.8729055183898 51.72018688196178 L 239.45575533387003 51.72018688196178" stroke-opacity="0.6980392156862745" stroke-linecap="round" stroke-linejoin="round" stroke-miterlimit="10" stroke-width="2.5"/><path fill="none" stroke="rgb(21,101,192)" paint-order="fill stroke markers" d=" M 239.45575533387003 51.72018688196178 L 239.45575533387003 160.88588651292196" stroke-opacity="0.6980392156862745" stroke-linecap="round" stroke-linejoin="round" stroke-miterlimit="10" stroke-width="2.5"/><path fill="none" stroke="rgb(21,101,192)" paint-order="fill stroke markers" d=" M 239.45575533387003 160.88588651292196 L 294.03860514935025 160.88588651292196" stroke-opacity="0.6980392156862745" stroke-linecap="round" stroke-linejoin="round" stroke-miterlimit="10" stroke-width="2.5"/><path fill="none" stroke="rgb(21,101,192)" paint-order="fill stroke markers" d=" M 294.03860514935025 160.88588651292196 L 294.03860514935025 215.46873632840206" stroke-opacity="0.6980392156862745" stroke-linecap="round" stroke-linejoin="round" stroke-miterlimit="10" stroke-width="2.5"/><path fill="none" stroke="rgb(21,101,192)" paint-order="fill stroke markers" d=" M 294.03860514935025 215.46873632840206 L 184.8729055183898 215.46873632840206" stroke-opacity="0.6980392156862745" stroke-linecap="round" stroke-linejoin="round" stroke-miterlimit="10" stroke-width="2.5"/><path fill="none" stroke="rgb(21,101,192)" paint-order="fill stroke markers" d=" M 184.8729055183898 215.46873632840206 L 184.8729055183898 51.72018688196178" stroke-opacity="0.6980392156862745" stroke-linecap="round" stroke-linejoin="round" stroke-miterlimit="10" stroke-width="2.5"/><path fill="none" stroke="rgb(211,47,47)" paint-order="fill stroke markers" d=" M 184.8729055183898 379.21728577484237 L 130.2900557029096 379.21728577484237" stroke-opacity="0.6980392156862745" stroke-linecap="round" stroke-linejoin="round" stroke-miterlimit="10" stroke-width="2.5"/><path fill="none" stroke="rgb(211,47,47)" paint-order="fill stroke markers" d=" M 130.2900557029096 379.21728577484237 L 130.2900557029096 270.05158614388216" stroke-opacity="0.6980392156862745" stroke-linecap="round" stroke-linejoin="round" stroke-miterlimit="10" stroke-width="2.5"/><path fill="none" stroke="rgb(211,47,47)" paint-order="fill stroke markers" d=" M 130.2900557029096 270.05158614388216 L 75.70720588742938 270.05158614388216" stroke-opacity="0.6980392156862745" stroke-linecap="round" stroke-linejoin="round" stroke-miterlimit="10" stroke-width="2.5"/><path fill="none" stroke="rgb(211,47,47)" paint-order="fill stroke markers" d=" M 75.70720588742938 270.05158614388216 L 75.70720588742938 215.46873632840206" stroke-opacity="0.6980392156862745" stroke-linecap="round" stroke-linejoin="round" stroke-miterlimit="10" stroke-width="2.5"/><path fill="none" stroke="rgb(211,47,47)" paint-order="fill stroke markers" d=" M 75.70720588742938 215.46873632840206 L 184.8729055183898 215.46873632840206" stroke-opacity="0.6980392156862745" stroke-linecap="round" stroke-linejoin="round" stroke-miterlimit="10" stroke-width="2.5"/><path fill="none" stroke="rgb(211,47,47)" paint-order="fill stroke markers" d=" M 184.8729055183898 215.46873632840206 L 184.8729055183898 379.21728577484237" stroke-opacity="0.6980392156862745" stroke-linecap="round" stroke-linejoin="round" stroke-miterlimit="10" stroke-width="2.5"/><path fill="rgb(21,101,192)" stroke="none" paint-order="stroke fill markers" d=" M 185.8729055183898 51.72018688196178 C 185.8729055183898 52.27247163179257 185.4251902682206 52.72018688196178 184.8729055183898 52.72018688196178 C 184.32062076855902 52.72018688196178 183.8729055183898 52.27247163179257 183.8729055183898 51.72018688196178 C 183.8729055183898 51.16790213213098 184.32062076855902 50.72018688196178 184.8729055183898 50.72018688196178 C 185.4251902682206 50.72018688196178 185.8729055183898 51.16790213213098 185.8729055183898 51.72018688196178 Z" fill-opacity="1"/><path fill="rgb(21,101,192)" stroke="none" paint-order="stroke fill markers" d=" M 240.45575533387003 51.72018688196178 C 240.45575533387003 52.27247163179257 240.00804008370082 52.72018688196178 239.45575533387003 52.72018688196178 C 238.90347058403924 52.72018688196178 238.45575533387003 52.27247163179257 238.45575533387003 51.72018688196178 C 238.45575533387003 51.16790213213098 238.90347058403924 50.72018688196178 239.45575533387003 50.72018688196178 C 240.00804008370082 50.72018688196178 240.45575533387003 51.16790213213098 240.45575533387003 51.72018688196178 Z" fill-opacity="1"/><path fill="rgb(211,47,47)" stroke="none" paint-order="stroke fill markers" d=" M 240.45575533387003 160.88588651292196 C 240.45575533387003 161.43817126275275 240.00804008370082 161.88588651292196 239.45575533387003 161.88588651292196 C 238.90347058403924 161.88588651292196 238.45575533387003 161.43817126275275 238.45575533387003 160.88588651292196 C 238.45575533387003 160.33360176309117 238.90347058403924 159.88588651292196 239.45575533387003 159.88588651292196 C 240.00804008370082 159.88588651292196 240.45575533387003 160.33360176309117 240.45575533387003 160.88588651292196 Z" fill-opacity="1"/><path fill="rgb(21,101,192)" stroke="none" paint-order="stroke fill markers" d=" M 295.03860514935025 215.46873632840206 C 295.03860514935025 216.02102107823285 294.59088989918104 216.46873632840206 294.03860514935025 216.46873632840206 C 293.48632039951946 216.46873632840206 293.03860514935025 216.02102107823285 293.03860514935025 215.46873632840206 C 293.03860514935025 214.91645157857127 293.48632039951946 214.46873632840206 294.03860514935025 214.46873632840206 C 294.59088989918104 214.46873632840206 295.03860514935025 214.91645157857127 295.03860514935025 215.46873632840206 Z" fill-opacity="1"/><path fill="rgb(97,97,97)" stroke="none" paint-order="stroke fill markers" d=" M 185.8729055183898 215.46873632840206 C 185.8729055183898 216.02102107823285 185.4251902682206 216.46873632840206 184.8729055183898 216.46873632840206 C 184.32062076855902 216.46873632840206 183.8729055183898 216.02102107823285 183.8729055183898 215.46873632840206 C 183.8729055183898 214.91645157857127 184.32062076855902 214.46873632840206 184.8729055183898 214.46873632840206 C 185.4251902682206 214.46873632840206 185.8729055183898 214.91645157857127 185.8729055183898 215.46873632840206 Z" fill-opacity="1"/><path fill="rgb(21,101,192)" stroke="none" paint-order="stroke fill markers" d=" M 185.8729055183898 51.72018688196178 C 185.8729055183898 52.27247163179257 185.4251902682206 52.72018688196178 184.8729055183898 52.72018688196178 C 184.32062076855902 52.72018688196178 183.8729055183898 52.27247163179257 183.8729055183898 51.72018688196178 C 183.8729055183898 51.16790213213098 184.32062076855902 50.72018688196178 184.8729055183898 50.72018688196178 C 185.4251902682206 50.72018688196178 185.8729055183898 51.16790213213098 185.8729055183898 51.72018688196178 Z" fill-opacity="1"/><path fill="rgb(97,97,97)" stroke="none" paint-order="stroke fill markers" d=" M 185.8729055183898 215.46873632840206 C 185.8729055183898 216.02102107823285 185.4251902682206 216.46873632840206 184.8729055183898 216.46873632840206 C 184.32062076855902 216.46873632840206 183.8729055183898 216.02102107823285 183.8729055183898 215.46873632840206 C 183.8729055183898 214.91645157857127 184.32062076855902 214.46873632840206 184.8729055183898 214.46873632840206 C 185.4251902682206 214.46873632840206 185.8729055183898 214.91645157857127 185.8729055183898 215.46873632840206 Z" fill-opacity="1"/><path fill="rgb(211,47,47)" stroke="none" paint-order="stroke fill markers" d=" M 185.8729055183898 105.99999999999972 C 185.8729055183898 106.5522847498305 185.4251902682206 106.99999999999972 184.8729055183898 106.99999999999972 C 184.32062076855902 106.99999999999972 183.8729055183898 106.5522847498305 183.8729055183898 105.99999999999972 C 183.8729055183898 105.44771525016893 184.32062076855902 104.99999999999972 184.8729055183898 104.99999999999972 C 185.4251902682206 104.99999999999972 185.8729055183898 105.44771525016893 185.8729055183898 105.99999999999972 Z" fill-opacity="1"/><path fill="rgb(211,47,47)" stroke="none" paint-order="stroke fill markers" d=" M 240.45575533387003 106.30303669744187 C 240.45575533387003 106.85532144727266 240.00804008370082 107.30303669744187 239.45575533387003 107.30303669744187 C 238.90347058403924 107.30303669744187 238.45575533387003 106.85532144727266 238.45575533387003 106.30303669744187 C 238.45575533387003 105.75075194761108 238.90347058403924 105.30303669744187 239.45575533387003 105.30303669744187 C 240.00804008370082 105.30303669744187 240.45575533387003 105.75075194761108 240.45575533387003 106.30303669744187 Z" fill-opacity="1"/><path fill="rgb(97,97,97)" stroke="none" paint-order="stroke fill markers" d=" M 185.8729055183898 215.46873632840206 C 185.8729055183898 216.02102107823285 185.4251902682206 216.46873632840206 184.8729055183898 216.46873632840206 C 184.32062076855902 216.46873632840206 183.8729055183898 216.02102107823285 183.8729055183898 215.46873632840206 C 183.8729055183898 214.91645157857127 184.32062076855902 214.46873632840206 184.8729055183898 214.46873632840206 C 185.4251902682206 214.46873632840206 185.8729055183898 214.91645157857127 185.8729055183898 215.46873632840206 Z" fill-opacity="1"/><path fill="rgb(211,47,47)" stroke="none" paint-order="stroke fill markers" d=" M 185.8729055183898 270.05158614388216 C 185.8729055183898 270.60387089371295 185.4251902682206 271.05158614388216 184.8729055183898 271.05158614388216 C 184.32062076855902 271.05158614388216 183.8729055183898 270.60387089371295 183.8729055183898 270.05158614388216 C 183.8729055183898 269.4993013940514 184.32062076855902 269.05158614388216 184.8729055183898 269.05158614388216 C 185.4251902682206 269.05158614388216 185.8729055183898 269.4993013940514 185.8729055183898 270.05158614388216 Z" fill-opacity="1"/><path fill="rgb(97,97,97)" stroke="none" paint-order="stroke fill markers" d=" M 185.8729055183898 215.46873632840206 C 185.8729055183898 216.02102107823285 185.4251902682206 216.46873632840206 184.8729055183898 216.46873632840206 C 184.32062076855902 216.46873632840206 183.8729055183898 216.02102107823285 183.8729055183898 215.46873632840206 C 183.8729055183898 214.91645157857127 184.32062076855902 214.46873632840206 184.8729055183898 214.46873632840206 C 185.4251902682206 214.46873632840206 185.8729055183898 214.91645157857127 185.8729055183898 215.46873632840206 Z" fill-opacity="1"/><path fill="rgb(211,47,47)" stroke="none" paint-order="stroke fill markers" d=" M 185.8729055183898 270.05158614388216 C 185.8729055183898 270.60387089371295 185.4251902682206 271.05158614388216 184.8729055183898 271.05158614388216 C 184.32062076855902 271.05158614388216 183.8729055183898 270.60387089371295 183.8729055183898 270.05158614388216 C 183.8729055183898 269.4993013940514 184.32062076855902 269.05158614388216 184.8729055183898 269.05158614388216 C 185.4251902682206 269.05158614388216 185.8729055183898 269.4993013940514 185.8729055183898 270.05158614388216 Z" fill-opacity="1"/><path fill="rgb(211,47,47)" stroke="none" paint-order="stroke fill markers" d=" M 185.8729055183898 379.21728577484237 C 185.8729055183898 379.76957052467316 185.4251902682206 380.21728577484237 184.8729055183898 380.21728577484237 C 184.32062076855902 380.21728577484237 183.8729055183898 379.76957052467316 183.8729055183898 379.21728577484237 C 183.8729055183898 378.6650010250116 184.32062076855902 378.21728577484237 184.8729055183898 378.21728577484237 C 185.4251902682206 378.21728577484237 185.8729055183898 378.6650010250116 185.8729055183898 379.21728577484237 Z" fill-opacity="1"/><path fill="rgb(211,47,47)" stroke="none" paint-order="stroke fill markers" d=" M 131.2900557029096 379.21728577484237 C 131.2900557029096 379.76957052467316 130.8423404527404 380.21728577484237 130.2900557029096 380.21728577484237 C 129.7377709530788 380.21728577484237 129.2900557029096 379.76957052467316 129.2900557029096 379.21728577484237 C 129.2900557029096 378.6650010250116 129.7377709530788 378.21728577484237 130.2900557029096 378.21728577484237 C 130.8423404527404 378.21728577484237 131.2900557029096 378.6650010250116 131.2900557029096 379.21728577484237 Z" fill-opacity="1"/><path fill="rgb(211,47,47)" stroke="none" paint-order="stroke fill markers" d=" M 131.2900557029096 270.05158614388216 C 131.2900557029096 270.60387089371295 130.8423404527404 271.05158614388216 130.2900557029096 271.05158614388216 C 129.7377709530788 271.05158614388216 129.2900557029096 270.60387089371295 129.2900557029096 270.05158614388216 C 129.2900557029096 269.4993013940514 129.7377709530788 269.05158614388216 130.2900557029096 269.05158614388216 C 130.8423404527404 269.05158614388216 131.2900557029096 269.4993013940514 131.2900557029096 270.05158614388216 Z" fill-opacity="1"/><path fill="rgb(211,47,47)" stroke="none" paint-order="stroke fill markers" d=" M 76.70720588742938 270.05158614388216 C 76.70720588742938 270.60387089371295 76.25949063726017 271.05158614388216 75.70720588742938 271.05158614388216 C 75.15492113759859 271.05158614388216 74.70720588742938 270.60387089371295 74.70720588742938 270.05158614388216 C 74.70720588742938 269.4993013940514 75.15492113759859 269.05158614388216 75.70720588742938 269.05158614388216 C 76.25949063726017 269.05158614388216 76.70720588742938 269.4993013940514 76.70720588742938 270.05158614388216 Z" fill-opacity="1"/><path fill="rgb(211,47,47)" stroke="none" paint-order="stroke fill markers" d=" M 76.70720588742938 215.46873632840206 C 76.70720588742938 216.02102107823285 76.25949063726017 216.46873632840206 75.70720588742938 216.46873632840206 C 75.15492113759859 216.46873632840206 74.70720588742938 216.02102107823285 74.70720588742938 215.46873632840206 C 74.70720588742938 214.91645157857127 75.15492113759859 214.46873632840206 75.70720588742938 214.46873632840206 C 76.25949063726017 214.46873632840206 76.70720588742938 214.91645157857127 76.70720588742938 215.46873632840206 Z" fill-opacity="1"/></g></g></svg>