<svg version="1.1" xmlns="http://www.w3.org/2000/svg" xmlns:xlink="http://www.w3.org/1999/xlink" width="342" height="380"><defs><clipPath id="VtgFOTUXUhTL"><path fill="none" stroke="none" d=" M 0 0 L 342 0 L 342 380 L 0 380 L 0 0 Z"/></clipPath></defs><g transform="scale(1,1)" clip-path="url(#VtgFOTUXUhTL)"><g><rect fill="rgb(255,255,255)" stroke="none" x="0" y="0" width="342" height="381" fill-opacity="1"/><path fill="none" stroke="rgb(192,192,192)" paint-order="fill stroke markers" d=" M 21.5 0.5 L 21.5 380.5 M 21.5 0.5 L 21.5 380.5 M 75.5 0.5 L 75.5 380.5 M 130.5 0.5 L 130.5 380.5 M 239.5 0.5 L 239.5 380.5 M 294.5 0.5 L 294.5 380.5" stroke-opacity="1" stroke-linecap="round" stroke-linejoin="round" stroke-miterlimit="10"/><path fill="none" stroke="rgb(192,192,192)" paint-order="fill stroke markers" d=" M 10.5 0.5 L 10.5 380.5 M 32.5 0.5 L 32.5 380.5 M 42.5 0.5 L 42.5 380.5 M 53.5 0.5 L 53.5 380.5 M 64.5 0.5 L 64.5 380.5 M 86.5 0.5 L 86.5 380.5 M 97.5 0.5 L 97.5 380.5 M 108.5 0.5 L 108.5 380.5 M 119.5 0.5 L 119.5 380.5 M 141.5 0.5 L 141.5 380.5 M 152.5 0.5 L 152.5 380.5 M 163.5 0.5 L 163.5 380.5 M 173.5 0.5 L 173.5 380.5 M 195.5 0.5 L 195.5 380.5 M 206.5 0.5 L 206.5 380.5 M 217.5 0.5 L 217.5 380.5 M 228.5 0.5 L 228.5 380.5 M 250.5 0.5 L 250.5 380.5 M 261.5 0.5 L 261.5 380.5 M 272.5 0.5 L 272.5 380.5 M 283.5 0.5 L 283.5 380.5 M 304.5 0.5 L 304.5 380.5 M 315.5 0.5 L 315.5 380.5 M 326.5 0.5 L 326.5 380.5 M 337.5 0.5 L 337.5 380.5" stroke-opacity="0.23529411764705882" stroke-linecap="round" stroke-linejoin="round" stroke-miterlimit="10"/><path fill="none" stroke="rgb(192,192,192)" paint-order="fill stroke markers" d=" M 0.5 41.5 L 342.5 41.5 M 0.5 41.5 L 342.5 41.5 M 0.5 96.5 L 342.5 96.5 M 0.5 150.5 L 342.5 150.5 M 0.5 260.5 L 342.5 260.5 M 0.5 314.5 L 342.5 314.5 M 0.5 369.5 L 342.5 369.5" stroke-opacity="1" stroke-linecap="round" stroke-linejoin="round" stroke-miterlimit="10"/><path fill="none" stroke="rgb(192,192,192)" paint-order="fill stroke markers" d=" M 0.5 8.5 L 342.5 8.5 M 0.5 8.5 L 342.5 8.5 M 0.5 19.5 L 342.5 19.5 M 0.5 30.5 L 342.5 30.5 M 0.5 52.5 L 342.5 52.5 M 0.5 63.5 L 342.5 63.5 M 0.5 74.5 L 342.5 74.5 M 0.5 85.5 L 342.5 85.5 M 0.5 107.5 L 342.5 107.5 M 0.5 118.5 L 342.5 118.5 M 0.5 129.5 L 342.5 129.5 M 0.5 139.5 L 342.5 139.5 M 0.5 161.5 L 342.5 161.5 M 0.5 172.5 L 342.5 172.5 M 0.5 183.5 L 342.5 183.5 M 0.5 194.5 L 342.5 194.5 M 0.5 216.5 L 342.5 216.5 M 0.5 227.5 L 342.5 227.5 M 0.5 238.5 L 342.5 238.5 M 0.5 249.5 L 342.5 249.5 M 0.5 270.5 L 342.5 270.5 M 0.5 281.5 L 342.5 281.5 M 0.5 292.5 L 342.5 292.5 M 0.5 303.5 L 342.5 303.5 M 0.5 325.5 L 342.5 325.5 M 0.5 336.5 L 342.5 336.5 M 0.5 347.5 L 342.5 347.5 M 0.5 358.5 L 342.5 358.5" stroke-opacity="0.23529411764705882" stroke-linecap="round" stroke-linejoin="round" stroke-miterlimit="10"/><path fill="none" stroke="rgb(37,37,37)" paint-order="fill stroke markers" d=" M 184.5 2.5 L 184.5 380.5" stroke-opacity="1" stroke-miterlimit="10"/><path fill="none" stroke="rgb(37,37,37)" paint-order="fill stroke markers" d=" M 184.5 1.5 L 180.5 5.5" stroke-opacity="1" stroke-miterlimit="10"/><path fill="none" stroke="rgb(37,37,37)" paint-order="fill stroke markers" d=" M 184.5 1.5 L 188.5 5.5" stroke-opacity="1" stroke-miterlimit="10"/><path fill="none" stroke="rgb(37,37,37)" paint-order="fill stroke markers" d=" M 0.5 205.5 L 340.5 205.5" stroke-opacity="1" stroke-miterlimit="10"/><path fill="none" stroke="rgb(37,37,37)" paint-order="fill stroke markers" d=" M 341.5 205.5 L 337.5 201.5" stroke-opacity="1" stroke-miterlimit="10"/><path fill="none" stroke="rgb(37,37,37)" paint-order="fill stroke markers" d=" M 341.5 205.5 L 337.5 209.5" stroke-opacity="1" stroke-miterlimit="10"/><text fill="rgb(37,37,37)" stroke="none" font-family="geogebra-sans-serif, sans-serif" font-size="12px" font-style="normal" font-weight="normal" text-decoration="normal" x="16" y="221" text-anchor="start" dominant-baseline="alphabetic" fill-opacity="1">–3</text><text fill="none" stroke="rgb(255,255,255)" font-family="geogebra-sans-serif, sans-serif" font-size="12px" font-style="normal" font-weight="normal" text-decoration="normal" x="16" y="221" text-anchor="start" dominant-baseline="alphabetic" stroke-opacity="1" stroke-linejoin="bevel" stroke-miterlimit="10" stroke-width="3">–3</text><text fill="rgb(37,37,37)" stroke="none" font-family="geogebra-sans-serif, sans-serif" font-size="12px" font-style="normal" font-weight="normal" text-decoration="normal" x="16" y="221" text-anchor="start" dominant-baseline="alphabetic" fill-opacity="1">–3</text><text fill="rgb(37,37,37)" stroke="none" font-family="geogebra-sans-serif, sans-serif" font-size="12px" font-style="normal" font-weight="normal" text-decoration="normal" x="70" y="221" text-anchor="start" dominant-baseline="alphabetic" fill-opacity="1">–2</text><text fill="none" stroke="rgb(255,255,255)" font-family="geogebra-sans-serif, sans-serif" font-size="12px" font-style="normal" font-weight="normal" text-decoration="normal" x="70" y="221" text-anchor="start" dominant-baseline="alphabetic" stroke-opacity="1" stroke-linejoin="bevel" stroke-miterlimit="10" stroke-width="3">–2</text><text fill="rgb(37,37,37)" stroke="none" font-family="geogebra-sans-serif, sans-serif" font-size="12px" font-style="normal" font-weight="normal" text-decoration="normal" x="70" y="221" text-anchor="start" dominant-baseline="alphabetic" fill-opacity="1">–2</text><text fill="rgb(37,37,37)" stroke="none" font-family="geogebra-sans-serif, sans-serif" font-size="12px" font-style="normal" font-weight="normal" text-decoration="normal" x="125" y="221" text-anchor="start" dominant-baseline="alphabetic" fill-opacity="1">–1</text><text fill="none" stroke="rgb(255,255,255)" font-family="geogebra-sans-serif, sans-serif" font-size="12px" font-style="normal" font-weight="normal" text-decoration="normal" x="125" y="221" text-anchor="start" dominant-baseline="alphabetic" stroke-opacity="1" stroke-linejoin="bevel" stroke-miterlimit="10" stroke-width="3">–1</text><text fill="rgb(37,37,37)" stroke="none" font-family="geogebra-sans-serif, sans-serif" font-size="12px" font-style="normal" font-weight="normal" text-decoration="normal" x="125" y="221" text-anchor="start" dominant-baseline="alphabetic" fill-opacity="1">–1</text><text fill="rgb(37,37,37)" stroke="none" font-family="geogebra-sans-serif, sans-serif" font-size="12px" font-style="normal" font-weight="normal" text-decoration="normal" x="237" y="221" text-anchor="start" dominant-baseline="alphabetic" fill-opacity="1">1</text><text fill="none" stroke="rgb(255,255,255)" font-family="geogebra-sans-serif, sans-serif" font-size="12px" font-style="normal" font-weight="normal" text-decoration="normal" x="237" y="221" text-anchor="start" dominant-baseline="alphabetic" stroke-opacity="1" stroke-linejoin="bevel" stroke-miterlimit="10" stroke-width="3">1</text><text fill="rgb(37,37,37)" stroke="none" font-family="geogebra-sans-serif, sans-serif" font-size="12px" font-style="normal" font-weight="normal" text-decoration="normal" x="237" y="221" text-anchor="start" dominant-baseline="alphabetic" fill-opacity="1">1</text><text fill="rgb(37,37,37)" stroke="none" font-family="geogebra-sans-serif, sans-serif" font-size="12px" font-style="normal" font-weight="normal" text-decoration="normal" x="292" y="221" text-anchor="start" dominant-baseline="alphabetic" fill-opacity="1">2</text><text fill="none" stroke="rgb(255,255,255)" font-family="geogebra-sans-serif, sans-serif" font-size="12px" font-style="normal" font-weight="normal" text-decoration="normal" x="292" y="221" text-anchor="start" dominant-baseline="alphabetic" stroke-opacity="1" stroke-linejoin="bevel" stroke-miterlimit="10" stroke-width="3">2</text><text fill="rgb(37,37,37)" stroke="none" font-family="geogebra-sans-serif, sans-serif" font-size="12px" font-style="normal" font-weight="normal" text-decoration="normal" x="292" y="221" text-anchor="start" dominant-baseline="alphabetic" fill-opacity="1">2</text><text fill="rgb(37,37,37)" stroke="none" font-family="geogebra-sans-serif, sans-serif" font-size="12px" font-style="normal" font-weight="normal" text-decoration="normal" x="164" y="374" text-anchor="start" dominant-baseline="alphabetic" fill-opacity="1">–3</text><text fill="none" stroke="rgb(255,255,255)" font-family="geogebra-sans-serif, sans-serif" font-size="12px" font-style="normal" font-weight="normal" text-decoration="normal" x="164" y="374" text-anchor="start" dominant-baseline="alphabetic" stroke-opacity="1" stroke-linejoin="bevel" stroke-miterlimit="10" stroke-width="3">–3</text><text fill="rgb(37,37,37)" stroke="none" font-family="geogebra-sans-serif, sans-serif" font-size="12px" font-style="normal" font-weight="normal" text-decoration="normal" x="164" y="374" text-anchor="start" dominant-baseline="alphabetic" fill-opacity="1">–3</text><text fill="rgb(37,37,37)" stroke="none" font-family="geogebra-sans-serif, sans-serif" font-size="12px" font-style="normal" font-weight="normal" text-decoration="normal" x="164" y="319" text-anchor="start" dominant-baseline="alphabetic" fill-opacity="1">–2</text><text fill="none" stroke="rgb(255,255,255)" font-family="geogebra-sans-serif, sans-serif" font-size="12px" font-style="normal" font-weight="normal" text-decoration="normal" x="164" y="319" text-anchor="start" dominant-baseline="alphabetic" stroke-opacity="1" stroke-linejoin="bevel" stroke-miterlimit="10" stroke-width="3">–2</text><text fill="rgb(37,37,37)" stroke="none" font-family="geogebra-sans-serif, sans-serif" font-size="12px" font-style="normal" font-weight="normal" text-decoration="normal" x="164" y="319" text-anchor="start" dominant-baseline="alphabetic" fill-opacity="1">–2</text><text fill="rgb(37,37,37)" stroke="none" font-family="geogebra-sans-serif, sans-serif" font-size="12px" font-style="normal" font-weight="normal" text-decoration="normal" x="164" y="265" text-anchor="start" dominant-baseline="alphabetic" fill-opacity="1">–1</text><text fill="none" stroke="rgb(255,255,255)" font-family="geogebra-sans-serif, sans-serif" font-size="12px" font-style="normal" font-weight="normal" text-decoration="normal" x="164" y="265" text-anchor="start" dominant-baseline="alphabetic" stroke-opacity="1" stroke-linejoin="bevel" stroke-miterlimit="10" stroke-width="3">–1</text><text fill="rgb(37,37,37)" stroke="none" font-family="geogebra-sans-serif, sans-serif" font-size="12px" font-style="normal" font-weight="normal" text-decoration="normal" x="164" y="265" text-anchor="start" dominant-baseline="alphabetic" fill-opacity="1">–1</text><text fill="rgb(37,37,37)" stroke="none" font-family="geogebra-sans-serif, sans-serif" font-size="12px" font-style="normal" font-weight="normal" text-decoration="normal" x="170" y="155" text-anchor="start" dominant-baseline="alphabetic" fill-opacity="1">1</text><text fill="none" stroke="rgb(255,255,255)" font-family="geogebra-sans-serif, sans-serif" font-size="12px" font-style="normal" font-weight="normal" text-decoration="normal" x="170" y="155" text-anchor="start" dominant-baseline="alphabetic" stroke-opacity="1" stroke-linejoin="bevel" stroke-miterlimit="10" stroke-width="3">1</text><text fill="rgb(37,37,37)" stroke="none" font-family="geogebra-sans-serif, sans-serif" font-size="12px" font-style="normal" font-weight="normal" text-decoration="normal" x="170" y="155" text-anchor="start" dominant-baseline="alphabetic" fill-opacity="1">1</text><text fill="rgb(37,37,37)" stroke="none" font-family="geogebra-sans-serif, sans-serif" font-size="12px" font-style="normal" font-weight="normal" text-decoration="normal" x="170" y="101" text-anchor="start" dominant-baseline="alphabetic" fill-opacity="1">2</text><text fill="none" stroke="rgb(255,255,255)" font-family="geogebra-sans-serif, sans-serif" font-size="12px" font-style="normal" font-weight="normal" text-decoration="normal" x="170" y="101" text-anchor="start" dominant-baseline="alphabetic" stroke-opacity="1" stroke-linejoin="bevel" stroke-miterlimit="10" stroke-width="3">2</text><text fill="rgb(37,37,37)" stroke="none" font-family="geogebra-sans-serif, sans-serif" font-size="12px" font-style="normal" font-weight="normal" text-decoration="normal" x="170" y="101" text-anchor="start" dominant-baseline="alphabetic" fill-opacity="1">2</text><text fill="rgb(37,37,37)" stroke="none" font-family="geogebra-sans-serif, sans-serif" font-size="12px" font-style="normal" font-weight="normal" text-decoration="normal" x="170" y="46" text-anchor="start" dominant-baseline="alphabetic" fill-opacity="1">3</text><text fill="none" stroke="rgb(255,255,255)" font-family="geogebra-sans-serif, sans-serif" font-size="12px" font-style="normal" font-weight="normal" text-decoration="normal" x="170" y="46" text-anchor="start" dominant-baseline="alphabetic" stroke-opacity="1" stroke-linejoin="bevel" stroke-miterlimit="10" stroke-width="3">3</text><text fill="rgb(37,37,37)" stroke="none" font-family="geogebra-sans-serif, sans-serif" font-size="12px" font-style="normal" font-weight="normal" text-decoration="normal" x="170" y="46" text-anchor="start" dominant-baseline="alphabetic" fill-opacity="1">3</text><text fill="rgb(37,37,37)" stroke="none" font-family="geogebra-sans-serif, sans-serif" font-size="12px" font-style="normal" font-weight="normal" text-decoration="normal" x="170" y="221" text-anchor="start" dominant-baseline="alphabetic" fill-opacity="1">0</text><text fill="none" stroke="rgb(255,255,255)" font-family="geogebra-sans-serif, sans-serif" font-size="12px" font-style="normal" font-weight="normal" text-decoration="normal" x="170" y="221" text-anchor="start" dominant-baseline="alphabetic" stroke-opacity="1" stroke-linejoin="bevel" stroke-miterlimit="10" stroke-width="3">0</text><text fill="rgb(37,37,37)" stroke="none" font-family="geogebra-sans-serif, sans-serif" font-size="12px" font-style="normal" font-weight="normal" text-decoration="normal" x="170" y="221" text-anchor="start" dominant-baseline="alphabetic" fill-opacity="1">0</text><path fill="rgb(21,101,192)" stroke="none" paint-order="stroke fill markers" fill-rule="evenodd" d=" M 184.8729055183898 41.72018688196192 L 239.45575533387003 41.72018688196192 L 239.45575533387003 150.88588651292213 L 294.03860514935025 150.88588651292213 L 294.03860514935025 205.4687363284022 L 184.8729055183898 205.4687363284022 Z" fill-opacity="0.09803921568627451"/><path fill="rgb(211,47,47)" stroke="none" paint-order="stroke fill markers" fill-rule="evenodd" d=" M 184.8729055183898 314.63443595936235 L 130.2900557029096 314.63443595936235 L 130.2900557029096 260.0515861438823 L 21.124356071949165 260.0515861438823 L 21.124356071949165 205.4687363284022 L 184.8729055183898 205.4687363284022 Z" fill-opacity="0.09803921568627451"/><path fill="none" stroke="rgb(21,101,192)" paint-order="fill stroke markers" d=" M 184.8729055183898 41.72018688196192 L 239.45575533387003 41.72018688196192" stroke-opacity="0.6980392156862745" stroke-linecap="round" stroke-linejoin="round" stroke-miterlimit="10" stroke-width="2.5"/><path fill="none" stroke="rgb(21,101,192)" paint-order="fill stroke markers" d=" M 239.45575533387003 41.72018688196192 L 239.45575533387003 150.88588651292213" stroke-opacity="0.6980392156862745" stroke-linecap="round" stroke-linejoin="round" stroke-miterlimit="10" stroke-width="2.5"/><path fill="none" stroke="rgb(21,101,192)" paint-order="fill stroke markers" d=" M 239.45575533387003 150.88588651292213 L 294.03860514935025 150.88588651292213" stroke-opacity="0.6980392156862745" stroke-linecap="round" stroke-linejoin="round" stroke-miterlimit="10" stroke-width="2.5"/><path fill="none" stroke="rgb(21,101,192)" paint-order="fill stroke markers" d=" M 294.03860514935025 150.88588651292213 L 294.03860514935025 205.4687363284022" stroke-opacity="0.6980392156862745" stroke-linecap="round" stroke-linejoin="round" stroke-miterlimit="10" stroke-width="2.5"/><path fill="none" stroke="rgb(21,101,192)" paint-order="fill stroke markers" d=" M 294.03860514935025 205.4687363284022 L 184.8729055183898 205.4687363284022" stroke-opacity="0.6980392156862745" stroke-linecap="round" stroke-linejoin="round" stroke-miterlimit="10" stroke-width="2.5"/><path fill="none" stroke="rgb(21,101,192)" paint-order="fill stroke markers" d=" M 184.8729055183898 205.4687363284022 L 184.8729055183898 41.72018688196192" stroke-opacity="0.6980392156862745" stroke-linecap="round" stroke-linejoin="round" stroke-miterlimit="10" stroke-width="2.5"/><path fill="none" stroke="rgb(211,47,47)" paint-order="fill stroke markers" d=" M 184.8729055183898 314.63443595936235 L 130.2900557029096 314.63443595936235" stroke-opacity="0.6980392156862745" stroke-linecap="round" stroke-linejoin="round" stroke-miterlimit="10" stroke-width="2.5"/><path fill="none" stroke="rgb(211,47,47)" paint-order="fill stroke markers" d=" M 130.2900557029096 314.63443595936235 L 130.2900557029096 260.0515861438823" stroke-opacity="0.6980392156862745" stroke-linecap="round" stroke-linejoin="round" stroke-miterlimit="10" stroke-width="2.5"/><path fill="none" stroke="rgb(211,47,47)" paint-order="fill stroke markers" d=" M 130.2900557029096 260.0515861438823 L 21.124356071949165 260.0515861438823" stroke-opacity="0.6980392156862745" stroke-linecap="round" stroke-linejoin="round" stroke-miterlimit="10" stroke-width="2.5"/><path fill="none" stroke="rgb(211,47,47)" paint-order="fill stroke markers" d=" M 21.124356071949165 260.0515861438823 L 21.124356071949165 205.4687363284022" stroke-opacity="0.6980392156862745" stroke-linecap="round" stroke-linejoin="round" stroke-miterlimit="10" stroke-width="2.5"/><path fill="none" stroke="rgb(211,47,47)" paint-order="fill stroke markers" d=" M 21.124356071949165 205.4687363284022 L 184.8729055183898 205.4687363284022" stroke-opacity="0.6980392156862745" stroke-linecap="round" stroke-linejoin="round" stroke-miterlimit="10" stroke-width="2.5"/><path fill="none" stroke="rgb(211,47,47)" paint-order="fill stroke markers" d=" M 184.8729055183898 205.4687363284022 L 184.8729055183898 314.63443595936235" stroke-opacity="0.6980392156862745" stroke-linecap="round" stroke-linejoin="round" stroke-miterlimit="10" stroke-width="2.5"/><path fill="rgb(21,101,192)" stroke="none" paint-order="stroke fill markers" d=" M 185.8729055183898 41.72018688196192 C 185.8729055183898 42.27247163179271 185.4251902682206 42.72018688196192 184.8729055183898 42.72018688196192 C 184.32062076855902 42.72018688196192 183.8729055183898 42.27247163179271 183.8729055183898 41.72018688196192 C 183.8729055183898 41.167902132131125 184.32062076855902 40.72018688196192 184.8729055183898 40.72018688196192 C 185.4251902682206 40.72018688196192 185.8729055183898 41.167902132131125 185.8729055183898 41.72018688196192 Z" fill-opacity="1"/><path fill="rgb(21,101,192)" stroke="none" paint-order="stroke fill markers" d=" M 240.45575533387003 41.72018688196192 C 240.45575533387003 42.27247163179271 240.00804008370082 42.72018688196192 239.45575533387003 42.72018688196192 C 238.90347058403924 42.72018688196192 238.45575533387003 42.27247163179271 238.45575533387003 41.72018688196192 C 238.45575533387003 41.167902132131125 238.90347058403924 40.72018688196192 239.45575533387003 40.72018688196192 C 240.00804008370082 40.72018688196192 240.45575533387003 41.167902132131125 240.45575533387003 41.72018688196192 Z" fill-opacity="1"/><path fill="rgb(211,47,47)" stroke="none" paint-order="stroke fill markers" d=" M 240.45575533387003 150.88588651292213 C 240.45575533387003 151.43817126275292 240.00804008370082 151.88588651292213 239.45575533387003 151.88588651292213 C 238.90347058403924 151.88588651292213 238.45575533387003 151.43817126275292 238.45575533387003 150.88588651292213 C 238.45575533387003 150.33360176309134 238.90347058403924 149.88588651292213 239.45575533387003 149.88588651292213 C 240.00804008370082 149.88588651292213 240.45575533387003 150.33360176309134 240.45575533387003 150.88588651292213 Z" fill-opacity="1"/><path fill="rgb(21,101,192)" stroke="none" paint-order="stroke fill markers" d=" M 295.03860514935025 205.4687363284022 C 295.03860514935025 206.021021078233 294.59088989918104 206.4687363284022 294.03860514935025 206.4687363284022 C 293.48632039951946 206.4687363284022 293.03860514935025 206.021021078233 293.03860514935025 205.4687363284022 C 293.03860514935025 204.9164515785714 293.48632039951946 204.4687363284022 294.03860514935025 204.4687363284022 C 294.59088989918104 204.4687363284022 295.03860514935025 204.9164515785714 295.03860514935025 205.4687363284022 Z" fill-opacity="1"/><path fill="rgb(97,97,97)" stroke="none" paint-order="stroke fill markers" d=" M 185.8729055183898 205.4687363284022 C 185.8729055183898 206.021021078233 185.4251902682206 206.4687363284022 184.8729055183898 206.4687363284022 C 184.32062076855902 206.4687363284022 183.8729055183898 206.021021078233 183.8729055183898 205.4687363284022 C 183.8729055183898 204.9164515785714 184.32062076855902 204.4687363284022 184.8729055183898 204.4687363284022 C 185.4251902682206 204.4687363284022 185.8729055183898 204.9164515785714 185.8729055183898 205.4687363284022 Z" fill-opacity="1"/><path fill="rgb(21,101,192)" stroke="none" paint-order="stroke fill markers" d=" M 185.8729055183898 41.72018688196192 C 185.8729055183898 42.27247163179271 185.4251902682206 42.72018688196192 184.8729055183898 42.72018688196192 C 184.32062076855902 42.72018688196192 183.8729055183898 42.27247163179271 183.8729055183898 41.72018688196192 C 183.8729055183898 41.167902132131125 184.32062076855902 40.72018688196192 184.8729055183898 40.72018688196192 C 185.4251902682206 40.72018688196192 185.8729055183898 41.167902132131125 185.8729055183898 41.72018688196192 Z" fill-opacity="1"/><path fill="rgb(97,97,97)" stroke="none" paint-order="stroke fill markers" d=" M 185.8729055183898 205.4687363284022 C 185.8729055183898 206.021021078233 185.4251902682206 206.4687363284022 184.8729055183898 206.4687363284022 C 184.32062076855902 206.4687363284022 183.8729055183898 206.021021078233 183.8729055183898 205.4687363284022 C 183.8729055183898 204.9164515785714 184.32062076855902 204.4687363284022 184.8729055183898 204.4687363284022 C 185.4251902682206 204.4687363284022 185.8729055183898 204.9164515785714 185.8729055183898 205.4687363284022 Z" fill-opacity="1"/><path fill="rgb(211,47,47)" stroke="none" paint-order="stroke fill markers" d=" M 185.8729055183898 95.99999999999987 C 185.8729055183898 96.55228474983066 185.4251902682206 96.99999999999987 184.8729055183898 96.99999999999987 C 184.32062076855902 96.99999999999987 183.8729055183898 96.55228474983066 183.8729055183898 95.99999999999987 C 183.8729055183898 95.44771525016908 184.32062076855902 94.99999999999987 184.8729055183898 94.99999999999987 C 185.4251902682206 94.99999999999987 185.8729055183898 95.44771525016908 185.8729055183898 95.99999999999987 Z" fill-opacity="1"/><path fill="rgb(211,47,47)" stroke="none" paint-order="stroke fill markers" d=" M 240.45575533387003 96.30303669744202 C 240.45575533387003 96.85532144727281 240.00804008370082 97.30303669744202 239.45575533387003 97.30303669744202 C 238.90347058403924 97.30303669744202 238.45575533387003 96.85532144727281 238.45575533387003 96.30303669744202 C 238.45575533387003 95.75075194761123 238.90347058403924 95.30303669744202 239.45575533387003 95.30303669744202 C 240.00804008370082 95.30303669744202 240.45575533387003 95.75075194761123 240.45575533387003 96.30303669744202 Z" fill-opacity="1"/><path fill="rgb(97,97,97)" stroke="none" paint-order="stroke fill markers" d=" M 185.8729055183898 205.4687363284022 C 185.8729055183898 206.021021078233 185.4251902682206 206.4687363284022 184.8729055183898 206.4687363284022 C 184.32062076855902 206.4687363284022 183.8729055183898 206.021021078233 183.8729055183898 205.4687363284022 C 183.8729055183898 204.9164515785714 184.32062076855902 204.4687363284022 184.8729055183898 204.4687363284022 C 185.4251902682206 204.4687363284022 185.8729055183898 204.9164515785714 185.8729055183898 205.4687363284022 Z" fill-opacity="1"/><path fill="rgb(211,47,47)" stroke="none" paint-order="stroke fill markers" d=" M 185.8729055183898 260.0515861438823 C 185.8729055183898 260.60387089371307 185.4251902682206 261.0515861438823 184.8729055183898 261.0515861438823 C 184.32062076855902 261.0515861438823 183.8729055183898 260.60387089371307 183.8729055183898 260.0515861438823 C 183.8729055183898 259.4993013940515 184.32062076855902 259.0515861438823 184.8729055183898 259.0515861438823 C 185.4251902682206 259.0515861438823 185.8729055183898 259.4993013940515 185.8729055183898 260.0515861438823 Z" fill-opacity="1"/><path fill="rgb(97,97,97)" stroke="none" paint-order="stroke fill markers" d=" M 185.8729055183898 205.4687363284022 C 185.8729055183898 206.021021078233 185.4251902682206 206.4687363284022 184.8729055183898 206.4687363284022 C 184.32062076855902 206.4687363284022 183.8729055183898 206.021021078233 183.8729055183898 205.4687363284022 C 183.8729055183898 204.9164515785714 184.32062076855902 204.4687363284022 184.8729055183898 204.4687363284022 C 185.4251902682206 204.4687363284022 185.8729055183898 204.9164515785714 185.8729055183898 205.4687363284022 Z" fill-opacity="1"/><path fill="rgb(211,47,47)" stroke="none" paint-order="stroke fill markers" d=" M 185.8729055183898 260.0515861438823 C 185.8729055183898 260.60387089371307 185.4251902682206 261.0515861438823 184.8729055183898 261.0515861438823 C 184.32062076855902 261.0515861438823 183.8729055183898 260.60387089371307 183.8729055183898 260.0515861438823 C 183.8729055183898 259.4993013940515 184.32062076855902 259.0515861438823 184.8729055183898 259.0515861438823 C 185.4251902682206 259.0515861438823 185.8729055183898 259.4993013940515 185.8729055183898 260.0515861438823 Z" fill-opacity="1"/><path fill="rgb(211,47,47)" stroke="none" paint-order="stroke fill markers" d=" M 185.8729055183898 314.63443595936235 C 185.8729055183898 315.18672070919314 185.4251902682206 315.63443595936235 184.8729055183898 315.63443595936235 C 184.32062076855902 315.63443595936235 183.8729055183898 315.18672070919314 183.8729055183898 314.63443595936235 C 183.8729055183898 314.08215120953156 184.32062076855902 313.63443595936235 184.8729055183898 313.63443595936235 C 185.4251902682206 313.63443595936235 185.8729055183898 314.08215120953156 185.8729055183898 314.63443595936235 Z" fill-opacity="1"/><path fill="rgb(211,47,47)" stroke="none" paint-order="stroke fill markers" d=" M 131.2900557029096 314.63443595936235 C 131.2900557029096 315.18672070919314 130.8423404527404 315.63443595936235 130.2900557029096 315.63443595936235 C 129.7377709530788 315.63443595936235 129.2900557029096 315.18672070919314 129.2900557029096 314.63443595936235 C 129.2900557029096 314.08215120953156 129.7377709530788 313.63443595936235 130.2900557029096 313.63443595936235 C 130.8423404527404 313.63443595936235 131.2900557029096 314.08215120953156 131.2900557029096 314.63443595936235 Z" fill-opacity="1"/><path fill="rgb(211,47,47)" stroke="none" paint-order="stroke fill markers" d=" M 131.2900557029096 260.0515861438823 C 131.2900557029096 260.60387089371307 130.8423404527404 261.0515861438823 130.2900557029096 261.0515861438823 C 129.7377709530788 261.0515861438823 129.2900557029096 260.60387089371307 129.2900557029096 260.0515861438823 C 129.2900557029096 259.4993013940515 129.7377709530788 259.0515861438823 130.2900557029096 259.0515861438823 C 130.8423404527404 259.0515861438823 131.2900557029096 259.4993013940515 131.2900557029096 260.0515861438823 Z" fill-opacity="1"/><path fill="rgb(211,47,47)" stroke="none" paint-order="stroke fill markers" d=" M 22.124356071949165 260.0515861438823 C 22.124356071949165 260.60387089371307 21.67664082177996 261.0515861438823 21.124356071949165 261.0515861438823 C 20.572071322118372 261.0515861438823 20.124356071949165 260.60387089371307 20.124356071949165 260.0515861438823 C 20.124356071949165 259.4993013940515 20.572071322118372 259.0515861438823 21.124356071949165 259.0515861438823 C 21.67664082177996 259.0515861438823 22.124356071949165 259.4993013940515 22.124356071949165 260.0515861438823 Z" fill-opacity="1"/><path fill="rgb(211,47,47)" stroke="none" paint-order="stroke fill markers" d=" M 22.124356071949165 205.4687363284022 C 22.124356071949165 206.021021078233 21.67664082177996 206.4687363284022 21.124356071949165 206.4687363284022 C 20.572071322118372 206.4687363284022 20.124356071949165 206.021021078233 20.124356071949165 205.4687363284022 C 20.124356071949165 204.9164515785714 20.572071322118372 204.4687363284022 21.124356071949165 204.4687363284022 C 21.67664082177996 204.4687363284022 22.124356071949165 204.9164515785714 22.124356071949165 205.4687363284022 Z" fill-opacity="1"/></g></g></svg>