<svg version="1.1" xmlns="http://www.w3.org/2000/svg" xmlns:xlink="http://www.w3.org/1999/xlink" width="484" height="392"><defs><clipPath id="AFTwUfdQTxbn"><path fill="none" stroke="none" d=" M 0 0 L 484 0 L 484 392 L 0 392 L 0 0 Z"/></clipPath></defs><g transform="scale(1,1)" clip-path="url(#AFTwUfdQTxbn)"><g><rect fill="rgb(255,255,255)" stroke="none" x="0" y="0" width="484" height="393" fill-opacity="1"/><path fill="none" stroke="rgb(192,192,192)" paint-order="fill stroke markers" d=" M 6.5 0.5 L 6.5 392.5 M 6.5 0.5 L 6.5 392.5 M 85.5 0.5 L 85.5 392.5 M 165.5 0.5 L 165.5 392.5 M 324.5 0.5 L 324.5 392.5 M 403.5 0.5 L 403.5 392.5 M 483.5 0.5 L 483.5 392.5" stroke-opacity="1" stroke-linecap="round" stroke-linejoin="round" stroke-miterlimit="10"/><path fill="none" stroke="rgb(192,192,192)" paint-order="fill stroke markers" d=" M 22.5 0.5 L 22.5 392.5 M 38.5 0.5 L 38.5 392.5 M 54.5 0.5 L 54.5 392.5 M 69.5 0.5 L 69.5 392.5 M 101.5 0.5 L 101.5 392.5 M 117.5 0.5 L 117.5 392.5 M 133.5 0.5 L 133.5 392.5 M 149.5 0.5 L 149.5 392.5 M 181.5 0.5 L 181.5 392.5 M 197.5 0.5 L 197.5 392.5 M 213.5 0.5 L 213.5 392.5 M 228.5 0.5 L 228.5 392.5 M 260.5 0.5 L 260.5 392.5 M 276.5 0.5 L 276.5 392.5 M 292.5 0.5 L 292.5 392.5 M 308.5 0.5 L 308.5 392.5 M 340.5 0.5 L 340.5 392.5 M 356.5 0.5 L 356.5 392.5 M 371.5 0.5 L 371.5 392.5 M 387.5 0.5 L 387.5 392.5 M 419.5 0.5 L 419.5 392.5 M 435.5 0.5 L 435.5 392.5 M 451.5 0.5 L 451.5 392.5 M 467.5 0.5 L 467.5 392.5" stroke-opacity="0.23529411764705882" stroke-linecap="round" stroke-linejoin="round" stroke-miterlimit="10"/><path fill="none" stroke="rgb(192,192,192)" paint-order="fill stroke markers" d=" M 0.5 66.5 L 484.5 66.5 M 0.5 66.5 L 484.5 66.5 M 0.5 146.5 L 484.5 146.5 M 0.5 225.5 L 484.5 225.5 M 0.5 384.5 L 484.5 384.5" stroke-opacity="1" stroke-linecap="round" stroke-linejoin="round" stroke-miterlimit="10"/><path fill="none" stroke="rgb(192,192,192)" paint-order="fill stroke markers" d=" M 0.5 3.5 L 484.5 3.5 M 0.5 19.5 L 484.5 19.5 M 0.5 34.5 L 484.5 34.5 M 0.5 50.5 L 484.5 50.5 M 0.5 82.5 L 484.5 82.5 M 0.5 98.5 L 484.5 98.5 M 0.5 114.5 L 484.5 114.5 M 0.5 130.5 L 484.5 130.5 M 0.5 162.5 L 484.5 162.5 M 0.5 177.5 L 484.5 177.5 M 0.5 193.5 L 484.5 193.5 M 0.5 209.5 L 484.5 209.5 M 0.5 241.5 L 484.5 241.5 M 0.5 257.5 L 484.5 257.5 M 0.5 273.5 L 484.5 273.5 M 0.5 289.5 L 484.5 289.5 M 0.5 321.5 L 484.5 321.5 M 0.5 336.5 L 484.5 336.5 M 0.5 352.5 L 484.5 352.5 M 0.5 368.5 L 484.5 368.5" stroke-opacity="0.23529411764705882" stroke-linecap="round" stroke-linejoin="round" stroke-miterlimit="10"/><path fill="none" stroke="rgb(37,37,37)" paint-order="fill stroke markers" d=" M 244.5 2.5 L 244.5 392.5" stroke-opacity="1" stroke-miterlimit="10"/><path fill="none" stroke="rgb(37,37,37)" paint-order="fill stroke markers" d=" M 244.5 1.5 L 240.5 5.5" stroke-opacity="1" stroke-miterlimit="10"/><path fill="none" stroke="rgb(37,37,37)" paint-order="fill stroke markers" d=" M 244.5 1.5 L 248.5 5.5" stroke-opacity="1" stroke-miterlimit="10"/><path fill="none" stroke="rgb(37,37,37)" paint-order="fill stroke markers" d=" M 0.5 305.5 L 482.5 305.5" stroke-opacity="1" stroke-miterlimit="10"/><path fill="none" stroke="rgb(37,37,37)" paint-order="fill stroke markers" d=" M 483.5 305.5 L 479.5 301.5" stroke-opacity="1" stroke-miterlimit="10"/><path fill="none" stroke="rgb(37,37,37)" paint-order="fill stroke markers" d=" M 483.5 305.5 L 479.5 309.5" stroke-opacity="1" stroke-miterlimit="10"/><text fill="rgb(37,37,37)" stroke="none" font-family="geogebra-sans-serif, sans-serif" font-size="12px" font-style="normal" font-weight="normal" text-decoration="normal" x="80" y="321" text-anchor="start" dominant-baseline="alphabetic" fill-opacity="1">–2</text><text fill="none" stroke="rgb(255,255,255)" font-family="geogebra-sans-serif, sans-serif" font-size="12px" font-style="normal" font-weight="normal" text-decoration="normal" x="80" y="321" text-anchor="start" dominant-baseline="alphabetic" stroke-opacity="1" stroke-linejoin="bevel" stroke-miterlimit="10" stroke-width="3">–2</text><text fill="rgb(37,37,37)" stroke="none" font-family="geogebra-sans-serif, sans-serif" font-size="12px" font-style="normal" font-weight="normal" text-decoration="normal" x="80" y="321" text-anchor="start" dominant-baseline="alphabetic" fill-opacity="1">–2</text><text fill="rgb(37,37,37)" stroke="none" font-family="geogebra-sans-serif, sans-serif" font-size="12px" font-style="normal" font-weight="normal" text-decoration="normal" x="160" y="321" text-anchor="start" dominant-baseline="alphabetic" fill-opacity="1">–1</text><text fill="none" stroke="rgb(255,255,255)" font-family="geogebra-sans-serif, sans-serif" font-size="12px" font-style="normal" font-weight="normal" text-decoration="normal" x="160" y="321" text-anchor="start" dominant-baseline="alphabetic" stroke-opacity="1" stroke-linejoin="bevel" stroke-miterlimit="10" stroke-width="3">–1</text><text fill="rgb(37,37,37)" stroke="none" font-family="geogebra-sans-serif, sans-serif" font-size="12px" font-style="normal" font-weight="normal" text-decoration="normal" x="160" y="321" text-anchor="start" dominant-baseline="alphabetic" fill-opacity="1">–1</text><text fill="rgb(37,37,37)" stroke="none" font-family="geogebra-sans-serif, sans-serif" font-size="12px" font-style="normal" font-weight="normal" text-decoration="normal" x="322" y="321" text-anchor="start" dominant-baseline="alphabetic" fill-opacity="1">1</text><text fill="none" stroke="rgb(255,255,255)" font-family="geogebra-sans-serif, sans-serif" font-size="12px" font-style="normal" font-weight="normal" text-decoration="normal" x="322" y="321" text-anchor="start" dominant-baseline="alphabetic" stroke-opacity="1" stroke-linejoin="bevel" stroke-miterlimit="10" stroke-width="3">1</text><text fill="rgb(37,37,37)" stroke="none" font-family="geogebra-sans-serif, sans-serif" font-size="12px" font-style="normal" font-weight="normal" text-decoration="normal" x="322" y="321" text-anchor="start" dominant-baseline="alphabetic" fill-opacity="1">1</text><text fill="rgb(37,37,37)" stroke="none" font-family="geogebra-sans-serif, sans-serif" font-size="12px" font-style="normal" font-weight="normal" text-decoration="normal" x="401" y="321" text-anchor="start" dominant-baseline="alphabetic" fill-opacity="1">2</text><text fill="none" stroke="rgb(255,255,255)" font-family="geogebra-sans-serif, sans-serif" font-size="12px" font-style="normal" font-weight="normal" text-decoration="normal" x="401" y="321" text-anchor="start" dominant-baseline="alphabetic" stroke-opacity="1" stroke-linejoin="bevel" stroke-miterlimit="10" stroke-width="3">2</text><text fill="rgb(37,37,37)" stroke="none" font-family="geogebra-sans-serif, sans-serif" font-size="12px" font-style="normal" font-weight="normal" text-decoration="normal" x="401" y="321" text-anchor="start" dominant-baseline="alphabetic" fill-opacity="1">2</text><text fill="rgb(37,37,37)" stroke="none" font-family="geogebra-sans-serif, sans-serif" font-size="12px" font-style="normal" font-weight="normal" text-decoration="normal" x="230" y="230" text-anchor="start" dominant-baseline="alphabetic" fill-opacity="1">1</text><text fill="none" stroke="rgb(255,255,255)" font-family="geogebra-sans-serif, sans-serif" font-size="12px" font-style="normal" font-weight="normal" text-decoration="normal" x="230" y="230" text-anchor="start" dominant-baseline="alphabetic" stroke-opacity="1" stroke-linejoin="bevel" stroke-miterlimit="10" stroke-width="3">1</text><text fill="rgb(37,37,37)" stroke="none" font-family="geogebra-sans-serif, sans-serif" font-size="12px" font-style="normal" font-weight="normal" text-decoration="normal" x="230" y="230" text-anchor="start" dominant-baseline="alphabetic" fill-opacity="1">1</text><text fill="rgb(37,37,37)" stroke="none" font-family="geogebra-sans-serif, sans-serif" font-size="12px" font-style="normal" font-weight="normal" text-decoration="normal" x="230" y="151" text-anchor="start" dominant-baseline="alphabetic" fill-opacity="1">2</text><text fill="none" stroke="rgb(255,255,255)" font-family="geogebra-sans-serif, sans-serif" font-size="12px" font-style="normal" font-weight="normal" text-decoration="normal" x="230" y="151" text-anchor="start" dominant-baseline="alphabetic" stroke-opacity="1" stroke-linejoin="bevel" stroke-miterlimit="10" stroke-width="3">2</text><text fill="rgb(37,37,37)" stroke="none" font-family="geogebra-sans-serif, sans-serif" font-size="12px" font-style="normal" font-weight="normal" text-decoration="normal" x="230" y="151" text-anchor="start" dominant-baseline="alphabetic" fill-opacity="1">2</text><text fill="rgb(37,37,37)" stroke="none" font-family="geogebra-sans-serif, sans-serif" font-size="12px" font-style="normal" font-weight="normal" text-decoration="normal" x="230" y="71" text-anchor="start" dominant-baseline="alphabetic" fill-opacity="1">3</text><text fill="none" stroke="rgb(255,255,255)" font-family="geogebra-sans-serif, sans-serif" font-size="12px" font-style="normal" font-weight="normal" text-decoration="normal" x="230" y="71" text-anchor="start" dominant-baseline="alphabetic" stroke-opacity="1" stroke-linejoin="bevel" stroke-miterlimit="10" stroke-width="3">3</text><text fill="rgb(37,37,37)" stroke="none" font-family="geogebra-sans-serif, sans-serif" font-size="12px" font-style="normal" font-weight="normal" text-decoration="normal" x="230" y="71" text-anchor="start" dominant-baseline="alphabetic" fill-opacity="1">3</text><text fill="rgb(37,37,37)" stroke="none" font-family="geogebra-sans-serif, sans-serif" font-size="12px" font-style="normal" font-weight="normal" text-decoration="normal" x="230" y="321" text-anchor="start" dominant-baseline="alphabetic" fill-opacity="1">0</text><text fill="none" stroke="rgb(255,255,255)" font-family="geogebra-sans-serif, sans-serif" font-size="12px" font-style="normal" font-weight="normal" text-decoration="normal" x="230" y="321" text-anchor="start" dominant-baseline="alphabetic" stroke-opacity="1" stroke-linejoin="bevel" stroke-miterlimit="10" stroke-width="3">0</text><text fill="rgb(37,37,37)" stroke="none" font-family="geogebra-sans-serif, sans-serif" font-size="12px" font-style="normal" font-weight="normal" text-decoration="normal" x="230" y="321" text-anchor="start" dominant-baseline="alphabetic" fill-opacity="1">0</text><path fill="rgb(21,101,192)" stroke="none" paint-order="stroke fill markers" fill-rule="evenodd" d=" M 244.79721584891817 66.72555672683166 L 324.26566532197467 66.72555672683166 L 324.26566532197467 225.6624556729442 L 403.73411479503125 225.6624556729442 L 403.73411479503125 305.13090514600043 L 244.79721584891817 305.13090514600043 Z" fill-opacity="0.09803921568627451"/><path fill="rgb(211,47,47)" stroke="none" paint-order="stroke fill markers" fill-rule="evenodd" d=" M 244.79721584891817 66.72555672683166 L 244.79721584891817 305.13090514600043 L 85.86031690280512 305.13090514600043 L 85.86031690280512 225.6624556729442 L 165.32876637586165 225.6624556729442 L 165.32876637586165 66.72555672683166 Z" fill-opacity="0.09803921568627451"/><path fill="none" stroke="rgb(21,101,192)" paint-order="fill stroke markers" d=" M 244.79721584891817 66.72555672683166 L 324.26566532197467 66.72555672683166" stroke-opacity="0.6980392156862745" stroke-linecap="round" stroke-linejoin="round" stroke-miterlimit="10" stroke-width="2.5"/><path fill="none" stroke="rgb(21,101,192)" paint-order="fill stroke markers" d=" M 324.26566532197467 66.72555672683166 L 324.26566532197467 225.6624556729442" stroke-opacity="0.6980392156862745" stroke-linecap="round" stroke-linejoin="round" stroke-miterlimit="10" stroke-width="2.5"/><path fill="none" stroke="rgb(21,101,192)" paint-order="fill stroke markers" d=" M 324.26566532197467 225.6624556729442 L 403.73411479503125 225.6624556729442" stroke-opacity="0.6980392156862745" stroke-linecap="round" stroke-linejoin="round" stroke-miterlimit="10" stroke-width="2.5"/><path fill="none" stroke="rgb(21,101,192)" paint-order="fill stroke markers" d=" M 403.73411479503125 225.6624556729442 L 403.73411479503125 305.13090514600043" stroke-opacity="0.6980392156862745" stroke-linecap="round" stroke-linejoin="round" stroke-miterlimit="10" stroke-width="2.5"/><path fill="none" stroke="rgb(21,101,192)" paint-order="fill stroke markers" d=" M 403.73411479503125 305.13090514600043 L 244.79721584891817 305.13090514600043" stroke-opacity="0.6980392156862745" stroke-linecap="round" stroke-linejoin="round" stroke-miterlimit="10" stroke-width="2.5"/><path fill="none" stroke="rgb(21,101,192)" paint-order="fill stroke markers" d=" M 244.79721584891817 305.13090514600043 L 244.79721584891817 66.72555672683166" stroke-opacity="0.6980392156862745" stroke-linecap="round" stroke-linejoin="round" stroke-miterlimit="10" stroke-width="2.5"/><path fill="none" stroke="rgb(211,47,47)" paint-order="fill stroke markers" d=" M 244.79721584891817 66.72555672683166 L 244.79721584891817 305.13090514600043" stroke-opacity="0.6980392156862745" stroke-linecap="round" stroke-linejoin="round" stroke-miterlimit="10" stroke-width="2.5"/><path fill="none" stroke="rgb(211,47,47)" paint-order="fill stroke markers" d=" M 244.79721584891817 305.13090514600043 L 85.86031690280512 305.13090514600043" stroke-opacity="0.6980392156862745" stroke-linecap="round" stroke-linejoin="round" stroke-miterlimit="10" stroke-width="2.5"/><path fill="none" stroke="rgb(211,47,47)" paint-order="fill stroke markers" d=" M 85.86031690280512 305.13090514600043 L 85.86031690280512 225.6624556729442" stroke-opacity="0.6980392156862745" stroke-linecap="round" stroke-linejoin="round" stroke-miterlimit="10" stroke-width="2.5"/><path fill="none" stroke="rgb(211,47,47)" paint-order="fill stroke markers" d=" M 85.86031690280512 225.6624556729442 L 165.32876637586165 225.6624556729442" stroke-opacity="0.6980392156862745" stroke-linecap="round" stroke-linejoin="round" stroke-miterlimit="10" stroke-width="2.5"/><path fill="none" stroke="rgb(211,47,47)" paint-order="fill stroke markers" d=" M 165.32876637586165 225.6624556729442 L 165.32876637586165 66.72555672683166" stroke-opacity="0.6980392156862745" stroke-linecap="round" stroke-linejoin="round" stroke-miterlimit="10" stroke-width="2.5"/><path fill="none" stroke="rgb(211,47,47)" paint-order="fill stroke markers" d=" M 165.32876637586165 66.72555672683166 L 244.79721584891817 66.72555672683166" stroke-opacity="0.6980392156862745" stroke-linecap="round" stroke-linejoin="round" stroke-miterlimit="10" stroke-width="2.5"/><path fill="rgb(21,101,192)" stroke="none" paint-order="stroke fill markers" d=" M 245.79721584891817 66.72555672683166 C 245.79721584891817 67.27784147666245 245.34950059874896 67.72555672683166 244.79721584891817 67.72555672683166 C 244.24493109908738 67.72555672683166 243.79721584891817 67.27784147666245 243.79721584891817 66.72555672683166 C 243.79721584891817 66.17327197700087 244.24493109908738 65.72555672683166 244.79721584891817 65.72555672683166 C 245.34950059874896 65.72555672683166 245.79721584891817 66.17327197700087 245.79721584891817 66.72555672683166 Z" fill-opacity="1"/><path fill="rgb(21,101,192)" stroke="none" paint-order="stroke fill markers" d=" M 325.26566532197467 66.72555672683166 C 325.26566532197467 67.27784147666245 324.81795007180546 67.72555672683166 324.26566532197467 67.72555672683166 C 323.7133805721439 67.72555672683166 323.26566532197467 67.27784147666245 323.26566532197467 66.72555672683166 C 323.26566532197467 66.17327197700087 323.7133805721439 65.72555672683166 324.26566532197467 65.72555672683166 C 324.81795007180546 65.72555672683166 325.26566532197467 66.17327197700087 325.26566532197467 66.72555672683166 Z" fill-opacity="1"/><path fill="rgb(21,101,192)" stroke="none" paint-order="stroke fill markers" d=" M 325.26566532197467 225.6624556729442 C 325.26566532197467 226.21474042277498 324.81795007180546 226.6624556729442 324.26566532197467 226.6624556729442 C 323.7133805721439 226.6624556729442 323.26566532197467 226.21474042277498 323.26566532197467 225.6624556729442 C 323.26566532197467 225.1101709231134 323.7133805721439 224.6624556729442 324.26566532197467 224.6624556729442 C 324.81795007180546 224.6624556729442 325.26566532197467 225.1101709231134 325.26566532197467 225.6624556729442 Z" fill-opacity="1"/><path fill="rgb(21,101,192)" stroke="none" paint-order="stroke fill markers" d=" M 404.73411479503125 225.6624556729442 C 404.73411479503125 226.21474042277498 404.28639954486204 226.6624556729442 403.73411479503125 226.6624556729442 C 403.18183004520046 226.6624556729442 402.73411479503125 226.21474042277498 402.73411479503125 225.6624556729442 C 402.73411479503125 225.1101709231134 403.18183004520046 224.6624556729442 403.73411479503125 224.6624556729442 C 404.28639954486204 224.6624556729442 404.73411479503125 225.1101709231134 404.73411479503125 225.6624556729442 Z" fill-opacity="1"/><path fill="rgb(21,101,192)" stroke="none" paint-order="stroke fill markers" d=" M 404.73411479503125 305.13090514600043 C 404.73411479503125 305.6831898958312 404.28639954486204 306.13090514600043 403.73411479503125 306.13090514600043 C 403.18183004520046 306.13090514600043 402.73411479503125 305.6831898958312 402.73411479503125 305.13090514600043 C 402.73411479503125 304.57862039616964 403.18183004520046 304.13090514600043 403.73411479503125 304.13090514600043 C 404.28639954486204 304.13090514600043 404.73411479503125 304.57862039616964 404.73411479503125 305.13090514600043 Z" fill-opacity="1"/><path fill="rgb(97,97,97)" stroke="none" paint-order="stroke fill markers" d=" M 245.79721584891817 305.13090514600043 C 245.79721584891817 305.6831898958312 245.34950059874896 306.13090514600043 244.79721584891817 306.13090514600043 C 244.24493109908738 306.13090514600043 243.79721584891817 305.6831898958312 243.79721584891817 305.13090514600043 C 243.79721584891817 304.57862039616964 244.24493109908738 304.13090514600043 244.79721584891817 304.13090514600043 C 245.34950059874896 304.13090514600043 245.79721584891817 304.57862039616964 245.79721584891817 305.13090514600043 Z" fill-opacity="1"/><path fill="rgb(211,47,47)" stroke="none" paint-order="stroke fill markers" d=" M 325.26566532197467 384.59935461905667 C 325.26566532197467 385.15163936888746 324.81795007180546 385.59935461905667 324.26566532197467 385.59935461905667 C 323.7133805721439 385.59935461905667 323.26566532197467 385.15163936888746 323.26566532197467 384.59935461905667 C 323.26566532197467 384.0470698692259 323.7133805721439 383.59935461905667 324.26566532197467 383.59935461905667 C 324.81795007180546 383.59935461905667 325.26566532197467 384.0470698692259 325.26566532197467 384.59935461905667 Z" fill-opacity="1"/><path fill="rgb(211,47,47)" stroke="none" paint-order="stroke fill markers" d=" M 404.73411479503125 384.59935461905667 C 404.73411479503125 385.15163936888746 404.28639954486204 385.59935461905667 403.73411479503125 385.59935461905667 C 403.18183004520046 385.59935461905667 402.73411479503125 385.15163936888746 402.73411479503125 384.59935461905667 C 402.73411479503125 384.0470698692259 403.18183004520046 383.59935461905667 403.73411479503125 383.59935461905667 C 404.28639954486204 383.59935461905667 404.73411479503125 384.0470698692259 404.73411479503125 384.59935461905667 Z" fill-opacity="1"/><path fill="rgb(211,47,47)" stroke="none" paint-order="stroke fill markers" d=" M 86.86031690280512 305.13090514600043 C 86.86031690280512 305.6831898958312 86.41260165263591 306.13090514600043 85.86031690280512 306.13090514600043 C 85.30803215297433 306.13090514600043 84.86031690280512 305.6831898958312 84.86031690280512 305.13090514600043 C 84.86031690280512 304.57862039616964 85.30803215297433 304.13090514600043 85.86031690280512 304.13090514600043 C 86.41260165263591 304.13090514600043 86.86031690280512 304.57862039616964 86.86031690280512 305.13090514600043 Z" fill-opacity="1"/><path fill="rgb(211,47,47)" stroke="none" paint-order="stroke fill markers" d=" M 86.86031690280512 225.6624556729442 C 86.86031690280512 226.21474042277498 86.41260165263591 226.6624556729442 85.86031690280512 226.6624556729442 C 85.30803215297433 226.6624556729442 84.86031690280512 226.21474042277498 84.86031690280512 225.6624556729442 C 84.86031690280512 225.1101709231134 85.30803215297433 224.6624556729442 85.86031690280512 224.6624556729442 C 86.41260165263591 224.6624556729442 86.86031690280512 225.1101709231134 86.86031690280512 225.6624556729442 Z" fill-opacity="1"/><path fill="rgb(211,47,47)" stroke="none" paint-order="stroke fill markers" d=" M 166.32876637586165 225.6624556729442 C 166.32876637586165 226.21474042277498 165.88105112569244 226.6624556729442 165.32876637586165 226.6624556729442 C 164.77648162603086 226.6624556729442 164.32876637586165 226.21474042277498 164.32876637586165 225.6624556729442 C 164.32876637586165 225.1101709231134 164.77648162603086 224.6624556729442 165.32876637586165 224.6624556729442 C 165.88105112569244 224.6624556729442 166.32876637586165 225.1101709231134 166.32876637586165 225.6624556729442 Z" fill-opacity="1"/><path fill="rgb(211,47,47)" stroke="none" paint-order="stroke fill markers" d=" M 166.32876637586165 66.72555672683166 C 166.32876637586165 67.27784147666245 165.88105112569244 67.72555672683166 165.32876637586165 67.72555672683166 C 164.77648162603086 67.72555672683166 164.32876637586165 67.27784147666245 164.32876637586165 66.72555672683166 C 164.32876637586165 66.17327197700087 164.77648162603086 65.72555672683166 165.32876637586165 65.72555672683166 C 165.88105112569244 65.72555672683166 166.32876637586165 66.17327197700087 166.32876637586165 66.72555672683166 Z" fill-opacity="1"/></g></g></svg>