<svg version="1.1" xmlns="http://www.w3.org/2000/svg" xmlns:xlink="http://www.w3.org/1999/xlink" width="356" height="290"><defs><clipPath id="ADtSuDkWOQwN"><path fill="none" stroke="none" d=" M 0 0 L 356 0 L 356 290 L 0 290 L 0 0 Z"/></clipPath></defs><g transform="scale(1,1)" clip-path="url(#ADtSuDkWOQwN)"><g><rect fill="rgb(255,255,255)" stroke="none" x="0" y="0" width="357" height="291" fill-opacity="1"/><path fill="none" stroke="rgb(192,192,192)" paint-order="fill stroke markers" d=" M 40.5 0.5 L 40.5 290.5 M 40.5 0.5 L 40.5 290.5 M 149.5 0.5 L 149.5 290.5 M 204.5 0.5 L 204.5 290.5 M 258.5 0.5 L 258.5 290.5 M 313.5 0.5 L 313.5 290.5" stroke-opacity="1" stroke-linecap="round" stroke-linejoin="round" stroke-miterlimit="10"/><path fill="none" stroke="rgb(192,192,192)" paint-order="fill stroke markers" d=" M 7.5 0.5 L 7.5 290.5 M 18.5 0.5 L 18.5 290.5 M 29.5 0.5 L 29.5 290.5 M 51.5 0.5 L 51.5 290.5 M 62.5 0.5 L 62.5 290.5 M 73.5 0.5 L 73.5 290.5 M 83.5 0.5 L 83.5 290.5 M 105.5 0.5 L 105.5 290.5 M 116.5 0.5 L 116.5 290.5 M 127.5 0.5 L 127.5 290.5 M 138.5 0.5 L 138.5 290.5 M 160.5 0.5 L 160.5 290.5 M 171.5 0.5 L 171.5 290.5 M 182.5 0.5 L 182.5 290.5 M 193.5 0.5 L 193.5 290.5 M 214.5 0.5 L 214.5 290.5 M 225.5 0.5 L 225.5 290.5 M 236.5 0.5 L 236.5 290.5 M 247.5 0.5 L 247.5 290.5 M 269.5 0.5 L 269.5 290.5 M 280.5 0.5 L 280.5 290.5 M 291.5 0.5 L 291.5 290.5 M 302.5 0.5 L 302.5 290.5 M 324.5 0.5 L 324.5 290.5 M 335.5 0.5 L 335.5 290.5 M 345.5 0.5 L 345.5 290.5" stroke-opacity="0.23529411764705882" stroke-linecap="round" stroke-linejoin="round" stroke-miterlimit="10"/><path fill="none" stroke="rgb(192,192,192)" paint-order="fill stroke markers" d=" M 0.5 50.5 L 356.5 50.5 M 0.5 50.5 L 356.5 50.5 M 0.5 105.5 L 356.5 105.5 M 0.5 159.5 L 356.5 159.5 M 0.5 269.5 L 356.5 269.5" stroke-opacity="1" stroke-linecap="round" stroke-linejoin="round" stroke-miterlimit="10"/><path fill="none" stroke="rgb(192,192,192)" paint-order="fill stroke markers" d=" M 0.5 7.5 L 356.5 7.5 M 0.5 17.5 L 356.5 17.5 M 0.5 28.5 L 356.5 28.5 M 0.5 39.5 L 356.5 39.5 M 0.5 61.5 L 356.5 61.5 M 0.5 72.5 L 356.5 72.5 M 0.5 83.5 L 356.5 83.5 M 0.5 94.5 L 356.5 94.5 M 0.5 116.5 L 356.5 116.5 M 0.5 127.5 L 356.5 127.5 M 0.5 138.5 L 356.5 138.5 M 0.5 148.5 L 356.5 148.5 M 0.5 170.5 L 356.5 170.5 M 0.5 181.5 L 356.5 181.5 M 0.5 192.5 L 356.5 192.5 M 0.5 203.5 L 356.5 203.5 M 0.5 225.5 L 356.5 225.5 M 0.5 236.5 L 356.5 236.5 M 0.5 247.5 L 356.5 247.5 M 0.5 258.5 L 356.5 258.5 M 0.5 279.5 L 356.5 279.5" stroke-opacity="0.23529411764705882" stroke-linecap="round" stroke-linejoin="round" stroke-miterlimit="10"/><path fill="none" stroke="rgb(37,37,37)" paint-order="fill stroke markers" d=" M 94.5 2.5 L 94.5 290.5" stroke-opacity="1" stroke-miterlimit="10"/><path fill="none" stroke="rgb(37,37,37)" paint-order="fill stroke markers" d=" M 94.5 1.5 L 90.5 5.5" stroke-opacity="1" stroke-miterlimit="10"/><path fill="none" stroke="rgb(37,37,37)" paint-order="fill stroke markers" d=" M 94.5 1.5 L 98.5 5.5" stroke-opacity="1" stroke-miterlimit="10"/><path fill="none" stroke="rgb(37,37,37)" paint-order="fill stroke markers" d=" M 0.5 214.5 L 354.5 214.5" stroke-opacity="1" stroke-miterlimit="10"/><path fill="none" stroke="rgb(37,37,37)" paint-order="fill stroke markers" d=" M 355.5 214.5 L 351.5 210.5" stroke-opacity="1" stroke-miterlimit="10"/><path fill="none" stroke="rgb(37,37,37)" paint-order="fill stroke markers" d=" M 355.5 214.5 L 351.5 218.5" stroke-opacity="1" stroke-miterlimit="10"/><text fill="rgb(37,37,37)" stroke="none" font-family="geogebra-sans-serif, sans-serif" font-size="12px" font-style="normal" font-weight="normal" text-decoration="normal" x="35" y="230" text-anchor="start" dominant-baseline="alphabetic" fill-opacity="1">–1</text><text fill="none" stroke="rgb(255,255,255)" font-family="geogebra-sans-serif, sans-serif" font-size="12px" font-style="normal" font-weight="normal" text-decoration="normal" x="35" y="230" text-anchor="start" dominant-baseline="alphabetic" stroke-opacity="1" stroke-linejoin="bevel" stroke-miterlimit="10" stroke-width="3">–1</text><text fill="rgb(37,37,37)" stroke="none" font-family="geogebra-sans-serif, sans-serif" font-size="12px" font-style="normal" font-weight="normal" text-decoration="normal" x="35" y="230" text-anchor="start" dominant-baseline="alphabetic" fill-opacity="1">–1</text><text fill="rgb(37,37,37)" stroke="none" font-family="geogebra-sans-serif, sans-serif" font-size="12px" font-style="normal" font-weight="normal" text-decoration="normal" x="147" y="230" text-anchor="start" dominant-baseline="alphabetic" fill-opacity="1">1</text><text fill="none" stroke="rgb(255,255,255)" font-family="geogebra-sans-serif, sans-serif" font-size="12px" font-style="normal" font-weight="normal" text-decoration="normal" x="147" y="230" text-anchor="start" dominant-baseline="alphabetic" stroke-opacity="1" stroke-linejoin="bevel" stroke-miterlimit="10" stroke-width="3">1</text><text fill="rgb(37,37,37)" stroke="none" font-family="geogebra-sans-serif, sans-serif" font-size="12px" font-style="normal" font-weight="normal" text-decoration="normal" x="147" y="230" text-anchor="start" dominant-baseline="alphabetic" fill-opacity="1">1</text><text fill="rgb(37,37,37)" stroke="none" font-family="geogebra-sans-serif, sans-serif" font-size="12px" font-style="normal" font-weight="normal" text-decoration="normal" x="202" y="230" text-anchor="start" dominant-baseline="alphabetic" fill-opacity="1">2</text><text fill="none" stroke="rgb(255,255,255)" font-family="geogebra-sans-serif, sans-serif" font-size="12px" font-style="normal" font-weight="normal" text-decoration="normal" x="202" y="230" text-anchor="start" dominant-baseline="alphabetic" stroke-opacity="1" stroke-linejoin="bevel" stroke-miterlimit="10" stroke-width="3">2</text><text fill="rgb(37,37,37)" stroke="none" font-family="geogebra-sans-serif, sans-serif" font-size="12px" font-style="normal" font-weight="normal" text-decoration="normal" x="202" y="230" text-anchor="start" dominant-baseline="alphabetic" fill-opacity="1">2</text><text fill="rgb(37,37,37)" stroke="none" font-family="geogebra-sans-serif, sans-serif" font-size="12px" font-style="normal" font-weight="normal" text-decoration="normal" x="256" y="230" text-anchor="start" dominant-baseline="alphabetic" fill-opacity="1">3</text><text fill="none" stroke="rgb(255,255,255)" font-family="geogebra-sans-serif, sans-serif" font-size="12px" font-style="normal" font-weight="normal" text-decoration="normal" x="256" y="230" text-anchor="start" dominant-baseline="alphabetic" stroke-opacity="1" stroke-linejoin="bevel" stroke-miterlimit="10" stroke-width="3">3</text><text fill="rgb(37,37,37)" stroke="none" font-family="geogebra-sans-serif, sans-serif" font-size="12px" font-style="normal" font-weight="normal" text-decoration="normal" x="256" y="230" text-anchor="start" dominant-baseline="alphabetic" fill-opacity="1">3</text><text fill="rgb(37,37,37)" stroke="none" font-family="geogebra-sans-serif, sans-serif" font-size="12px" font-style="normal" font-weight="normal" text-decoration="normal" x="311" y="230" text-anchor="start" dominant-baseline="alphabetic" fill-opacity="1">4</text><text fill="none" stroke="rgb(255,255,255)" font-family="geogebra-sans-serif, sans-serif" font-size="12px" font-style="normal" font-weight="normal" text-decoration="normal" x="311" y="230" text-anchor="start" dominant-baseline="alphabetic" stroke-opacity="1" stroke-linejoin="bevel" stroke-miterlimit="10" stroke-width="3">4</text><text fill="rgb(37,37,37)" stroke="none" font-family="geogebra-sans-serif, sans-serif" font-size="12px" font-style="normal" font-weight="normal" text-decoration="normal" x="311" y="230" text-anchor="start" dominant-baseline="alphabetic" fill-opacity="1">4</text><text fill="rgb(37,37,37)" stroke="none" font-family="geogebra-sans-serif, sans-serif" font-size="12px" font-style="normal" font-weight="normal" text-decoration="normal" x="74" y="274" text-anchor="start" dominant-baseline="alphabetic" fill-opacity="1">–1</text><text fill="none" stroke="rgb(255,255,255)" font-family="geogebra-sans-serif, sans-serif" font-size="12px" font-style="normal" font-weight="normal" text-decoration="normal" x="74" y="274" text-anchor="start" dominant-baseline="alphabetic" stroke-opacity="1" stroke-linejoin="bevel" stroke-miterlimit="10" stroke-width="3">–1</text><text fill="rgb(37,37,37)" stroke="none" font-family="geogebra-sans-serif, sans-serif" font-size="12px" font-style="normal" font-weight="normal" text-decoration="normal" x="74" y="274" text-anchor="start" dominant-baseline="alphabetic" fill-opacity="1">–1</text><text fill="rgb(37,37,37)" stroke="none" font-family="geogebra-sans-serif, sans-serif" font-size="12px" font-style="normal" font-weight="normal" text-decoration="normal" x="80" y="164" text-anchor="start" dominant-baseline="alphabetic" fill-opacity="1">1</text><text fill="none" stroke="rgb(255,255,255)" font-family="geogebra-sans-serif, sans-serif" font-size="12px" font-style="normal" font-weight="normal" text-decoration="normal" x="80" y="164" text-anchor="start" dominant-baseline="alphabetic" stroke-opacity="1" stroke-linejoin="bevel" stroke-miterlimit="10" stroke-width="3">1</text><text fill="rgb(37,37,37)" stroke="none" font-family="geogebra-sans-serif, sans-serif" font-size="12px" font-style="normal" font-weight="normal" text-decoration="normal" x="80" y="164" text-anchor="start" dominant-baseline="alphabetic" fill-opacity="1">1</text><text fill="rgb(37,37,37)" stroke="none" font-family="geogebra-sans-serif, sans-serif" font-size="12px" font-style="normal" font-weight="normal" text-decoration="normal" x="80" y="110" text-anchor="start" dominant-baseline="alphabetic" fill-opacity="1">2</text><text fill="none" stroke="rgb(255,255,255)" font-family="geogebra-sans-serif, sans-serif" font-size="12px" font-style="normal" font-weight="normal" text-decoration="normal" x="80" y="110" text-anchor="start" dominant-baseline="alphabetic" stroke-opacity="1" stroke-linejoin="bevel" stroke-miterlimit="10" stroke-width="3">2</text><text fill="rgb(37,37,37)" stroke="none" font-family="geogebra-sans-serif, sans-serif" font-size="12px" font-style="normal" font-weight="normal" text-decoration="normal" x="80" y="110" text-anchor="start" dominant-baseline="alphabetic" fill-opacity="1">2</text><text fill="rgb(37,37,37)" stroke="none" font-family="geogebra-sans-serif, sans-serif" font-size="12px" font-style="normal" font-weight="normal" text-decoration="normal" x="80" y="55" text-anchor="start" dominant-baseline="alphabetic" fill-opacity="1">3</text><text fill="none" stroke="rgb(255,255,255)" font-family="geogebra-sans-serif, sans-serif" font-size="12px" font-style="normal" font-weight="normal" text-decoration="normal" x="80" y="55" text-anchor="start" dominant-baseline="alphabetic" stroke-opacity="1" stroke-linejoin="bevel" stroke-miterlimit="10" stroke-width="3">3</text><text fill="rgb(37,37,37)" stroke="none" font-family="geogebra-sans-serif, sans-serif" font-size="12px" font-style="normal" font-weight="normal" text-decoration="normal" x="80" y="55" text-anchor="start" dominant-baseline="alphabetic" fill-opacity="1">3</text><text fill="rgb(37,37,37)" stroke="none" font-family="geogebra-sans-serif, sans-serif" font-size="12px" font-style="normal" font-weight="normal" text-decoration="normal" x="80" y="230" text-anchor="start" dominant-baseline="alphabetic" fill-opacity="1">0</text><text fill="none" stroke="rgb(255,255,255)" font-family="geogebra-sans-serif, sans-serif" font-size="12px" font-style="normal" font-weight="normal" text-decoration="normal" x="80" y="230" text-anchor="start" dominant-baseline="alphabetic" stroke-opacity="1" stroke-linejoin="bevel" stroke-miterlimit="10" stroke-width="3">0</text><text fill="rgb(37,37,37)" stroke="none" font-family="geogebra-sans-serif, sans-serif" font-size="12px" font-style="normal" font-weight="normal" text-decoration="normal" x="80" y="230" text-anchor="start" dominant-baseline="alphabetic" fill-opacity="1">0</text><path fill="rgb(21,101,192)" stroke="none" paint-order="stroke fill markers" fill-rule="evenodd" d=" M 94.87290551838989 50.72018688196195 L 149.45575533387012 50.72018688196195 L 149.45575533387012 159.88588651292213 L 204.03860514935036 159.88588651292213 L 204.03860514935036 214.46873632840223 L 94.87290551838989 214.46873632840223 Z" fill-opacity="0.09803921568627451"/><path fill="rgb(211,47,47)" stroke="none" paint-order="stroke fill markers" fill-rule="evenodd" d=" M 94.87290551838989 104.99999999999989 L 149.45575533387012 105.30303669744204 L 149.45575533387012 159.88588651292213 L 258.62145496483055 159.88588651292213 L 258.62145496483055 214.46873632840223 L 94.87290551838989 214.46873632840223 Z" fill-opacity="0.09803921568627451"/><path fill="none" stroke="rgb(21,101,192)" paint-order="fill stroke markers" d=" M 94.87290551838989 50.72018688196195 L 149.45575533387012 50.72018688196195" stroke-opacity="0.6980392156862745" stroke-linecap="round" stroke-linejoin="round" stroke-miterlimit="10" stroke-width="2.5"/><path fill="none" stroke="rgb(21,101,192)" paint-order="fill stroke markers" d=" M 149.45575533387012 50.72018688196195 L 149.45575533387012 159.88588651292213" stroke-opacity="0.6980392156862745" stroke-linecap="round" stroke-linejoin="round" stroke-miterlimit="10" stroke-width="2.5"/><path fill="none" stroke="rgb(21,101,192)" paint-order="fill stroke markers" d=" M 149.45575533387012 159.88588651292213 L 204.03860514935036 159.88588651292213" stroke-opacity="0.6980392156862745" stroke-linecap="round" stroke-linejoin="round" stroke-miterlimit="10" stroke-width="2.5"/><path fill="none" stroke="rgb(21,101,192)" paint-order="fill stroke markers" d=" M 204.03860514935036 159.88588651292213 L 204.03860514935036 214.46873632840223" stroke-opacity="0.6980392156862745" stroke-linecap="round" stroke-linejoin="round" stroke-miterlimit="10" stroke-width="2.5"/><path fill="none" stroke="rgb(21,101,192)" paint-order="fill stroke markers" d=" M 204.03860514935036 214.46873632840223 L 94.87290551838989 214.46873632840223" stroke-opacity="0.6980392156862745" stroke-linecap="round" stroke-linejoin="round" stroke-miterlimit="10" stroke-width="2.5"/><path fill="none" stroke="rgb(21,101,192)" paint-order="fill stroke markers" d=" M 94.87290551838989 214.46873632840223 L 94.87290551838989 50.72018688196195" stroke-opacity="0.6980392156862745" stroke-linecap="round" stroke-linejoin="round" stroke-miterlimit="10" stroke-width="2.5"/><path fill="none" stroke="rgb(211,47,47)" paint-order="fill stroke markers" d=" M 94.87290551838989 104.99999999999989 L 149.45575533387012 105.30303669744204" stroke-opacity="0.6980392156862745" stroke-linecap="round" stroke-linejoin="round" stroke-miterlimit="10" stroke-width="2.5"/><path fill="none" stroke="rgb(211,47,47)" paint-order="fill stroke markers" d=" M 149.45575533387012 105.30303669744204 L 149.45575533387012 159.88588651292213" stroke-opacity="0.6980392156862745" stroke-linecap="round" stroke-linejoin="round" stroke-miterlimit="10" stroke-width="2.5"/><path fill="none" stroke="rgb(211,47,47)" paint-order="fill stroke markers" d=" M 149.45575533387012 159.88588651292213 L 258.62145496483055 159.88588651292213" stroke-opacity="0.6980392156862745" stroke-linecap="round" stroke-linejoin="round" stroke-miterlimit="10" stroke-width="2.5"/><path fill="none" stroke="rgb(211,47,47)" paint-order="fill stroke markers" d=" M 258.62145496483055 159.88588651292213 L 258.62145496483055 214.46873632840223" stroke-opacity="0.6980392156862745" stroke-linecap="round" stroke-linejoin="round" stroke-miterlimit="10" stroke-width="2.5"/><path fill="none" stroke="rgb(211,47,47)" paint-order="fill stroke markers" d=" M 258.62145496483055 214.46873632840223 L 94.87290551838989 214.46873632840223" stroke-opacity="0.6980392156862745" stroke-linecap="round" stroke-linejoin="round" stroke-miterlimit="10" stroke-width="2.5"/><path fill="none" stroke="rgb(211,47,47)" paint-order="fill stroke markers" d=" M 94.87290551838989 214.46873632840223 L 94.87290551838989 104.99999999999989" stroke-opacity="0.6980392156862745" stroke-linecap="round" stroke-linejoin="round" stroke-miterlimit="10" stroke-width="2.5"/><path fill="rgb(21,101,192)" stroke="none" paint-order="stroke fill markers" d=" M 95.87290551838989 50.72018688196195 C 95.87290551838989 51.27247163179274 95.42519026822067 51.72018688196195 94.87290551838989 51.72018688196195 C 94.3206207685591 51.72018688196195 93.87290551838989 51.27247163179274 93.87290551838989 50.72018688196195 C 93.87290551838989 50.167902132131154 94.3206207685591 49.72018688196195 94.87290551838989 49.72018688196195 C 95.42519026822067 49.72018688196195 95.87290551838989 50.167902132131154 95.87290551838989 50.72018688196195 Z" fill-opacity="1"/><path fill="rgb(21,101,192)" stroke="none" paint-order="stroke fill markers" d=" M 150.45575533387012 50.72018688196195 C 150.45575533387012 51.27247163179274 150.0080400837009 51.72018688196195 149.45575533387012 51.72018688196195 C 148.90347058403933 51.72018688196195 148.45575533387012 51.27247163179274 148.45575533387012 50.72018688196195 C 148.45575533387012 50.167902132131154 148.90347058403933 49.72018688196195 149.45575533387012 49.72018688196195 C 150.0080400837009 49.72018688196195 150.45575533387012 50.167902132131154 150.45575533387012 50.72018688196195 Z" fill-opacity="1"/><path fill="rgb(211,47,47)" stroke="none" paint-order="stroke fill markers" d=" M 150.45575533387012 159.88588651292213 C 150.45575533387012 160.43817126275292 150.0080400837009 160.88588651292213 149.45575533387012 160.88588651292213 C 148.90347058403933 160.88588651292213 148.45575533387012 160.43817126275292 148.45575533387012 159.88588651292213 C 148.45575533387012 159.33360176309134 148.90347058403933 158.88588651292213 149.45575533387012 158.88588651292213 C 150.0080400837009 158.88588651292213 150.45575533387012 159.33360176309134 150.45575533387012 159.88588651292213 Z" fill-opacity="1"/><path fill="rgb(21,101,192)" stroke="none" paint-order="stroke fill markers" d=" M 205.03860514935036 214.46873632840223 C 205.03860514935036 215.02102107823302 204.59088989918115 215.46873632840223 204.03860514935036 215.46873632840223 C 203.48632039951957 215.46873632840223 203.03860514935036 215.02102107823302 203.03860514935036 214.46873632840223 C 203.03860514935036 213.91645157857144 203.48632039951957 213.46873632840223 204.03860514935036 213.46873632840223 C 204.59088989918115 213.46873632840223 205.03860514935036 213.91645157857144 205.03860514935036 214.46873632840223 Z" fill-opacity="1"/><path fill="rgb(97,97,97)" stroke="none" paint-order="stroke fill markers" d=" M 95.87290551838989 214.46873632840223 C 95.87290551838989 215.02102107823302 95.42519026822067 215.46873632840223 94.87290551838989 215.46873632840223 C 94.3206207685591 215.46873632840223 93.87290551838989 215.02102107823302 93.87290551838989 214.46873632840223 C 93.87290551838989 213.91645157857144 94.3206207685591 213.46873632840223 94.87290551838989 213.46873632840223 C 95.42519026822067 213.46873632840223 95.87290551838989 213.91645157857144 95.87290551838989 214.46873632840223 Z" fill-opacity="1"/><path fill="rgb(21,101,192)" stroke="none" paint-order="stroke fill markers" d=" M 95.87290551838989 50.72018688196195 C 95.87290551838989 51.27247163179274 95.42519026822067 51.72018688196195 94.87290551838989 51.72018688196195 C 94.3206207685591 51.72018688196195 93.87290551838989 51.27247163179274 93.87290551838989 50.72018688196195 C 93.87290551838989 50.167902132131154 94.3206207685591 49.72018688196195 94.87290551838989 49.72018688196195 C 95.42519026822067 49.72018688196195 95.87290551838989 50.167902132131154 95.87290551838989 50.72018688196195 Z" fill-opacity="1"/><path fill="rgb(97,97,97)" stroke="none" paint-order="stroke fill markers" d=" M 95.87290551838989 214.46873632840223 C 95.87290551838989 215.02102107823302 95.42519026822067 215.46873632840223 94.87290551838989 215.46873632840223 C 94.3206207685591 215.46873632840223 93.87290551838989 215.02102107823302 93.87290551838989 214.46873632840223 C 93.87290551838989 213.91645157857144 94.3206207685591 213.46873632840223 94.87290551838989 213.46873632840223 C 95.42519026822067 213.46873632840223 95.87290551838989 213.91645157857144 95.87290551838989 214.46873632840223 Z" fill-opacity="1"/><path fill="rgb(211,47,47)" stroke="none" paint-order="stroke fill markers" d=" M 95.87290551838989 104.99999999999989 C 95.87290551838989 105.55228474983068 95.42519026822067 105.99999999999989 94.87290551838989 105.99999999999989 C 94.3206207685591 105.99999999999989 93.87290551838989 105.55228474983068 93.87290551838989 104.99999999999989 C 93.87290551838989 104.4477152501691 94.3206207685591 103.99999999999989 94.87290551838989 103.99999999999989 C 95.42519026822067 103.99999999999989 95.87290551838989 104.4477152501691 95.87290551838989 104.99999999999989 Z" fill-opacity="1"/><path fill="rgb(211,47,47)" stroke="none" paint-order="stroke fill markers" d=" M 150.45575533387012 105.30303669744204 C 150.45575533387012 105.85532144727283 150.0080400837009 106.30303669744204 149.45575533387012 106.30303669744204 C 148.90347058403933 106.30303669744204 148.45575533387012 105.85532144727283 148.45575533387012 105.30303669744204 C 148.45575533387012 104.75075194761125 148.90347058403933 104.30303669744204 149.45575533387012 104.30303669744204 C 150.0080400837009 104.30303669744204 150.45575533387012 104.75075194761125 150.45575533387012 105.30303669744204 Z" fill-opacity="1"/><path fill="rgb(211,47,47)" stroke="none" paint-order="stroke fill markers" d=" M 259.62145496483055 159.88588651292213 C 259.62145496483055 160.43817126275292 259.17373971466134 160.88588651292213 258.62145496483055 160.88588651292213 C 258.06917021499976 160.88588651292213 257.62145496483055 160.43817126275292 257.62145496483055 159.88588651292213 C 257.62145496483055 159.33360176309134 258.06917021499976 158.88588651292213 258.62145496483055 158.88588651292213 C 259.17373971466134 158.88588651292213 259.62145496483055 159.33360176309134 259.62145496483055 159.88588651292213 Z" fill-opacity="1"/><path fill="rgb(211,47,47)" stroke="none" paint-order="stroke fill markers" d=" M 259.62145496483055 214.46873632840223 C 259.62145496483055 215.02102107823302 259.17373971466134 215.46873632840223 258.62145496483055 215.46873632840223 C 258.06917021499976 215.46873632840223 257.62145496483055 215.02102107823302 257.62145496483055 214.46873632840223 C 257.62145496483055 213.91645157857144 258.06917021499976 213.46873632840223 258.62145496483055 213.46873632840223 C 259.17373971466134 213.46873632840223 259.62145496483055 213.91645157857144 259.62145496483055 214.46873632840223 Z" fill-opacity="1"/></g></g></svg>