<svg version="1.1" xmlns="http://www.w3.org/2000/svg" xmlns:xlink="http://www.w3.org/1999/xlink" width="338" height="430"><defs><clipPath id="extkyRSIiRZQ"><path fill="none" stroke="none" d=" M 0 0 L 338 0 L 338 430 L 0 430 L 0 0 Z"/></clipPath></defs><g transform="scale(1,1)" clip-path="url(#extkyRSIiRZQ)"><g><rect fill="rgb(255,255,255)" stroke="none" x="0" y="0" width="338" height="431" fill-opacity="1"/><path fill="none" stroke="rgb(192,192,192)" paint-order="fill stroke markers" d=" M 38.5 0.5 L 38.5 430.5 M 38.5 0.5 L 38.5 430.5 M 93.5 0.5 L 93.5 430.5 M 202.5 0.5 L 202.5 430.5 M 257.5 0.5 L 257.5 430.5 M 311.5 0.5 L 311.5 430.5" stroke-opacity="1" stroke-linecap="round" stroke-linejoin="round" stroke-miterlimit="10"/><path fill="none" stroke="rgb(192,192,192)" paint-order="fill stroke markers" d=" M 5.5 0.5 L 5.5 430.5 M 16.5 0.5 L 16.5 430.5 M 27.5 0.5 L 27.5 430.5 M 49.5 0.5 L 49.5 430.5 M 60.5 0.5 L 60.5 430.5 M 71.5 0.5 L 71.5 430.5 M 82.5 0.5 L 82.5 430.5 M 104.5 0.5 L 104.5 430.5 M 115.5 0.5 L 115.5 430.5 M 126.5 0.5 L 126.5 430.5 M 136.5 0.5 L 136.5 430.5 M 158.5 0.5 L 158.5 430.5 M 169.5 0.5 L 169.5 430.5 M 180.5 0.5 L 180.5 430.5 M 191.5 0.5 L 191.5 430.5 M 213.5 0.5 L 213.5 430.5 M 224.5 0.5 L 224.5 430.5 M 235.5 0.5 L 235.5 430.5 M 246.5 0.5 L 246.5 430.5 M 267.5 0.5 L 267.5 430.5 M 278.5 0.5 L 278.5 430.5 M 289.5 0.5 L 289.5 430.5 M 300.5 0.5 L 300.5 430.5 M 322.5 0.5 L 322.5 430.5 M 333.5 0.5 L 333.5 430.5" stroke-opacity="0.23529411764705882" stroke-linecap="round" stroke-linejoin="round" stroke-miterlimit="10"/><path fill="none" stroke="rgb(192,192,192)" paint-order="fill stroke markers" d=" M 0.5 2.5 L 338.5 2.5 M 0.5 2.5 L 338.5 2.5 M 0.5 56.5 L 338.5 56.5 M 0.5 111.5 L 338.5 111.5 M 0.5 165.5 L 338.5 165.5 M 0.5 275.5 L 338.5 275.5 M 0.5 329.5 L 338.5 329.5 M 0.5 384.5 L 338.5 384.5" stroke-opacity="1" stroke-linecap="round" stroke-linejoin="round" stroke-miterlimit="10"/><path fill="none" stroke="rgb(192,192,192)" paint-order="fill stroke markers" d=" M 0.5 2.5 L 338.5 2.5 M 0.5 13.5 L 338.5 13.5 M 0.5 23.5 L 338.5 23.5 M 0.5 34.5 L 338.5 34.5 M 0.5 45.5 L 338.5 45.5 M 0.5 67.5 L 338.5 67.5 M 0.5 78.5 L 338.5 78.5 M 0.5 89.5 L 338.5 89.5 M 0.5 100.5 L 338.5 100.5 M 0.5 122.5 L 338.5 122.5 M 0.5 133.5 L 338.5 133.5 M 0.5 144.5 L 338.5 144.5 M 0.5 154.5 L 338.5 154.5 M 0.5 176.5 L 338.5 176.5 M 0.5 187.5 L 338.5 187.5 M 0.5 198.5 L 338.5 198.5 M 0.5 209.5 L 338.5 209.5 M 0.5 231.5 L 338.5 231.5 M 0.5 242.5 L 338.5 242.5 M 0.5 253.5 L 338.5 253.5 M 0.5 264.5 L 338.5 264.5 M 0.5 285.5 L 338.5 285.5 M 0.5 296.5 L 338.5 296.5 M 0.5 307.5 L 338.5 307.5 M 0.5 318.5 L 338.5 318.5 M 0.5 340.5 L 338.5 340.5 M 0.5 351.5 L 338.5 351.5 M 0.5 362.5 L 338.5 362.5 M 0.5 373.5 L 338.5 373.5 M 0.5 395.5 L 338.5 395.5 M 0.5 406.5 L 338.5 406.5 M 0.5 416.5 L 338.5 416.5 M 0.5 427.5 L 338.5 427.5" stroke-opacity="0.23529411764705882" stroke-linecap="round" stroke-linejoin="round" stroke-miterlimit="10"/><path fill="none" stroke="rgb(37,37,37)" paint-order="fill stroke markers" d=" M 147.5 2.5 L 147.5 430.5" stroke-opacity="1" stroke-miterlimit="10"/><path fill="none" stroke="rgb(37,37,37)" paint-order="fill stroke markers" d=" M 147.5 1.5 L 143.5 5.5" stroke-opacity="1" stroke-miterlimit="10"/><path fill="none" stroke="rgb(37,37,37)" paint-order="fill stroke markers" d=" M 147.5 1.5 L 151.5 5.5" stroke-opacity="1" stroke-miterlimit="10"/><path fill="none" stroke="rgb(37,37,37)" paint-order="fill stroke markers" d=" M 0.5 220.5 L 336.5 220.5" stroke-opacity="1" stroke-miterlimit="10"/><path fill="none" stroke="rgb(37,37,37)" paint-order="fill stroke markers" d=" M 337.5 220.5 L 333.5 216.5" stroke-opacity="1" stroke-miterlimit="10"/><path fill="none" stroke="rgb(37,37,37)" paint-order="fill stroke markers" d=" M 337.5 220.5 L 333.5 224.5" stroke-opacity="1" stroke-miterlimit="10"/><text fill="rgb(37,37,37)" stroke="none" font-family="geogebra-sans-serif, sans-serif" font-size="12px" font-style="normal" font-weight="normal" text-decoration="normal" x="33" y="236" text-anchor="start" dominant-baseline="alphabetic" fill-opacity="1">–2</text><text fill="none" stroke="rgb(255,255,255)" font-family="geogebra-sans-serif, sans-serif" font-size="12px" font-style="normal" font-weight="normal" text-decoration="normal" x="33" y="236" text-anchor="start" dominant-baseline="alphabetic" stroke-opacity="1" stroke-linejoin="bevel" stroke-miterlimit="10" stroke-width="3">–2</text><text fill="rgb(37,37,37)" stroke="none" font-family="geogebra-sans-serif, sans-serif" font-size="12px" font-style="normal" font-weight="normal" text-decoration="normal" x="33" y="236" text-anchor="start" dominant-baseline="alphabetic" fill-opacity="1">–2</text><text fill="rgb(37,37,37)" stroke="none" font-family="geogebra-sans-serif, sans-serif" font-size="12px" font-style="normal" font-weight="normal" text-decoration="normal" x="88" y="236" text-anchor="start" dominant-baseline="alphabetic" fill-opacity="1">–1</text><text fill="none" stroke="rgb(255,255,255)" font-family="geogebra-sans-serif, sans-serif" font-size="12px" font-style="normal" font-weight="normal" text-decoration="normal" x="88" y="236" text-anchor="start" dominant-baseline="alphabetic" stroke-opacity="1" stroke-linejoin="bevel" stroke-miterlimit="10" stroke-width="3">–1</text><text fill="rgb(37,37,37)" stroke="none" font-family="geogebra-sans-serif, sans-serif" font-size="12px" font-style="normal" font-weight="normal" text-decoration="normal" x="88" y="236" text-anchor="start" dominant-baseline="alphabetic" fill-opacity="1">–1</text><text fill="rgb(37,37,37)" stroke="none" font-family="geogebra-sans-serif, sans-serif" font-size="12px" font-style="normal" font-weight="normal" text-decoration="normal" x="200" y="236" text-anchor="start" dominant-baseline="alphabetic" fill-opacity="1">1</text><text fill="none" stroke="rgb(255,255,255)" font-family="geogebra-sans-serif, sans-serif" font-size="12px" font-style="normal" font-weight="normal" text-decoration="normal" x="200" y="236" text-anchor="start" dominant-baseline="alphabetic" stroke-opacity="1" stroke-linejoin="bevel" stroke-miterlimit="10" stroke-width="3">1</text><text fill="rgb(37,37,37)" stroke="none" font-family="geogebra-sans-serif, sans-serif" font-size="12px" font-style="normal" font-weight="normal" text-decoration="normal" x="200" y="236" text-anchor="start" dominant-baseline="alphabetic" fill-opacity="1">1</text><text fill="rgb(37,37,37)" stroke="none" font-family="geogebra-sans-serif, sans-serif" font-size="12px" font-style="normal" font-weight="normal" text-decoration="normal" x="255" y="236" text-anchor="start" dominant-baseline="alphabetic" fill-opacity="1">2</text><text fill="none" stroke="rgb(255,255,255)" font-family="geogebra-sans-serif, sans-serif" font-size="12px" font-style="normal" font-weight="normal" text-decoration="normal" x="255" y="236" text-anchor="start" dominant-baseline="alphabetic" stroke-opacity="1" stroke-linejoin="bevel" stroke-miterlimit="10" stroke-width="3">2</text><text fill="rgb(37,37,37)" stroke="none" font-family="geogebra-sans-serif, sans-serif" font-size="12px" font-style="normal" font-weight="normal" text-decoration="normal" x="255" y="236" text-anchor="start" dominant-baseline="alphabetic" fill-opacity="1">2</text><text fill="rgb(37,37,37)" stroke="none" font-family="geogebra-sans-serif, sans-serif" font-size="12px" font-style="normal" font-weight="normal" text-decoration="normal" x="309" y="236" text-anchor="start" dominant-baseline="alphabetic" fill-opacity="1">3</text><text fill="none" stroke="rgb(255,255,255)" font-family="geogebra-sans-serif, sans-serif" font-size="12px" font-style="normal" font-weight="normal" text-decoration="normal" x="309" y="236" text-anchor="start" dominant-baseline="alphabetic" stroke-opacity="1" stroke-linejoin="bevel" stroke-miterlimit="10" stroke-width="3">3</text><text fill="rgb(37,37,37)" stroke="none" font-family="geogebra-sans-serif, sans-serif" font-size="12px" font-style="normal" font-weight="normal" text-decoration="normal" x="309" y="236" text-anchor="start" dominant-baseline="alphabetic" fill-opacity="1">3</text><text fill="rgb(37,37,37)" stroke="none" font-family="geogebra-sans-serif, sans-serif" font-size="12px" font-style="normal" font-weight="normal" text-decoration="normal" x="127" y="389" text-anchor="start" dominant-baseline="alphabetic" fill-opacity="1">–3</text><text fill="none" stroke="rgb(255,255,255)" font-family="geogebra-sans-serif, sans-serif" font-size="12px" font-style="normal" font-weight="normal" text-decoration="normal" x="127" y="389" text-anchor="start" dominant-baseline="alphabetic" stroke-opacity="1" stroke-linejoin="bevel" stroke-miterlimit="10" stroke-width="3">–3</text><text fill="rgb(37,37,37)" stroke="none" font-family="geogebra-sans-serif, sans-serif" font-size="12px" font-style="normal" font-weight="normal" text-decoration="normal" x="127" y="389" text-anchor="start" dominant-baseline="alphabetic" fill-opacity="1">–3</text><text fill="rgb(37,37,37)" stroke="none" font-family="geogebra-sans-serif, sans-serif" font-size="12px" font-style="normal" font-weight="normal" text-decoration="normal" x="127" y="334" text-anchor="start" dominant-baseline="alphabetic" fill-opacity="1">–2</text><text fill="none" stroke="rgb(255,255,255)" font-family="geogebra-sans-serif, sans-serif" font-size="12px" font-style="normal" font-weight="normal" text-decoration="normal" x="127" y="334" text-anchor="start" dominant-baseline="alphabetic" stroke-opacity="1" stroke-linejoin="bevel" stroke-miterlimit="10" stroke-width="3">–2</text><text fill="rgb(37,37,37)" stroke="none" font-family="geogebra-sans-serif, sans-serif" font-size="12px" font-style="normal" font-weight="normal" text-decoration="normal" x="127" y="334" text-anchor="start" dominant-baseline="alphabetic" fill-opacity="1">–2</text><text fill="rgb(37,37,37)" stroke="none" font-family="geogebra-sans-serif, sans-serif" font-size="12px" font-style="normal" font-weight="normal" text-decoration="normal" x="127" y="280" text-anchor="start" dominant-baseline="alphabetic" fill-opacity="1">–1</text><text fill="none" stroke="rgb(255,255,255)" font-family="geogebra-sans-serif, sans-serif" font-size="12px" font-style="normal" font-weight="normal" text-decoration="normal" x="127" y="280" text-anchor="start" dominant-baseline="alphabetic" stroke-opacity="1" stroke-linejoin="bevel" stroke-miterlimit="10" stroke-width="3">–1</text><text fill="rgb(37,37,37)" stroke="none" font-family="geogebra-sans-serif, sans-serif" font-size="12px" font-style="normal" font-weight="normal" text-decoration="normal" x="127" y="280" text-anchor="start" dominant-baseline="alphabetic" fill-opacity="1">–1</text><text fill="rgb(37,37,37)" stroke="none" font-family="geogebra-sans-serif, sans-serif" font-size="12px" font-style="normal" font-weight="normal" text-decoration="normal" x="133" y="170" text-anchor="start" dominant-baseline="alphabetic" fill-opacity="1">1</text><text fill="none" stroke="rgb(255,255,255)" font-family="geogebra-sans-serif, sans-serif" font-size="12px" font-style="normal" font-weight="normal" text-decoration="normal" x="133" y="170" text-anchor="start" dominant-baseline="alphabetic" stroke-opacity="1" stroke-linejoin="bevel" stroke-miterlimit="10" stroke-width="3">1</text><text fill="rgb(37,37,37)" stroke="none" font-family="geogebra-sans-serif, sans-serif" font-size="12px" font-style="normal" font-weight="normal" text-decoration="normal" x="133" y="170" text-anchor="start" dominant-baseline="alphabetic" fill-opacity="1">1</text><text fill="rgb(37,37,37)" stroke="none" font-family="geogebra-sans-serif, sans-serif" font-size="12px" font-style="normal" font-weight="normal" text-decoration="normal" x="133" y="116" text-anchor="start" dominant-baseline="alphabetic" fill-opacity="1">2</text><text fill="none" stroke="rgb(255,255,255)" font-family="geogebra-sans-serif, sans-serif" font-size="12px" font-style="normal" font-weight="normal" text-decoration="normal" x="133" y="116" text-anchor="start" dominant-baseline="alphabetic" stroke-opacity="1" stroke-linejoin="bevel" stroke-miterlimit="10" stroke-width="3">2</text><text fill="rgb(37,37,37)" stroke="none" font-family="geogebra-sans-serif, sans-serif" font-size="12px" font-style="normal" font-weight="normal" text-decoration="normal" x="133" y="116" text-anchor="start" dominant-baseline="alphabetic" fill-opacity="1">2</text><text fill="rgb(37,37,37)" stroke="none" font-family="geogebra-sans-serif, sans-serif" font-size="12px" font-style="normal" font-weight="normal" text-decoration="normal" x="133" y="61" text-anchor="start" dominant-baseline="alphabetic" fill-opacity="1">3</text><text fill="none" stroke="rgb(255,255,255)" font-family="geogebra-sans-serif, sans-serif" font-size="12px" font-style="normal" font-weight="normal" text-decoration="normal" x="133" y="61" text-anchor="start" dominant-baseline="alphabetic" stroke-opacity="1" stroke-linejoin="bevel" stroke-miterlimit="10" stroke-width="3">3</text><text fill="rgb(37,37,37)" stroke="none" font-family="geogebra-sans-serif, sans-serif" font-size="12px" font-style="normal" font-weight="normal" text-decoration="normal" x="133" y="61" text-anchor="start" dominant-baseline="alphabetic" fill-opacity="1">3</text><text fill="rgb(37,37,37)" stroke="none" font-family="geogebra-sans-serif, sans-serif" font-size="12px" font-style="normal" font-weight="normal" text-decoration="normal" x="133" y="236" text-anchor="start" dominant-baseline="alphabetic" fill-opacity="1">0</text><text fill="none" stroke="rgb(255,255,255)" font-family="geogebra-sans-serif, sans-serif" font-size="12px" font-style="normal" font-weight="normal" text-decoration="normal" x="133" y="236" text-anchor="start" dominant-baseline="alphabetic" stroke-opacity="1" stroke-linejoin="bevel" stroke-miterlimit="10" stroke-width="3">0</text><text fill="rgb(37,37,37)" stroke="none" font-family="geogebra-sans-serif, sans-serif" font-size="12px" font-style="normal" font-weight="normal" text-decoration="normal" x="133" y="236" text-anchor="start" dominant-baseline="alphabetic" fill-opacity="1">0</text><path fill="rgb(21,101,192)" stroke="none" paint-order="stroke fill markers" fill-rule="evenodd" d=" M 147.8729055183899 56.72018688196201 L 202.45575533387014 56.72018688196201 L 202.45575533387014 165.88588651292218 L 257.0386051493504 165.88588651292218 L 257.0386051493504 220.4687363284023 L 147.8729055183899 220.4687363284023 Z" fill-opacity="0.09803921568627451"/><path fill="rgb(211,47,47)" stroke="none" paint-order="stroke fill markers" fill-rule="evenodd" d=" M 147.8729055183899 220.4687363284023 L 147.8729055183899 384.2172857748426 L 202.45575533387014 384.2172857748426 L 202.45575533387014 275.0515861438824 L 257.0386051493504 275.0515861438824 L 257.0386051493504 220.4687363284023 Z" fill-opacity="0.09803921568627451"/><path fill="none" stroke="rgb(21,101,192)" paint-order="fill stroke markers" d=" M 147.8729055183899 56.72018688196201 L 202.45575533387014 56.72018688196201" stroke-opacity="0.6980392156862745" stroke-linecap="round" stroke-linejoin="round" stroke-miterlimit="10" stroke-width="2.5"/><path fill="none" stroke="rgb(21,101,192)" paint-order="fill stroke markers" d=" M 202.45575533387014 56.72018688196201 L 202.45575533387014 165.88588651292218" stroke-opacity="0.6980392156862745" stroke-linecap="round" stroke-linejoin="round" stroke-miterlimit="10" stroke-width="2.5"/><path fill="none" stroke="rgb(21,101,192)" paint-order="fill stroke markers" d=" M 202.45575533387014 165.88588651292218 L 257.0386051493504 165.88588651292218" stroke-opacity="0.6980392156862745" stroke-linecap="round" stroke-linejoin="round" stroke-miterlimit="10" stroke-width="2.5"/><path fill="none" stroke="rgb(21,101,192)" paint-order="fill stroke markers" d=" M 257.0386051493504 165.88588651292218 L 257.0386051493504 220.4687363284023" stroke-opacity="0.6980392156862745" stroke-linecap="round" stroke-linejoin="round" stroke-miterlimit="10" stroke-width="2.5"/><path fill="none" stroke="rgb(21,101,192)" paint-order="fill stroke markers" d=" M 257.0386051493504 220.4687363284023 L 147.8729055183899 220.4687363284023" stroke-opacity="0.6980392156862745" stroke-linecap="round" stroke-linejoin="round" stroke-miterlimit="10" stroke-width="2.5"/><path fill="none" stroke="rgb(21,101,192)" paint-order="fill stroke markers" d=" M 147.8729055183899 220.4687363284023 L 147.8729055183899 56.72018688196201" stroke-opacity="0.6980392156862745" stroke-linecap="round" stroke-linejoin="round" stroke-miterlimit="10" stroke-width="2.5"/><path fill="none" stroke="rgb(211,47,47)" paint-order="fill stroke markers" d=" M 147.8729055183899 220.4687363284023 L 147.8729055183899 384.2172857748426" stroke-opacity="0.6980392156862745" stroke-linecap="round" stroke-linejoin="round" stroke-miterlimit="10" stroke-width="2.5"/><path fill="none" stroke="rgb(211,47,47)" paint-order="fill stroke markers" d=" M 147.8729055183899 384.2172857748426 L 202.45575533387014 384.2172857748426" stroke-opacity="0.6980392156862745" stroke-linecap="round" stroke-linejoin="round" stroke-miterlimit="10" stroke-width="2.5"/><path fill="none" stroke="rgb(211,47,47)" paint-order="fill stroke markers" d=" M 202.45575533387014 384.2172857748426 L 202.45575533387014 275.0515861438824" stroke-opacity="0.6980392156862745" stroke-linecap="round" stroke-linejoin="round" stroke-miterlimit="10" stroke-width="2.5"/><path fill="none" stroke="rgb(211,47,47)" paint-order="fill stroke markers" d=" M 202.45575533387014 275.0515861438824 L 257.0386051493504 275.0515861438824" stroke-opacity="0.6980392156862745" stroke-linecap="round" stroke-linejoin="round" stroke-miterlimit="10" stroke-width="2.5"/><path fill="none" stroke="rgb(211,47,47)" paint-order="fill stroke markers" d=" M 257.0386051493504 275.0515861438824 L 257.0386051493504 220.4687363284023" stroke-opacity="0.6980392156862745" stroke-linecap="round" stroke-linejoin="round" stroke-miterlimit="10" stroke-width="2.5"/><path fill="none" stroke="rgb(211,47,47)" paint-order="fill stroke markers" d=" M 257.0386051493504 220.4687363284023 L 147.8729055183899 220.4687363284023" stroke-opacity="0.6980392156862745" stroke-linecap="round" stroke-linejoin="round" stroke-miterlimit="10" stroke-width="2.5"/><path fill="rgb(21,101,192)" stroke="none" paint-order="stroke fill markers" d=" M 148.8729055183899 56.72018688196201 C 148.8729055183899 57.2724716317928 148.4251902682207 57.72018688196201 147.8729055183899 57.72018688196201 C 147.3206207685591 57.72018688196201 146.8729055183899 57.2724716317928 146.8729055183899 56.72018688196201 C 146.8729055183899 56.16790213213121 147.3206207685591 55.72018688196201 147.8729055183899 55.72018688196201 C 148.4251902682207 55.72018688196201 148.8729055183899 56.16790213213121 148.8729055183899 56.72018688196201 Z" fill-opacity="1"/><path fill="rgb(21,101,192)" stroke="none" paint-order="stroke fill markers" d=" M 203.45575533387014 56.72018688196201 C 203.45575533387014 57.2724716317928 203.00804008370093 57.72018688196201 202.45575533387014 57.72018688196201 C 201.90347058403935 57.72018688196201 201.45575533387014 57.2724716317928 201.45575533387014 56.72018688196201 C 201.45575533387014 56.16790213213121 201.90347058403935 55.72018688196201 202.45575533387014 55.72018688196201 C 203.00804008370093 55.72018688196201 203.45575533387014 56.16790213213121 203.45575533387014 56.72018688196201 Z" fill-opacity="1"/><path fill="rgb(21,101,192)" stroke="none" paint-order="stroke fill markers" d=" M 203.45575533387014 165.88588651292218 C 203.45575533387014 166.43817126275297 203.00804008370093 166.88588651292218 202.45575533387014 166.88588651292218 C 201.90347058403935 166.88588651292218 201.45575533387014 166.43817126275297 201.45575533387014 165.88588651292218 C 201.45575533387014 165.3336017630914 201.90347058403935 164.88588651292218 202.45575533387014 164.88588651292218 C 203.00804008370093 164.88588651292218 203.45575533387014 165.3336017630914 203.45575533387014 165.88588651292218 Z" fill-opacity="1"/><path fill="rgb(21,101,192)" stroke="none" paint-order="stroke fill markers" d=" M 258.0386051493504 165.88588651292218 C 258.0386051493504 166.43817126275297 257.5908898991812 166.88588651292218 257.0386051493504 166.88588651292218 C 256.4863203995196 166.88588651292218 256.0386051493504 166.43817126275297 256.0386051493504 165.88588651292218 C 256.0386051493504 165.3336017630914 256.4863203995196 164.88588651292218 257.0386051493504 164.88588651292218 C 257.5908898991812 164.88588651292218 258.0386051493504 165.3336017630914 258.0386051493504 165.88588651292218 Z" fill-opacity="1"/><path fill="rgb(21,101,192)" stroke="none" paint-order="stroke fill markers" d=" M 258.0386051493504 220.4687363284023 C 258.0386051493504 221.02102107823308 257.5908898991812 221.4687363284023 257.0386051493504 221.4687363284023 C 256.4863203995196 221.4687363284023 256.0386051493504 221.02102107823308 256.0386051493504 220.4687363284023 C 256.0386051493504 219.9164515785715 256.4863203995196 219.4687363284023 257.0386051493504 219.4687363284023 C 257.5908898991812 219.4687363284023 258.0386051493504 219.9164515785715 258.0386051493504 220.4687363284023 Z" fill-opacity="1"/><path fill="rgb(97,97,97)" stroke="none" paint-order="stroke fill markers" d=" M 148.8729055183899 220.4687363284023 C 148.8729055183899 221.02102107823308 148.4251902682207 221.4687363284023 147.8729055183899 221.4687363284023 C 147.3206207685591 221.4687363284023 146.8729055183899 221.02102107823308 146.8729055183899 220.4687363284023 C 146.8729055183899 219.9164515785715 147.3206207685591 219.4687363284023 147.8729055183899 219.4687363284023 C 148.4251902682207 219.4687363284023 148.8729055183899 219.9164515785715 148.8729055183899 220.4687363284023 Z" fill-opacity="1"/><path fill="rgb(211,47,47)" stroke="none" paint-order="stroke fill markers" d=" M 148.8729055183899 384.2172857748426 C 148.8729055183899 384.7695705246734 148.4251902682207 385.2172857748426 147.8729055183899 385.2172857748426 C 147.3206207685591 385.2172857748426 146.8729055183899 384.7695705246734 146.8729055183899 384.2172857748426 C 146.8729055183899 383.6650010250118 147.3206207685591 383.2172857748426 147.8729055183899 383.2172857748426 C 148.4251902682207 383.2172857748426 148.8729055183899 383.6650010250118 148.8729055183899 384.2172857748426 Z" fill-opacity="1"/><path fill="none" stroke="rgb(211,47,47)" paint-order="fill stroke markers" d=" M 201.45575533387014 383.2172857748426 L 203.45575533387014 385.2172857748426" stroke-opacity="1" stroke-linecap="square" stroke-miterlimit="10" stroke-width="0.5"/><path fill="none" stroke="rgb(211,47,47)" paint-order="fill stroke markers" d=" M 201.45575533387014 385.2172857748426 L 203.45575533387014 383.2172857748426" stroke-opacity="1" stroke-linecap="square" stroke-miterlimit="10" stroke-width="0.5"/><path fill="rgb(211,47,47)" stroke="none" paint-order="stroke fill markers" d=" M 203.45575533387014 275.0515861438824 C 203.45575533387014 275.6038708937132 203.00804008370093 276.0515861438824 202.45575533387014 276.0515861438824 C 201.90347058403935 276.0515861438824 201.45575533387014 275.6038708937132 201.45575533387014 275.0515861438824 C 201.45575533387014 274.4993013940516 201.90347058403935 274.0515861438824 202.45575533387014 274.0515861438824 C 203.00804008370093 274.0515861438824 203.45575533387014 274.4993013940516 203.45575533387014 275.0515861438824 Z" fill-opacity="1"/><path fill="rgb(211,47,47)" stroke="none" paint-order="stroke fill markers" d=" M 258.0386051493504 275.0515861438824 C 258.0386051493504 275.6038708937132 257.5908898991812 276.0515861438824 257.0386051493504 276.0515861438824 C 256.4863203995196 276.0515861438824 256.0386051493504 275.6038708937132 256.0386051493504 275.0515861438824 C 256.0386051493504 274.4993013940516 256.4863203995196 274.0515861438824 257.0386051493504 274.0515861438824 C 257.5908898991812 274.0515861438824 258.0386051493504 274.4993013940516 258.0386051493504 275.0515861438824 Z" fill-opacity="1"/><path fill="rgb(21,101,192)" stroke="none" paint-order="stroke fill markers" d=" M 148.8729055183899 56.72018688196201 C 148.8729055183899 57.2724716317928 148.4251902682207 57.72018688196201 147.8729055183899 57.72018688196201 C 147.3206207685591 57.72018688196201 146.8729055183899 57.2724716317928 146.8729055183899 56.72018688196201 C 146.8729055183899 56.16790213213121 147.3206207685591 55.72018688196201 147.8729055183899 55.72018688196201 C 148.4251902682207 55.72018688196201 148.8729055183899 56.16790213213121 148.8729055183899 56.72018688196201 Z" fill-opacity="1"/><path fill="rgb(97,97,97)" stroke="none" paint-order="stroke fill markers" d=" M 148.8729055183899 220.4687363284023 C 148.8729055183899 221.02102107823308 148.4251902682207 221.4687363284023 147.8729055183899 221.4687363284023 C 147.3206207685591 221.4687363284023 146.8729055183899 221.02102107823308 146.8729055183899 220.4687363284023 C 146.8729055183899 219.9164515785715 147.3206207685591 219.4687363284023 147.8729055183899 219.4687363284023 C 148.4251902682207 219.4687363284023 148.8729055183899 219.9164515785715 148.8729055183899 220.4687363284023 Z" fill-opacity="1"/></g></g></svg>