<?xml version="1.0" encoding="UTF-8" standalone="no"?>
<!-- Created with Inkscape (http://www.inkscape.org/) -->

<svg
   xmlns:dc="http://purl.org/dc/elements/1.1/"
   xmlns:cc="http://creativecommons.org/ns#"
   xmlns:rdf="http://www.w3.org/1999/02/22-rdf-syntax-ns#"
   xmlns:svg="http://www.w3.org/2000/svg"
   xmlns="http://www.w3.org/2000/svg"
   xmlns:sodipodi="http://sodipodi.sourceforge.net/DTD/sodipodi-0.dtd"
   xmlns:inkscape="http://www.inkscape.org/namespaces/inkscape"
   width="744.09448819"
   height="1052.3622047"
   id="svg2"
   version="1.1"
   inkscape:version="0.48.4 r9939"
   sodipodi:docname="einfalt3.svg">
  <sodipodi:namedview
     id="base"
     pagecolor="#ffffff"
     bordercolor="#666666"
     borderopacity="1.0"
     inkscape:pageopacity="0.0"
     inkscape:pageshadow="2"
     inkscape:zoom="1.979899"
     inkscape:cx="309.7531"
     inkscape:cy="815.56975"
     inkscape:document-units="px"
     inkscape:current-layer="layer1"
     showgrid="false"
     inkscape:window-width="1920"
     inkscape:window-height="1025"
     inkscape:window-x="-2"
     inkscape:window-y="-3"
     inkscape:window-maximized="1" />
  <defs
     id="defs4">
    <marker
       inkscape:stockid="Arrow2Lend"
       orient="auto"
       refY="0.0"
       refX="0.0"
       id="Arrow2Lend"
       style="overflow:visible;">
      <path
         id="path12522"
         style="fill-rule:evenodd;stroke-width:0.62500000;stroke-linejoin:round;"
         d="M 8.7185878,4.0337352 L -2.2072895,0.016013256 L 8.7185884,-4.0017078 C 6.9730900,-1.6296469 6.9831476,1.6157441 8.7185878,4.0337352 z "
         transform="scale(1.1) rotate(180) translate(1,0)" />
    </marker>
    <marker
       style="overflow:visible;"
       id="Arrow2Mend"
       refX="0.0"
       refY="0.0"
       orient="auto"
       inkscape:stockid="Arrow2Mend">
      <path
         transform="scale(0.6) rotate(180) translate(0,0)"
         d="M 8.7185878,4.0337352 L -2.2072895,0.016013256 L 8.7185884,-4.0017078 C 6.9730900,-1.6296469 6.9831476,1.6157441 8.7185878,4.0337352 z "
         style="fill-rule:evenodd;stroke-width:0.62500000;stroke-linejoin:round;"
         id="path12528" />
    </marker>
    <marker
       style="overflow:visible"
       id="Arrow2Mend-1"
       refX="0"
       refY="0"
       orient="auto"
       inkscape:stockid="Arrow2Mend">
      <path
         transform="scale(-0.6,-0.6)"
         d="M 8.7185878,4.0337352 -2.2072895,0.01601326 8.7185884,-4.0017078 c -1.7454984,2.3720609 -1.7354408,5.6174519 -6e-7,8.035443 z"
         style="fill-rule:evenodd;stroke-width:0.625;stroke-linejoin:round"
         id="path12528-4"
         inkscape:connector-curvature="0" />
    </marker>
    <marker
       style="overflow:visible"
       id="Arrow2Mend-0"
       refX="0"
       refY="0"
       orient="auto"
       inkscape:stockid="Arrow2Mend">
      <path
         transform="scale(-0.6,-0.6)"
         d="M 8.7185878,4.0337352 -2.2072895,0.01601326 8.7185884,-4.0017078 c -1.7454984,2.3720609 -1.7354408,5.6174519 -6e-7,8.035443 z"
         style="fill-rule:evenodd;stroke-width:0.625;stroke-linejoin:round"
         id="path12528-3"
         inkscape:connector-curvature="0" />
    </marker>
    <marker
       style="overflow:visible"
       id="marker13256"
       refX="0"
       refY="0"
       orient="auto"
       inkscape:stockid="Arrow2Mend">
      <path
         transform="scale(-0.6,-0.6)"
         d="M 8.7185878,4.0337352 -2.2072895,0.01601326 8.7185884,-4.0017078 c -1.7454984,2.3720609 -1.7354408,5.6174519 -6e-7,8.035443 z"
         style="fill-rule:evenodd;stroke-width:0.625;stroke-linejoin:round"
         id="path13258"
         inkscape:connector-curvature="0" />
    </marker>
    <marker
       style="overflow:visible"
       id="marker13256-3"
       refX="0"
       refY="0"
       orient="auto"
       inkscape:stockid="Arrow2Mend">
      <path
         transform="scale(-0.6,-0.6)"
         d="M 8.7185878,4.0337352 -2.2072895,0.01601326 8.7185884,-4.0017078 c -1.7454984,2.3720609 -1.7354408,5.6174519 -6e-7,8.035443 z"
         style="fill-rule:evenodd;stroke-width:0.625;stroke-linejoin:round"
         id="path13258-9"
         inkscape:connector-curvature="0" />
    </marker>
  </defs>
  <metadata
     id="metadata7">
    <rdf:RDF>
      <cc:Work
         rdf:about="">
        <dc:format>image/svg+xml</dc:format>
        <dc:type
           rdf:resource="http://purl.org/dc/dcmitype/StillImage" />
        <dc:title />
      </cc:Work>
    </rdf:RDF>
  </metadata>
  <g
     inkscape:label="Layer 1"
     inkscape:groupmode="layer"
     id="layer1">
    <path
       style="font-style:normal;font-variant:normal;font-weight:normal;font-stretch:normal;letter-spacing:normal;word-spacing:normal;text-anchor:start;fill:#000000;stroke:#000000;stroke-width:0;stroke-linecap:butt;stroke-linejoin:miter;stroke-miterlimit:10.43299961;stroke-opacity:1;stroke-dasharray:none;stroke-dashoffset:0"
       inkscape:connector-curvature="0"
       d="m 97.83616,396.88356 -0.0552,-0.11733 -0.0621,-0.11732 -0.0621,-0.11042 -0.069,-0.11043 -0.069,-0.11042 -0.069,-0.11042 -0.0759,-0.10353 -0.0759,-0.0966 -0.0759,-0.10352 -0.0828,-0.0897 -0.0828,-0.0966 -0.0828,-0.0897 -0.0897,-0.0828 -0.0897,-0.0828 -0.0897,-0.0759 -0.0966,-0.0759 -0.10352,-0.0759 -0.10352,-0.0621 -0.10352,-0.069 -0.10353,-0.0552 -0.11042,-0.0552 -0.11042,-0.0552 -0.11733,-0.0414 -0.11732,-0.0483 -0.12423,-0.0345 -0.12422,-0.0345 -0.13113,-0.0276 -0.13113,-0.0207 -0.13113,-0.0207 -0.13803,-0.0138 -0.13803,-0.007 -0.14493,0 0.0345,0.75226 c 2.22917,0 2.71918,2.8158 2.71918,3.01594 0,0.22085 -0.069,0.42099 -0.0966,0.59353 l -1.72537,6.74273 c -0.17254,0.61423 -0.17254,0.67635 -0.69015,1.26987 -1.51142,1.891 -2.92622,2.43622 -3.88552,2.43622 -1.71157,0 -2.20157,-1.8841 -2.20157,-3.22989 0,-1.71846 1.10423,-5.94216 1.891,-7.5295 1.06283,-2.02903 2.61566,-3.2989 3.98905,-3.2989 l -0.0345,-0.75226 c -4.01665,0 -8.28176,5.04497 -8.28176,10.06924 0,3.23679 1.891,5.50047 4.57567,5.50047 0.67635,0 2.40171,-0.14493 4.46525,-2.58115 0.27606,1.44931 1.47692,2.58115 3.12637,2.58115 1.20775,0 1.99452,-0.78677 2.53974,-1.891 0.58662,-1.23536 1.03522,-3.34031 1.03522,-3.40242 0,-0.34508 -0.31057,-0.34508 -0.40719,-0.34508 -0.34507,0 -0.37268,0.13803 -0.4831,0.62113 -0.57972,2.23608 -1.20776,4.25821 -2.60876,4.25821 -0.93169,0 -1.03522,-0.89029 -1.03522,-1.58044 0,-0.75916 0.0621,-1.02831 0.4417,-2.54664 0.38648,-1.4424 0.44859,-1.78748 0.76606,-3.09185 l 1.22846,-4.81033 c 0.24845,-0.9593 0.24845,-1.03522 0.24845,-1.16635 0,-0.59352 -0.42098,-0.93859 -1.00071,-0.93859 -0.82127,0 -1.33888,0.76606 -1.44931,1.51832 z"
       id="path12429" />
    <path
       style="font-style:normal;font-variant:normal;font-weight:normal;font-stretch:normal;letter-spacing:normal;word-spacing:normal;text-anchor:start;fill:#000000;stroke:#000000;stroke-width:0;stroke-linecap:butt;stroke-linejoin:miter;stroke-miterlimit:10.43299961;stroke-opacity:1;stroke-dasharray:none;stroke-dashoffset:0"
       inkscape:connector-curvature="0"
       d="m 291.59737,386.39533 0,0 0,-0.007 0,0 0,-0.007 -0.007,-0.0138 0,-0.007 0,-0.0138 0,-0.0138 0,-0.0138 -0.007,-0.0138 0,-0.0138 -0.007,-0.0138 -0.007,-0.0138 -0.007,-0.0207 -0.007,-0.0138 -0.007,-0.0207 -0.007,-0.0138 -0.0138,-0.0207 -0.0138,-0.0138 -0.0138,-0.0138 -0.0138,-0.0207 -0.007,-0.007 -0.0138,-0.007 -0.007,-0.007 -0.007,-0.007 -0.0138,-0.007 -0.007,-0.007 -0.0138,-0.007 -0.007,-0.007 -0.0138,-0.007 -0.0138,-0.007 -0.0138,0 -0.0138,-0.007 -0.0138,-0.007 -0.0138,0 -0.0138,-0.007 -0.0138,-0.007 -0.0207,0 -0.0138,0 -0.0207,-0.007 -0.0138,0 -0.0207,0 -0.0207,-0.007 -0.0207,0 -0.0138,0 c -0.80057,0 -3.3058,0.28296 -4.19609,0.34507 -0.28296,0.0345 -0.66254,0.069 -0.66254,0.69015 0,0.41408 0.31747,0.41408 0.83508,0.41408 1.64945,0 1.71156,0.23465 1.71156,0.57973 0,0.24845 -0.31056,1.4148 -0.4831,2.13255 l -2.8158,11.20798 c -0.40718,1.72537 -0.55212,2.27749 -0.55212,3.47144 0,3.2644 1.82199,5.40385 4.36863,5.40385 v -0.75916 c -1.17325,0 -2.30509,-0.9248 -2.30509,-3.47144 0,-0.65564 0,-1.30438 0.54522,-3.47144 l 0.75916,-3.16777 c 0.20704,-0.75916 0.20704,-0.82127 0.51761,-1.20086 1.68396,-2.22917 3.23679,-2.74678 4.12708,-2.74678 1.24226,0 2.16706,1.02142 2.16706,3.23679 0,2.02213 -1.13874,5.96977 -1.75297,7.28795 -1.13184,2.29819 -2.71918,3.53355 -4.05807,3.53355 v 0.75916 c 4.05807,0 8.28176,-5.12089 8.28176,-10.07614 0,-3.12637 -1.82198,-5.49357 -4.56877,-5.49357 -1.57353,0 -2.98833,0.98691 -4.02355,2.05664 z"
       id="path12431" />
    <path
       style="fill:#000000;stroke:#000000;stroke-width:3;stroke-miterlimit:4;stroke-dasharray:none;marker-end:url(#Arrow2Mend)"
       d="m 32.407342,424.13836 0,-377.891829"
       id="path11646"
       inkscape:connector-curvature="0" />
    <path
       style="font-style:normal;font-variant:normal;font-weight:normal;font-stretch:normal;letter-spacing:normal;word-spacing:normal;text-anchor:start;fill:#000000;stroke:#000000;stroke-width:0;stroke-linecap:butt;stroke-linejoin:miter;stroke-miterlimit:10.43299961;stroke-opacity:1;stroke-dasharray:none;stroke-dashoffset:0"
       inkscape:connector-curvature="0"
       d="m 387.00487,396.02519 0.0207,-0.0897 0.0276,-0.10352 0.0276,-0.11042 0.0276,-0.12423 0.0414,-0.13113 0.0414,-0.14493 0.0414,-0.15183 0.0483,-0.15183 0.0552,-0.15873 0.0621,-0.16564 0.069,-0.17254 0.069,-0.16563 0.0759,-0.17254 0.0828,-0.17253 0.0897,-0.17254 0.0966,-0.17254 0.10352,-0.16563 0.10353,-0.16564 0.11732,-0.15873 0.12423,-0.15183 0.12422,-0.15184 0.13803,-0.13803 0.14493,-0.13112 0.15184,-0.12423 0.15873,-0.11042 0.17254,-0.0966 0.0828,-0.0483 0.0897,-0.0414 0.0966,-0.0345 0.0897,-0.0345 0.0966,-0.0345 0.0966,-0.0276 0.10353,-0.0207 0.10352,-0.0207 0.10352,-0.0138 0.11042,-0.0138 0.11043,-0.007 0.11042,0 c 0.17254,0 0.99381,0 1.71156,0.44169 -0.9593,0.17254 -1.64945,1.03522 -1.64945,1.8565 0,0.54521 0.37958,1.20775 1.30438,1.20775 0.75916,0 1.8565,-0.61423 1.8565,-1.99452 0,-1.79438 -2.02904,-2.26368 -3.19538,-2.26368 -1.99453,0 -3.20228,1.82198 -3.60947,2.60875 -0.86268,-2.26368 -2.71918,-2.60875 -3.70609,-2.60875 -3.58186,0 -5.54878,4.43074 -5.54878,5.29342 0,0.34508 0.34507,0.34508 0.42099,0.34508 0.26916,0 0.37958,-0.0759 0.44169,-0.37959 1.16635,-3.64397 3.44384,-4.50665 4.61018,-4.50665 0.65564,0 1.8496,0.30366 1.8496,2.29819 0,1.06282 -0.57973,3.37481 -1.8496,8.18514 -0.55211,2.13255 -1.75297,3.57496 -3.27129,3.57496 -0.20704,0 -0.99381,0 -1.71156,-0.4486 0.86268,-0.16564 1.61494,-0.88339 1.61494,-1.85649 0,-0.9248 -0.75226,-1.19396 -1.26987,-1.19396 -1.03522,0 -1.8979,0.89029 -1.8979,1.99453 0,1.57353 1.72536,2.26368 3.22988,2.26368 2.27749,0 3.50595,-2.40862 3.61637,-2.60876 0.40719,1.26987 1.64945,2.60876 3.70609,2.60876 3.54735,0 5.51427,-4.43075 5.51427,-5.29343 0,-0.34507 -0.31057,-0.34507 -0.42099,-0.34507 -0.30366,0 -0.37958,0.13803 -0.44169,0.37268 -1.13184,3.67848 -3.47144,4.50666 -4.57568,4.50666 -1.34578,0 -1.8979,-1.09734 -1.8979,-2.27059 0,-0.75916 0.20705,-1.51142 0.59353,-3.02284 z"
       id="path12425" />
    <path
       style="font-style:normal;font-variant:normal;font-weight:normal;font-stretch:normal;letter-spacing:normal;word-spacing:normal;text-anchor:start;fill:#000000;stroke:#000000;stroke-width:0;stroke-linecap:butt;stroke-linejoin:miter;stroke-miterlimit:10.43299961;stroke-opacity:1;stroke-dasharray:none;stroke-dashoffset:0"
       inkscape:connector-curvature="0"
       d="m 11.225841,36.884347 0.007,-0.02761 0.007,-0.0207 0.0138,-0.04141 0.007,-0.03451 0.0138,-0.04141 0.007,-0.03451 0.007,-0.02761 0.007,-0.03451 0.007,-0.02761 0.007,-0.02761 0.007,-0.02761 0.007,-0.02761 0.007,-0.02761 0,-0.0207 0.007,-0.0207 0,-0.0207 0.007,-0.0207 0,-0.02071 0.007,-0.0207 0,-0.03451 0.007,-0.04141 0,-0.03451 0,-0.03451 0,-0.03451 0,-0.0207 0,-0.0207 0,-0.0207 0,-0.0207 c 0,-0.628033 -0.4762,-0.931698 -0.99381,-0.931698 -0.34507,0 -0.8902897,0.207044 -1.2077498,0.724654 -0.0621,0.172537 -0.34508,1.228461 -0.4693,1.856495 -0.24846,0.890289 -0.48311,1.821987 -0.69015,2.746784 l -1.55283,6.190616 c -0.13113,0.51761 -1.60804,2.919321 -3.88553,2.919321 -1.74607002,0 -2.13255002,-1.50452 -2.13255002,-2.781292 0,-1.580436 0.59353002,-3.71989 1.75987002,-6.735832 0.54522,-1.4148 0.69015,-1.794381 0.69015,-2.484528 0,-1.539027 -1.10423,-2.808897 -2.82960001,-2.808897 -3.26438999,0 -4.54116999,4.975958 -4.54116999,5.293425 0,0.345074 0.34508,0.345074 0.42099,0.345074 0.34508,0 0.37958,-0.07592 0.55212,-0.628034 0.9248,-3.236788 2.29819,-4.258205 3.47143999,-4.258205 0.26916,0 0.86267999,0 0.86267999,1.097333 0,0.862684 -0.34507,1.746071 -0.59351999,2.408612 -1.36648999,3.643975 -1.99452999,5.603992 -1.99452999,7.225836 0,3.050449 2.16705998,4.085669 4.19609,4.085669 1.34579,0 2.51214,-0.586625 3.47144,-1.545929 -0.44169,1.780579 -0.84888,3.471438 -2.22917,5.300327 -0.89719,1.159447 -2.20157,2.167061 -3.78891001,2.167061 -0.4762,0 -2.02902999,-0.110424 -2.60874999,-1.449308 0.55212,0 1.00071,0 1.47691,-0.42099 0.34507999,-0.296763 0.69014999,-0.75226 0.69014999,-1.400998 0,-1.069727 -0.92479999,-1.207756 -1.26986999,-1.207756 -0.78677,0 -1.93241,0.552117 -1.93241,2.236075 0,1.725367 1.51832,2.995237 3.64396999,2.995237 3.54736001,0 7.08781001,-3.140168 8.05401001,-7.018792 z"
       id="path12427" />
    <path
       style="fill:#000000;stroke:#000000;stroke-width:3;stroke-miterlimit:4;stroke-dasharray:none;marker-end:url(#Arrow2Mend)"
       d="m -2.3253357,374.53386 377.8918257,0"
       id="path11646-7"
       inkscape:connector-curvature="0" />
    <path
       sodipodi:nodetypes="cccc"
       inkscape:connector-curvature="0"
       id="path13288"
       d="m 95.964487,373.53967 0,-53.53809 0,-69.22701 0,-165.128383"
       style="fill:#000000;stroke:#000000;stroke-width:3;stroke-miterlimit:4;stroke-dasharray:3, 9;stroke-dashoffset:0" />
    <path
       sodipodi:nodetypes="cc"
       inkscape:connector-curvature="0"
       id="path13288-6"
       d="m 289.91378,374.04475 0,-288.903633"
       style="fill:#000000;stroke:#000000;stroke-width:3;stroke-miterlimit:4;stroke-dasharray:3, 9;stroke-dashoffset:0" />
    <path
       sodipodi:nodetypes="cssc"
       inkscape:connector-curvature="0"
       id="path13308"
       d="m 95.964492,300.30361 c 0,0 23.233508,-33.8401 95.964488,-23.73858 57.39002,7.97083 85.84802,-19.2799 95.29987,-31.13039 2.52658,-3.16776 2.98079,-3.62796 2.98079,-3.62796"
       style="fill:none;stroke:#0000ff;stroke-width:3;stroke-miterlimit:4;stroke-dasharray:none;stroke-dashoffset:0" />
    <path
       sodipodi:nodetypes="cssc"
       inkscape:connector-curvature="0"
       id="path13310"
       d="m 95.964492,202.31881 c 0,0 3.030457,-91.4188 57.578698,-111.621851 54.54823,-20.20305 52.52793,25.253821 79.80205,46.467021 33.18423,25.80996 56.92568,8.79551 56.92568,8.79551"
       style="fill:none;stroke:#0000ff;stroke-width:3;stroke-miterlimit:4;stroke-dasharray:none;stroke-dashoffset:0" />
    <path
       inkscape:connector-curvature="0"
       id="path13312"
       d="m 97.875358,242.03096 c 0,-50.85201 0.03804,-51.8311 2.482472,-63.89215 9.32354,-46.00327 25.8915,-73.05816 51.58514,-84.236693 9.88327,-4.299917 21.56538,-6.710853 28.54333,-5.890731 12.33209,1.449395 18.66204,6.579667 30.7204,24.898104 10.59102,16.08935 15.11861,21.54288 22.34177,26.91089 14.47141,10.75465 30.5397,15.25627 43.78784,12.2674 3.80171,-0.85769 7.70769,-1.90188 8.67996,-2.32041 1.66895,-0.71844 1.76777,1.82923 1.76777,45.57894 l 0,46.3399 -4.53059,5.17913 c -9.59591,10.96958 -26.77853,21.09824 -43.45166,25.61352 -10.97473,2.97209 -29.20764,3.69263 -47.95185,1.895 -17.49746,-1.67806 -37.06177,-1.66246 -47.50756,0.0379 -16.05434,2.61329 -32.2287,8.97752 -41.56162,16.35353 -2.0245,1.60001 -3.956416,2.90909 -4.293153,2.90909 -0.336737,0 -0.612249,-23.23953 -0.612249,-51.6434 z"
       style="fill:#00ffff;stroke:none;stroke-width:3.03045774000000012;stroke-miterlimit:4;stroke-dasharray:none;stroke-dashoffset:0" />
    <path
       sodipodi:nodetypes="cc"
       inkscape:connector-curvature="0"
       id="path13288-7"
       d="m 95.923494,299.12018 0,-214.344349"
       style="fill:#000000;stroke:#000000;stroke-width:3;stroke-miterlimit:4;stroke-dasharray:none;stroke-dashoffset:0" />
    <path
       sodipodi:nodetypes="cc"
       inkscape:connector-curvature="0"
       id="path13288-7-2"
       d="M 290,299.01133 290,85.386533"
       style="fill:#000000;stroke:#000000;stroke-width:3;stroke-miterlimit:4;stroke-dasharray:none;stroke-dashoffset:0" />
    <g
       id="g13415"
       transform="translate(-150.06457,-152.0131)">
      <g
         word-spacing="normal"
         letter-spacing="normal"
         font-size-adjust="none"
         font-stretch="normal"
         font-weight="normal"
         font-variant="normal"
         font-style="normal"
         stroke-miterlimit="10.433"
         xml:space="preserve"
         transform="matrix(1.0629921,0,0,-1.0629921,-186.02362,789.27165)"
         id="content"
         style="font-style:normal;font-variant:normal;font-weight:normal;font-stretch:normal;letter-spacing:normal;word-spacing:normal;text-anchor:start;fill:none;stroke:#000000;stroke-linecap:butt;stroke-linejoin:miter;stroke-miterlimit:10.43299961;stroke-opacity:1;stroke-dasharray:none;stroke-dashoffset:0"><path
           id="path13418"
           d="m 463.44,410.09 -0.04,-0.18 -0.05,-0.17 -0.04,-0.16 -0.05,-0.15 -0.04,-0.15 -0.05,-0.13 -0.04,-0.13 -0.05,-0.12 -0.06,-0.11 -0.06,-0.11 -0.06,-0.1 -0.07,-0.09 -0.08,-0.09 -0.09,-0.07 -0.09,-0.08 -0.11,-0.06 -0.11,-0.07 -0.12,-0.05 -0.14,-0.05 -0.15,-0.05 -0.16,-0.04 -0.09,-0.02 -0.08,-0.01 -0.1,-0.02 -0.1,-0.02 -0.1,-0.01 -0.1,-0.01 -0.11,-0.01 -0.11,-0.02 -0.12,-0.01 -0.12,-0.01 -0.13,0 -0.13,-0.01 -0.13,-0.01 -0.15,0 -0.14,-0.01 -0.15,0 -0.16,-0.01 -0.16,0 -0.16,0 -0.17,0 -0.18,0 -0.18,0 c -0.84,0 -1.39,0 -1.39,-0.96 0,-0.59 0.44,-0.59 1.39,-0.59 h 16.48 l -0.89,1.55 h -5.62 c -0.7,0 -0.8,0 -1.11,0.04 -0.48,0.05 -0.64,0.1 -0.64,0.5 0,0.14 0,0.25 0.25,1.14 l 6.83,27.36 c 0.43,1.74 0.54,1.89 2.68,1.89 h 5.33 c 4.89,0 9.02,-2.64 9.02,-9.22 0,-2.43 -1,-10.6 -5.24,-16.09 -1.43,-1.84 -5.37,-5.62 -11.5,-5.62 l 0.89,-1.55 c 10.36,0 20.19,10.51 20.19,21.42 0,7.03 -4.23,12.61 -11.72,12.61 h -16.73 c -0.95,0 -1.5,0 -1.5,-0.95 0,-0.6 0.45,-0.6 1.45,-0.6 0.64,0 1.55,-0.04 2.14,-0.09 0.8,-0.11 1.1,-0.25 1.1,-0.8 0,-0.2 -0.05,-0.36 -0.21,-0.95 z"
           inkscape:connector-curvature="0"
           style="fill:#000000;stroke-width:0" /></g>    </g>
    <g
       id="g14190"
       transform="matrix(0.66465225,0,0,0.66465225,-66.867707,214.91702)">
      <g
         word-spacing="normal"
         letter-spacing="normal"
         font-size-adjust="none"
         font-stretch="normal"
         font-weight="normal"
         font-variant="normal"
         font-style="normal"
         stroke-miterlimit="10.433"
         xml:space="preserve"
         transform="matrix(1.0629921,0,0,-1.0629921,-186.02362,789.27165)"
         id="g14192"
         style="font-style:normal;font-variant:normal;font-weight:normal;font-stretch:normal;letter-spacing:normal;word-spacing:normal;text-anchor:start;fill:none;stroke:#000000;stroke-linecap:butt;stroke-linejoin:miter;stroke-miterlimit:10.43299961;stroke-opacity:1;stroke-dasharray:none;stroke-dashoffset:0"><path
           id="path14194"
           d="m 479.74,425.18 0.01,0.04 0.01,0.03 0.01,0.06 0.02,0.05 0.01,0.06 0.01,0.05 0.02,0.04 0.01,0.05 0.01,0.04 0.01,0.04 0,0.04 0.01,0.04 0.01,0.04 0.01,0.03 0,0.03 0.01,0.03 0,0.03 0.01,0.03 0,0.03 0.01,0.05 0,0.06 0,0.05 0,0.05 0.01,0.05 0,0.03 0,0.03 0,0.03 0,0.03 c 0,0.91 -0.69,1.35 -1.44,1.35 -0.5,0 -1.3,-0.3 -1.75,-1.05 -0.1,-0.25 -0.5,-1.78 -0.69,-2.69 -0.36,-1.29 -0.7,-2.64 -1,-3.98 l -2.25,-8.97 c -0.19,-0.75 -2.33,-4.23 -5.62,-4.23 -2.54,0 -3.1,2.18 -3.1,4.03 0,2.29 0.86,5.39 2.55,9.76 0.8,2.05 1,2.6 1,3.6 0,2.23 -1.59,4.07 -4.09,4.07 -4.74,0 -6.58,-7.21 -6.58,-7.67 0,-0.5 0.5,-0.5 0.61,-0.5 0.5,0 0.54,0.11 0.79,0.91 1.35,4.69 3.33,6.17 5.03,6.17 0.4,0 1.25,0 1.25,-1.59 0,-1.25 -0.5,-2.53 -0.85,-3.49 -1.99,-5.28 -2.9,-8.12 -2.9,-10.47 0,-4.42 3.15,-5.92 6.08,-5.92 1.96,0 3.64,0.85 5.03,2.24 -0.64,-2.58 -1.23,-5.03 -3.23,-7.68 -1.3,-1.68 -3.19,-3.14 -5.48,-3.14 -0.69,0 -2.94,0.16 -3.79,2.1 0.8,0 1.46,0 2.14,0.61 0.5,0.43 1,1.09 1,2.03 0,1.55 -1.34,1.75 -1.84,1.75 -1.14,0 -2.8,-0.8 -2.8,-3.24 0,-2.5 2.21,-4.34 5.29,-4.34 5.14,0 10.26,4.55 11.67,10.17 z"
           inkscape:connector-curvature="0"
           style="fill:#000000;stroke-width:0" /><polygon
           id="polygon14196"
           points="482.34,415.51 495.55,415.51 495.55,418.4 482.34,418.4 "
           style="fill:#000000;stroke-width:0" /><path
           id="path14198"
           d="m 503.89,417.71 0.04,1.05 c 0.3,7.42 4.49,8.66 6.19,8.66 5.13,0 5.63,-6.72 5.63,-8.66 h -11.82 l -0.04,-1.05 h 13.9 c 1.1,0 1.24,0 1.24,1.05 0,4.92 -2.69,9.75 -8.91,9.75 -5.78,0 -10.37,-5.12 -10.37,-11.36 0,-6.67 5.23,-11.5 10.96,-11.5 6.08,0 8.32,5.53 8.32,6.47 0,0.5 -0.39,0.61 -0.64,0.61 -0.46,0 -0.55,-0.3 -0.66,-0.7 -1.73,-5.13 -6.22,-5.13 -6.72,-5.13 -2.5,0 -4.48,1.49 -5.62,3.33 -1.5,2.39 -1.5,5.69 -1.5,7.48 z"
           inkscape:connector-curvature="0"
           style="fill:#000000;stroke-width:0" /><path
           id="path14200"
           d="m 529.25,428.21 -6.97,-0.54 v -1.55 c 3.23,0 3.69,-0.3 3.69,-2.73 v -13.41 c 0,-2.23 -0.55,-2.23 -3.9,-2.23 v -1.55 c 1.6,0.05 4.28,0.16 5.49,0.16 1.75,0 3.48,-0.11 5.19,-0.16 v 1.55 c -3.3,0 -3.5,0.25 -3.5,2.18 z"
           inkscape:connector-curvature="0"
           style="fill:#000000;stroke-width:0" /><path
           id="path14202"
           d="m 529.45,436.89 0,0.14 -0.02,0.15 -0.01,0.14 -0.03,0.14 -0.03,0.13 -0.04,0.13 -0.04,0.13 -0.05,0.12 -0.05,0.12 -0.06,0.12 -0.07,0.11 -0.07,0.1 -0.08,0.1 -0.08,0.1 -0.08,0.1 -0.09,0.08 -0.09,0.09 -0.1,0.08 -0.1,0.07 -0.1,0.07 -0.11,0.07 -0.11,0.06 -0.12,0.05 -0.11,0.05 -0.12,0.04 -0.12,0.04 -0.12,0.03 -0.13,0.03 -0.12,0.02 -0.13,0.01 -0.13,0.01 -0.13,0.01 c -1.55,0 -2.64,-1.35 -2.64,-2.64 0,-1.35 1.09,-2.64 2.64,-2.64 1.39,0 2.64,1.04 2.64,2.64 z"
           inkscape:connector-curvature="0"
           style="fill:#000000;stroke-width:0" /><path
           id="path14204"
           d="m 539.72,423.34 v -13.36 c 0,-2.23 -0.55,-2.23 -3.9,-2.23 v -1.55 c 1.75,0.05 4.28,0.16 5.63,0.16 1.3,0 3.89,-0.11 5.58,-0.16 v 1.55 c -3.33,0 -3.88,0 -3.88,2.23 v 9.17 c 0,5.19 3.53,7.97 6.72,7.97 3.14,0 3.69,-2.69 3.69,-5.53 v -11.61 c 0,-2.23 -0.55,-2.23 -3.89,-2.23 v -1.55 c 1.75,0.05 4.3,0.16 5.64,0.16 1.29,0 3.87,-0.11 5.58,-0.16 v 1.55 c -2.6,0 -3.85,0 -3.89,1.5 v 9.51 c 0,4.28 0,5.83 -1.55,7.61 -0.69,0.86 -2.35,1.84 -5.22,1.84 -3.64,0 -5.98,-2.14 -7.38,-5.21 v 5.21 l -7.03,-0.54 v -1.55 c 3.49,0 3.9,-0.34 3.9,-2.78 z"
           inkscape:connector-curvature="0"
           style="fill:#000000;stroke-width:0" /><path
           id="path14206"
           d="m 570.67,427.67 v 5.78 c 0,4.39 2.39,6.78 4.58,6.78 0.15,0 0.9,0 1.65,-0.36 -0.61,-0.19 -1.5,-0.84 -1.5,-2.08 0,-1.15 0.8,-2.15 2.14,-2.15 1.44,0 2.19,1 2.19,2.2 0,1.84 -1.84,3.48 -4.48,3.48 -3.49,0 -7.72,-2.64 -7.72,-7.92 v -5.73 h -3.94 v -1.55 h 3.94 v -16.14 c 0,-2.23 -0.55,-2.23 -3.89,-2.23 v -1.55 c 1.95,0.05 4.29,0.16 5.68,0.16 1.99,0 4.33,0 6.33,-0.16 v 1.55 h -1.05 c -3.68,0 -3.78,0.54 -3.78,2.34 v 16.03 h 5.68 v 1.55 z"
           inkscape:connector-curvature="0"
           style="fill:#000000;stroke-width:0" /><path
           id="path14208"
           d="m 593.78,409.98 0.02,-0.19 0.03,-0.18 0.04,-0.19 0.04,-0.18 0.05,-0.19 0.05,-0.18 0.07,-0.18 0.06,-0.18 0.08,-0.18 0.08,-0.17 0.09,-0.18 0.09,-0.16 0.1,-0.16 0.11,-0.16 0.11,-0.16 0.12,-0.14 0.13,-0.14 0.13,-0.14 0.14,-0.13 0.14,-0.12 0.15,-0.12 0.16,-0.1 0.16,-0.1 0.17,-0.09 0.18,-0.08 0.18,-0.07 0.19,-0.06 0.19,-0.05 0.2,-0.04 0.2,-0.03 0.22,-0.02 0.21,-0.01 c 1.03,0 4.08,0.71 4.08,4.74 v 2.78 h -1.25 v -2.78 c 0,-2.89 -1.23,-3.19 -1.8,-3.19 -1.64,0 -1.84,2.23 -1.84,2.48 v 9.97 c 0,2.1 0,4.03 -1.78,5.88 -1.96,1.93 -4.44,2.73 -6.83,2.73 -4.09,0 -7.53,-2.33 -7.53,-5.62 0,-1.49 1,-2.35 2.3,-2.35 1.39,0 2.29,1 2.29,2.3 0,0.59 -0.25,2.23 -2.54,2.3 1.34,1.73 3.78,2.28 5.37,2.28 2.45,0 5.28,-1.94 5.28,-6.38 v -1.84 -1.05 -4.98 c 0,-4.74 -3.58,-6.42 -5.83,-6.42 -2.43,0 -4.48,1.75 -4.48,4.23 0,2.73 2.09,6.88 10.31,7.17 h 0 v 1.05 c -2.53,-0.14 -6.01,-0.3 -9.15,-1.8 -3.74,-1.69 -4.99,-4.28 -4.99,-6.47 0,-4.03 4.83,-5.28 7.97,-5.28 3.3,0 5.58,1.99 6.53,4.33 z"
           inkscape:connector-curvature="0"
           style="fill:#000000;stroke-width:0" /><path
           id="path14210"
           d="m 610.96,440.78 -7.18,-0.55 v -1.55 c 3.49,0 3.9,-0.34 3.9,-2.79 v -25.91 c 0,-2.23 -0.55,-2.23 -3.9,-2.23 v -1.55 c 1.65,0.05 4.29,0.16 5.54,0.16 1.25,0 3.68,-0.11 5.53,-0.16 v 1.55 c -3.35,0 -3.89,0 -3.89,2.23 z"
           inkscape:connector-curvature="0"
           style="fill:#000000;stroke-width:0" /><path
           id="path14212"
           d="m 624.57,426.12 h 7.12 v 1.55 h -7.12 v 9.17 h -1.25 c -0.05,-4.08 -1.55,-9.42 -6.42,-9.61 v -1.11 h 4.23 v -13.75 c 0,-6.12 4.62,-6.72 6.42,-6.72 3.53,0 4.94,3.53 4.94,6.72 v 2.84 h -1.25 v -2.73 c 0,-3.69 -1.5,-5.58 -3.34,-5.58 -3.33,0 -3.33,4.53 -3.33,5.38 z"
           inkscape:connector-curvature="0"
           style="fill:#000000;stroke-width:0" /></g>    </g>
    <path
       sodipodi:nodetypes="cc"
       inkscape:connector-curvature="0"
       id="path13288-6-3"
       d="m 31.314725,299.79853 259.104135,0"
       style="fill:#000000;stroke:#000000;stroke-width:3;stroke-miterlimit:4;stroke-dasharray:3, 9;stroke-dashoffset:0" />
    <path
       sodipodi:nodetypes="cc"
       inkscape:connector-curvature="0"
       id="path13288-6-3-3"
       d="m 34.092648,85.646194 259.104132,0"
       style="fill:#000000;stroke:#000000;stroke-width:3;stroke-miterlimit:4;stroke-dasharray:3, 9;stroke-dashoffset:0" />
    <path
       sodipodi:nodetypes="cc"
       inkscape:connector-curvature="0"
       id="path13288-7-2-7"
       d="m 96.320179,85.646198 195.053371,0"
       style="fill:#000000;stroke:#000000;stroke-width:3;stroke-miterlimit:4;stroke-dasharray:none;stroke-dashoffset:0" />
    <path
       sodipodi:nodetypes="cc"
       inkscape:connector-curvature="0"
       id="path13288-7-2-7-1"
       d="m 98.947986,294.74777 195.053374,0"
       style="fill:#000000;stroke:#000000;stroke-width:3;stroke-miterlimit:4;stroke-dasharray:none;stroke-dashoffset:0;opacity:0" />
    <path
       sodipodi:nodetypes="cc"
       inkscape:connector-curvature="0"
       id="path13288-7-2-7-8"
       d="m 96.401888,299.71934 195.053372,0"
       style="fill:#000000;stroke:#000000;stroke-width:3;stroke-miterlimit:4;stroke-dasharray:none;stroke-dashoffset:0" />
    <path
       style="opacity:0;fill:#ff0000;stroke:none"
       d="m 101.46314,296.94654 c 3.23677,-3.49133 11.96658,-9.09827 18.54439,-11.91061 12.92628,-5.52662 25.64796,-8.07204 42.32143,-8.46787 9.95191,-0.23627 17.0711,0.14731 28.14153,1.51625 20.47584,2.53198 36.40385,1.81685 51.75847,-2.32383 16.68287,-4.49886 30.57487,-12.57858 41.83487,-24.33155 l 4.15799,-4.34004 0,25.39579 0,25.39578 -93.81225,0 -93.81226,0 0.86583,-0.93392 z"
       id="path14916"
       inkscape:connector-curvature="0" />
    <path
       style="opacity:0;fill:#ff0000;stroke:none"
       d="m 101.46314,296.94654 c 3.23677,-3.49133 11.96658,-9.09827 18.54439,-11.91061 12.92628,-5.52662 25.64796,-8.07204 42.32143,-8.46787 9.95191,-0.23627 17.0711,0.14731 28.14153,1.51625 20.47584,2.53198 36.40385,1.81685 51.75847,-2.32383 16.68287,-4.49886 30.57487,-12.57858 41.83487,-24.33155 l 4.15799,-4.34004 0,25.39579 0,25.39578 -93.81225,0 -93.81226,0 0.86583,-0.93392 z"
       id="path14918"
       inkscape:connector-curvature="0" />
    <path
       style="opacity:0;fill:#ff0000;stroke:none"
       d="m 101.46314,296.94654 c 3.23677,-3.49133 11.96658,-9.09827 18.54439,-11.91061 12.92628,-5.52662 25.64796,-8.07204 42.32143,-8.46787 9.95191,-0.23627 17.0711,0.14731 28.14153,1.51625 20.47584,2.53198 36.40385,1.81685 51.75847,-2.32383 16.68287,-4.49886 30.57487,-12.57858 41.83487,-24.33155 l 4.15799,-4.34004 0,25.39579 0,25.39578 -93.81225,0 -93.81226,0 0.86583,-0.93392 z"
       id="path14920"
       inkscape:connector-curvature="0" />
    <path
       style="opacity:0;fill:#ff0000;stroke:none"
       d="m 97.530213,131.00546 -0.02268,-43.83929 30.446427,0.01845 30.44643,0.01845 -3.75,1.345482 c -14.36391,5.153702 -25.42175,13.976356 -34.97257,27.903336 -9.32878,13.60321 -16.62203,32.22488 -21.261232,54.28572 l -0.863695,4.10714 -0.02268,-43.83928 z"
       id="path14922"
       inkscape:connector-curvature="0" />
    <path
       style="opacity:0;fill:#ff0000;stroke:none"
       d="m 263.4485,149.29558 c -8.52937,-1.33675 -17.19416,-5.13629 -26.29811,-11.53181 -7.55445,-5.307 -12.92822,-11.55516 -21.40105,-24.88331 -6.52098,-10.25782 -8.33126,-12.76928 -12.52416,-17.375241 -2.74059,-3.010567 -5.43671,-5.274746 -8.39622,-7.051058 l -2.14285,-1.286154 47.76785,-9.19e-4 47.76786,-9.18e-4 0,29.05427 0,29.05427 -2.41071,1.08817 c -2.59472,1.17123 -4.04692,1.67083 -7.18916,2.47328 -2.43706,0.62236 -12.23992,0.91917 -15.17345,0.45942 z"
       id="path14924"
       inkscape:connector-curvature="0" />
    <path
       style="opacity:0;fill:#ff0000;stroke:none"
       d="m 101.46314,296.94654 c 3.23677,-3.49133 11.96658,-9.09827 18.54439,-11.91061 12.92628,-5.52662 25.64796,-8.07204 42.32143,-8.46787 9.95191,-0.23627 17.0711,0.14731 28.14153,1.51625 20.47584,2.53198 36.40385,1.81685 51.75847,-2.32383 16.68287,-4.49886 30.57487,-12.57858 41.83487,-24.33155 l 4.15799,-4.34004 0,25.39579 0,25.39578 -93.81225,0 -93.81226,0 0.86583,-0.93392 z"
       id="path14926"
       inkscape:connector-curvature="0" />
    <path
       style="opacity:0;fill:#ff0000;stroke:none"
       d="m 101.46314,296.94654 c 3.23677,-3.49133 11.96658,-9.09827 18.54439,-11.91061 12.92628,-5.52662 25.64796,-8.07204 42.32143,-8.46787 9.95191,-0.23627 17.0711,0.14731 28.14153,1.51625 20.47584,2.53198 36.40385,1.81685 51.75847,-2.32383 16.68287,-4.49886 30.57487,-12.57858 41.83487,-24.33155 l 4.15799,-4.34004 0,25.39579 0,25.39578 -93.81225,0 -93.81226,0 0.86583,-0.93392 z"
       id="path14928"
       inkscape:connector-curvature="0" />
    <path
       style="opacity:0;fill:#ff0000;stroke:none"
       d="m 97.530213,131.00546 -0.02268,-43.83929 30.446427,0.01845 30.44643,0.01845 -3.75,1.345482 c -14.36391,5.153702 -25.42175,13.976356 -34.97257,27.903336 -9.32878,13.60321 -16.62203,32.22488 -21.261232,54.28572 l -0.863695,4.10714 -0.02268,-43.83928 z"
       id="path14930"
       inkscape:connector-curvature="0" />
    <path
       style="opacity:0;fill:#ff0000;stroke:none"
       d="m 98.454664,289.43204 c -0.390563,-6.38326 -0.263678,-91.91577 0.144809,-97.61433 0.80501,-11.23021 5.790437,-32.3467 10.870567,-46.04389 8.24357,-22.2265 18.67458,-36.86979 33.21607,-46.629455 3.51523,-2.359285 10.3312,-5.622925 15.23275,-7.293792 17.4461,-5.94711 30.29031,-4.674031 39.46201,3.911356 4.26902,3.996111 7.09747,7.627991 15.13955,19.439951 11.17785,16.4177 15.41629,21.17475 23.91569,26.84202 7.26639,4.84513 14.73771,8.18967 21.78571,9.75237 8.28715,1.83746 14.40939,1.69458 23.14726,-0.54018 2.81134,-0.71902 5.18982,-1.22903 5.2855,-1.13335 0.6548,0.65481 0.841,11.44529 0.84661,49.063 l 0.006,42.55527 -2.97443,3.33758 c -9.29964,10.43501 -21.38919,18.64791 -35.3982,24.04735 -11.4216,4.40218 -17.97143,5.50659 -34.30594,5.78455 -9.80355,0.16683 -12.56424,0.0769 -24.10714,-0.78507 -14.58526,-1.0892 -32.47538,-1.33492 -40.71429,-0.55923 -11.33012,1.06672 -24.87906,4.85054 -35.30532,9.85973 -4.95722,2.38164 -7.37947,3.83038 -12.04845,7.20611 -1.98208,1.43306 -3.685333,2.60557 -3.785014,2.60557 -0.09968,0 -0.286017,-1.7125 -0.414082,-3.80556 z m 91.658796,-75.9495 c 5.47099,-1.84574 11.01623,-6.63878 13.71208,-11.85208 2.0998,-4.06065 2.7095,-6.71284 2.54992,-11.09211 -0.1159,-3.18066 -0.2631,-3.86065 -1.2851,-5.93663 -1.42169,-2.88786 -3.57727,-4.93138 -6.36182,-6.03109 -2.04724,-0.80852 -2.45475,-0.83537 -12.92977,-0.85179 -9.23807,-0.0145 -10.86537,0.0612 -11.15491,0.51876 -0.598,0.94501 -0.16418,1.24604 2.05878,1.42857 1.1961,0.0982 2.30135,0.30537 2.4561,0.46034 0.283,0.28339 -6.79266,29.45533 -7.46803,30.78966 -0.54324,1.07329 -0.96253,1.23856 -3.1573,1.24453 -2.1329,0.006 -3.0769,0.58465 -2.67243,1.63869 0.19603,0.51086 1.39233,0.55459 11.37924,0.41598 9.03434,-0.12539 11.48648,-0.26498 12.87324,-0.73283 l 0,0 z"
       id="path14932"
       inkscape:connector-curvature="0" />
    <path
       style="opacity:0;fill:#ff0000;stroke:none"
       d="m 101.46314,296.94654 c 3.23677,-3.49133 11.96658,-9.09827 18.54439,-11.91061 12.92628,-5.52662 25.64796,-8.07204 42.32143,-8.46787 9.95191,-0.23627 17.0711,0.14731 28.14153,1.51625 20.47584,2.53198 36.40385,1.81685 51.75847,-2.32383 16.68287,-4.49886 30.57487,-12.57858 41.83487,-24.33155 l 4.15799,-4.34004 0,25.39579 0,25.39578 -93.81225,0 -93.81226,0 0.86583,-0.93392 z"
       id="path14934"
       inkscape:connector-curvature="0" />
    <path
       style="opacity:0;fill:#ff0000;stroke:none"
       d="m 97.530213,131.00546 -0.02268,-43.83929 30.446427,0.01845 30.44643,0.01845 -3.75,1.345482 c -14.36391,5.153702 -25.42175,13.976356 -34.97257,27.903336 -9.32878,13.60321 -16.62203,32.22488 -21.261232,54.28572 l -0.863695,4.10714 -0.02268,-43.83928 z"
       id="path14936"
       inkscape:connector-curvature="0" />
    <path
       style="opacity:0;fill:#ff0000;stroke:none"
       d="m 165.71022,67.969742 c -0.95097,-1.200918 -0.82967,-3.356595 0.40986,-7.284075 1.65911,-5.256918 5.70719,-7.188571 6.89307,-3.289217 0.3687,1.212366 -1.53636,8.237998 -2.56544,9.460983 -0.93197,1.107583 -2.54918,2.094452 -3.43223,2.094452 -0.29014,0 -0.87751,-0.441965 -1.30526,-0.982143 z"
       id="path14938"
       inkscape:connector-curvature="0" />
    <path
       style="opacity:0;fill:#ff0000;stroke:none"
       d="m 165.71022,67.969742 c -0.95097,-1.200918 -0.82967,-3.356595 0.40986,-7.284075 1.65911,-5.256918 5.70719,-7.188571 6.89307,-3.289217 0.3687,1.212366 -1.53636,8.237998 -2.56544,9.460983 -0.93197,1.107583 -2.54918,2.094452 -3.43223,2.094452 -0.29014,0 -0.87751,-0.441965 -1.30526,-0.982143 z"
       id="path14940"
       inkscape:connector-curvature="0" />
    <path
       style="opacity:0;fill:#ff0000;stroke:none"
       d="m 101.46314,296.94654 c 3.23677,-3.49133 11.96658,-9.09827 18.54439,-11.91061 12.92628,-5.52662 25.64796,-8.07204 42.32143,-8.46787 9.95191,-0.23627 17.0711,0.14731 28.14153,1.51625 20.47584,2.53198 36.40385,1.81685 51.75847,-2.32383 16.68287,-4.49886 30.57487,-12.57858 41.83487,-24.33155 l 4.15799,-4.34004 0,25.39579 0,25.39578 -93.81225,0 -93.81226,0 0.86583,-0.93392 z"
       id="path14942"
       inkscape:connector-curvature="0" />
    <path
       style="opacity:0;fill:#ff0000;stroke:none"
       d="m 98.517489,293.18119 c -0.495394,-1.84332 -0.625115,-93.5723 -0.141489,-100.05053 0.541005,-7.24682 0.932365,-9.75537 2.9809,-19.10714 3.18688,-14.54838 6.86179,-26.29656 11.69168,-37.37668 l 1.64949,-3.78404 55.44453,0 55.44452,0 2.36049,2.27679 c 3.51083,3.38633 7.45136,6.35024 12.18104,9.16209 9.65935,5.74258 19.54838,8.73969 28.83677,8.73969 4.54861,0 7.74917,-0.54663 14.8454,-2.53546 1.9797,-0.55485 2.69022,-0.68868 2.84332,-0.53557 0.88986,0.88986 1.05952,10.20381 0.99763,54.76746 l -0.0516,37.14286 -60.625,0.0896 -60.625,0.0895 60.41226,0.089 60.41226,0.089 -2.83827,3.21429 c -3.78788,4.28968 -6.81731,7.16032 -10.75411,10.19047 -8.66828,6.67195 -20.12656,12.5691 -30.80357,15.85344 -8.42518,2.59166 -17.53573,3.6779 -30.89286,3.68332 -7.34482,0.003 -10.73965,-0.14892 -19.95509,-0.89284 -17.54998,-1.41674 -30.84352,-1.61204 -41.87369,-0.61518 -12.21919,1.10431 -26.2881,5.1833 -37.45378,10.85893 -3.56259,1.8109 -6.35995,3.55726 -10.11343,6.31372 -1.60899,1.1816 -3.136355,2.28258 -3.394143,2.44663 -0.453458,0.28857 -0.47227,0.28501 -0.578268,-0.10939 l 0,0 z m 89.171971,-79.31681 c 4.07131,-0.66269 7.86483,-2.65709 11.22831,-5.90316 3.52893,-3.40573 5.74103,-7.13046 6.92702,-11.66368 0.56235,-2.1495 0.75603,-5.77093 0.42038,-7.86055 -0.6799,-4.23289 -3.03382,-7.62131 -6.47172,-9.31589 -2.51148,-1.23795 -2.67007,-1.25171 -14.46378,-1.2552 -10.18491,-0.003 -10.49007,0.007 -10.66964,0.34231 -0.227,0.42416 -0.2307,0.73416 -0.0129,1.07864 0.12455,0.19694 0.68596,0.28798 2.22701,0.36111 1.56792,0.0744 2.12985,0.16716 2.35069,0.38801 0.26792,0.26791 0.007,1.43429 -3.39517,15.1746 -2.02697,8.18641 -3.81111,15.2276 -3.96475,15.64711 -0.39601,1.08123 -0.95287,1.31741 -3.36322,1.42641 -1.08514,0.0491 -2.1136,0.16201 -2.28548,0.25097 -0.36765,0.19028 -0.43672,1.31929 -0.0893,1.45948 0.12276,0.0495 4.68303,0.0961 10.13392,0.10349 7.64119,0.0103 10.2583,-0.0432 11.42858,-0.23365 l -1e-5,0 z"
       id="path14944"
       inkscape:connector-curvature="0" />
    <path
       style="opacity:0;fill:#ff0000;stroke:none"
       d="m 100.55622,297.57793 c 1.58222,-1.6507 5.30381,-4.6206 8.33213,-6.64919 14.70882,-9.85309 36.25629,-15.1232 59.71698,-14.60568 7.99204,0.1763 12.7553,0.54353 22.3877,1.72601 7.65751,0.94003 10.7251,1.20484 16.36422,1.41263 19.3379,0.71256 37.04309,-2.78627 52.38579,-10.35227 7.16196,-3.5318 13.46381,-7.74064 19.28571,-12.88042 2.96014,-2.61333 6.94398,-6.72014 9.3138,-9.60133 0.0337,-0.0409 0.0612,11.5506 0.0612,25.75893 l 0,25.83334 -94.23146,0 -94.231458,0 0.615388,-0.64202 z"
       id="path14946"
       inkscape:connector-curvature="0" />
    <path
       style="opacity:0;fill:#ff0000;stroke:none"
       d="m 100.55622,297.57793 c 1.58222,-1.6507 5.30381,-4.6206 8.33213,-6.64919 14.70882,-9.85309 36.25629,-15.1232 59.71698,-14.60568 7.99204,0.1763 12.7553,0.54353 22.3877,1.72601 7.65751,0.94003 10.7251,1.20484 16.36422,1.41263 19.3379,0.71256 37.04309,-2.78627 52.38579,-10.35227 7.16196,-3.5318 13.46381,-7.74064 19.28571,-12.88042 2.96014,-2.61333 6.94398,-6.72014 9.3138,-9.60133 0.0337,-0.0409 0.0612,11.5506 0.0612,25.75893 l 0,25.83334 -94.23146,0 -94.231458,0 0.615388,-0.64202 z"
       id="path14948"
       inkscape:connector-curvature="0" />
    <path
       style="opacity:0;fill:#ff0000;stroke:none"
       d="m 97.530699,131.38959 -0.01981,-44.241073 30.669639,0.0096 30.66965,0.0096 -3.21429,1.120932 c -4.20923,1.467904 -5.22771,1.880684 -8.21428,3.329178 -12.43944,6.033147 -22.7994,16.199499 -31.47608,30.887839 -7.91139,13.39281 -14.25808,31.44024 -18.054352,51.33929 -0.339287,1.77845 -0.340753,1.60582 -0.360479,-42.45536 z"
       id="path14950"
       inkscape:connector-curvature="0" />
    <path
       style="opacity:0;fill:#ff0000;stroke:none"
       d="m 266.17161,149.72198 c -0.29465,-0.0408 -1.5,-0.20383 -2.67857,-0.36241 -7.41672,-0.99794 -15.63237,-4.30226 -23.53177,-9.46443 -8.4137,-5.49827 -13.70799,-10.89002 -20.11063,-20.48083 -0.90557,-1.35649 -3.13761,-4.81185 -4.96009,-7.67857 -6.18554,-9.7297 -9.0743,-13.63751 -12.9008,-17.451733 -2.93806,-2.928638 -5.21956,-4.662556 -8.4577,-6.427777 l -1.28902,-0.70269 48.08036,-0.0025 48.08036,-0.0025 0,29.079213 0,29.07921 -1.91964,0.90553 c -5.15625,2.43227 -9.67106,3.43102 -15.9375,3.52563 -2.11161,0.0319 -4.08036,0.0246 -4.375,-0.0161 l 0,1e-5 z"
       id="path14952"
       inkscape:connector-curvature="0" />
    <path
       style="opacity:0;fill:#ff0000;stroke:none"
       d="m 100.55622,297.57793 c 1.58222,-1.6507 5.30381,-4.6206 8.33213,-6.64919 14.70882,-9.85309 36.25629,-15.1232 59.71698,-14.60568 7.99204,0.1763 12.7553,0.54353 22.3877,1.72601 7.65751,0.94003 10.7251,1.20484 16.36422,1.41263 19.3379,0.71256 37.04309,-2.78627 52.38579,-10.35227 7.16196,-3.5318 13.46381,-7.74064 19.28571,-12.88042 2.96014,-2.61333 6.94398,-6.72014 9.3138,-9.60133 0.0337,-0.0409 0.0612,11.5506 0.0612,25.75893 l 0,25.83334 -94.23146,0 -94.231458,0 0.615388,-0.64202 z"
       id="path14954"
       inkscape:connector-curvature="0" />
    <path
       style="opacity:0;fill:#ff0000;stroke:none"
       d="m 98.517489,293.18119 c -0.495394,-1.84332 -0.625115,-93.5723 -0.141489,-100.05053 0.540872,-7.24503 0.931603,-9.74999 2.98039,-19.10714 2.54007,-11.60093 5.68495,-22.35041 9.14256,-31.25 l 1.04065,-2.67857 61.02476,-0.0449 61.02476,-0.0449 2.20876,1.51749 c 10.95621,7.52726 22.44945,11.51874 33.16754,11.51874 4.54861,0 7.74917,-0.54663 14.8454,-2.53546 1.9797,-0.55485 2.69022,-0.68868 2.84332,-0.53557 0.88986,0.88986 1.05952,10.20381 0.99763,54.76746 l -0.0516,37.14286 -60.625,0.0896 -60.625,0.0895 60.41226,0.089 60.41226,0.089 -2.83827,3.21429 c -3.78788,4.28968 -6.81731,7.16032 -10.75411,10.19047 -8.66828,6.67195 -20.12656,12.5691 -30.80357,15.85344 -8.42518,2.59166 -17.53573,3.6779 -30.89286,3.68332 -7.34482,0.003 -10.73965,-0.14892 -19.95509,-0.89284 -17.54998,-1.41674 -30.84352,-1.61204 -41.87369,-0.61518 -12.21919,1.10431 -26.2881,5.1833 -37.45378,10.85893 -3.56259,1.8109 -6.35995,3.55726 -10.11343,6.31372 -1.60899,1.1816 -3.136355,2.28258 -3.394143,2.44663 -0.453458,0.28857 -0.47227,0.28501 -0.578268,-0.10939 l 0,0 z m 89.171971,-79.31681 c 4.07131,-0.66269 7.86483,-2.65709 11.22831,-5.90316 3.52893,-3.40573 5.74103,-7.13046 6.92702,-11.66368 0.56235,-2.1495 0.75603,-5.77093 0.42038,-7.86055 -0.6799,-4.23289 -3.03382,-7.62131 -6.47172,-9.31589 -2.51148,-1.23795 -2.67007,-1.25171 -14.46378,-1.2552 -10.18491,-0.003 -10.49007,0.007 -10.66964,0.34231 -0.227,0.42416 -0.2307,0.73416 -0.0129,1.07864 0.12455,0.19694 0.68596,0.28798 2.22701,0.36111 1.56792,0.0744 2.12985,0.16716 2.35069,0.38801 0.26792,0.26791 0.007,1.43429 -3.39517,15.1746 -2.02697,8.18641 -3.81111,15.2276 -3.96475,15.64711 -0.39601,1.08123 -0.95287,1.31741 -3.36322,1.42641 -1.08514,0.0491 -2.1136,0.16201 -2.28548,0.25097 -0.36765,0.19028 -0.43672,1.31929 -0.0893,1.45948 0.12276,0.0495 4.68303,0.0961 10.13392,0.10349 7.64119,0.0103 10.2583,-0.0432 11.42858,-0.23365 l -1e-5,0 z"
       id="path14956"
       inkscape:connector-curvature="0" />
    <path
       style="opacity:0;fill:#ff0000;stroke:none"
       d="m 100.55622,297.57793 c 1.58222,-1.6507 5.30381,-4.6206 8.33213,-6.64919 14.70882,-9.85309 36.25629,-15.1232 59.71698,-14.60568 7.99204,0.1763 12.7553,0.54353 22.3877,1.72601 7.65751,0.94003 10.7251,1.20484 16.36422,1.41263 19.3379,0.71256 37.04309,-2.78627 52.38579,-10.35227 7.16196,-3.5318 13.46381,-7.74064 19.28571,-12.88042 2.96014,-2.61333 6.94398,-6.72014 9.3138,-9.60133 0.0337,-0.0409 0.0612,11.5506 0.0612,25.75893 l 0,25.83334 -94.23146,0 -94.231458,0 0.615388,-0.64202 z"
       id="path14958"
       inkscape:connector-curvature="0" />
    <path
       style="opacity:0;fill:#ff0000;stroke:none"
       d="m 101.3201,297.38832 c 0,-0.79305 8.98574,-7.1075 13.69714,-9.62525 19.75418,-10.55652 43.44036,-13.18467 80.58858,-8.94189 35.10958,4.00994 65.1445,-4.74214 86.47426,-25.19834 l 6.1171,-5.86659 0.0493,24.97373 0.0492,24.97373 -93.4878,0 c -51.41829,0 -93.4878,-0.14193 -93.4878,-0.31539 z"
       id="path14979"
       inkscape:connector-curvature="0" />
    <path
       style="fill:#ff0000;stroke:none;stroke-width:2.14285706999999981;stroke-miterlimit:4;stroke-dasharray:2.14285715000000021, 4.28571430000000042;stroke-dashoffset:0"
       d="m 98.132244,128.95371 -0.02643,-41.249998 28.750006,0.0087 28.75,0.0087 -5.65214,2.467449 C 126.67674,100.35019 110.20672,123.94259 100.577,160.918 l -2.41833,9.28571 -0.02643,-41.25 0,0 z"
       id="path15515"
       inkscape:connector-curvature="0" />
    <path
       style="fill:#ff0000;stroke:none"
       d="m 264.1605,149.1409 c -12.54129,-1.84352 -26.05423,-9.17702 -35.64672,-19.34556 -2.53308,-2.68521 -8.35169,-10.57296 -12.93022,-17.52834 -8.37345,-12.720317 -13.32807,-18.760495 -18.47777,-22.526213 l -2.78574,-2.037075 46.89288,0 46.89289,0 0,28.841478 0,28.84149 -4.10714,1.50193 c -4.05427,1.4826 -12.04408,3.02621 -14.82143,2.86345 -0.78572,-0.046 -3.04325,-0.32106 -5.01675,-0.61116 l 0,0 z"
       id="path15517"
       inkscape:connector-curvature="0" />
    <path
       style="fill:#ff0000;stroke:none"
       d="m 101.35582,297.13227 c 14.83366,-12.49185 31.37903,-18.47474 55.53763,-20.08267 10.40511,-0.69254 21.12623,-0.19981 38.35523,1.76276 35.93845,4.09378 67.0009,-5.22595 88.25396,-26.47902 l 4.60318,-4.60317 0,24.98677 0,24.98677 -93.71429,0 c -51.54285,0 -93.40893,-0.25715 -93.03571,-0.57144 z"
       id="path15519"
       inkscape:connector-curvature="0" />
    <g
       transform="matrix(0.62273127,0,0,0.62273127,145.69955,-149.24563)"
       id="g15604">
      <g
         style="font-style:normal;font-variant:normal;font-weight:normal;font-stretch:normal;letter-spacing:normal;word-spacing:normal;text-anchor:start;fill:none;stroke:#000000;stroke-linecap:butt;stroke-linejoin:miter;stroke-miterlimit:10.43299961;stroke-opacity:1;stroke-dasharray:none;stroke-dashoffset:0"
         id="g15606"
         transform="matrix(1.0629921,0,0,-1.0629921,-186.02362,789.27165)"
         xml:space="preserve"
         stroke-miterlimit="10.433"
         font-style="normal"
         font-variant="normal"
         font-weight="normal"
         font-stretch="normal"
         font-size-adjust="none"
         letter-spacing="normal"
         word-spacing="normal"><polygon
           style="fill:#000000;stroke-width:0"
           points="484.51,446.19 485.4,447.08 478.77,453.86 472.1,447.08 472.99,446.19 478.77,451.27 "
           id="polygon15608" /><path
           style="fill:#000000;stroke-width:0"
           inkscape:connector-curvature="0"
           d="m 473.8,426.12 h 4.28 c 1,0 1.5,0 1.5,1 0,0.55 -0.5,0.55 -1.34,0.55 h -4.14 l 1.04,5.69 c 0.21,1.04 0.91,4.57 1.21,5.17 0.45,0.95 1.29,1.7 2.34,1.7 0.19,0 1.49,0 2.44,-0.91 -2.19,-0.18 -2.69,-1.93 -2.69,-2.68 0,-1.14 0.89,-1.74 1.85,-1.74 1.29,0 2.73,1.1 2.73,2.99 0,2.29 -2.3,3.43 -4.33,3.43 -1.7,0 -4.84,-0.89 -6.33,-5.82 -0.29,-1.05 -0.45,-1.55 -1.64,-7.83 h -3.43 c -0.96,0 -1.5,0 -1.5,-0.94 0,-0.61 0.45,-0.61 1.39,-0.61 h 3.29 l -3.75,-19.67 c -0.89,-4.83 -1.73,-9.38 -4.33,-9.38 -0.2,0 -1.43,0 -2.39,0.91 2.3,0.14 2.74,1.94 2.74,2.69 0,1.14 -0.89,1.75 -1.85,1.75 -1.29,0 -2.73,-1.1 -2.73,-3 0,-2.24 2.19,-3.44 4.23,-3.44 2.74,0 4.74,2.94 5.63,4.84 1.59,3.14 2.75,9.16 2.8,9.52 z"
           id="path15610" /><path
           style="fill:#000000;stroke-width:0"
           inkscape:connector-curvature="0"
           d="m 533.43,422.5 0.14,0 0.15,0 0.14,0 0.07,0.01 0.08,0 0.07,0.01 0.07,0.01 0.07,0.01 0.07,0.01 0.07,0.01 0.06,0.02 0.07,0.02 0.06,0.02 0.06,0.02 0.06,0.03 0.06,0.03 0.05,0.04 0.05,0.03 0.05,0.05 0.04,0.04 0.04,0.05 0.02,0.03 0.02,0.03 0.01,0.02 0.02,0.03 0.01,0.03 0.02,0.04 0.01,0.03 0.01,0.04 0.01,0.03 0.01,0.04 0,0.04 0.01,0.04 0,0.04 0.01,0.04 0,0.04 0,0.05 c 0,1 -0.95,1 -1.64,1 h -29.84 c -0.71,0 -1.64,0 -1.64,-1 0,-0.98 0.93,-0.98 1.68,-0.98 z"
           id="path15612" /><path
           style="fill:#000000;stroke-width:0"
           inkscape:connector-curvature="0"
           d="m 533.48,412.82 0.07,0 0.06,0 0.14,0.01 0.14,0 0.07,0 0.07,0.01 0.07,0.01 0.07,0 0.06,0.01 0.07,0.02 0.07,0.01 0.06,0.02 0.07,0.02 0.06,0.02 0.06,0.02 0.06,0.03 0.05,0.03 0.05,0.04 0.05,0.04 0.05,0.04 0.04,0.05 0.02,0.02 0.02,0.03 0.02,0.02 0.02,0.03 0.01,0.03 0.02,0.03 0.01,0.03 0.02,0.03 0.01,0.04 0.01,0.03 0.01,0.04 0.01,0.04 0,0.04 0.01,0.04 0,0.04 0.01,0.04 0,0.05 0,0.04 c 0,1 -0.95,1 -1.69,1 h -29.75 c -0.75,0 -1.68,0 -1.68,-1 0,-1 0.93,-1 1.64,-1 z"
           id="path15614" /><path
           style="fill:#000000;stroke-width:0"
           inkscape:connector-curvature="0"
           d="m 574.68,422.14 0,0.74 -0.01,0.75 -0.02,0.75 -0.04,0.74 -0.04,0.75 -0.06,0.74 -0.08,0.74 -0.09,0.73 -0.12,0.73 -0.14,0.73 -0.16,0.72 -0.19,0.72 -0.22,0.72 -0.24,0.7 -0.28,0.7 -0.15,0.35 -0.16,0.34 c -2.28,4.8 -6.38,5.6 -8.47,5.6 -2.98,0 -6.62,-1.3 -8.67,-5.94 -1.59,-3.44 -1.84,-7.33 -1.84,-11.31 0,-3.74 0.2,-8.22 2.25,-12 2.14,-4.03 5.78,-5.03 8.21,-5.03 v 1.09 c -1.93,0 -4.89,1.25 -5.78,6.03 -0.54,2.98 -0.54,7.56 -0.54,10.52 0,3.18 0,6.46 0.4,9.15 0.94,5.94 4.67,6.38 5.92,6.38 1.64,0 4.94,-0.89 5.88,-5.83 0.5,-2.78 0.5,-6.58 0.5,-9.7 0,-3.75 0,-7.13 -0.55,-10.32 -0.75,-4.73 -3.59,-6.23 -5.83,-6.23 h 0 v -1.09 c 2.69,0 6.47,1.04 8.68,5.78 1.59,3.43 1.84,7.31 1.84,11.25 z"
           id="path15616" /></g>    </g>
    <g
       id="g15796"
       transform="matrix(0.62273127,0,0,0.62273127,184.38327,-3.8514427)">
      <g
         word-spacing="normal"
         letter-spacing="normal"
         font-size-adjust="none"
         font-stretch="normal"
         font-weight="normal"
         font-variant="normal"
         font-style="normal"
         stroke-miterlimit="10.433"
         xml:space="preserve"
         transform="matrix(1.0629921,0,0,-1.0629921,-186.02362,789.27165)"
         id="g15798"
         style="font-style:normal;font-variant:normal;font-weight:normal;font-stretch:normal;letter-spacing:normal;word-spacing:normal;text-anchor:start;fill:none;stroke:#000000;stroke-linecap:butt;stroke-linejoin:miter;stroke-miterlimit:10.43299961;stroke-opacity:1;stroke-dasharray:none;stroke-dashoffset:0"><polygon
           id="polygon15800"
           points="484.51,446.19 485.4,447.08 478.77,453.86 472.1,447.08 472.99,446.19 478.77,451.27 "
           style="fill:#000000;stroke-width:0" /><path
           id="path15802"
           d="m 473.8,426.12 h 4.28 c 1,0 1.5,0 1.5,1 0,0.55 -0.5,0.55 -1.34,0.55 h -4.14 l 1.04,5.69 c 0.21,1.04 0.91,4.57 1.21,5.17 0.45,0.95 1.29,1.7 2.34,1.7 0.19,0 1.49,0 2.44,-0.91 -2.19,-0.18 -2.69,-1.93 -2.69,-2.68 0,-1.14 0.89,-1.74 1.85,-1.74 1.29,0 2.73,1.1 2.73,2.99 0,2.29 -2.3,3.43 -4.33,3.43 -1.7,0 -4.84,-0.89 -6.33,-5.82 -0.29,-1.05 -0.45,-1.55 -1.64,-7.83 h -3.43 c -0.96,0 -1.5,0 -1.5,-0.94 0,-0.61 0.45,-0.61 1.39,-0.61 h 3.29 l -3.75,-19.67 c -0.89,-4.83 -1.73,-9.38 -4.33,-9.38 -0.2,0 -1.43,0 -2.39,0.91 2.3,0.14 2.74,1.94 2.74,2.69 0,1.14 -0.89,1.75 -1.85,1.75 -1.29,0 -2.73,-1.1 -2.73,-3 0,-2.24 2.19,-3.44 4.23,-3.44 2.74,0 4.74,2.94 5.63,4.84 1.59,3.14 2.75,9.16 2.8,9.52 z"
           inkscape:connector-curvature="0"
           style="fill:#000000;stroke-width:0" /><path
           id="path15804"
           d="m 533.43,422.5 0.14,0 0.15,0 0.14,0 0.07,0.01 0.08,0 0.07,0.01 0.07,0.01 0.07,0.01 0.07,0.01 0.07,0.01 0.06,0.02 0.07,0.02 0.06,0.02 0.06,0.02 0.06,0.03 0.06,0.03 0.05,0.04 0.05,0.03 0.05,0.05 0.04,0.04 0.04,0.05 0.02,0.03 0.02,0.03 0.01,0.02 0.02,0.03 0.01,0.03 0.02,0.04 0.01,0.03 0.01,0.04 0.01,0.03 0.01,0.04 0,0.04 0.01,0.04 0,0.04 0.01,0.04 0,0.04 0,0.05 c 0,1 -0.95,1 -1.64,1 h -29.84 c -0.71,0 -1.64,0 -1.64,-1 0,-0.98 0.93,-0.98 1.68,-0.98 z"
           inkscape:connector-curvature="0"
           style="fill:#000000;stroke-width:0" /><path
           id="path15806"
           d="m 533.48,412.82 0.07,0 0.06,0 0.14,0.01 0.14,0 0.07,0 0.07,0.01 0.07,0.01 0.07,0 0.06,0.01 0.07,0.02 0.07,0.01 0.06,0.02 0.07,0.02 0.06,0.02 0.06,0.02 0.06,0.03 0.05,0.03 0.05,0.04 0.05,0.04 0.05,0.04 0.04,0.05 0.02,0.02 0.02,0.03 0.02,0.02 0.02,0.03 0.01,0.03 0.02,0.03 0.01,0.03 0.02,0.03 0.01,0.04 0.01,0.03 0.01,0.04 0.01,0.04 0,0.04 0.01,0.04 0,0.04 0.01,0.04 0,0.05 0,0.04 c 0,1 -0.95,1 -1.69,1 h -29.75 c -0.75,0 -1.68,0 -1.68,-1 0,-1 0.93,-1 1.64,-1 z"
           inkscape:connector-curvature="0"
           style="fill:#000000;stroke-width:0" /><path
           id="path15808"
           d="m 570.04,426.12 h 4.28 c 1,0 1.5,0 1.5,1 0,0.55 -0.5,0.55 -1.34,0.55 h -4.14 l 1.04,5.69 c 0.21,1.04 0.91,4.57 1.21,5.17 0.45,0.95 1.29,1.7 2.34,1.7 0.19,0 1.48,0 2.44,-0.91 -2.19,-0.18 -2.69,-1.93 -2.69,-2.68 0,-1.14 0.89,-1.74 1.84,-1.74 1.3,0 2.74,1.1 2.74,2.99 0,2.29 -2.3,3.43 -4.33,3.43 -1.7,0 -4.84,-0.89 -6.33,-5.82 -0.3,-1.05 -0.45,-1.55 -1.64,-7.83 h -3.44 c -0.95,0 -1.5,0 -1.5,-0.94 0,-0.61 0.46,-0.61 1.39,-0.61 h 3.3 l -3.75,-19.67 c -0.89,-4.83 -1.73,-9.38 -4.33,-9.38 -0.2,0 -1.43,0 -2.39,0.91 2.3,0.14 2.74,1.94 2.74,2.69 0,1.14 -0.89,1.75 -1.85,1.75 -1.29,0 -2.73,-1.1 -2.73,-3 0,-2.24 2.19,-3.44 4.23,-3.44 2.74,0 4.74,2.94 5.63,4.84 1.59,3.14 2.75,9.16 2.79,9.52 z"
           inkscape:connector-curvature="0"
           style="fill:#000000;stroke-width:0" /></g>    </g>
    <path
       style="fill:none;stroke:#000000;stroke-width:2;stroke-miterlimit:4;stroke-dasharray:none;marker-end:url(#marker13256)"
       d="M 322.14286,71.489447 C 260.71428,70.775156 263.39285,82.382303 257.14285,105.77515"
       id="path15905"
       inkscape:connector-curvature="0"
       sodipodi:nodetypes="cc" />
    <path
       style="fill:none;stroke:#000000;stroke-width:2;stroke-miterlimit:4;stroke-dasharray:none;marker-end:url(#marker13256)"
       d="m 363.12212,213.69801 c -61.42858,0.71429 -63.80078,7.79497 -89.74875,-3.47605"
       id="path15905-3"
       inkscape:connector-curvature="0"
       sodipodi:nodetypes="cc" />
    <path
       style="fill:none;stroke:#000000;stroke-width:2;stroke-miterlimit:4;stroke-dasharray:none;stroke-dashoffset:0"
       d="m 240,85.219322 0,212.857148"
       id="path16501"
       inkscape:connector-curvature="0" />
    <g
       transform="translate(-195.34557,300.35833)"
       id="g13194"
       style="stroke:#0000ff;fill:#0000ff">
      <path
         id="path12433"
         d="m 317.09036,-51.659477 -0.10352,0 -0.10352,0 -0.0966,0.0069 -0.10353,0 -0.0966,0.0069 -0.0966,0.0138 -0.0483,0.0069 -0.0414,0.0069 -0.0483,0.0138 -0.0483,0.0069 -0.0483,0.0138 -0.0483,0.0138 -0.0414,0.0138 -0.0483,0.0138 -0.0483,0.0207 -0.0483,0.0207 -0.0414,0.0207 -0.0483,0.02761 -0.0414,0.02761 -0.0483,0.02761 -0.0483,0.03451 -0.0414,0.02761 -0.0483,0.04141 -0.0483,0.03451 -0.0414,0.04141 -0.0483,0.04831 c -0.54522,0.51761 -0.61423,1.097333 -0.61423,1.331983 0,0.835077 0.61423,1.207757 1.27677,1.207757 0.98691,0 1.92551,-0.828177 1.92551,-2.194667 0,-1.683958 -1.61495,-2.953828 -4.06497,-2.953828 -4.63778,0 -9.20655,4.913845 -9.20655,9.758675 0,3.091857 1.99452,5.811035 5.56258,5.811035 4.92074,0 7.80556,-3.643975 7.80556,-4.058063 0,-0.200142 -0.20015,-0.448595 -0.40719,-0.448595 -0.17254,0 -0.23465,0.07592 -0.4555,0.345073 -2.71227,3.402424 -6.45977,3.402424 -6.86696,3.402424 -2.16706,0 -3.09185,-1.677057 -3.09185,-3.747497 0,-1.400998 0.67634,-4.748209 1.84959,-6.873861 1.06973,-1.960017 2.95383,-3.436931 4.84483,-3.436931 1.17325,0 2.47763,0.441694 2.96763,1.36649 z"
         inkscape:connector-curvature="0"
         style="font-style:normal;font-variant:normal;font-weight:normal;font-stretch:normal;letter-spacing:normal;word-spacing:normal;text-anchor:start;fill:#0000ff;stroke:#0000ff;stroke-width:0;stroke-linecap:butt;stroke-linejoin:miter;stroke-miterlimit:10.43299960999999954;stroke-opacity:1;stroke-dasharray:none;stroke-dashoffset:0" />
      <path
         id="path12435"
         d="m 329.74765,-30.340844 0,-0.0138 0,-0.0207 0,-0.0069 0,-0.0138 0,-0.0069 -0.007,-0.0138 0,-0.0069 -0.007,-0.0138 -0.007,-0.0138 -0.007,-0.0138 -0.007,-0.0138 -0.0138,-0.0207 -0.007,-0.0138 -0.0138,-0.0207 -0.0138,-0.0207 -0.0207,-0.0207 -0.0138,-0.0207 -0.0207,-0.02761 -0.0138,-0.0138 -0.007,-0.0138 -0.0138,-0.0138 -0.0138,-0.0138 -0.0138,-0.0138 -0.0138,-0.0207 -0.0138,-0.0138 -0.0138,-0.0138 -0.0138,-0.0207 -0.0207,-0.0138 -0.0138,-0.0207 -0.0207,-0.0207 -0.0207,-0.0207 -0.0138,-0.0207 -0.0207,-0.02071 -0.0207,-0.0207 -0.0207,-0.0207 -0.0207,-0.0207 -0.0276,-0.02761 -0.0207,-0.0207 -0.0276,-0.02761 -0.0207,-0.0207 -0.0276,-0.02761 -0.0276,-0.02761 c -4.29271,-4.334122 -5.39005,-10.828402 -5.39005,-16.08732 0,-5.983572 1.30438,-11.974046 5.52808,-16.259857 0.44169,-0.42099 0.44169,-0.490004 0.44169,-0.593526 0,-0.241552 -0.12422,-0.338172 -0.33127,-0.338172 -0.34507,0 -3.43693,2.332696 -5.46596,6.694423 -1.75987,3.788906 -2.16706,7.605417 -2.16706,10.497132 0,2.68467 0.37268,6.832452 2.26368,10.72488 2.05664,4.230599 5.02427,6.459773 5.36934,6.459773 0.20705,0 0.33127,-0.09662 0.33127,-0.345073 z"
         inkscape:connector-curvature="0"
         style="font-style:normal;font-variant:normal;font-weight:normal;font-stretch:normal;letter-spacing:normal;word-spacing:normal;text-anchor:start;fill:#0000ff;stroke:#0000ff;stroke-width:0;stroke-linecap:butt;stroke-linejoin:miter;stroke-miterlimit:10.43299960999999954;stroke-opacity:1;stroke-dasharray:none;stroke-dashoffset:0" />
      <path
         id="path12437"
         d="m 343.19171,-48.974806 0.0207,-0.08972 0.0207,-0.103522 0.0276,-0.110423 0.0345,-0.124227 0.0345,-0.131128 0.0414,-0.14493 0.0483,-0.151833 0.0483,-0.151832 0.0552,-0.158734 0.0621,-0.165635 0.0621,-0.172537 0.0759,-0.165635 0.0759,-0.172537 0.0828,-0.172536 0.0897,-0.172537 0.0897,-0.172537 0.10353,-0.165635 0.11042,-0.165635 0.11042,-0.158734 0.12423,-0.151832 0.13113,-0.151832 0.13803,-0.13803 0.14493,-0.131128 0.15183,-0.124226 0.15873,-0.110423 0.16564,-0.09662 0.0897,-0.04831 0.0897,-0.04141 0.0897,-0.03451 0.0966,-0.03451 0.0966,-0.03451 0.0966,-0.02761 0.10352,-0.0207 0.10352,-0.0207 0.10352,-0.0138 0.10353,-0.0138 0.11042,-0.0069 0.11042,0 c 0.17254,0 0.99381,0 1.71847,0.441694 -0.95931,0.172537 -1.64945,1.03522 -1.64945,1.856495 0,0.545215 0.37268,1.207756 1.30438,1.207756 0.75226,0 1.85649,-0.61423 1.85649,-1.994524 0,-1.794381 -2.02903,-2.263681 -3.19538,-2.263681 -1.99452,0 -3.20228,1.821987 -3.60947,2.608755 -0.86268,-2.263682 -2.71917,-2.608755 -3.71299,-2.608755 -3.58186,0 -5.54187,4.430742 -5.54187,5.293425 0,0.345074 0.34507,0.345074 0.42099,0.345074 0.26915,0 0.37958,-0.07592 0.44169,-0.379581 1.16635,-3.643975 3.43693,-4.506658 4.60328,-4.506658 0.65564,0 1.85649,0.303665 1.85649,2.298189 0,1.062825 -0.57972,3.374817 -1.85649,8.18514 -0.54522,2.132553 -1.74607,3.57496 -3.2644,3.57496 -0.20704,0 -0.99381,0 -1.71846,-0.448596 0.86268,-0.165635 1.62184,-0.883388 1.62184,-1.856494 0,-0.924797 -0.75916,-1.193954 -1.27677,-1.193954 -1.03522,0 -1.8979,0.890289 -1.8979,1.994524 0,1.573534 1.72537,2.263681 3.23679,2.263681 2.27748,0 3.50594,-2.408612 3.60946,-2.608755 0.41409,1.26987 1.65636,2.608755 3.71299,2.608755 3.54736,0 5.50737,-4.430742 5.50737,-5.293425 0,-0.345074 -0.31056,-0.345074 -0.41408,-0.345074 -0.30367,0 -0.37958,0.13803 -0.4486,0.37268 -1.13184,3.678482 -3.47144,4.506658 -4.56877,4.506658 -1.34579,0 -1.8979,-1.097334 -1.8979,-2.270583 0,-0.759161 0.20704,-1.511421 0.59352,-3.022843 z"
         inkscape:connector-curvature="0"
         style="font-style:normal;font-variant:normal;font-weight:normal;font-stretch:normal;letter-spacing:normal;word-spacing:normal;text-anchor:start;fill:#0000ff;stroke:#0000ff;stroke-width:0;stroke-linecap:butt;stroke-linejoin:miter;stroke-miterlimit:10.43299960999999954;stroke-opacity:1;stroke-dasharray:none;stroke-dashoffset:0" />
      <path
         id="path12439"
         d="m 361.25975,-47.180424 0,-0.255355 0,-0.269157 -0.007,-0.269157 -0.007,-0.28296 -0.0276,-0.579723 -0.0414,-0.60733 -0.0621,-0.634935 -0.069,-0.655639 -0.0966,-0.669442 -0.11042,-0.697048 -0.13803,-0.70395 -0.15873,-0.710851 -0.17944,-0.724654 -0.21395,-0.731556 -0.24155,-0.738457 -0.26915,-0.738457 -0.14493,-0.365778 -0.15874,-0.365777 -0.16563,-0.365778 -0.17254,-0.365778 c -2.05664,-4.223698 -5.01047,-6.459773 -5.35554,-6.459773 -0.20704,0 -0.34507,0.131128 -0.34507,0.338172 0,0.103522 0,0.172536 0.64183,0.793668 3.38172,3.395522 5.34174,8.868386 5.34174,16.059715 0,5.873148 -1.26987,11.925735 -5.54188,16.259856 -0.44169,0.407187 -0.44169,0.483103 -0.44169,0.579724 0,0.207044 0.13803,0.345073 0.34507,0.345073 0.34507,0 3.43003,-2.339597 5.46596,-6.701325 1.74607,-3.775102 2.15326,-7.591614 2.15326,-10.483328 z"
         inkscape:connector-curvature="0"
         style="font-style:normal;font-variant:normal;font-weight:normal;font-stretch:normal;letter-spacing:normal;word-spacing:normal;text-anchor:start;fill:#0000ff;stroke:#0000ff;stroke-width:0;stroke-linecap:butt;stroke-linejoin:miter;stroke-miterlimit:10.43299960999999954;stroke-opacity:1;stroke-dasharray:none;stroke-dashoffset:0" />
    </g>
    <g
       transform="translate(-236.59106,163.08632)"
       id="g13200"
       style="stroke:#0000ff;fill:#0000ff">
      <path
         id="path12441"
         d="m 393.91059,-62.073791 0,0 0,-0.0069 0,0 0,-0.0069 0,-0.0138 0,-0.0069 0,-0.0138 0,-0.0138 -0.007,-0.0138 0,-0.0138 -0.007,-0.0138 0,-0.0138 -0.007,-0.0138 -0.007,-0.0207 -0.007,-0.0138 -0.007,-0.0207 -0.0138,-0.0138 -0.007,-0.0207 -0.0138,-0.0138 -0.0138,-0.0138 -0.0138,-0.0207 -0.0138,-0.0069 -0.007,-0.0069 -0.007,-0.0069 -0.0138,-0.0069 -0.007,-0.0069 -0.0138,-0.0069 -0.007,-0.0069 -0.0138,-0.0069 -0.0138,-0.0069 -0.007,-0.0069 -0.0138,0 -0.0138,-0.0069 -0.0138,-0.0069 -0.0138,0 -0.0138,-0.0069 -0.0207,-0.0069 -0.0138,0 -0.0138,0 -0.0207,-0.0069 -0.0207,0 -0.0138,0 -0.0207,-0.0069 -0.0207,0 -0.0207,0 c -0.51761,0 -3.78201,0.317467 -4.36863,0.37958 -0.27606,0.03451 -0.4831,0.207044 -0.4831,0.65564 0,0.414088 0.31056,0.414088 0.82817,0.414088 1.64945,0 1.71847,0.23465 1.71847,0.579723 l -0.0966,0.690147 -2.07044,8.150633 c -0.61423,-1.26987 -1.62185,-2.194667 -3.16087,-2.194667 l 0.0345,0.75226 c 2.22918,0 2.71228,2.815799 2.71228,3.015941 0,0.220847 -0.0621,0.42099 -0.0966,0.593526 l -1.72537,6.742734 c -0.17253,0.61423 -0.17253,0.676344 -0.69014,1.26987 -1.51143,1.891002 -2.91933,2.436218 -3.87863,2.436218 -1.71846,0 -2.20157,-1.884101 -2.20157,-3.229887 0,-1.718465 1.09734,-5.942163 1.891,-7.529501 1.06283,-2.029031 2.61566,-3.298901 3.98905,-3.298901 l -0.0345,-0.75226 c -4.02356,0 -8.28176,5.044973 -8.28176,10.069241 0,3.236788 1.8841,5.500469 4.56877,5.500469 0.68324,0 2.40861,-0.144931 4.46525,-2.581149 0.28296,1.449308 1.47691,2.581149 3.12636,2.581149 1.20776,0 2.00143,-0.786767 2.54664,-1.891002 0.57972,-1.235363 1.03522,-3.34031 1.03522,-3.402423 0,-0.345074 -0.31056,-0.345074 -0.40718,-0.345074 -0.34508,0 -0.37959,0.13803 -0.48311,0.621132 -0.58662,2.236076 -1.20775,4.258206 -2.61565,4.258206 -0.9248,0 -1.03522,-0.89029 -1.03522,-1.580436 0,-0.821275 0.069,-1.069728 0.20704,-1.649451 z"
         inkscape:connector-curvature="0"
         style="font-style:normal;font-variant:normal;font-weight:normal;font-stretch:normal;letter-spacing:normal;word-spacing:normal;text-anchor:start;fill:#0000ff;stroke:#0000ff;stroke-width:0;stroke-linecap:butt;stroke-linejoin:miter;stroke-miterlimit:10.43299960999999954;stroke-opacity:1;stroke-dasharray:none;stroke-dashoffset:0" />
      <path
         id="path12443"
         d="m 405.43604,-30.340844 0,-0.0138 0,-0.0207 0,-0.0069 0,-0.0138 -0.007,-0.0069 0,-0.0138 -0.007,-0.0069 0,-0.0138 -0.007,-0.0138 -0.007,-0.0138 -0.007,-0.0138 -0.0138,-0.0207 -0.007,-0.0138 -0.0138,-0.0207 -0.0138,-0.0207 -0.0207,-0.0207 -0.0138,-0.0207 -0.0207,-0.02761 -0.0138,-0.0138 -0.0138,-0.0138 -0.007,-0.0138 -0.0138,-0.0138 -0.0138,-0.0138 -0.0138,-0.0207 -0.0138,-0.0138 -0.0138,-0.0138 -0.0207,-0.0207 -0.0138,-0.0138 -0.0207,-0.0207 -0.0138,-0.0207 -0.0207,-0.0207 -0.0138,-0.0207 -0.0207,-0.02071 -0.0207,-0.0207 -0.0207,-0.0207 -0.0276,-0.0207 -0.0207,-0.02761 -0.0207,-0.0207 -0.0276,-0.02761 -0.0276,-0.0207 -0.0207,-0.02761 -0.0276,-0.02761 c -4.29271,-4.334122 -5.39005,-10.828402 -5.39005,-16.08732 0,-5.983572 1.30438,-11.974046 5.52808,-16.259857 0.44169,-0.42099 0.44169,-0.490004 0.44169,-0.593526 0,-0.241552 -0.13113,-0.338172 -0.33127,-0.338172 -0.34507,0 -3.44383,2.332696 -5.46596,6.694423 -1.75987,3.788906 -2.17396,7.605417 -2.17396,10.497132 0,2.68467 0.37958,6.832452 2.27058,10.72488 2.05664,4.230599 5.02427,6.459773 5.36934,6.459773 0.20014,0 0.33127,-0.09662 0.33127,-0.345073 z"
         inkscape:connector-curvature="0"
         style="font-style:normal;font-variant:normal;font-weight:normal;font-stretch:normal;letter-spacing:normal;word-spacing:normal;text-anchor:start;fill:#0000ff;stroke:#0000ff;stroke-width:0;stroke-linecap:butt;stroke-linejoin:miter;stroke-miterlimit:10.43299960999999954;stroke-opacity:1;stroke-dasharray:none;stroke-dashoffset:0" />
      <path
         id="path12445"
         d="m 418.8732,-48.974806 0.0207,-0.08972 0.0276,-0.103522 0.0276,-0.110423 0.0345,-0.124227 0.0345,-0.131128 0.0414,-0.14493 0.0483,-0.151833 0.0483,-0.151832 0.0552,-0.158734 0.0621,-0.165635 0.0621,-0.172537 0.069,-0.165635 0.0828,-0.172537 0.0828,-0.172536 0.0828,-0.172537 0.0966,-0.172537 0.10352,-0.165635 0.11042,-0.165635 0.11042,-0.158734 0.12423,-0.151832 0.13113,-0.151832 0.13803,-0.13803 0.13803,-0.131128 0.15873,-0.124226 0.15873,-0.110423 0.16564,-0.09662 0.0897,-0.04831 0.0897,-0.04141 0.0897,-0.03451 0.0966,-0.03451 0.0966,-0.03451 0.0966,-0.02761 0.0966,-0.0207 0.10352,-0.0207 0.11042,-0.0138 0.10353,-0.0138 0.11042,-0.0069 0.11042,0 c 0.17254,0 0.99382,0 1.71847,0.441694 -0.96621,0.172537 -1.65635,1.03522 -1.65635,1.856495 0,0.545215 0.37958,1.207756 1.31128,1.207756 0.75226,0 1.84959,-0.61423 1.84959,-1.994524 0,-1.794381 -2.02213,-2.263681 -3.18848,-2.263681 -1.99452,0 -3.20228,1.821987 -3.61637,2.608755 -0.86268,-2.263682 -2.71227,-2.608755 -3.70609,-2.608755 -3.58186,0 -5.54187,4.430742 -5.54187,5.293425 0,0.345074 0.34507,0.345074 0.42099,0.345074 0.26915,0 0.37268,-0.07592 0.44169,-0.379581 1.15945,-3.643975 3.43693,-4.506658 4.60328,-4.506658 0.65564,0 1.85649,0.303665 1.85649,2.298189 0,1.062825 -0.58662,3.374817 -1.85649,8.18514 -0.55212,2.132553 -1.74607,3.57496 -3.2713,3.57496 -0.20014,0 -0.98691,0 -1.71156,-0.448596 0.86268,-0.165635 1.62184,-0.883388 1.62184,-1.856494 0,-0.924797 -0.75916,-1.193954 -1.27677,-1.193954 -1.03522,0 -1.8979,0.890289 -1.8979,1.994524 0,1.573534 1.72537,2.263681 3.23679,2.263681 2.27058,0 3.50594,-2.408612 3.60946,-2.608755 0.41409,1.26987 1.64946,2.608755 3.71299,2.608755 3.54736,0 5.50737,-4.430742 5.50737,-5.293425 0,-0.345074 -0.31056,-0.345074 -0.42098,-0.345074 -0.30367,0 -0.37268,0.13803 -0.4417,0.37268 -1.13184,3.678482 -3.47144,4.506658 -4.56877,4.506658 -1.35269,0 -1.8979,-1.097334 -1.8979,-2.270583 0,-0.759161 0.20014,-1.511421 0.59352,-3.022843 z"
         inkscape:connector-curvature="0"
         style="font-style:normal;font-variant:normal;font-weight:normal;font-stretch:normal;letter-spacing:normal;word-spacing:normal;text-anchor:start;fill:#0000ff;stroke:#0000ff;stroke-width:0;stroke-linecap:butt;stroke-linejoin:miter;stroke-miterlimit:10.43299960999999954;stroke-opacity:1;stroke-dasharray:none;stroke-dashoffset:0" />
      <path
         id="path12447"
         d="m 436.94814,-47.180424 0,-0.255355 0,-0.269157 -0.007,-0.269157 -0.0138,-0.28296 -0.0276,-0.579723 -0.0414,-0.60733 -0.0552,-0.634935 -0.0759,-0.655639 -0.0897,-0.669442 -0.11043,-0.697048 -0.13803,-0.70395 -0.15873,-0.710851 -0.18634,-0.724654 -0.20704,-0.731556 -0.24156,-0.738457 -0.26915,-0.738457 -0.15184,-0.365778 -0.15183,-0.365777 -0.16563,-0.365778 -0.17254,-0.365778 c -2.05664,-4.223698 -5.01046,-6.459773 -5.35554,-6.459773 -0.20704,0 -0.34507,0.131128 -0.34507,0.338172 0,0.103522 0,0.172536 0.64184,0.793668 3.37481,3.395522 5.34173,8.868386 5.34173,16.059715 0,5.873148 -1.27677,11.925735 -5.54878,16.259856 -0.43479,0.407187 -0.43479,0.483103 -0.43479,0.579724 0,0.207044 0.13803,0.345073 0.34507,0.345073 0.34508,0 3.42313,-2.339597 5.46596,-6.701325 1.74608,-3.775102 2.15326,-7.591614 2.15326,-10.483328 z"
         inkscape:connector-curvature="0"
         style="font-style:normal;font-variant:normal;font-weight:normal;font-stretch:normal;letter-spacing:normal;word-spacing:normal;text-anchor:start;fill:#0000ff;stroke:#0000ff;stroke-width:0;stroke-linecap:butt;stroke-linejoin:miter;stroke-miterlimit:10.43299960999999954;stroke-opacity:1;stroke-dasharray:none;stroke-dashoffset:0" />
    </g>
    <g
       id="g16607"
       transform="matrix(0.55420229,0,0,0.55420229,-157.71172,109.6263)">
      <g
         id="g16609"
         transform="matrix(1.0629921,0,0,-1.0629921,-186.02362,789.27165)"
         xml:space="preserve"
         stroke-miterlimit="10.433"
         font-style="normal"
         font-variant="normal"
         font-weight="normal"
         font-stretch="normal"
         font-size-adjust="none"
         letter-spacing="normal"
         word-spacing="normal"
         style="font-style:normal;font-variant:normal;font-weight:normal;font-stretch:normal;letter-spacing:normal;word-spacing:normal;text-anchor:start;fill:none;stroke:#000000;stroke-linecap:butt;stroke-linejoin:miter;stroke-miterlimit:10.43299961;stroke-opacity:1;stroke-dasharray:none;stroke-dashoffset:0"><polygon
           points="478.02,434.04 478.02,435.59 460.04,435.59 460.04,434.04 "
           id="polygon16611"
           style="fill:#000000;stroke-width:0" /><path
           d="m 475.25,425.14 -0.15,0 -0.14,0 -0.15,-0.01 -0.14,0 -0.14,-0.01 -0.14,-0.02 -0.07,-0.01 -0.07,-0.01 -0.07,-0.02 -0.07,-0.01 -0.06,-0.02 -0.07,-0.02 -0.07,-0.02 -0.07,-0.02 -0.06,-0.03 -0.07,-0.03 -0.07,-0.03 -0.06,-0.04 -0.07,-0.04 -0.07,-0.04 -0.06,-0.05 -0.07,-0.04 -0.07,-0.06 -0.06,-0.05 -0.07,-0.06 -0.06,-0.07 c -0.8,-0.75 -0.89,-1.59 -0.89,-1.93 0,-1.21 0.89,-1.75 1.84,-1.75 1.44,0 2.8,1.2 2.8,3.18 0,2.44 -2.35,4.28 -5.89,4.28 -6.72,0 -13.35,-7.12 -13.35,-14.14 0,-4.48 2.89,-8.42 8.06,-8.42 7.13,0 11.32,5.28 11.32,5.88 0,0.29 -0.3,0.65 -0.6,0.65 -0.25,0 -0.34,-0.11 -0.65,-0.5 -3.94,-4.93 -9.36,-4.93 -9.96,-4.93 -3.14,0 -4.48,2.43 -4.48,5.43 0,2.03 0.98,6.88 2.69,9.96 1.54,2.84 4.28,4.98 7.01,4.98 1.71,0 3.6,-0.64 4.3,-1.98 z"
           id="path16613"
           inkscape:connector-curvature="0"
           style="fill:#000000;stroke-width:0" /></g>    </g>
    <g
       id="g16829"
       transform="matrix(0.55420229,0,0,0.55420229,-157.54816,-100.76)">
      <g
         word-spacing="normal"
         letter-spacing="normal"
         font-size-adjust="none"
         font-stretch="normal"
         font-weight="normal"
         font-variant="normal"
         font-style="normal"
         stroke-miterlimit="10.433"
         xml:space="preserve"
         transform="matrix(1.0629921,0,0,-1.0629921,-186.02362,789.27165)"
         id="g16831"
         style="font-style:normal;font-variant:normal;font-weight:normal;font-stretch:normal;letter-spacing:normal;word-spacing:normal;text-anchor:start;fill:none;stroke:#000000;stroke-linecap:butt;stroke-linejoin:miter;stroke-miterlimit:10.43299961;stroke-opacity:1;stroke-dasharray:none;stroke-dashoffset:0"><polygon
           id="polygon16833"
           points="485.82,448.67 467.84,448.67 467.84,447.12 485.82,447.12 "
           style="fill:#000000;stroke-width:0" /><path
           id="path16835"
           d="m 481.22,440.23 0,0 0,0.01 0,0 0,0.01 0,0.02 0,0.01 0,0.02 0,0.02 -0.01,0.02 0,0.02 -0.01,0.02 0,0.02 -0.01,0.02 -0.01,0.03 -0.01,0.02 -0.01,0.03 -0.02,0.02 -0.01,0.03 -0.02,0.02 -0.02,0.02 -0.02,0.03 -0.02,0.01 -0.01,0.01 -0.01,0.01 -0.02,0.01 -0.01,0.01 -0.02,0.01 -0.01,0.01 -0.02,0.01 -0.01,0.01 -0.02,0.01 -0.02,0 -0.02,0.01 -0.02,0.01 -0.02,0 -0.02,0.01 -0.03,0.01 -0.02,0 -0.02,0 -0.03,0.01 -0.03,0 -0.02,0 -0.03,0.01 -0.03,0 -0.03,0 c -0.75,0 -5.48,-0.46 -6.33,-0.55 -0.4,-0.05 -0.7,-0.3 -0.7,-0.95 0,-0.6 0.45,-0.6 1.2,-0.6 2.39,0 2.49,-0.34 2.49,-0.84 l -0.14,-1 -3,-11.81 c -0.89,1.84 -2.35,3.18 -4.58,3.18 l 0.05,-1.09 c 3.23,0 3.93,-4.08 3.93,-4.37 0,-0.32 -0.09,-0.61 -0.14,-0.86 l -2.5,-9.77 c -0.25,-0.89 -0.25,-0.98 -1,-1.84 -2.18,-2.74 -4.23,-3.53 -5.62,-3.53 -2.49,0 -3.19,2.73 -3.19,4.68 0,2.49 1.59,8.61 2.74,10.91 1.54,2.94 3.79,4.78 5.78,4.78 l -0.05,1.09 c -5.83,0 -12,-7.31 -12,-14.59 0,-4.69 2.73,-7.97 6.62,-7.97 0.99,0 3.49,0.21 6.47,3.74 0.41,-2.1 2.14,-3.74 4.53,-3.74 1.75,0 2.9,1.14 3.69,2.74 0.85,1.79 1.5,4.84 1.5,4.93 0,0.5 -0.45,0.5 -0.59,0.5 -0.5,0 -0.55,-0.2 -0.7,-0.9 -0.85,-3.24 -1.75,-6.17 -3.79,-6.17 -1.34,0 -1.5,1.29 -1.5,2.29 0,1.19 0.1,1.55 0.3,2.39 z"
           inkscape:connector-curvature="0"
           style="fill:#000000;stroke-width:0" /></g>    </g>
  </g>
</svg>
